# MagicaVoxel @ Ephtracy

# group
o 

# material
mtllib truck-v4-orange.mtl
usemtl palette

# normals
vn 1 0 0
vn -1 0 0
vn 0 0 -1
vn 0 0 1
vn 0 -1 0
vn 0 1 0

# texcoords
vt 0.826172 0.5
vt 0.896484 0.5
vt 0.908203 0.5
vt 0.982422 0.5

# verts
v 1.5 0.1 -0.3
v 1.5 0.1 0.3
v 1.5 0.2 -0.3
v 1.5 0.2 -0.1
v 1.5 0.2 0.1
v 1.5 0.2 0.3
v 1.5 0.3 -0.3
v 1.5 0.3 -0.1
v 1.5 0.3 0.1
v 1.5 0.3 0.3
v 1.5 0.9 -0.3
v 1.5 0.9 0.3
v 0.9 0.1 -0.3
v 0.9 0.1 -0.1
v 0.9 0.1 0.1
v 0.9 0.1 0.3
v 0.9 0.2 -0.3
v 0.9 0.2 -0.1
v 0.9 0.2 0.1
v 0.9 0.2 0.3
v 0.6 0.1 -0.3
v 0.6 0.1 -0.1
v 0.6 0.1 0.1
v 0.6 0.1 0.3
v 0.6 0.2 -0.3
v 0.6 0.2 -0.1
v 0.6 0.2 0.1
v 0.6 0.2 0.3
v -0.9 0.1 -0.3
v -0.9 0.1 -0.2
v -0.9 0.1 0.2
v -0.9 0.1 0.3
v -0.9 0.7 -0.2
v -0.9 0.7 0.2
v -0.9 0.8 -0.3
v -0.9 0.8 0.3
v -1.3 0.1 -0.3
v -1.3 0.1 -0.2
v -1.3 0.1 0.2
v -1.3 0.1 0.3
v -1.3 0.2 -0.3
v -1.3 0.2 -0.2
v -1.3 0.2 0.2
v -1.3 0.2 0.3
v 1.1 0.1 -0.3
v 1.1 0.1 -0.1
v 1.1 0.1 0.1
v 1.1 0.1 0.3
v 1.1 0.2 -0.3
v 1.1 0.2 -0.1
v 1.1 0.2 0.1
v 1.1 0.2 0.3
v 0.8 0.1 -0.3
v 0.8 0.1 -0.1
v 0.8 0.1 0.1
v 0.8 0.1 0.3
v 0.8 0.2 -0.3
v 0.8 0.2 -0.1
v 0.8 0.2 0.1
v 0.8 0.2 0.3
v -0.8 0.1 -0.3
v -0.8 0.1 -0.2
v -0.8 0.1 0.2
v -0.8 0.1 0.3
v -0.8 0.7 -0.2
v -0.8 0.7 0.2
v -0.8 0.9 -0.3
v -0.8 0.9 0.3
v -1.1 0.1 -0.3
v -1.1 0.1 -0.2
v -1.1 0.1 0.2
v -1.1 0.1 0.3
v -1.1 0.2 -0.3
v -1.1 0.2 -0.2
v -1.1 0.2 0.2
v -1.1 0.2 0.3
v -1.3 0.7 -0.3
v -1.3 0.7 -0.2
v -1.3 0.7 0.2
v -1.3 0.7 0.3
v -1.3 0.8 -0.3
v -1.3 0.8 -0.2
v -1.3 0.8 0.2
v -1.3 0.8 0.3
v -1.4 0.4 -0.3
v -1.4 0.4 -0.2
v -1.4 0.4 0.2
v -1.4 0.4 0.3
v -1.4 0.7 -0.3
v -1.4 0.7 -0.2
v -1.4 0.7 0.2
v -1.4 0.7 0.3
v -1.4 0.8 -0.2
v -1.4 0.8 0.2
v -1.5 0.1 -0.3
v -1.5 0.1 0.3
v -1.5 0.2 -0.3
v -1.5 0.2 -0.1
v -1.5 0.2 0.1
v -1.5 0.2 0.3
v -1.5 0.3 -0.3
v -1.5 0.3 -0.1
v -1.5 0.3 0.1
v -1.5 0.3 0.3
v -1.5 0.4 -0.3
v -1.5 0.4 -0.2
v -1.5 0.4 0.2
v -1.5 0.4 0.3
v -1.5 0.7 -0.2
v -1.5 0.7 0.2
v 1.5 0.1 -0.3
v 1.5 0.2 -0.3
v 1.5 0.3 -0.3
v 1.5 0.9 -0.3
v 1.4 0.2 -0.3
v 1.4 0.3 -0.3
v 1.1 0.1 -0.3
v 1.1 0.2 -0.3
v 0.9 0.1 -0.3
v 0.9 0.2 -0.3
v 0.8 0.1 -0.3
v 0.8 0.2 -0.3
v 0.6 0.1 -0.3
v 0.6 0.2 -0.3
v -0.8 0.1 -0.3
v -0.8 0.9 -0.3
v -0.9 0.1 -0.3
v -0.9 0.8 -0.3
v -1.1 0.1 -0.3
v -1.1 0.2 -0.3
v -1.1 0.4 -0.3
v -1.1 0.7 -0.3
v -1.3 0.1 -0.3
v -1.3 0.2 -0.3
v -1.3 0.4 -0.3
v -1.3 0.7 -0.3
v -1.3 0.8 -0.3
v -1.4 0.2 -0.3
v -1.4 0.3 -0.3
v -1.4 0.4 -0.3
v -1.4 0.7 -0.3
v -1.5 0.1 -0.3
v -1.5 0.2 -0.3
v -1.5 0.3 -0.3
v -1.5 0.4 -0.3
v -0.8 0.1 -0.2
v -0.8 0.7 -0.2
v -0.9 0.1 -0.2
v -0.9 0.7 -0.2
v -1.1 0.1 -0.2
v -1.1 0.2 -0.2
v -1.3 0.1 -0.2
v -1.3 0.2 -0.2
v -1.3 0.7 -0.2
v -1.3 0.8 -0.2
v -1.4 0.4 -0.2
v -1.4 0.7 -0.2
v -1.4 0.8 -0.2
v -1.5 0.4 -0.2
v -1.5 0.7 -0.2
v 1.1 0.1 -0.1
v 1.1 0.2 -0.1
v 0.9 0.1 -0.1
v 0.9 0.2 -0.1
v 0.8 0.1 -0.1
v 0.8 0.2 -0.1
v 0.6 0.1 -0.1
v 0.6 0.2 -0.1
v 1.1 0.1 0.1
v 1.1 0.2 0.1
v 0.9 0.1 0.1
v 0.9 0.2 0.1
v 0.8 0.1 0.1
v 0.8 0.2 0.1
v 0.6 0.1 0.1
v 0.6 0.2 0.1
v -0.8 0.1 0.2
v -0.8 0.7 0.2
v -0.9 0.1 0.2
v -0.9 0.7 0.2
v -1.1 0.1 0.2
v -1.1 0.2 0.2
v -1.3 0.1 0.2
v -1.3 0.2 0.2
v -1.3 0.7 0.2
v -1.3 0.8 0.2
v -1.4 0.4 0.2
v -1.4 0.7 0.2
v -1.4 0.8 0.2
v -1.5 0.4 0.2
v -1.5 0.7 0.2
v 1.5 0.1 0.3
v 1.5 0.2 0.3
v 1.5 0.3 0.3
v 1.5 0.9 0.3
v 1.4 0.2 0.3
v 1.4 0.3 0.3
v 1.1 0.1 0.3
v 1.1 0.2 0.3
v 0.9 0.1 0.3
v 0.9 0.2 0.3
v 0.8 0.1 0.3
v 0.8 0.2 0.3
v 0.6 0.1 0.3
v 0.6 0.2 0.3
v -0.8 0.1 0.3
v -0.8 0.9 0.3
v -0.9 0.1 0.3
v -0.9 0.8 0.3
v -1.1 0.1 0.3
v -1.1 0.2 0.3
v -1.1 0.4 0.3
v -1.1 0.7 0.3
v -1.3 0.1 0.3
v -1.3 0.2 0.3
v -1.3 0.4 0.3
v -1.3 0.7 0.3
v -1.3 0.8 0.3
v -1.4 0.2 0.3
v -1.4 0.3 0.3
v -1.4 0.4 0.3
v -1.4 0.7 0.3
v -1.5 0.1 0.3
v -1.5 0.2 0.3
v -1.5 0.3 0.3
v -1.5 0.4 0.3
v 1.5 0.1 -0.3
v 1.1 0.1 -0.3
v 0.9 0.1 -0.3
v 0.8 0.1 -0.3
v 0.6 0.1 -0.3
v -0.8 0.1 -0.3
v -0.9 0.1 -0.3
v -1.1 0.1 -0.3
v -1.3 0.1 -0.3
v -1.5 0.1 -0.3
v -0.8 0.1 -0.2
v -0.9 0.1 -0.2
v -1.1 0.1 -0.2
v -1.3 0.1 -0.2
v 1.1 0.1 -0.1
v 0.9 0.1 -0.1
v 0.8 0.1 -0.1
v 0.6 0.1 -0.1
v 1.1 0.1 0.1
v 0.9 0.1 0.1
v 0.8 0.1 0.1
v 0.6 0.1 0.1
v -0.8 0.1 0.2
v -0.9 0.1 0.2
v -1.1 0.1 0.2
v -1.3 0.1 0.2
v 1.5 0.1 0.3
v 1.1 0.1 0.3
v 0.9 0.1 0.3
v 0.8 0.1 0.3
v 0.6 0.1 0.3
v -0.8 0.1 0.3
v -0.9 0.1 0.3
v -1.1 0.1 0.3
v -1.3 0.1 0.3
v -1.5 0.1 0.3
v 1.1 0.2 -0.3
v 0.9 0.2 -0.3
v 0.8 0.2 -0.3
v 0.6 0.2 -0.3
v -1.1 0.2 -0.3
v -1.3 0.2 -0.3
v -1.1 0.2 -0.2
v -1.3 0.2 -0.2
v 1.1 0.2 -0.1
v 0.9 0.2 -0.1
v 0.8 0.2 -0.1
v 0.6 0.2 -0.1
v 1.1 0.2 0.1
v 0.9 0.2 0.1
v 0.8 0.2 0.1
v 0.6 0.2 0.1
v -1.1 0.2 0.2
v -1.3 0.2 0.2
v 1.1 0.2 0.3
v 0.9 0.2 0.3
v 0.8 0.2 0.3
v 0.6 0.2 0.3
v -1.1 0.2 0.3
v -1.3 0.2 0.3
v -1.4 0.4 -0.3
v -1.5 0.4 -0.3
v -1.4 0.4 -0.2
v -1.5 0.4 -0.2
v -1.4 0.4 0.2
v -1.5 0.4 0.2
v -1.4 0.4 0.3
v -1.5 0.4 0.3
v -1.3 0.7 -0.3
v -1.4 0.7 -0.3
v -0.8 0.7 -0.2
v -0.9 0.7 -0.2
v -1.3 0.7 -0.2
v -1.4 0.7 -0.2
v -1.5 0.7 -0.2
v -0.8 0.7 0.2
v -0.9 0.7 0.2
v -1.3 0.7 0.2
v -1.4 0.7 0.2
v -1.5 0.7 0.2
v -1.3 0.7 0.3
v -1.4 0.7 0.3
v -0.9 0.8 -0.3
v -1.3 0.8 -0.3
v -1.3 0.8 -0.2
v -1.4 0.8 -0.2
v -1.3 0.8 0.2
v -1.4 0.8 0.2
v -0.9 0.8 0.3
v -1.3 0.8 0.3
v 1.5 0.9 -0.3
v -0.8 0.9 -0.3
v 1.5 0.9 0.3
v -0.8 0.9 0.3

# faces
f 3/4/1 2/4/1 1/4/1
f 4/4/1 2/4/1 3/4/1
f 5/4/1 2/4/1 4/4/1
f 6/4/1 2/4/1 5/4/1
f 7/3/1 4/3/1 3/3/1
f 8/4/1 5/4/1 4/4/1
f 8/3/1 4/3/1 7/3/1
f 9/3/1 6/3/1 5/3/1
f 9/4/1 5/4/1 8/4/1
f 10/3/1 6/3/1 9/3/1
f 11/4/1 8/4/1 7/4/1
f 11/4/1 9/4/1 8/4/1
f 11/4/1 10/4/1 9/4/1
f 12/4/1 10/4/1 11/4/1
f 17/4/1 14/4/1 13/4/1
f 18/4/1 14/4/1 17/4/1
f 19/4/1 16/4/1 15/4/1
f 20/4/1 16/4/1 19/4/1
f 25/4/1 22/4/1 21/4/1
f 26/4/1 22/4/1 25/4/1
f 27/4/1 24/4/1 23/4/1
f 28/4/1 24/4/1 27/4/1
f 33/4/1 30/4/1 29/4/1
f 34/4/1 32/4/1 31/4/1
f 35/4/1 33/4/1 29/4/1
f 35/4/1 34/4/1 33/4/1
f 36/4/1 32/4/1 34/4/1
f 36/4/1 34/4/1 35/4/1
f 41/4/1 38/4/1 37/4/1
f 42/4/1 38/4/1 41/4/1
f 43/4/1 40/4/1 39/4/1
f 44/4/1 40/4/1 43/4/1
f 45/4/2 46/4/2 49/4/2
f 49/4/2 46/4/2 50/4/2
f 47/4/2 48/4/2 51/4/2
f 51/4/2 48/4/2 52/4/2
f 53/4/2 54/4/2 57/4/2
f 57/4/2 54/4/2 58/4/2
f 55/4/2 56/4/2 59/4/2
f 59/4/2 56/4/2 60/4/2
f 61/4/2 62/4/2 65/4/2
f 63/4/2 64/4/2 66/4/2
f 61/4/2 65/4/2 67/4/2
f 65/4/2 66/4/2 67/4/2
f 66/4/2 64/4/2 68/4/2
f 67/4/2 66/4/2 68/4/2
f 69/4/2 70/4/2 73/4/2
f 73/4/2 70/4/2 74/4/2
f 71/4/2 72/4/2 75/4/2
f 75/4/2 72/4/2 76/4/2
f 77/4/2 78/4/2 81/4/2
f 81/4/2 78/4/2 82/4/2
f 79/4/2 80/4/2 83/4/2
f 83/4/2 80/4/2 84/4/2
f 85/4/2 86/4/2 89/4/2
f 89/4/2 86/4/2 90/4/2
f 87/4/2 88/4/2 91/4/2
f 91/4/2 88/4/2 92/4/2
f 90/4/2 91/4/2 93/4/2
f 93/4/2 91/4/2 94/4/2
f 95/4/2 96/4/2 97/4/2
f 97/4/2 96/4/2 98/4/2
f 98/4/2 96/4/2 99/4/2
f 99/4/2 96/4/2 100/4/2
f 97/2/2 98/2/2 101/2/2
f 98/4/2 99/4/2 102/4/2
f 101/2/2 98/2/2 102/2/2
f 99/2/2 100/2/2 103/2/2
f 102/4/2 99/4/2 103/4/2
f 103/2/2 100/2/2 104/2/2
f 101/4/2 102/4/2 105/4/2
f 102/4/2 103/4/2 105/4/2
f 103/4/2 104/4/2 105/4/2
f 105/4/2 104/4/2 106/4/2
f 106/4/2 104/4/2 107/4/2
f 107/4/2 104/4/2 108/4/2
f 106/1/2 107/1/2 109/1/2
f 109/1/2 107/1/2 110/1/2
f 115/4/3 112/4/3 111/4/3
f 115/3/3 113/3/3 112/3/3
f 116/4/3 114/4/3 113/4/3
f 116/3/3 113/3/3 115/3/3
f 117/4/3 115/4/3 111/4/3
f 117/4/3 116/4/3 115/4/3
f 118/4/3 116/4/3 117/4/3
f 120/4/3 116/4/3 118/4/3
f 121/4/3 120/4/3 119/4/3
f 122/4/3 116/4/3 120/4/3
f 122/4/3 120/4/3 121/4/3
f 124/4/3 116/4/3 122/4/3
f 125/4/3 124/4/3 123/4/3
f 126/4/3 114/4/3 116/4/3
f 126/4/3 124/4/3 125/4/3
f 126/4/3 116/4/3 124/4/3
f 129/4/3 128/4/3 127/4/3
f 130/4/3 128/4/3 129/4/3
f 131/4/3 128/4/3 130/4/3
f 132/4/3 128/4/3 131/4/3
f 134/4/3 131/4/3 130/4/3
f 135/1/3 132/1/3 131/1/3
f 135/4/3 131/4/3 134/4/3
f 136/4/3 128/4/3 132/4/3
f 136/1/3 132/1/3 135/1/3
f 137/4/3 128/4/3 136/4/3
f 138/4/3 135/4/3 134/4/3
f 138/4/3 134/4/3 133/4/3
f 138/4/3 136/4/3 135/4/3
f 139/4/3 136/4/3 138/4/3
f 140/4/3 136/4/3 139/4/3
f 141/4/3 136/4/3 140/4/3
f 142/4/3 138/4/3 133/4/3
f 143/2/3 139/2/3 138/2/3
f 143/4/3 138/4/3 142/4/3
f 144/4/3 140/4/3 139/4/3
f 144/2/3 139/2/3 143/2/3
f 145/4/3 140/4/3 144/4/3
f 148/4/3 147/4/3 146/4/3
f 149/4/3 147/4/3 148/4/3
f 152/4/3 151/4/3 150/4/3
f 153/4/3 151/4/3 152/4/3
f 157/4/3 155/4/3 154/4/3
f 158/4/3 155/4/3 157/4/3
f 159/1/3 157/1/3 156/1/3
f 160/1/3 157/1/3 159/1/3
f 163/4/3 162/4/3 161/4/3
f 164/4/3 162/4/3 163/4/3
f 167/4/3 166/4/3 165/4/3
f 168/4/3 166/4/3 167/4/3
f 169/4/4 170/4/4 171/4/4
f 171/4/4 170/4/4 172/4/4
f 173/4/4 174/4/4 175/4/4
f 175/4/4 174/4/4 176/4/4
f 177/4/4 178/4/4 179/4/4
f 179/4/4 178/4/4 180/4/4
f 181/4/4 182/4/4 183/4/4
f 183/4/4 182/4/4 184/4/4
f 185/4/4 186/4/4 188/4/4
f 188/4/4 186/4/4 189/4/4
f 187/1/4 188/1/4 190/1/4
f 190/1/4 188/1/4 191/1/4
f 192/4/4 193/4/4 196/4/4
f 193/3/4 194/3/4 196/3/4
f 194/4/4 195/4/4 197/4/4
f 196/3/4 194/3/4 197/3/4
f 192/4/4 196/4/4 198/4/4
f 196/4/4 197/4/4 198/4/4
f 198/4/4 197/4/4 199/4/4
f 199/4/4 197/4/4 201/4/4
f 200/4/4 201/4/4 202/4/4
f 201/4/4 197/4/4 203/4/4
f 202/4/4 201/4/4 203/4/4
f 203/4/4 197/4/4 205/4/4
f 204/4/4 205/4/4 206/4/4
f 197/4/4 195/4/4 207/4/4
f 206/4/4 205/4/4 207/4/4
f 205/4/4 197/4/4 207/4/4
f 208/4/4 209/4/4 210/4/4
f 210/4/4 209/4/4 211/4/4
f 211/4/4 209/4/4 212/4/4
f 212/4/4 209/4/4 213/4/4
f 211/4/4 212/4/4 215/4/4
f 212/1/4 213/1/4 216/1/4
f 215/4/4 212/4/4 216/4/4
f 213/4/4 209/4/4 217/4/4
f 216/1/4 213/1/4 217/1/4
f 217/4/4 209/4/4 218/4/4
f 215/4/4 216/4/4 219/4/4
f 214/4/4 215/4/4 219/4/4
f 216/4/4 217/4/4 219/4/4
f 219/4/4 217/4/4 220/4/4
f 220/4/4 217/4/4 221/4/4
f 221/4/4 217/4/4 222/4/4
f 214/4/4 219/4/4 223/4/4
f 219/2/4 220/2/4 224/2/4
f 223/4/4 219/4/4 224/4/4
f 220/4/4 221/4/4 225/4/4
f 224/2/4 220/2/4 225/2/4
f 225/4/4 221/4/4 226/4/4
f 237/4/5 232/4/5 231/4/5
f 238/4/5 234/4/5 233/4/5
f 239/4/5 234/4/5 238/4/5
f 240/4/5 236/4/5 235/4/5
f 241/4/5 228/4/5 227/4/5
f 242/4/5 230/4/5 229/4/5
f 243/4/5 230/4/5 242/4/5
f 244/4/5 240/4/5 239/4/5
f 244/4/5 239/4/5 238/4/5
f 244/4/5 237/4/5 231/4/5
f 244/4/5 238/4/5 237/4/5
f 245/4/5 243/4/5 242/4/5
f 245/4/5 244/4/5 243/4/5
f 245/4/5 241/4/5 227/4/5
f 245/4/5 242/4/5 241/4/5
f 246/4/5 244/4/5 245/4/5
f 247/4/5 244/4/5 246/4/5
f 248/4/5 240/4/5 244/4/5
f 248/4/5 244/4/5 247/4/5
f 249/4/5 240/4/5 248/4/5
f 250/4/5 240/4/5 249/4/5
f 251/4/5 240/4/5 250/4/5
f 252/4/5 236/4/5 240/4/5
f 252/4/5 240/4/5 251/4/5
f 253/4/5 245/4/5 227/4/5
f 254/4/5 245/4/5 253/4/5
f 255/4/5 247/4/5 246/4/5
f 256/4/5 247/4/5 255/4/5
f 257/4/5 249/4/5 248/4/5
f 258/4/5 249/4/5 257/4/5
f 259/4/5 251/4/5 250/4/5
f 260/4/5 251/4/5 259/4/5
f 261/4/5 236/4/5 252/4/5
f 262/4/5 236/4/5 261/4/5
f 269/4/5 268/4/5 267/4/5
f 270/4/5 268/4/5 269/4/5
f 271/4/5 264/4/5 263/4/5
f 272/4/5 264/4/5 271/4/5
f 273/4/5 266/4/5 265/4/5
f 274/4/5 266/4/5 273/4/5
f 281/4/5 276/4/5 275/4/5
f 282/4/5 276/4/5 281/4/5
f 283/4/5 278/4/5 277/4/5
f 284/4/5 278/4/5 283/4/5
f 285/4/5 280/4/5 279/4/5
f 286/4/5 280/4/5 285/4/5
f 287/4/6 288/4/6 289/4/6
f 289/4/6 288/4/6 290/4/6
f 291/4/6 292/4/6 293/4/6
f 293/4/6 292/4/6 294/4/6
f 295/4/6 296/4/6 299/4/6
f 299/4/6 296/4/6 300/4/6
f 297/4/6 298/4/6 302/4/6
f 302/4/6 298/4/6 303/4/6
f 300/1/6 301/1/6 305/1/6
f 305/1/6 301/1/6 306/1/6
f 304/4/6 305/4/6 307/4/6
f 307/4/6 305/4/6 308/4/6
f 309/4/6 310/4/6 311/4/6
f 309/4/6 311/4/6 313/4/6
f 311/4/6 312/4/6 313/4/6
f 313/4/6 312/4/6 314/4/6
f 309/4/6 313/4/6 315/4/6
f 315/4/6 313/4/6 316/4/6
f 317/4/6 318/4/6 319/4/6
f 319/4/6 318/4/6 320/4/6
