# MagicaVoxel @ Ephtracy

# group
o 

# material
mtllib path-3-way-crossing-1.mtl
usemtl palette

# normals
vn 0 0 -1
vn 0 0 1
vn -1 0 0
vn 1 0 0
vn 0 -1 0
vn 0 1 0

# texcoords
vt 0.908203 0.5
vt 0.912109 0.5
vt 0.916016 0.5
vt 0.923828 0.5
vt 0.927734 0.5
vt 0.931641 0.5
vt 0.935547 0.5

# verts
v -1.6 0 -0.2
v -1.4 0 -0.2
v -1.1 0 -0.2
v -0.9 0 -0.2
v -0.8 0 -0.2
v -0.6 0 -0.2
v 0.9 0 -0.2
v 1.1 0 -0.2
v 1.3 0 -0.2
v 1.5 0 -0.2
v 1.6 0 -0.2
v -1.6 0.1 -0.2
v -1.4 0.1 -0.2
v -1.1 0.1 -0.2
v -0.9 0.1 -0.2
v -0.8 0.1 -0.2
v -0.6 0.1 -0.2
v 0.9 0.1 -0.2
v 1.1 0.1 -0.2
v 1.3 0.1 -0.2
v 1.5 0.1 -0.2
v 1.6 0.1 -0.2
v -0.6 0 -0.0999999
v -0.3 0 -0.0999999
v 0 0 -0.0999999
v 0.3 0 -0.0999999
v 0.6 0 -0.0999999
v 0.9 0 -0.0999999
v -0.6 0.1 -0.0999999
v -0.3 0.1 -0.0999999
v 0 0.1 -0.0999999
v 0.3 0.1 -0.0999999
v 0.6 0.1 -0.0999999
v 0.9 0.1 -0.0999999
v -0.1 0 0.7
v 0 0 0.7
v -0.1 0.1 0.7
v 0 0.1 0.7
v -0.2 0 1.2
v -0.1 0 1.2
v -0.2 0.1 1.2
v -0.1 0.1 1.2
v -1.6 0 0.2
v -1.4 0 0.2
v -1.1 0 0.2
v -0.9 0 0.2
v -0.8 0 0.2
v 1.1 0 0.2
v 1.3 0 0.2
v 1.4 0 0.2
v 1.6 0 0.2
v -1.6 0.1 0.2
v -1.4 0.1 0.2
v -1.1 0.1 0.2
v -0.9 0.1 0.2
v -0.8 0.1 0.2
v 1.1 0.1 0.2
v 1.3 0.1 0.2
v 1.4 0.1 0.2
v 1.6 0.1 0.2
v -0.8 0 0.3
v -0.7 0 0.3
v -0.4 0 0.3
v 0 0 0.3
v 0.4 0 0.3
v 0.5 0 0.3
v 0.7 0 0.3
v 1.1 0 0.3
v -0.8 0.1 0.3
v -0.7 0.1 0.3
v -0.4 0.1 0.3
v 0 0.1 0.3
v 0.4 0.1 0.3
v 0.5 0.1 0.3
v 0.7 0.1 0.3
v 1.1 0.1 0.3
v 0.3 0 0.8
v 0.4 0 0.8
v 0.3 0.1 0.8
v 0.4 0.1 0.8
v 0.2 0 1.3
v 0.3 0 1.3
v 0.2 0.1 1.3
v 0.3 0.1 1.3
v -0.2 0 1.6
v -0.1 0 1.6
v 0 0 1.6
v 0.1 0 1.6
v 0.2 0 1.6
v -0.2 0.1 1.6
v -0.1 0.1 1.6
v 0 0.1 1.6
v 0.1 0.1 1.6
v 0.2 0.1 1.6
v -1.6 0 -0.2
v -1.6 0.1 -0.2
v -1.6 0 -0.0999999
v -1.6 0.1 -0.0999999
v -1.6 0 0.1
v -1.6 0.1 0.1
v -1.6 0 0.2
v -1.6 0.1 0.2
v -0.8 0 0.2
v -0.8 0.1 0.2
v -0.8 0 0.3
v -0.8 0.1 0.3
v -0.2 0 1.2
v -0.2 0.1 1.2
v -0.2 0 1.4
v -0.2 0.1 1.4
v -0.2 0 1.6
v -0.2 0.1 1.6
v -0.1 0 0.7
v -0.1 0.1 0.7
v -0.1 0 0.8
v -0.1 0.1 0.8
v -0.1 0 1
v -0.1 0.1 1
v -0.1 0 1.1
v -0.1 0.1 1.1
v -0.1 0 1.2
v -0.1 0.1 1.2
v 0 0 0.3
v 0 0.1 0.3
v 0 0 0.5
v 0 0.1 0.5
v 0 0 0.7
v 0 0.1 0.7
v 0.9 0 -0.2
v 0.9 0.1 -0.2
v 0.9 0 -0.0999999
v 0.9 0.1 -0.0999999
v -0.6 0 -0.2
v -0.6 0.1 -0.2
v -0.6 0 -0.0999999
v -0.6 0.1 -0.0999999
v 0.2 0 1.3
v 0.2 0.1 1.3
v 0.2 0 1.6
v 0.2 0.1 1.6
v 0.3 0 0.8
v 0.3 0.1 0.8
v 0.3 0 0.9
v 0.3 0.1 0.9
v 0.3 0 1.1
v 0.3 0.1 1.1
v 0.3 0 1.2
v 0.3 0.1 1.2
v 0.3 0 1.3
v 0.3 0.1 1.3
v 0.4 0 0.3
v 0.4 0.1 0.3
v 0.4 0 0.4
v 0.4 0.1 0.4
v 0.4 0 0.5
v 0.4 0.1 0.5
v 0.4 0 0.6
v 0.4 0.1 0.6
v 0.4 0 0.8
v 0.4 0.1 0.8
v 1.1 0 0.2
v 1.1 0.1 0.2
v 1.1 0 0.3
v 1.1 0.1 0.3
v 1.6 0 -0.2
v 1.6 0.1 -0.2
v 1.6 0 -0.0999999
v 1.6 0.1 -0.0999999
v 1.6 0 5.96046e-08
v 1.6 0.1 5.96046e-08
v 1.6 0 0.1
v 1.6 0.1 0.1
v 1.6 0 0.2
v 1.6 0.1 0.2
v -1.6 0 -0.2
v -1.6 0 -0.0999999
v -1.6 0 0.1
v -1.6 0 0.2
v -1.4 0 -0.2
v -1.4 0 -0.0999999
v -1.4 0 5.96046e-08
v -1.4 0 0.1
v -1.4 0 0.2
v -1.2 0 -0.0999999
v -1.2 0 5.96046e-08
v -1.1 0 -0.2
v -1.1 0 -0.0999999
v -1.1 0 0.1
v -1.1 0 0.2
v -1 0 5.96046e-08
v -1 0 0.1
v -0.9 0 -0.2
v -0.9 0 -0.0999999
v -0.9 0 0.1
v -0.9 0 0.2
v -0.8 0 -0.2
v -0.8 0 -0.0999999
v -0.8 0 0.1
v -0.8 0 0.2
v -0.8 0 0.3
v -0.7 0 -0.0999999
v -0.7 0 5.96046e-08
v -0.7 0 0.1
v -0.7 0 0.2
v -0.7 0 0.3
v -0.6 0 -0.2
v -0.6 0 -0.0999999
v -0.6 0 5.96046e-08
v -0.5 0 0.1
v -0.5 0 0.2
v -0.4 0 0.2
v -0.4 0 0.3
v -0.3 0 -0.0999999
v -0.3 0 5.96046e-08
v -0.3 0 0.1
v -0.3 0 0.2
v -0.2 0 1.2
v -0.2 0 1.4
v -0.2 0 1.6
v -0.1 0 5.96046e-08
v -0.1 0 0.1
v -0.1 0 0.2
v -0.1 0 0.7
v -0.1 0 0.8
v -0.1 0 1
v -0.1 0 1.1
v -0.1 0 1.2
v -0.1 0 1.3
v -0.1 0 1.4
v -0.1 0 1.6
v 0 0 -0.0999999
v 0 0 5.96046e-08
v 0 0 0.2
v 0 0 0.3
v 0 0 0.5
v 0 0 0.7
v 0 0 0.8
v 0 0 1
v 0 0 1.1
v 0 0 1.2
v 0 0 1.3
v 0 0 1.4
v 0 0 1.6
v 0.1 0 0.2
v 0.1 0 0.3
v 0.1 0 0.5
v 0.1 0 0.6
v 0.1 0 0.7
v 0.1 0 0.8
v 0.1 0 0.9
v 0.1 0 1.1
v 0.1 0 1.2
v 0.1 0 1.3
v 0.1 0 1.6
v 0.2 0 0.1
v 0.2 0 0.2
v 0.2 0 0.5
v 0.2 0 0.6
v 0.2 0 0.7
v 0.2 0 0.8
v 0.2 0 0.9
v 0.2 0 1.1
v 0.2 0 1.2
v 0.2 0 1.3
v 0.2 0 1.6
v 0.3 0 -0.0999999
v 0.3 0 5.96046e-08
v 0.3 0 0.1
v 0.3 0 0.2
v 0.3 0 0.3
v 0.3 0 0.4
v 0.3 0 0.5
v 0.3 0 0.6
v 0.3 0 0.7
v 0.3 0 0.8
v 0.3 0 0.9
v 0.3 0 1.1
v 0.3 0 1.2
v 0.3 0 1.3
v 0.4 0 0.2
v 0.4 0 0.3
v 0.4 0 0.4
v 0.4 0 0.5
v 0.4 0 0.6
v 0.4 0 0.8
v 0.5 0 5.96046e-08
v 0.5 0 0.1
v 0.5 0 0.2
v 0.5 0 0.3
v 0.6 0 -0.0999999
v 0.6 0 5.96046e-08
v 0.6 0 0.1
v 0.7 0 0.2
v 0.7 0 0.3
v 0.9 0 -0.2
v 0.9 0 -0.0999999
v 0.9 0 5.96046e-08
v 0.9 0 0.1
v 1 0 -0.0999999
v 1 0 5.96046e-08
v 1 0 0.1
v 1 0 0.2
v 1.1 0 -0.2
v 1.1 0 -0.0999999
v 1.1 0 5.96046e-08
v 1.1 0 0.1
v 1.1 0 0.2
v 1.1 0 0.3
v 1.3 0 -0.2
v 1.3 0 -0.0999999
v 1.3 0 5.96046e-08
v 1.3 0 0.1
v 1.3 0 0.2
v 1.4 0 0.1
v 1.4 0 0.2
v 1.5 0 -0.2
v 1.5 0 -0.0999999
v 1.6 0 -0.2
v 1.6 0 -0.0999999
v 1.6 0 5.96046e-08
v 1.6 0 0.1
v 1.6 0 0.2
v -1.6 0.1 -0.2
v -1.6 0.1 -0.0999999
v -1.6 0.1 0.1
v -1.6 0.1 0.2
v -1.4 0.1 -0.2
v -1.4 0.1 -0.0999999
v -1.4 0.1 5.96046e-08
v -1.4 0.1 0.1
v -1.4 0.1 0.2
v -1.2 0.1 -0.0999999
v -1.2 0.1 5.96046e-08
v -1.1 0.1 -0.2
v -1.1 0.1 -0.0999999
v -1.1 0.1 0.1
v -1.1 0.1 0.2
v -1 0.1 5.96046e-08
v -1 0.1 0.1
v -0.9 0.1 -0.2
v -0.9 0.1 -0.0999999
v -0.9 0.1 0.1
v -0.9 0.1 0.2
v -0.8 0.1 -0.2
v -0.8 0.1 -0.0999999
v -0.8 0.1 0.1
v -0.8 0.1 0.2
v -0.8 0.1 0.3
v -0.7 0.1 -0.0999999
v -0.7 0.1 5.96046e-08
v -0.7 0.1 0.1
v -0.7 0.1 0.2
v -0.7 0.1 0.3
v -0.6 0.1 -0.2
v -0.6 0.1 -0.0999999
v -0.6 0.1 5.96046e-08
v -0.5 0.1 0.1
v -0.5 0.1 0.2
v -0.4 0.1 0.2
v -0.4 0.1 0.3
v -0.3 0.1 -0.0999999
v -0.3 0.1 5.96046e-08
v -0.3 0.1 0.1
v -0.3 0.1 0.2
v -0.2 0.1 1.2
v -0.2 0.1 1.4
v -0.2 0.1 1.6
v -0.1 0.1 5.96046e-08
v -0.1 0.1 0.1
v -0.1 0.1 0.2
v -0.1 0.1 0.7
v -0.1 0.1 0.8
v -0.1 0.1 1
v -0.1 0.1 1.1
v -0.1 0.1 1.2
v -0.1 0.1 1.3
v -0.1 0.1 1.4
v -0.1 0.1 1.6
v 0 0.1 -0.0999999
v 0 0.1 5.96046e-08
v 0 0.1 0.2
v 0 0.1 0.3
v 0 0.1 0.5
v 0 0.1 0.7
v 0 0.1 0.8
v 0 0.1 1
v 0 0.1 1.1
v 0 0.1 1.2
v 0 0.1 1.3
v 0 0.1 1.4
v 0 0.1 1.6
v 0.1 0.1 0.2
v 0.1 0.1 0.3
v 0.1 0.1 0.5
v 0.1 0.1 0.6
v 0.1 0.1 0.7
v 0.1 0.1 0.8
v 0.1 0.1 0.9
v 0.1 0.1 1.1
v 0.1 0.1 1.2
v 0.1 0.1 1.3
v 0.1 0.1 1.6
v 0.2 0.1 0.1
v 0.2 0.1 0.2
v 0.2 0.1 0.5
v 0.2 0.1 0.6
v 0.2 0.1 0.7
v 0.2 0.1 0.8
v 0.2 0.1 0.9
v 0.2 0.1 1.1
v 0.2 0.1 1.2
v 0.2 0.1 1.3
v 0.2 0.1 1.6
v 0.3 0.1 -0.0999999
v 0.3 0.1 5.96046e-08
v 0.3 0.1 0.1
v 0.3 0.1 0.2
v 0.3 0.1 0.3
v 0.3 0.1 0.4
v 0.3 0.1 0.5
v 0.3 0.1 0.6
v 0.3 0.1 0.7
v 0.3 0.1 0.8
v 0.3 0.1 0.9
v 0.3 0.1 1.1
v 0.3 0.1 1.2
v 0.3 0.1 1.3
v 0.4 0.1 0.2
v 0.4 0.1 0.3
v 0.4 0.1 0.4
v 0.4 0.1 0.5
v 0.4 0.1 0.6
v 0.4 0.1 0.8
v 0.5 0.1 5.96046e-08
v 0.5 0.1 0.1
v 0.5 0.1 0.2
v 0.5 0.1 0.3
v 0.6 0.1 -0.0999999
v 0.6 0.1 5.96046e-08
v 0.6 0.1 0.1
v 0.7 0.1 0.2
v 0.7 0.1 0.3
v 0.9 0.1 -0.2
v 0.9 0.1 -0.0999999
v 0.9 0.1 5.96046e-08
v 0.9 0.1 0.1
v 1 0.1 -0.0999999
v 1 0.1 5.96046e-08
v 1 0.1 0.1
v 1 0.1 0.2
v 1.1 0.1 -0.2
v 1.1 0.1 -0.0999999
v 1.1 0.1 5.96046e-08
v 1.1 0.1 0.1
v 1.1 0.1 0.2
v 1.1 0.1 0.3
v 1.3 0.1 -0.2
v 1.3 0.1 -0.0999999
v 1.3 0.1 5.96046e-08
v 1.3 0.1 0.1
v 1.3 0.1 0.2
v 1.4 0.1 0.1
v 1.4 0.1 0.2
v 1.5 0.1 -0.2
v 1.5 0.1 -0.0999999
v 1.6 0.1 -0.2
v 1.6 0.1 -0.0999999
v 1.6 0.1 5.96046e-08
v 1.6 0.1 0.1
v 1.6 0.1 0.2

# faces
f 12/7/1 2/7/1 1/7/1
f 13/6/1 3/6/1 2/6/1
f 13/7/1 2/7/1 12/7/1
f 14/5/1 4/5/1 3/5/1
f 14/6/1 3/6/1 13/6/1
f 15/6/1 5/6/1 4/6/1
f 15/5/1 4/5/1 14/5/1
f 16/7/1 6/7/1 5/7/1
f 16/6/1 5/6/1 15/6/1
f 17/7/1 6/7/1 16/7/1
f 18/7/1 8/7/1 7/7/1
f 19/5/1 9/5/1 8/5/1
f 19/7/1 8/7/1 18/7/1
f 20/6/1 10/6/1 9/6/1
f 20/5/1 9/5/1 19/5/1
f 21/7/1 11/7/1 10/7/1
f 21/6/1 10/6/1 20/6/1
f 22/7/1 11/7/1 21/7/1
f 29/7/1 24/7/1 23/7/1
f 30/6/1 25/6/1 24/6/1
f 30/7/1 24/7/1 29/7/1
f 31/5/1 26/5/1 25/5/1
f 31/6/1 25/6/1 30/6/1
f 32/7/1 27/7/1 26/7/1
f 32/5/1 26/5/1 31/5/1
f 33/6/1 28/6/1 27/6/1
f 33/7/1 27/7/1 32/7/1
f 34/6/1 28/6/1 33/6/1
f 37/7/1 36/7/1 35/7/1
f 38/7/1 36/7/1 37/7/1
f 41/6/1 40/6/1 39/6/1
f 42/6/1 40/6/1 41/6/1
f 43/7/2 44/7/2 52/7/2
f 44/6/2 45/6/2 53/6/2
f 52/7/2 44/7/2 53/7/2
f 45/5/2 46/5/2 54/5/2
f 53/6/2 45/6/2 54/6/2
f 46/7/2 47/7/2 55/7/2
f 54/5/2 46/5/2 55/5/2
f 55/7/2 47/7/2 56/7/2
f 48/7/2 49/7/2 57/7/2
f 49/5/2 50/5/2 58/5/2
f 57/7/2 49/7/2 58/7/2
f 50/6/2 51/6/2 59/6/2
f 58/5/2 50/5/2 59/5/2
f 59/6/2 51/6/2 60/6/2
f 61/7/2 62/7/2 69/7/2
f 62/5/2 63/5/2 70/5/2
f 69/7/2 62/7/2 70/7/2
f 63/7/2 64/7/2 71/7/2
f 70/5/2 63/5/2 71/5/2
f 71/7/2 64/7/2 72/7/2
f 65/6/2 66/6/2 73/6/2
f 66/5/2 67/5/2 74/5/2
f 73/6/2 66/6/2 74/6/2
f 67/7/2 68/7/2 75/7/2
f 74/5/2 67/5/2 75/5/2
f 75/7/2 68/7/2 76/7/2
f 77/7/2 78/7/2 79/7/2
f 79/7/2 78/7/2 80/7/2
f 81/6/2 82/6/2 83/6/2
f 83/6/2 82/6/2 84/6/2
f 85/7/2 86/7/2 90/7/2
f 86/3/2 87/3/2 91/3/2
f 90/7/2 86/7/2 91/7/2
f 87/1/2 88/1/2 92/1/2
f 91/3/2 87/3/2 92/3/2
f 88/7/2 89/7/2 93/7/2
f 92/1/2 88/1/2 93/1/2
f 93/7/2 89/7/2 94/7/2
f 97/7/3 96/7/3 95/7/3
f 98/7/3 96/7/3 97/7/3
f 99/1/3 98/1/3 97/1/3
f 100/1/3 98/1/3 99/1/3
f 101/7/3 100/7/3 99/7/3
f 102/7/3 100/7/3 101/7/3
f 105/7/3 104/7/3 103/7/3
f 106/7/3 104/7/3 105/7/3
f 109/6/3 108/6/3 107/6/3
f 110/6/3 108/6/3 109/6/3
f 111/7/3 110/7/3 109/7/3
f 112/7/3 110/7/3 111/7/3
f 115/7/3 114/7/3 113/7/3
f 116/7/3 114/7/3 115/7/3
f 117/5/3 116/5/3 115/5/3
f 118/5/3 116/5/3 117/5/3
f 119/6/3 118/6/3 117/6/3
f 120/6/3 118/6/3 119/6/3
f 121/7/3 120/7/3 119/7/3
f 122/7/3 120/7/3 121/7/3
f 125/6/3 124/6/3 123/6/3
f 126/6/3 124/6/3 125/6/3
f 127/7/3 126/7/3 125/7/3
f 128/7/3 126/7/3 127/7/3
f 131/7/3 130/7/3 129/7/3
f 132/7/3 130/7/3 131/7/3
f 133/7/4 134/7/4 135/7/4
f 135/7/4 134/7/4 136/7/4
f 137/7/4 138/7/4 139/7/4
f 139/7/4 138/7/4 140/7/4
f 141/7/4 142/7/4 143/7/4
f 143/7/4 142/7/4 144/7/4
f 143/6/4 144/6/4 145/6/4
f 145/6/4 144/6/4 146/6/4
f 145/5/4 146/5/4 147/5/4
f 147/5/4 146/5/4 148/5/4
f 147/6/4 148/6/4 149/6/4
f 149/6/4 148/6/4 150/6/4
f 151/6/4 152/6/4 153/6/4
f 153/6/4 152/6/4 154/6/4
f 153/7/4 154/7/4 155/7/4
f 155/7/4 154/7/4 156/7/4
f 155/6/4 156/6/4 157/6/4
f 157/6/4 156/6/4 158/6/4
f 157/7/4 158/7/4 159/7/4
f 159/7/4 158/7/4 160/7/4
f 161/7/4 162/7/4 163/7/4
f 163/7/4 162/7/4 164/7/4
f 165/7/4 166/7/4 167/7/4
f 167/7/4 166/7/4 168/7/4
f 167/3/4 168/3/4 169/3/4
f 169/3/4 168/3/4 170/3/4
f 169/1/4 170/1/4 171/1/4
f 171/1/4 170/1/4 172/1/4
f 171/6/4 172/6/4 173/6/4
f 173/6/4 172/6/4 174/6/4
f 179/7/5 176/7/5 175/7/5
f 180/1/5 177/1/5 176/1/5
f 180/7/5 176/7/5 179/7/5
f 181/1/5 177/1/5 180/1/5
f 182/7/5 178/7/5 177/7/5
f 182/1/5 177/1/5 181/1/5
f 183/7/5 178/7/5 182/7/5
f 184/3/5 181/3/5 180/3/5
f 184/6/5 180/6/5 179/6/5
f 185/1/5 182/1/5 181/1/5
f 185/3/5 181/3/5 184/3/5
f 186/6/5 184/6/5 179/6/5
f 187/1/5 185/1/5 184/1/5
f 187/6/5 184/6/5 186/6/5
f 188/6/5 183/6/5 182/6/5
f 188/1/5 185/1/5 187/1/5
f 188/1/5 182/1/5 185/1/5
f 189/6/5 183/6/5 188/6/5
f 190/1/5 188/1/5 187/1/5
f 191/5/5 189/5/5 188/5/5
f 191/1/5 188/1/5 190/1/5
f 192/5/5 187/5/5 186/5/5
f 193/1/5 190/1/5 187/1/5
f 193/5/5 187/5/5 192/5/5
f 194/5/5 189/5/5 191/5/5
f 194/2/5 191/2/5 190/2/5
f 195/5/5 189/5/5 194/5/5
f 196/6/5 193/6/5 192/6/5
f 197/1/5 190/1/5 193/1/5
f 197/6/5 193/6/5 196/6/5
f 198/2/5 194/2/5 190/2/5
f 198/7/5 195/7/5 194/7/5
f 199/7/5 195/7/5 198/7/5
f 201/7/5 197/7/5 196/7/5
f 201/1/5 190/1/5 197/1/5
f 202/2/5 198/2/5 190/2/5
f 202/1/5 190/1/5 201/1/5
f 203/4/5 199/4/5 198/4/5
f 203/2/5 198/2/5 202/2/5
f 204/7/5 200/7/5 199/7/5
f 204/4/5 199/4/5 203/4/5
f 205/7/5 200/7/5 204/7/5
f 206/7/5 201/7/5 196/7/5
f 207/4/5 202/4/5 201/4/5
f 207/7/5 201/7/5 206/7/5
f 208/1/5 203/1/5 202/1/5
f 208/4/5 202/4/5 207/4/5
f 208/1/5 204/1/5 203/1/5
f 209/1/5 204/1/5 208/1/5
f 210/5/5 205/5/5 204/5/5
f 210/1/5 204/1/5 209/1/5
f 211/3/5 210/3/5 209/3/5
f 211/5/5 205/5/5 210/5/5
f 212/5/5 205/5/5 211/5/5
f 213/7/5 208/7/5 207/7/5
f 214/1/5 209/1/5 208/1/5
f 214/7/5 208/7/5 213/7/5
f 215/3/5 211/3/5 209/3/5
f 215/1/5 209/1/5 214/1/5
f 216/7/5 212/7/5 211/7/5
f 216/3/5 211/3/5 215/3/5
f 220/6/5 214/6/5 213/6/5
f 220/3/5 215/3/5 214/3/5
f 221/1/5 216/1/5 215/1/5
f 221/3/5 215/3/5 220/3/5
f 222/7/5 212/7/5 216/7/5
f 222/1/5 216/1/5 221/1/5
f 227/6/5 218/6/5 217/6/5
f 228/6/5 218/6/5 227/6/5
f 229/7/5 219/7/5 218/7/5
f 229/6/5 218/6/5 228/6/5
f 230/7/5 219/7/5 229/7/5
f 231/6/5 220/6/5 213/6/5
f 232/1/5 221/1/5 220/1/5
f 232/6/5 220/6/5 231/6/5
f 233/2/5 222/2/5 221/2/5
f 233/7/5 212/7/5 222/7/5
f 234/7/5 212/7/5 233/7/5
f 236/7/5 224/7/5 223/7/5
f 237/5/5 225/5/5 224/5/5
f 237/7/5 224/7/5 236/7/5
f 238/6/5 226/6/5 225/6/5
f 238/5/5 225/5/5 237/5/5
f 239/7/5 227/7/5 226/7/5
f 239/6/5 226/6/5 238/6/5
f 240/4/5 228/4/5 227/4/5
f 240/7/5 227/7/5 239/7/5
f 241/1/5 229/1/5 228/1/5
f 241/4/5 228/4/5 240/4/5
f 242/3/5 230/3/5 229/3/5
f 242/1/5 229/1/5 241/1/5
f 243/3/5 230/3/5 242/3/5
f 244/2/5 233/2/5 221/2/5
f 244/4/5 234/4/5 233/4/5
f 245/6/5 235/6/5 234/6/5
f 245/4/5 234/4/5 244/4/5
f 246/7/5 236/7/5 235/7/5
f 246/6/5 235/6/5 245/6/5
f 247/7/5 236/7/5 246/7/5
f 248/4/5 237/4/5 236/4/5
f 248/7/5 236/7/5 247/7/5
f 249/1/5 239/1/5 238/1/5
f 249/4/5 237/4/5 248/4/5
f 249/1/5 238/1/5 237/1/5
f 250/1/5 239/1/5 249/1/5
f 251/2/5 240/2/5 239/2/5
f 251/1/5 239/1/5 250/1/5
f 251/2/5 241/2/5 240/2/5
f 252/2/5 241/2/5 251/2/5
f 253/1/5 243/1/5 242/1/5
f 253/2/5 241/2/5 252/2/5
f 253/1/5 242/1/5 241/1/5
f 254/1/5 243/1/5 253/1/5
f 255/1/5 221/1/5 232/1/5
f 255/2/5 244/2/5 221/2/5
f 256/3/5 245/3/5 244/3/5
f 256/2/5 244/2/5 255/2/5
f 256/3/5 246/3/5 245/3/5
f 257/1/5 247/1/5 246/1/5
f 257/3/5 246/3/5 256/3/5
f 258/2/5 248/2/5 247/2/5
f 258/1/5 247/1/5 257/1/5
f 259/1/5 249/1/5 248/1/5
f 259/2/5 248/2/5 258/2/5
f 260/2/5 250/2/5 249/2/5
f 260/1/5 249/1/5 259/1/5
f 261/3/5 251/3/5 250/3/5
f 261/2/5 250/2/5 260/2/5
f 262/1/5 252/1/5 251/1/5
f 262/3/5 251/3/5 261/3/5
f 263/4/5 253/4/5 252/4/5
f 263/1/5 252/1/5 262/1/5
f 264/7/5 254/7/5 253/7/5
f 264/4/5 253/4/5 263/4/5
f 265/7/5 254/7/5 264/7/5
f 266/5/5 232/5/5 231/5/5
f 267/1/5 257/1/5 256/1/5
f 267/5/5 232/5/5 266/5/5
f 267/1/5 256/1/5 255/1/5
f 267/1/5 255/1/5 232/1/5
f 268/1/5 257/1/5 267/1/5
f 269/1/5 257/1/5 268/1/5
f 270/1/5 257/1/5 269/1/5
f 271/1/5 257/1/5 270/1/5
f 272/2/5 258/2/5 257/2/5
f 272/1/5 257/1/5 271/1/5
f 273/1/5 259/1/5 258/1/5
f 273/2/5 258/2/5 272/2/5
f 274/4/5 260/4/5 259/4/5
f 274/1/5 259/1/5 273/1/5
f 275/7/5 261/7/5 260/7/5
f 275/4/5 260/4/5 274/4/5
f 276/6/5 262/6/5 261/6/5
f 276/7/5 261/7/5 275/7/5
f 277/5/5 263/5/5 262/5/5
f 277/6/5 262/6/5 276/6/5
f 278/6/5 264/6/5 263/6/5
f 278/5/5 263/5/5 277/5/5
f 279/6/5 264/6/5 278/6/5
f 280/4/5 270/4/5 269/4/5
f 280/1/5 269/1/5 268/1/5
f 281/6/5 271/6/5 270/6/5
f 281/4/5 270/4/5 280/4/5
f 282/7/5 272/7/5 271/7/5
f 282/6/5 271/6/5 281/6/5
f 283/6/5 273/6/5 272/6/5
f 283/7/5 272/7/5 282/7/5
f 284/7/5 275/7/5 274/7/5
f 284/6/5 273/6/5 283/6/5
f 284/7/5 274/7/5 273/7/5
f 285/7/5 275/7/5 284/7/5
f 286/3/5 268/3/5 267/3/5
f 286/7/5 267/7/5 266/7/5
f 287/1/5 280/1/5 268/1/5
f 287/3/5 268/3/5 286/3/5
f 288/6/5 281/6/5 280/6/5
f 288/1/5 280/1/5 287/1/5
f 289/6/5 281/6/5 288/6/5
f 290/7/5 286/7/5 266/7/5
f 291/1/5 287/1/5 286/1/5
f 291/7/5 286/7/5 290/7/5
f 291/1/5 288/1/5 287/1/5
f 292/1/5 288/1/5 291/1/5
f 293/5/5 289/5/5 288/5/5
f 293/1/5 288/1/5 292/1/5
f 294/5/5 289/5/5 293/5/5
f 296/6/5 291/6/5 290/6/5
f 297/2/5 292/2/5 291/2/5
f 297/6/5 291/6/5 296/6/5
f 298/1/5 293/1/5 292/1/5
f 298/2/5 292/2/5 297/2/5
f 299/7/5 296/7/5 295/7/5
f 299/4/5 297/4/5 296/4/5
f 300/1/5 298/1/5 297/1/5
f 300/4/5 297/4/5 299/4/5
f 301/1/5 293/1/5 298/1/5
f 301/1/5 298/1/5 300/1/5
f 302/7/5 294/7/5 293/7/5
f 302/1/5 293/1/5 301/1/5
f 303/7/5 299/7/5 295/7/5
f 304/1/5 300/1/5 299/1/5
f 304/7/5 299/7/5 303/7/5
f 304/1/5 301/1/5 300/1/5
f 305/1/5 301/1/5 304/1/5
f 306/4/5 302/4/5 301/4/5
f 306/1/5 301/1/5 305/1/5
f 307/7/5 294/7/5 302/7/5
f 307/4/5 302/4/5 306/4/5
f 308/7/5 294/7/5 307/7/5
f 309/5/5 304/5/5 303/5/5
f 310/1/5 305/1/5 304/1/5
f 310/5/5 304/5/5 309/5/5
f 311/3/5 306/3/5 305/3/5
f 311/1/5 305/1/5 310/1/5
f 312/7/5 307/7/5 306/7/5
f 312/3/5 306/3/5 311/3/5
f 313/7/5 307/7/5 312/7/5
f 314/1/5 312/1/5 311/1/5
f 314/5/5 313/5/5 312/5/5
f 315/5/5 313/5/5 314/5/5
f 316/6/5 310/6/5 309/6/5
f 317/3/5 311/3/5 310/3/5
f 317/6/5 310/6/5 316/6/5
f 318/7/5 317/7/5 316/7/5
f 319/3/5 311/3/5 317/3/5
f 319/7/5 317/7/5 318/7/5
f 320/1/5 314/1/5 311/1/5
f 320/3/5 311/3/5 319/3/5
f 321/6/5 315/6/5 314/6/5
f 321/1/5 314/1/5 320/1/5
f 322/6/5 315/6/5 321/6/5
f 323/7/6 324/7/6 327/7/6
f 324/1/6 325/1/6 328/1/6
f 327/7/6 324/7/6 328/7/6
f 328/1/6 325/1/6 329/1/6
f 325/7/6 326/7/6 330/7/6
f 329/1/6 325/1/6 330/1/6
f 330/7/6 326/7/6 331/7/6
f 328/3/6 329/3/6 332/3/6
f 327/6/6 328/6/6 332/6/6
f 329/1/6 330/1/6 333/1/6
f 332/3/6 329/3/6 333/3/6
f 327/6/6 332/6/6 334/6/6
f 332/1/6 333/1/6 335/1/6
f 334/6/6 332/6/6 335/6/6
f 330/6/6 331/6/6 336/6/6
f 335/1/6 333/1/6 336/1/6
f 333/1/6 330/1/6 336/1/6
f 336/6/6 331/6/6 337/6/6
f 335/1/6 336/1/6 338/1/6
f 336/5/6 337/5/6 339/5/6
f 338/1/6 336/1/6 339/1/6
f 334/5/6 335/5/6 340/5/6
f 335/1/6 338/1/6 341/1/6
f 340/5/6 335/5/6 341/5/6
f 339/5/6 337/5/6 342/5/6
f 338/2/6 339/2/6 342/2/6
f 342/5/6 337/5/6 343/5/6
f 340/6/6 341/6/6 344/6/6
f 341/1/6 338/1/6 345/1/6
f 344/6/6 341/6/6 345/6/6
f 338/2/6 342/2/6 346/2/6
f 342/7/6 343/7/6 346/7/6
f 346/7/6 343/7/6 347/7/6
f 344/7/6 345/7/6 349/7/6
f 345/1/6 338/1/6 349/1/6
f 338/2/6 346/2/6 350/2/6
f 349/1/6 338/1/6 350/1/6
f 346/4/6 347/4/6 351/4/6
f 350/2/6 346/2/6 351/2/6
f 347/7/6 348/7/6 352/7/6
f 351/4/6 347/4/6 352/4/6
f 352/7/6 348/7/6 353/7/6
f 344/7/6 349/7/6 354/7/6
f 349/4/6 350/4/6 355/4/6
f 354/7/6 349/7/6 355/7/6
f 350/1/6 351/1/6 356/1/6
f 355/4/6 350/4/6 356/4/6
f 351/1/6 352/1/6 356/1/6
f 356/1/6 352/1/6 357/1/6
f 352/5/6 353/5/6 358/5/6
f 357/1/6 352/1/6 358/1/6
f 357/3/6 358/3/6 359/3/6
f 358/5/6 353/5/6 359/5/6
f 359/5/6 353/5/6 360/5/6
f 355/7/6 356/7/6 361/7/6
f 356/1/6 357/1/6 362/1/6
f 361/7/6 356/7/6 362/7/6
f 357/3/6 359/3/6 363/3/6
f 362/1/6 357/1/6 363/1/6
f 359/7/6 360/7/6 364/7/6
f 363/3/6 359/3/6 364/3/6
f 361/6/6 362/6/6 368/6/6
f 362/3/6 363/3/6 368/3/6
f 363/1/6 364/1/6 369/1/6
f 368/3/6 363/3/6 369/3/6
f 364/7/6 360/7/6 370/7/6
f 369/1/6 364/1/6 370/1/6
f 365/6/6 366/6/6 375/6/6
f 375/6/6 366/6/6 376/6/6
f 366/7/6 367/7/6 377/7/6
f 376/6/6 366/6/6 377/6/6
f 377/7/6 367/7/6 378/7/6
f 361/6/6 368/6/6 379/6/6
f 368/1/6 369/1/6 380/1/6
f 379/6/6 368/6/6 380/6/6
f 369/2/6 370/2/6 381/2/6
f 370/7/6 360/7/6 381/7/6
f 381/7/6 360/7/6 382/7/6
f 371/7/6 372/7/6 384/7/6
f 372/5/6 373/5/6 385/5/6
f 384/7/6 372/7/6 385/7/6
f 373/6/6 374/6/6 386/6/6
f 385/5/6 373/5/6 386/5/6
f 374/7/6 375/7/6 387/7/6
f 386/6/6 374/6/6 387/6/6
f 375/4/6 376/4/6 388/4/6
f 387/7/6 375/7/6 388/7/6
f 376/1/6 377/1/6 389/1/6
f 388/4/6 376/4/6 389/4/6
f 377/3/6 378/3/6 390/3/6
f 389/1/6 377/1/6 390/1/6
f 390/3/6 378/3/6 391/3/6
f 369/2/6 381/2/6 392/2/6
f 381/4/6 382/4/6 392/4/6
f 382/6/6 383/6/6 393/6/6
f 392/4/6 382/4/6 393/4/6
f 383/7/6 384/7/6 394/7/6
f 393/6/6 383/6/6 394/6/6
f 394/7/6 384/7/6 395/7/6
f 384/4/6 385/4/6 396/4/6
f 395/7/6 384/7/6 396/7/6
f 386/1/6 387/1/6 397/1/6
f 396/4/6 385/4/6 397/4/6
f 385/1/6 386/1/6 397/1/6
f 397/1/6 387/1/6 398/1/6
f 387/2/6 388/2/6 399/2/6
f 398/1/6 387/1/6 399/1/6
f 388/2/6 389/2/6 399/2/6
f 399/2/6 389/2/6 400/2/6
f 390/1/6 391/1/6 401/1/6
f 400/2/6 389/2/6 401/2/6
f 389/1/6 390/1/6 401/1/6
f 401/1/6 391/1/6 402/1/6
f 380/1/6 369/1/6 403/1/6
f 369/2/6 392/2/6 403/2/6
f 392/3/6 393/3/6 404/3/6
f 403/2/6 392/2/6 404/2/6
f 393/3/6 394/3/6 404/3/6
f 394/1/6 395/1/6 405/1/6
f 404/3/6 394/3/6 405/3/6
f 395/2/6 396/2/6 406/2/6
f 405/1/6 395/1/6 406/1/6
f 396/1/6 397/1/6 407/1/6
f 406/2/6 396/2/6 407/2/6
f 397/2/6 398/2/6 408/2/6
f 407/1/6 397/1/6 408/1/6
f 398/3/6 399/3/6 409/3/6
f 408/2/6 398/2/6 409/2/6
f 399/1/6 400/1/6 410/1/6
f 409/3/6 399/3/6 410/3/6
f 400/4/6 401/4/6 411/4/6
f 410/1/6 400/1/6 411/1/6
f 401/7/6 402/7/6 412/7/6
f 411/4/6 401/4/6 412/4/6
f 412/7/6 402/7/6 413/7/6
f 379/5/6 380/5/6 414/5/6
f 404/1/6 405/1/6 415/1/6
f 414/5/6 380/5/6 415/5/6
f 403/1/6 404/1/6 415/1/6
f 380/1/6 403/1/6 415/1/6
f 415/1/6 405/1/6 416/1/6
f 416/1/6 405/1/6 417/1/6
f 417/1/6 405/1/6 418/1/6
f 418/1/6 405/1/6 419/1/6
f 405/2/6 406/2/6 420/2/6
f 419/1/6 405/1/6 420/1/6
f 406/1/6 407/1/6 421/1/6
f 420/2/6 406/2/6 421/2/6
f 407/4/6 408/4/6 422/4/6
f 421/1/6 407/1/6 422/1/6
f 408/7/6 409/7/6 423/7/6
f 422/4/6 408/4/6 423/4/6
f 409/6/6 410/6/6 424/6/6
f 423/7/6 409/7/6 424/7/6
f 410/5/6 411/5/6 425/5/6
f 424/6/6 410/6/6 425/6/6
f 411/6/6 412/6/6 426/6/6
f 425/5/6 411/5/6 426/5/6
f 426/6/6 412/6/6 427/6/6
f 417/4/6 418/4/6 428/4/6
f 416/1/6 417/1/6 428/1/6
f 418/6/6 419/6/6 429/6/6
f 428/4/6 418/4/6 429/4/6
f 419/7/6 420/7/6 430/7/6
f 429/6/6 419/6/6 430/6/6
f 420/6/6 421/6/6 431/6/6
f 430/7/6 420/7/6 431/7/6
f 422/7/6 423/7/6 432/7/6
f 431/6/6 421/6/6 432/6/6
f 421/7/6 422/7/6 432/7/6
f 432/7/6 423/7/6 433/7/6
f 415/3/6 416/3/6 434/3/6
f 414/7/6 415/7/6 434/7/6
f 416/1/6 428/1/6 435/1/6
f 434/3/6 416/3/6 435/3/6
f 428/6/6 429/6/6 436/6/6
f 435/1/6 428/1/6 436/1/6
f 436/6/6 429/6/6 437/6/6
f 414/7/6 434/7/6 438/7/6
f 434/1/6 435/1/6 439/1/6
f 438/7/6 434/7/6 439/7/6
f 435/1/6 436/1/6 439/1/6
f 439/1/6 436/1/6 440/1/6
f 436/5/6 437/5/6 441/5/6
f 440/1/6 436/1/6 441/1/6
f 441/5/6 437/5/6 442/5/6
f 438/6/6 439/6/6 444/6/6
f 439/2/6 440/2/6 445/2/6
f 444/6/6 439/6/6 445/6/6
f 440/1/6 441/1/6 446/1/6
f 445/2/6 440/2/6 446/2/6
f 443/7/6 444/7/6 447/7/6
f 444/4/6 445/4/6 447/4/6
f 445/1/6 446/1/6 448/1/6
f 447/4/6 445/4/6 448/4/6
f 446/1/6 441/1/6 449/1/6
f 448/1/6 446/1/6 449/1/6
f 441/7/6 442/7/6 450/7/6
f 449/1/6 441/1/6 450/1/6
f 443/7/6 447/7/6 451/7/6
f 447/1/6 448/1/6 452/1/6
f 451/7/6 447/7/6 452/7/6
f 448/1/6 449/1/6 452/1/6
f 452/1/6 449/1/6 453/1/6
f 449/4/6 450/4/6 454/4/6
f 453/1/6 449/1/6 454/1/6
f 450/7/6 442/7/6 455/7/6
f 454/4/6 450/4/6 455/4/6
f 455/7/6 442/7/6 456/7/6
f 451/5/6 452/5/6 457/5/6
f 452/1/6 453/1/6 458/1/6
f 457/5/6 452/5/6 458/5/6
f 453/3/6 454/3/6 459/3/6
f 458/1/6 453/1/6 459/1/6
f 454/7/6 455/7/6 460/7/6
f 459/3/6 454/3/6 460/3/6
f 460/7/6 455/7/6 461/7/6
f 459/1/6 460/1/6 462/1/6
f 460/5/6 461/5/6 462/5/6
f 462/5/6 461/5/6 463/5/6
f 457/6/6 458/6/6 464/6/6
f 458/3/6 459/3/6 465/3/6
f 464/6/6 458/6/6 465/6/6
f 464/7/6 465/7/6 466/7/6
f 465/3/6 459/3/6 467/3/6
f 466/7/6 465/7/6 467/7/6
f 459/1/6 462/1/6 468/1/6
f 467/3/6 459/3/6 468/3/6
f 462/6/6 463/6/6 469/6/6
f 468/1/6 462/1/6 469/1/6
f 469/6/6 463/6/6 470/6/6
