# MagicaVoxel @ Ephtracy

# group
o 

# material
mtllib path-curve-4.mtl
usemtl palette

# normals
vn -1 0 0
vn 1 0 0
vn 0 0 1
vn 0 0 -1
vn 0 -1 0
vn 0 1 0

# texcoords
vt 0.908203 0.5
vt 0.912109 0.5
vt 0.916016 0.5
vt 0.923828 0.5
vt 0.927734 0.5
vt 0.931641 0.5
vt 0.935547 0.5

# verts
v -0.3 0 1.4
v -0.3 0 0.9
v -0.3 0 0.6
v -0.3 0.1 1.4
v -0.3 0.1 0.9
v -0.3 0.1 0.6
v -0.2 0 1.6
v -0.2 0 1.4
v -0.2 0 0.6
v -0.2 0 0.3
v -0.2 0.1 1.6
v -0.2 0.1 1.4
v -0.2 0.1 0.6
v -0.2 0.1 0.3
v -0.1 0 0.3
v -0.1 0 0.2
v -0.1 0.1 0.3
v -0.1 0.1 0.2
v 2.98023e-08 0 0.2
v 2.98023e-08 0 0.1
v 2.98023e-08 0.1 0.2
v 2.98023e-08 0.1 0.1
v 0.1 0 0.1
v 0.1 0 0
v 0.1 0.1 0.1
v 0.1 0.1 0
v 0.2 0 0
v 0.2 0 -0.1
v 0.2 0.1 0
v 0.2 0.1 -0.1
v 0.3 0 -0.1
v 0.3 0 -0.2
v 0.3 0.1 -0.1
v 0.3 0.1 -0.2
v 0.1 0 1.3
v 0.1 0 1.2
v 0.1 0 1
v 0.1 0 0.7
v 0.1 0.1 1.3
v 0.1 0.1 1.2
v 0.1 0.1 1
v 0.1 0.1 0.7
v 0.2 0 1.6
v 0.2 0 1.3
v 0.2 0 0.7
v 0.2 0 0.5
v 0.2 0.1 1.6
v 0.2 0.1 1.3
v 0.2 0.1 0.7
v 0.2 0.1 0.5
v 0.3 0 0.5
v 0.3 0 0.4
v 0.3 0.1 0.5
v 0.3 0.1 0.4
v 0.4 0 0.4
v 0.4 0 0.3
v 0.4 0.1 0.4
v 0.4 0.1 0.3
v 0.5 0 0.3
v 0.5 0 0.2
v 0.5 0.1 0.3
v 0.5 0.1 0.2
v 1.6 0 0.2
v 1.6 0 0.1
v 1.6 0 -0.1
v 1.6 0 -0.2
v 1.6 0.1 0.2
v 1.6 0.1 0.1
v 1.6 0.1 -0.1
v 1.6 0.1 -0.2
v -0.2 0 1.6
v -0.2 0.1 1.6
v -0.1 0 1.6
v -0.1 0.1 1.6
v 2.98023e-08 0 1.6
v 2.98023e-08 0.1 1.6
v 0.1 0 1.6
v 0.1 0.1 1.6
v 0.2 0 1.6
v 0.2 0.1 1.6
v -0.3 0 1.4
v -0.3 0.1 1.4
v -0.2 0 1.4
v -0.2 0.1 1.4
v 0.1 0 0.7
v 0.1 0.1 0.7
v 0.2 0 0.7
v 0.2 0.1 0.7
v 0.2 0 0.5
v 0.2 0.1 0.5
v 0.3 0 0.5
v 0.3 0.1 0.5
v 0.3 0 0.4
v 0.3 0.1 0.4
v 0.4 0 0.4
v 0.4 0.1 0.4
v 0.4 0 0.3
v 0.4 0.1 0.3
v 0.5 0 0.3
v 0.5 0.1 0.3
v 0.5 0 0.2
v 0.5 0.1 0.2
v 0.8 0 0.2
v 0.8 0.1 0.2
v 0.9 0 0.2
v 0.9 0.1 0.2
v 1.1 0 0.2
v 1.1 0.1 0.2
v 1.3 0 0.2
v 1.3 0.1 0.2
v 1.6 0 0.2
v 1.6 0.1 0.2
v 0.1 0 1.3
v 0.1 0.1 1.3
v 0.2 0 1.3
v 0.2 0.1 1.3
v -0.3 0 0.6
v -0.3 0.1 0.6
v -0.2 0 0.6
v -0.2 0.1 0.6
v -0.2 0 0.3
v -0.2 0.1 0.3
v -0.1 0 0.3
v -0.1 0.1 0.3
v -0.1 0 0.2
v -0.1 0.1 0.2
v 2.98023e-08 0 0.2
v 2.98023e-08 0.1 0.2
v 2.98023e-08 0 0.1
v 2.98023e-08 0.1 0.1
v 0.1 0 0.1
v 0.1 0.1 0.1
v 0.1 0 0
v 0.1 0.1 0
v 0.2 0 0
v 0.2 0.1 0
v 0.2 0 -0.1
v 0.2 0.1 -0.1
v 0.3 0 -0.1
v 0.3 0.1 -0.1
v 0.3 0 -0.2
v 0.3 0.1 -0.2
v 0.6 0 -0.2
v 0.6 0.1 -0.2
v 0.8 0 -0.2
v 0.8 0.1 -0.2
v 1.3 0 -0.2
v 1.3 0.1 -0.2
v 1.4 0 -0.2
v 1.4 0.1 -0.2
v 1.6 0 -0.2
v 1.6 0.1 -0.2
v -0.2 0 1.6
v -0.1 0 1.6
v 2.98023e-08 0 1.6
v 0.1 0 1.6
v 0.2 0 1.6
v 2.98023e-08 0 1.5
v 0.1 0 1.5
v -0.3 0 1.4
v -0.2 0 1.4
v -0.1 0 1.4
v 2.98023e-08 0 1.4
v 0.1 0 1.4
v -0.2 0 1.3
v -0.1 0 1.3
v 2.98023e-08 0 1.3
v 0.1 0 1.3
v 0.2 0 1.3
v -0.1 0 1.2
v 2.98023e-08 0 1.2
v 0.1 0 1.2
v -0.2 0 1.1
v -0.1 0 1.1
v 2.98023e-08 0 1
v 0.1 0 1
v -0.3 0 0.9
v -0.2 0 0.9
v -0.1 0 0.9
v 2.98023e-08 0 0.9
v -0.2 0 0.8
v -0.1 0 0.8
v 2.98023e-08 0 0.8
v -0.2 0 0.7
v -0.1 0 0.7
v 2.98023e-08 0 0.7
v 0.1 0 0.7
v 0.2 0 0.7
v -0.3 0 0.6
v -0.2 0 0.6
v -0.1 0 0.6
v 2.98023e-08 0 0.6
v 0.1 0 0.6
v 0.1 0 0.5
v 0.2 0 0.5
v 0.3 0 0.5
v -0.1 0 0.4
v 2.98023e-08 0 0.4
v 0.1 0 0.4
v 0.2 0 0.4
v 0.3 0 0.4
v 0.4 0 0.4
v -0.2 0 0.3
v -0.1 0 0.3
v 2.98023e-08 0 0.3
v 0.1 0 0.3
v 0.2 0 0.3
v 0.3 0 0.3
v 0.4 0 0.3
v 0.5 0 0.3
v -0.1 0 0.2
v 2.98023e-08 0 0.2
v 0.1 0 0.2
v 0.2 0 0.2
v 0.3 0 0.2
v 0.4 0 0.2
v 0.5 0 0.2
v 0.8 0 0.2
v 0.9 0 0.2
v 1.1 0 0.2
v 1.3 0 0.2
v 1.6 0 0.2
v 2.98023e-08 0 0.1
v 0.1 0 0.1
v 0.2 0 0.1
v 0.3 0 0.1
v 0.4 0 0.1
v 0.5 0 0.1
v 0.6 0 0.1
v 0.8 0 0.1
v 0.9 0 0.1
v 1 0 0.1
v 1.1 0 0.1
v 1.3 0 0.1
v 1.6 0 0.1
v 0.1 0 0
v 0.2 0 0
v 0.3 0 0
v 0.4 0 0
v 0.5 0 0
v 0.6 0 0
v 0.7 0 0
v 0.8 0 0
v 1 0 0
v 1.1 0 0
v 1.4 0 0
v 0.2 0 -0.1
v 0.3 0 -0.1
v 0.4 0 -0.1
v 0.6 0 -0.1
v 0.7 0 -0.1
v 0.8 0 -0.1
v 1.1 0 -0.1
v 1.3 0 -0.1
v 1.4 0 -0.1
v 1.6 0 -0.1
v 0.3 0 -0.2
v 0.6 0 -0.2
v 0.8 0 -0.2
v 1.3 0 -0.2
v 1.4 0 -0.2
v 1.6 0 -0.2
v -0.2 0.1 1.6
v -0.1 0.1 1.6
v 2.98023e-08 0.1 1.6
v 0.1 0.1 1.6
v 0.2 0.1 1.6
v 2.98023e-08 0.1 1.5
v 0.1 0.1 1.5
v -0.3 0.1 1.4
v -0.2 0.1 1.4
v -0.1 0.1 1.4
v 2.98023e-08 0.1 1.4
v 0.1 0.1 1.4
v -0.2 0.1 1.3
v -0.1 0.1 1.3
v 2.98023e-08 0.1 1.3
v 0.1 0.1 1.3
v 0.2 0.1 1.3
v -0.1 0.1 1.2
v 2.98023e-08 0.1 1.2
v 0.1 0.1 1.2
v -0.2 0.1 1.1
v -0.1 0.1 1.1
v 2.98023e-08 0.1 1
v 0.1 0.1 1
v -0.3 0.1 0.9
v -0.2 0.1 0.9
v -0.1 0.1 0.9
v 2.98023e-08 0.1 0.9
v -0.2 0.1 0.8
v -0.1 0.1 0.8
v 2.98023e-08 0.1 0.8
v -0.2 0.1 0.7
v -0.1 0.1 0.7
v 2.98023e-08 0.1 0.7
v 0.1 0.1 0.7
v 0.2 0.1 0.7
v -0.3 0.1 0.6
v -0.2 0.1 0.6
v -0.1 0.1 0.6
v 2.98023e-08 0.1 0.6
v 0.1 0.1 0.6
v 0.1 0.1 0.5
v 0.2 0.1 0.5
v 0.3 0.1 0.5
v -0.1 0.1 0.4
v 2.98023e-08 0.1 0.4
v 0.1 0.1 0.4
v 0.2 0.1 0.4
v 0.3 0.1 0.4
v 0.4 0.1 0.4
v -0.2 0.1 0.3
v -0.1 0.1 0.3
v 2.98023e-08 0.1 0.3
v 0.1 0.1 0.3
v 0.2 0.1 0.3
v 0.3 0.1 0.3
v 0.4 0.1 0.3
v 0.5 0.1 0.3
v -0.1 0.1 0.2
v 2.98023e-08 0.1 0.2
v 0.1 0.1 0.2
v 0.2 0.1 0.2
v 0.3 0.1 0.2
v 0.4 0.1 0.2
v 0.5 0.1 0.2
v 0.8 0.1 0.2
v 0.9 0.1 0.2
v 1.1 0.1 0.2
v 1.3 0.1 0.2
v 1.6 0.1 0.2
v 2.98023e-08 0.1 0.1
v 0.1 0.1 0.1
v 0.2 0.1 0.1
v 0.3 0.1 0.1
v 0.4 0.1 0.1
v 0.5 0.1 0.1
v 0.6 0.1 0.1
v 0.8 0.1 0.1
v 0.9 0.1 0.1
v 1 0.1 0.1
v 1.1 0.1 0.1
v 1.3 0.1 0.1
v 1.6 0.1 0.1
v 0.1 0.1 0
v 0.2 0.1 0
v 0.3 0.1 0
v 0.4 0.1 0
v 0.5 0.1 0
v 0.6 0.1 0
v 0.7 0.1 0
v 0.8 0.1 0
v 1 0.1 0
v 1.1 0.1 0
v 1.4 0.1 0
v 0.2 0.1 -0.1
v 0.3 0.1 -0.1
v 0.4 0.1 -0.1
v 0.6 0.1 -0.1
v 0.7 0.1 -0.1
v 0.8 0.1 -0.1
v 1.1 0.1 -0.1
v 1.3 0.1 -0.1
v 1.4 0.1 -0.1
v 1.6 0.1 -0.1
v 0.3 0.1 -0.2
v 0.6 0.1 -0.2
v 0.8 0.1 -0.2
v 1.3 0.1 -0.2
v 1.4 0.1 -0.2
v 1.6 0.1 -0.2

# faces
f 4/5/1 2/5/1 1/5/1
f 5/6/1 3/6/1 2/6/1
f 5/5/1 2/5/1 4/5/1
f 6/6/1 3/6/1 5/6/1
f 11/7/1 8/7/1 7/7/1
f 12/7/1 8/7/1 11/7/1
f 13/7/1 10/7/1 9/7/1
f 14/7/1 10/7/1 13/7/1
f 17/6/1 16/6/1 15/6/1
f 18/6/1 16/6/1 17/6/1
f 21/6/1 20/6/1 19/6/1
f 22/6/1 20/6/1 21/6/1
f 25/7/1 24/7/1 23/7/1
f 26/7/1 24/7/1 25/7/1
f 29/7/1 28/7/1 27/7/1
f 30/7/1 28/7/1 29/7/1
f 33/7/1 32/7/1 31/7/1
f 34/7/1 32/7/1 33/7/1
f 35/7/2 36/7/2 39/7/2
f 36/6/2 37/6/2 40/6/2
f 39/7/2 36/7/2 40/7/2
f 37/7/2 38/7/2 41/7/2
f 40/6/2 37/6/2 41/6/2
f 41/7/2 38/7/2 42/7/2
f 43/7/2 44/7/2 47/7/2
f 47/7/2 44/7/2 48/7/2
f 45/7/2 46/7/2 49/7/2
f 49/7/2 46/7/2 50/7/2
f 51/6/2 52/6/2 53/6/2
f 53/6/2 52/6/2 54/6/2
f 55/7/2 56/7/2 57/7/2
f 57/7/2 56/7/2 58/7/2
f 59/7/2 60/7/2 61/7/2
f 61/7/2 60/7/2 62/7/2
f 63/7/2 64/7/2 67/7/2
f 64/1/2 65/1/2 68/1/2
f 67/7/2 64/7/2 68/7/2
f 65/7/2 66/7/2 69/7/2
f 68/1/2 65/1/2 69/1/2
f 69/7/2 66/7/2 70/7/2
f 73/7/3 72/7/3 71/7/3
f 74/7/3 72/7/3 73/7/3
f 75/1/3 74/1/3 73/1/3
f 76/1/3 74/1/3 75/1/3
f 77/2/3 76/2/3 75/2/3
f 78/2/3 76/2/3 77/2/3
f 79/7/3 78/7/3 77/7/3
f 80/7/3 78/7/3 79/7/3
f 83/5/3 82/5/3 81/5/3
f 84/5/3 82/5/3 83/5/3
f 87/7/3 86/7/3 85/7/3
f 88/7/3 86/7/3 87/7/3
f 91/6/3 90/6/3 89/6/3
f 92/6/3 90/6/3 91/6/3
f 95/7/3 94/7/3 93/7/3
f 96/7/3 94/7/3 95/7/3
f 99/7/3 98/7/3 97/7/3
f 100/7/3 98/7/3 99/7/3
f 103/7/3 102/7/3 101/7/3
f 104/7/3 102/7/3 103/7/3
f 105/6/3 104/6/3 103/6/3
f 106/6/3 104/6/3 105/6/3
f 107/7/3 106/7/3 105/7/3
f 108/7/3 106/7/3 107/7/3
f 109/6/3 108/6/3 107/6/3
f 110/6/3 108/6/3 109/6/3
f 111/7/3 110/7/3 109/7/3
f 112/7/3 110/7/3 111/7/3
f 113/7/4 114/7/4 115/7/4
f 115/7/4 114/7/4 116/7/4
f 117/6/4 118/6/4 119/6/4
f 119/6/4 118/6/4 120/6/4
f 121/7/4 122/7/4 123/7/4
f 123/7/4 122/7/4 124/7/4
f 125/6/4 126/6/4 127/6/4
f 127/6/4 126/6/4 128/6/4
f 129/6/4 130/6/4 131/6/4
f 131/6/4 130/6/4 132/6/4
f 133/7/4 134/7/4 135/7/4
f 135/7/4 134/7/4 136/7/4
f 137/7/4 138/7/4 139/7/4
f 139/7/4 138/7/4 140/7/4
f 141/7/4 142/7/4 143/7/4
f 143/7/4 142/7/4 144/7/4
f 143/6/4 144/6/4 145/6/4
f 145/6/4 144/6/4 146/6/4
f 145/5/4 146/5/4 147/5/4
f 147/5/4 146/5/4 148/5/4
f 147/6/4 148/6/4 149/6/4
f 149/6/4 148/6/4 150/6/4
f 149/7/4 150/7/4 151/7/4
f 151/7/4 150/7/4 152/7/4
f 158/1/5 155/1/5 154/1/5
f 158/2/5 156/2/5 155/2/5
f 159/7/5 157/7/5 156/7/5
f 159/2/5 156/2/5 158/2/5
f 161/7/5 154/7/5 153/7/5
f 162/1/5 158/1/5 154/1/5
f 162/1/5 159/1/5 158/1/5
f 162/7/5 154/7/5 161/7/5
f 163/1/5 159/1/5 162/1/5
f 164/7/5 157/7/5 159/7/5
f 164/1/5 159/1/5 163/1/5
f 165/5/5 161/5/5 160/5/5
f 165/4/5 162/4/5 161/4/5
f 166/1/5 163/1/5 162/1/5
f 166/4/5 162/4/5 165/4/5
f 167/4/5 164/4/5 163/4/5
f 167/1/5 163/1/5 166/1/5
f 168/7/5 157/7/5 164/7/5
f 168/4/5 164/4/5 167/4/5
f 169/7/5 157/7/5 168/7/5
f 170/1/5 167/1/5 166/1/5
f 170/1/5 166/1/5 165/1/5
f 171/7/5 168/7/5 167/7/5
f 171/1/5 167/1/5 170/1/5
f 172/7/5 168/7/5 171/7/5
f 173/5/5 165/5/5 160/5/5
f 173/1/5 170/1/5 165/1/5
f 174/2/5 171/2/5 170/2/5
f 174/1/5 170/1/5 173/1/5
f 175/6/5 172/6/5 171/6/5
f 175/2/5 171/2/5 174/2/5
f 176/6/5 172/6/5 175/6/5
f 177/5/5 173/5/5 160/5/5
f 178/3/5 174/3/5 173/3/5
f 178/5/5 173/5/5 177/5/5
f 179/2/5 175/2/5 174/2/5
f 179/3/5 174/3/5 178/3/5
f 180/7/5 176/7/5 175/7/5
f 180/2/5 175/2/5 179/2/5
f 181/6/5 178/6/5 177/6/5
f 181/3/5 179/3/5 178/3/5
f 182/1/5 180/1/5 179/1/5
f 182/3/5 179/3/5 181/3/5
f 183/7/5 176/7/5 180/7/5
f 183/1/5 180/1/5 182/1/5
f 184/1/5 182/1/5 181/1/5
f 184/6/5 181/6/5 177/6/5
f 185/2/5 183/2/5 182/2/5
f 185/1/5 182/1/5 184/1/5
f 186/7/5 176/7/5 183/7/5
f 186/2/5 183/2/5 185/2/5
f 187/7/5 176/7/5 186/7/5
f 189/6/5 184/6/5 177/6/5
f 190/4/5 185/4/5 184/4/5
f 190/6/5 184/6/5 189/6/5
f 191/1/5 186/1/5 185/1/5
f 191/4/5 185/4/5 190/4/5
f 192/4/5 187/4/5 186/4/5
f 192/1/5 186/1/5 191/1/5
f 193/7/5 188/7/5 187/7/5
f 193/4/5 187/4/5 192/4/5
f 194/7/5 188/7/5 193/7/5
f 194/1/5 193/1/5 192/1/5
f 194/1/5 192/1/5 191/1/5
f 195/7/5 188/7/5 194/7/5
f 197/7/5 191/7/5 190/7/5
f 197/1/5 194/1/5 191/1/5
f 198/1/5 194/1/5 197/1/5
f 199/4/5 195/4/5 194/4/5
f 199/1/5 194/1/5 198/1/5
f 200/6/5 196/6/5 195/6/5
f 200/4/5 195/4/5 199/4/5
f 201/6/5 196/6/5 200/6/5
f 203/7/5 197/7/5 190/7/5
f 204/4/5 198/4/5 197/4/5
f 204/7/5 197/7/5 203/7/5
f 205/1/5 199/1/5 198/1/5
f 205/4/5 198/4/5 204/4/5
f 206/2/5 200/2/5 199/2/5
f 206/1/5 199/1/5 205/1/5
f 207/4/5 201/4/5 200/4/5
f 207/2/5 200/2/5 206/2/5
f 208/7/5 202/7/5 201/7/5
f 208/4/5 201/4/5 207/4/5
f 209/7/5 202/7/5 208/7/5
f 211/6/5 205/6/5 204/6/5
f 212/4/5 206/4/5 205/4/5
f 212/6/5 205/6/5 211/6/5
f 213/1/5 207/1/5 206/1/5
f 213/4/5 206/4/5 212/4/5
f 213/1/5 208/1/5 207/1/5
f 214/1/5 208/1/5 213/1/5
f 215/4/5 209/4/5 208/4/5
f 215/1/5 208/1/5 214/1/5
f 216/7/5 210/7/5 209/7/5
f 216/4/5 209/4/5 215/4/5
f 217/7/5 210/7/5 216/7/5
f 223/6/5 213/6/5 212/6/5
f 224/4/5 214/4/5 213/4/5
f 224/6/5 213/6/5 223/6/5
f 225/1/5 215/1/5 214/1/5
f 225/4/5 214/4/5 224/4/5
f 225/1/5 216/1/5 215/1/5
f 226/1/5 216/1/5 225/1/5
f 227/4/5 217/4/5 216/4/5
f 227/1/5 216/1/5 226/1/5
f 228/7/5 218/7/5 217/7/5
f 228/4/5 217/4/5 227/4/5
f 229/7/5 218/7/5 228/7/5
f 230/6/5 219/6/5 218/6/5
f 230/7/5 218/7/5 229/7/5
f 231/7/5 220/7/5 219/7/5
f 231/6/5 219/6/5 230/6/5
f 232/7/5 220/7/5 231/7/5
f 233/6/5 221/6/5 220/6/5
f 233/7/5 220/7/5 232/7/5
f 234/7/5 222/7/5 221/7/5
f 234/6/5 221/6/5 233/6/5
f 235/7/5 222/7/5 234/7/5
f 236/7/5 225/7/5 224/7/5
f 237/4/5 226/4/5 225/4/5
f 237/7/5 225/7/5 236/7/5
f 238/2/5 227/2/5 226/2/5
f 238/4/5 226/4/5 237/4/5
f 239/1/5 228/1/5 227/1/5
f 239/2/5 227/2/5 238/2/5
f 240/2/5 229/2/5 228/2/5
f 240/1/5 228/1/5 239/1/5
f 241/1/5 230/1/5 229/1/5
f 241/2/5 229/2/5 240/2/5
f 242/1/5 230/1/5 241/1/5
f 243/3/5 232/3/5 231/3/5
f 243/1/5 230/1/5 242/1/5
f 243/3/5 231/3/5 230/3/5
f 244/1/5 233/1/5 232/1/5
f 244/3/5 232/3/5 243/3/5
f 244/1/5 235/1/5 234/1/5
f 244/1/5 234/1/5 233/1/5
f 245/1/5 235/1/5 244/1/5
f 246/1/5 235/1/5 245/1/5
f 247/7/5 238/7/5 237/7/5
f 248/4/5 239/4/5 238/4/5
f 248/7/5 238/7/5 247/7/5
f 249/1/5 240/1/5 239/1/5
f 249/4/5 239/4/5 248/4/5
f 249/1/5 241/1/5 240/1/5
f 250/2/5 242/2/5 241/2/5
f 250/1/5 241/1/5 249/1/5
f 251/1/5 243/1/5 242/1/5
f 251/2/5 242/2/5 250/2/5
f 251/1/5 245/1/5 244/1/5
f 251/1/5 244/1/5 243/1/5
f 252/1/5 245/1/5 251/1/5
f 253/3/5 246/3/5 245/3/5
f 253/1/5 245/1/5 252/1/5
f 254/3/5 246/3/5 253/3/5
f 255/1/5 235/1/5 246/1/5
f 255/3/5 246/3/5 254/3/5
f 256/1/5 235/1/5 255/1/5
f 257/7/5 250/7/5 249/7/5
f 257/7/5 249/7/5 248/7/5
f 258/6/5 252/6/5 251/6/5
f 258/7/5 250/7/5 257/7/5
f 258/6/5 251/6/5 250/6/5
f 259/5/5 254/5/5 253/5/5
f 259/6/5 252/6/5 258/6/5
f 259/5/5 253/5/5 252/5/5
f 260/6/5 255/6/5 254/6/5
f 260/5/5 254/5/5 259/5/5
f 261/7/5 256/7/5 255/7/5
f 261/6/5 255/6/5 260/6/5
f 262/7/5 256/7/5 261/7/5
f 264/1/6 265/1/6 268/1/6
f 265/2/6 266/2/6 268/2/6
f 266/7/6 267/7/6 269/7/6
f 268/2/6 266/2/6 269/2/6
f 263/7/6 264/7/6 271/7/6
f 264/1/6 268/1/6 272/1/6
f 268/1/6 269/1/6 272/1/6
f 271/7/6 264/7/6 272/7/6
f 272/1/6 269/1/6 273/1/6
f 269/7/6 267/7/6 274/7/6
f 273/1/6 269/1/6 274/1/6
f 270/5/6 271/5/6 275/5/6
f 271/4/6 272/4/6 275/4/6
f 272/1/6 273/1/6 276/1/6
f 275/4/6 272/4/6 276/4/6
f 273/4/6 274/4/6 277/4/6
f 276/1/6 273/1/6 277/1/6
f 274/7/6 267/7/6 278/7/6
f 277/4/6 274/4/6 278/4/6
f 278/7/6 267/7/6 279/7/6
f 276/1/6 277/1/6 280/1/6
f 275/1/6 276/1/6 280/1/6
f 277/7/6 278/7/6 281/7/6
f 280/1/6 277/1/6 281/1/6
f 281/7/6 278/7/6 282/7/6
f 270/5/6 275/5/6 283/5/6
f 275/1/6 280/1/6 283/1/6
f 280/2/6 281/2/6 284/2/6
f 283/1/6 280/1/6 284/1/6
f 281/6/6 282/6/6 285/6/6
f 284/2/6 281/2/6 285/2/6
f 285/6/6 282/6/6 286/6/6
f 270/5/6 283/5/6 287/5/6
f 283/3/6 284/3/6 288/3/6
f 287/5/6 283/5/6 288/5/6
f 284/2/6 285/2/6 289/2/6
f 288/3/6 284/3/6 289/3/6
f 285/7/6 286/7/6 290/7/6
f 289/2/6 285/2/6 290/2/6
f 287/6/6 288/6/6 291/6/6
f 288/3/6 289/3/6 291/3/6
f 289/1/6 290/1/6 292/1/6
f 291/3/6 289/3/6 292/3/6
f 290/7/6 286/7/6 293/7/6
f 292/1/6 290/1/6 293/1/6
f 291/1/6 292/1/6 294/1/6
f 287/6/6 291/6/6 294/6/6
f 292/2/6 293/2/6 295/2/6
f 294/1/6 292/1/6 295/1/6
f 293/7/6 286/7/6 296/7/6
f 295/2/6 293/2/6 296/2/6
f 296/7/6 286/7/6 297/7/6
f 287/6/6 294/6/6 299/6/6
f 294/4/6 295/4/6 300/4/6
f 299/6/6 294/6/6 300/6/6
f 295/1/6 296/1/6 301/1/6
f 300/4/6 295/4/6 301/4/6
f 296/4/6 297/4/6 302/4/6
f 301/1/6 296/1/6 302/1/6
f 297/7/6 298/7/6 303/7/6
f 302/4/6 297/4/6 303/4/6
f 303/7/6 298/7/6 304/7/6
f 302/1/6 303/1/6 304/1/6
f 301/1/6 302/1/6 304/1/6
f 304/7/6 298/7/6 305/7/6
f 300/7/6 301/7/6 307/7/6
f 301/1/6 304/1/6 307/1/6
f 307/1/6 304/1/6 308/1/6
f 304/4/6 305/4/6 309/4/6
f 308/1/6 304/1/6 309/1/6
f 305/6/6 306/6/6 310/6/6
f 309/4/6 305/4/6 310/4/6
f 310/6/6 306/6/6 311/6/6
f 300/7/6 307/7/6 313/7/6
f 307/4/6 308/4/6 314/4/6
f 313/7/6 307/7/6 314/7/6
f 308/1/6 309/1/6 315/1/6
f 314/4/6 308/4/6 315/4/6
f 309/2/6 310/2/6 316/2/6
f 315/1/6 309/1/6 316/1/6
f 310/4/6 311/4/6 317/4/6
f 316/2/6 310/2/6 317/2/6
f 311/7/6 312/7/6 318/7/6
f 317/4/6 311/4/6 318/4/6
f 318/7/6 312/7/6 319/7/6
f 314/6/6 315/6/6 321/6/6
f 315/4/6 316/4/6 322/4/6
f 321/6/6 315/6/6 322/6/6
f 316/1/6 317/1/6 323/1/6
f 322/4/6 316/4/6 323/4/6
f 317/1/6 318/1/6 323/1/6
f 323/1/6 318/1/6 324/1/6
f 318/4/6 319/4/6 325/4/6
f 324/1/6 318/1/6 325/1/6
f 319/7/6 320/7/6 326/7/6
f 325/4/6 319/4/6 326/4/6
f 326/7/6 320/7/6 327/7/6
f 322/6/6 323/6/6 333/6/6
f 323/4/6 324/4/6 334/4/6
f 333/6/6 323/6/6 334/6/6
f 324/1/6 325/1/6 335/1/6
f 334/4/6 324/4/6 335/4/6
f 325/1/6 326/1/6 335/1/6
f 335/1/6 326/1/6 336/1/6
f 326/4/6 327/4/6 337/4/6
f 336/1/6 326/1/6 337/1/6
f 327/7/6 328/7/6 338/7/6
f 337/4/6 327/4/6 338/4/6
f 338/7/6 328/7/6 339/7/6
f 328/6/6 329/6/6 340/6/6
f 339/7/6 328/7/6 340/7/6
f 329/7/6 330/7/6 341/7/6
f 340/6/6 329/6/6 341/6/6
f 341/7/6 330/7/6 342/7/6
f 330/6/6 331/6/6 343/6/6
f 342/7/6 330/7/6 343/7/6
f 331/7/6 332/7/6 344/7/6
f 343/6/6 331/6/6 344/6/6
f 344/7/6 332/7/6 345/7/6
f 334/7/6 335/7/6 346/7/6
f 335/4/6 336/4/6 347/4/6
f 346/7/6 335/7/6 347/7/6
f 336/2/6 337/2/6 348/2/6
f 347/4/6 336/4/6 348/4/6
f 337/1/6 338/1/6 349/1/6
f 348/2/6 337/2/6 349/2/6
f 338/2/6 339/2/6 350/2/6
f 349/1/6 338/1/6 350/1/6
f 339/1/6 340/1/6 351/1/6
f 350/2/6 339/2/6 351/2/6
f 351/1/6 340/1/6 352/1/6
f 341/3/6 342/3/6 353/3/6
f 352/1/6 340/1/6 353/1/6
f 340/3/6 341/3/6 353/3/6
f 342/1/6 343/1/6 354/1/6
f 353/3/6 342/3/6 354/3/6
f 344/1/6 345/1/6 354/1/6
f 343/1/6 344/1/6 354/1/6
f 354/1/6 345/1/6 355/1/6
f 355/1/6 345/1/6 356/1/6
f 347/7/6 348/7/6 357/7/6
f 348/4/6 349/4/6 358/4/6
f 357/7/6 348/7/6 358/7/6
f 349/1/6 350/1/6 359/1/6
f 358/4/6 349/4/6 359/4/6
f 350/1/6 351/1/6 359/1/6
f 351/2/6 352/2/6 360/2/6
f 359/1/6 351/1/6 360/1/6
f 352/1/6 353/1/6 361/1/6
f 360/2/6 352/2/6 361/2/6
f 354/1/6 355/1/6 361/1/6
f 353/1/6 354/1/6 361/1/6
f 361/1/6 355/1/6 362/1/6
f 355/3/6 356/3/6 363/3/6
f 362/1/6 355/1/6 363/1/6
f 363/3/6 356/3/6 364/3/6
f 356/1/6 345/1/6 365/1/6
f 364/3/6 356/3/6 365/3/6
f 365/1/6 345/1/6 366/1/6
f 359/7/6 360/7/6 367/7/6
f 358/7/6 359/7/6 367/7/6
f 361/6/6 362/6/6 368/6/6
f 367/7/6 360/7/6 368/7/6
f 360/6/6 361/6/6 368/6/6
f 363/5/6 364/5/6 369/5/6
f 368/6/6 362/6/6 369/6/6
f 362/5/6 363/5/6 369/5/6
f 364/6/6 365/6/6 370/6/6
f 369/5/6 364/5/6 370/5/6
f 365/7/6 366/7/6 371/7/6
f 370/6/6 365/6/6 371/6/6
f 371/7/6 366/7/6 372/7/6
