# MagicaVoxel @ Ephtracy

# group
o 

# material
mtllib path-dead-end.mtl
usemtl palette

# normals
vn -1 0 0
vn 1 0 0
vn 0 0 1
vn 0 0 -1
vn 0 -1 0
vn 0 1 0

# texcoords
vt 0.908203 0.5
vt 0.912109 0.5
vt 0.916016 0.5
vt 0.919922 0.5
vt 0.923828 0.5
vt 0.927734 0.5
vt 0.931641 0.5
vt 0.935547 0.5

# verts
v -0.3 0 0.2
v -0.3 0 0.0999999
v -0.3 0 -0.1
v -0.3 0 -0.2
v -0.3 0.1 0.2
v -0.3 0.1 0.0999999
v -0.3 0.1 -0.1
v -0.3 0.1 -0.2
v 0.4 0 -0.2
v 0.4 0 -0.3
v 0.4 0.1 -0.2
v 0.4 0.1 -0.3
v 1.1 0 0.2
v 1.1 0 0.0999999
v 1.1 0.1 0.2
v 1.1 0.1 0.0999999
v 0.6 0 0.2
v 0.6 0 0.0999999
v 0.6 0.1 0.2
v 0.6 0.1 0.0999999
v 1.3 0 -0.2
v 1.3 0 -0.3
v 1.3 0.1 -0.2
v 1.3 0.1 -0.3
v 1.6 0 0.2
v 1.6 0 0.0999999
v 1.6 0 -5.96046e-08
v 1.6 0 -0.1
v 1.6 0 -0.2
v 1.6 0.1 0.2
v 1.6 0.1 0.0999999
v 1.6 0.1 -5.96046e-08
v 1.6 0.1 -0.1
v 1.6 0.1 -0.2
v -0.3 0 0.2
v -0.3 0.1 0.2
v -0.2 0 0.2
v -0.2 0.1 0.2
v -0.1 0 0.2
v -0.1 0.1 0.2
v 0.1 0 0.2
v 0.1 0.1 0.2
v 0.3 0 0.2
v 0.3 0.1 0.2
v 0.5 0 0.2
v 0.5 0.1 0.2
v 0.6 0 0.2
v 0.6 0.1 0.2
v 1.1 0 0.2
v 1.1 0.1 0.2
v 1.2 0 0.2
v 1.2 0.1 0.2
v 1.5 0 0.2
v 1.5 0.1 0.2
v 1.6 0 0.2
v 1.6 0.1 0.2
v 0.6 0 0.0999999
v 0.6 0.1 0.0999999
v 1.1 0 0.0999999
v 1.1 0.1 0.0999999
v -0.3 0 -0.2
v -0.3 0.1 -0.2
v -0.2 0 -0.2
v -0.2 0.1 -0.2
v 0.2 0 -0.2
v 0.2 0.1 -0.2
v 0.4 0 -0.2
v 0.4 0.1 -0.2
v 1.3 0 -0.2
v 1.3 0.1 -0.2
v 1.6 0 -0.2
v 1.6 0.1 -0.2
v 0.4 0 -0.3
v 0.4 0.1 -0.3
v 0.5 0 -0.3
v 0.5 0.1 -0.3
v 0.8 0 -0.3
v 0.8 0.1 -0.3
v 0.9 0 -0.3
v 0.9 0.1 -0.3
v 1.2 0 -0.3
v 1.2 0.1 -0.3
v 1.3 0 -0.3
v 1.3 0.1 -0.3
v -0.3 0 0.2
v -0.2 0 0.2
v -0.1 0 0.2
v 0.1 0 0.2
v 0.3 0 0.2
v 0.5 0 0.2
v 0.6 0 0.2
v 1.1 0 0.2
v 1.2 0 0.2
v 1.5 0 0.2
v 1.6 0 0.2
v -0.3 0 0.0999999
v -0.2 0 0.0999999
v -0.1 0 0.0999999
v 0.1 0 0.0999999
v 0.2 0 0.0999999
v 0.3 0 0.0999999
v 0.5 0 0.0999999
v 0.6 0 0.0999999
v 1.1 0 0.0999999
v 1.2 0 0.0999999
v 1.3 0 0.0999999
v 1.4 0 0.0999999
v 1.5 0 0.0999999
v 1.6 0 0.0999999
v -0.2 0 -5.96046e-08
v -0.1 0 -5.96046e-08
v 2.98023e-08 0 -5.96046e-08
v 0.1 0 -5.96046e-08
v 0.5 0 -5.96046e-08
v 0.6 0 -5.96046e-08
v 0.8 0 -5.96046e-08
v 1 0 -5.96046e-08
v 1.1 0 -5.96046e-08
v 1.2 0 -5.96046e-08
v 1.3 0 -5.96046e-08
v 1.4 0 -5.96046e-08
v 1.5 0 -5.96046e-08
v 1.6 0 -5.96046e-08
v -0.3 0 -0.1
v -0.2 0 -0.1
v -0.1 0 -0.1
v 2.98023e-08 0 -0.1
v 0.1 0 -0.1
v 0.2 0 -0.1
v 0.3 0 -0.1
v 0.4 0 -0.1
v 0.5 0 -0.1
v 0.6 0 -0.1
v 0.8 0 -0.1
v 0.9 0 -0.1
v 1 0 -0.1
v 1.1 0 -0.1
v 1.2 0 -0.1
v 1.3 0 -0.1
v 1.4 0 -0.1
v 1.5 0 -0.1
v 1.6 0 -0.1
v -0.3 0 -0.2
v -0.2 0 -0.2
v 0.2 0 -0.2
v 0.4 0 -0.2
v 0.5 0 -0.2
v 0.6 0 -0.2
v 0.8 0 -0.2
v 0.9 0 -0.2
v 1.1 0 -0.2
v 1.2 0 -0.2
v 1.3 0 -0.2
v 1.6 0 -0.2
v 0.4 0 -0.3
v 0.5 0 -0.3
v 0.8 0 -0.3
v 0.9 0 -0.3
v 1.2 0 -0.3
v 1.3 0 -0.3
v -0.3 0.1 0.2
v -0.2 0.1 0.2
v -0.1 0.1 0.2
v 0.1 0.1 0.2
v 0.3 0.1 0.2
v 0.5 0.1 0.2
v 0.6 0.1 0.2
v 1.1 0.1 0.2
v 1.2 0.1 0.2
v 1.5 0.1 0.2
v 1.6 0.1 0.2
v -0.3 0.1 0.0999999
v -0.2 0.1 0.0999999
v -0.1 0.1 0.0999999
v 0.1 0.1 0.0999999
v 0.2 0.1 0.0999999
v 0.3 0.1 0.0999999
v 0.5 0.1 0.0999999
v 0.6 0.1 0.0999999
v 1.1 0.1 0.0999999
v 1.2 0.1 0.0999999
v 1.3 0.1 0.0999999
v 1.4 0.1 0.0999999
v 1.5 0.1 0.0999999
v 1.6 0.1 0.0999999
v -0.2 0.1 -5.96046e-08
v -0.1 0.1 -5.96046e-08
v 2.98023e-08 0.1 -5.96046e-08
v 0.1 0.1 -5.96046e-08
v 0.5 0.1 -5.96046e-08
v 0.6 0.1 -5.96046e-08
v 0.8 0.1 -5.96046e-08
v 1 0.1 -5.96046e-08
v 1.1 0.1 -5.96046e-08
v 1.2 0.1 -5.96046e-08
v 1.3 0.1 -5.96046e-08
v 1.4 0.1 -5.96046e-08
v 1.5 0.1 -5.96046e-08
v 1.6 0.1 -5.96046e-08
v -0.3 0.1 -0.1
v -0.2 0.1 -0.1
v -0.1 0.1 -0.1
v 2.98023e-08 0.1 -0.1
v 0.1 0.1 -0.1
v 0.2 0.1 -0.1
v 0.3 0.1 -0.1
v 0.4 0.1 -0.1
v 0.5 0.1 -0.1
v 0.6 0.1 -0.1
v 0.8 0.1 -0.1
v 0.9 0.1 -0.1
v 1 0.1 -0.1
v 1.1 0.1 -0.1
v 1.2 0.1 -0.1
v 1.3 0.1 -0.1
v 1.4 0.1 -0.1
v 1.5 0.1 -0.1
v 1.6 0.1 -0.1
v -0.3 0.1 -0.2
v -0.2 0.1 -0.2
v 0.2 0.1 -0.2
v 0.4 0.1 -0.2
v 0.5 0.1 -0.2
v 0.6 0.1 -0.2
v 0.8 0.1 -0.2
v 0.9 0.1 -0.2
v 1.1 0.1 -0.2
v 1.2 0.1 -0.2
v 1.3 0.1 -0.2
v 1.6 0.1 -0.2
v 0.4 0.1 -0.3
v 0.5 0.1 -0.3
v 0.8 0.1 -0.3
v 0.9 0.1 -0.3
v 1.2 0.1 -0.3
v 1.3 0.1 -0.3

# faces
f 5/6/1 2/6/1 1/6/1
f 6/8/1 3/8/1 2/8/1
f 6/6/1 2/6/1 5/6/1
f 7/6/1 4/6/1 3/6/1
f 7/8/1 3/8/1 6/8/1
f 8/6/1 4/6/1 7/6/1
f 11/8/1 10/8/1 9/8/1
f 12/8/1 10/8/1 11/8/1
f 15/8/1 14/8/1 13/8/1
f 16/8/1 14/8/1 15/8/1
f 17/7/2 18/7/2 19/7/2
f 19/7/2 18/7/2 20/7/2
f 21/8/2 22/8/2 23/8/2
f 23/8/2 22/8/2 24/8/2
f 25/8/2 26/8/2 30/8/2
f 26/3/2 27/3/2 31/3/2
f 30/8/2 26/8/2 31/8/2
f 27/1/2 28/1/2 32/1/2
f 31/3/2 27/3/2 32/3/2
f 28/6/2 29/6/2 33/6/2
f 32/1/2 28/1/2 33/1/2
f 33/6/2 29/6/2 34/6/2
f 37/6/3 36/6/3 35/6/3
f 38/6/3 36/6/3 37/6/3
f 39/7/3 38/7/3 37/7/3
f 40/7/3 38/7/3 39/7/3
f 41/8/3 40/8/3 39/8/3
f 42/8/3 40/8/3 41/8/3
f 43/7/3 42/7/3 41/7/3
f 44/7/3 42/7/3 43/7/3
f 45/8/3 44/8/3 43/8/3
f 46/8/3 44/8/3 45/8/3
f 47/7/3 46/7/3 45/7/3
f 48/7/3 46/7/3 47/7/3
f 51/8/3 50/8/3 49/8/3
f 52/8/3 50/8/3 51/8/3
f 53/7/3 52/7/3 51/7/3
f 54/7/3 52/7/3 53/7/3
f 55/8/3 54/8/3 53/8/3
f 56/8/3 54/8/3 55/8/3
f 59/6/3 58/6/3 57/6/3
f 60/6/3 58/6/3 59/6/3
f 61/6/4 62/6/4 63/6/4
f 63/6/4 62/6/4 64/6/4
f 63/8/4 64/8/4 65/8/4
f 65/8/4 64/8/4 66/8/4
f 65/6/4 66/6/4 67/6/4
f 67/6/4 66/6/4 68/6/4
f 69/6/4 70/6/4 71/6/4
f 71/6/4 70/6/4 72/6/4
f 73/8/4 74/8/4 75/8/4
f 75/8/4 74/8/4 76/8/4
f 75/7/4 76/7/4 77/7/4
f 77/7/4 76/7/4 78/7/4
f 77/8/4 78/8/4 79/8/4
f 79/8/4 78/8/4 80/8/4
f 79/7/4 80/7/4 81/7/4
f 81/7/4 80/7/4 82/7/4
f 81/8/4 82/8/4 83/8/4
f 83/8/4 82/8/4 84/8/4
f 96/6/5 86/6/5 85/6/5
f 97/7/5 87/7/5 86/7/5
f 97/6/5 86/6/5 96/6/5
f 98/8/5 88/8/5 87/8/5
f 98/7/5 87/7/5 97/7/5
f 99/7/5 89/7/5 88/7/5
f 99/8/5 88/8/5 98/8/5
f 100/7/5 89/7/5 99/7/5
f 101/8/5 90/8/5 89/8/5
f 101/7/5 89/7/5 100/7/5
f 102/7/5 91/7/5 90/7/5
f 102/8/5 90/8/5 101/8/5
f 103/7/5 91/7/5 102/7/5
f 104/8/5 93/8/5 92/8/5
f 105/7/5 94/7/5 93/7/5
f 105/8/5 93/8/5 104/8/5
f 106/7/5 94/7/5 105/7/5
f 107/7/5 94/7/5 106/7/5
f 108/8/5 95/8/5 94/8/5
f 108/7/5 94/7/5 107/7/5
f 109/8/5 95/8/5 108/8/5
f 110/8/5 97/8/5 96/8/5
f 110/3/5 98/3/5 97/3/5
f 110/3/5 99/3/5 98/3/5
f 111/3/5 99/3/5 110/3/5
f 112/3/5 99/3/5 111/3/5
f 113/1/5 100/1/5 99/1/5
f 113/3/5 99/3/5 112/3/5
f 114/5/5 103/5/5 102/5/5
f 114/1/5 102/1/5 101/1/5
f 115/6/5 104/6/5 103/6/5
f 115/5/5 103/5/5 114/5/5
f 116/6/5 104/6/5 115/6/5
f 117/6/5 104/6/5 116/6/5
f 118/5/5 105/5/5 104/5/5
f 118/6/5 104/6/5 117/6/5
f 119/1/5 106/1/5 105/1/5
f 119/5/5 105/5/5 118/5/5
f 120/2/5 107/2/5 106/2/5
f 120/1/5 106/1/5 119/1/5
f 121/1/5 108/1/5 107/1/5
f 121/2/5 107/2/5 120/2/5
f 122/3/5 109/3/5 108/3/5
f 122/1/5 108/1/5 121/1/5
f 123/3/5 109/3/5 122/3/5
f 124/8/5 110/8/5 96/8/5
f 125/4/5 111/4/5 110/4/5
f 125/8/5 110/8/5 124/8/5
f 126/1/5 112/1/5 111/1/5
f 126/4/5 111/4/5 125/4/5
f 127/4/5 113/4/5 112/4/5
f 127/1/5 112/1/5 126/1/5
f 128/1/5 100/1/5 113/1/5
f 128/4/5 113/4/5 127/4/5
f 129/2/5 101/2/5 100/2/5
f 129/1/5 100/1/5 128/1/5
f 130/1/5 114/1/5 101/1/5
f 130/2/5 101/2/5 129/2/5
f 130/1/5 115/1/5 114/1/5
f 130/1/5 116/1/5 115/1/5
f 131/1/5 116/1/5 130/1/5
f 132/1/5 116/1/5 131/1/5
f 133/1/5 116/1/5 132/1/5
f 134/4/5 117/4/5 116/4/5
f 134/1/5 116/1/5 133/1/5
f 135/4/5 117/4/5 134/4/5
f 136/2/5 118/2/5 117/2/5
f 136/4/5 117/4/5 135/4/5
f 137/1/5 119/1/5 118/1/5
f 137/2/5 118/2/5 136/2/5
f 137/1/5 120/1/5 119/1/5
f 138/1/5 120/1/5 137/1/5
f 139/4/5 121/4/5 120/4/5
f 139/1/5 120/1/5 138/1/5
f 140/2/5 122/2/5 121/2/5
f 140/4/5 121/4/5 139/4/5
f 141/1/5 123/1/5 122/1/5
f 141/2/5 122/2/5 140/2/5
f 142/1/5 123/1/5 141/1/5
f 143/6/5 125/6/5 124/6/5
f 144/8/5 128/8/5 127/8/5
f 144/6/5 125/6/5 143/6/5
f 144/8/5 127/8/5 126/8/5
f 144/8/5 129/8/5 128/8/5
f 144/8/5 126/8/5 125/8/5
f 145/6/5 130/6/5 129/6/5
f 145/8/5 129/8/5 144/8/5
f 145/6/5 131/6/5 130/6/5
f 146/5/5 132/5/5 131/5/5
f 146/6/5 131/6/5 145/6/5
f 147/1/5 133/1/5 132/1/5
f 147/5/5 132/5/5 146/5/5
f 148/3/5 134/3/5 133/3/5
f 148/1/5 133/1/5 147/1/5
f 149/1/5 135/1/5 134/1/5
f 149/3/5 134/3/5 148/3/5
f 150/3/5 136/3/5 135/3/5
f 150/1/5 135/1/5 149/1/5
f 150/3/5 137/3/5 136/3/5
f 151/1/5 138/1/5 137/1/5
f 151/3/5 137/3/5 150/3/5
f 152/5/5 139/5/5 138/5/5
f 152/1/5 138/1/5 151/1/5
f 153/6/5 142/6/5 141/6/5
f 153/5/5 139/5/5 152/5/5
f 153/6/5 141/6/5 140/6/5
f 153/6/5 140/6/5 139/6/5
f 154/6/5 142/6/5 153/6/5
f 155/8/5 147/8/5 146/8/5
f 156/7/5 149/7/5 148/7/5
f 156/8/5 147/8/5 155/8/5
f 156/7/5 148/7/5 147/7/5
f 157/8/5 150/8/5 149/8/5
f 157/7/5 149/7/5 156/7/5
f 158/7/5 152/7/5 151/7/5
f 158/8/5 150/8/5 157/8/5
f 158/7/5 151/7/5 150/7/5
f 159/8/5 153/8/5 152/8/5
f 159/7/5 152/7/5 158/7/5
f 160/8/5 153/8/5 159/8/5
f 161/6/6 162/6/6 172/6/6
f 162/7/6 163/7/6 173/7/6
f 172/6/6 162/6/6 173/6/6
f 163/8/6 164/8/6 174/8/6
f 173/7/6 163/7/6 174/7/6
f 164/7/6 165/7/6 175/7/6
f 174/8/6 164/8/6 175/8/6
f 175/7/6 165/7/6 176/7/6
f 165/8/6 166/8/6 177/8/6
f 176/7/6 165/7/6 177/7/6
f 166/7/6 167/7/6 178/7/6
f 177/8/6 166/8/6 178/8/6
f 178/7/6 167/7/6 179/7/6
f 168/8/6 169/8/6 180/8/6
f 169/7/6 170/7/6 181/7/6
f 180/8/6 169/8/6 181/8/6
f 181/7/6 170/7/6 182/7/6
f 182/7/6 170/7/6 183/7/6
f 170/8/6 171/8/6 184/8/6
f 183/7/6 170/7/6 184/7/6
f 184/8/6 171/8/6 185/8/6
f 172/8/6 173/8/6 186/8/6
f 173/3/6 174/3/6 186/3/6
f 174/3/6 175/3/6 186/3/6
f 186/3/6 175/3/6 187/3/6
f 187/3/6 175/3/6 188/3/6
f 175/1/6 176/1/6 189/1/6
f 188/3/6 175/3/6 189/3/6
f 178/5/6 179/5/6 190/5/6
f 177/1/6 178/1/6 190/1/6
f 179/6/6 180/6/6 191/6/6
f 190/5/6 179/5/6 191/5/6
f 191/6/6 180/6/6 192/6/6
f 192/6/6 180/6/6 193/6/6
f 180/5/6 181/5/6 194/5/6
f 193/6/6 180/6/6 194/6/6
f 181/1/6 182/1/6 195/1/6
f 194/5/6 181/5/6 195/5/6
f 182/2/6 183/2/6 196/2/6
f 195/1/6 182/1/6 196/1/6
f 183/1/6 184/1/6 197/1/6
f 196/2/6 183/2/6 197/2/6
f 184/3/6 185/3/6 198/3/6
f 197/1/6 184/1/6 198/1/6
f 198/3/6 185/3/6 199/3/6
f 172/8/6 186/8/6 200/8/6
f 186/4/6 187/4/6 201/4/6
f 200/8/6 186/8/6 201/8/6
f 187/1/6 188/1/6 202/1/6
f 201/4/6 187/4/6 202/4/6
f 188/4/6 189/4/6 203/4/6
f 202/1/6 188/1/6 203/1/6
f 189/1/6 176/1/6 204/1/6
f 203/4/6 189/4/6 204/4/6
f 176/2/6 177/2/6 205/2/6
f 204/1/6 176/1/6 205/1/6
f 177/1/6 190/1/6 206/1/6
f 205/2/6 177/2/6 206/2/6
f 190/1/6 191/1/6 206/1/6
f 191/1/6 192/1/6 206/1/6
f 206/1/6 192/1/6 207/1/6
f 207/1/6 192/1/6 208/1/6
f 208/1/6 192/1/6 209/1/6
f 192/4/6 193/4/6 210/4/6
f 209/1/6 192/1/6 210/1/6
f 210/4/6 193/4/6 211/4/6
f 193/2/6 194/2/6 212/2/6
f 211/4/6 193/4/6 212/4/6
f 194/1/6 195/1/6 213/1/6
f 212/2/6 194/2/6 213/2/6
f 195/1/6 196/1/6 213/1/6
f 213/1/6 196/1/6 214/1/6
f 196/4/6 197/4/6 215/4/6
f 214/1/6 196/1/6 215/1/6
f 197/2/6 198/2/6 216/2/6
f 215/4/6 197/4/6 216/4/6
f 198/1/6 199/1/6 217/1/6
f 216/2/6 198/2/6 217/2/6
f 217/1/6 199/1/6 218/1/6
f 200/6/6 201/6/6 219/6/6
f 203/8/6 204/8/6 220/8/6
f 219/6/6 201/6/6 220/6/6
f 202/8/6 203/8/6 220/8/6
f 204/8/6 205/8/6 220/8/6
f 201/8/6 202/8/6 220/8/6
f 205/6/6 206/6/6 221/6/6
f 220/8/6 205/8/6 221/8/6
f 206/6/6 207/6/6 221/6/6
f 207/5/6 208/5/6 222/5/6
f 221/6/6 207/6/6 222/6/6
f 208/1/6 209/1/6 223/1/6
f 222/5/6 208/5/6 223/5/6
f 209/3/6 210/3/6 224/3/6
f 223/1/6 209/1/6 224/1/6
f 210/1/6 211/1/6 225/1/6
f 224/3/6 210/3/6 225/3/6
f 211/3/6 212/3/6 226/3/6
f 225/1/6 211/1/6 226/1/6
f 212/3/6 213/3/6 226/3/6
f 213/1/6 214/1/6 227/1/6
f 226/3/6 213/3/6 227/3/6
f 214/5/6 215/5/6 228/5/6
f 227/1/6 214/1/6 228/1/6
f 217/6/6 218/6/6 229/6/6
f 228/5/6 215/5/6 229/5/6
f 216/6/6 217/6/6 229/6/6
f 215/6/6 216/6/6 229/6/6
f 229/6/6 218/6/6 230/6/6
f 222/8/6 223/8/6 231/8/6
f 224/7/6 225/7/6 232/7/6
f 231/8/6 223/8/6 232/8/6
f 223/7/6 224/7/6 232/7/6
f 225/8/6 226/8/6 233/8/6
f 232/7/6 225/7/6 233/7/6
f 227/7/6 228/7/6 234/7/6
f 233/8/6 226/8/6 234/8/6
f 226/7/6 227/7/6 234/7/6
f 228/8/6 229/8/6 235/8/6
f 234/7/6 228/7/6 235/7/6
f 235/8/6 229/8/6 236/8/6
