# MagicaVoxel @ Ephtracy

# group
o 

# material
mtllib path-straight-1.mtl
usemtl palette

# normals
vn -1 0 0
vn 1 0 0
vn 0 0 1
vn 0 0 -1
vn 0 -1 0
vn 0 1 0

# texcoords
vt 0.908203 0.5
vt 0.912109 0.5
vt 0.916016 0.5
vt 0.919922 0.5
vt 0.923828 0.5
vt 0.927734 0.5
vt 0.931641 0.5
vt 0.935547 0.5

# verts
v -1.6 0 0.2
v -1.6 0 0.0999999
v -1.6 0 -5.96046e-08
v -1.6 0 -0.1
v -1.6 0 -0.2
v -1.6 0.1 0.2
v -1.6 0.1 0.0999999
v -1.6 0.1 -5.96046e-08
v -1.6 0.1 -0.1
v -1.6 0.1 -0.2
v -1.1 0 -0.2
v -1.1 0 -0.3
v -1.1 0.1 -0.2
v -1.1 0.1 -0.3
v 0 0 0.2
v 0 0 0.0999999
v 0 0.1 0.2
v 0 0.1 0.0999999
v 0.4 0 -0.2
v 0.4 0 -0.3
v 0.4 0.1 -0.2
v 0.4 0.1 -0.3
v 1.1 0 0.2
v 1.1 0 0.0999999
v 1.1 0.1 0.2
v 1.1 0.1 0.0999999
v -0.9 0 0.2
v -0.9 0 0.0999999
v -0.9 0.1 0.2
v -0.9 0.1 0.0999999
v 0.2 0 -0.2
v 0.2 0 -0.3
v 0.2 0.1 -0.2
v 0.2 0.1 -0.3
v 0.6 0 0.2
v 0.6 0 0.0999999
v 0.6 0.1 0.2
v 0.6 0.1 0.0999999
v 1.3 0 -0.2
v 1.3 0 -0.3
v 1.3 0.1 -0.2
v 1.3 0.1 -0.3
v 1.6 0 0.2
v 1.6 0 0.0999999
v 1.6 0 -5.96046e-08
v 1.6 0 -0.1
v 1.6 0 -0.2
v 1.6 0.1 0.2
v 1.6 0.1 0.0999999
v 1.6 0.1 -5.96046e-08
v 1.6 0.1 -0.1
v 1.6 0.1 -0.2
v -1.6 0 0.2
v -1.6 0.1 0.2
v -1.3 0 0.2
v -1.3 0.1 0.2
v -1.1 0 0.2
v -1.1 0.1 0.2
v -0.9 0 0.2
v -0.9 0.1 0.2
v 0 0 0.2
v 0 0.1 0.2
v 0.2 0 0.2
v 0.2 0.1 0.2
v 0.4 0 0.2
v 0.4 0.1 0.2
v 0.5 0 0.2
v 0.5 0.1 0.2
v 0.6 0 0.2
v 0.6 0.1 0.2
v 1.1 0 0.2
v 1.1 0.1 0.2
v 1.2 0 0.2
v 1.2 0.1 0.2
v 1.5 0 0.2
v 1.5 0.1 0.2
v 1.6 0 0.2
v 1.6 0.1 0.2
v -0.9 0 0.0999999
v -0.9 0.1 0.0999999
v -0.5 0 0.0999999
v -0.5 0.1 0.0999999
v -0.2 0 0.0999999
v -0.2 0.1 0.0999999
v 0 0 0.0999999
v 0 0.1 0.0999999
v 0.6 0 0.0999999
v 0.6 0.1 0.0999999
v 1.1 0 0.0999999
v 1.1 0.1 0.0999999
v -1.6 0 -0.2
v -1.6 0.1 -0.2
v -1.5 0 -0.2
v -1.5 0.1 -0.2
v -1.3 0 -0.2
v -1.3 0.1 -0.2
v -1.1 0 -0.2
v -1.1 0.1 -0.2
v 0.2 0 -0.2
v 0.2 0.1 -0.2
v 0.3 0 -0.2
v 0.3 0.1 -0.2
v 0.4 0 -0.2
v 0.4 0.1 -0.2
v 1.3 0 -0.2
v 1.3 0.1 -0.2
v 1.6 0 -0.2
v 1.6 0.1 -0.2
v -1.1 0 -0.3
v -1.1 0.1 -0.3
v -0.7 0 -0.3
v -0.7 0.1 -0.3
v -0.3 0 -0.3
v -0.3 0.1 -0.3
v 0 0 -0.3
v 0 0.1 -0.3
v 0.2 0 -0.3
v 0.2 0.1 -0.3
v 0.4 0 -0.3
v 0.4 0.1 -0.3
v 0.5 0 -0.3
v 0.5 0.1 -0.3
v 0.8 0 -0.3
v 0.8 0.1 -0.3
v 0.9 0 -0.3
v 0.9 0.1 -0.3
v 1.2 0 -0.3
v 1.2 0.1 -0.3
v 1.3 0 -0.3
v 1.3 0.1 -0.3
v -1.6 0 0.2
v -1.3 0 0.2
v -1.1 0 0.2
v -0.9 0 0.2
v 0 0 0.2
v 0.2 0 0.2
v 0.4 0 0.2
v 0.5 0 0.2
v 0.6 0 0.2
v 1.1 0 0.2
v 1.2 0 0.2
v 1.5 0 0.2
v 1.6 0 0.2
v -1.6 0 0.0999999
v -1.5 0 0.0999999
v -1.3 0 0.0999999
v -1.2 0 0.0999999
v -1.1 0 0.0999999
v -1 0 0.0999999
v -0.9 0 0.0999999
v -0.5 0 0.0999999
v -0.2 0 0.0999999
v 0 0 0.0999999
v 0.1 0 0.0999999
v 0.2 0 0.0999999
v 0.4 0 0.0999999
v 0.5 0 0.0999999
v 0.6 0 0.0999999
v 1.1 0 0.0999999
v 1.2 0 0.0999999
v 1.3 0 0.0999999
v 1.4 0 0.0999999
v 1.5 0 0.0999999
v 1.6 0 0.0999999
v -1.6 0 -5.96046e-08
v -1.5 0 -5.96046e-08
v -1.4 0 -5.96046e-08
v -1.3 0 -5.96046e-08
v -1.2 0 -5.96046e-08
v -1 0 -5.96046e-08
v -0.9 0 -5.96046e-08
v -0.7 0 -5.96046e-08
v -0.6 0 -5.96046e-08
v -0.5 0 -5.96046e-08
v -0.3 0 -5.96046e-08
v -0.2 0 -5.96046e-08
v 0 0 -5.96046e-08
v 0.1 0 -5.96046e-08
v 0.3 0 -5.96046e-08
v 0.5 0 -5.96046e-08
v 0.6 0 -5.96046e-08
v 0.8 0 -5.96046e-08
v 1 0 -5.96046e-08
v 1.1 0 -5.96046e-08
v 1.2 0 -5.96046e-08
v 1.3 0 -5.96046e-08
v 1.4 0 -5.96046e-08
v 1.5 0 -5.96046e-08
v 1.6 0 -5.96046e-08
v -1.6 0 -0.1
v -1.5 0 -0.1
v -1.4 0 -0.1
v -1.3 0 -0.1
v -1.1 0 -0.1
v -1 0 -0.1
v -0.9 0 -0.1
v -0.7 0 -0.1
v -0.6 0 -0.1
v -0.4 0 -0.1
v -0.3 0 -0.1
v -0.2 0 -0.1
v -0.1 0 -0.1
v 0.1 0 -0.1
v 0.2 0 -0.1
v 0.3 0 -0.1
v 0.4 0 -0.1
v 0.5 0 -0.1
v 0.6 0 -0.1
v 0.8 0 -0.1
v 0.9 0 -0.1
v 1 0 -0.1
v 1.1 0 -0.1
v 1.2 0 -0.1
v 1.3 0 -0.1
v 1.4 0 -0.1
v 1.5 0 -0.1
v 1.6 0 -0.1
v -1.6 0 -0.2
v -1.5 0 -0.2
v -1.3 0 -0.2
v -1.1 0 -0.2
v -1 0 -0.2
v -0.7 0 -0.2
v -0.5 0 -0.2
v -0.4 0 -0.2
v -0.3 0 -0.2
v -0.1 0 -0.2
v 0 0 -0.2
v 0.1 0 -0.2
v 0.2 0 -0.2
v 0.3 0 -0.2
v 0.4 0 -0.2
v 0.5 0 -0.2
v 0.6 0 -0.2
v 0.8 0 -0.2
v 0.9 0 -0.2
v 1.1 0 -0.2
v 1.2 0 -0.2
v 1.3 0 -0.2
v 1.6 0 -0.2
v -1.1 0 -0.3
v -0.7 0 -0.3
v -0.3 0 -0.3
v 0 0 -0.3
v 0.2 0 -0.3
v 0.4 0 -0.3
v 0.5 0 -0.3
v 0.8 0 -0.3
v 0.9 0 -0.3
v 1.2 0 -0.3
v 1.3 0 -0.3
v -1.6 0.1 0.2
v -1.3 0.1 0.2
v -1.1 0.1 0.2
v -0.9 0.1 0.2
v 0 0.1 0.2
v 0.2 0.1 0.2
v 0.4 0.1 0.2
v 0.5 0.1 0.2
v 0.6 0.1 0.2
v 1.1 0.1 0.2
v 1.2 0.1 0.2
v 1.5 0.1 0.2
v 1.6 0.1 0.2
v -1.6 0.1 0.0999999
v -1.5 0.1 0.0999999
v -1.3 0.1 0.0999999
v -1.2 0.1 0.0999999
v -1.1 0.1 0.0999999
v -1 0.1 0.0999999
v -0.9 0.1 0.0999999
v -0.5 0.1 0.0999999
v -0.2 0.1 0.0999999
v 0 0.1 0.0999999
v 0.1 0.1 0.0999999
v 0.2 0.1 0.0999999
v 0.4 0.1 0.0999999
v 0.5 0.1 0.0999999
v 0.6 0.1 0.0999999
v 1.1 0.1 0.0999999
v 1.2 0.1 0.0999999
v 1.3 0.1 0.0999999
v 1.4 0.1 0.0999999
v 1.5 0.1 0.0999999
v 1.6 0.1 0.0999999
v -1.6 0.1 -5.96046e-08
v -1.5 0.1 -5.96046e-08
v -1.4 0.1 -5.96046e-08
v -1.3 0.1 -5.96046e-08
v -1.2 0.1 -5.96046e-08
v -1 0.1 -5.96046e-08
v -0.9 0.1 -5.96046e-08
v -0.7 0.1 -5.96046e-08
v -0.6 0.1 -5.96046e-08
v -0.5 0.1 -5.96046e-08
v -0.3 0.1 -5.96046e-08
v -0.2 0.1 -5.96046e-08
v 0 0.1 -5.96046e-08
v 0.1 0.1 -5.96046e-08
v 0.3 0.1 -5.96046e-08
v 0.5 0.1 -5.96046e-08
v 0.6 0.1 -5.96046e-08
v 0.8 0.1 -5.96046e-08
v 1 0.1 -5.96046e-08
v 1.1 0.1 -5.96046e-08
v 1.2 0.1 -5.96046e-08
v 1.3 0.1 -5.96046e-08
v 1.4 0.1 -5.96046e-08
v 1.5 0.1 -5.96046e-08
v 1.6 0.1 -5.96046e-08
v -1.6 0.1 -0.1
v -1.5 0.1 -0.1
v -1.4 0.1 -0.1
v -1.3 0.1 -0.1
v -1.1 0.1 -0.1
v -1 0.1 -0.1
v -0.9 0.1 -0.1
v -0.7 0.1 -0.1
v -0.6 0.1 -0.1
v -0.4 0.1 -0.1
v -0.3 0.1 -0.1
v -0.2 0.1 -0.1
v -0.1 0.1 -0.1
v 0.1 0.1 -0.1
v 0.2 0.1 -0.1
v 0.3 0.1 -0.1
v 0.4 0.1 -0.1
v 0.5 0.1 -0.1
v 0.6 0.1 -0.1
v 0.8 0.1 -0.1
v 0.9 0.1 -0.1
v 1 0.1 -0.1
v 1.1 0.1 -0.1
v 1.2 0.1 -0.1
v 1.3 0.1 -0.1
v 1.4 0.1 -0.1
v 1.5 0.1 -0.1
v 1.6 0.1 -0.1
v -1.6 0.1 -0.2
v -1.5 0.1 -0.2
v -1.3 0.1 -0.2
v -1.1 0.1 -0.2
v -1 0.1 -0.2
v -0.7 0.1 -0.2
v -0.5 0.1 -0.2
v -0.4 0.1 -0.2
v -0.3 0.1 -0.2
v -0.1 0.1 -0.2
v 0 0.1 -0.2
v 0.1 0.1 -0.2
v 0.2 0.1 -0.2
v 0.3 0.1 -0.2
v 0.4 0.1 -0.2
v 0.5 0.1 -0.2
v 0.6 0.1 -0.2
v 0.8 0.1 -0.2
v 0.9 0.1 -0.2
v 1.1 0.1 -0.2
v 1.2 0.1 -0.2
v 1.3 0.1 -0.2
v 1.6 0.1 -0.2
v -1.1 0.1 -0.3
v -0.7 0.1 -0.3
v -0.3 0.1 -0.3
v 0 0.1 -0.3
v 0.2 0.1 -0.3
v 0.4 0.1 -0.3
v 0.5 0.1 -0.3
v 0.8 0.1 -0.3
v 0.9 0.1 -0.3
v 1.2 0.1 -0.3
v 1.3 0.1 -0.3

# faces
f 6/7/1 2/7/1 1/7/1
f 7/1/1 3/1/1 2/1/1
f 7/7/1 2/7/1 6/7/1
f 8/3/1 4/3/1 3/3/1
f 8/1/1 3/1/1 7/1/1
f 9/8/1 5/8/1 4/8/1
f 9/3/1 4/3/1 8/3/1
f 10/8/1 5/8/1 9/8/1
f 13/8/1 12/8/1 11/8/1
f 14/8/1 12/8/1 13/8/1
f 17/8/1 16/8/1 15/8/1
f 18/8/1 16/8/1 17/8/1
f 21/8/1 20/8/1 19/8/1
f 22/8/1 20/8/1 21/8/1
f 25/8/1 24/8/1 23/8/1
f 26/8/1 24/8/1 25/8/1
f 27/8/2 28/8/2 29/8/2
f 29/8/2 28/8/2 30/8/2
f 31/8/2 32/8/2 33/8/2
f 33/8/2 32/8/2 34/8/2
f 35/7/2 36/7/2 37/7/2
f 37/7/2 36/7/2 38/7/2
f 39/8/2 40/8/2 41/8/2
f 41/8/2 40/8/2 42/8/2
f 43/8/2 44/8/2 48/8/2
f 44/3/2 45/3/2 49/3/2
f 48/8/2 44/8/2 49/8/2
f 45/1/2 46/1/2 50/1/2
f 49/3/2 45/3/2 50/3/2
f 46/6/2 47/6/2 51/6/2
f 50/1/2 46/1/2 51/1/2
f 51/6/2 47/6/2 52/6/2
f 55/7/3 54/7/3 53/7/3
f 56/7/3 54/7/3 55/7/3
f 57/6/3 56/6/3 55/6/3
f 58/6/3 56/6/3 57/6/3
f 59/8/3 58/8/3 57/8/3
f 60/8/3 58/8/3 59/8/3
f 63/8/3 62/8/3 61/8/3
f 64/8/3 62/8/3 63/8/3
f 65/6/3 64/6/3 63/6/3
f 66/6/3 64/6/3 65/6/3
f 67/8/3 66/8/3 65/8/3
f 68/8/3 66/8/3 67/8/3
f 69/7/3 68/7/3 67/7/3
f 70/7/3 68/7/3 69/7/3
f 73/8/3 72/8/3 71/8/3
f 74/8/3 72/8/3 73/8/3
f 75/7/3 74/7/3 73/7/3
f 76/7/3 74/7/3 75/7/3
f 77/8/3 76/8/3 75/8/3
f 78/8/3 76/8/3 77/8/3
f 81/8/3 80/8/3 79/8/3
f 82/8/3 80/8/3 81/8/3
f 83/7/3 82/7/3 81/7/3
f 84/7/3 82/7/3 83/7/3
f 85/8/3 84/8/3 83/8/3
f 86/8/3 84/8/3 85/8/3
f 89/6/3 88/6/3 87/6/3
f 90/6/3 88/6/3 89/6/3
f 91/8/4 92/8/4 93/8/4
f 93/8/4 92/8/4 94/8/4
f 93/7/4 94/7/4 95/7/4
f 95/7/4 94/7/4 96/7/4
f 95/8/4 96/8/4 97/8/4
f 97/8/4 96/8/4 98/8/4
f 99/6/4 100/6/4 101/6/4
f 101/6/4 100/6/4 102/6/4
f 101/7/4 102/7/4 103/7/4
f 103/7/4 102/7/4 104/7/4
f 105/6/4 106/6/4 107/6/4
f 107/6/4 106/6/4 108/6/4
f 109/8/4 110/8/4 111/8/4
f 111/8/4 110/8/4 112/8/4
f 111/6/4 112/6/4 113/6/4
f 113/6/4 112/6/4 114/6/4
f 113/7/4 114/7/4 115/7/4
f 115/7/4 114/7/4 116/7/4
f 115/8/4 116/8/4 117/8/4
f 117/8/4 116/8/4 118/8/4
f 119/8/4 120/8/4 121/8/4
f 121/8/4 120/8/4 122/8/4
f 121/7/4 122/7/4 123/7/4
f 123/7/4 122/7/4 124/7/4
f 123/8/4 124/8/4 125/8/4
f 125/8/4 124/8/4 126/8/4
f 125/7/4 126/7/4 127/7/4
f 127/7/4 126/7/4 128/7/4
f 127/8/4 128/8/4 129/8/4
f 129/8/4 128/8/4 130/8/4
f 144/7/5 132/7/5 131/7/5
f 145/7/5 132/7/5 144/7/5
f 146/6/5 133/6/5 132/6/5
f 146/7/5 132/7/5 145/7/5
f 147/6/5 133/6/5 146/6/5
f 148/8/5 134/8/5 133/8/5
f 148/6/5 133/6/5 147/6/5
f 149/8/5 134/8/5 148/8/5
f 150/8/5 134/8/5 149/8/5
f 153/8/5 136/8/5 135/8/5
f 154/8/5 136/8/5 153/8/5
f 155/6/5 137/6/5 136/6/5
f 155/8/5 136/8/5 154/8/5
f 156/8/5 138/8/5 137/8/5
f 156/6/5 137/6/5 155/6/5
f 157/7/5 139/7/5 138/7/5
f 157/8/5 138/8/5 156/8/5
f 158/7/5 139/7/5 157/7/5
f 159/8/5 141/8/5 140/8/5
f 160/7/5 142/7/5 141/7/5
f 160/8/5 141/8/5 159/8/5
f 161/7/5 142/7/5 160/7/5
f 162/7/5 142/7/5 161/7/5
f 163/8/5 143/8/5 142/8/5
f 163/7/5 142/7/5 162/7/5
f 164/8/5 143/8/5 163/8/5
f 165/1/5 145/1/5 144/1/5
f 166/3/5 147/3/5 146/3/5
f 166/1/5 145/1/5 165/1/5
f 166/3/5 146/3/5 145/3/5
f 167/3/5 147/3/5 166/3/5
f 168/3/5 147/3/5 167/3/5
f 169/1/5 148/1/5 147/1/5
f 169/3/5 147/3/5 168/3/5
f 169/1/5 149/1/5 148/1/5
f 170/5/5 150/5/5 149/5/5
f 170/1/5 149/1/5 169/1/5
f 171/8/5 151/8/5 150/8/5
f 171/5/5 150/5/5 170/5/5
f 172/8/5 151/8/5 171/8/5
f 173/8/5 151/8/5 172/8/5
f 174/7/5 152/7/5 151/7/5
f 174/8/5 151/8/5 173/8/5
f 175/7/5 152/7/5 174/7/5
f 176/8/5 153/8/5 152/8/5
f 176/7/5 152/7/5 175/7/5
f 177/5/5 154/5/5 153/5/5
f 177/8/5 153/8/5 176/8/5
f 178/1/5 155/1/5 154/1/5
f 178/5/5 154/5/5 177/5/5
f 178/1/5 156/1/5 155/1/5
f 178/1/5 157/1/5 156/1/5
f 179/1/5 157/1/5 178/1/5
f 180/5/5 158/5/5 157/5/5
f 180/1/5 157/1/5 179/1/5
f 181/6/5 159/6/5 158/6/5
f 181/5/5 158/5/5 180/5/5
f 182/6/5 159/6/5 181/6/5
f 183/6/5 159/6/5 182/6/5
f 184/5/5 160/5/5 159/5/5
f 184/6/5 159/6/5 183/6/5
f 185/1/5 161/1/5 160/1/5
f 185/5/5 160/5/5 184/5/5
f 186/2/5 162/2/5 161/2/5
f 186/1/5 161/1/5 185/1/5
f 187/1/5 163/1/5 162/1/5
f 187/2/5 162/2/5 186/2/5
f 188/3/5 164/3/5 163/3/5
f 188/1/5 163/1/5 187/1/5
f 189/3/5 164/3/5 188/3/5
f 190/3/5 166/3/5 165/3/5
f 191/1/5 167/1/5 166/1/5
f 191/3/5 166/3/5 190/3/5
f 192/3/5 168/3/5 167/3/5
f 192/1/5 167/1/5 191/1/5
f 193/1/5 169/1/5 168/1/5
f 193/3/5 168/3/5 192/3/5
f 193/1/5 170/1/5 169/1/5
f 193/1/5 171/1/5 170/1/5
f 194/1/5 171/1/5 193/1/5
f 195/1/5 171/1/5 194/1/5
f 196/2/5 172/2/5 171/2/5
f 196/1/5 171/1/5 195/1/5
f 197/1/5 173/1/5 172/1/5
f 197/2/5 172/2/5 196/2/5
f 198/3/5 174/3/5 173/3/5
f 198/1/5 173/1/5 197/1/5
f 199/1/5 175/1/5 174/1/5
f 200/3/5 176/3/5 175/3/5
f 200/1/5 175/1/5 199/1/5
f 201/1/5 177/1/5 176/1/5
f 201/3/5 176/3/5 200/3/5
f 201/1/5 178/1/5 177/1/5
f 202/1/5 178/1/5 201/1/5
f 203/2/5 179/2/5 178/2/5
f 203/1/5 178/1/5 202/1/5
f 204/2/5 179/2/5 203/2/5
f 205/1/5 180/1/5 179/1/5
f 205/2/5 179/2/5 204/2/5
f 205/1/5 181/1/5 180/1/5
f 205/1/5 182/1/5 181/1/5
f 206/1/5 182/1/5 205/1/5
f 207/1/5 182/1/5 206/1/5
f 208/1/5 182/1/5 207/1/5
f 209/4/5 183/4/5 182/4/5
f 209/1/5 182/1/5 208/1/5
f 210/4/5 183/4/5 209/4/5
f 211/2/5 184/2/5 183/2/5
f 211/4/5 183/4/5 210/4/5
f 212/1/5 185/1/5 184/1/5
f 212/2/5 184/2/5 211/2/5
f 212/1/5 186/1/5 185/1/5
f 213/1/5 186/1/5 212/1/5
f 214/4/5 187/4/5 186/4/5
f 214/1/5 186/1/5 213/1/5
f 215/2/5 188/2/5 187/2/5
f 215/4/5 187/4/5 214/4/5
f 216/1/5 189/1/5 188/1/5
f 216/2/5 188/2/5 215/2/5
f 217/1/5 189/1/5 216/1/5
f 218/8/5 191/8/5 190/8/5
f 219/7/5 192/7/5 191/7/5
f 219/8/5 191/8/5 218/8/5
f 219/7/5 193/7/5 192/7/5
f 220/8/5 194/8/5 193/8/5
f 220/7/5 193/7/5 219/7/5
f 221/5/5 195/5/5 194/5/5
f 221/8/5 194/8/5 220/8/5
f 222/1/5 196/1/5 195/1/5
f 222/5/5 195/5/5 221/5/5
f 222/1/5 197/1/5 196/1/5
f 223/3/5 198/3/5 197/3/5
f 223/1/5 197/1/5 222/1/5
f 224/1/5 199/1/5 174/1/5
f 224/3/5 198/3/5 223/3/5
f 224/3/5 174/3/5 198/3/5
f 225/2/5 200/2/5 199/2/5
f 225/1/5 199/1/5 224/1/5
f 225/2/5 202/2/5 201/2/5
f 225/2/5 201/2/5 200/2/5
f 226/2/5 202/2/5 225/2/5
f 227/1/5 203/1/5 202/1/5
f 227/2/5 202/2/5 226/2/5
f 228/1/5 203/1/5 227/1/5
f 229/5/5 204/5/5 203/5/5
f 229/1/5 203/1/5 228/1/5
f 230/6/5 205/6/5 204/6/5
f 230/5/5 204/5/5 229/5/5
f 231/7/5 206/7/5 205/7/5
f 231/6/5 205/6/5 230/6/5
f 232/5/5 207/5/5 206/5/5
f 232/7/5 206/7/5 231/7/5
f 233/1/5 208/1/5 207/1/5
f 233/5/5 207/5/5 232/5/5
f 234/3/5 209/3/5 208/3/5
f 234/1/5 208/1/5 233/1/5
f 235/1/5 210/1/5 209/1/5
f 235/3/5 209/3/5 234/3/5
f 236/3/5 211/3/5 210/3/5
f 236/1/5 210/1/5 235/1/5
f 236/3/5 212/3/5 211/3/5
f 237/1/5 213/1/5 212/1/5
f 237/3/5 212/3/5 236/3/5
f 238/5/5 214/5/5 213/5/5
f 238/1/5 213/1/5 237/1/5
f 239/6/5 216/6/5 215/6/5
f 239/5/5 214/5/5 238/5/5
f 239/6/5 215/6/5 214/6/5
f 239/6/5 217/6/5 216/6/5
f 240/6/5 217/6/5 239/6/5
f 241/8/5 223/8/5 222/8/5
f 241/8/5 222/8/5 221/8/5
f 242/6/5 224/6/5 223/6/5
f 242/8/5 223/8/5 241/8/5
f 242/6/5 225/6/5 224/6/5
f 242/6/5 226/6/5 225/6/5
f 243/7/5 228/7/5 227/7/5
f 243/6/5 226/6/5 242/6/5
f 243/7/5 227/7/5 226/7/5
f 244/8/5 229/8/5 228/8/5
f 244/7/5 228/7/5 243/7/5
f 244/8/5 230/8/5 229/8/5
f 245/8/5 230/8/5 244/8/5
f 246/8/5 233/8/5 232/8/5
f 247/7/5 235/7/5 234/7/5
f 247/8/5 233/8/5 246/8/5
f 247/7/5 234/7/5 233/7/5
f 248/8/5 236/8/5 235/8/5
f 248/7/5 235/7/5 247/7/5
f 249/7/5 238/7/5 237/7/5
f 249/8/5 236/8/5 248/8/5
f 249/7/5 237/7/5 236/7/5
f 250/8/5 239/8/5 238/8/5
f 250/7/5 238/7/5 249/7/5
f 251/8/5 239/8/5 250/8/5
f 252/7/6 253/7/6 265/7/6
f 265/7/6 253/7/6 266/7/6
f 253/6/6 254/6/6 267/6/6
f 266/7/6 253/7/6 267/7/6
f 267/6/6 254/6/6 268/6/6
f 254/8/6 255/8/6 269/8/6
f 268/6/6 254/6/6 269/6/6
f 269/8/6 255/8/6 270/8/6
f 270/8/6 255/8/6 271/8/6
f 256/8/6 257/8/6 274/8/6
f 274/8/6 257/8/6 275/8/6
f 257/6/6 258/6/6 276/6/6
f 275/8/6 257/8/6 276/8/6
f 258/8/6 259/8/6 277/8/6
f 276/6/6 258/6/6 277/6/6
f 259/7/6 260/7/6 278/7/6
f 277/8/6 259/8/6 278/8/6
f 278/7/6 260/7/6 279/7/6
f 261/8/6 262/8/6 280/8/6
f 262/7/6 263/7/6 281/7/6
f 280/8/6 262/8/6 281/8/6
f 281/7/6 263/7/6 282/7/6
f 282/7/6 263/7/6 283/7/6
f 263/8/6 264/8/6 284/8/6
f 283/7/6 263/7/6 284/7/6
f 284/8/6 264/8/6 285/8/6
f 265/1/6 266/1/6 286/1/6
f 267/3/6 268/3/6 287/3/6
f 286/1/6 266/1/6 287/1/6
f 266/3/6 267/3/6 287/3/6
f 287/3/6 268/3/6 288/3/6
f 288/3/6 268/3/6 289/3/6
f 268/1/6 269/1/6 290/1/6
f 289/3/6 268/3/6 290/3/6
f 269/1/6 270/1/6 290/1/6
f 270/5/6 271/5/6 291/5/6
f 290/1/6 270/1/6 291/1/6
f 271/8/6 272/8/6 292/8/6
f 291/5/6 271/5/6 292/5/6
f 292/8/6 272/8/6 293/8/6
f 293/8/6 272/8/6 294/8/6
f 272/7/6 273/7/6 295/7/6
f 294/8/6 272/8/6 295/8/6
f 295/7/6 273/7/6 296/7/6
f 273/8/6 274/8/6 297/8/6
f 296/7/6 273/7/6 297/7/6
f 274/5/6 275/5/6 298/5/6
f 297/8/6 274/8/6 298/8/6
f 275/1/6 276/1/6 299/1/6
f 298/5/6 275/5/6 299/5/6
f 276/1/6 277/1/6 299/1/6
f 277/1/6 278/1/6 299/1/6
f 299/1/6 278/1/6 300/1/6
f 278/5/6 279/5/6 301/5/6
f 300/1/6 278/1/6 301/1/6
f 279/6/6 280/6/6 302/6/6
f 301/5/6 279/5/6 302/5/6
f 302/6/6 280/6/6 303/6/6
f 303/6/6 280/6/6 304/6/6
f 280/5/6 281/5/6 305/5/6
f 304/6/6 280/6/6 305/6/6
f 281/1/6 282/1/6 306/1/6
f 305/5/6 281/5/6 306/5/6
f 282/2/6 283/2/6 307/2/6
f 306/1/6 282/1/6 307/1/6
f 283/1/6 284/1/6 308/1/6
f 307/2/6 283/2/6 308/2/6
f 284/3/6 285/3/6 309/3/6
f 308/1/6 284/1/6 309/1/6
f 309/3/6 285/3/6 310/3/6
f 286/3/6 287/3/6 311/3/6
f 287/1/6 288/1/6 312/1/6
f 311/3/6 287/3/6 312/3/6
f 288/3/6 289/3/6 313/3/6
f 312/1/6 288/1/6 313/1/6
f 289/1/6 290/1/6 314/1/6
f 313/3/6 289/3/6 314/3/6
f 290/1/6 291/1/6 314/1/6
f 291/1/6 292/1/6 314/1/6
f 314/1/6 292/1/6 315/1/6
f 315/1/6 292/1/6 316/1/6
f 292/2/6 293/2/6 317/2/6
f 316/1/6 292/1/6 317/1/6
f 293/1/6 294/1/6 318/1/6
f 317/2/6 293/2/6 318/2/6
f 294/3/6 295/3/6 319/3/6
f 318/1/6 294/1/6 319/1/6
f 295/1/6 296/1/6 320/1/6
f 296/3/6 297/3/6 321/3/6
f 320/1/6 296/1/6 321/1/6
f 297/1/6 298/1/6 322/1/6
f 321/3/6 297/3/6 322/3/6
f 298/1/6 299/1/6 322/1/6
f 322/1/6 299/1/6 323/1/6
f 299/2/6 300/2/6 324/2/6
f 323/1/6 299/1/6 324/1/6
f 324/2/6 300/2/6 325/2/6
f 300/1/6 301/1/6 326/1/6
f 325/2/6 300/2/6 326/2/6
f 301/1/6 302/1/6 326/1/6
f 302/1/6 303/1/6 326/1/6
f 326/1/6 303/1/6 327/1/6
f 327/1/6 303/1/6 328/1/6
f 328/1/6 303/1/6 329/1/6
f 303/4/6 304/4/6 330/4/6
f 329/1/6 303/1/6 330/1/6
f 330/4/6 304/4/6 331/4/6
f 304/2/6 305/2/6 332/2/6
f 331/4/6 304/4/6 332/4/6
f 305/1/6 306/1/6 333/1/6
f 332/2/6 305/2/6 333/2/6
f 306/1/6 307/1/6 333/1/6
f 333/1/6 307/1/6 334/1/6
f 307/4/6 308/4/6 335/4/6
f 334/1/6 307/1/6 335/1/6
f 308/2/6 309/2/6 336/2/6
f 335/4/6 308/4/6 336/4/6
f 309/1/6 310/1/6 337/1/6
f 336/2/6 309/2/6 337/2/6
f 337/1/6 310/1/6 338/1/6
f 311/8/6 312/8/6 339/8/6
f 312/7/6 313/7/6 340/7/6
f 339/8/6 312/8/6 340/8/6
f 313/7/6 314/7/6 340/7/6
f 314/8/6 315/8/6 341/8/6
f 340/7/6 314/7/6 341/7/6
f 315/5/6 316/5/6 342/5/6
f 341/8/6 315/8/6 342/8/6
f 316/1/6 317/1/6 343/1/6
f 342/5/6 316/5/6 343/5/6
f 317/1/6 318/1/6 343/1/6
f 318/3/6 319/3/6 344/3/6
f 343/1/6 318/1/6 344/1/6
f 295/1/6 320/1/6 345/1/6
f 344/3/6 319/3/6 345/3/6
f 319/3/6 295/3/6 345/3/6
f 320/2/6 321/2/6 346/2/6
f 345/1/6 320/1/6 346/1/6
f 322/2/6 323/2/6 346/2/6
f 321/2/6 322/2/6 346/2/6
f 346/2/6 323/2/6 347/2/6
f 323/1/6 324/1/6 348/1/6
f 347/2/6 323/2/6 348/2/6
f 348/1/6 324/1/6 349/1/6
f 324/5/6 325/5/6 350/5/6
f 349/1/6 324/1/6 350/1/6
f 325/6/6 326/6/6 351/6/6
f 350/5/6 325/5/6 351/5/6
f 326/7/6 327/7/6 352/7/6
f 351/6/6 326/6/6 352/6/6
f 327/5/6 328/5/6 353/5/6
f 352/7/6 327/7/6 353/7/6
f 328/1/6 329/1/6 354/1/6
f 353/5/6 328/5/6 354/5/6
f 329/3/6 330/3/6 355/3/6
f 354/1/6 329/1/6 355/1/6
f 330/1/6 331/1/6 356/1/6
f 355/3/6 330/3/6 356/3/6
f 331/3/6 332/3/6 357/3/6
f 356/1/6 331/1/6 357/1/6
f 332/3/6 333/3/6 357/3/6
f 333/1/6 334/1/6 358/1/6
f 357/3/6 333/3/6 358/3/6
f 334/5/6 335/5/6 359/5/6
f 358/1/6 334/1/6 359/1/6
f 336/6/6 337/6/6 360/6/6
f 359/5/6 335/5/6 360/5/6
f 335/6/6 336/6/6 360/6/6
f 337/6/6 338/6/6 360/6/6
f 360/6/6 338/6/6 361/6/6
f 343/8/6 344/8/6 362/8/6
f 342/8/6 343/8/6 362/8/6
f 344/6/6 345/6/6 363/6/6
f 362/8/6 344/8/6 363/8/6
f 345/6/6 346/6/6 363/6/6
f 346/6/6 347/6/6 363/6/6
f 348/7/6 349/7/6 364/7/6
f 363/6/6 347/6/6 364/6/6
f 347/7/6 348/7/6 364/7/6
f 349/8/6 350/8/6 365/8/6
f 364/7/6 349/7/6 365/7/6
f 350/8/6 351/8/6 365/8/6
f 365/8/6 351/8/6 366/8/6
f 353/8/6 354/8/6 367/8/6
f 355/7/6 356/7/6 368/7/6
f 367/8/6 354/8/6 368/8/6
f 354/7/6 355/7/6 368/7/6
f 356/8/6 357/8/6 369/8/6
f 368/7/6 356/7/6 369/7/6
f 358/7/6 359/7/6 370/7/6
f 369/8/6 357/8/6 370/8/6
f 357/7/6 358/7/6 370/7/6
f 359/8/6 360/8/6 371/8/6
f 370/7/6 359/7/6 371/7/6
f 371/8/6 360/8/6 372/8/6
