# MagicaVoxel @ Ephtracy

# group
o 

# material
mtllib path-straight-4.mtl
usemtl palette

# normals
vn 0 0 1
vn 0 0 -1
vn 1 0 0
vn -1 0 0
vn 0 -1 0
vn 0 1 0

# texcoords
vt 0.908203 0.5
vt 0.912109 0.5
vt 0.916016 0.5
vt 0.923828 0.5
vt 0.927734 0.5
vt 0.931641 0.5
vt 0.935547 0.5

# verts
v 1.3 0 0.3
v 1.1 0 0.3
v 0.8 0 0.3
v 0.6 0 0.3
v 0.5 0 0.3
v 1.3 0.1 0.3
v 1.1 0.1 0.3
v 0.8 0.1 0.3
v 0.6 0.1 0.3
v 0.5 0.1 0.3
v 1.6 0 0.2
v 1.5 0 0.2
v 1.3 0 0.2
v 0.5 0 0.2
v 0.2 0 0.2
v 0 0 0.2
v -0.9 0 0.2
v -1.1 0 0.2
v -1.3 0 0.2
v -1.6 0 0.2
v 1.6 0.1 0.2
v 1.5 0.1 0.2
v 1.3 0.1 0.2
v 0.5 0.1 0.2
v 0.2 0.1 0.2
v 0 0.1 0.2
v -0.9 0.1 0.2
v -1.1 0.1 0.2
v -1.3 0.1 0.2
v -1.6 0.1 0.2
v 0 0 0.1
v -0.2 0 0.1
v -0.5 0 0.1
v -0.9 0 0.1
v 0 0.1 0.1
v -0.2 0.1 0.1
v -0.5 0.1 0.1
v -0.9 0.1 0.1
v 1.1 0 -0.1
v 0.8 0 -0.1
v 0.7 0 -0.1
v 1.1 0.1 -0.1
v 0.8 0.1 -0.1
v 0.7 0.1 -0.1
v 1.6 0 -0.2
v 1.5 0 -0.2
v 1.3 0 -0.2
v 1.1 0 -0.2
v 0.7 0 -0.2
v 0.5 0 -0.2
v 0.3 0 -0.2
v 0.2 0 -0.2
v -1.1 0 -0.2
v -1.3 0 -0.2
v -1.5 0 -0.2
v -1.6 0 -0.2
v 1.6 0.1 -0.2
v 1.5 0.1 -0.2
v 1.3 0.1 -0.2
v 1.1 0.1 -0.2
v 0.7 0.1 -0.2
v 0.5 0.1 -0.2
v 0.3 0.1 -0.2
v 0.2 0.1 -0.2
v -1.1 0.1 -0.2
v -1.3 0.1 -0.2
v -1.5 0.1 -0.2
v -1.6 0.1 -0.2
v 0.2 0 -0.3
v 0 0 -0.3
v -0.3 0 -0.3
v -0.7 0 -0.3
v -1.1 0 -0.3
v 0.2 0.1 -0.3
v 0 0.1 -0.3
v -0.3 0.1 -0.3
v -0.7 0.1 -0.3
v -1.1 0.1 -0.3
v 1.6 0 0.2
v 1.6 0.1 0.2
v 1.6 0 0.1
v 1.6 0.1 0.1
v 1.6 0 -2.98023e-08
v 1.6 0.1 -2.98023e-08
v 1.6 0 -0.1
v 1.6 0.1 -0.1
v 1.6 0 -0.2
v 1.6 0.1 -0.2
v 1.3 0 0.3
v 1.3 0.1 0.3
v 1.3 0 0.2
v 1.3 0.1 0.2
v 0.7 0 -0.1
v 0.7 0.1 -0.1
v 0.7 0 -0.2
v 0.7 0.1 -0.2
v 0.2 0 -0.2
v 0.2 0.1 -0.2
v 0.2 0 -0.3
v 0.2 0.1 -0.3
v -0.9 0 0.2
v -0.9 0.1 0.2
v -0.9 0 0.1
v -0.9 0.1 0.1
v 1.1 0 -0.1
v 1.1 0.1 -0.1
v 1.1 0 -0.2
v 1.1 0.1 -0.2
v 0.5 0 0.3
v 0.5 0.1 0.3
v 0.5 0 0.2
v 0.5 0.1 0.2
v 0 0 0.2
v 0 0.1 0.2
v 0 0 0.1
v 0 0.1 0.1
v -1.1 0 -0.2
v -1.1 0.1 -0.2
v -1.1 0 -0.3
v -1.1 0.1 -0.3
v -1.6 0 0.2
v -1.6 0.1 0.2
v -1.6 0 0.1
v -1.6 0.1 0.1
v -1.6 0 -2.98023e-08
v -1.6 0.1 -2.98023e-08
v -1.6 0 -0.1
v -1.6 0.1 -0.1
v -1.6 0 -0.2
v -1.6 0.1 -0.2
v 1.6 0 0.2
v 1.6 0 0.1
v 1.6 0 -2.98023e-08
v 1.6 0 -0.1
v 1.6 0 -0.2
v 1.5 0 0.2
v 1.5 0 0.1
v 1.5 0 -0.1
v 1.5 0 -0.2
v 1.4 0 -2.98023e-08
v 1.4 0 -0.1
v 1.3 0 0.3
v 1.3 0 0.2
v 1.3 0 0.1
v 1.3 0 -2.98023e-08
v 1.3 0 -0.1
v 1.3 0 -0.2
v 1.2 0 0.2
v 1.2 0 0.1
v 1.2 0 -2.98023e-08
v 1.2 0 -0.1
v 1.1 0 0.3
v 1.1 0 0.2
v 1.1 0 -2.98023e-08
v 1.1 0 -0.1
v 1.1 0 -0.2
v 1 0 0.2
v 1 0 0.1
v 1 0 -2.98023e-08
v 0.9 0 0.2
v 0.9 0 0.1
v 0.8 0 0.3
v 0.8 0 0.2
v 0.8 0 0.1
v 0.8 0 -2.98023e-08
v 0.8 0 -0.1
v 0.7 0 -2.98023e-08
v 0.7 0 -0.1
v 0.7 0 -0.2
v 0.6 0 0.3
v 0.6 0 0.2
v 0.6 0 0.1
v 0.6 0 -2.98023e-08
v 0.6 0 -0.1
v 0.5 0 0.3
v 0.5 0 0.2
v 0.5 0 0.1
v 0.5 0 -2.98023e-08
v 0.5 0 -0.1
v 0.5 0 -0.2
v 0.4 0 0.1
v 0.4 0 -2.98023e-08
v 0.3 0 -2.98023e-08
v 0.3 0 -0.1
v 0.3 0 -0.2
v 0.2 0 0.2
v 0.2 0 0.1
v 0.2 0 -0.1
v 0.2 0 -0.2
v 0.2 0 -0.3
v 0.1 0 0.1
v 0.1 0 -2.98023e-08
v 0.1 0 -0.1
v 0.1 0 -0.2
v 0 0 0.2
v 0 0 0.1
v 0 0 -2.98023e-08
v 0 0 -0.2
v 0 0 -0.3
v -0.1 0 -0.1
v -0.1 0 -0.2
v -0.2 0 0.1
v -0.2 0 -2.98023e-08
v -0.2 0 -0.1
v -0.3 0 -2.98023e-08
v -0.3 0 -0.1
v -0.3 0 -0.2
v -0.3 0 -0.3
v -0.4 0 -0.1
v -0.4 0 -0.2
v -0.5 0 0.1
v -0.5 0 -2.98023e-08
v -0.5 0 -0.2
v -0.6 0 -2.98023e-08
v -0.6 0 -0.1
v -0.7 0 -2.98023e-08
v -0.7 0 -0.1
v -0.7 0 -0.2
v -0.7 0 -0.3
v -0.9 0 0.2
v -0.9 0 0.1
v -0.9 0 -2.98023e-08
v -0.9 0 -0.1
v -1 0 0.1
v -1 0 -2.98023e-08
v -1 0 -0.1
v -1 0 -0.2
v -1.1 0 0.2
v -1.1 0 0.1
v -1.1 0 -0.1
v -1.1 0 -0.2
v -1.1 0 -0.3
v -1.2 0 0.1
v -1.2 0 -2.98023e-08
v -1.3 0 0.2
v -1.3 0 0.1
v -1.3 0 -2.98023e-08
v -1.3 0 -0.1
v -1.3 0 -0.2
v -1.4 0 -2.98023e-08
v -1.4 0 -0.1
v -1.5 0 0.1
v -1.5 0 -2.98023e-08
v -1.5 0 -0.1
v -1.5 0 -0.2
v -1.6 0 0.2
v -1.6 0 0.1
v -1.6 0 -2.98023e-08
v -1.6 0 -0.1
v -1.6 0 -0.2
v 1.6 0.1 0.2
v 1.6 0.1 0.1
v 1.6 0.1 -2.98023e-08
v 1.6 0.1 -0.1
v 1.6 0.1 -0.2
v 1.5 0.1 0.2
v 1.5 0.1 0.1
v 1.5 0.1 -0.1
v 1.5 0.1 -0.2
v 1.4 0.1 -2.98023e-08
v 1.4 0.1 -0.1
v 1.3 0.1 0.3
v 1.3 0.1 0.2
v 1.3 0.1 0.1
v 1.3 0.1 -2.98023e-08
v 1.3 0.1 -0.1
v 1.3 0.1 -0.2
v 1.2 0.1 0.2
v 1.2 0.1 0.1
v 1.2 0.1 -2.98023e-08
v 1.2 0.1 -0.1
v 1.1 0.1 0.3
v 1.1 0.1 0.2
v 1.1 0.1 -2.98023e-08
v 1.1 0.1 -0.1
v 1.1 0.1 -0.2
v 1 0.1 0.2
v 1 0.1 0.1
v 1 0.1 -2.98023e-08
v 0.9 0.1 0.2
v 0.9 0.1 0.1
v 0.8 0.1 0.3
v 0.8 0.1 0.2
v 0.8 0.1 0.1
v 0.8 0.1 -2.98023e-08
v 0.8 0.1 -0.1
v 0.7 0.1 -2.98023e-08
v 0.7 0.1 -0.1
v 0.7 0.1 -0.2
v 0.6 0.1 0.3
v 0.6 0.1 0.2
v 0.6 0.1 0.1
v 0.6 0.1 -2.98023e-08
v 0.6 0.1 -0.1
v 0.5 0.1 0.3
v 0.5 0.1 0.2
v 0.5 0.1 0.1
v 0.5 0.1 -2.98023e-08
v 0.5 0.1 -0.1
v 0.5 0.1 -0.2
v 0.4 0.1 0.1
v 0.4 0.1 -2.98023e-08
v 0.3 0.1 -2.98023e-08
v 0.3 0.1 -0.1
v 0.3 0.1 -0.2
v 0.2 0.1 0.2
v 0.2 0.1 0.1
v 0.2 0.1 -0.1
v 0.2 0.1 -0.2
v 0.2 0.1 -0.3
v 0.1 0.1 0.1
v 0.1 0.1 -2.98023e-08
v 0.1 0.1 -0.1
v 0.1 0.1 -0.2
v 0 0.1 0.2
v 0 0.1 0.1
v 0 0.1 -2.98023e-08
v 0 0.1 -0.2
v 0 0.1 -0.3
v -0.1 0.1 -0.1
v -0.1 0.1 -0.2
v -0.2 0.1 0.1
v -0.2 0.1 -2.98023e-08
v -0.2 0.1 -0.1
v -0.3 0.1 -2.98023e-08
v -0.3 0.1 -0.1
v -0.3 0.1 -0.2
v -0.3 0.1 -0.3
v -0.4 0.1 -0.1
v -0.4 0.1 -0.2
v -0.5 0.1 0.1
v -0.5 0.1 -2.98023e-08
v -0.5 0.1 -0.2
v -0.6 0.1 -2.98023e-08
v -0.6 0.1 -0.1
v -0.7 0.1 -2.98023e-08
v -0.7 0.1 -0.1
v -0.7 0.1 -0.2
v -0.7 0.1 -0.3
v -0.9 0.1 0.2
v -0.9 0.1 0.1
v -0.9 0.1 -2.98023e-08
v -0.9 0.1 -0.1
v -1 0.1 0.1
v -1 0.1 -2.98023e-08
v -1 0.1 -0.1
v -1 0.1 -0.2
v -1.1 0.1 0.2
v -1.1 0.1 0.1
v -1.1 0.1 -0.1
v -1.1 0.1 -0.2
v -1.1 0.1 -0.3
v -1.2 0.1 0.1
v -1.2 0.1 -2.98023e-08
v -1.3 0.1 0.2
v -1.3 0.1 0.1
v -1.3 0.1 -2.98023e-08
v -1.3 0.1 -0.1
v -1.3 0.1 -0.2
v -1.4 0.1 -2.98023e-08
v -1.4 0.1 -0.1
v -1.5 0.1 0.1
v -1.5 0.1 -2.98023e-08
v -1.5 0.1 -0.1
v -1.5 0.1 -0.2
v -1.6 0.1 0.2
v -1.6 0.1 0.1
v -1.6 0.1 -2.98023e-08
v -1.6 0.1 -0.1
v -1.6 0.1 -0.2

# faces
f 6/7/1 2/7/1 1/7/1
f 7/6/1 3/6/1 2/6/1
f 7/7/1 2/7/1 6/7/1
f 8/5/1 4/5/1 3/5/1
f 8/6/1 3/6/1 7/6/1
f 9/7/1 5/7/1 4/7/1
f 9/5/1 4/5/1 8/5/1
f 10/7/1 5/7/1 9/7/1
f 21/6/1 12/6/1 11/6/1
f 22/7/1 13/7/1 12/7/1
f 22/6/1 12/6/1 21/6/1
f 23/7/1 13/7/1 22/7/1
f 24/5/1 15/5/1 14/5/1
f 25/7/1 16/7/1 15/7/1
f 25/5/1 15/5/1 24/5/1
f 26/7/1 16/7/1 25/7/1
f 27/7/1 18/7/1 17/7/1
f 28/5/1 19/5/1 18/5/1
f 28/7/1 18/7/1 27/7/1
f 29/6/1 20/6/1 19/6/1
f 29/5/1 19/5/1 28/5/1
f 30/6/1 20/6/1 29/6/1
f 35/7/1 32/7/1 31/7/1
f 36/6/1 33/6/1 32/6/1
f 36/7/1 32/7/1 35/7/1
f 37/7/1 34/7/1 33/7/1
f 37/6/1 33/6/1 36/6/1
f 38/7/1 34/7/1 37/7/1
f 39/6/2 40/6/2 42/6/2
f 40/7/2 41/7/2 43/7/2
f 42/6/2 40/6/2 43/6/2
f 43/7/2 41/7/2 44/7/2
f 45/7/2 46/7/2 57/7/2
f 46/6/2 47/6/2 58/6/2
f 57/7/2 46/7/2 58/7/2
f 47/7/2 48/7/2 59/7/2
f 58/6/2 47/6/2 59/6/2
f 59/7/2 48/7/2 60/7/2
f 49/7/2 50/7/2 61/7/2
f 50/6/2 51/6/2 62/6/2
f 61/7/2 50/7/2 62/7/2
f 51/5/2 52/5/2 63/5/2
f 62/6/2 51/6/2 63/6/2
f 63/5/2 52/5/2 64/5/2
f 53/7/2 54/7/2 65/7/2
f 54/6/2 55/6/2 66/6/2
f 65/7/2 54/7/2 66/7/2
f 55/7/2 56/7/2 67/7/2
f 66/6/2 55/6/2 67/6/2
f 67/7/2 56/7/2 68/7/2
f 69/7/2 70/7/2 74/7/2
f 70/6/2 71/6/2 75/6/2
f 74/7/2 70/7/2 75/7/2
f 71/5/2 72/5/2 76/5/2
f 75/6/2 71/6/2 76/6/2
f 72/7/2 73/7/2 77/7/2
f 76/5/2 72/5/2 77/5/2
f 77/7/2 73/7/2 78/7/2
f 81/6/3 80/6/3 79/6/3
f 82/6/3 80/6/3 81/6/3
f 83/1/3 82/1/3 81/1/3
f 84/1/3 82/1/3 83/1/3
f 85/3/3 84/3/3 83/3/3
f 86/3/3 84/3/3 85/3/3
f 87/7/3 86/7/3 85/7/3
f 88/7/3 86/7/3 87/7/3
f 91/7/3 90/7/3 89/7/3
f 92/7/3 90/7/3 91/7/3
f 95/7/3 94/7/3 93/7/3
f 96/7/3 94/7/3 95/7/3
f 99/7/3 98/7/3 97/7/3
f 100/7/3 98/7/3 99/7/3
f 103/7/3 102/7/3 101/7/3
f 104/7/3 102/7/3 103/7/3
f 105/7/4 106/7/4 107/7/4
f 107/7/4 106/7/4 108/7/4
f 109/7/4 110/7/4 111/7/4
f 111/7/4 110/7/4 112/7/4
f 113/7/4 114/7/4 115/7/4
f 115/7/4 114/7/4 116/7/4
f 117/7/4 118/7/4 119/7/4
f 119/7/4 118/7/4 120/7/4
f 121/6/4 122/6/4 123/6/4
f 123/6/4 122/6/4 124/6/4
f 123/1/4 124/1/4 125/1/4
f 125/1/4 124/1/4 126/1/4
f 125/3/4 126/3/4 127/3/4
f 127/3/4 126/3/4 128/3/4
f 127/7/4 128/7/4 129/7/4
f 129/7/4 128/7/4 130/7/4
f 136/6/5 132/6/5 131/6/5
f 137/1/5 133/1/5 132/1/5
f 137/6/5 132/6/5 136/6/5
f 138/7/5 135/7/5 134/7/5
f 138/3/5 134/3/5 133/3/5
f 139/7/5 135/7/5 138/7/5
f 140/1/5 133/1/5 137/1/5
f 140/3/5 138/3/5 133/3/5
f 141/6/5 139/6/5 138/6/5
f 141/3/5 138/3/5 140/3/5
f 143/7/5 137/7/5 136/7/5
f 144/1/5 140/1/5 137/1/5
f 144/1/5 141/1/5 140/1/5
f 144/7/5 137/7/5 143/7/5
f 145/1/5 141/1/5 144/1/5
f 146/6/5 139/6/5 141/6/5
f 146/1/5 141/1/5 145/1/5
f 147/6/5 139/6/5 146/6/5
f 148/7/5 143/7/5 142/7/5
f 148/4/5 144/4/5 143/4/5
f 149/2/5 145/2/5 144/2/5
f 149/4/5 144/4/5 148/4/5
f 150/1/5 146/1/5 145/1/5
f 150/2/5 145/2/5 149/2/5
f 151/7/5 147/7/5 146/7/5
f 151/1/5 146/1/5 150/1/5
f 152/7/5 148/7/5 142/7/5
f 153/3/5 149/3/5 148/3/5
f 153/7/5 148/7/5 152/7/5
f 154/2/5 150/2/5 149/2/5
f 154/4/5 151/4/5 150/4/5
f 155/7/5 147/7/5 151/7/5
f 155/4/5 151/4/5 154/4/5
f 156/7/5 147/7/5 155/7/5
f 157/3/5 149/3/5 153/3/5
f 157/6/5 153/6/5 152/6/5
f 158/2/5 154/2/5 149/2/5
f 158/3/5 149/3/5 157/3/5
f 159/6/5 155/6/5 154/6/5
f 159/2/5 154/2/5 158/2/5
f 160/6/5 157/6/5 152/6/5
f 160/1/5 158/1/5 157/1/5
f 160/1/5 159/1/5 158/1/5
f 161/1/5 159/1/5 160/1/5
f 162/6/5 160/6/5 152/6/5
f 163/3/5 161/3/5 160/3/5
f 163/6/5 160/6/5 162/6/5
f 164/1/5 159/1/5 161/1/5
f 164/3/5 161/3/5 163/3/5
f 165/6/5 155/6/5 159/6/5
f 165/1/5 159/1/5 164/1/5
f 166/6/5 155/6/5 165/6/5
f 167/2/5 165/2/5 164/2/5
f 167/7/5 166/7/5 165/7/5
f 168/7/5 166/7/5 167/7/5
f 170/5/5 163/5/5 162/5/5
f 171/1/5 164/1/5 163/1/5
f 171/5/5 163/5/5 170/5/5
f 172/2/5 167/2/5 164/2/5
f 172/1/5 164/1/5 171/1/5
f 173/4/5 168/4/5 167/4/5
f 173/2/5 167/2/5 172/2/5
f 174/7/5 169/7/5 168/7/5
f 174/4/5 168/4/5 173/4/5
f 175/7/5 171/7/5 170/7/5
f 176/4/5 172/4/5 171/4/5
f 176/7/5 171/7/5 175/7/5
f 177/1/5 173/1/5 172/1/5
f 177/4/5 172/4/5 176/4/5
f 177/1/5 174/1/5 173/1/5
f 178/1/5 174/1/5 177/1/5
f 179/7/5 169/7/5 174/7/5
f 179/1/5 174/1/5 178/1/5
f 180/7/5 169/7/5 179/7/5
f 181/3/5 178/3/5 177/3/5
f 181/5/5 177/5/5 176/5/5
f 182/1/5 179/1/5 178/1/5
f 182/3/5 178/3/5 181/3/5
f 183/1/5 182/1/5 181/1/5
f 183/1/5 179/1/5 182/1/5
f 184/6/5 180/6/5 179/6/5
f 184/1/5 179/1/5 183/1/5
f 185/6/5 180/6/5 184/6/5
f 186/5/5 181/5/5 176/5/5
f 187/1/5 183/1/5 181/1/5
f 187/5/5 181/5/5 186/5/5
f 188/2/5 184/2/5 183/2/5
f 188/5/5 185/5/5 184/5/5
f 189/5/5 185/5/5 188/5/5
f 191/7/5 187/7/5 186/7/5
f 191/1/5 183/1/5 187/1/5
f 192/2/5 188/2/5 183/2/5
f 192/1/5 183/1/5 191/1/5
f 193/4/5 189/4/5 188/4/5
f 193/2/5 188/2/5 192/2/5
f 194/7/5 190/7/5 189/7/5
f 194/4/5 189/4/5 193/4/5
f 195/7/5 191/7/5 186/7/5
f 196/4/5 192/4/5 191/4/5
f 196/7/5 191/7/5 195/7/5
f 197/1/5 193/1/5 192/1/5
f 197/4/5 192/4/5 196/4/5
f 197/1/5 194/1/5 193/1/5
f 198/7/5 190/7/5 194/7/5
f 198/1/5 194/1/5 197/1/5
f 199/7/5 190/7/5 198/7/5
f 200/1/5 198/1/5 197/1/5
f 201/6/5 199/6/5 198/6/5
f 201/1/5 198/1/5 200/1/5
f 202/7/5 197/7/5 196/7/5
f 203/1/5 200/1/5 197/1/5
f 203/7/5 197/7/5 202/7/5
f 204/2/5 201/2/5 200/2/5
f 204/1/5 200/1/5 203/1/5
f 205/6/5 203/6/5 202/6/5
f 205/3/5 204/3/5 203/3/5
f 206/2/5 201/2/5 204/2/5
f 206/3/5 204/3/5 205/3/5
f 207/6/5 199/6/5 201/6/5
f 207/2/5 201/2/5 206/2/5
f 208/6/5 199/6/5 207/6/5
f 209/1/5 206/1/5 205/1/5
f 209/2/5 207/2/5 206/2/5
f 210/5/5 208/5/5 207/5/5
f 210/2/5 207/2/5 209/2/5
f 211/6/5 205/6/5 202/6/5
f 212/1/5 209/1/5 205/1/5
f 212/6/5 205/6/5 211/6/5
f 212/1/5 210/1/5 209/1/5
f 213/5/5 208/5/5 210/5/5
f 213/1/5 210/1/5 212/1/5
f 214/7/5 212/7/5 211/7/5
f 214/3/5 213/3/5 212/3/5
f 215/3/5 213/3/5 214/3/5
f 216/7/5 214/7/5 211/7/5
f 216/1/5 215/1/5 214/1/5
f 217/3/5 213/3/5 215/3/5
f 217/1/5 215/1/5 216/1/5
f 218/5/5 208/5/5 213/5/5
f 218/3/5 213/3/5 217/3/5
f 219/5/5 208/5/5 218/5/5
f 221/7/5 216/7/5 211/7/5
f 222/2/5 217/2/5 216/2/5
f 222/7/5 216/7/5 221/7/5
f 223/1/5 218/1/5 217/1/5
f 223/2/5 217/2/5 222/2/5
f 224/7/5 221/7/5 220/7/5
f 224/4/5 222/4/5 221/4/5
f 225/1/5 223/1/5 222/1/5
f 225/4/5 222/4/5 224/4/5
f 226/1/5 218/1/5 223/1/5
f 226/1/5 223/1/5 225/1/5
f 227/7/5 219/7/5 218/7/5
f 227/1/5 218/1/5 226/1/5
f 228/7/5 224/7/5 220/7/5
f 229/1/5 225/1/5 224/1/5
f 229/7/5 224/7/5 228/7/5
f 229/1/5 226/1/5 225/1/5
f 230/4/5 227/4/5 226/4/5
f 230/1/5 226/1/5 229/1/5
f 231/7/5 219/7/5 227/7/5
f 231/4/5 227/4/5 230/4/5
f 232/7/5 219/7/5 231/7/5
f 233/1/5 230/1/5 229/1/5
f 233/5/5 229/5/5 228/5/5
f 234/1/5 230/1/5 233/1/5
f 235/5/5 233/5/5 228/5/5
f 236/3/5 234/3/5 233/3/5
f 236/5/5 233/5/5 235/5/5
f 237/1/5 230/1/5 234/1/5
f 237/3/5 234/3/5 236/3/5
f 238/7/5 231/7/5 230/7/5
f 238/1/5 230/1/5 237/1/5
f 239/7/5 231/7/5 238/7/5
f 240/3/5 237/3/5 236/3/5
f 240/3/5 238/3/5 237/3/5
f 241/6/5 239/6/5 238/6/5
f 241/3/5 238/3/5 240/3/5
f 242/6/5 236/6/5 235/6/5
f 242/3/5 240/3/5 236/3/5
f 243/1/5 241/1/5 240/1/5
f 243/3/5 240/3/5 242/3/5
f 244/6/5 239/6/5 241/6/5
f 244/1/5 241/1/5 243/1/5
f 245/6/5 239/6/5 244/6/5
f 246/6/5 242/6/5 235/6/5
f 247/1/5 243/1/5 242/1/5
f 247/6/5 242/6/5 246/6/5
f 248/3/5 244/3/5 243/3/5
f 248/1/5 243/1/5 247/1/5
f 249/7/5 245/7/5 244/7/5
f 249/3/5 244/3/5 248/3/5
f 250/7/5 245/7/5 249/7/5
f 251/6/6 252/6/6 256/6/6
f 252/1/6 253/1/6 257/1/6
f 256/6/6 252/6/6 257/6/6
f 254/7/6 255/7/6 258/7/6
f 253/3/6 254/3/6 258/3/6
f 258/7/6 255/7/6 259/7/6
f 257/1/6 253/1/6 260/1/6
f 253/3/6 258/3/6 260/3/6
f 258/6/6 259/6/6 261/6/6
f 260/3/6 258/3/6 261/3/6
f 256/7/6 257/7/6 263/7/6
f 257/1/6 260/1/6 264/1/6
f 260/1/6 261/1/6 264/1/6
f 263/7/6 257/7/6 264/7/6
f 264/1/6 261/1/6 265/1/6
f 261/6/6 259/6/6 266/6/6
f 265/1/6 261/1/6 266/1/6
f 266/6/6 259/6/6 267/6/6
f 262/7/6 263/7/6 268/7/6
f 263/4/6 264/4/6 268/4/6
f 264/2/6 265/2/6 269/2/6
f 268/4/6 264/4/6 269/4/6
f 265/1/6 266/1/6 270/1/6
f 269/2/6 265/2/6 270/2/6
f 266/7/6 267/7/6 271/7/6
f 270/1/6 266/1/6 271/1/6
f 262/7/6 268/7/6 272/7/6
f 268/3/6 269/3/6 273/3/6
f 272/7/6 268/7/6 273/7/6
f 269/2/6 270/2/6 274/2/6
f 270/4/6 271/4/6 274/4/6
f 271/7/6 267/7/6 275/7/6
f 274/4/6 271/4/6 275/4/6
f 275/7/6 267/7/6 276/7/6
f 273/3/6 269/3/6 277/3/6
f 272/6/6 273/6/6 277/6/6
f 269/2/6 274/2/6 278/2/6
f 277/3/6 269/3/6 278/3/6
f 274/6/6 275/6/6 279/6/6
f 278/2/6 274/2/6 279/2/6
f 272/6/6 277/6/6 280/6/6
f 277/1/6 278/1/6 280/1/6
f 278/1/6 279/1/6 280/1/6
f 280/1/6 279/1/6 281/1/6
f 272/6/6 280/6/6 282/6/6
f 280/3/6 281/3/6 283/3/6
f 282/6/6 280/6/6 283/6/6
f 281/1/6 279/1/6 284/1/6
f 283/3/6 281/3/6 284/3/6
f 279/6/6 275/6/6 285/6/6
f 284/1/6 279/1/6 285/1/6
f 285/6/6 275/6/6 286/6/6
f 284/2/6 285/2/6 287/2/6
f 285/7/6 286/7/6 287/7/6
f 287/7/6 286/7/6 288/7/6
f 282/5/6 283/5/6 290/5/6
f 283/1/6 284/1/6 291/1/6
f 290/5/6 283/5/6 291/5/6
f 284/2/6 287/2/6 292/2/6
f 291/1/6 284/1/6 292/1/6
f 287/4/6 288/4/6 293/4/6
f 292/2/6 287/2/6 293/2/6
f 288/7/6 289/7/6 294/7/6
f 293/4/6 288/4/6 294/4/6
f 290/7/6 291/7/6 295/7/6
f 291/4/6 292/4/6 296/4/6
f 295/7/6 291/7/6 296/7/6
f 292/1/6 293/1/6 297/1/6
f 296/4/6 292/4/6 297/4/6
f 293/1/6 294/1/6 297/1/6
f 297/1/6 294/1/6 298/1/6
f 294/7/6 289/7/6 299/7/6
f 298/1/6 294/1/6 299/1/6
f 299/7/6 289/7/6 300/7/6
f 297/3/6 298/3/6 301/3/6
f 296/5/6 297/5/6 301/5/6
f 298/1/6 299/1/6 302/1/6
f 301/3/6 298/3/6 302/3/6
f 301/1/6 302/1/6 303/1/6
f 302/1/6 299/1/6 303/1/6
f 299/6/6 300/6/6 304/6/6
f 303/1/6 299/1/6 304/1/6
f 304/6/6 300/6/6 305/6/6
f 296/5/6 301/5/6 306/5/6
f 301/1/6 303/1/6 307/1/6
f 306/5/6 301/5/6 307/5/6
f 303/2/6 304/2/6 308/2/6
f 304/5/6 305/5/6 308/5/6
f 308/5/6 305/5/6 309/5/6
f 306/7/6 307/7/6 311/7/6
f 307/1/6 303/1/6 311/1/6
f 303/2/6 308/2/6 312/2/6
f 311/1/6 303/1/6 312/1/6
f 308/4/6 309/4/6 313/4/6
f 312/2/6 308/2/6 313/2/6
f 309/7/6 310/7/6 314/7/6
f 313/4/6 309/4/6 314/4/6
f 306/7/6 311/7/6 315/7/6
f 311/4/6 312/4/6 316/4/6
f 315/7/6 311/7/6 316/7/6
f 312/1/6 313/1/6 317/1/6
f 316/4/6 312/4/6 317/4/6
f 313/1/6 314/1/6 317/1/6
f 314/7/6 310/7/6 318/7/6
f 317/1/6 314/1/6 318/1/6
f 318/7/6 310/7/6 319/7/6
f 317/1/6 318/1/6 320/1/6
f 318/6/6 319/6/6 321/6/6
f 320/1/6 318/1/6 321/1/6
f 316/7/6 317/7/6 322/7/6
f 317/1/6 320/1/6 323/1/6
f 322/7/6 317/7/6 323/7/6
f 320/2/6 321/2/6 324/2/6
f 323/1/6 320/1/6 324/1/6
f 322/6/6 323/6/6 325/6/6
f 323/3/6 324/3/6 325/3/6
f 324/2/6 321/2/6 326/2/6
f 325/3/6 324/3/6 326/3/6
f 321/6/6 319/6/6 327/6/6
f 326/2/6 321/2/6 327/2/6
f 327/6/6 319/6/6 328/6/6
f 325/1/6 326/1/6 329/1/6
f 326/2/6 327/2/6 329/2/6
f 327/5/6 328/5/6 330/5/6
f 329/2/6 327/2/6 330/2/6
f 322/6/6 325/6/6 331/6/6
f 325/1/6 329/1/6 332/1/6
f 331/6/6 325/6/6 332/6/6
f 329/1/6 330/1/6 332/1/6
f 330/5/6 328/5/6 333/5/6
f 332/1/6 330/1/6 333/1/6
f 331/7/6 332/7/6 334/7/6
f 332/3/6 333/3/6 334/3/6
f 334/3/6 333/3/6 335/3/6
f 331/7/6 334/7/6 336/7/6
f 334/1/6 335/1/6 336/1/6
f 335/3/6 333/3/6 337/3/6
f 336/1/6 335/1/6 337/1/6
f 333/5/6 328/5/6 338/5/6
f 337/3/6 333/3/6 338/3/6
f 338/5/6 328/5/6 339/5/6
f 331/7/6 336/7/6 341/7/6
f 336/2/6 337/2/6 342/2/6
f 341/7/6 336/7/6 342/7/6
f 337/1/6 338/1/6 343/1/6
f 342/2/6 337/2/6 343/2/6
f 340/7/6 341/7/6 344/7/6
f 341/4/6 342/4/6 344/4/6
f 342/1/6 343/1/6 345/1/6
f 344/4/6 342/4/6 345/4/6
f 343/1/6 338/1/6 346/1/6
f 345/1/6 343/1/6 346/1/6
f 338/7/6 339/7/6 347/7/6
f 346/1/6 338/1/6 347/1/6
f 340/7/6 344/7/6 348/7/6
f 344/1/6 345/1/6 349/1/6
f 348/7/6 344/7/6 349/7/6
f 345/1/6 346/1/6 349/1/6
f 346/4/6 347/4/6 350/4/6
f 349/1/6 346/1/6 350/1/6
f 347/7/6 339/7/6 351/7/6
f 350/4/6 347/4/6 351/4/6
f 351/7/6 339/7/6 352/7/6
f 349/1/6 350/1/6 353/1/6
f 348/5/6 349/5/6 353/5/6
f 353/1/6 350/1/6 354/1/6
f 348/5/6 353/5/6 355/5/6
f 353/3/6 354/3/6 356/3/6
f 355/5/6 353/5/6 356/5/6
f 354/1/6 350/1/6 357/1/6
f 356/3/6 354/3/6 357/3/6
f 350/7/6 351/7/6 358/7/6
f 357/1/6 350/1/6 358/1/6
f 358/7/6 351/7/6 359/7/6
f 356/3/6 357/3/6 360/3/6
f 357/3/6 358/3/6 360/3/6
f 358/6/6 359/6/6 361/6/6
f 360/3/6 358/3/6 361/3/6
f 355/6/6 356/6/6 362/6/6
f 356/3/6 360/3/6 362/3/6
f 360/1/6 361/1/6 363/1/6
f 362/3/6 360/3/6 363/3/6
f 361/6/6 359/6/6 364/6/6
f 363/1/6 361/1/6 364/1/6
f 364/6/6 359/6/6 365/6/6
f 355/6/6 362/6/6 366/6/6
f 362/1/6 363/1/6 367/1/6
f 366/6/6 362/6/6 367/6/6
f 363/3/6 364/3/6 368/3/6
f 367/1/6 363/1/6 368/1/6
f 364/7/6 365/7/6 369/7/6
f 368/3/6 364/3/6 369/3/6
f 369/7/6 365/7/6 370/7/6
