# MagicaVoxel @ Ephtracy

# group
o 

# material
mtllib path-3-way-crossing-2.mtl
usemtl palette

# normals
vn -1 0 0
vn 1 0 0
vn 0 0 1
vn 0 0 -1
vn 0 -1 0
vn 0 1 0

# texcoords
vt 0.908203 0.5
vt 0.912109 0.5
vt 0.916016 0.5
vt 0.919922 0.5
vt 0.923828 0.5
vt 0.927734 0.5
vt 0.931641 0.5
vt 0.935547 0.5

# verts
v -1.6 0 0.2
v -1.6 0 0.1
v -1.6 0 -0.1
v -1.6 0 -0.2
v -1.6 0.1 0.2
v -1.6 0.1 0.1
v -1.6 0.1 -0.1
v -1.6 0.1 -0.2
v -1.3 0 -0.2
v -1.3 0 -0.3
v -1.3 0.1 -0.2
v -1.3 0.1 -0.3
v -0.5 0 0.2
v -0.5 0 0.1
v -0.5 0.1 0.2
v -0.5 0.1 0.1
v -0.3 0 1.1
v -0.3 0 0.9
v -0.3 0 0.6
v -0.3 0 0.3
v -0.3 0 0.2
v -0.3 0.1 1.1
v -0.3 0.1 0.9
v -0.3 0.1 0.6
v -0.3 0.1 0.3
v -0.3 0.1 0.2
v -0.2 0 1.6
v -0.2 0 1.3
v -0.2 0 1.1
v -0.2 0.1 1.6
v -0.2 0.1 1.3
v -0.2 0.1 1.1
v 0.4 0 -0.2
v 0.4 0 -0.3
v 0.4 0.1 -0.2
v 0.4 0.1 -0.3
v 1.1 0 0.2
v 1.1 0 0.1
v 1.1 0.1 0.2
v 1.1 0.1 0.1
v -1.1 0 0.2
v -1.1 0 0.1
v -1.1 0.1 0.2
v -1.1 0.1 0.1
v -0.3 0 -0.2
v -0.3 0 -0.3
v -0.3 0.1 -0.2
v -0.3 0.1 -0.3
v 0.1 0 1
v 0.1 0 0.8
v 0.1 0 0.5
v 0.1 0 0.2
v 0.1 0.1 1
v 0.1 0.1 0.8
v 0.1 0.1 0.5
v 0.1 0.1 0.2
v 0.2 0 1.6
v 0.2 0 1.3
v 0.2 0 1
v 0.2 0.1 1.6
v 0.2 0.1 1.3
v 0.2 0.1 1
v 0.6 0 0.2
v 0.6 0 0.1
v 0.6 0.1 0.2
v 0.6 0.1 0.1
v 1.3 0 -0.2
v 1.3 0 -0.3
v 1.3 0.1 -0.2
v 1.3 0.1 -0.3
v 1.6 0 0.2
v 1.6 0 0.1
v 1.6 0 0
v 1.6 0 -0.1
v 1.6 0 -0.2
v 1.6 0.1 0.2
v 1.6 0.1 0.1
v 1.6 0.1 0
v 1.6 0.1 -0.1
v 1.6 0.1 -0.2
v -0.2 0 1.6
v -0.2 0.1 1.6
v -0.1 0 1.6
v -0.1 0.1 1.6
v 0 0 1.6
v 0 0.1 1.6
v 0.1 0 1.6
v 0.1 0.1 1.6
v 0.2 0 1.6
v 0.2 0.1 1.6
v -0.3 0 1.1
v -0.3 0.1 1.1
v -0.2 0 1.1
v -0.2 0.1 1.1
v -1.6 0 0.2
v -1.6 0.1 0.2
v -1.5 0 0.2
v -1.5 0.1 0.2
v -1.1 0 0.2
v -1.1 0.1 0.2
v -0.5 0 0.2
v -0.5 0.1 0.2
v -0.4 0 0.2
v -0.4 0.1 0.2
v -0.3 0 0.2
v -0.3 0.1 0.2
v 0.1 0 0.2
v 0.1 0.1 0.2
v 0.3 0 0.2
v 0.3 0.1 0.2
v 0.5 0 0.2
v 0.5 0.1 0.2
v 0.6 0 0.2
v 0.6 0.1 0.2
v 1.1 0 0.2
v 1.1 0.1 0.2
v 1.2 0 0.2
v 1.2 0.1 0.2
v 1.5 0 0.2
v 1.5 0.1 0.2
v 1.6 0 0.2
v 1.6 0.1 0.2
v -1.1 0 0.1
v -1.1 0.1 0.1
v -0.5 0 0.1
v -0.5 0.1 0.1
v 0.6 0 0.1
v 0.6 0.1 0.1
v 1.1 0 0.1
v 1.1 0.1 0.1
v 0.1 0 1
v 0.1 0.1 1
v 0.2 0 1
v 0.2 0.1 1
v -1.6 0 -0.2
v -1.6 0.1 -0.2
v -1.3 0 -0.2
v -1.3 0.1 -0.2
v -0.3 0 -0.2
v -0.3 0.1 -0.2
v 0.4 0 -0.2
v 0.4 0.1 -0.2
v 1.3 0 -0.2
v 1.3 0.1 -0.2
v 1.6 0 -0.2
v 1.6 0.1 -0.2
v -1.3 0 -0.3
v -1.3 0.1 -0.3
v -1.1 0 -0.3
v -1.1 0.1 -0.3
v -0.9 0 -0.3
v -0.9 0.1 -0.3
v -0.8 0 -0.3
v -0.8 0.1 -0.3
v -0.6 0 -0.3
v -0.6 0.1 -0.3
v -0.5 0 -0.3
v -0.5 0.1 -0.3
v -0.4 0 -0.3
v -0.4 0.1 -0.3
v -0.3 0 -0.3
v -0.3 0.1 -0.3
v 0.4 0 -0.3
v 0.4 0.1 -0.3
v 0.5 0 -0.3
v 0.5 0.1 -0.3
v 0.8 0 -0.3
v 0.8 0.1 -0.3
v 0.9 0 -0.3
v 0.9 0.1 -0.3
v 1.2 0 -0.3
v 1.2 0.1 -0.3
v 1.3 0 -0.3
v 1.3 0.1 -0.3
v -0.2 0 1.6
v -0.1 0 1.6
v 0 0 1.6
v 0.1 0 1.6
v 0.2 0 1.6
v -0.1 0 1.4
v 0 0 1.4
v -0.2 0 1.3
v -0.1 0 1.3
v 0 0 1.3
v 0.1 0 1.3
v 0.2 0 1.3
v -0.1 0 1.2
v 0 0 1.2
v -0.3 0 1.1
v -0.2 0 1.1
v -0.1 0 1.1
v 0 0 1.1
v 0.1 0 1.1
v -0.2 0 1
v -0.1 0 1
v 0 0 1
v 0.1 0 1
v 0.2 0 1
v -0.3 0 0.9
v -0.2 0 0.9
v -0.1 0 0.9
v 0 0 0.9
v 0 0 0.8
v 0.1 0 0.8
v -0.1 0 0.7
v 0 0 0.7
v -0.3 0 0.6
v -0.2 0 0.6
v -0.1 0 0.6
v 0 0 0.6
v 0 0 0.5
v 0.1 0 0.5
v -0.2 0 0.4
v -0.1 0 0.4
v 0 0 0.4
v -0.3 0 0.3
v -0.2 0 0.3
v -0.1 0 0.3
v 0 0 0.3
v -1.6 0 0.2
v -1.5 0 0.2
v -1.1 0 0.2
v -0.5 0 0.2
v -0.4 0 0.2
v -0.3 0 0.2
v -0.2 0 0.2
v -0.1 0 0.2
v 0 0 0.2
v 0.1 0 0.2
v 0.3 0 0.2
v 0.5 0 0.2
v 0.6 0 0.2
v 1.1 0 0.2
v 1.2 0 0.2
v 1.5 0 0.2
v 1.6 0 0.2
v -1.6 0 0.1
v -1.5 0 0.1
v -1.4 0 0.1
v -1.2 0 0.1
v -1.1 0 0.1
v -0.5 0 0.1
v -0.4 0 0.1
v -0.3 0 0.1
v -0.2 0 0.1
v 0 0 0.1
v 0.1 0 0.1
v 0.2 0 0.1
v 0.3 0 0.1
v 0.5 0 0.1
v 0.6 0 0.1
v 1.1 0 0.1
v 1.2 0 0.1
v 1.3 0 0.1
v 1.4 0 0.1
v 1.5 0 0.1
v 1.6 0 0.1
v -1.5 0 0
v -1.4 0 0
v -1.3 0 0
v -1.2 0 0
v -1.1 0 0
v -1 0 0
v -0.8 0 0
v -0.6 0 0
v -0.5 0 0
v -0.4 0 0
v -0.2 0 0
v 0 0 0
v 0.1 0 0
v 0.5 0 0
v 0.6 0 0
v 0.8 0 0
v 1 0 0
v 1.1 0 0
v 1.2 0 0
v 1.3 0 0
v 1.4 0 0
v 1.5 0 0
v 1.6 0 0
v -1.6 0 -0.1
v -1.5 0 -0.1
v -1.3 0 -0.1
v -1.2 0 -0.1
v -1.1 0 -0.1
v -1 0 -0.1
v -0.9 0 -0.1
v -0.8 0 -0.1
v -0.6 0 -0.1
v -0.5 0 -0.1
v -0.4 0 -0.1
v -0.3 0 -0.1
v -0.2 0 -0.1
v 0 0 -0.1
v 0.1 0 -0.1
v 0.2 0 -0.1
v 0.3 0 -0.1
v 0.4 0 -0.1
v 0.5 0 -0.1
v 0.6 0 -0.1
v 0.8 0 -0.1
v 0.9 0 -0.1
v 1 0 -0.1
v 1.1 0 -0.1
v 1.2 0 -0.1
v 1.3 0 -0.1
v 1.4 0 -0.1
v 1.5 0 -0.1
v 1.6 0 -0.1
v -1.6 0 -0.2
v -1.3 0 -0.2
v -1.2 0 -0.2
v -1.1 0 -0.2
v -0.9 0 -0.2
v -0.8 0 -0.2
v -0.6 0 -0.2
v -0.5 0 -0.2
v -0.4 0 -0.2
v -0.3 0 -0.2
v 0.4 0 -0.2
v 0.5 0 -0.2
v 0.6 0 -0.2
v 0.8 0 -0.2
v 0.9 0 -0.2
v 1.1 0 -0.2
v 1.2 0 -0.2
v 1.3 0 -0.2
v 1.6 0 -0.2
v -1.3 0 -0.3
v -1.1 0 -0.3
v -0.9 0 -0.3
v -0.8 0 -0.3
v -0.6 0 -0.3
v -0.5 0 -0.3
v -0.4 0 -0.3
v -0.3 0 -0.3
v 0.4 0 -0.3
v 0.5 0 -0.3
v 0.8 0 -0.3
v 0.9 0 -0.3
v 1.2 0 -0.3
v 1.3 0 -0.3
v -0.2 0.1 1.6
v -0.1 0.1 1.6
v 0 0.1 1.6
v 0.1 0.1 1.6
v 0.2 0.1 1.6
v -0.1 0.1 1.4
v 0 0.1 1.4
v -0.2 0.1 1.3
v -0.1 0.1 1.3
v 0 0.1 1.3
v 0.1 0.1 1.3
v 0.2 0.1 1.3
v -0.1 0.1 1.2
v 0 0.1 1.2
v -0.3 0.1 1.1
v -0.2 0.1 1.1
v -0.1 0.1 1.1
v 0 0.1 1.1
v 0.1 0.1 1.1
v -0.2 0.1 1
v -0.1 0.1 1
v 0 0.1 1
v 0.1 0.1 1
v 0.2 0.1 1
v -0.3 0.1 0.9
v -0.2 0.1 0.9
v -0.1 0.1 0.9
v 0 0.1 0.9
v 0 0.1 0.8
v 0.1 0.1 0.8
v -0.1 0.1 0.7
v 0 0.1 0.7
v -0.3 0.1 0.6
v -0.2 0.1 0.6
v -0.1 0.1 0.6
v 0 0.1 0.6
v 0 0.1 0.5
v 0.1 0.1 0.5
v -0.2 0.1 0.4
v -0.1 0.1 0.4
v 0 0.1 0.4
v -0.3 0.1 0.3
v -0.2 0.1 0.3
v -0.1 0.1 0.3
v 0 0.1 0.3
v -1.6 0.1 0.2
v -1.5 0.1 0.2
v -1.1 0.1 0.2
v -0.5 0.1 0.2
v -0.4 0.1 0.2
v -0.3 0.1 0.2
v -0.2 0.1 0.2
v -0.1 0.1 0.2
v 0 0.1 0.2
v 0.1 0.1 0.2
v 0.3 0.1 0.2
v 0.5 0.1 0.2
v 0.6 0.1 0.2
v 1.1 0.1 0.2
v 1.2 0.1 0.2
v 1.5 0.1 0.2
v 1.6 0.1 0.2
v -1.6 0.1 0.1
v -1.5 0.1 0.1
v -1.4 0.1 0.1
v -1.2 0.1 0.1
v -1.1 0.1 0.1
v -0.5 0.1 0.1
v -0.4 0.1 0.1
v -0.3 0.1 0.1
v -0.2 0.1 0.1
v 0 0.1 0.1
v 0.1 0.1 0.1
v 0.2 0.1 0.1
v 0.3 0.1 0.1
v 0.5 0.1 0.1
v 0.6 0.1 0.1
v 1.1 0.1 0.1
v 1.2 0.1 0.1
v 1.3 0.1 0.1
v 1.4 0.1 0.1
v 1.5 0.1 0.1
v 1.6 0.1 0.1
v -1.5 0.1 0
v -1.4 0.1 0
v -1.3 0.1 0
v -1.2 0.1 0
v -1.1 0.1 0
v -1 0.1 0
v -0.8 0.1 0
v -0.6 0.1 0
v -0.5 0.1 0
v -0.4 0.1 0
v -0.2 0.1 0
v 0 0.1 0
v 0.1 0.1 0
v 0.5 0.1 0
v 0.6 0.1 0
v 0.8 0.1 0
v 1 0.1 0
v 1.1 0.1 0
v 1.2 0.1 0
v 1.3 0.1 0
v 1.4 0.1 0
v 1.5 0.1 0
v 1.6 0.1 0
v -1.6 0.1 -0.1
v -1.5 0.1 -0.1
v -1.3 0.1 -0.1
v -1.2 0.1 -0.1
v -1.1 0.1 -0.1
v -1 0.1 -0.1
v -0.9 0.1 -0.1
v -0.8 0.1 -0.1
v -0.6 0.1 -0.1
v -0.5 0.1 -0.1
v -0.4 0.1 -0.1
v -0.3 0.1 -0.1
v -0.2 0.1 -0.1
v 0 0.1 -0.1
v 0.1 0.1 -0.1
v 0.2 0.1 -0.1
v 0.3 0.1 -0.1
v 0.4 0.1 -0.1
v 0.5 0.1 -0.1
v 0.6 0.1 -0.1
v 0.8 0.1 -0.1
v 0.9 0.1 -0.1
v 1 0.1 -0.1
v 1.1 0.1 -0.1
v 1.2 0.1 -0.1
v 1.3 0.1 -0.1
v 1.4 0.1 -0.1
v 1.5 0.1 -0.1
v 1.6 0.1 -0.1
v -1.6 0.1 -0.2
v -1.3 0.1 -0.2
v -1.2 0.1 -0.2
v -1.1 0.1 -0.2
v -0.9 0.1 -0.2
v -0.8 0.1 -0.2
v -0.6 0.1 -0.2
v -0.5 0.1 -0.2
v -0.4 0.1 -0.2
v -0.3 0.1 -0.2
v 0.4 0.1 -0.2
v 0.5 0.1 -0.2
v 0.6 0.1 -0.2
v 0.8 0.1 -0.2
v 0.9 0.1 -0.2
v 1.1 0.1 -0.2
v 1.2 0.1 -0.2
v 1.3 0.1 -0.2
v 1.6 0.1 -0.2
v -1.3 0.1 -0.3
v -1.1 0.1 -0.3
v -0.9 0.1 -0.3
v -0.8 0.1 -0.3
v -0.6 0.1 -0.3
v -0.5 0.1 -0.3
v -0.4 0.1 -0.3
v -0.3 0.1 -0.3
v 0.4 0.1 -0.3
v 0.5 0.1 -0.3
v 0.8 0.1 -0.3
v 0.9 0.1 -0.3
v 1.2 0.1 -0.3
v 1.3 0.1 -0.3

# faces
f 5/8/1 2/8/1 1/8/1
f 6/1/1 3/1/1 2/1/1
f 6/8/1 2/8/1 5/8/1
f 7/6/1 4/6/1 3/6/1
f 7/1/1 3/1/1 6/1/1
f 8/6/1 4/6/1 7/6/1
f 11/8/1 10/8/1 9/8/1
f 12/8/1 10/8/1 11/8/1
f 15/8/1 14/8/1 13/8/1
f 16/8/1 14/8/1 15/8/1
f 22/6/1 18/6/1 17/6/1
f 23/8/1 19/8/1 18/8/1
f 23/6/1 18/6/1 22/6/1
f 24/7/1 20/7/1 19/7/1
f 24/8/1 19/8/1 23/8/1
f 25/8/1 21/8/1 20/8/1
f 25/7/1 20/7/1 24/7/1
f 26/8/1 21/8/1 25/8/1
f 30/7/1 28/7/1 27/7/1
f 31/8/1 29/8/1 28/8/1
f 31/7/1 28/7/1 30/7/1
f 32/8/1 29/8/1 31/8/1
f 35/8/1 34/8/1 33/8/1
f 36/8/1 34/8/1 35/8/1
f 39/8/1 38/8/1 37/8/1
f 40/8/1 38/8/1 39/8/1
f 41/7/2 42/7/2 43/7/2
f 43/7/2 42/7/2 44/7/2
f 45/8/2 46/8/2 47/8/2
f 47/8/2 46/8/2 48/8/2
f 49/8/2 50/8/2 53/8/2
f 50/7/2 51/7/2 54/7/2
f 53/8/2 50/8/2 54/8/2
f 51/8/2 52/8/2 55/8/2
f 54/7/2 51/7/2 55/7/2
f 55/8/2 52/8/2 56/8/2
f 57/8/2 58/8/2 60/8/2
f 58/7/2 59/7/2 61/7/2
f 60/8/2 58/8/2 61/8/2
f 61/7/2 59/7/2 62/7/2
f 63/7/2 64/7/2 65/7/2
f 65/7/2 64/7/2 66/7/2
f 67/8/2 68/8/2 69/8/2
f 69/8/2 68/8/2 70/8/2
f 71/8/2 72/8/2 76/8/2
f 72/3/2 73/3/2 77/3/2
f 76/8/2 72/8/2 77/8/2
f 73/1/2 74/1/2 78/1/2
f 77/3/2 73/3/2 78/3/2
f 74/6/2 75/6/2 79/6/2
f 78/1/2 74/1/2 79/1/2
f 79/6/2 75/6/2 80/6/2
f 83/7/3 82/7/3 81/7/3
f 84/7/3 82/7/3 83/7/3
f 85/1/3 84/1/3 83/1/3
f 86/1/3 84/1/3 85/1/3
f 87/3/3 86/3/3 85/3/3
f 88/3/3 86/3/3 87/3/3
f 89/8/3 88/8/3 87/8/3
f 90/8/3 88/8/3 89/8/3
f 93/6/3 92/6/3 91/6/3
f 94/6/3 92/6/3 93/6/3
f 97/8/3 96/8/3 95/8/3
f 98/8/3 96/8/3 97/8/3
f 99/7/3 98/7/3 97/7/3
f 100/7/3 98/7/3 99/7/3
f 103/8/3 102/8/3 101/8/3
f 104/8/3 102/8/3 103/8/3
f 105/7/3 104/7/3 103/7/3
f 106/7/3 104/7/3 105/7/3
f 109/7/3 108/7/3 107/7/3
f 110/7/3 108/7/3 109/7/3
f 111/8/3 110/8/3 109/8/3
f 112/8/3 110/8/3 111/8/3
f 113/7/3 112/7/3 111/7/3
f 114/7/3 112/7/3 113/7/3
f 117/8/3 116/8/3 115/8/3
f 118/8/3 116/8/3 117/8/3
f 119/7/3 118/7/3 117/7/3
f 120/7/3 118/7/3 119/7/3
f 121/8/3 120/8/3 119/8/3
f 122/8/3 120/8/3 121/8/3
f 125/6/3 124/6/3 123/6/3
f 126/6/3 124/6/3 125/6/3
f 129/6/3 128/6/3 127/6/3
f 130/6/3 128/6/3 129/6/3
f 131/7/4 132/7/4 133/7/4
f 133/7/4 132/7/4 134/7/4
f 135/6/4 136/6/4 137/6/4
f 137/6/4 136/6/4 138/6/4
f 139/6/4 140/6/4 141/6/4
f 141/6/4 140/6/4 142/6/4
f 143/6/4 144/6/4 145/6/4
f 145/6/4 144/6/4 146/6/4
f 147/8/4 148/8/4 149/8/4
f 149/8/4 148/8/4 150/8/4
f 149/7/4 150/7/4 151/7/4
f 151/7/4 150/7/4 152/7/4
f 151/8/4 152/8/4 153/8/4
f 153/8/4 152/8/4 154/8/4
f 153/7/4 154/7/4 155/7/4
f 155/7/4 154/7/4 156/7/4
f 155/8/4 156/8/4 157/8/4
f 157/8/4 156/8/4 158/8/4
f 157/7/4 158/7/4 159/7/4
f 159/7/4 158/7/4 160/7/4
f 159/8/4 160/8/4 161/8/4
f 161/8/4 160/8/4 162/8/4
f 163/8/4 164/8/4 165/8/4
f 165/8/4 164/8/4 166/8/4
f 165/7/4 166/7/4 167/7/4
f 167/7/4 166/7/4 168/7/4
f 167/8/4 168/8/4 169/8/4
f 169/8/4 168/8/4 170/8/4
f 169/7/4 170/7/4 171/7/4
f 171/7/4 170/7/4 172/7/4
f 171/8/4 172/8/4 173/8/4
f 173/8/4 172/8/4 174/8/4
f 180/7/5 176/7/5 175/7/5
f 180/1/5 177/1/5 176/1/5
f 181/3/5 178/3/5 177/3/5
f 181/1/5 177/1/5 180/1/5
f 182/7/5 180/7/5 175/7/5
f 183/2/5 181/2/5 180/2/5
f 183/7/5 180/7/5 182/7/5
f 184/3/5 178/3/5 181/3/5
f 184/2/5 181/2/5 183/2/5
f 185/8/5 179/8/5 178/8/5
f 185/3/5 178/3/5 184/3/5
f 186/8/5 179/8/5 185/8/5
f 187/2/5 184/2/5 183/2/5
f 187/8/5 183/8/5 182/8/5
f 188/1/5 185/1/5 184/1/5
f 188/2/5 184/2/5 187/2/5
f 190/8/5 187/8/5 182/8/5
f 191/1/5 188/1/5 187/1/5
f 191/8/5 187/8/5 190/8/5
f 192/1/5 185/1/5 188/1/5
f 192/1/5 188/1/5 191/1/5
f 193/7/5 186/7/5 185/7/5
f 193/1/5 185/1/5 192/1/5
f 194/5/5 191/5/5 190/5/5
f 194/6/5 190/6/5 189/6/5
f 195/1/5 192/1/5 191/1/5
f 195/5/5 191/5/5 194/5/5
f 196/5/5 193/5/5 192/5/5
f 196/1/5 192/1/5 195/1/5
f 197/7/5 186/7/5 193/7/5
f 197/5/5 193/5/5 196/5/5
f 198/7/5 186/7/5 197/7/5
f 199/6/5 194/6/5 189/6/5
f 200/1/5 196/1/5 195/1/5
f 200/6/5 194/6/5 199/6/5
f 200/1/5 195/1/5 194/1/5
f 201/1/5 196/1/5 200/1/5
f 202/8/5 197/8/5 196/8/5
f 202/1/5 196/1/5 201/1/5
f 203/2/5 202/2/5 201/2/5
f 203/8/5 197/8/5 202/8/5
f 204/8/5 197/8/5 203/8/5
f 205/1/5 201/1/5 200/1/5
f 205/2/5 203/2/5 201/2/5
f 206/7/5 204/7/5 203/7/5
f 206/2/5 203/2/5 205/2/5
f 207/8/5 200/8/5 199/8/5
f 208/1/5 205/1/5 200/1/5
f 208/8/5 200/8/5 207/8/5
f 208/1/5 206/1/5 205/1/5
f 209/1/5 206/1/5 208/1/5
f 210/7/5 204/7/5 206/7/5
f 210/1/5 206/1/5 209/1/5
f 211/3/5 210/3/5 209/3/5
f 211/7/5 204/7/5 210/7/5
f 212/7/5 204/7/5 211/7/5
f 213/1/5 209/1/5 208/1/5
f 213/7/5 208/7/5 207/7/5
f 214/3/5 211/3/5 209/3/5
f 214/1/5 209/1/5 213/1/5
f 215/8/5 212/8/5 211/8/5
f 215/3/5 211/3/5 214/3/5
f 216/7/5 213/7/5 207/7/5
f 217/3/5 214/3/5 213/3/5
f 217/7/5 213/7/5 216/7/5
f 218/1/5 215/1/5 214/1/5
f 218/3/5 214/3/5 217/3/5
f 219/8/5 212/8/5 215/8/5
f 219/1/5 215/1/5 218/1/5
f 225/8/5 217/8/5 216/8/5
f 226/1/5 218/1/5 217/1/5
f 226/8/5 217/8/5 225/8/5
f 227/3/5 219/3/5 218/3/5
f 227/1/5 218/1/5 226/1/5
f 228/8/5 212/8/5 219/8/5
f 228/3/5 219/3/5 227/3/5
f 229/8/5 212/8/5 228/8/5
f 237/8/5 221/8/5 220/8/5
f 238/7/5 222/7/5 221/7/5
f 238/8/5 221/8/5 237/8/5
f 239/7/5 222/7/5 238/7/5
f 240/7/5 222/7/5 239/7/5
f 241/7/5 222/7/5 240/7/5
f 242/8/5 224/8/5 223/8/5
f 243/7/5 225/7/5 224/7/5
f 243/8/5 224/8/5 242/8/5
f 244/5/5 226/5/5 225/5/5
f 244/7/5 225/7/5 243/7/5
f 245/3/5 228/3/5 227/3/5
f 245/5/5 226/5/5 244/5/5
f 245/3/5 227/3/5 226/3/5
f 246/5/5 229/5/5 228/5/5
f 246/3/5 228/3/5 245/3/5
f 247/7/5 230/7/5 229/7/5
f 247/5/5 229/5/5 246/5/5
f 248/7/5 230/7/5 247/7/5
f 249/8/5 231/8/5 230/8/5
f 249/7/5 230/7/5 248/7/5
f 250/7/5 232/7/5 231/7/5
f 250/8/5 231/8/5 249/8/5
f 251/7/5 232/7/5 250/7/5
f 252/8/5 234/8/5 233/8/5
f 253/7/5 235/7/5 234/7/5
f 253/8/5 234/8/5 252/8/5
f 254/7/5 235/7/5 253/7/5
f 255/7/5 235/7/5 254/7/5
f 256/8/5 236/8/5 235/8/5
f 256/7/5 235/7/5 255/7/5
f 257/8/5 236/8/5 256/8/5
f 258/1/5 238/1/5 237/1/5
f 258/2/5 239/2/5 238/2/5
f 259/1/5 240/1/5 239/1/5
f 259/2/5 239/2/5 258/2/5
f 260/1/5 240/1/5 259/1/5
f 261/5/5 241/5/5 240/5/5
f 261/1/5 240/1/5 260/1/5
f 262/6/5 242/6/5 241/6/5
f 262/5/5 241/5/5 261/5/5
f 263/6/5 242/6/5 262/6/5
f 264/6/5 242/6/5 263/6/5
f 265/6/5 242/6/5 264/6/5
f 266/5/5 243/5/5 242/5/5
f 266/6/5 242/6/5 265/6/5
f 267/1/5 244/1/5 243/1/5
f 267/5/5 243/5/5 266/5/5
f 268/2/5 245/2/5 244/2/5
f 268/3/5 246/3/5 245/3/5
f 268/3/5 247/3/5 246/3/5
f 269/3/5 247/3/5 268/3/5
f 270/1/5 248/1/5 247/1/5
f 270/3/5 247/3/5 269/3/5
f 271/5/5 251/5/5 250/5/5
f 271/1/5 250/1/5 249/1/5
f 272/6/5 252/6/5 251/6/5
f 272/5/5 251/5/5 271/5/5
f 273/6/5 252/6/5 272/6/5
f 274/6/5 252/6/5 273/6/5
f 275/5/5 253/5/5 252/5/5
f 275/6/5 252/6/5 274/6/5
f 276/1/5 254/1/5 253/1/5
f 276/5/5 253/5/5 275/5/5
f 277/2/5 255/2/5 254/2/5
f 277/1/5 254/1/5 276/1/5
f 278/1/5 256/1/5 255/1/5
f 278/2/5 255/2/5 277/2/5
f 279/3/5 257/3/5 256/3/5
f 279/1/5 256/1/5 278/1/5
f 280/3/5 257/3/5 279/3/5
f 281/1/5 258/1/5 237/1/5
f 282/4/5 260/4/5 259/4/5
f 282/1/5 258/1/5 281/1/5
f 282/4/5 259/4/5 258/4/5
f 283/1/5 261/1/5 260/1/5
f 283/4/5 260/4/5 282/4/5
f 284/2/5 262/2/5 261/2/5
f 284/1/5 261/1/5 283/1/5
f 285/3/5 263/3/5 262/3/5
f 285/2/5 262/2/5 284/2/5
f 286/1/5 264/1/5 263/1/5
f 286/3/5 263/3/5 285/3/5
f 287/1/5 264/1/5 286/1/5
f 288/3/5 265/3/5 264/3/5
f 288/1/5 264/1/5 287/1/5
f 289/1/5 266/1/5 265/1/5
f 289/3/5 265/3/5 288/3/5
f 289/1/5 267/1/5 266/1/5
f 290/1/5 267/1/5 289/1/5
f 291/1/5 244/1/5 267/1/5
f 291/1/5 267/1/5 290/1/5
f 292/2/5 268/2/5 244/2/5
f 292/1/5 244/1/5 291/1/5
f 293/1/5 269/1/5 268/1/5
f 293/2/5 268/2/5 292/2/5
f 294/4/5 270/4/5 269/4/5
f 294/1/5 269/1/5 293/1/5
f 295/1/5 248/1/5 270/1/5
f 295/4/5 270/4/5 294/4/5
f 296/2/5 249/2/5 248/2/5
f 296/1/5 248/1/5 295/1/5
f 297/1/5 271/1/5 249/1/5
f 297/2/5 249/2/5 296/2/5
f 297/1/5 272/1/5 271/1/5
f 297/1/5 273/1/5 272/1/5
f 298/1/5 273/1/5 297/1/5
f 299/1/5 273/1/5 298/1/5
f 300/1/5 273/1/5 299/1/5
f 301/4/5 274/4/5 273/4/5
f 301/1/5 273/1/5 300/1/5
f 302/4/5 274/4/5 301/4/5
f 303/2/5 275/2/5 274/2/5
f 303/4/5 274/4/5 302/4/5
f 304/1/5 276/1/5 275/1/5
f 304/2/5 275/2/5 303/2/5
f 304/1/5 277/1/5 276/1/5
f 305/1/5 277/1/5 304/1/5
f 306/4/5 278/4/5 277/4/5
f 306/1/5 277/1/5 305/1/5
f 307/2/5 279/2/5 278/2/5
f 307/4/5 278/4/5 306/4/5
f 308/1/5 280/1/5 279/1/5
f 308/2/5 279/2/5 307/2/5
f 309/1/5 280/1/5 308/1/5
f 310/6/5 282/6/5 281/6/5
f 310/6/5 283/6/5 282/6/5
f 311/5/5 284/5/5 283/5/5
f 311/6/5 283/6/5 310/6/5
f 312/1/5 287/1/5 286/1/5
f 312/5/5 284/5/5 311/5/5
f 312/1/5 286/1/5 285/1/5
f 312/1/5 285/1/5 284/1/5
f 313/1/5 287/1/5 312/1/5
f 314/2/5 288/2/5 287/2/5
f 314/1/5 287/1/5 313/1/5
f 315/1/5 289/1/5 288/1/5
f 315/2/5 288/2/5 314/2/5
f 316/2/5 290/2/5 289/2/5
f 316/1/5 289/1/5 315/1/5
f 317/1/5 291/1/5 290/1/5
f 317/2/5 290/2/5 316/2/5
f 318/5/5 292/5/5 291/5/5
f 318/1/5 291/1/5 317/1/5
f 319/6/5 295/6/5 294/6/5
f 319/5/5 292/5/5 318/5/5
f 319/6/5 294/6/5 293/6/5
f 319/6/5 296/6/5 295/6/5
f 319/6/5 293/6/5 292/6/5
f 319/6/5 298/6/5 297/6/5
f 319/6/5 297/6/5 296/6/5
f 320/5/5 299/5/5 298/5/5
f 320/6/5 298/6/5 319/6/5
f 321/1/5 300/1/5 299/1/5
f 321/5/5 299/5/5 320/5/5
f 322/3/5 301/3/5 300/3/5
f 322/1/5 300/1/5 321/1/5
f 323/1/5 302/1/5 301/1/5
f 323/3/5 301/3/5 322/3/5
f 324/3/5 303/3/5 302/3/5
f 324/1/5 302/1/5 323/1/5
f 324/3/5 304/3/5 303/3/5
f 325/1/5 305/1/5 304/1/5
f 325/3/5 304/3/5 324/3/5
f 326/5/5 306/5/5 305/5/5
f 326/1/5 305/1/5 325/1/5
f 327/6/5 308/6/5 307/6/5
f 327/5/5 306/5/5 326/5/5
f 327/6/5 307/6/5 306/6/5
f 327/6/5 309/6/5 308/6/5
f 328/6/5 309/6/5 327/6/5
f 329/8/5 313/8/5 312/8/5
f 329/8/5 312/8/5 311/8/5
f 330/7/5 314/7/5 313/7/5
f 330/8/5 313/8/5 329/8/5
f 331/8/5 315/8/5 314/8/5
f 331/7/5 314/7/5 330/7/5
f 332/7/5 316/7/5 315/7/5
f 332/8/5 315/8/5 331/8/5
f 333/8/5 317/8/5 316/8/5
f 333/7/5 316/7/5 332/7/5
f 334/7/5 318/7/5 317/7/5
f 334/8/5 317/8/5 333/8/5
f 335/8/5 319/8/5 318/8/5
f 335/7/5 318/7/5 334/7/5
f 336/8/5 319/8/5 335/8/5
f 337/8/5 321/8/5 320/8/5
f 338/7/5 323/7/5 322/7/5
f 338/8/5 321/8/5 337/8/5
f 338/7/5 322/7/5 321/7/5
f 339/8/5 324/8/5 323/8/5
f 339/7/5 323/7/5 338/7/5
f 340/7/5 326/7/5 325/7/5
f 340/8/5 324/8/5 339/8/5
f 340/7/5 325/7/5 324/7/5
f 341/8/5 327/8/5 326/8/5
f 341/7/5 326/7/5 340/7/5
f 342/8/5 327/8/5 341/8/5
f 343/7/6 344/7/6 348/7/6
f 344/1/6 345/1/6 348/1/6
f 345/3/6 346/3/6 349/3/6
f 348/1/6 345/1/6 349/1/6
f 343/7/6 348/7/6 350/7/6
f 348/2/6 349/2/6 351/2/6
f 350/7/6 348/7/6 351/7/6
f 349/3/6 346/3/6 352/3/6
f 351/2/6 349/2/6 352/2/6
f 346/8/6 347/8/6 353/8/6
f 352/3/6 346/3/6 353/3/6
f 353/8/6 347/8/6 354/8/6
f 351/2/6 352/2/6 355/2/6
f 350/8/6 351/8/6 355/8/6
f 352/1/6 353/1/6 356/1/6
f 355/2/6 352/2/6 356/2/6
f 350/8/6 355/8/6 358/8/6
f 355/1/6 356/1/6 359/1/6
f 358/8/6 355/8/6 359/8/6
f 356/1/6 353/1/6 360/1/6
f 359/1/6 356/1/6 360/1/6
f 353/7/6 354/7/6 361/7/6
f 360/1/6 353/1/6 361/1/6
f 358/5/6 359/5/6 362/5/6
f 357/6/6 358/6/6 362/6/6
f 359/1/6 360/1/6 363/1/6
f 362/5/6 359/5/6 363/5/6
f 360/5/6 361/5/6 364/5/6
f 363/1/6 360/1/6 364/1/6
f 361/7/6 354/7/6 365/7/6
f 364/5/6 361/5/6 365/5/6
f 365/7/6 354/7/6 366/7/6
f 357/6/6 362/6/6 367/6/6
f 363/1/6 364/1/6 368/1/6
f 367/6/6 362/6/6 368/6/6
f 362/1/6 363/1/6 368/1/6
f 368/1/6 364/1/6 369/1/6
f 364/8/6 365/8/6 370/8/6
f 369/1/6 364/1/6 370/1/6
f 369/2/6 370/2/6 371/2/6
f 370/8/6 365/8/6 371/8/6
f 371/8/6 365/8/6 372/8/6
f 368/1/6 369/1/6 373/1/6
f 369/2/6 371/2/6 373/2/6
f 371/7/6 372/7/6 374/7/6
f 373/2/6 371/2/6 374/2/6
f 367/8/6 368/8/6 375/8/6
f 368/1/6 373/1/6 376/1/6
f 375/8/6 368/8/6 376/8/6
f 373/1/6 374/1/6 376/1/6
f 376/1/6 374/1/6 377/1/6
f 374/7/6 372/7/6 378/7/6
f 377/1/6 374/1/6 378/1/6
f 377/3/6 378/3/6 379/3/6
f 378/7/6 372/7/6 379/7/6
f 379/7/6 372/7/6 380/7/6
f 376/1/6 377/1/6 381/1/6
f 375/7/6 376/7/6 381/7/6
f 377/3/6 379/3/6 382/3/6
f 381/1/6 377/1/6 382/1/6
f 379/8/6 380/8/6 383/8/6
f 382/3/6 379/3/6 383/3/6
f 375/7/6 381/7/6 384/7/6
f 381/3/6 382/3/6 385/3/6
f 384/7/6 381/7/6 385/7/6
f 382/1/6 383/1/6 386/1/6
f 385/3/6 382/3/6 386/3/6
f 383/8/6 380/8/6 387/8/6
f 386/1/6 383/1/6 387/1/6
f 384/8/6 385/8/6 393/8/6
f 385/1/6 386/1/6 394/1/6
f 393/8/6 385/8/6 394/8/6
f 386/3/6 387/3/6 395/3/6
f 394/1/6 386/1/6 395/1/6
f 387/8/6 380/8/6 396/8/6
f 395/3/6 387/3/6 396/3/6
f 396/8/6 380/8/6 397/8/6
f 388/8/6 389/8/6 405/8/6
f 389/7/6 390/7/6 406/7/6
f 405/8/6 389/8/6 406/8/6
f 406/7/6 390/7/6 407/7/6
f 407/7/6 390/7/6 408/7/6
f 408/7/6 390/7/6 409/7/6
f 391/8/6 392/8/6 410/8/6
f 392/7/6 393/7/6 411/7/6
f 410/8/6 392/8/6 411/8/6
f 393/5/6 394/5/6 412/5/6
f 411/7/6 393/7/6 412/7/6
f 395/3/6 396/3/6 413/3/6
f 412/5/6 394/5/6 413/5/6
f 394/3/6 395/3/6 413/3/6
f 396/5/6 397/5/6 414/5/6
f 413/3/6 396/3/6 414/3/6
f 397/7/6 398/7/6 415/7/6
f 414/5/6 397/5/6 415/5/6
f 415/7/6 398/7/6 416/7/6
f 398/8/6 399/8/6 417/8/6
f 416/7/6 398/7/6 417/7/6
f 399/7/6 400/7/6 418/7/6
f 417/8/6 399/8/6 418/8/6
f 418/7/6 400/7/6 419/7/6
f 401/8/6 402/8/6 420/8/6
f 402/7/6 403/7/6 421/7/6
f 420/8/6 402/8/6 421/8/6
f 421/7/6 403/7/6 422/7/6
f 422/7/6 403/7/6 423/7/6
f 403/8/6 404/8/6 424/8/6
f 423/7/6 403/7/6 424/7/6
f 424/8/6 404/8/6 425/8/6
f 405/1/6 406/1/6 426/1/6
f 406/2/6 407/2/6 426/2/6
f 407/1/6 408/1/6 427/1/6
f 426/2/6 407/2/6 427/2/6
f 427/1/6 408/1/6 428/1/6
f 408/5/6 409/5/6 429/5/6
f 428/1/6 408/1/6 429/1/6
f 409/6/6 410/6/6 430/6/6
f 429/5/6 409/5/6 430/5/6
f 430/6/6 410/6/6 431/6/6
f 431/6/6 410/6/6 432/6/6
f 432/6/6 410/6/6 433/6/6
f 410/5/6 411/5/6 434/5/6
f 433/6/6 410/6/6 434/6/6
f 411/1/6 412/1/6 435/1/6
f 434/5/6 411/5/6 435/5/6
f 412/2/6 413/2/6 436/2/6
f 413/3/6 414/3/6 436/3/6
f 414/3/6 415/3/6 436/3/6
f 436/3/6 415/3/6 437/3/6
f 415/1/6 416/1/6 438/1/6
f 437/3/6 415/3/6 438/3/6
f 418/5/6 419/5/6 439/5/6
f 417/1/6 418/1/6 439/1/6
f 419/6/6 420/6/6 440/6/6
f 439/5/6 419/5/6 440/5/6
f 440/6/6 420/6/6 441/6/6
f 441/6/6 420/6/6 442/6/6
f 420/5/6 421/5/6 443/5/6
f 442/6/6 420/6/6 443/6/6
f 421/1/6 422/1/6 444/1/6
f 443/5/6 421/5/6 444/5/6
f 422/2/6 423/2/6 445/2/6
f 444/1/6 422/1/6 445/1/6
f 423/1/6 424/1/6 446/1/6
f 445/2/6 423/2/6 446/2/6
f 424/3/6 425/3/6 447/3/6
f 446/1/6 424/1/6 447/1/6
f 447/3/6 425/3/6 448/3/6
f 405/1/6 426/1/6 449/1/6
f 427/4/6 428/4/6 450/4/6
f 449/1/6 426/1/6 450/1/6
f 426/4/6 427/4/6 450/4/6
f 428/1/6 429/1/6 451/1/6
f 450/4/6 428/4/6 451/4/6
f 429/2/6 430/2/6 452/2/6
f 451/1/6 429/1/6 452/1/6
f 430/3/6 431/3/6 453/3/6
f 452/2/6 430/2/6 453/2/6
f 431/1/6 432/1/6 454/1/6
f 453/3/6 431/3/6 454/3/6
f 454/1/6 432/1/6 455/1/6
f 432/3/6 433/3/6 456/3/6
f 455/1/6 432/1/6 456/1/6
f 433/1/6 434/1/6 457/1/6
f 456/3/6 433/3/6 457/3/6
f 434/1/6 435/1/6 457/1/6
f 457/1/6 435/1/6 458/1/6
f 435/1/6 412/1/6 459/1/6
f 458/1/6 435/1/6 459/1/6
f 412/2/6 436/2/6 460/2/6
f 459/1/6 412/1/6 460/1/6
f 436/1/6 437/1/6 461/1/6
f 460/2/6 436/2/6 461/2/6
f 437/4/6 438/4/6 462/4/6
f 461/1/6 437/1/6 462/1/6
f 438/1/6 416/1/6 463/1/6
f 462/4/6 438/4/6 463/4/6
f 416/2/6 417/2/6 464/2/6
f 463/1/6 416/1/6 464/1/6
f 417/1/6 439/1/6 465/1/6
f 464/2/6 417/2/6 465/2/6
f 439/1/6 440/1/6 465/1/6
f 440/1/6 441/1/6 465/1/6
f 465/1/6 441/1/6 466/1/6
f 466/1/6 441/1/6 467/1/6
f 467/1/6 441/1/6 468/1/6
f 441/4/6 442/4/6 469/4/6
f 468/1/6 441/1/6 469/1/6
f 469/4/6 442/4/6 470/4/6
f 442/2/6 443/2/6 471/2/6
f 470/4/6 442/4/6 471/4/6
f 443/1/6 444/1/6 472/1/6
f 471/2/6 443/2/6 472/2/6
f 444/1/6 445/1/6 472/1/6
f 472/1/6 445/1/6 473/1/6
f 445/4/6 446/4/6 474/4/6
f 473/1/6 445/1/6 474/1/6
f 446/2/6 447/2/6 475/2/6
f 474/4/6 446/4/6 475/4/6
f 447/1/6 448/1/6 476/1/6
f 475/2/6 447/2/6 476/2/6
f 476/1/6 448/1/6 477/1/6
f 449/6/6 450/6/6 478/6/6
f 450/6/6 451/6/6 478/6/6
f 451/5/6 452/5/6 479/5/6
f 478/6/6 451/6/6 479/6/6
f 454/1/6 455/1/6 480/1/6
f 479/5/6 452/5/6 480/5/6
f 453/1/6 454/1/6 480/1/6
f 452/1/6 453/1/6 480/1/6
f 480/1/6 455/1/6 481/1/6
f 455/2/6 456/2/6 482/2/6
f 481/1/6 455/1/6 482/1/6
f 456/1/6 457/1/6 483/1/6
f 482/2/6 456/2/6 483/2/6
f 457/2/6 458/2/6 484/2/6
f 483/1/6 457/1/6 484/1/6
f 458/1/6 459/1/6 485/1/6
f 484/2/6 458/2/6 485/2/6
f 459/5/6 460/5/6 486/5/6
f 485/1/6 459/1/6 486/1/6
f 462/6/6 463/6/6 487/6/6
f 486/5/6 460/5/6 487/5/6
f 461/6/6 462/6/6 487/6/6
f 463/6/6 464/6/6 487/6/6
f 460/6/6 461/6/6 487/6/6
f 465/6/6 466/6/6 487/6/6
f 464/6/6 465/6/6 487/6/6
f 466/5/6 467/5/6 488/5/6
f 487/6/6 466/6/6 488/6/6
f 467/1/6 468/1/6 489/1/6
f 488/5/6 467/5/6 489/5/6
f 468/3/6 469/3/6 490/3/6
f 489/1/6 468/1/6 490/1/6
f 469/1/6 470/1/6 491/1/6
f 490/3/6 469/3/6 491/3/6
f 470/3/6 471/3/6 492/3/6
f 491/1/6 470/1/6 492/1/6
f 471/3/6 472/3/6 492/3/6
f 472/1/6 473/1/6 493/1/6
f 492/3/6 472/3/6 493/3/6
f 473/5/6 474/5/6 494/5/6
f 493/1/6 473/1/6 494/1/6
f 475/6/6 476/6/6 495/6/6
f 494/5/6 474/5/6 495/5/6
f 474/6/6 475/6/6 495/6/6
f 476/6/6 477/6/6 495/6/6
f 495/6/6 477/6/6 496/6/6
f 480/8/6 481/8/6 497/8/6
f 479/8/6 480/8/6 497/8/6
f 481/7/6 482/7/6 498/7/6
f 497/8/6 481/8/6 498/8/6
f 482/8/6 483/8/6 499/8/6
f 498/7/6 482/7/6 499/7/6
f 483/7/6 484/7/6 500/7/6
f 499/8/6 483/8/6 500/8/6
f 484/8/6 485/8/6 501/8/6
f 500/7/6 484/7/6 501/7/6
f 485/7/6 486/7/6 502/7/6
f 501/8/6 485/8/6 502/8/6
f 486/8/6 487/8/6 503/8/6
f 502/7/6 486/7/6 503/7/6
f 503/8/6 487/8/6 504/8/6
f 488/8/6 489/8/6 505/8/6
f 490/7/6 491/7/6 506/7/6
f 505/8/6 489/8/6 506/8/6
f 489/7/6 490/7/6 506/7/6
f 491/8/6 492/8/6 507/8/6
f 506/7/6 491/7/6 507/7/6
f 493/7/6 494/7/6 508/7/6
f 507/8/6 492/8/6 508/8/6
f 492/7/6 493/7/6 508/7/6
f 494/8/6 495/8/6 509/8/6
f 508/7/6 494/7/6 509/7/6
f 509/8/6 495/8/6 510/8/6
