# MagicaVoxel @ Ephtracy

# group
o 

# material
mtllib path-curve-1.mtl
usemtl palette

# normals
vn -1 0 0
vn 1 0 0
vn 0 0 1
vn 0 0 -1
vn 0 -1 0
vn 0 1 0

# texcoords
vt 0.908203 0.5
vt 0.912109 0.5
vt 0.916016 0.5
vt 0.919922 0.5
vt 0.923828 0.5
vt 0.927734 0.5
vt 0.931641 0.5
vt 0.935547 0.5

# verts
v -0.2 0 1.6
v -0.2 0 1.5
v -0.2 0 1.4
v -0.2 0 1.3
v -0.2 0 1.2
v -0.2 0 1
v -0.2 0 0.9
v -0.2 0 0.8
v -0.2 0.1 1.6
v -0.2 0.1 1.5
v -0.2 0.1 1.4
v -0.2 0.1 1.3
v -0.2 0.1 1.2
v -0.2 0.1 1
v -0.2 0.1 0.9
v -0.2 0.1 0.8
v -0.0999999 0 0.8
v -0.0999999 0 0.7
v -0.0999999 0 0.6
v -0.0999999 0 0.5
v -0.0999999 0.1 0.8
v -0.0999999 0.1 0.7
v -0.0999999 0.1 0.6
v -0.0999999 0.1 0.5
v 5.96046e-08 0 0.5
v 5.96046e-08 0 0.4
v 5.96046e-08 0 0.2
v 5.96046e-08 0.1 0.5
v 5.96046e-08 0.1 0.4
v 5.96046e-08 0.1 0.2
v 0.1 0 0.2
v 0.1 0 0.1
v 0.1 0.1 0.2
v 0.1 0.1 0.1
v 0.2 0 0.1
v 0.2 0 0
v 0.2 0.1 0.1
v 0.2 0.1 0
v 0.3 0 0
v 0.3 0 -0.1
v 0.3 0.1 0
v 0.3 0.1 -0.1
v 0.4 0 -0.1
v 0.4 0 -0.2
v 0.4 0.1 -0.1
v 0.4 0.1 -0.2
v 0.6 0 -0.2
v 0.6 0 -0.3
v 0.6 0.1 -0.2
v 0.6 0.1 -0.3
v 1.2 0 0.2
v 1.2 0 0.1
v 1.2 0.1 0.2
v 1.2 0.1 0.1
v 0.2 0 1.6
v 0.2 0 1.4
v 0.2 0 1
v 0.2 0 0.9
v 0.2 0.1 1.6
v 0.2 0.1 1.4
v 0.2 0.1 1
v 0.2 0.1 0.9
v 0.3 0 0.9
v 0.3 0 0.8
v 0.3 0 0.7
v 0.3 0.1 0.9
v 0.3 0.1 0.8
v 0.3 0.1 0.7
v 0.4 0 0.7
v 0.4 0 0.6
v 0.4 0 0.4
v 0.4 0.1 0.7
v 0.4 0.1 0.6
v 0.4 0.1 0.4
v 0.5 0 0.4
v 0.5 0 0.3
v 0.5 0.1 0.4
v 0.5 0.1 0.3
v 0.6 0 0.3
v 0.6 0 0.2
v 0.6 0.1 0.3
v 0.6 0.1 0.2
v 0.7 0 0.2
v 0.7 0 0.1
v 0.7 0.1 0.2
v 0.7 0.1 0.1
v 1.3 0 -0.2
v 1.3 0 -0.3
v 1.3 0.1 -0.2
v 1.3 0.1 -0.3
v 1.6 0 0.2
v 1.6 0 0.1
v 1.6 0 0
v 1.6 0 -0.1
v 1.6 0 -0.2
v 1.6 0.1 0.2
v 1.6 0.1 0.1
v 1.6 0.1 0
v 1.6 0.1 -0.1
v 1.6 0.1 -0.2
v -0.2 0 1.6
v -0.2 0.1 1.6
v -0.0999999 0 1.6
v -0.0999999 0.1 1.6
v 5.96046e-08 0 1.6
v 5.96046e-08 0.1 1.6
v 0.1 0 1.6
v 0.1 0.1 1.6
v 0.2 0 1.6
v 0.2 0.1 1.6
v 0.2 0 0.9
v 0.2 0.1 0.9
v 0.3 0 0.9
v 0.3 0.1 0.9
v 0.3 0 0.7
v 0.3 0.1 0.7
v 0.4 0 0.7
v 0.4 0.1 0.7
v 0.4 0 0.4
v 0.4 0.1 0.4
v 0.5 0 0.4
v 0.5 0.1 0.4
v 0.5 0 0.3
v 0.5 0.1 0.3
v 0.6 0 0.3
v 0.6 0.1 0.3
v 0.6 0 0.2
v 0.6 0.1 0.2
v 0.7 0 0.2
v 0.7 0.1 0.2
v 1.2 0 0.2
v 1.2 0.1 0.2
v 1.5 0 0.2
v 1.5 0.1 0.2
v 1.6 0 0.2
v 1.6 0.1 0.2
v 0.7 0 0.1
v 0.7 0.1 0.1
v 0.8 0 0.1
v 0.8 0.1 0.1
v 1.2 0 0.1
v 1.2 0.1 0.1
v -0.2 0 0.8
v -0.2 0.1 0.8
v -0.0999999 0 0.8
v -0.0999999 0.1 0.8
v -0.0999999 0 0.5
v -0.0999999 0.1 0.5
v 5.96046e-08 0 0.5
v 5.96046e-08 0.1 0.5
v 5.96046e-08 0 0.2
v 5.96046e-08 0.1 0.2
v 0.1 0 0.2
v 0.1 0.1 0.2
v 0.1 0 0.1
v 0.1 0.1 0.1
v 0.2 0 0.1
v 0.2 0.1 0.1
v 0.2 0 0
v 0.2 0.1 0
v 0.3 0 0
v 0.3 0.1 0
v 0.3 0 -0.1
v 0.3 0.1 -0.1
v 0.4 0 -0.1
v 0.4 0.1 -0.1
v 0.4 0 -0.2
v 0.4 0.1 -0.2
v 0.6 0 -0.2
v 0.6 0.1 -0.2
v 1.3 0 -0.2
v 1.3 0.1 -0.2
v 1.6 0 -0.2
v 1.6 0.1 -0.2
v 0.6 0 -0.3
v 0.6 0.1 -0.3
v 0.8 0 -0.3
v 0.8 0.1 -0.3
v 0.9 0 -0.3
v 0.9 0.1 -0.3
v 1.2 0 -0.3
v 1.2 0.1 -0.3
v 1.3 0 -0.3
v 1.3 0.1 -0.3
v -0.2 0 1.6
v -0.0999999 0 1.6
v 5.96046e-08 0 1.6
v 0.1 0 1.6
v 0.2 0 1.6
v -0.2 0 1.5
v -0.0999999 0 1.5
v 5.96046e-08 0 1.5
v 0.1 0 1.5
v -0.2 0 1.4
v -0.0999999 0 1.4
v 5.96046e-08 0 1.4
v 0.1 0 1.4
v 0.2 0 1.4
v -0.2 0 1.3
v -0.0999999 0 1.3
v 5.96046e-08 0 1.3
v -0.2 0 1.2
v -0.0999999 0 1.2
v 5.96046e-08 0 1.2
v 0.1 0 1.2
v -0.0999999 0 1.1
v 5.96046e-08 0 1.1
v 0.1 0 1.1
v -0.2 0 1
v -0.0999999 0 1
v 5.96046e-08 0 1
v 0.1 0 1
v 0.2 0 1
v -0.2 0 0.9
v -0.0999999 0 0.9
v 5.96046e-08 0 0.9
v 0.1 0 0.9
v 0.2 0 0.9
v 0.3 0 0.9
v -0.2 0 0.8
v -0.0999999 0 0.8
v 5.96046e-08 0 0.8
v 0.1 0 0.8
v 0.2 0 0.8
v 0.3 0 0.8
v -0.0999999 0 0.7
v 5.96046e-08 0 0.7
v 0.2 0 0.7
v 0.3 0 0.7
v 0.4 0 0.7
v -0.0999999 0 0.6
v 5.96046e-08 0 0.6
v 0.1 0 0.6
v 0.2 0 0.6
v 0.3 0 0.6
v 0.4 0 0.6
v -0.0999999 0 0.5
v 5.96046e-08 0 0.5
v 0.1 0 0.5
v 0.2 0 0.5
v 0.3 0 0.5
v 5.96046e-08 0 0.4
v 0.1 0 0.4
v 0.2 0 0.4
v 0.3 0 0.4
v 0.4 0 0.4
v 0.5 0 0.4
v 0.1 0 0.3
v 0.2 0 0.3
v 0.3 0 0.3
v 0.4 0 0.3
v 0.5 0 0.3
v 0.6 0 0.3
v 5.96046e-08 0 0.2
v 0.1 0 0.2
v 0.2 0 0.2
v 0.3 0 0.2
v 0.4 0 0.2
v 0.5 0 0.2
v 0.6 0 0.2
v 0.7 0 0.2
v 1.2 0 0.2
v 1.5 0 0.2
v 1.6 0 0.2
v 0.1 0 0.1
v 0.2 0 0.1
v 0.3 0 0.1
v 0.4 0 0.1
v 0.5 0 0.1
v 0.6 0 0.1
v 0.7 0 0.1
v 0.8 0 0.1
v 1.2 0 0.1
v 1.3 0 0.1
v 1.4 0 0.1
v 1.5 0 0.1
v 1.6 0 0.1
v 0.2 0 0
v 0.3 0 0
v 0.4 0 0
v 0.5 0 0
v 0.6 0 0
v 0.8 0 0
v 1 0 0
v 1.1 0 0
v 1.2 0 0
v 1.3 0 0
v 1.4 0 0
v 1.5 0 0
v 1.6 0 0
v 0.3 0 -0.1
v 0.4 0 -0.1
v 0.5 0 -0.1
v 0.6 0 -0.1
v 0.8 0 -0.1
v 0.9 0 -0.1
v 1 0 -0.1
v 1.1 0 -0.1
v 1.2 0 -0.1
v 1.3 0 -0.1
v 1.4 0 -0.1
v 1.5 0 -0.1
v 1.6 0 -0.1
v 0.4 0 -0.2
v 0.6 0 -0.2
v 0.8 0 -0.2
v 0.9 0 -0.2
v 1.1 0 -0.2
v 1.2 0 -0.2
v 1.3 0 -0.2
v 1.6 0 -0.2
v 0.6 0 -0.3
v 0.8 0 -0.3
v 0.9 0 -0.3
v 1.2 0 -0.3
v 1.3 0 -0.3
v -0.2 0.1 1.6
v -0.0999999 0.1 1.6
v 5.96046e-08 0.1 1.6
v 0.1 0.1 1.6
v 0.2 0.1 1.6
v -0.2 0.1 1.5
v -0.0999999 0.1 1.5
v 5.96046e-08 0.1 1.5
v 0.1 0.1 1.5
v -0.2 0.1 1.4
v -0.0999999 0.1 1.4
v 5.96046e-08 0.1 1.4
v 0.1 0.1 1.4
v 0.2 0.1 1.4
v -0.2 0.1 1.3
v -0.0999999 0.1 1.3
v 5.96046e-08 0.1 1.3
v -0.2 0.1 1.2
v -0.0999999 0.1 1.2
v 5.96046e-08 0.1 1.2
v 0.1 0.1 1.2
v -0.0999999 0.1 1.1
v 5.96046e-08 0.1 1.1
v 0.1 0.1 1.1
v -0.2 0.1 1
v -0.0999999 0.1 1
v 5.96046e-08 0.1 1
v 0.1 0.1 1
v 0.2 0.1 1
v -0.2 0.1 0.9
v -0.0999999 0.1 0.9
v 5.96046e-08 0.1 0.9
v 0.1 0.1 0.9
v 0.2 0.1 0.9
v 0.3 0.1 0.9
v -0.2 0.1 0.8
v -0.0999999 0.1 0.8
v 5.96046e-08 0.1 0.8
v 0.1 0.1 0.8
v 0.2 0.1 0.8
v 0.3 0.1 0.8
v -0.0999999 0.1 0.7
v 5.96046e-08 0.1 0.7
v 0.2 0.1 0.7
v 0.3 0.1 0.7
v 0.4 0.1 0.7
v -0.0999999 0.1 0.6
v 5.96046e-08 0.1 0.6
v 0.1 0.1 0.6
v 0.2 0.1 0.6
v 0.3 0.1 0.6
v 0.4 0.1 0.6
v -0.0999999 0.1 0.5
v 5.96046e-08 0.1 0.5
v 0.1 0.1 0.5
v 0.2 0.1 0.5
v 0.3 0.1 0.5
v 5.96046e-08 0.1 0.4
v 0.1 0.1 0.4
v 0.2 0.1 0.4
v 0.3 0.1 0.4
v 0.4 0.1 0.4
v 0.5 0.1 0.4
v 0.1 0.1 0.3
v 0.2 0.1 0.3
v 0.3 0.1 0.3
v 0.4 0.1 0.3
v 0.5 0.1 0.3
v 0.6 0.1 0.3
v 5.96046e-08 0.1 0.2
v 0.1 0.1 0.2
v 0.2 0.1 0.2
v 0.3 0.1 0.2
v 0.4 0.1 0.2
v 0.5 0.1 0.2
v 0.6 0.1 0.2
v 0.7 0.1 0.2
v 1.2 0.1 0.2
v 1.5 0.1 0.2
v 1.6 0.1 0.2
v 0.1 0.1 0.1
v 0.2 0.1 0.1
v 0.3 0.1 0.1
v 0.4 0.1 0.1
v 0.5 0.1 0.1
v 0.6 0.1 0.1
v 0.7 0.1 0.1
v 0.8 0.1 0.1
v 1.2 0.1 0.1
v 1.3 0.1 0.1
v 1.4 0.1 0.1
v 1.5 0.1 0.1
v 1.6 0.1 0.1
v 0.2 0.1 0
v 0.3 0.1 0
v 0.4 0.1 0
v 0.5 0.1 0
v 0.6 0.1 0
v 0.8 0.1 0
v 1 0.1 0
v 1.1 0.1 0
v 1.2 0.1 0
v 1.3 0.1 0
v 1.4 0.1 0
v 1.5 0.1 0
v 1.6 0.1 0
v 0.3 0.1 -0.1
v 0.4 0.1 -0.1
v 0.5 0.1 -0.1
v 0.6 0.1 -0.1
v 0.8 0.1 -0.1
v 0.9 0.1 -0.1
v 1 0.1 -0.1
v 1.1 0.1 -0.1
v 1.2 0.1 -0.1
v 1.3 0.1 -0.1
v 1.4 0.1 -0.1
v 1.5 0.1 -0.1
v 1.6 0.1 -0.1
v 0.4 0.1 -0.2
v 0.6 0.1 -0.2
v 0.8 0.1 -0.2
v 0.9 0.1 -0.2
v 1.1 0.1 -0.2
v 1.2 0.1 -0.2
v 1.3 0.1 -0.2
v 1.6 0.1 -0.2
v 0.6 0.1 -0.3
v 0.8 0.1 -0.3
v 0.9 0.1 -0.3
v 1.2 0.1 -0.3
v 1.3 0.1 -0.3

# faces
f 9/8/1 2/8/1 1/8/1
f 10/7/1 3/7/1 2/7/1
f 10/8/1 2/8/1 9/8/1
f 11/8/1 4/8/1 3/8/1
f 11/7/1 3/7/1 10/7/1
f 12/7/1 5/7/1 4/7/1
f 12/8/1 4/8/1 11/8/1
f 13/8/1 6/8/1 5/8/1
f 13/7/1 5/7/1 12/7/1
f 14/7/1 7/7/1 6/7/1
f 14/8/1 6/8/1 13/8/1
f 15/8/1 8/8/1 7/8/1
f 15/7/1 7/7/1 14/7/1
f 16/8/1 8/8/1 15/8/1
f 21/8/1 18/8/1 17/8/1
f 22/7/1 19/7/1 18/7/1
f 22/8/1 18/8/1 21/8/1
f 23/8/1 20/8/1 19/8/1
f 23/7/1 19/7/1 22/7/1
f 24/8/1 20/8/1 23/8/1
f 28/7/1 26/7/1 25/7/1
f 29/8/1 27/8/1 26/8/1
f 29/7/1 26/7/1 28/7/1
f 30/8/1 27/8/1 29/8/1
f 33/7/1 32/7/1 31/7/1
f 34/7/1 32/7/1 33/7/1
f 37/7/1 36/7/1 35/7/1
f 38/7/1 36/7/1 37/7/1
f 41/8/1 40/8/1 39/8/1
f 42/8/1 40/8/1 41/8/1
f 45/7/1 44/7/1 43/7/1
f 46/7/1 44/7/1 45/7/1
f 49/7/1 48/7/1 47/7/1
f 50/7/1 48/7/1 49/7/1
f 53/7/1 52/7/1 51/7/1
f 54/7/1 52/7/1 53/7/1
f 55/8/2 56/8/2 59/8/2
f 56/7/2 57/7/2 60/7/2
f 59/8/2 56/8/2 60/8/2
f 57/5/2 58/5/2 61/5/2
f 60/7/2 57/7/2 61/7/2
f 61/5/2 58/5/2 62/5/2
f 63/7/2 64/7/2 66/7/2
f 64/8/2 65/8/2 67/8/2
f 66/7/2 64/7/2 67/7/2
f 67/8/2 65/8/2 68/8/2
f 69/8/2 70/8/2 72/8/2
f 70/7/2 71/7/2 73/7/2
f 72/8/2 70/8/2 73/8/2
f 73/7/2 71/7/2 74/7/2
f 75/8/2 76/8/2 77/8/2
f 77/8/2 76/8/2 78/8/2
f 79/7/2 80/7/2 81/7/2
f 81/7/2 80/7/2 82/7/2
f 83/8/2 84/8/2 85/8/2
f 85/8/2 84/8/2 86/8/2
f 87/8/2 88/8/2 89/8/2
f 89/8/2 88/8/2 90/8/2
f 91/8/2 92/8/2 96/8/2
f 92/3/2 93/3/2 97/3/2
f 96/8/2 92/8/2 97/8/2
f 93/1/2 94/1/2 98/1/2
f 97/3/2 93/3/2 98/3/2
f 94/6/2 95/6/2 99/6/2
f 98/1/2 94/1/2 99/1/2
f 99/6/2 95/6/2 100/6/2
f 103/8/3 102/8/3 101/8/3
f 104/8/3 102/8/3 103/8/3
f 105/2/3 104/2/3 103/2/3
f 106/2/3 104/2/3 105/2/3
f 107/1/3 106/1/3 105/1/3
f 108/1/3 106/1/3 107/1/3
f 109/8/3 108/8/3 107/8/3
f 110/8/3 108/8/3 109/8/3
f 113/7/3 112/7/3 111/7/3
f 114/7/3 112/7/3 113/7/3
f 117/8/3 116/8/3 115/8/3
f 118/8/3 116/8/3 117/8/3
f 121/8/3 120/8/3 119/8/3
f 122/8/3 120/8/3 121/8/3
f 125/7/3 124/7/3 123/7/3
f 126/7/3 124/7/3 125/7/3
f 129/8/3 128/8/3 127/8/3
f 130/8/3 128/8/3 129/8/3
f 133/7/3 132/7/3 131/7/3
f 134/7/3 132/7/3 133/7/3
f 135/8/3 134/8/3 133/8/3
f 136/8/3 134/8/3 135/8/3
f 139/5/3 138/5/3 137/5/3
f 140/5/3 138/5/3 139/5/3
f 141/7/3 140/7/3 139/7/3
f 142/7/3 140/7/3 141/7/3
f 143/8/4 144/8/4 145/8/4
f 145/8/4 144/8/4 146/8/4
f 147/8/4 148/8/4 149/8/4
f 149/8/4 148/8/4 150/8/4
f 151/8/4 152/8/4 153/8/4
f 153/8/4 152/8/4 154/8/4
f 155/7/4 156/7/4 157/7/4
f 157/7/4 156/7/4 158/7/4
f 159/7/4 160/7/4 161/7/4
f 161/7/4 160/7/4 162/7/4
f 163/8/4 164/8/4 165/8/4
f 165/8/4 164/8/4 166/8/4
f 167/7/4 168/7/4 169/7/4
f 169/7/4 168/7/4 170/7/4
f 171/6/4 172/6/4 173/6/4
f 173/6/4 172/6/4 174/6/4
f 175/7/4 176/7/4 177/7/4
f 177/7/4 176/7/4 178/7/4
f 177/8/4 178/8/4 179/8/4
f 179/8/4 178/8/4 180/8/4
f 179/7/4 180/7/4 181/7/4
f 181/7/4 180/7/4 182/7/4
f 181/8/4 182/8/4 183/8/4
f 183/8/4 182/8/4 184/8/4
f 190/8/5 186/8/5 185/8/5
f 191/2/5 187/2/5 186/2/5
f 191/8/5 186/8/5 190/8/5
f 192/1/5 188/1/5 187/1/5
f 192/2/5 187/2/5 191/2/5
f 193/8/5 189/8/5 188/8/5
f 193/1/5 188/1/5 192/1/5
f 194/7/5 191/7/5 190/7/5
f 195/1/5 192/1/5 191/1/5
f 195/7/5 191/7/5 194/7/5
f 196/2/5 193/2/5 192/2/5
f 196/1/5 192/1/5 195/1/5
f 197/8/5 189/8/5 193/8/5
f 197/2/5 193/2/5 196/2/5
f 198/8/5 189/8/5 197/8/5
f 199/8/5 195/8/5 194/8/5
f 200/3/5 196/3/5 195/3/5
f 200/8/5 195/8/5 199/8/5
f 201/2/5 197/2/5 196/2/5
f 201/3/5 196/3/5 200/3/5
f 202/7/5 200/7/5 199/7/5
f 203/2/5 201/2/5 200/2/5
f 203/7/5 200/7/5 202/7/5
f 204/2/5 197/2/5 201/2/5
f 204/2/5 201/2/5 203/2/5
f 205/7/5 198/7/5 197/7/5
f 205/2/5 197/2/5 204/2/5
f 206/8/5 203/8/5 202/8/5
f 206/3/5 204/3/5 203/3/5
f 207/1/5 205/1/5 204/1/5
f 207/3/5 204/3/5 206/3/5
f 208/7/5 198/7/5 205/7/5
f 208/1/5 205/1/5 207/1/5
f 209/8/5 206/8/5 202/8/5
f 210/1/5 207/1/5 206/1/5
f 210/8/5 206/8/5 209/8/5
f 211/3/5 208/3/5 207/3/5
f 211/1/5 207/1/5 210/1/5
f 212/7/5 198/7/5 208/7/5
f 212/3/5 208/3/5 211/3/5
f 213/7/5 198/7/5 212/7/5
f 214/7/5 210/7/5 209/7/5
f 215/1/5 211/1/5 210/1/5
f 215/7/5 210/7/5 214/7/5
f 215/1/5 212/1/5 211/1/5
f 216/1/5 212/1/5 215/1/5
f 217/5/5 213/5/5 212/5/5
f 217/1/5 212/1/5 216/1/5
f 218/5/5 213/5/5 217/5/5
f 220/8/5 215/8/5 214/8/5
f 221/5/5 216/5/5 215/5/5
f 221/8/5 215/8/5 220/8/5
f 222/3/5 217/3/5 216/3/5
f 222/5/5 216/5/5 221/5/5
f 223/5/5 218/5/5 217/5/5
f 223/3/5 217/3/5 222/3/5
f 224/7/5 219/7/5 218/7/5
f 224/5/5 218/5/5 223/5/5
f 225/7/5 219/7/5 224/7/5
f 226/8/5 222/8/5 221/8/5
f 227/1/5 223/1/5 222/1/5
f 227/8/5 222/8/5 226/8/5
f 227/1/5 224/1/5 223/1/5
f 228/8/5 225/8/5 224/8/5
f 228/1/5 224/1/5 227/1/5
f 229/8/5 225/8/5 228/8/5
f 231/7/5 227/7/5 226/7/5
f 232/1/5 228/1/5 227/1/5
f 232/7/5 227/7/5 231/7/5
f 233/1/5 228/1/5 232/1/5
f 234/5/5 229/5/5 228/5/5
f 234/1/5 228/1/5 233/1/5
f 235/8/5 230/8/5 229/8/5
f 235/5/5 229/5/5 234/5/5
f 236/8/5 230/8/5 235/8/5
f 237/8/5 232/8/5 231/8/5
f 238/5/5 233/5/5 232/5/5
f 238/8/5 232/8/5 237/8/5
f 239/1/5 234/1/5 233/1/5
f 239/5/5 233/5/5 238/5/5
f 239/1/5 235/1/5 234/1/5
f 240/1/5 235/1/5 239/1/5
f 241/7/5 236/7/5 235/7/5
f 241/1/5 235/1/5 240/1/5
f 242/7/5 239/7/5 238/7/5
f 243/3/5 240/3/5 239/3/5
f 243/7/5 239/7/5 242/7/5
f 244/2/5 241/2/5 240/2/5
f 244/3/5 240/3/5 243/3/5
f 245/7/5 236/7/5 241/7/5
f 245/2/5 241/2/5 244/2/5
f 246/7/5 236/7/5 245/7/5
f 248/3/5 244/3/5 243/3/5
f 248/8/5 243/8/5 242/8/5
f 249/1/5 245/1/5 244/1/5
f 249/3/5 244/3/5 248/3/5
f 250/5/5 246/5/5 245/5/5
f 250/1/5 245/1/5 249/1/5
f 251/8/5 247/8/5 246/8/5
f 251/5/5 246/5/5 250/5/5
f 252/8/5 247/8/5 251/8/5
f 254/8/5 248/8/5 242/8/5
f 255/5/5 249/5/5 248/5/5
f 255/8/5 248/8/5 254/8/5
f 256/1/5 250/1/5 249/1/5
f 256/5/5 249/5/5 255/5/5
f 256/1/5 251/1/5 250/1/5
f 257/1/5 251/1/5 256/1/5
f 258/5/5 252/5/5 251/5/5
f 258/1/5 251/1/5 257/1/5
f 259/7/5 253/7/5 252/7/5
f 259/5/5 252/5/5 258/5/5
f 260/7/5 253/7/5 259/7/5
f 265/7/5 256/7/5 255/7/5
f 266/5/5 257/5/5 256/5/5
f 266/7/5 256/7/5 265/7/5
f 267/2/5 258/2/5 257/2/5
f 267/5/5 257/5/5 266/5/5
f 268/1/5 259/1/5 258/1/5
f 268/2/5 258/2/5 267/2/5
f 269/5/5 260/5/5 259/5/5
f 269/1/5 259/1/5 268/1/5
f 270/8/5 261/8/5 260/8/5
f 270/5/5 260/5/5 269/5/5
f 271/8/5 261/8/5 270/8/5
f 273/7/5 263/7/5 262/7/5
f 274/7/5 263/7/5 273/7/5
f 275/7/5 263/7/5 274/7/5
f 276/8/5 264/8/5 263/8/5
f 276/7/5 263/7/5 275/7/5
f 277/8/5 264/8/5 276/8/5
f 278/7/5 267/7/5 266/7/5
f 279/5/5 268/5/5 267/5/5
f 279/7/5 267/7/5 278/7/5
f 280/2/5 269/2/5 268/2/5
f 280/5/5 268/5/5 279/5/5
f 281/1/5 270/1/5 269/1/5
f 281/2/5 269/2/5 280/2/5
f 282/5/5 272/5/5 271/5/5
f 282/1/5 270/1/5 281/1/5
f 282/5/5 271/5/5 270/5/5
f 283/7/5 273/7/5 272/7/5
f 283/5/5 272/5/5 282/5/5
f 284/7/5 273/7/5 283/7/5
f 285/7/5 273/7/5 284/7/5
f 286/5/5 274/5/5 273/5/5
f 286/7/5 273/7/5 285/7/5
f 287/2/5 275/2/5 274/2/5
f 287/5/5 274/5/5 286/5/5
f 288/1/5 276/1/5 275/1/5
f 288/2/5 275/2/5 287/2/5
f 289/3/5 277/3/5 276/3/5
f 289/1/5 276/1/5 288/1/5
f 290/3/5 277/3/5 289/3/5
f 291/8/5 280/8/5 279/8/5
f 292/5/5 281/5/5 280/5/5
f 292/8/5 280/8/5 291/8/5
f 293/1/5 282/1/5 281/1/5
f 293/5/5 281/5/5 292/5/5
f 293/1/5 283/1/5 282/1/5
f 294/1/5 283/1/5 293/1/5
f 295/4/5 284/4/5 283/4/5
f 295/1/5 283/1/5 294/1/5
f 296/4/5 284/4/5 295/4/5
f 297/2/5 285/2/5 284/2/5
f 297/4/5 284/4/5 296/4/5
f 298/1/5 286/1/5 285/1/5
f 298/2/5 285/2/5 297/2/5
f 298/1/5 287/1/5 286/1/5
f 299/1/5 287/1/5 298/1/5
f 300/4/5 288/4/5 287/4/5
f 300/1/5 287/1/5 299/1/5
f 301/2/5 289/2/5 288/2/5
f 301/4/5 288/4/5 300/4/5
f 302/1/5 290/1/5 289/1/5
f 302/2/5 289/2/5 301/2/5
f 303/1/5 290/1/5 302/1/5
f 304/7/5 294/7/5 293/7/5
f 304/7/5 293/7/5 292/7/5
f 305/3/5 295/3/5 294/3/5
f 305/7/5 294/7/5 304/7/5
f 306/1/5 296/1/5 295/1/5
f 306/3/5 295/3/5 305/3/5
f 307/3/5 297/3/5 296/3/5
f 307/1/5 296/1/5 306/1/5
f 307/3/5 298/3/5 297/3/5
f 308/1/5 299/1/5 298/1/5
f 308/3/5 298/3/5 307/3/5
f 309/5/5 300/5/5 299/5/5
f 309/1/5 299/1/5 308/1/5
f 310/6/5 301/6/5 300/6/5
f 310/5/5 300/5/5 309/5/5
f 310/6/5 303/6/5 302/6/5
f 310/6/5 302/6/5 301/6/5
f 311/6/5 303/6/5 310/6/5
f 312/7/5 306/7/5 305/7/5
f 313/8/5 307/8/5 306/8/5
f 313/7/5 306/7/5 312/7/5
f 314/7/5 309/7/5 308/7/5
f 314/8/5 307/8/5 313/8/5
f 314/7/5 308/7/5 307/7/5
f 315/8/5 310/8/5 309/8/5
f 315/7/5 309/7/5 314/7/5
f 316/8/5 310/8/5 315/8/5
f 317/8/6 318/8/6 322/8/6
f 318/2/6 319/2/6 323/2/6
f 322/8/6 318/8/6 323/8/6
f 319/1/6 320/1/6 324/1/6
f 323/2/6 319/2/6 324/2/6
f 320/8/6 321/8/6 325/8/6
f 324/1/6 320/1/6 325/1/6
f 322/7/6 323/7/6 326/7/6
f 323/1/6 324/1/6 327/1/6
f 326/7/6 323/7/6 327/7/6
f 324/2/6 325/2/6 328/2/6
f 327/1/6 324/1/6 328/1/6
f 325/8/6 321/8/6 329/8/6
f 328/2/6 325/2/6 329/2/6
f 329/8/6 321/8/6 330/8/6
f 326/8/6 327/8/6 331/8/6
f 327/3/6 328/3/6 332/3/6
f 331/8/6 327/8/6 332/8/6
f 328/2/6 329/2/6 333/2/6
f 332/3/6 328/3/6 333/3/6
f 331/7/6 332/7/6 334/7/6
f 332/2/6 333/2/6 335/2/6
f 334/7/6 332/7/6 335/7/6
f 333/2/6 329/2/6 336/2/6
f 335/2/6 333/2/6 336/2/6
f 329/7/6 330/7/6 337/7/6
f 336/2/6 329/2/6 337/2/6
f 334/8/6 335/8/6 338/8/6
f 335/3/6 336/3/6 338/3/6
f 336/1/6 337/1/6 339/1/6
f 338/3/6 336/3/6 339/3/6
f 337/7/6 330/7/6 340/7/6
f 339/1/6 337/1/6 340/1/6
f 334/8/6 338/8/6 341/8/6
f 338/1/6 339/1/6 342/1/6
f 341/8/6 338/8/6 342/8/6
f 339/3/6 340/3/6 343/3/6
f 342/1/6 339/1/6 343/1/6
f 340/7/6 330/7/6 344/7/6
f 343/3/6 340/3/6 344/3/6
f 344/7/6 330/7/6 345/7/6
f 341/7/6 342/7/6 346/7/6
f 342/1/6 343/1/6 347/1/6
f 346/7/6 342/7/6 347/7/6
f 343/1/6 344/1/6 347/1/6
f 347/1/6 344/1/6 348/1/6
f 344/5/6 345/5/6 349/5/6
f 348/1/6 344/1/6 349/1/6
f 349/5/6 345/5/6 350/5/6
f 346/8/6 347/8/6 352/8/6
f 347/5/6 348/5/6 353/5/6
f 352/8/6 347/8/6 353/8/6
f 348/3/6 349/3/6 354/3/6
f 353/5/6 348/5/6 354/5/6
f 349/5/6 350/5/6 355/5/6
f 354/3/6 349/3/6 355/3/6
f 350/7/6 351/7/6 356/7/6
f 355/5/6 350/5/6 356/5/6
f 356/7/6 351/7/6 357/7/6
f 353/8/6 354/8/6 358/8/6
f 354/1/6 355/1/6 359/1/6
f 358/8/6 354/8/6 359/8/6
f 355/1/6 356/1/6 359/1/6
f 356/8/6 357/8/6 360/8/6
f 359/1/6 356/1/6 360/1/6
f 360/8/6 357/8/6 361/8/6
f 358/7/6 359/7/6 363/7/6
f 359/1/6 360/1/6 364/1/6
f 363/7/6 359/7/6 364/7/6
f 364/1/6 360/1/6 365/1/6
f 360/5/6 361/5/6 366/5/6
f 365/1/6 360/1/6 366/1/6
f 361/8/6 362/8/6 367/8/6
f 366/5/6 361/5/6 367/5/6
f 367/8/6 362/8/6 368/8/6
f 363/8/6 364/8/6 369/8/6
f 364/5/6 365/5/6 370/5/6
f 369/8/6 364/8/6 370/8/6
f 365/1/6 366/1/6 371/1/6
f 370/5/6 365/5/6 371/5/6
f 366/1/6 367/1/6 371/1/6
f 371/1/6 367/1/6 372/1/6
f 367/7/6 368/7/6 373/7/6
f 372/1/6 367/1/6 373/1/6
f 370/7/6 371/7/6 374/7/6
f 371/3/6 372/3/6 375/3/6
f 374/7/6 371/7/6 375/7/6
f 372/2/6 373/2/6 376/2/6
f 375/3/6 372/3/6 376/3/6
f 373/7/6 368/7/6 377/7/6
f 376/2/6 373/2/6 377/2/6
f 377/7/6 368/7/6 378/7/6
f 375/3/6 376/3/6 380/3/6
f 374/8/6 375/8/6 380/8/6
f 376/1/6 377/1/6 381/1/6
f 380/3/6 376/3/6 381/3/6
f 377/5/6 378/5/6 382/5/6
f 381/1/6 377/1/6 382/1/6
f 378/8/6 379/8/6 383/8/6
f 382/5/6 378/5/6 383/5/6
f 383/8/6 379/8/6 384/8/6
f 374/8/6 380/8/6 386/8/6
f 380/5/6 381/5/6 387/5/6
f 386/8/6 380/8/6 387/8/6
f 381/1/6 382/1/6 388/1/6
f 387/5/6 381/5/6 388/5/6
f 382/1/6 383/1/6 388/1/6
f 388/1/6 383/1/6 389/1/6
f 383/5/6 384/5/6 390/5/6
f 389/1/6 383/1/6 390/1/6
f 384/7/6 385/7/6 391/7/6
f 390/5/6 384/5/6 391/5/6
f 391/7/6 385/7/6 392/7/6
f 387/7/6 388/7/6 397/7/6
f 388/5/6 389/5/6 398/5/6
f 397/7/6 388/7/6 398/7/6
f 389/2/6 390/2/6 399/2/6
f 398/5/6 389/5/6 399/5/6
f 390/1/6 391/1/6 400/1/6
f 399/2/6 390/2/6 400/2/6
f 391/5/6 392/5/6 401/5/6
f 400/1/6 391/1/6 401/1/6
f 392/8/6 393/8/6 402/8/6
f 401/5/6 392/5/6 402/5/6
f 402/8/6 393/8/6 403/8/6
f 394/7/6 395/7/6 405/7/6
f 405/7/6 395/7/6 406/7/6
f 406/7/6 395/7/6 407/7/6
f 395/8/6 396/8/6 408/8/6
f 407/7/6 395/7/6 408/7/6
f 408/8/6 396/8/6 409/8/6
f 398/7/6 399/7/6 410/7/6
f 399/5/6 400/5/6 411/5/6
f 410/7/6 399/7/6 411/7/6
f 400/2/6 401/2/6 412/2/6
f 411/5/6 400/5/6 412/5/6
f 401/1/6 402/1/6 413/1/6
f 412/2/6 401/2/6 413/2/6
f 403/5/6 404/5/6 414/5/6
f 413/1/6 402/1/6 414/1/6
f 402/5/6 403/5/6 414/5/6
f 404/7/6 405/7/6 415/7/6
f 414/5/6 404/5/6 415/5/6
f 415/7/6 405/7/6 416/7/6
f 416/7/6 405/7/6 417/7/6
f 405/5/6 406/5/6 418/5/6
f 417/7/6 405/7/6 418/7/6
f 406/2/6 407/2/6 419/2/6
f 418/5/6 406/5/6 419/5/6
f 407/1/6 408/1/6 420/1/6
f 419/2/6 407/2/6 420/2/6
f 408/3/6 409/3/6 421/3/6
f 420/1/6 408/1/6 421/1/6
f 421/3/6 409/3/6 422/3/6
f 411/8/6 412/8/6 423/8/6
f 412/5/6 413/5/6 424/5/6
f 423/8/6 412/8/6 424/8/6
f 413/1/6 414/1/6 425/1/6
f 424/5/6 413/5/6 425/5/6
f 414/1/6 415/1/6 425/1/6
f 425/1/6 415/1/6 426/1/6
f 415/4/6 416/4/6 427/4/6
f 426/1/6 415/1/6 427/1/6
f 427/4/6 416/4/6 428/4/6
f 416/2/6 417/2/6 429/2/6
f 428/4/6 416/4/6 429/4/6
f 417/1/6 418/1/6 430/1/6
f 429/2/6 417/2/6 430/2/6
f 418/1/6 419/1/6 430/1/6
f 430/1/6 419/1/6 431/1/6
f 419/4/6 420/4/6 432/4/6
f 431/1/6 419/1/6 432/1/6
f 420/2/6 421/2/6 433/2/6
f 432/4/6 420/4/6 433/4/6
f 421/1/6 422/1/6 434/1/6
f 433/2/6 421/2/6 434/2/6
f 434/1/6 422/1/6 435/1/6
f 425/7/6 426/7/6 436/7/6
f 424/7/6 425/7/6 436/7/6
f 426/3/6 427/3/6 437/3/6
f 436/7/6 426/7/6 437/7/6
f 427/1/6 428/1/6 438/1/6
f 437/3/6 427/3/6 438/3/6
f 428/3/6 429/3/6 439/3/6
f 438/1/6 428/1/6 439/1/6
f 429/3/6 430/3/6 439/3/6
f 430/1/6 431/1/6 440/1/6
f 439/3/6 430/3/6 440/3/6
f 431/5/6 432/5/6 441/5/6
f 440/1/6 431/1/6 441/1/6
f 432/6/6 433/6/6 442/6/6
f 441/5/6 432/5/6 442/5/6
f 434/6/6 435/6/6 442/6/6
f 433/6/6 434/6/6 442/6/6
f 442/6/6 435/6/6 443/6/6
f 437/7/6 438/7/6 444/7/6
f 438/8/6 439/8/6 445/8/6
f 444/7/6 438/7/6 445/7/6
f 440/7/6 441/7/6 446/7/6
f 445/8/6 439/8/6 446/8/6
f 439/7/6 440/7/6 446/7/6
f 441/8/6 442/8/6 447/8/6
f 446/7/6 441/7/6 447/7/6
f 447/8/6 442/8/6 448/8/6
