# MagicaVoxel @ Ephtracy

# group
o 

# material
mtllib path-curve-3.mtl
usemtl palette

# normals
vn 1 0 0
vn -1 0 0
vn 0 0 -1
vn 0 0 1
vn 0 -1 0
vn 0 1 0

# texcoords
vt 0.908203 0.5
vt 0.912109 0.5
vt 0.916016 0.5
vt 0.923828 0.5
vt 0.931641 0.5
vt 0.935547 0.5

# verts
v 1.6 0 -0.2
v 1.6 0 -0.0999999
v 1.6 0 5.96046e-08
v 1.6 0 0.1
v 1.6 0 0.2
v 1.6 0.1 -0.2
v 1.6 0.1 -0.0999999
v 1.6 0.1 5.96046e-08
v 1.6 0.1 0.1
v 1.6 0.1 0.2
v 0.9 0 0.2
v 0.9 0 0.3
v 0.9 0.1 0.2
v 0.9 0.1 0.3
v 0.7 0 0.3
v 0.7 0 0.4
v 0.7 0.1 0.3
v 0.7 0.1 0.4
v 0.6 0 0.4
v 0.6 0 0.5
v 0.6 0.1 0.4
v 0.6 0.1 0.5
v 0.5 0 0.5
v 0.5 0 0.7
v 0.5 0.1 0.5
v 0.5 0.1 0.7
v 0.4 0 0.7
v 0.4 0 0.8
v 0.4 0 0.9
v 0.4 0.1 0.7
v 0.4 0.1 0.8
v 0.4 0.1 0.9
v 0.3 0 0.9
v 0.3 0 1.2
v 0.3 0.1 0.9
v 0.3 0.1 1.2
v 0.2 0 1.2
v 0.2 0 1.6
v 0.2 0.1 1.2
v 0.2 0.1 1.6
v 0.8 0 -0.2
v 0.8 0 -0.0999999
v 0.8 0.1 -0.2
v 0.8 0.1 -0.0999999
v 0.6 0 -0.0999999
v 0.6 0 5.96046e-08
v 0.6 0.1 -0.0999999
v 0.6 0.1 5.96046e-08
v 0.4 0 5.96046e-08
v 0.4 0 0.1
v 0.4 0.1 5.96046e-08
v 0.4 0.1 0.1
v 0.3 0 0.1
v 0.3 0 0.2
v 0.3 0.1 0.1
v 0.3 0.1 0.2
v 0.2 0 0.2
v 0.2 0 0.3
v 0.2 0 0.4
v 0.2 0.1 0.2
v 0.2 0.1 0.3
v 0.2 0.1 0.4
v 0.1 0 0.4
v 0.1 0 0.5
v 0.1 0.1 0.4
v 0.1 0.1 0.5
v 0 0 0.5
v 0 0 0.6
v 0 0 0.8
v 0 0.1 0.5
v 0 0.1 0.6
v 0 0.1 0.8
v -0.1 0 0.8
v -0.1 0 1.1
v -0.1 0.1 0.8
v -0.1 0.1 1.1
v -0.2 0 1.1
v -0.2 0 1.6
v -0.2 0.1 1.1
v -0.2 0.1 1.6
v 1.6 0 -0.2
v 1.6 0.1 -0.2
v 0.8 0 -0.2
v 0.8 0.1 -0.2
v 0.8 0 -0.0999999
v 0.8 0.1 -0.0999999
v 0.7 0 -0.0999999
v 0.7 0.1 -0.0999999
v 0.6 0 -0.0999999
v 0.6 0.1 -0.0999999
v 0.6 0 5.96046e-08
v 0.6 0.1 5.96046e-08
v 0.5 0 5.96046e-08
v 0.5 0.1 5.96046e-08
v 0.4 0 5.96046e-08
v 0.4 0.1 5.96046e-08
v 0.4 0 0.1
v 0.4 0.1 0.1
v 0.3 0 0.1
v 0.3 0.1 0.1
v 0.3 0 0.2
v 0.3 0.1 0.2
v 0.2 0 0.2
v 0.2 0.1 0.2
v 0.2 0 0.4
v 0.2 0.1 0.4
v 0.1 0 0.4
v 0.1 0.1 0.4
v 0.1 0 0.5
v 0.1 0.1 0.5
v 0 0 0.5
v 0 0.1 0.5
v 0 0 0.8
v 0 0.1 0.8
v -0.1 0 0.8
v -0.1 0.1 0.8
v -0.1 0 1.1
v -0.1 0.1 1.1
v -0.2 0 1.1
v -0.2 0.1 1.1
v 1.6 0 0.2
v 1.6 0.1 0.2
v 1.2 0 0.2
v 1.2 0.1 0.2
v 0.9 0 0.2
v 0.9 0.1 0.2
v 0.9 0 0.3
v 0.9 0.1 0.3
v 0.7 0 0.3
v 0.7 0.1 0.3
v 0.7 0 0.4
v 0.7 0.1 0.4
v 0.6 0 0.4
v 0.6 0.1 0.4
v 0.6 0 0.5
v 0.6 0.1 0.5
v 0.5 0 0.5
v 0.5 0.1 0.5
v 0.5 0 0.7
v 0.5 0.1 0.7
v 0.4 0 0.7
v 0.4 0.1 0.7
v 0.4 0 0.9
v 0.4 0.1 0.9
v 0.3 0 0.9
v 0.3 0.1 0.9
v 0.3 0 1.2
v 0.3 0.1 1.2
v 0.2 0 1.2
v 0.2 0.1 1.2
v 0.2 0 1.6
v 0.2 0.1 1.6
v 0.1 0 1.6
v 0.1 0.1 1.6
v -0.1 0 1.6
v -0.1 0.1 1.6
v -0.2 0 1.6
v -0.2 0.1 1.6
v 1.6 0 -0.2
v 0.8 0 -0.2
v 1.6 0 -0.0999999
v 1.5 0 -0.0999999
v 1.2 0 -0.0999999
v 1.1 0 -0.0999999
v 0.9 0 -0.0999999
v 0.8 0 -0.0999999
v 0.7 0 -0.0999999
v 0.6 0 -0.0999999
v 1.6 0 5.96046e-08
v 1.5 0 5.96046e-08
v 1.4 0 5.96046e-08
v 1.3 0 5.96046e-08
v 1.2 0 5.96046e-08
v 1.1 0 5.96046e-08
v 0.9 0 5.96046e-08
v 0.8 0 5.96046e-08
v 0.7 0 5.96046e-08
v 0.6 0 5.96046e-08
v 0.5 0 5.96046e-08
v 0.4 0 5.96046e-08
v 1.6 0 0.1
v 1.4 0 0.1
v 1.3 0 0.1
v 1.2 0 0.1
v 0.9 0 0.1
v 0.8 0 0.1
v 0.7 0 0.1
v 0.6 0 0.1
v 0.5 0 0.1
v 0.4 0 0.1
v 0.3 0 0.1
v 1.6 0 0.2
v 1.2 0 0.2
v 0.9 0 0.2
v 0.8 0 0.2
v 0.7 0 0.2
v 0.6 0 0.2
v 0.5 0 0.2
v 0.4 0 0.2
v 0.3 0 0.2
v 0.2 0 0.2
v 0.9 0 0.3
v 0.7 0 0.3
v 0.6 0 0.3
v 0.5 0 0.3
v 0.4 0 0.3
v 0.3 0 0.3
v 0.2 0 0.3
v 0.7 0 0.4
v 0.6 0 0.4
v 0.5 0 0.4
v 0.4 0 0.4
v 0.3 0 0.4
v 0.2 0 0.4
v 0.1 0 0.4
v 0.6 0 0.5
v 0.5 0 0.5
v 0.4 0 0.5
v 0.3 0 0.5
v 0.2 0 0.5
v 0.1 0 0.5
v 0 0 0.5
v 0.4 0 0.6
v 0.3 0 0.6
v 0.1 0 0.6
v 0 0 0.6
v 0.5 0 0.7
v 0.4 0 0.7
v 0.3 0 0.7
v 0.2 0 0.7
v 0.1 0 0.7
v 0.4 0 0.8
v 0.3 0 0.8
v 0.2 0 0.8
v 0.1 0 0.8
v 0 0 0.8
v -0.1 0 0.8
v 0.4 0 0.9
v 0.3 0 0.9
v 0.2 0 0.9
v 0.1 0 0.9
v 0 0 0.9
v 0.1 0 1
v 0 0 1
v 0.2 0 1.1
v 0.1 0 1.1
v 0 0 1.1
v -0.1 0 1.1
v -0.2 0 1.1
v 0.3 0 1.2
v 0.2 0 1.2
v 0.1 0 1.2
v 0 0 1.2
v -0.1 0 1.2
v 0.1 0 1.4
v 0 0 1.4
v -0.1 0 1.4
v 0 0 1.5
v -0.1 0 1.5
v 0.2 0 1.6
v 0.1 0 1.6
v -0.1 0 1.6
v -0.2 0 1.6
v 1.6 0.1 -0.2
v 0.8 0.1 -0.2
v 1.6 0.1 -0.0999999
v 1.5 0.1 -0.0999999
v 1.2 0.1 -0.0999999
v 1.1 0.1 -0.0999999
v 0.9 0.1 -0.0999999
v 0.8 0.1 -0.0999999
v 0.7 0.1 -0.0999999
v 0.6 0.1 -0.0999999
v 1.6 0.1 5.96046e-08
v 1.5 0.1 5.96046e-08
v 1.4 0.1 5.96046e-08
v 1.3 0.1 5.96046e-08
v 1.2 0.1 5.96046e-08
v 1.1 0.1 5.96046e-08
v 0.9 0.1 5.96046e-08
v 0.8 0.1 5.96046e-08
v 0.7 0.1 5.96046e-08
v 0.6 0.1 5.96046e-08
v 0.5 0.1 5.96046e-08
v 0.4 0.1 5.96046e-08
v 1.6 0.1 0.1
v 1.4 0.1 0.1
v 1.3 0.1 0.1
v 1.2 0.1 0.1
v 0.9 0.1 0.1
v 0.8 0.1 0.1
v 0.7 0.1 0.1
v 0.6 0.1 0.1
v 0.5 0.1 0.1
v 0.4 0.1 0.1
v 0.3 0.1 0.1
v 1.6 0.1 0.2
v 1.2 0.1 0.2
v 0.9 0.1 0.2
v 0.8 0.1 0.2
v 0.7 0.1 0.2
v 0.6 0.1 0.2
v 0.5 0.1 0.2
v 0.4 0.1 0.2
v 0.3 0.1 0.2
v 0.2 0.1 0.2
v 0.9 0.1 0.3
v 0.7 0.1 0.3
v 0.6 0.1 0.3
v 0.5 0.1 0.3
v 0.4 0.1 0.3
v 0.3 0.1 0.3
v 0.2 0.1 0.3
v 0.7 0.1 0.4
v 0.6 0.1 0.4
v 0.5 0.1 0.4
v 0.4 0.1 0.4
v 0.3 0.1 0.4
v 0.2 0.1 0.4
v 0.1 0.1 0.4
v 0.6 0.1 0.5
v 0.5 0.1 0.5
v 0.4 0.1 0.5
v 0.3 0.1 0.5
v 0.2 0.1 0.5
v 0.1 0.1 0.5
v 0 0.1 0.5
v 0.4 0.1 0.6
v 0.3 0.1 0.6
v 0.1 0.1 0.6
v 0 0.1 0.6
v 0.5 0.1 0.7
v 0.4 0.1 0.7
v 0.3 0.1 0.7
v 0.2 0.1 0.7
v 0.1 0.1 0.7
v 0.4 0.1 0.8
v 0.3 0.1 0.8
v 0.2 0.1 0.8
v 0.1 0.1 0.8
v 0 0.1 0.8
v -0.1 0.1 0.8
v 0.4 0.1 0.9
v 0.3 0.1 0.9
v 0.2 0.1 0.9
v 0.1 0.1 0.9
v 0 0.1 0.9
v 0.1 0.1 1
v 0 0.1 1
v 0.2 0.1 1.1
v 0.1 0.1 1.1
v 0 0.1 1.1
v -0.1 0.1 1.1
v -0.2 0.1 1.1
v 0.3 0.1 1.2
v 0.2 0.1 1.2
v 0.1 0.1 1.2
v 0 0.1 1.2
v -0.1 0.1 1.2
v 0.1 0.1 1.4
v 0 0.1 1.4
v -0.1 0.1 1.4
v 0 0.1 1.5
v -0.1 0.1 1.5
v 0.2 0.1 1.6
v 0.1 0.1 1.6
v -0.1 0.1 1.6
v -0.2 0.1 1.6

# faces
f 6/6/1 2/6/1 1/6/1
f 7/1/1 3/1/1 2/1/1
f 7/6/1 2/6/1 6/6/1
f 8/3/1 4/3/1 3/3/1
f 8/1/1 3/1/1 7/1/1
f 9/6/1 5/6/1 4/6/1
f 9/3/1 4/3/1 8/3/1
f 10/6/1 5/6/1 9/6/1
f 13/6/1 12/6/1 11/6/1
f 14/6/1 12/6/1 13/6/1
f 17/6/1 16/6/1 15/6/1
f 18/6/1 16/6/1 17/6/1
f 21/5/1 20/5/1 19/5/1
f 22/5/1 20/5/1 21/5/1
f 25/6/1 24/6/1 23/6/1
f 26/6/1 24/6/1 25/6/1
f 30/6/1 28/6/1 27/6/1
f 31/5/1 29/5/1 28/5/1
f 31/6/1 28/6/1 30/6/1
f 32/5/1 29/5/1 31/5/1
f 35/5/1 34/5/1 33/5/1
f 36/5/1 34/5/1 35/5/1
f 39/6/1 38/6/1 37/6/1
f 40/6/1 38/6/1 39/6/1
f 41/6/2 42/6/2 43/6/2
f 43/6/2 42/6/2 44/6/2
f 45/5/2 46/5/2 47/5/2
f 47/5/2 46/5/2 48/5/2
f 49/6/2 50/6/2 51/6/2
f 51/6/2 50/6/2 52/6/2
f 53/6/2 54/6/2 55/6/2
f 55/6/2 54/6/2 56/6/2
f 57/5/2 58/5/2 60/5/2
f 58/6/2 59/6/2 61/6/2
f 60/5/2 58/5/2 61/5/2
f 61/6/2 59/6/2 62/6/2
f 63/6/2 64/6/2 65/6/2
f 65/6/2 64/6/2 66/6/2
f 67/5/2 68/5/2 70/5/2
f 68/6/2 69/6/2 71/6/2
f 70/5/2 68/5/2 71/5/2
f 71/6/2 69/6/2 72/6/2
f 73/6/2 74/6/2 75/6/2
f 75/6/2 74/6/2 76/6/2
f 77/6/2 78/6/2 79/6/2
f 79/6/2 78/6/2 80/6/2
f 83/6/3 82/6/3 81/6/3
f 84/6/3 82/6/3 83/6/3
f 87/6/3 86/6/3 85/6/3
f 88/6/3 86/6/3 87/6/3
f 89/5/3 88/5/3 87/5/3
f 90/5/3 88/5/3 89/5/3
f 93/5/3 92/5/3 91/5/3
f 94/5/3 92/5/3 93/5/3
f 95/6/3 94/6/3 93/6/3
f 96/6/3 94/6/3 95/6/3
f 99/6/3 98/6/3 97/6/3
f 100/6/3 98/6/3 99/6/3
f 103/5/3 102/5/3 101/5/3
f 104/5/3 102/5/3 103/5/3
f 107/6/3 106/6/3 105/6/3
f 108/6/3 106/6/3 107/6/3
f 111/5/3 110/5/3 109/5/3
f 112/5/3 110/5/3 111/5/3
f 115/6/3 114/6/3 113/6/3
f 116/6/3 114/6/3 115/6/3
f 119/6/3 118/6/3 117/6/3
f 120/6/3 118/6/3 119/6/3
f 121/6/4 122/6/4 123/6/4
f 123/6/4 122/6/4 124/6/4
f 123/5/4 124/5/4 125/5/4
f 125/5/4 124/5/4 126/5/4
f 127/6/4 128/6/4 129/6/4
f 129/6/4 128/6/4 130/6/4
f 131/6/4 132/6/4 133/6/4
f 133/6/4 132/6/4 134/6/4
f 135/5/4 136/5/4 137/5/4
f 137/5/4 136/5/4 138/5/4
f 139/6/4 140/6/4 141/6/4
f 141/6/4 140/6/4 142/6/4
f 143/5/4 144/5/4 145/5/4
f 145/5/4 144/5/4 146/5/4
f 147/5/4 148/5/4 149/5/4
f 149/5/4 148/5/4 150/5/4
f 151/6/4 152/6/4 153/6/4
f 153/6/4 152/6/4 154/6/4
f 153/1/4 154/1/4 155/1/4
f 155/1/4 154/1/4 156/1/4
f 155/6/4 156/6/4 157/6/4
f 157/6/4 156/6/4 158/6/4
f 161/6/5 160/6/5 159/6/5
f 162/6/5 160/6/5 161/6/5
f 163/6/5 160/6/5 162/6/5
f 164/6/5 160/6/5 163/6/5
f 165/6/5 160/6/5 164/6/5
f 166/6/5 160/6/5 165/6/5
f 169/1/5 162/1/5 161/1/5
f 170/2/5 163/2/5 162/2/5
f 170/1/5 162/1/5 169/1/5
f 171/2/5 163/2/5 170/2/5
f 172/2/5 163/2/5 171/2/5
f 173/3/5 164/3/5 163/3/5
f 173/2/5 163/2/5 172/2/5
f 174/1/5 165/1/5 164/1/5
f 174/3/5 164/3/5 173/3/5
f 175/4/5 166/4/5 165/4/5
f 175/1/5 165/1/5 174/1/5
f 176/6/5 167/6/5 166/6/5
f 176/4/5 166/4/5 175/4/5
f 177/5/5 168/5/5 167/5/5
f 177/6/5 167/6/5 176/6/5
f 178/5/5 168/5/5 177/5/5
f 181/3/5 170/3/5 169/3/5
f 181/3/5 171/3/5 170/3/5
f 182/1/5 172/1/5 171/1/5
f 182/3/5 171/3/5 181/3/5
f 183/3/5 173/3/5 172/3/5
f 183/1/5 172/1/5 182/1/5
f 184/2/5 174/2/5 173/2/5
f 184/3/5 173/3/5 183/3/5
f 184/2/5 175/2/5 174/2/5
f 185/1/5 176/1/5 175/1/5
f 185/2/5 175/2/5 184/2/5
f 186/2/5 177/2/5 176/2/5
f 186/1/5 176/1/5 185/1/5
f 187/4/5 178/4/5 177/4/5
f 187/2/5 177/2/5 186/2/5
f 188/5/5 179/5/5 178/5/5
f 188/4/5 178/4/5 187/4/5
f 189/6/5 180/6/5 179/6/5
f 189/5/5 179/5/5 188/5/5
f 190/6/5 180/6/5 189/6/5
f 192/6/5 184/6/5 183/6/5
f 192/6/5 182/6/5 181/6/5
f 192/6/5 183/6/5 182/6/5
f 193/5/5 185/5/5 184/5/5
f 193/6/5 184/6/5 192/6/5
f 194/4/5 186/4/5 185/4/5
f 194/5/5 185/5/5 193/5/5
f 195/1/5 188/1/5 187/1/5
f 195/4/5 186/4/5 194/4/5
f 195/1/5 187/1/5 186/1/5
f 196/1/5 188/1/5 195/1/5
f 197/3/5 189/3/5 188/3/5
f 197/1/5 188/1/5 196/1/5
f 198/4/5 190/4/5 189/4/5
f 198/3/5 189/3/5 197/3/5
f 199/6/5 191/6/5 190/6/5
f 199/4/5 190/4/5 198/4/5
f 200/6/5 191/6/5 199/6/5
f 202/6/5 196/6/5 195/6/5
f 202/6/5 195/6/5 194/6/5
f 203/4/5 197/4/5 196/4/5
f 203/6/5 196/6/5 202/6/5
f 204/2/5 198/2/5 197/2/5
f 204/4/5 197/4/5 203/4/5
f 204/2/5 199/2/5 198/2/5
f 205/2/5 199/2/5 204/2/5
f 206/4/5 200/4/5 199/4/5
f 206/2/5 199/2/5 205/2/5
f 207/5/5 201/5/5 200/5/5
f 207/4/5 200/4/5 206/4/5
f 208/5/5 201/5/5 207/5/5
f 209/6/5 204/6/5 203/6/5
f 210/4/5 205/4/5 204/4/5
f 210/6/5 204/6/5 209/6/5
f 211/1/5 206/1/5 205/1/5
f 211/4/5 205/4/5 210/4/5
f 211/1/5 207/1/5 206/1/5
f 212/1/5 207/1/5 211/1/5
f 213/6/5 208/6/5 207/6/5
f 213/1/5 207/1/5 212/1/5
f 214/6/5 208/6/5 213/6/5
f 216/5/5 211/5/5 210/5/5
f 217/4/5 212/4/5 211/4/5
f 217/5/5 211/5/5 216/5/5
f 218/2/5 213/2/5 212/2/5
f 218/4/5 212/4/5 217/4/5
f 219/4/5 214/4/5 213/4/5
f 219/2/5 213/2/5 218/2/5
f 220/6/5 215/6/5 214/6/5
f 220/4/5 214/4/5 219/4/5
f 221/6/5 215/6/5 220/6/5
f 223/6/5 218/6/5 217/6/5
f 223/2/5 219/2/5 218/2/5
f 223/2/5 220/2/5 219/2/5
f 224/2/5 220/2/5 223/2/5
f 225/5/5 222/5/5 221/5/5
f 225/4/5 221/4/5 220/4/5
f 226/5/5 222/5/5 225/5/5
f 227/6/5 223/6/5 217/6/5
f 228/4/5 224/4/5 223/4/5
f 228/6/5 223/6/5 227/6/5
f 229/2/5 220/2/5 224/2/5
f 229/4/5 224/4/5 228/4/5
f 230/4/5 225/4/5 220/4/5
f 230/2/5 220/2/5 229/2/5
f 231/6/5 226/6/5 225/6/5
f 231/4/5 225/4/5 230/4/5
f 232/6/5 229/6/5 228/6/5
f 233/1/5 231/1/5 230/1/5
f 233/6/5 229/6/5 232/6/5
f 233/1/5 230/1/5 229/1/5
f 234/1/5 231/1/5 233/1/5
f 235/6/5 226/6/5 231/6/5
f 235/1/5 231/1/5 234/1/5
f 236/6/5 226/6/5 235/6/5
f 238/5/5 233/5/5 232/5/5
f 239/4/5 234/4/5 233/4/5
f 239/5/5 233/5/5 238/5/5
f 240/1/5 235/1/5 234/1/5
f 240/4/5 234/4/5 239/4/5
f 241/4/5 236/4/5 235/4/5
f 241/1/5 235/1/5 240/1/5
f 242/6/5 237/6/5 236/6/5
f 242/4/5 236/4/5 241/4/5
f 243/1/5 241/1/5 240/1/5
f 243/1/5 242/1/5 241/1/5
f 244/6/5 237/6/5 242/6/5
f 244/1/5 242/1/5 243/1/5
f 245/5/5 240/5/5 239/5/5
f 245/1/5 243/1/5 240/1/5
f 246/2/5 244/2/5 243/2/5
f 246/1/5 243/1/5 245/1/5
f 247/6/5 237/6/5 244/6/5
f 247/2/5 244/2/5 246/2/5
f 248/6/5 237/6/5 247/6/5
f 250/5/5 245/5/5 239/5/5
f 251/4/5 246/4/5 245/4/5
f 251/5/5 245/5/5 250/5/5
f 252/2/5 247/2/5 246/2/5
f 252/4/5 246/4/5 251/4/5
f 253/4/5 248/4/5 247/4/5
f 253/2/5 247/2/5 252/2/5
f 254/6/5 249/6/5 248/6/5
f 254/4/5 248/4/5 253/4/5
f 255/2/5 253/2/5 252/2/5
f 255/2/5 254/2/5 253/2/5
f 255/6/5 252/6/5 251/6/5
f 256/2/5 254/2/5 255/2/5
f 257/6/5 249/6/5 254/6/5
f 257/2/5 254/2/5 256/2/5
f 258/1/5 256/1/5 255/1/5
f 258/3/5 257/3/5 256/3/5
f 259/6/5 249/6/5 257/6/5
f 259/3/5 257/3/5 258/3/5
f 260/6/5 255/6/5 251/6/5
f 261/1/5 258/1/5 255/1/5
f 261/6/5 255/6/5 260/6/5
f 261/1/5 259/1/5 258/1/5
f 262/6/5 249/6/5 259/6/5
f 262/1/5 259/1/5 261/1/5
f 263/6/5 249/6/5 262/6/5
f 264/6/6 265/6/6 266/6/6
f 266/6/6 265/6/6 267/6/6
f 267/6/6 265/6/6 268/6/6
f 268/6/6 265/6/6 269/6/6
f 269/6/6 265/6/6 270/6/6
f 270/6/6 265/6/6 271/6/6
f 266/1/6 267/1/6 274/1/6
f 267/2/6 268/2/6 275/2/6
f 274/1/6 267/1/6 275/1/6
f 275/2/6 268/2/6 276/2/6
f 276/2/6 268/2/6 277/2/6
f 268/3/6 269/3/6 278/3/6
f 277/2/6 268/2/6 278/2/6
f 269/1/6 270/1/6 279/1/6
f 278/3/6 269/3/6 279/3/6
f 270/4/6 271/4/6 280/4/6
f 279/1/6 270/1/6 280/1/6
f 271/6/6 272/6/6 281/6/6
f 280/4/6 271/4/6 281/4/6
f 272/5/6 273/5/6 282/5/6
f 281/6/6 272/6/6 282/6/6
f 282/5/6 273/5/6 283/5/6
f 274/3/6 275/3/6 286/3/6
f 275/3/6 276/3/6 286/3/6
f 276/1/6 277/1/6 287/1/6
f 286/3/6 276/3/6 287/3/6
f 277/3/6 278/3/6 288/3/6
f 287/1/6 277/1/6 288/1/6
f 278/2/6 279/2/6 289/2/6
f 288/3/6 278/3/6 289/3/6
f 279/2/6 280/2/6 289/2/6
f 280/1/6 281/1/6 290/1/6
f 289/2/6 280/2/6 290/2/6
f 281/2/6 282/2/6 291/2/6
f 290/1/6 281/1/6 291/1/6
f 282/4/6 283/4/6 292/4/6
f 291/2/6 282/2/6 292/2/6
f 283/5/6 284/5/6 293/5/6
f 292/4/6 283/4/6 293/4/6
f 284/6/6 285/6/6 294/6/6
f 293/5/6 284/5/6 294/5/6
f 294/6/6 285/6/6 295/6/6
f 288/6/6 289/6/6 297/6/6
f 286/6/6 287/6/6 297/6/6
f 287/6/6 288/6/6 297/6/6
f 289/5/6 290/5/6 298/5/6
f 297/6/6 289/6/6 298/6/6
f 290/4/6 291/4/6 299/4/6
f 298/5/6 290/5/6 299/5/6
f 292/1/6 293/1/6 300/1/6
f 299/4/6 291/4/6 300/4/6
f 291/1/6 292/1/6 300/1/6
f 300/1/6 293/1/6 301/1/6
f 293/3/6 294/3/6 302/3/6
f 301/1/6 293/1/6 302/1/6
f 294/4/6 295/4/6 303/4/6
f 302/3/6 294/3/6 303/3/6
f 295/6/6 296/6/6 304/6/6
f 303/4/6 295/4/6 304/4/6
f 304/6/6 296/6/6 305/6/6
f 300/6/6 301/6/6 307/6/6
f 299/6/6 300/6/6 307/6/6
f 301/4/6 302/4/6 308/4/6
f 307/6/6 301/6/6 308/6/6
f 302/2/6 303/2/6 309/2/6
f 308/4/6 302/4/6 309/4/6
f 303/2/6 304/2/6 309/2/6
f 309/2/6 304/2/6 310/2/6
f 304/4/6 305/4/6 311/4/6
f 310/2/6 304/2/6 311/2/6
f 305/5/6 306/5/6 312/5/6
f 311/4/6 305/4/6 312/4/6
f 312/5/6 306/5/6 313/5/6
f 308/6/6 309/6/6 314/6/6
f 309/4/6 310/4/6 315/4/6
f 314/6/6 309/6/6 315/6/6
f 310/1/6 311/1/6 316/1/6
f 315/4/6 310/4/6 316/4/6
f 311/1/6 312/1/6 316/1/6
f 316/1/6 312/1/6 317/1/6
f 312/6/6 313/6/6 318/6/6
f 317/1/6 312/1/6 318/1/6
f 318/6/6 313/6/6 319/6/6
f 315/5/6 316/5/6 321/5/6
f 316/4/6 317/4/6 322/4/6
f 321/5/6 316/5/6 322/5/6
f 317/2/6 318/2/6 323/2/6
f 322/4/6 317/4/6 323/4/6
f 318/4/6 319/4/6 324/4/6
f 323/2/6 318/2/6 324/2/6
f 319/6/6 320/6/6 325/6/6
f 324/4/6 319/4/6 325/4/6
f 325/6/6 320/6/6 326/6/6
f 322/6/6 323/6/6 328/6/6
f 323/2/6 324/2/6 328/2/6
f 324/2/6 325/2/6 328/2/6
f 328/2/6 325/2/6 329/2/6
f 326/5/6 327/5/6 330/5/6
f 325/4/6 326/4/6 330/4/6
f 330/5/6 327/5/6 331/5/6
f 322/6/6 328/6/6 332/6/6
f 328/4/6 329/4/6 333/4/6
f 332/6/6 328/6/6 333/6/6
f 329/2/6 325/2/6 334/2/6
f 333/4/6 329/4/6 334/4/6
f 325/4/6 330/4/6 335/4/6
f 334/2/6 325/2/6 335/2/6
f 330/6/6 331/6/6 336/6/6
f 335/4/6 330/4/6 336/4/6
f 333/6/6 334/6/6 337/6/6
f 335/1/6 336/1/6 338/1/6
f 337/6/6 334/6/6 338/6/6
f 334/1/6 335/1/6 338/1/6
f 338/1/6 336/1/6 339/1/6
f 336/6/6 331/6/6 340/6/6
f 339/1/6 336/1/6 340/1/6
f 340/6/6 331/6/6 341/6/6
f 337/5/6 338/5/6 343/5/6
f 338/4/6 339/4/6 344/4/6
f 343/5/6 338/5/6 344/5/6
f 339/1/6 340/1/6 345/1/6
f 344/4/6 339/4/6 345/4/6
f 340/4/6 341/4/6 346/4/6
f 345/1/6 340/1/6 346/1/6
f 341/6/6 342/6/6 347/6/6
f 346/4/6 341/4/6 347/4/6
f 345/1/6 346/1/6 348/1/6
f 346/1/6 347/1/6 348/1/6
f 347/6/6 342/6/6 349/6/6
f 348/1/6 347/1/6 349/1/6
f 344/5/6 345/5/6 350/5/6
f 345/1/6 348/1/6 350/1/6
f 348/2/6 349/2/6 351/2/6
f 350/1/6 348/1/6 351/1/6
f 349/6/6 342/6/6 352/6/6
f 351/2/6 349/2/6 352/2/6
f 352/6/6 342/6/6 353/6/6
f 344/5/6 350/5/6 355/5/6
f 350/4/6 351/4/6 356/4/6
f 355/5/6 350/5/6 356/5/6
f 351/2/6 352/2/6 357/2/6
f 356/4/6 351/4/6 357/4/6
f 352/4/6 353/4/6 358/4/6
f 357/2/6 352/2/6 358/2/6
f 353/6/6 354/6/6 359/6/6
f 358/4/6 353/4/6 359/4/6
f 357/2/6 358/2/6 360/2/6
f 358/2/6 359/2/6 360/2/6
f 356/6/6 357/6/6 360/6/6
f 360/2/6 359/2/6 361/2/6
f 359/6/6 354/6/6 362/6/6
f 361/2/6 359/2/6 362/2/6
f 360/1/6 361/1/6 363/1/6
f 361/3/6 362/3/6 363/3/6
f 362/6/6 354/6/6 364/6/6
f 363/3/6 362/3/6 364/3/6
f 356/6/6 360/6/6 365/6/6
f 360/1/6 363/1/6 366/1/6
f 365/6/6 360/6/6 366/6/6
f 363/1/6 364/1/6 366/1/6
f 364/6/6 354/6/6 367/6/6
f 366/1/6 364/1/6 367/1/6
f 367/6/6 354/6/6 368/6/6
