# MagicaVoxel @ Ephtracy

# group
o 

# material
mtllib racer-v5-blue.mtl
usemtl palette

# normals
vn 1 0 0
vn -1 0 0
vn 0 0 -1
vn 0 0 1
vn 0 -1 0
vn 0 1 0

# texcoords
vt 0.826172 0.5
vt 0.896484 0.5
vt 0.908203 0.5
vt 0.958984 0.5

# verts
v 0.7 0.1 -0.3
v 0.7 0.1 0.3
v 0.7 0.2 -0.3
v 0.7 0.2 -0.1
v 0.7 0.2 0.1
v 0.7 0.2 0.3
v 0.7 0.3 -0.3
v 0.7 0.3 -0.1
v 0.7 0.3 0.1
v 0.7 0.3 0.3
v 0.7 0.4 -0.2
v 0.7 0.4 -0.1
v 0.7 0.4 0.1
v 0.7 0.4 0.2
v 0.7 0.6 -0.2
v 0.7 0.6 -0.1
v 0.7 0.6 0.1
v 0.7 0.6 0.2
v 0.6 0.3 -0.2
v 0.6 0.3 -0.1
v 0.6 0.3 0.1
v 0.6 0.3 0.2
v 0.6 0.4 -0.2
v 0.6 0.4 -0.1
v 0.6 0.4 0.1
v 0.6 0.4 0.2
v 0.6 0.5 -0.1
v 0.6 0.5 0.1
v 0.5 0.3 -0.3
v 0.5 0.3 -0.2
v 0.5 0.3 0.2
v 0.5 0.3 0.3
v 0.5 0.4 -0.3
v 0.5 0.4 -0.2
v 0.5 0.4 0.2
v 0.5 0.4 0.3
v 0.4 0.4 -0.3
v 0.4 0.4 -0.2
v 0.4 0.4 0.2
v 0.4 0.4 0.3
v 0.4 0.5 -0.3
v 0.4 0.5 -0.2
v 0.4 0.5 0.2
v 0.4 0.5 0.3
v 0.4 0.6 -0.2
v 0.4 0.6 0.2
v 0.3 0.1 -0.3
v 0.3 0.1 -0.2
v 0.3 0.1 0.2
v 0.3 0.1 0.3
v 0.3 0.2 -0.3
v 0.3 0.2 -0.2
v 0.3 0.2 0.2
v 0.3 0.2 0.3
v -0.4 0.1 -0.3
v -0.4 0.1 -0.2
v -0.4 0.1 0.2
v -0.4 0.1 0.3
v -0.4 0.2 -0.3
v -0.4 0.2 -0.2
v -0.4 0.2 0.2
v -0.4 0.2 0.3
v 0.5 0.1 -0.3
v 0.5 0.1 -0.2
v 0.5 0.1 0.2
v 0.5 0.1 0.3
v 0.5 0.2 -0.3
v 0.5 0.2 -0.2
v 0.5 0.2 0.2
v 0.5 0.2 0.3
v 0.5 0.5 -0.2
v 0.5 0.5 -0.1
v 0.5 0.5 0.1
v 0.5 0.5 0.2
v 0.5 0.6 -0.2
v 0.5 0.6 -0.1
v 0.5 0.6 0.1
v 0.5 0.6 0.2
v -0.2 0.1 -0.3
v -0.2 0.1 -0.2
v -0.2 0.1 0.2
v -0.2 0.1 0.3
v -0.2 0.2 -0.3
v -0.2 0.2 -0.2
v -0.2 0.2 0.2
v -0.2 0.2 0.3
v -0.2 0.4 -0.3
v -0.2 0.4 -0.2
v -0.2 0.4 0.2
v -0.2 0.4 0.3
v -0.2 0.5 -0.3
v -0.2 0.5 -0.2
v -0.2 0.5 0.2
v -0.2 0.5 0.3
v -0.2 0.6 -0.2
v -0.2 0.6 0.2
v -0.3 0.4 -0.2
v -0.3 0.4 0.2
v -0.3 0.5 -0.2
v -0.3 0.5 0.2
v -0.4 0.3 -0.3
v -0.4 0.3 -0.2
v -0.4 0.3 0.2
v -0.4 0.3 0.3
v -0.4 0.4 -0.3
v -0.4 0.4 -0.2
v -0.4 0.4 0.2
v -0.4 0.4 0.3
v -0.7 0.1 -0.3
v -0.7 0.1 0.3
v -0.7 0.2 -0.3
v -0.7 0.2 -0.1
v -0.7 0.2 0.1
v -0.7 0.2 0.3
v -0.7 0.3 -0.3
v -0.7 0.3 -0.2
v -0.7 0.3 -0.1
v -0.7 0.3 0.1
v -0.7 0.3 0.2
v -0.7 0.3 0.3
v -0.7 0.4 -0.2
v -0.7 0.4 0.2
v 0.7 0.1 -0.3
v 0.7 0.2 -0.3
v 0.7 0.3 -0.3
v 0.6 0.2 -0.3
v 0.6 0.3 -0.3
v 0.5 0.1 -0.3
v 0.5 0.2 -0.3
v 0.5 0.3 -0.3
v 0.5 0.4 -0.3
v 0.4 0.4 -0.3
v 0.4 0.5 -0.3
v 0.3 0.1 -0.3
v 0.3 0.2 -0.3
v 0.3 0.3 -0.3
v 0.3 0.5 -0.3
v -0.2 0.1 -0.3
v -0.2 0.2 -0.3
v -0.2 0.3 -0.3
v -0.2 0.4 -0.3
v -0.2 0.5 -0.3
v -0.4 0.1 -0.3
v -0.4 0.2 -0.3
v -0.4 0.3 -0.3
v -0.4 0.4 -0.3
v -0.6 0.2 -0.3
v -0.6 0.3 -0.3
v -0.7 0.1 -0.3
v -0.7 0.2 -0.3
v -0.7 0.3 -0.3
v 0.7 0.4 -0.2
v 0.7 0.6 -0.2
v 0.6 0.3 -0.2
v 0.6 0.4 -0.2
v 0.5 0.1 -0.2
v 0.5 0.2 -0.2
v 0.5 0.3 -0.2
v 0.5 0.4 -0.2
v 0.5 0.5 -0.2
v 0.5 0.6 -0.2
v 0.4 0.4 -0.2
v 0.4 0.5 -0.2
v 0.4 0.6 -0.2
v 0.3 0.1 -0.2
v 0.3 0.2 -0.2
v 0.3 0.5 -0.2
v -0.2 0.1 -0.2
v -0.2 0.2 -0.2
v -0.2 0.4 -0.2
v -0.2 0.5 -0.2
v -0.2 0.6 -0.2
v -0.3 0.4 -0.2
v -0.3 0.5 -0.2
v -0.4 0.1 -0.2
v -0.4 0.2 -0.2
v -0.4 0.3 -0.2
v -0.4 0.4 -0.2
v -0.6 0.3 -0.2
v -0.7 0.3 -0.2
v -0.7 0.4 -0.2
v 0.7 0.4 0.1
v 0.7 0.6 0.1
v 0.6 0.4 0.1
v 0.6 0.5 0.1
v 0.5 0.5 0.1
v 0.5 0.6 0.1
v 0.7 0.4 -0.1
v 0.7 0.6 -0.1
v 0.6 0.4 -0.1
v 0.6 0.5 -0.1
v 0.5 0.5 -0.1
v 0.5 0.6 -0.1
v 0.7 0.4 0.2
v 0.7 0.6 0.2
v 0.6 0.3 0.2
v 0.6 0.4 0.2
v 0.5 0.1 0.2
v 0.5 0.2 0.2
v 0.5 0.3 0.2
v 0.5 0.4 0.2
v 0.5 0.5 0.2
v 0.5 0.6 0.2
v 0.4 0.4 0.2
v 0.4 0.5 0.2
v 0.4 0.6 0.2
v 0.3 0.1 0.2
v 0.3 0.2 0.2
v 0.3 0.5 0.2
v -0.2 0.1 0.2
v -0.2 0.2 0.2
v -0.2 0.4 0.2
v -0.2 0.5 0.2
v -0.2 0.6 0.2
v -0.3 0.4 0.2
v -0.3 0.5 0.2
v -0.4 0.1 0.2
v -0.4 0.2 0.2
v -0.4 0.3 0.2
v -0.4 0.4 0.2
v -0.6 0.3 0.2
v -0.7 0.3 0.2
v -0.7 0.4 0.2
v 0.7 0.1 0.3
v 0.7 0.2 0.3
v 0.7 0.3 0.3
v 0.6 0.2 0.3
v 0.6 0.3 0.3
v 0.5 0.1 0.3
v 0.5 0.2 0.3
v 0.5 0.3 0.3
v 0.5 0.4 0.3
v 0.4 0.4 0.3
v 0.4 0.5 0.3
v 0.3 0.1 0.3
v 0.3 0.2 0.3
v 0.3 0.3 0.3
v 0.3 0.5 0.3
v -0.2 0.1 0.3
v -0.2 0.2 0.3
v -0.2 0.3 0.3
v -0.2 0.4 0.3
v -0.2 0.5 0.3
v -0.4 0.1 0.3
v -0.4 0.2 0.3
v -0.4 0.3 0.3
v -0.4 0.4 0.3
v -0.6 0.2 0.3
v -0.6 0.3 0.3
v -0.7 0.1 0.3
v -0.7 0.2 0.3
v -0.7 0.3 0.3
v 0.7 0.1 -0.3
v 0.5 0.1 -0.3
v 0.3 0.1 -0.3
v -0.2 0.1 -0.3
v -0.4 0.1 -0.3
v -0.7 0.1 -0.3
v 0.5 0.1 -0.2
v 0.3 0.1 -0.2
v -0.2 0.1 -0.2
v -0.4 0.1 -0.2
v 0.5 0.1 0.2
v 0.3 0.1 0.2
v -0.2 0.1 0.2
v -0.4 0.1 0.2
v 0.7 0.1 0.3
v 0.5 0.1 0.3
v 0.3 0.1 0.3
v -0.2 0.1 0.3
v -0.4 0.1 0.3
v -0.7 0.1 0.3
v 0.5 0.2 -0.3
v 0.3 0.2 -0.3
v -0.2 0.2 -0.3
v -0.4 0.2 -0.3
v 0.5 0.2 -0.2
v 0.3 0.2 -0.2
v -0.2 0.2 -0.2
v -0.4 0.2 -0.2
v 0.5 0.2 0.2
v 0.3 0.2 0.2
v -0.2 0.2 0.2
v -0.4 0.2 0.2
v 0.5 0.2 0.3
v 0.3 0.2 0.3
v -0.2 0.2 0.3
v -0.4 0.2 0.3
v 0.7 0.4 -0.2
v 0.6 0.4 -0.2
v 0.7 0.4 -0.1
v 0.6 0.4 -0.1
v 0.7 0.4 0.1
v 0.6 0.4 0.1
v 0.7 0.4 0.2
v 0.6 0.4 0.2
v 0.7 0.3 -0.3
v 0.6 0.3 -0.3
v 0.5 0.3 -0.3
v -0.4 0.3 -0.3
v -0.6 0.3 -0.3
v -0.7 0.3 -0.3
v 0.6 0.3 -0.2
v 0.5 0.3 -0.2
v -0.4 0.3 -0.2
v -0.6 0.3 -0.2
v -0.7 0.3 -0.2
v 0.7 0.3 -0.1
v 0.6 0.3 -0.1
v 0.7 0.3 0.1
v 0.6 0.3 0.1
v 0.6 0.3 0.2
v 0.5 0.3 0.2
v -0.4 0.3 0.2
v -0.6 0.3 0.2
v -0.7 0.3 0.2
v 0.7 0.3 0.3
v 0.6 0.3 0.3
v 0.5 0.3 0.3
v -0.4 0.3 0.3
v -0.6 0.3 0.3
v -0.7 0.3 0.3
v 0.5 0.4 -0.3
v 0.4 0.4 -0.3
v -0.2 0.4 -0.3
v -0.4 0.4 -0.3
v 0.5 0.4 -0.2
v 0.4 0.4 -0.2
v -0.2 0.4 -0.2
v -0.3 0.4 -0.2
v -0.4 0.4 -0.2
v -0.7 0.4 -0.2
v 0.5 0.4 0.2
v 0.4 0.4 0.2
v -0.2 0.4 0.2
v -0.3 0.4 0.2
v -0.4 0.4 0.2
v -0.7 0.4 0.2
v 0.5 0.4 0.3
v 0.4 0.4 0.3
v -0.2 0.4 0.3
v -0.4 0.4 0.3
v 0.4 0.5 -0.3
v 0.3 0.5 -0.3
v -0.2 0.5 -0.3
v 0.5 0.5 -0.2
v 0.4 0.5 -0.2
v 0.3 0.5 -0.2
v -0.2 0.5 -0.2
v -0.3 0.5 -0.2
v 0.6 0.5 -0.1
v 0.5 0.5 -0.1
v 0.6 0.5 0.1
v 0.5 0.5 0.1
v 0.5 0.5 0.2
v 0.4 0.5 0.2
v 0.3 0.5 0.2
v -0.2 0.5 0.2
v -0.3 0.5 0.2
v 0.4 0.5 0.3
v 0.3 0.5 0.3
v -0.2 0.5 0.3
v 0.7 0.6 -0.2
v 0.5 0.6 -0.2
v 0.4 0.6 -0.2
v -0.2 0.6 -0.2
v 0.7 0.6 -0.1
v 0.5 0.6 -0.1
v 0.7 0.6 0.1
v 0.5 0.6 0.1
v 0.7 0.6 0.2
v 0.5 0.6 0.2
v 0.4 0.6 0.2
v -0.2 0.6 0.2

# faces
f 3/4/1 2/4/1 1/4/1
f 4/4/1 2/4/1 3/4/1
f 5/4/1 2/4/1 4/4/1
f 6/4/1 2/4/1 5/4/1
f 7/3/1 4/3/1 3/3/1
f 8/4/1 5/4/1 4/4/1
f 8/3/1 4/3/1 7/3/1
f 9/3/1 6/3/1 5/3/1
f 9/4/1 5/4/1 8/4/1
f 10/3/1 6/3/1 9/3/1
f 15/4/1 12/4/1 11/4/1
f 16/4/1 12/4/1 15/4/1
f 17/4/1 14/4/1 13/4/1
f 18/4/1 14/4/1 17/4/1
f 23/4/1 20/4/1 19/4/1
f 23/4/1 22/4/1 21/4/1
f 23/4/1 21/4/1 20/4/1
f 24/4/1 22/4/1 23/4/1
f 25/4/1 22/4/1 24/4/1
f 26/4/1 22/4/1 25/4/1
f 27/4/1 25/4/1 24/4/1
f 28/4/1 25/4/1 27/4/1
f 33/4/1 30/4/1 29/4/1
f 34/4/1 30/4/1 33/4/1
f 35/4/1 32/4/1 31/4/1
f 36/4/1 32/4/1 35/4/1
f 41/4/1 38/4/1 37/4/1
f 42/4/1 38/4/1 41/4/1
f 43/4/1 40/4/1 39/4/1
f 44/4/1 40/4/1 43/4/1
f 45/4/1 43/4/1 42/4/1
f 46/4/1 43/4/1 45/4/1
f 51/4/1 48/4/1 47/4/1
f 52/4/1 48/4/1 51/4/1
f 53/4/1 50/4/1 49/4/1
f 54/4/1 50/4/1 53/4/1
f 59/4/1 56/4/1 55/4/1
f 60/4/1 56/4/1 59/4/1
f 61/4/1 58/4/1 57/4/1
f 62/4/1 58/4/1 61/4/1
f 63/4/2 64/4/2 67/4/2
f 67/4/2 64/4/2 68/4/2
f 65/4/2 66/4/2 69/4/2
f 69/4/2 66/4/2 70/4/2
f 71/4/2 72/4/2 75/4/2
f 75/4/2 72/4/2 76/4/2
f 73/4/2 74/4/2 77/4/2
f 77/4/2 74/4/2 78/4/2
f 79/4/2 80/4/2 83/4/2
f 83/4/2 80/4/2 84/4/2
f 81/4/2 82/4/2 85/4/2
f 85/4/2 82/4/2 86/4/2
f 87/1/2 88/1/2 91/1/2
f 91/1/2 88/1/2 92/1/2
f 89/1/2 90/1/2 93/1/2
f 93/1/2 90/1/2 94/1/2
f 92/4/2 93/4/2 95/4/2
f 95/4/2 93/4/2 96/4/2
f 97/1/2 98/1/2 99/1/2
f 99/1/2 98/1/2 100/1/2
f 101/4/2 102/4/2 105/4/2
f 105/4/2 102/4/2 106/4/2
f 103/4/2 104/4/2 107/4/2
f 107/4/2 104/4/2 108/4/2
f 109/4/2 110/4/2 111/4/2
f 111/4/2 110/4/2 112/4/2
f 112/4/2 110/4/2 113/4/2
f 113/4/2 110/4/2 114/4/2
f 111/2/2 112/2/2 115/2/2
f 115/2/2 112/2/2 116/2/2
f 112/4/2 113/4/2 117/4/2
f 116/2/2 112/2/2 117/2/2
f 113/2/2 114/2/2 118/2/2
f 117/4/2 113/4/2 118/4/2
f 118/2/2 114/2/2 119/2/2
f 119/2/2 114/2/2 120/2/2
f 116/4/2 117/4/2 121/4/2
f 118/4/2 119/4/2 121/4/2
f 117/4/2 118/4/2 121/4/2
f 121/4/2 119/4/2 122/4/2
f 126/4/3 124/4/3 123/4/3
f 126/3/3 125/3/3 124/3/3
f 127/3/3 125/3/3 126/3/3
f 128/4/3 126/4/3 123/4/3
f 128/4/3 127/4/3 126/4/3
f 129/4/3 127/4/3 128/4/3
f 130/4/3 127/4/3 129/4/3
f 132/4/3 130/4/3 129/4/3
f 132/4/3 131/4/3 130/4/3
f 135/4/3 132/4/3 129/4/3
f 135/4/3 133/4/3 132/4/3
f 136/4/3 133/4/3 135/4/3
f 137/4/3 133/4/3 136/4/3
f 138/4/3 135/4/3 134/4/3
f 138/4/3 136/4/3 135/4/3
f 139/4/3 136/4/3 138/4/3
f 140/1/3 137/1/3 136/1/3
f 140/4/3 136/4/3 139/4/3
f 141/1/3 137/1/3 140/1/3
f 142/1/3 137/1/3 141/1/3
f 144/4/3 140/4/3 139/4/3
f 144/4/3 141/4/3 140/4/3
f 145/4/3 141/4/3 144/4/3
f 146/4/3 141/4/3 145/4/3
f 147/4/3 144/4/3 143/4/3
f 147/4/3 145/4/3 144/4/3
f 148/4/3 145/4/3 147/4/3
f 149/4/3 147/4/3 143/4/3
f 150/2/3 148/2/3 147/2/3
f 150/4/3 147/4/3 149/4/3
f 151/2/3 148/2/3 150/2/3
f 155/4/3 153/4/3 152/4/3
f 158/4/3 155/4/3 154/4/3
f 159/4/3 153/4/3 155/4/3
f 159/4/3 155/4/3 158/4/3
f 160/4/3 153/4/3 159/4/3
f 161/4/3 153/4/3 160/4/3
f 162/4/3 160/4/3 159/4/3
f 163/4/3 160/4/3 162/4/3
f 165/4/3 157/4/3 156/4/3
f 166/4/3 157/4/3 165/4/3
f 167/4/3 164/4/3 163/4/3
f 171/4/3 164/4/3 167/4/3
f 172/4/3 164/4/3 171/4/3
f 173/1/3 171/1/3 170/1/3
f 174/1/3 171/1/3 173/1/3
f 175/4/3 169/4/3 168/4/3
f 176/4/3 169/4/3 175/4/3
f 179/4/3 178/4/3 177/4/3
f 180/4/3 178/4/3 179/4/3
f 181/4/3 178/4/3 180/4/3
f 184/4/3 183/4/3 182/4/3
f 185/4/3 183/4/3 184/4/3
f 186/4/3 183/4/3 185/4/3
f 187/4/3 183/4/3 186/4/3
f 188/4/4 189/4/4 190/4/4
f 190/4/4 189/4/4 191/4/4
f 191/4/4 189/4/4 192/4/4
f 192/4/4 189/4/4 193/4/4
f 194/4/4 195/4/4 197/4/4
f 196/4/4 197/4/4 200/4/4
f 197/4/4 195/4/4 201/4/4
f 200/4/4 197/4/4 201/4/4
f 201/4/4 195/4/4 202/4/4
f 202/4/4 195/4/4 203/4/4
f 201/4/4 202/4/4 204/4/4
f 204/4/4 202/4/4 205/4/4
f 198/4/4 199/4/4 207/4/4
f 207/4/4 199/4/4 208/4/4
f 205/4/4 206/4/4 209/4/4
f 209/4/4 206/4/4 213/4/4
f 213/4/4 206/4/4 214/4/4
f 212/1/4 213/1/4 215/1/4
f 215/1/4 213/1/4 216/1/4
f 210/4/4 211/4/4 217/4/4
f 217/4/4 211/4/4 218/4/4
f 219/4/4 220/4/4 221/4/4
f 221/4/4 220/4/4 222/4/4
f 222/4/4 220/4/4 223/4/4
f 224/4/4 225/4/4 227/4/4
f 225/3/4 226/3/4 227/3/4
f 227/3/4 226/3/4 228/3/4
f 224/4/4 227/4/4 229/4/4
f 227/4/4 228/4/4 229/4/4
f 229/4/4 228/4/4 230/4/4
f 230/4/4 228/4/4 231/4/4
f 230/4/4 231/4/4 233/4/4
f 231/4/4 232/4/4 233/4/4
f 230/4/4 233/4/4 236/4/4
f 233/4/4 234/4/4 236/4/4
f 236/4/4 234/4/4 237/4/4
f 237/4/4 234/4/4 238/4/4
f 235/4/4 236/4/4 239/4/4
f 236/4/4 237/4/4 239/4/4
f 239/4/4 237/4/4 240/4/4
f 237/1/4 238/1/4 241/1/4
f 240/4/4 237/4/4 241/4/4
f 241/1/4 238/1/4 242/1/4
f 242/1/4 238/1/4 243/1/4
f 240/4/4 241/4/4 245/4/4
f 241/4/4 242/4/4 245/4/4
f 245/4/4 242/4/4 246/4/4
f 246/4/4 242/4/4 247/4/4
f 244/4/4 245/4/4 248/4/4
f 245/4/4 246/4/4 248/4/4
f 248/4/4 246/4/4 249/4/4
f 244/4/4 248/4/4 250/4/4
f 248/2/4 249/2/4 251/2/4
f 250/4/4 248/4/4 251/4/4
f 251/2/4 249/2/4 252/2/4
f 259/4/5 254/4/5 253/4/5
f 260/4/5 256/4/5 255/4/5
f 261/4/5 256/4/5 260/4/5
f 262/4/5 258/4/5 257/4/5
f 263/4/5 261/4/5 260/4/5
f 263/4/5 262/4/5 261/4/5
f 263/4/5 259/4/5 253/4/5
f 263/4/5 260/4/5 259/4/5
f 264/4/5 262/4/5 263/4/5
f 265/4/5 262/4/5 264/4/5
f 266/4/5 258/4/5 262/4/5
f 266/4/5 262/4/5 265/4/5
f 267/4/5 263/4/5 253/4/5
f 268/4/5 263/4/5 267/4/5
f 269/4/5 265/4/5 264/4/5
f 270/4/5 265/4/5 269/4/5
f 271/4/5 258/4/5 266/4/5
f 272/4/5 258/4/5 271/4/5
f 277/4/5 274/4/5 273/4/5
f 278/4/5 274/4/5 277/4/5
f 279/4/5 276/4/5 275/4/5
f 280/4/5 276/4/5 279/4/5
f 285/4/5 282/4/5 281/4/5
f 286/4/5 282/4/5 285/4/5
f 287/4/5 284/4/5 283/4/5
f 288/4/5 284/4/5 287/4/5
f 291/4/5 290/4/5 289/4/5
f 292/4/5 290/4/5 291/4/5
f 295/4/5 294/4/5 293/4/5
f 296/4/5 294/4/5 295/4/5
f 297/3/6 298/3/6 303/3/6
f 298/4/6 299/4/6 303/4/6
f 303/4/6 299/4/6 304/4/6
f 300/4/6 301/4/6 305/4/6
f 301/2/6 302/2/6 306/2/6
f 305/4/6 301/4/6 306/4/6
f 306/2/6 302/2/6 307/2/6
f 297/3/6 303/3/6 308/3/6
f 308/3/6 303/3/6 309/3/6
f 308/4/6 309/4/6 310/4/6
f 310/4/6 309/4/6 311/4/6
f 310/3/6 311/3/6 312/3/6
f 310/3/6 312/3/6 317/3/6
f 312/4/6 313/4/6 318/4/6
f 317/3/6 312/3/6 318/3/6
f 318/4/6 313/4/6 319/4/6
f 314/4/6 315/4/6 320/4/6
f 315/2/6 316/2/6 321/2/6
f 320/4/6 315/4/6 321/4/6
f 321/2/6 316/2/6 322/2/6
f 323/4/6 324/4/6 327/4/6
f 327/4/6 324/4/6 328/4/6
f 325/4/6 326/4/6 329/4/6
f 329/4/6 326/4/6 330/4/6
f 330/4/6 326/4/6 331/4/6
f 331/4/6 332/4/6 336/4/6
f 330/4/6 331/4/6 336/4/6
f 336/4/6 332/4/6 337/4/6
f 337/4/6 332/4/6 338/4/6
f 333/4/6 334/4/6 339/4/6
f 339/4/6 334/4/6 340/4/6
f 335/4/6 336/4/6 341/4/6
f 336/4/6 337/4/6 341/4/6
f 341/4/6 337/4/6 342/4/6
f 343/4/6 344/4/6 347/4/6
f 344/1/6 345/1/6 348/1/6
f 347/4/6 344/4/6 348/4/6
f 348/1/6 345/1/6 349/1/6
f 346/4/6 347/4/6 352/4/6
f 351/4/6 352/4/6 353/4/6
f 352/4/6 347/4/6 354/4/6
f 353/4/6 352/4/6 354/4/6
f 354/4/6 347/4/6 355/4/6
f 355/4/6 347/4/6 356/4/6
f 349/1/6 350/1/6 358/1/6
f 358/1/6 350/1/6 359/1/6
f 356/4/6 357/4/6 360/4/6
f 357/1/6 358/1/6 361/1/6
f 360/4/6 357/4/6 361/4/6
f 361/1/6 358/1/6 362/1/6
f 363/4/6 364/4/6 367/4/6
f 367/4/6 364/4/6 368/4/6
f 369/4/6 370/4/6 371/4/6
f 371/4/6 370/4/6 372/4/6
f 365/4/6 366/4/6 373/4/6
f 373/4/6 366/4/6 374/4/6
