# MagicaVoxel @ Ephtracy

# group
o 

# material
mtllib car-trailer-v1-grey.mtl
usemtl palette

# normals
vn 1 0 0
vn -1 0 0
vn 0 0 -1
vn 0 0 1
vn 0 -1 0
vn 0 1 0

# texcoords
vt 0.818359 0.5
vt 0.869141 0.5
vt 0.908203 0.5

# verts
v 0.5 0.1 -0.3
v 0.5 0.1 0.3
v 0.5 0.2 -0.3
v 0.5 0.2 -0.1
v 0.5 0.2 0.1
v 0.5 0.2 0.3
v 0.5 0.3 -0.3
v 0.5 0.3 -0.1
v 0.5 0.3 0.1
v 0.5 0.3 0.3
v 0.5 0.4 -0.3
v 0.5 0.4 0.3
v 0 0.1 -0.3
v 0 0.1 -0.2
v 0 0.1 0.2
v 0 0.1 0.3
v 0 0.2 -0.3
v 0 0.2 -0.2
v 0 0.2 0.2
v 0 0.2 0.3
v -0.2 0.2 -0.2
v -0.2 0.2 0.2
v -0.2 0.4 -0.2
v -0.2 0.4 0.2
v 0.4 0.2 -0.2
v 0.4 0.2 -0.1
v 0.4 0.2 0.1
v 0.4 0.2 0.2
v 0.4 0.3 -0.2
v 0.4 0.3 -0.1
v 0.4 0.3 0.1
v 0.4 0.3 0.2
v 0.4 0.4 -0.2
v 0.4 0.4 0.2
v 0.2 0.1 -0.3
v 0.2 0.1 -0.2
v 0.2 0.1 0.2
v 0.2 0.1 0.3
v 0.2 0.2 -0.3
v 0.2 0.2 -0.2
v 0.2 0.2 0.2
v 0.2 0.2 0.3
v -0.3 0.1 -0.3
v -0.3 0.1 -0.1
v -0.3 0.1 0.1
v -0.3 0.1 0.3
v -0.3 0.2 -0.1
v -0.3 0.2 0.1
v -0.3 0.4 -0.3
v -0.3 0.4 0.3
v -0.5 0.1 -0.1
v -0.5 0.1 0.1
v -0.5 0.2 -0.1
v -0.5 0.2 0.1
v 0.5 0.1 -0.3
v 0.5 0.2 -0.3
v 0.5 0.3 -0.3
v 0.5 0.4 -0.3
v 0.4 0.2 -0.3
v 0.4 0.3 -0.3
v 0.2 0.1 -0.3
v 0.2 0.2 -0.3
v 0 0.1 -0.3
v 0 0.2 -0.3
v -0.3 0.1 -0.3
v -0.3 0.4 -0.3
v 0.2 0.1 -0.2
v 0.2 0.2 -0.2
v 0 0.1 -0.2
v 0 0.2 -0.2
v -0.3 0.1 -0.1
v -0.3 0.2 -0.1
v -0.5 0.1 -0.1
v -0.5 0.2 -0.1
v 0.4 0.2 0.2
v 0.4 0.3 0.2
v 0.4 0.4 0.2
v -0.2 0.2 0.2
v -0.2 0.4 0.2
v 0.4 0.2 -0.2
v 0.4 0.3 -0.2
v 0.4 0.4 -0.2
v -0.2 0.2 -0.2
v -0.2 0.4 -0.2
v -0.3 0.1 0.1
v -0.3 0.2 0.1
v -0.5 0.1 0.1
v -0.5 0.2 0.1
v 0.2 0.1 0.2
v 0.2 0.2 0.2
v 0 0.1 0.2
v 0 0.2 0.2
v 0.5 0.1 0.3
v 0.5 0.2 0.3
v 0.5 0.3 0.3
v 0.5 0.4 0.3
v 0.4 0.2 0.3
v 0.4 0.3 0.3
v 0.2 0.1 0.3
v 0.2 0.2 0.3
v 0 0.1 0.3
v 0 0.2 0.3
v -0.3 0.1 0.3
v -0.3 0.4 0.3
v 0.5 0.1 -0.3
v 0.2 0.1 -0.3
v 0 0.1 -0.3
v -0.3 0.1 -0.3
v 0.2 0.1 -0.2
v 0 0.1 -0.2
v -0.3 0.1 -0.1
v -0.5 0.1 -0.1
v -0.3 0.1 0.1
v -0.5 0.1 0.1
v 0.2 0.1 0.2
v 0 0.1 0.2
v 0.5 0.1 0.3
v 0.2 0.1 0.3
v 0 0.1 0.3
v -0.3 0.1 0.3
v 0.2 0.2 -0.3
v 0 0.2 -0.3
v 0.2 0.2 -0.2
v 0 0.2 -0.2
v 0.2 0.2 0.2
v 0 0.2 0.2
v 0.2 0.2 0.3
v 0 0.2 0.3
v 0.4 0.2 -0.2
v -0.2 0.2 -0.2
v 0.4 0.2 -0.1
v -0.3 0.2 -0.1
v -0.5 0.2 -0.1
v 0.4 0.2 0.1
v -0.3 0.2 0.1
v -0.5 0.2 0.1
v 0.4 0.2 0.2
v -0.2 0.2 0.2
v 0.5 0.4 -0.3
v -0.3 0.4 -0.3
v 0.4 0.4 -0.2
v -0.2 0.4 -0.2
v 0.4 0.4 0.2
v -0.2 0.4 0.2
v 0.5 0.4 0.3
v -0.3 0.4 0.3

# faces
f 3/2/1 2/2/1 1/2/1
f 4/2/1 2/2/1 3/2/1
f 5/2/1 2/2/1 4/2/1
f 6/2/1 2/2/1 5/2/1
f 7/3/1 4/3/1 3/3/1
f 8/2/1 5/2/1 4/2/1
f 8/3/1 4/3/1 7/3/1
f 9/3/1 6/3/1 5/3/1
f 9/2/1 5/2/1 8/2/1
f 10/3/1 6/3/1 9/3/1
f 11/2/1 8/2/1 7/2/1
f 11/2/1 9/2/1 8/2/1
f 11/2/1 10/2/1 9/2/1
f 12/2/1 10/2/1 11/2/1
f 17/2/1 14/2/1 13/2/1
f 18/2/1 14/2/1 17/2/1
f 19/2/1 16/2/1 15/2/1
f 20/2/1 16/2/1 19/2/1
f 23/2/1 22/2/1 21/2/1
f 24/2/1 22/2/1 23/2/1
f 25/3/2 26/3/2 29/3/2
f 26/2/2 27/2/2 30/2/2
f 29/3/2 26/3/2 30/3/2
f 27/3/2 28/3/2 31/3/2
f 30/2/2 27/2/2 31/2/2
f 31/3/2 28/3/2 32/3/2
f 29/2/2 30/2/2 33/2/2
f 30/2/2 31/2/2 33/2/2
f 31/2/2 32/2/2 33/2/2
f 33/2/2 32/2/2 34/2/2
f 35/2/2 36/2/2 39/2/2
f 39/2/2 36/2/2 40/2/2
f 37/2/2 38/2/2 41/2/2
f 41/2/2 38/2/2 42/2/2
f 43/2/2 44/2/2 47/2/2
f 45/2/2 46/2/2 48/2/2
f 43/2/2 47/2/2 49/2/2
f 47/2/2 48/2/2 49/2/2
f 48/2/2 46/2/2 50/2/2
f 49/2/2 48/2/2 50/2/2
f 51/1/2 52/1/2 53/1/2
f 53/1/2 52/1/2 54/1/2
f 59/2/3 56/2/3 55/2/3
f 59/3/3 57/3/3 56/3/3
f 60/2/3 58/2/3 57/2/3
f 60/3/3 57/3/3 59/3/3
f 61/2/3 59/2/3 55/2/3
f 61/2/3 60/2/3 59/2/3
f 62/2/3 60/2/3 61/2/3
f 64/2/3 60/2/3 62/2/3
f 65/2/3 64/2/3 63/2/3
f 66/2/3 58/2/3 60/2/3
f 66/2/3 64/2/3 65/2/3
f 66/2/3 60/2/3 64/2/3
f 69/2/3 68/2/3 67/2/3
f 70/2/3 68/2/3 69/2/3
f 73/1/3 72/1/3 71/1/3
f 74/1/3 72/1/3 73/1/3
f 78/2/3 76/2/3 75/2/3
f 78/2/3 77/2/3 76/2/3
f 79/2/3 77/2/3 78/2/3
f 80/2/4 81/2/4 83/2/4
f 81/2/4 82/2/4 83/2/4
f 83/2/4 82/2/4 84/2/4
f 85/1/4 86/1/4 87/1/4
f 87/1/4 86/1/4 88/1/4
f 89/2/4 90/2/4 91/2/4
f 91/2/4 90/2/4 92/2/4
f 93/2/4 94/2/4 97/2/4
f 94/3/4 95/3/4 97/3/4
f 95/2/4 96/2/4 98/2/4
f 97/3/4 95/3/4 98/3/4
f 93/2/4 97/2/4 99/2/4
f 97/2/4 98/2/4 99/2/4
f 99/2/4 98/2/4 100/2/4
f 100/2/4 98/2/4 102/2/4
f 101/2/4 102/2/4 103/2/4
f 98/2/4 96/2/4 104/2/4
f 103/2/4 102/2/4 104/2/4
f 102/2/4 98/2/4 104/2/4
f 109/2/5 106/2/5 105/2/5
f 110/2/5 108/2/5 107/2/5
f 111/2/5 108/2/5 110/2/5
f 111/2/5 110/2/5 109/2/5
f 113/2/5 111/2/5 109/2/5
f 113/1/5 112/1/5 111/1/5
f 114/1/5 112/1/5 113/1/5
f 115/2/5 109/2/5 105/2/5
f 115/2/5 113/2/5 109/2/5
f 116/2/5 113/2/5 115/2/5
f 117/2/5 115/2/5 105/2/5
f 118/2/5 115/2/5 117/2/5
f 119/2/5 113/2/5 116/2/5
f 120/2/5 113/2/5 119/2/5
f 123/2/5 122/2/5 121/2/5
f 124/2/5 122/2/5 123/2/5
f 127/2/5 126/2/5 125/2/5
f 128/2/5 126/2/5 127/2/5
f 129/2/6 130/2/6 131/2/6
f 131/2/6 130/2/6 134/2/6
f 132/1/6 133/1/6 135/1/6
f 135/1/6 133/1/6 136/1/6
f 134/2/6 130/2/6 137/2/6
f 137/2/6 130/2/6 138/2/6
f 139/2/6 140/2/6 141/2/6
f 141/2/6 140/2/6 142/2/6
f 139/2/6 141/2/6 143/2/6
f 142/2/6 140/2/6 144/2/6
f 139/2/6 143/2/6 145/2/6
f 143/2/6 144/2/6 145/2/6
f 144/2/6 140/2/6 146/2/6
f 145/2/6 144/2/6 146/2/6
