# MagicaVoxel @ Ephtracy

# group
o 

# material
mtllib train-trailer-v4-green.mtl
usemtl palette

# normals
vn 1 0 0
vn -1 0 0
vn 0 0 -1
vn 0 0 1
vn 0 -1 0
vn 0 1 0

# texcoords
vt 0.818359 0.5
vt 0.826172 0.5
vt 0.974609 0.5

# verts
v 1.5 0.1 -0.2
v 1.5 0.1 0.2
v 1.5 0.2 -0.2
v 1.5 0.2 0.2
v 1.5 0.4 -0.1
v 1.5 0.4 0.1
v 1.5 0.6 -0.1
v 1.5 0.6 0.1
v 1.5 0.7 -0.2
v 1.5 0.7 0.2
v 1.4 0.1 -0.3
v 1.4 0.1 -0.2
v 1.4 0.1 0.2
v 1.4 0.1 0.3
v 1.4 0.2 -0.3
v 1.4 0.2 -0.2
v 1.4 0.2 0.2
v 1.4 0.2 0.3
v 1.4 0.7 -0.3
v 1.4 0.7 -0.2
v 1.4 0.7 0.2
v 1.4 0.7 0.3
v 1.4 0.8 -0.2
v 1.4 0.8 0.2
v 1 0.1 -0.3
v 1 0.1 -0.2
v 1 0.1 0.2
v 1 0.1 0.3
v 1 0.2 -0.3
v 1 0.2 -0.2
v 1 0.2 0.2
v 1 0.2 0.3
v 0.7 0.1 -0.3
v 0.7 0.1 -0.2
v 0.7 0.1 0.2
v 0.7 0.1 0.3
v 0.7 0.2 -0.3
v 0.7 0.2 -0.2
v 0.7 0.2 0.2
v 0.7 0.2 0.3
v -0.6 0.1 -0.3
v -0.6 0.1 -0.2
v -0.6 0.1 0.2
v -0.6 0.1 0.3
v -0.6 0.2 -0.3
v -0.6 0.2 -0.2
v -0.6 0.2 0.2
v -0.6 0.2 0.3
v -0.9 0.1 -0.3
v -0.9 0.1 -0.2
v -0.9 0.1 0.2
v -0.9 0.1 0.3
v -0.9 0.2 -0.3
v -0.9 0.2 -0.2
v -0.9 0.2 0.2
v -0.9 0.2 0.3
v 1.2 0.1 -0.3
v 1.2 0.1 -0.2
v 1.2 0.1 0.2
v 1.2 0.1 0.3
v 1.2 0.2 -0.3
v 1.2 0.2 -0.2
v 1.2 0.2 0.2
v 1.2 0.2 0.3
v 0.9 0.1 -0.3
v 0.9 0.1 -0.2
v 0.9 0.1 0.2
v 0.9 0.1 0.3
v 0.9 0.2 -0.3
v 0.9 0.2 -0.2
v 0.9 0.2 0.2
v 0.9 0.2 0.3
v -0.4 0.1 -0.3
v -0.4 0.1 -0.2
v -0.4 0.1 0.2
v -0.4 0.1 0.3
v -0.4 0.2 -0.3
v -0.4 0.2 -0.2
v -0.4 0.2 0.2
v -0.4 0.2 0.3
v -0.7 0.1 -0.3
v -0.7 0.1 -0.2
v -0.7 0.1 0.2
v -0.7 0.1 0.3
v -0.7 0.2 -0.3
v -0.7 0.2 -0.2
v -0.7 0.2 0.2
v -0.7 0.2 0.3
v -1.1 0.1 -0.3
v -1.1 0.1 -0.2
v -1.1 0.1 0.2
v -1.1 0.1 0.3
v -1.1 0.2 -0.3
v -1.1 0.2 -0.2
v -1.1 0.2 0.2
v -1.1 0.2 0.3
v -1.1 0.7 -0.3
v -1.1 0.7 -0.2
v -1.1 0.7 0.2
v -1.1 0.7 0.3
v -1.1 0.8 -0.2
v -1.1 0.8 0.2
v -1.2 0.1 -0.2
v -1.2 0.1 -0.1
v -1.2 0.1 0.1
v -1.2 0.1 0.2
v -1.2 0.2 -0.2
v -1.2 0.2 -0.1
v -1.2 0.2 0.1
v -1.2 0.2 0.2
v -1.2 0.4 -0.1
v -1.2 0.4 0.1
v -1.2 0.6 -0.1
v -1.2 0.6 0.1
v -1.2 0.7 -0.2
v -1.2 0.7 0.2
v -1.5 0.1 -0.1
v -1.5 0.1 0.1
v -1.5 0.2 -0.1
v -1.5 0.2 0.1
v 1.4 0.1 -0.3
v 1.4 0.2 -0.3
v 1.4 0.7 -0.3
v 1.3 0.4 -0.3
v 1.3 0.6 -0.3
v 1.2 0.1 -0.3
v 1.2 0.2 -0.3
v 1 0.1 -0.3
v 1 0.2 -0.3
v 0.9 0.1 -0.3
v 0.9 0.2 -0.3
v 0.8 0.4 -0.3
v 0.8 0.6 -0.3
v 0.7 0.1 -0.3
v 0.7 0.2 -0.3
v 0.7 0.4 -0.3
v 0.7 0.6 -0.3
v 0.2 0.4 -0.3
v 0.2 0.6 -0.3
v 0.1 0.4 -0.3
v 0.1 0.6 -0.3
v -0.4 0.1 -0.3
v -0.4 0.2 -0.3
v -0.4 0.4 -0.3
v -0.4 0.6 -0.3
v -0.5 0.4 -0.3
v -0.5 0.6 -0.3
v -0.6 0.1 -0.3
v -0.6 0.2 -0.3
v -0.7 0.1 -0.3
v -0.7 0.2 -0.3
v -0.9 0.1 -0.3
v -0.9 0.2 -0.3
v -1 0.4 -0.3
v -1 0.6 -0.3
v -1.1 0.1 -0.3
v -1.1 0.2 -0.3
v -1.1 0.7 -0.3
v 1.5 0.1 -0.2
v 1.5 0.2 -0.2
v 1.5 0.7 -0.2
v 1.4 0.1 -0.2
v 1.4 0.2 -0.2
v 1.4 0.7 -0.2
v 1.4 0.8 -0.2
v 1.2 0.1 -0.2
v 1.2 0.2 -0.2
v 1 0.1 -0.2
v 1 0.2 -0.2
v 0.9 0.1 -0.2
v 0.9 0.2 -0.2
v 0.7 0.1 -0.2
v 0.7 0.2 -0.2
v -0.4 0.1 -0.2
v -0.4 0.2 -0.2
v -0.6 0.1 -0.2
v -0.6 0.2 -0.2
v -0.7 0.1 -0.2
v -0.7 0.2 -0.2
v -0.9 0.1 -0.2
v -0.9 0.2 -0.2
v -1.1 0.1 -0.2
v -1.1 0.2 -0.2
v -1.1 0.7 -0.2
v -1.1 0.8 -0.2
v -1.2 0.1 -0.2
v -1.2 0.2 -0.2
v -1.2 0.7 -0.2
v -1.2 0.1 -0.1
v -1.2 0.2 -0.1
v -1.5 0.1 -0.1
v -1.5 0.2 -0.1
v -1.2 0.1 0.1
v -1.2 0.2 0.1
v -1.5 0.1 0.1
v -1.5 0.2 0.1
v 1.5 0.1 0.2
v 1.5 0.2 0.2
v 1.5 0.7 0.2
v 1.4 0.1 0.2
v 1.4 0.2 0.2
v 1.4 0.7 0.2
v 1.4 0.8 0.2
v 1.2 0.1 0.2
v 1.2 0.2 0.2
v 1 0.1 0.2
v 1 0.2 0.2
v 0.9 0.1 0.2
v 0.9 0.2 0.2
v 0.7 0.1 0.2
v 0.7 0.2 0.2
v -0.4 0.1 0.2
v -0.4 0.2 0.2
v -0.6 0.1 0.2
v -0.6 0.2 0.2
v -0.7 0.1 0.2
v -0.7 0.2 0.2
v -0.9 0.1 0.2
v -0.9 0.2 0.2
v -1.1 0.1 0.2
v -1.1 0.2 0.2
v -1.1 0.7 0.2
v -1.1 0.8 0.2
v -1.2 0.1 0.2
v -1.2 0.2 0.2
v -1.2 0.7 0.2
v 1.4 0.1 0.3
v 1.4 0.2 0.3
v 1.4 0.7 0.3
v 1.3 0.4 0.3
v 1.3 0.6 0.3
v 1.2 0.1 0.3
v 1.2 0.2 0.3
v 1 0.1 0.3
v 1 0.2 0.3
v 0.9 0.1 0.3
v 0.9 0.2 0.3
v 0.8 0.4 0.3
v 0.8 0.6 0.3
v 0.7 0.1 0.3
v 0.7 0.2 0.3
v 0.7 0.4 0.3
v 0.7 0.6 0.3
v 0.2 0.4 0.3
v 0.2 0.6 0.3
v 0.1 0.4 0.3
v 0.1 0.6 0.3
v -0.4 0.1 0.3
v -0.4 0.2 0.3
v -0.4 0.4 0.3
v -0.4 0.6 0.3
v -0.5 0.4 0.3
v -0.5 0.6 0.3
v -0.6 0.1 0.3
v -0.6 0.2 0.3
v -0.7 0.1 0.3
v -0.7 0.2 0.3
v -0.9 0.1 0.3
v -0.9 0.2 0.3
v -1 0.4 0.3
v -1 0.6 0.3
v -1.1 0.1 0.3
v -1.1 0.2 0.3
v -1.1 0.7 0.3
v 1.4 0.1 -0.3
v 1.2 0.1 -0.3
v 1 0.1 -0.3
v 0.9 0.1 -0.3
v 0.7 0.1 -0.3
v -0.4 0.1 -0.3
v -0.6 0.1 -0.3
v -0.7 0.1 -0.3
v -0.9 0.1 -0.3
v -1.1 0.1 -0.3
v 1.5 0.1 -0.2
v 1.4 0.1 -0.2
v 1.2 0.1 -0.2
v 1 0.1 -0.2
v 0.9 0.1 -0.2
v 0.7 0.1 -0.2
v -0.4 0.1 -0.2
v -0.6 0.1 -0.2
v -0.7 0.1 -0.2
v -0.9 0.1 -0.2
v -1.1 0.1 -0.2
v -1.2 0.1 -0.2
v -1.2 0.1 -0.1
v -1.5 0.1 -0.1
v -1.2 0.1 0.1
v -1.5 0.1 0.1
v 1.5 0.1 0.2
v 1.4 0.1 0.2
v 1.2 0.1 0.2
v 1 0.1 0.2
v 0.9 0.1 0.2
v 0.7 0.1 0.2
v -0.4 0.1 0.2
v -0.6 0.1 0.2
v -0.7 0.1 0.2
v -0.9 0.1 0.2
v -1.1 0.1 0.2
v -1.2 0.1 0.2
v 1.4 0.1 0.3
v 1.2 0.1 0.3
v 1 0.1 0.3
v 0.9 0.1 0.3
v 0.7 0.1 0.3
v -0.4 0.1 0.3
v -0.6 0.1 0.3
v -0.7 0.1 0.3
v -0.9 0.1 0.3
v -1.1 0.1 0.3
v 1.2 0.2 -0.3
v 1 0.2 -0.3
v 0.9 0.2 -0.3
v 0.7 0.2 -0.3
v -0.4 0.2 -0.3
v -0.6 0.2 -0.3
v -0.7 0.2 -0.3
v -0.9 0.2 -0.3
v 1.2 0.2 -0.2
v 1 0.2 -0.2
v 0.9 0.2 -0.2
v 0.7 0.2 -0.2
v -0.4 0.2 -0.2
v -0.6 0.2 -0.2
v -0.7 0.2 -0.2
v -0.9 0.2 -0.2
v 1.2 0.2 0.2
v 1 0.2 0.2
v 0.9 0.2 0.2
v 0.7 0.2 0.2
v -0.4 0.2 0.2
v -0.6 0.2 0.2
v -0.7 0.2 0.2
v -0.9 0.2 0.2
v 1.2 0.2 0.3
v 1 0.2 0.3
v 0.9 0.2 0.3
v 0.7 0.2 0.3
v -0.4 0.2 0.3
v -0.6 0.2 0.3
v -0.7 0.2 0.3
v -0.9 0.2 0.3
v -1.2 0.2 -0.1
v -1.5 0.2 -0.1
v -1.2 0.2 0.1
v -1.5 0.2 0.1
v 1.4 0.7 -0.3
v -1.1 0.7 -0.3
v 1.5 0.7 -0.2
v 1.4 0.7 -0.2
v -1.1 0.7 -0.2
v -1.2 0.7 -0.2
v 1.5 0.7 0.2
v 1.4 0.7 0.2
v -1.1 0.7 0.2
v -1.2 0.7 0.2
v 1.4 0.7 0.3
v -1.1 0.7 0.3
v 1.4 0.8 -0.2
v -1.1 0.8 -0.2
v 1.4 0.8 0.2
v -1.1 0.8 0.2

# faces
f 3/1/1 2/1/1 1/1/1
f 4/1/1 2/1/1 3/1/1
f 5/3/1 4/3/1 3/3/1
f 6/3/1 4/3/1 5/3/1
f 7/3/1 5/3/1 3/3/1
f 7/2/1 6/2/1 5/2/1
f 8/3/1 4/3/1 6/3/1
f 8/2/1 6/2/1 7/2/1
f 9/3/1 7/3/1 3/3/1
f 9/3/1 8/3/1 7/3/1
f 10/3/1 4/3/1 8/3/1
f 10/3/1 8/3/1 9/3/1
f 15/1/1 12/1/1 11/1/1
f 16/1/1 12/1/1 15/1/1
f 17/1/1 14/1/1 13/1/1
f 18/1/1 14/1/1 17/1/1
f 19/3/1 16/3/1 15/3/1
f 20/3/1 16/3/1 19/3/1
f 21/3/1 18/3/1 17/3/1
f 22/3/1 18/3/1 21/3/1
f 23/3/1 21/3/1 20/3/1
f 24/3/1 21/3/1 23/3/1
f 29/1/1 26/1/1 25/1/1
f 30/1/1 26/1/1 29/1/1
f 31/1/1 28/1/1 27/1/1
f 32/1/1 28/1/1 31/1/1
f 37/1/1 34/1/1 33/1/1
f 38/1/1 34/1/1 37/1/1
f 39/1/1 36/1/1 35/1/1
f 40/1/1 36/1/1 39/1/1
f 45/1/1 42/1/1 41/1/1
f 46/1/1 42/1/1 45/1/1
f 47/1/1 44/1/1 43/1/1
f 48/1/1 44/1/1 47/1/1
f 53/1/1 50/1/1 49/1/1
f 54/1/1 50/1/1 53/1/1
f 55/1/1 52/1/1 51/1/1
f 56/1/1 52/1/1 55/1/1
f 57/1/2 58/1/2 61/1/2
f 61/1/2 58/1/2 62/1/2
f 59/1/2 60/1/2 63/1/2
f 63/1/2 60/1/2 64/1/2
f 65/1/2 66/1/2 69/1/2
f 69/1/2 66/1/2 70/1/2
f 67/1/2 68/1/2 71/1/2
f 71/1/2 68/1/2 72/1/2
f 73/1/2 74/1/2 77/1/2
f 77/1/2 74/1/2 78/1/2
f 75/1/2 76/1/2 79/1/2
f 79/1/2 76/1/2 80/1/2
f 81/1/2 82/1/2 85/1/2
f 85/1/2 82/1/2 86/1/2
f 83/1/2 84/1/2 87/1/2
f 87/1/2 84/1/2 88/1/2
f 89/1/2 90/1/2 93/1/2
f 93/1/2 90/1/2 94/1/2
f 91/1/2 92/1/2 95/1/2
f 95/1/2 92/1/2 96/1/2
f 93/3/2 94/3/2 97/3/2
f 97/3/2 94/3/2 98/3/2
f 95/3/2 96/3/2 99/3/2
f 99/3/2 96/3/2 100/3/2
f 98/3/2 99/3/2 101/3/2
f 101/3/2 99/3/2 102/3/2
f 103/1/2 104/1/2 107/1/2
f 107/1/2 104/1/2 108/1/2
f 105/1/2 106/1/2 109/1/2
f 109/1/2 106/1/2 110/1/2
f 107/3/2 108/3/2 111/3/2
f 108/3/2 109/3/2 111/3/2
f 109/3/2 110/3/2 111/3/2
f 111/3/2 110/3/2 112/3/2
f 107/3/2 111/3/2 113/3/2
f 111/2/2 112/2/2 113/2/2
f 112/3/2 110/3/2 114/3/2
f 113/2/2 112/2/2 114/2/2
f 107/3/2 113/3/2 115/3/2
f 113/3/2 114/3/2 115/3/2
f 114/3/2 110/3/2 116/3/2
f 115/3/2 114/3/2 116/3/2
f 117/1/2 118/1/2 119/1/2
f 119/1/2 118/1/2 120/1/2
f 124/3/3 123/3/3 122/3/3
f 125/3/3 123/3/3 124/3/3
f 126/1/3 122/1/3 121/1/3
f 127/3/3 124/3/3 122/3/3
f 127/1/3 122/1/3 126/1/3
f 129/3/3 124/3/3 127/3/3
f 130/1/3 129/1/3 128/1/3
f 131/3/3 124/3/3 129/3/3
f 131/1/3 129/1/3 130/1/3
f 132/2/3 125/2/3 124/2/3
f 132/3/3 124/3/3 131/3/3
f 133/3/3 123/3/3 125/3/3
f 133/2/3 125/2/3 132/2/3
f 135/3/3 132/3/3 131/3/3
f 135/3/3 133/3/3 132/3/3
f 136/3/3 133/3/3 135/3/3
f 137/3/3 123/3/3 133/3/3
f 137/3/3 133/3/3 136/3/3
f 138/3/3 136/3/3 135/3/3
f 138/2/3 137/2/3 136/2/3
f 139/3/3 123/3/3 137/3/3
f 139/2/3 137/2/3 138/2/3
f 140/3/3 138/3/3 135/3/3
f 140/3/3 139/3/3 138/3/3
f 141/3/3 123/3/3 139/3/3
f 141/3/3 139/3/3 140/3/3
f 142/1/3 135/1/3 134/1/3
f 143/3/3 140/3/3 135/3/3
f 143/1/3 135/1/3 142/1/3
f 144/2/3 141/2/3 140/2/3
f 144/3/3 140/3/3 143/3/3
f 145/3/3 123/3/3 141/3/3
f 145/2/3 141/2/3 144/2/3
f 146/3/3 144/3/3 143/3/3
f 146/3/3 145/3/3 144/3/3
f 147/3/3 123/3/3 145/3/3
f 147/3/3 145/3/3 146/3/3
f 149/3/3 146/3/3 143/3/3
f 150/1/3 149/1/3 148/1/3
f 151/3/3 146/3/3 149/3/3
f 151/1/3 149/1/3 150/1/3
f 153/3/3 146/3/3 151/3/3
f 154/2/3 147/2/3 146/2/3
f 154/3/3 146/3/3 153/3/3
f 155/3/3 123/3/3 147/3/3
f 155/2/3 147/2/3 154/2/3
f 156/1/3 153/1/3 152/1/3
f 157/3/3 154/3/3 153/3/3
f 157/1/3 153/1/3 156/1/3
f 157/3/3 155/3/3 154/3/3
f 158/3/3 123/3/3 155/3/3
f 158/3/3 155/3/3 157/3/3
f 162/1/3 160/1/3 159/1/3
f 163/3/3 161/3/3 160/3/3
f 163/1/3 160/1/3 162/1/3
f 164/3/3 161/3/3 163/3/3
f 168/1/3 167/1/3 166/1/3
f 169/1/3 167/1/3 168/1/3
f 172/1/3 171/1/3 170/1/3
f 173/1/3 171/1/3 172/1/3
f 176/1/3 175/1/3 174/1/3
f 177/1/3 175/1/3 176/1/3
f 180/1/3 179/1/3 178/1/3
f 181/1/3 179/1/3 180/1/3
f 184/3/3 165/3/3 164/3/3
f 185/3/3 165/3/3 184/3/3
f 186/1/3 183/1/3 182/1/3
f 187/3/3 184/3/3 183/3/3
f 187/1/3 183/1/3 186/1/3
f 188/3/3 184/3/3 187/3/3
f 191/1/3 190/1/3 189/1/3
f 192/1/3 190/1/3 191/1/3
f 193/1/4 194/1/4 195/1/4
f 195/1/4 194/1/4 196/1/4
f 197/1/4 198/1/4 200/1/4
f 198/3/4 199/3/4 201/3/4
f 200/1/4 198/1/4 201/1/4
f 201/3/4 199/3/4 202/3/4
f 204/1/4 205/1/4 206/1/4
f 206/1/4 205/1/4 207/1/4
f 208/1/4 209/1/4 210/1/4
f 210/1/4 209/1/4 211/1/4
f 212/1/4 213/1/4 214/1/4
f 214/1/4 213/1/4 215/1/4
f 216/1/4 217/1/4 218/1/4
f 218/1/4 217/1/4 219/1/4
f 202/3/4 203/3/4 222/3/4
f 222/3/4 203/3/4 223/3/4
f 220/1/4 221/1/4 224/1/4
f 221/3/4 222/3/4 225/3/4
f 224/1/4 221/1/4 225/1/4
f 225/3/4 222/3/4 226/3/4
f 228/3/4 229/3/4 230/3/4
f 230/3/4 229/3/4 231/3/4
f 227/1/4 228/1/4 232/1/4
f 228/3/4 230/3/4 233/3/4
f 232/1/4 228/1/4 233/1/4
f 233/3/4 230/3/4 235/3/4
f 234/1/4 235/1/4 236/1/4
f 235/3/4 230/3/4 237/3/4
f 236/1/4 235/1/4 237/1/4
f 230/2/4 231/2/4 238/2/4
f 237/3/4 230/3/4 238/3/4
f 231/3/4 229/3/4 239/3/4
f 238/2/4 231/2/4 239/2/4
f 237/3/4 238/3/4 241/3/4
f 238/3/4 239/3/4 241/3/4
f 241/3/4 239/3/4 242/3/4
f 239/3/4 229/3/4 243/3/4
f 242/3/4 239/3/4 243/3/4
f 241/3/4 242/3/4 244/3/4
f 242/2/4 243/2/4 244/2/4
f 243/3/4 229/3/4 245/3/4
f 244/2/4 243/2/4 245/2/4
f 241/3/4 244/3/4 246/3/4
f 244/3/4 245/3/4 246/3/4
f 245/3/4 229/3/4 247/3/4
f 246/3/4 245/3/4 247/3/4
f 240/1/4 241/1/4 248/1/4
f 241/3/4 246/3/4 249/3/4
f 248/1/4 241/1/4 249/1/4
f 246/2/4 247/2/4 250/2/4
f 249/3/4 246/3/4 250/3/4
f 247/3/4 229/3/4 251/3/4
f 250/2/4 247/2/4 251/2/4
f 249/3/4 250/3/4 252/3/4
f 250/3/4 251/3/4 252/3/4
f 251/3/4 229/3/4 253/3/4
f 252/3/4 251/3/4 253/3/4
f 249/3/4 252/3/4 255/3/4
f 254/1/4 255/1/4 256/1/4
f 255/3/4 252/3/4 257/3/4
f 256/1/4 255/1/4 257/1/4
f 257/3/4 252/3/4 259/3/4
f 252/2/4 253/2/4 260/2/4
f 259/3/4 252/3/4 260/3/4
f 253/3/4 229/3/4 261/3/4
f 260/2/4 253/2/4 261/2/4
f 258/1/4 259/1/4 262/1/4
f 259/3/4 260/3/4 263/3/4
f 262/1/4 259/1/4 263/1/4
f 260/3/4 261/3/4 263/3/4
f 261/3/4 229/3/4 264/3/4
f 263/3/4 261/3/4 264/3/4
f 276/1/5 266/1/5 265/1/5
f 277/1/5 266/1/5 276/1/5
f 278/1/5 268/1/5 267/1/5
f 279/1/5 268/1/5 278/1/5
f 280/1/5 270/1/5 269/1/5
f 281/1/5 270/1/5 280/1/5
f 282/1/5 272/1/5 271/1/5
f 283/1/5 272/1/5 282/1/5
f 284/1/5 274/1/5 273/1/5
f 285/1/5 274/1/5 284/1/5
f 287/1/5 283/1/5 282/1/5
f 287/1/5 286/1/5 285/1/5
f 287/1/5 285/1/5 284/1/5
f 287/1/5 284/1/5 283/1/5
f 287/1/5 277/1/5 276/1/5
f 287/1/5 282/1/5 281/1/5
f 287/1/5 279/1/5 278/1/5
f 287/1/5 280/1/5 279/1/5
f 287/1/5 281/1/5 280/1/5
f 287/1/5 278/1/5 277/1/5
f 287/1/5 276/1/5 275/1/5
f 289/1/5 287/1/5 275/1/5
f 289/1/5 288/1/5 287/1/5
f 290/1/5 288/1/5 289/1/5
f 291/1/5 289/1/5 275/1/5
f 292/1/5 289/1/5 291/1/5
f 293/1/5 289/1/5 292/1/5
f 294/1/5 289/1/5 293/1/5
f 295/1/5 289/1/5 294/1/5
f 296/1/5 289/1/5 295/1/5
f 297/1/5 289/1/5 296/1/5
f 298/1/5 289/1/5 297/1/5
f 299/1/5 289/1/5 298/1/5
f 300/1/5 289/1/5 299/1/5
f 301/1/5 289/1/5 300/1/5
f 302/1/5 289/1/5 301/1/5
f 303/1/5 293/1/5 292/1/5
f 304/1/5 293/1/5 303/1/5
f 305/1/5 295/1/5 294/1/5
f 306/1/5 295/1/5 305/1/5
f 307/1/5 297/1/5 296/1/5
f 308/1/5 297/1/5 307/1/5
f 309/1/5 299/1/5 298/1/5
f 310/1/5 299/1/5 309/1/5
f 311/1/5 301/1/5 300/1/5
f 312/1/5 301/1/5 311/1/5
f 321/3/5 314/3/5 313/3/5
f 322/3/5 314/3/5 321/3/5
f 323/3/5 316/3/5 315/3/5
f 324/3/5 316/3/5 323/3/5
f 325/3/5 318/3/5 317/3/5
f 326/3/5 318/3/5 325/3/5
f 327/3/5 320/3/5 319/3/5
f 328/3/5 320/3/5 327/3/5
f 337/3/5 330/3/5 329/3/5
f 338/3/5 330/3/5 337/3/5
f 339/3/5 332/3/5 331/3/5
f 340/3/5 332/3/5 339/3/5
f 341/3/5 334/3/5 333/3/5
f 342/3/5 334/3/5 341/3/5
f 343/3/5 336/3/5 335/3/5
f 344/3/5 336/3/5 343/3/5
f 345/1/6 346/1/6 347/1/6
f 347/1/6 346/1/6 348/1/6
f 349/3/6 350/3/6 352/3/6
f 352/3/6 350/3/6 353/3/6
f 351/3/6 352/3/6 355/3/6
f 355/3/6 352/3/6 356/3/6
f 353/3/6 354/3/6 357/3/6
f 357/3/6 354/3/6 358/3/6
f 356/3/6 357/3/6 359/3/6
f 359/3/6 357/3/6 360/3/6
f 361/3/6 362/3/6 363/3/6
f 363/3/6 362/3/6 364/3/6
