# MagicaVoxel @ Ephtracy

# group
o 

# material
mtllib train-trailer-v7-orange.mtl
usemtl palette

# normals
vn 1 0 0
vn -1 0 0
vn 0 0 -1
vn 0 0 1
vn 0 -1 0
vn 0 1 0

# texcoords
vt 0.818359 0.5
vt 0.982422 0.5

# verts
v 1.3 0.1 -0.3
v 1.3 0.1 0.3
v 1.3 0.2 -0.3
v 1.3 0.2 0.3
v 1.3 0.3 -0.3
v 1.3 0.3 0.3
v 1.2 0.3 -0.2
v 1.2 0.3 0.2
v 1.2 0.4 -0.2
v 1.2 0.4 0.2
v 0.9 0.1 -0.3
v 0.9 0.1 -0.2
v 0.9 0.1 0.2
v 0.9 0.1 0.3
v 0.9 0.2 -0.3
v 0.9 0.2 -0.2
v 0.9 0.2 0.2
v 0.9 0.2 0.3
v 0.6 0.1 -0.3
v 0.6 0.1 -0.2
v 0.6 0.1 0.2
v 0.6 0.1 0.3
v 0.6 0.2 -0.3
v 0.6 0.2 -0.2
v 0.6 0.2 0.2
v 0.6 0.2 0.3
v -0.5 0.1 -0.3
v -0.5 0.1 -0.2
v -0.5 0.1 0.2
v -0.5 0.1 0.3
v -0.5 0.2 -0.3
v -0.5 0.2 -0.2
v -0.5 0.2 0.2
v -0.5 0.2 0.3
v -0.8 0.1 -0.3
v -0.8 0.1 -0.2
v -0.8 0.1 0.2
v -0.8 0.1 0.3
v -0.8 0.2 -0.3
v -0.8 0.2 -0.2
v -0.8 0.2 0.2
v -0.8 0.2 0.3
v 1.1 0.1 -0.3
v 1.1 0.1 -0.2
v 1.1 0.1 0.2
v 1.1 0.1 0.3
v 1.1 0.2 -0.3
v 1.1 0.2 -0.2
v 1.1 0.2 0.2
v 1.1 0.2 0.3
v 0.8 0.1 -0.3
v 0.8 0.1 -0.2
v 0.8 0.1 0.2
v 0.8 0.1 0.3
v 0.8 0.2 -0.3
v 0.8 0.2 -0.2
v 0.8 0.2 0.2
v 0.8 0.2 0.3
v -0.3 0.1 -0.3
v -0.3 0.1 -0.2
v -0.3 0.1 0.2
v -0.3 0.1 0.3
v -0.3 0.2 -0.3
v -0.3 0.2 -0.2
v -0.3 0.2 0.2
v -0.3 0.2 0.3
v -0.6 0.1 -0.3
v -0.6 0.1 -0.2
v -0.6 0.1 0.2
v -0.6 0.1 0.3
v -0.6 0.2 -0.3
v -0.6 0.2 -0.2
v -0.6 0.2 0.2
v -0.6 0.2 0.3
v -0.9 0.3 -0.2
v -0.9 0.3 0.2
v -0.9 0.4 -0.2
v -0.9 0.4 0.2
v -1 0.1 -0.3
v -1 0.1 -0.1
v -1 0.1 0.1
v -1 0.1 0.3
v -1 0.2 -0.3
v -1 0.2 -0.1
v -1 0.2 0.1
v -1 0.2 0.3
v -1 0.3 -0.3
v -1 0.3 0.3
v -1.3 0.1 -0.1
v -1.3 0.1 0.1
v -1.3 0.2 -0.1
v -1.3 0.2 0.1
v 1.3 0.1 -0.3
v 1.3 0.2 -0.3
v 1.3 0.3 -0.3
v 1.1 0.1 -0.3
v 1.1 0.2 -0.3
v 0.9 0.1 -0.3
v 0.9 0.2 -0.3
v 0.8 0.1 -0.3
v 0.8 0.2 -0.3
v 0.6 0.1 -0.3
v 0.6 0.2 -0.3
v -0.3 0.1 -0.3
v -0.3 0.2 -0.3
v -0.5 0.1 -0.3
v -0.5 0.2 -0.3
v -0.6 0.1 -0.3
v -0.6 0.2 -0.3
v -0.8 0.1 -0.3
v -0.8 0.2 -0.3
v -1 0.1 -0.3
v -1 0.2 -0.3
v -1 0.3 -0.3
v 1.2 0.3 -0.2
v 1.2 0.4 -0.2
v 1.1 0.1 -0.2
v 1.1 0.2 -0.2
v 0.9 0.1 -0.2
v 0.9 0.2 -0.2
v 0.8 0.1 -0.2
v 0.8 0.2 -0.2
v 0.6 0.1 -0.2
v 0.6 0.2 -0.2
v -0.3 0.1 -0.2
v -0.3 0.2 -0.2
v -0.5 0.1 -0.2
v -0.5 0.2 -0.2
v -0.6 0.1 -0.2
v -0.6 0.2 -0.2
v -0.8 0.1 -0.2
v -0.8 0.2 -0.2
v -0.9 0.3 -0.2
v -0.9 0.4 -0.2
v -1 0.1 -0.1
v -1 0.2 -0.1
v -1.3 0.1 -0.1
v -1.3 0.2 -0.1
v -1 0.1 0.1
v -1 0.2 0.1
v -1.3 0.1 0.1
v -1.3 0.2 0.1
v 1.2 0.3 0.2
v 1.2 0.4 0.2
v 1.1 0.1 0.2
v 1.1 0.2 0.2
v 0.9 0.1 0.2
v 0.9 0.2 0.2
v 0.8 0.1 0.2
v 0.8 0.2 0.2
v 0.6 0.1 0.2
v 0.6 0.2 0.2
v -0.3 0.1 0.2
v -0.3 0.2 0.2
v -0.5 0.1 0.2
v -0.5 0.2 0.2
v -0.6 0.1 0.2
v -0.6 0.2 0.2
v -0.8 0.1 0.2
v -0.8 0.2 0.2
v -0.9 0.3 0.2
v -0.9 0.4 0.2
v 1.3 0.1 0.3
v 1.3 0.2 0.3
v 1.3 0.3 0.3
v 1.1 0.1 0.3
v 1.1 0.2 0.3
v 0.9 0.1 0.3
v 0.9 0.2 0.3
v 0.8 0.1 0.3
v 0.8 0.2 0.3
v 0.6 0.1 0.3
v 0.6 0.2 0.3
v -0.3 0.1 0.3
v -0.3 0.2 0.3
v -0.5 0.1 0.3
v -0.5 0.2 0.3
v -0.6 0.1 0.3
v -0.6 0.2 0.3
v -0.8 0.1 0.3
v -0.8 0.2 0.3
v -1 0.1 0.3
v -1 0.2 0.3
v -1 0.3 0.3
v 1.3 0.1 -0.3
v 1.1 0.1 -0.3
v 0.9 0.1 -0.3
v 0.8 0.1 -0.3
v 0.6 0.1 -0.3
v -0.3 0.1 -0.3
v -0.5 0.1 -0.3
v -0.6 0.1 -0.3
v -0.8 0.1 -0.3
v -1 0.1 -0.3
v 1.1 0.1 -0.2
v 0.9 0.1 -0.2
v 0.8 0.1 -0.2
v 0.6 0.1 -0.2
v -0.3 0.1 -0.2
v -0.5 0.1 -0.2
v -0.6 0.1 -0.2
v -0.8 0.1 -0.2
v -1 0.1 -0.1
v -1.3 0.1 -0.1
v -1 0.1 0.1
v -1.3 0.1 0.1
v 1.1 0.1 0.2
v 0.9 0.1 0.2
v 0.8 0.1 0.2
v 0.6 0.1 0.2
v -0.3 0.1 0.2
v -0.5 0.1 0.2
v -0.6 0.1 0.2
v -0.8 0.1 0.2
v 1.3 0.1 0.3
v 1.1 0.1 0.3
v 0.9 0.1 0.3
v 0.8 0.1 0.3
v 0.6 0.1 0.3
v -0.3 0.1 0.3
v -0.5 0.1 0.3
v -0.6 0.1 0.3
v -0.8 0.1 0.3
v -1 0.1 0.3
v 1.1 0.2 -0.3
v 0.9 0.2 -0.3
v 0.8 0.2 -0.3
v 0.6 0.2 -0.3
v -0.3 0.2 -0.3
v -0.5 0.2 -0.3
v -0.6 0.2 -0.3
v -0.8 0.2 -0.3
v 1.1 0.2 -0.2
v 0.9 0.2 -0.2
v 0.8 0.2 -0.2
v 0.6 0.2 -0.2
v -0.3 0.2 -0.2
v -0.5 0.2 -0.2
v -0.6 0.2 -0.2
v -0.8 0.2 -0.2
v 1.1 0.2 0.2
v 0.9 0.2 0.2
v 0.8 0.2 0.2
v 0.6 0.2 0.2
v -0.3 0.2 0.2
v -0.5 0.2 0.2
v -0.6 0.2 0.2
v -0.8 0.2 0.2
v 1.1 0.2 0.3
v 0.9 0.2 0.3
v 0.8 0.2 0.3
v 0.6 0.2 0.3
v -0.3 0.2 0.3
v -0.5 0.2 0.3
v -0.6 0.2 0.3
v -0.8 0.2 0.3
v -1 0.2 -0.1
v -1.3 0.2 -0.1
v -1 0.2 0.1
v -1.3 0.2 0.1
v 1.3 0.3 -0.3
v -1 0.3 -0.3
v 1.2 0.3 -0.2
v -0.9 0.3 -0.2
v 1.2 0.3 0.2
v -0.9 0.3 0.2
v 1.3 0.3 0.3
v -1 0.3 0.3
v 1.2 0.4 -0.2
v -0.9 0.4 -0.2
v 1.2 0.4 0.2
v -0.9 0.4 0.2

# faces
f 3/1/1 2/1/1 1/1/1
f 4/1/1 2/1/1 3/1/1
f 5/2/1 4/2/1 3/2/1
f 6/2/1 4/2/1 5/2/1
f 9/1/1 8/1/1 7/1/1
f 10/1/1 8/1/1 9/1/1
f 15/1/1 12/1/1 11/1/1
f 16/1/1 12/1/1 15/1/1
f 17/1/1 14/1/1 13/1/1
f 18/1/1 14/1/1 17/1/1
f 23/1/1 20/1/1 19/1/1
f 24/1/1 20/1/1 23/1/1
f 25/1/1 22/1/1 21/1/1
f 26/1/1 22/1/1 25/1/1
f 31/1/1 28/1/1 27/1/1
f 32/1/1 28/1/1 31/1/1
f 33/1/1 30/1/1 29/1/1
f 34/1/1 30/1/1 33/1/1
f 39/1/1 36/1/1 35/1/1
f 40/1/1 36/1/1 39/1/1
f 41/1/1 38/1/1 37/1/1
f 42/1/1 38/1/1 41/1/1
f 43/1/2 44/1/2 47/1/2
f 47/1/2 44/1/2 48/1/2
f 45/1/2 46/1/2 49/1/2
f 49/1/2 46/1/2 50/1/2
f 51/1/2 52/1/2 55/1/2
f 55/1/2 52/1/2 56/1/2
f 53/1/2 54/1/2 57/1/2
f 57/1/2 54/1/2 58/1/2
f 59/1/2 60/1/2 63/1/2
f 63/1/2 60/1/2 64/1/2
f 61/1/2 62/1/2 65/1/2
f 65/1/2 62/1/2 66/1/2
f 67/1/2 68/1/2 71/1/2
f 71/1/2 68/1/2 72/1/2
f 69/1/2 70/1/2 73/1/2
f 73/1/2 70/1/2 74/1/2
f 75/1/2 76/1/2 77/1/2
f 77/1/2 76/1/2 78/1/2
f 79/1/2 80/1/2 83/1/2
f 83/1/2 80/1/2 84/1/2
f 81/1/2 82/1/2 85/1/2
f 85/1/2 82/1/2 86/1/2
f 83/2/2 84/2/2 87/2/2
f 84/2/2 85/2/2 87/2/2
f 85/2/2 86/2/2 87/2/2
f 87/2/2 86/2/2 88/2/2
f 89/1/2 90/1/2 91/1/2
f 91/1/2 90/1/2 92/1/2
f 96/1/3 94/1/3 93/1/3
f 97/2/3 95/2/3 94/2/3
f 97/1/3 94/1/3 96/1/3
f 99/2/3 95/2/3 97/2/3
f 100/1/3 99/1/3 98/1/3
f 101/2/3 95/2/3 99/2/3
f 101/1/3 99/1/3 100/1/3
f 103/2/3 95/2/3 101/2/3
f 104/1/3 103/1/3 102/1/3
f 105/2/3 95/2/3 103/2/3
f 105/1/3 103/1/3 104/1/3
f 107/2/3 95/2/3 105/2/3
f 108/1/3 107/1/3 106/1/3
f 109/2/3 95/2/3 107/2/3
f 109/1/3 107/1/3 108/1/3
f 111/2/3 95/2/3 109/2/3
f 112/1/3 111/1/3 110/1/3
f 113/2/3 95/2/3 111/2/3
f 113/1/3 111/1/3 112/1/3
f 114/2/3 95/2/3 113/2/3
f 119/1/3 118/1/3 117/1/3
f 120/1/3 118/1/3 119/1/3
f 123/1/3 122/1/3 121/1/3
f 124/1/3 122/1/3 123/1/3
f 127/1/3 126/1/3 125/1/3
f 128/1/3 126/1/3 127/1/3
f 131/1/3 130/1/3 129/1/3
f 132/1/3 130/1/3 131/1/3
f 133/1/3 116/1/3 115/1/3
f 134/1/3 116/1/3 133/1/3
f 137/1/3 136/1/3 135/1/3
f 138/1/3 136/1/3 137/1/3
f 139/1/4 140/1/4 141/1/4
f 141/1/4 140/1/4 142/1/4
f 145/1/4 146/1/4 147/1/4
f 147/1/4 146/1/4 148/1/4
f 149/1/4 150/1/4 151/1/4
f 151/1/4 150/1/4 152/1/4
f 153/1/4 154/1/4 155/1/4
f 155/1/4 154/1/4 156/1/4
f 157/1/4 158/1/4 159/1/4
f 159/1/4 158/1/4 160/1/4
f 143/1/4 144/1/4 161/1/4
f 161/1/4 144/1/4 162/1/4
f 163/1/4 164/1/4 166/1/4
f 164/2/4 165/2/4 167/2/4
f 166/1/4 164/1/4 167/1/4
f 167/2/4 165/2/4 169/2/4
f 168/1/4 169/1/4 170/1/4
f 169/2/4 165/2/4 171/2/4
f 170/1/4 169/1/4 171/1/4
f 171/2/4 165/2/4 173/2/4
f 172/1/4 173/1/4 174/1/4
f 173/2/4 165/2/4 175/2/4
f 174/1/4 173/1/4 175/1/4
f 175/2/4 165/2/4 177/2/4
f 176/1/4 177/1/4 178/1/4
f 177/2/4 165/2/4 179/2/4
f 178/1/4 177/1/4 179/1/4
f 179/2/4 165/2/4 181/2/4
f 180/1/4 181/1/4 182/1/4
f 181/2/4 165/2/4 183/2/4
f 182/1/4 181/1/4 183/1/4
f 183/2/4 165/2/4 184/2/4
f 195/1/5 186/1/5 185/1/5
f 196/1/5 188/1/5 187/1/5
f 197/1/5 188/1/5 196/1/5
f 198/1/5 190/1/5 189/1/5
f 199/1/5 190/1/5 198/1/5
f 200/1/5 192/1/5 191/1/5
f 201/1/5 192/1/5 200/1/5
f 202/1/5 194/1/5 193/1/5
f 203/1/5 201/1/5 200/1/5
f 203/1/5 202/1/5 201/1/5
f 203/1/5 194/1/5 202/1/5
f 203/1/5 197/1/5 196/1/5
f 203/1/5 200/1/5 199/1/5
f 203/1/5 199/1/5 198/1/5
f 203/1/5 198/1/5 197/1/5
f 203/1/5 196/1/5 195/1/5
f 205/1/5 203/1/5 195/1/5
f 205/1/5 204/1/5 203/1/5
f 206/1/5 204/1/5 205/1/5
f 207/1/5 195/1/5 185/1/5
f 207/1/5 205/1/5 195/1/5
f 208/1/5 205/1/5 207/1/5
f 209/1/5 205/1/5 208/1/5
f 210/1/5 205/1/5 209/1/5
f 211/1/5 205/1/5 210/1/5
f 212/1/5 205/1/5 211/1/5
f 213/1/5 205/1/5 212/1/5
f 214/1/5 205/1/5 213/1/5
f 215/1/5 207/1/5 185/1/5
f 216/1/5 207/1/5 215/1/5
f 217/1/5 209/1/5 208/1/5
f 218/1/5 209/1/5 217/1/5
f 219/1/5 211/1/5 210/1/5
f 220/1/5 211/1/5 219/1/5
f 221/1/5 213/1/5 212/1/5
f 222/1/5 213/1/5 221/1/5
f 223/1/5 205/1/5 214/1/5
f 224/1/5 205/1/5 223/1/5
f 233/2/5 226/2/5 225/2/5
f 234/2/5 226/2/5 233/2/5
f 235/2/5 228/2/5 227/2/5
f 236/2/5 228/2/5 235/2/5
f 237/2/5 230/2/5 229/2/5
f 238/2/5 230/2/5 237/2/5
f 239/2/5 232/2/5 231/2/5
f 240/2/5 232/2/5 239/2/5
f 249/2/5 242/2/5 241/2/5
f 250/2/5 242/2/5 249/2/5
f 251/2/5 244/2/5 243/2/5
f 252/2/5 244/2/5 251/2/5
f 253/2/5 246/2/5 245/2/5
f 254/2/5 246/2/5 253/2/5
f 255/2/5 248/2/5 247/2/5
f 256/2/5 248/2/5 255/2/5
f 257/1/6 258/1/6 259/1/6
f 259/1/6 258/1/6 260/1/6
f 261/2/6 262/2/6 263/2/6
f 263/2/6 262/2/6 264/2/6
f 261/2/6 263/2/6 265/2/6
f 264/2/6 262/2/6 266/2/6
f 261/2/6 265/2/6 267/2/6
f 265/2/6 266/2/6 267/2/6
f 266/2/6 262/2/6 268/2/6
f 267/2/6 266/2/6 268/2/6
f 269/1/6 270/1/6 271/1/6
f 271/1/6 270/1/6 272/1/6
