# MagicaVoxel @ Ephtracy

# group
o 

# material
mtllib tire-4.mtl
usemtl palette

# normals
vn 1 0 0
vn -1 0 0
vn 0 0 -1
vn 0 0 1
vn 0 -1 0
vn 0 1 0

# texcoords
vt 0.818359 0.5
vt 0.826172 0.5
vt 0.833984 0.5

# verts
v 0.8 -0.3 -0.4
v 0.8 -0.3 0.4
v 0.8 0.3 -0.4
v 0.8 0.3 0.4
v 0.7 -0.5 -0.4
v 0.7 -0.5 0.4
v 0.7 -0.3 -0.4
v 0.7 -0.3 0.4
v 0.7 0.3 -0.4
v 0.7 0.3 0.4
v 0.7 0.5 -0.4
v 0.7 0.5 0.4
v 0.6 -0.6 -0.4
v 0.6 -0.6 0.4
v 0.6 -0.5 -0.4
v 0.6 -0.5 0.4
v 0.6 0.5 -0.4
v 0.6 0.5 0.4
v 0.6 0.6 -0.4
v 0.6 0.6 0.4
v 0.5 -0.7 -0.4
v 0.5 -0.7 0.4
v 0.5 -0.6 -0.4
v 0.5 -0.6 0.4
v 0.5 0.6 -0.4
v 0.5 0.6 0.4
v 0.5 0.7 -0.4
v 0.5 0.7 0.4
v 0.3 -0.8 -0.4
v 0.3 -0.8 0.4
v 0.3 -0.7 -0.4
v 0.3 -0.7 0.4
v 0.3 0.7 -0.4
v 0.3 0.7 0.4
v 0.3 0.8 -0.4
v 0.3 0.8 0.4
v -0.3 -0.8 -0.4
v -0.3 -0.8 0.4
v -0.3 -0.7 -0.4
v -0.3 -0.7 0.4
v -0.3 0.7 -0.4
v -0.3 0.7 0.4
v -0.3 0.8 -0.4
v -0.3 0.8 0.4
v -0.5 -0.7 -0.4
v -0.5 -0.7 0.4
v -0.5 -0.6 -0.4
v -0.5 -0.6 0.4
v -0.5 0.6 -0.4
v -0.5 0.6 0.4
v -0.5 0.7 -0.4
v -0.5 0.7 0.4
v -0.6 -0.6 -0.4
v -0.6 -0.6 0.4
v -0.6 -0.5 -0.4
v -0.6 -0.5 0.4
v -0.6 0.5 -0.4
v -0.6 0.5 0.4
v -0.6 0.6 -0.4
v -0.6 0.6 0.4
v -0.7 -0.5 -0.4
v -0.7 -0.5 0.4
v -0.7 -0.3 -0.4
v -0.7 -0.3 0.4
v -0.7 0.3 -0.4
v -0.7 0.3 0.4
v -0.7 0.5 -0.4
v -0.7 0.5 0.4
v -0.8 -0.3 -0.4
v -0.8 -0.3 0.4
v -0.8 0.3 -0.4
v -0.8 0.3 0.4
v 0.8 -0.3 -0.4
v 0.8 0.3 -0.4
v 0.7 -0.5 -0.4
v 0.7 -0.3 -0.4
v 0.7 0.3 -0.4
v 0.7 0.5 -0.4
v 0.6 -0.6 -0.4
v 0.6 -0.5 -0.4
v 0.6 0.5 -0.4
v 0.6 0.6 -0.4
v 0.5 -0.7 -0.4
v 0.5 -0.6 -0.4
v 0.5 0.6 -0.4
v 0.5 0.7 -0.4
v 0.4 -0.2 -0.4
v 0.4 0.2 -0.4
v 0.3 -0.8 -0.4
v 0.3 -0.7 -0.4
v 0.3 -0.3 -0.4
v 0.3 -0.2 -0.4
v 0.3 0.2 -0.4
v 0.3 0.3 -0.4
v 0.3 0.7 -0.4
v 0.3 0.8 -0.4
v 0.2 -0.4 -0.4
v 0.2 -0.3 -0.4
v 0.2 -0.2 -0.4
v 0.2 0.2 -0.4
v 0.2 0.3 -0.4
v 0.2 0.4 -0.4
v -0.2 -0.4 -0.4
v -0.2 -0.3 -0.4
v -0.2 -0.2 -0.4
v -0.2 0.2 -0.4
v -0.2 0.3 -0.4
v -0.2 0.4 -0.4
v -0.3 -0.8 -0.4
v -0.3 -0.7 -0.4
v -0.3 -0.3 -0.4
v -0.3 -0.2 -0.4
v -0.3 0.2 -0.4
v -0.3 0.3 -0.4
v -0.3 0.7 -0.4
v -0.3 0.8 -0.4
v -0.4 -0.2 -0.4
v -0.4 0.2 -0.4
v -0.5 -0.7 -0.4
v -0.5 -0.6 -0.4
v -0.5 0.6 -0.4
v -0.5 0.7 -0.4
v -0.6 -0.6 -0.4
v -0.6 -0.5 -0.4
v -0.6 0.5 -0.4
v -0.6 0.6 -0.4
v -0.7 -0.5 -0.4
v -0.7 -0.3 -0.4
v -0.7 0.3 -0.4
v -0.7 0.5 -0.4
v -0.8 -0.3 -0.4
v -0.8 0.3 -0.4
v 0.8 -0.3 0.4
v 0.8 0.3 0.4
v 0.7 -0.5 0.4
v 0.7 -0.3 0.4
v 0.7 0.3 0.4
v 0.7 0.5 0.4
v 0.6 -0.6 0.4
v 0.6 -0.5 0.4
v 0.6 0.5 0.4
v 0.6 0.6 0.4
v 0.5 -0.7 0.4
v 0.5 -0.6 0.4
v 0.5 0.6 0.4
v 0.5 0.7 0.4
v 0.4 -0.2 0.4
v 0.4 0.2 0.4
v 0.3 -0.8 0.4
v 0.3 -0.7 0.4
v 0.3 -0.3 0.4
v 0.3 -0.2 0.4
v 0.3 0.2 0.4
v 0.3 0.3 0.4
v 0.3 0.7 0.4
v 0.3 0.8 0.4
v 0.2 -0.4 0.4
v 0.2 -0.3 0.4
v 0.2 -0.2 0.4
v 0.2 0.2 0.4
v 0.2 0.3 0.4
v 0.2 0.4 0.4
v -0.2 -0.4 0.4
v -0.2 -0.3 0.4
v -0.2 -0.2 0.4
v -0.2 0.2 0.4
v -0.2 0.3 0.4
v -0.2 0.4 0.4
v -0.3 -0.8 0.4
v -0.3 -0.7 0.4
v -0.3 -0.3 0.4
v -0.3 -0.2 0.4
v -0.3 0.2 0.4
v -0.3 0.3 0.4
v -0.3 0.7 0.4
v -0.3 0.8 0.4
v -0.4 -0.2 0.4
v -0.4 0.2 0.4
v -0.5 -0.7 0.4
v -0.5 -0.6 0.4
v -0.5 0.6 0.4
v -0.5 0.7 0.4
v -0.6 -0.6 0.4
v -0.6 -0.5 0.4
v -0.6 0.5 0.4
v -0.6 0.6 0.4
v -0.7 -0.5 0.4
v -0.7 -0.3 0.4
v -0.7 0.3 0.4
v -0.7 0.5 0.4
v -0.8 -0.3 0.4
v -0.8 0.3 0.4
v 0.3 -0.8 -0.4
v -0.3 -0.8 -0.4
v 0.3 -0.8 0.4
v -0.3 -0.8 0.4
v 0.5 -0.7 -0.4
v 0.3 -0.7 -0.4
v -0.3 -0.7 -0.4
v -0.5 -0.7 -0.4
v 0.5 -0.7 0.4
v 0.3 -0.7 0.4
v -0.3 -0.7 0.4
v -0.5 -0.7 0.4
v 0.6 -0.6 -0.4
v 0.5 -0.6 -0.4
v -0.5 -0.6 -0.4
v -0.6 -0.6 -0.4
v 0.6 -0.6 0.4
v 0.5 -0.6 0.4
v -0.5 -0.6 0.4
v -0.6 -0.6 0.4
v 0.7 -0.5 -0.4
v 0.6 -0.5 -0.4
v -0.6 -0.5 -0.4
v -0.7 -0.5 -0.4
v 0.7 -0.5 0.4
v 0.6 -0.5 0.4
v -0.6 -0.5 0.4
v -0.7 -0.5 0.4
v 0.8 -0.3 -0.4
v 0.7 -0.3 -0.4
v -0.7 -0.3 -0.4
v -0.8 -0.3 -0.4
v 0.8 -0.3 0.4
v 0.7 -0.3 0.4
v -0.7 -0.3 0.4
v -0.8 -0.3 0.4
v 0.8 0.3 -0.4
v 0.7 0.3 -0.4
v -0.7 0.3 -0.4
v -0.8 0.3 -0.4
v 0.8 0.3 0.4
v 0.7 0.3 0.4
v -0.7 0.3 0.4
v -0.8 0.3 0.4
v 0.7 0.5 -0.4
v 0.6 0.5 -0.4
v -0.6 0.5 -0.4
v -0.7 0.5 -0.4
v 0.7 0.5 0.4
v 0.6 0.5 0.4
v -0.6 0.5 0.4
v -0.7 0.5 0.4
v 0.6 0.6 -0.4
v 0.5 0.6 -0.4
v -0.5 0.6 -0.4
v -0.6 0.6 -0.4
v 0.6 0.6 0.4
v 0.5 0.6 0.4
v -0.5 0.6 0.4
v -0.6 0.6 0.4
v 0.5 0.7 -0.4
v 0.3 0.7 -0.4
v -0.3 0.7 -0.4
v -0.5 0.7 -0.4
v 0.5 0.7 0.4
v 0.3 0.7 0.4
v -0.3 0.7 0.4
v -0.5 0.7 0.4
v 0.3 0.8 -0.4
v -0.3 0.8 -0.4
v 0.3 0.8 0.4
v -0.3 0.8 0.4

# faces
f 3/3/1 2/3/1 1/3/1
f 4/3/1 2/3/1 3/3/1
f 7/3/1 6/3/1 5/3/1
f 8/3/1 6/3/1 7/3/1
f 11/3/1 10/3/1 9/3/1
f 12/3/1 10/3/1 11/3/1
f 15/3/1 14/3/1 13/3/1
f 16/3/1 14/3/1 15/3/1
f 19/3/1 18/3/1 17/3/1
f 20/3/1 18/3/1 19/3/1
f 23/3/1 22/3/1 21/3/1
f 24/3/1 22/3/1 23/3/1
f 27/3/1 26/3/1 25/3/1
f 28/3/1 26/3/1 27/3/1
f 31/3/1 30/3/1 29/3/1
f 32/3/1 30/3/1 31/3/1
f 35/3/1 34/3/1 33/3/1
f 36/3/1 34/3/1 35/3/1
f 37/3/2 38/3/2 39/3/2
f 39/3/2 38/3/2 40/3/2
f 41/3/2 42/3/2 43/3/2
f 43/3/2 42/3/2 44/3/2
f 45/3/2 46/3/2 47/3/2
f 47/3/2 46/3/2 48/3/2
f 49/3/2 50/3/2 51/3/2
f 51/3/2 50/3/2 52/3/2
f 53/3/2 54/3/2 55/3/2
f 55/3/2 54/3/2 56/3/2
f 57/3/2 58/3/2 59/3/2
f 59/3/2 58/3/2 60/3/2
f 61/3/2 62/3/2 63/3/2
f 63/3/2 62/3/2 64/3/2
f 65/3/2 66/3/2 67/3/2
f 67/3/2 66/3/2 68/3/2
f 69/3/2 70/3/2 71/3/2
f 71/3/2 70/3/2 72/3/2
f 76/3/3 74/3/3 73/3/3
f 77/3/3 74/3/3 76/3/3
f 80/3/3 76/3/3 75/3/3
f 80/3/3 78/3/3 77/3/3
f 80/3/3 77/3/3 76/3/3
f 81/3/3 78/3/3 80/3/3
f 84/3/3 80/3/3 79/3/3
f 84/3/3 82/3/3 81/3/3
f 84/3/3 81/3/3 80/3/3
f 85/3/3 82/3/3 84/3/3
f 87/3/3 84/3/3 83/3/3
f 87/3/3 86/3/3 85/3/3
f 87/3/3 85/3/3 84/3/3
f 88/3/3 86/3/3 87/3/3
f 90/3/3 87/3/3 83/3/3
f 91/3/3 87/3/3 90/3/3
f 92/2/3 88/2/3 87/2/3
f 92/3/3 87/3/3 91/3/3
f 93/3/3 86/3/3 88/3/3
f 93/2/3 88/2/3 92/2/3
f 94/3/3 86/3/3 93/3/3
f 95/3/3 86/3/3 94/3/3
f 97/3/3 91/3/3 90/3/3
f 97/3/3 90/3/3 89/3/3
f 98/2/3 92/2/3 91/2/3
f 98/3/3 91/3/3 97/3/3
f 99/1/3 93/1/3 92/1/3
f 99/2/3 92/2/3 98/2/3
f 100/2/3 94/2/3 93/2/3
f 100/1/3 93/1/3 99/1/3
f 101/3/3 96/3/3 95/3/3
f 101/2/3 94/2/3 100/2/3
f 101/3/3 95/3/3 94/3/3
f 102/3/3 96/3/3 101/3/3
f 103/3/3 97/3/3 89/3/3
f 103/2/3 98/2/3 97/2/3
f 104/1/3 100/1/3 99/1/3
f 104/2/3 98/2/3 103/2/3
f 104/1/3 99/1/3 98/1/3
f 104/1/3 101/1/3 100/1/3
f 105/1/3 101/1/3 104/1/3
f 106/1/3 101/1/3 105/1/3
f 107/2/3 102/2/3 101/2/3
f 107/1/3 101/1/3 106/1/3
f 108/3/3 96/3/3 102/3/3
f 108/2/3 102/2/3 107/2/3
f 109/3/3 103/3/3 89/3/3
f 109/3/3 104/3/3 103/3/3
f 110/3/3 104/3/3 109/3/3
f 111/2/3 105/2/3 104/2/3
f 111/3/3 104/3/3 110/3/3
f 112/1/3 106/1/3 105/1/3
f 112/2/3 105/2/3 111/2/3
f 113/2/3 107/2/3 106/2/3
f 113/1/3 106/1/3 112/1/3
f 114/3/3 108/3/3 107/3/3
f 114/2/3 107/2/3 113/2/3
f 115/3/3 96/3/3 108/3/3
f 115/3/3 108/3/3 114/3/3
f 116/3/3 96/3/3 115/3/3
f 117/3/3 112/3/3 111/3/3
f 117/3/3 111/3/3 110/3/3
f 117/2/3 113/2/3 112/2/3
f 118/3/3 114/3/3 113/3/3
f 118/2/3 113/2/3 117/2/3
f 118/3/3 115/3/3 114/3/3
f 119/3/3 117/3/3 110/3/3
f 119/3/3 118/3/3 117/3/3
f 120/3/3 118/3/3 119/3/3
f 121/3/3 115/3/3 118/3/3
f 121/3/3 118/3/3 120/3/3
f 122/3/3 115/3/3 121/3/3
f 123/3/3 121/3/3 120/3/3
f 124/3/3 121/3/3 123/3/3
f 125/3/3 121/3/3 124/3/3
f 126/3/3 121/3/3 125/3/3
f 127/3/3 125/3/3 124/3/3
f 128/3/3 125/3/3 127/3/3
f 129/3/3 125/3/3 128/3/3
f 130/3/3 125/3/3 129/3/3
f 131/3/3 129/3/3 128/3/3
f 132/3/3 129/3/3 131/3/3
f 133/3/4 134/3/4 136/3/4
f 136/3/4 134/3/4 137/3/4
f 135/3/4 136/3/4 140/3/4
f 137/3/4 138/3/4 140/3/4
f 136/3/4 137/3/4 140/3/4
f 140/3/4 138/3/4 141/3/4
f 139/3/4 140/3/4 144/3/4
f 141/3/4 142/3/4 144/3/4
f 140/3/4 141/3/4 144/3/4
f 144/3/4 142/3/4 145/3/4
f 143/3/4 144/3/4 147/3/4
f 145/3/4 146/3/4 147/3/4
f 144/3/4 145/3/4 147/3/4
f 147/3/4 146/3/4 148/3/4
f 143/3/4 147/3/4 150/3/4
f 150/3/4 147/3/4 151/3/4
f 147/2/4 148/2/4 152/2/4
f 151/3/4 147/3/4 152/3/4
f 148/3/4 146/3/4 153/3/4
f 152/2/4 148/2/4 153/2/4
f 153/3/4 146/3/4 154/3/4
f 154/3/4 146/3/4 155/3/4
f 150/3/4 151/3/4 157/3/4
f 149/3/4 150/3/4 157/3/4
f 151/2/4 152/2/4 158/2/4
f 157/3/4 151/3/4 158/3/4
f 152/1/4 153/1/4 159/1/4
f 158/2/4 152/2/4 159/2/4
f 153/2/4 154/2/4 160/2/4
f 159/1/4 153/1/4 160/1/4
f 155/3/4 156/3/4 161/3/4
f 160/2/4 154/2/4 161/2/4
f 154/3/4 155/3/4 161/3/4
f 161/3/4 156/3/4 162/3/4
f 149/3/4 157/3/4 163/3/4
f 157/2/4 158/2/4 163/2/4
f 159/1/4 160/1/4 164/1/4
f 163/2/4 158/2/4 164/2/4
f 158/1/4 159/1/4 164/1/4
f 160/1/4 161/1/4 164/1/4
f 164/1/4 161/1/4 165/1/4
f 165/1/4 161/1/4 166/1/4
f 161/2/4 162/2/4 167/2/4
f 166/1/4 161/1/4 167/1/4
f 162/3/4 156/3/4 168/3/4
f 167/2/4 162/2/4 168/2/4
f 149/3/4 163/3/4 169/3/4
f 163/3/4 164/3/4 169/3/4
f 169/3/4 164/3/4 170/3/4
f 164/2/4 165/2/4 171/2/4
f 170/3/4 164/3/4 171/3/4
f 165/1/4 166/1/4 172/1/4
f 171/2/4 165/2/4 172/2/4
f 166/2/4 167/2/4 173/2/4
f 172/1/4 166/1/4 173/1/4
f 167/3/4 168/3/4 174/3/4
f 173/2/4 167/2/4 174/2/4
f 168/3/4 156/3/4 175/3/4
f 174/3/4 168/3/4 175/3/4
f 175/3/4 156/3/4 176/3/4
f 171/3/4 172/3/4 177/3/4
f 170/3/4 171/3/4 177/3/4
f 172/2/4 173/2/4 177/2/4
f 173/3/4 174/3/4 178/3/4
f 177/2/4 173/2/4 178/2/4
f 174/3/4 175/3/4 178/3/4
f 170/3/4 177/3/4 179/3/4
f 177/3/4 178/3/4 179/3/4
f 179/3/4 178/3/4 180/3/4
f 178/3/4 175/3/4 181/3/4
f 180/3/4 178/3/4 181/3/4
f 181/3/4 175/3/4 182/3/4
f 180/3/4 181/3/4 183/3/4
f 183/3/4 181/3/4 184/3/4
f 184/3/4 181/3/4 185/3/4
f 185/3/4 181/3/4 186/3/4
f 184/3/4 185/3/4 187/3/4
f 187/3/4 185/3/4 188/3/4
f 188/3/4 185/3/4 189/3/4
f 189/3/4 185/3/4 190/3/4
f 188/3/4 189/3/4 191/3/4
f 191/3/4 189/3/4 192/3/4
f 195/3/5 194/3/5 193/3/5
f 196/3/5 194/3/5 195/3/5
f 201/3/5 198/3/5 197/3/5
f 202/3/5 198/3/5 201/3/5
f 203/3/5 200/3/5 199/3/5
f 204/3/5 200/3/5 203/3/5
f 209/3/5 206/3/5 205/3/5
f 210/3/5 206/3/5 209/3/5
f 211/3/5 208/3/5 207/3/5
f 212/3/5 208/3/5 211/3/5
f 217/3/5 214/3/5 213/3/5
f 218/3/5 214/3/5 217/3/5
f 219/3/5 216/3/5 215/3/5
f 220/3/5 216/3/5 219/3/5
f 225/3/5 222/3/5 221/3/5
f 226/3/5 222/3/5 225/3/5
f 227/3/5 224/3/5 223/3/5
f 228/3/5 224/3/5 227/3/5
f 229/3/6 230/3/6 233/3/6
f 233/3/6 230/3/6 234/3/6
f 231/3/6 232/3/6 235/3/6
f 235/3/6 232/3/6 236/3/6
f 237/3/6 238/3/6 241/3/6
f 241/3/6 238/3/6 242/3/6
f 239/3/6 240/3/6 243/3/6
f 243/3/6 240/3/6 244/3/6
f 245/3/6 246/3/6 249/3/6
f 249/3/6 246/3/6 250/3/6
f 247/3/6 248/3/6 251/3/6
f 251/3/6 248/3/6 252/3/6
f 253/3/6 254/3/6 257/3/6
f 257/3/6 254/3/6 258/3/6
f 255/3/6 256/3/6 259/3/6
f 259/3/6 256/3/6 260/3/6
f 261/3/6 262/3/6 263/3/6
f 263/3/6 262/3/6 264/3/6
