# MagicaVoxel @ Ephtracy

# group
o 

# material
mtllib tire-1.mtl
usemtl palette

# normals
vn 1 0 0
vn -1 0 0
vn 0 0 -1
vn 0 0 1
vn 0 -1 0
vn 0 1 0

# texcoords
vt 0.818359 0.5
vt 0.826172 0.5
vt 0.833984 0.5

# verts
v 0.3 -0.2 -0.2
v 0.3 -0.2 0.1
v 0.3 0.2 -0.2
v 0.3 0.2 0.1
v 0.2 -0.3 -0.2
v 0.2 -0.3 0.1
v 0.2 -0.2 -0.2
v 0.2 -0.2 0.1
v 0.2 0.2 -0.2
v 0.2 0.2 0.1
v 0.2 0.3 -0.2
v 0.2 0.3 0.1
v -0.2 -0.3 -0.2
v -0.2 -0.3 0.1
v -0.2 -0.2 -0.2
v -0.2 -0.2 0.1
v -0.2 0.2 -0.2
v -0.2 0.2 0.1
v -0.2 0.3 -0.2
v -0.2 0.3 0.1
v -0.3 -0.2 -0.2
v -0.3 -0.2 0.1
v -0.3 0.2 -0.2
v -0.3 0.2 0.1
v 0.3 -0.2 -0.2
v 0.3 0.2 -0.2
v 0.2 -0.3 -0.2
v 0.2 -0.2 -0.2
v 0.2 -0.1 -0.2
v 0.2 0.1 -0.2
v 0.2 0.2 -0.2
v 0.2 0.3 -0.2
v 0.1 -0.2 -0.2
v 0.1 -0.1 -0.2
v 0.1 0.1 -0.2
v 0.1 0.2 -0.2
v -0.1 -0.2 -0.2
v -0.1 -0.1 -0.2
v -0.1 0.1 -0.2
v -0.1 0.2 -0.2
v -0.2 -0.3 -0.2
v -0.2 -0.2 -0.2
v -0.2 -0.1 -0.2
v -0.2 0.1 -0.2
v -0.2 0.2 -0.2
v -0.2 0.3 -0.2
v -0.3 -0.2 -0.2
v -0.3 0.2 -0.2
v 0.3 -0.2 0.1
v 0.3 0.2 0.1
v 0.2 -0.3 0.1
v 0.2 -0.2 0.1
v 0.2 -0.1 0.1
v 0.2 0.1 0.1
v 0.2 0.2 0.1
v 0.2 0.3 0.1
v 0.1 -0.2 0.1
v 0.1 -0.1 0.1
v 0.1 0.1 0.1
v 0.1 0.2 0.1
v -0.1 -0.2 0.1
v -0.1 -0.1 0.1
v -0.1 0.1 0.1
v -0.1 0.2 0.1
v -0.2 -0.3 0.1
v -0.2 -0.2 0.1
v -0.2 -0.1 0.1
v -0.2 0.1 0.1
v -0.2 0.2 0.1
v -0.2 0.3 0.1
v -0.3 -0.2 0.1
v -0.3 0.2 0.1
v 0.2 -0.3 -0.2
v -0.2 -0.3 -0.2
v 0.2 -0.3 0.1
v -0.2 -0.3 0.1
v 0.3 -0.2 -0.2
v 0.2 -0.2 -0.2
v -0.2 -0.2 -0.2
v -0.3 -0.2 -0.2
v 0.3 -0.2 0.1
v 0.2 -0.2 0.1
v -0.2 -0.2 0.1
v -0.3 -0.2 0.1
v 0.3 0.2 -0.2
v 0.2 0.2 -0.2
v -0.2 0.2 -0.2
v -0.3 0.2 -0.2
v 0.3 0.2 0.1
v 0.2 0.2 0.1
v -0.2 0.2 0.1
v -0.3 0.2 0.1
v 0.2 0.3 -0.2
v -0.2 0.3 -0.2
v 0.2 0.3 0.1
v -0.2 0.3 0.1

# faces
f 3/3/1 2/3/1 1/3/1
f 4/3/1 2/3/1 3/3/1
f 7/3/1 6/3/1 5/3/1
f 8/3/1 6/3/1 7/3/1
f 11/3/1 10/3/1 9/3/1
f 12/3/1 10/3/1 11/3/1
f 13/3/2 14/3/2 15/3/2
f 15/3/2 14/3/2 16/3/2
f 17/3/2 18/3/2 19/3/2
f 19/3/2 18/3/2 20/3/2
f 21/3/2 22/3/2 23/3/2
f 23/3/2 22/3/2 24/3/2
f 28/3/3 26/3/3 25/3/3
f 29/3/3 26/3/3 28/3/3
f 30/3/3 26/3/3 29/3/3
f 31/3/3 26/3/3 30/3/3
f 33/3/3 28/3/3 27/3/3
f 33/3/3 29/3/3 28/3/3
f 34/2/3 30/2/3 29/2/3
f 34/3/3 29/3/3 33/3/3
f 35/3/3 32/3/3 31/3/3
f 35/2/3 30/2/3 34/2/3
f 35/3/3 31/3/3 30/3/3
f 36/3/3 32/3/3 35/3/3
f 37/2/3 34/2/3 33/2/3
f 37/3/3 33/3/3 27/3/3
f 38/1/3 35/1/3 34/1/3
f 38/2/3 34/2/3 37/2/3
f 39/2/3 36/2/3 35/2/3
f 39/1/3 35/1/3 38/1/3
f 40/3/3 32/3/3 36/3/3
f 40/2/3 36/2/3 39/2/3
f 41/3/3 38/3/3 37/3/3
f 41/3/3 37/3/3 27/3/3
f 42/3/3 38/3/3 41/3/3
f 43/2/3 39/2/3 38/2/3
f 43/3/3 38/3/3 42/3/3
f 44/3/3 40/3/3 39/3/3
f 44/2/3 39/2/3 43/2/3
f 45/3/3 32/3/3 40/3/3
f 45/3/3 40/3/3 44/3/3
f 46/3/3 32/3/3 45/3/3
f 47/3/3 44/3/3 43/3/3
f 47/3/3 45/3/3 44/3/3
f 47/3/3 43/3/3 42/3/3
f 48/3/3 45/3/3 47/3/3
f 49/3/4 50/3/4 52/3/4
f 52/3/4 50/3/4 53/3/4
f 53/3/4 50/3/4 54/3/4
f 54/3/4 50/3/4 55/3/4
f 51/3/4 52/3/4 57/3/4
f 52/3/4 53/3/4 57/3/4
f 53/2/4 54/2/4 58/2/4
f 57/3/4 53/3/4 58/3/4
f 55/3/4 56/3/4 59/3/4
f 58/2/4 54/2/4 59/2/4
f 54/3/4 55/3/4 59/3/4
f 59/3/4 56/3/4 60/3/4
f 57/2/4 58/2/4 61/2/4
f 51/3/4 57/3/4 61/3/4
f 58/1/4 59/1/4 62/1/4
f 61/2/4 58/2/4 62/2/4
f 59/2/4 60/2/4 63/2/4
f 62/1/4 59/1/4 63/1/4
f 60/3/4 56/3/4 64/3/4
f 63/2/4 60/2/4 64/2/4
f 61/3/4 62/3/4 65/3/4
f 51/3/4 61/3/4 65/3/4
f 65/3/4 62/3/4 66/3/4
f 62/2/4 63/2/4 67/2/4
f 66/3/4 62/3/4 67/3/4
f 63/3/4 64/3/4 68/3/4
f 67/2/4 63/2/4 68/2/4
f 64/3/4 56/3/4 69/3/4
f 68/3/4 64/3/4 69/3/4
f 69/3/4 56/3/4 70/3/4
f 67/3/4 68/3/4 71/3/4
f 68/3/4 69/3/4 71/3/4
f 66/3/4 67/3/4 71/3/4
f 71/3/4 69/3/4 72/3/4
f 75/3/5 74/3/5 73/3/5
f 76/3/5 74/3/5 75/3/5
f 81/3/5 78/3/5 77/3/5
f 82/3/5 78/3/5 81/3/5
f 83/3/5 80/3/5 79/3/5
f 84/3/5 80/3/5 83/3/5
f 85/3/6 86/3/6 89/3/6
f 89/3/6 86/3/6 90/3/6
f 87/3/6 88/3/6 91/3/6
f 91/3/6 88/3/6 92/3/6
f 93/3/6 94/3/6 95/3/6
f 95/3/6 94/3/6 96/3/6
