# MagicaVoxel @ Ephtracy

# group
o 

# material
mtllib tire-2.mtl
usemtl palette

# normals
vn 1 0 0
vn -1 0 0
vn 0 0 -1
vn 0 0 1
vn 0 -1 0
vn 0 1 0

# texcoords
vt 0.818359 0.5
vt 0.826172 0.5
vt 0.833984 0.5

# verts
v 0.4 -0.2 -0.2
v 0.4 -0.2 0.2
v 0.4 0.2 -0.2
v 0.4 0.2 0.2
v 0.3 -0.3 -0.2
v 0.3 -0.3 0.2
v 0.3 -0.2 -0.2
v 0.3 -0.2 0.2
v 0.3 0.2 -0.2
v 0.3 0.2 0.2
v 0.3 0.3 -0.2
v 0.3 0.3 0.2
v 0.2 -0.4 -0.2
v 0.2 -0.4 0.2
v 0.2 -0.3 -0.2
v 0.2 -0.3 0.2
v 0.2 0.3 -0.2
v 0.2 0.3 0.2
v 0.2 0.4 -0.2
v 0.2 0.4 0.2
v -0.2 -0.4 -0.2
v -0.2 -0.4 0.2
v -0.2 -0.3 -0.2
v -0.2 -0.3 0.2
v -0.2 0.3 -0.2
v -0.2 0.3 0.2
v -0.2 0.4 -0.2
v -0.2 0.4 0.2
v -0.3 -0.3 -0.2
v -0.3 -0.3 0.2
v -0.3 -0.2 -0.2
v -0.3 -0.2 0.2
v -0.3 0.2 -0.2
v -0.3 0.2 0.2
v -0.3 0.3 -0.2
v -0.3 0.3 0.2
v -0.4 -0.2 -0.2
v -0.4 -0.2 0.2
v -0.4 0.2 -0.2
v -0.4 0.2 0.2
v 0.4 -0.2 -0.2
v 0.4 0.2 -0.2
v 0.3 -0.3 -0.2
v 0.3 -0.2 -0.2
v 0.3 -0.1 -0.2
v 0.3 0.1 -0.2
v 0.3 0.2 -0.2
v 0.3 0.3 -0.2
v 0.2 -0.4 -0.2
v 0.2 -0.3 -0.2
v 0.2 -0.2 -0.2
v 0.2 -0.1 -0.2
v 0.2 0.1 -0.2
v 0.2 0.2 -0.2
v 0.2 0.3 -0.2
v 0.2 0.4 -0.2
v 0.1 -0.3 -0.2
v 0.1 -0.2 -0.2
v 0.1 -0.1 -0.2
v 0.1 0.1 -0.2
v 0.1 0.2 -0.2
v 0.1 0.3 -0.2
v -0.1 -0.3 -0.2
v -0.1 -0.2 -0.2
v -0.1 -0.1 -0.2
v -0.1 0.1 -0.2
v -0.1 0.2 -0.2
v -0.1 0.3 -0.2
v -0.2 -0.4 -0.2
v -0.2 -0.3 -0.2
v -0.2 -0.2 -0.2
v -0.2 -0.1 -0.2
v -0.2 0.1 -0.2
v -0.2 0.2 -0.2
v -0.2 0.3 -0.2
v -0.2 0.4 -0.2
v -0.3 -0.3 -0.2
v -0.3 -0.2 -0.2
v -0.3 -0.1 -0.2
v -0.3 0.1 -0.2
v -0.3 0.2 -0.2
v -0.3 0.3 -0.2
v -0.4 -0.2 -0.2
v -0.4 0.2 -0.2
v 0.4 -0.2 0.2
v 0.4 0.2 0.2
v 0.3 -0.3 0.2
v 0.3 -0.2 0.2
v 0.3 -0.1 0.2
v 0.3 0.1 0.2
v 0.3 0.2 0.2
v 0.3 0.3 0.2
v 0.2 -0.4 0.2
v 0.2 -0.3 0.2
v 0.2 -0.2 0.2
v 0.2 -0.1 0.2
v 0.2 0.1 0.2
v 0.2 0.2 0.2
v 0.2 0.3 0.2
v 0.2 0.4 0.2
v 0.1 -0.3 0.2
v 0.1 -0.2 0.2
v 0.1 -0.1 0.2
v 0.1 0.1 0.2
v 0.1 0.2 0.2
v 0.1 0.3 0.2
v -0.1 -0.3 0.2
v -0.1 -0.2 0.2
v -0.1 -0.1 0.2
v -0.1 0.1 0.2
v -0.1 0.2 0.2
v -0.1 0.3 0.2
v -0.2 -0.4 0.2
v -0.2 -0.3 0.2
v -0.2 -0.2 0.2
v -0.2 -0.1 0.2
v -0.2 0.1 0.2
v -0.2 0.2 0.2
v -0.2 0.3 0.2
v -0.2 0.4 0.2
v -0.3 -0.3 0.2
v -0.3 -0.2 0.2
v -0.3 -0.1 0.2
v -0.3 0.1 0.2
v -0.3 0.2 0.2
v -0.3 0.3 0.2
v -0.4 -0.2 0.2
v -0.4 0.2 0.2
v 0.2 -0.4 -0.2
v -0.2 -0.4 -0.2
v 0.2 -0.4 0.2
v -0.2 -0.4 0.2
v 0.3 -0.3 -0.2
v 0.2 -0.3 -0.2
v -0.2 -0.3 -0.2
v -0.3 -0.3 -0.2
v 0.3 -0.3 0.2
v 0.2 -0.3 0.2
v -0.2 -0.3 0.2
v -0.3 -0.3 0.2
v 0.4 -0.2 -0.2
v 0.3 -0.2 -0.2
v -0.3 -0.2 -0.2
v -0.4 -0.2 -0.2
v 0.4 -0.2 0.2
v 0.3 -0.2 0.2
v -0.3 -0.2 0.2
v -0.4 -0.2 0.2
v 0.4 0.2 -0.2
v 0.3 0.2 -0.2
v -0.3 0.2 -0.2
v -0.4 0.2 -0.2
v 0.4 0.2 0.2
v 0.3 0.2 0.2
v -0.3 0.2 0.2
v -0.4 0.2 0.2
v 0.3 0.3 -0.2
v 0.2 0.3 -0.2
v -0.2 0.3 -0.2
v -0.3 0.3 -0.2
v 0.3 0.3 0.2
v 0.2 0.3 0.2
v -0.2 0.3 0.2
v -0.3 0.3 0.2
v 0.2 0.4 -0.2
v -0.2 0.4 -0.2
v 0.2 0.4 0.2
v -0.2 0.4 0.2

# faces
f 3/3/1 2/3/1 1/3/1
f 4/3/1 2/3/1 3/3/1
f 7/3/1 6/3/1 5/3/1
f 8/3/1 6/3/1 7/3/1
f 11/3/1 10/3/1 9/3/1
f 12/3/1 10/3/1 11/3/1
f 15/3/1 14/3/1 13/3/1
f 16/3/1 14/3/1 15/3/1
f 19/3/1 18/3/1 17/3/1
f 20/3/1 18/3/1 19/3/1
f 21/3/2 22/3/2 23/3/2
f 23/3/2 22/3/2 24/3/2
f 25/3/2 26/3/2 27/3/2
f 27/3/2 26/3/2 28/3/2
f 29/3/2 30/3/2 31/3/2
f 31/3/2 30/3/2 32/3/2
f 33/3/2 34/3/2 35/3/2
f 35/3/2 34/3/2 36/3/2
f 37/3/2 38/3/2 39/3/2
f 39/3/2 38/3/2 40/3/2
f 44/3/3 42/3/3 41/3/3
f 45/3/3 42/3/3 44/3/3
f 46/3/3 42/3/3 45/3/3
f 47/3/3 42/3/3 46/3/3
f 50/3/3 44/3/3 43/3/3
f 50/3/3 45/3/3 44/3/3
f 51/3/3 45/3/3 50/3/3
f 52/2/3 46/2/3 45/2/3
f 52/3/3 45/3/3 51/3/3
f 53/3/3 48/3/3 47/3/3
f 53/2/3 46/2/3 52/2/3
f 53/3/3 47/3/3 46/3/3
f 54/3/3 48/3/3 53/3/3
f 55/3/3 48/3/3 54/3/3
f 57/3/3 50/3/3 49/3/3
f 57/3/3 51/3/3 50/3/3
f 58/2/3 52/2/3 51/2/3
f 58/3/3 51/3/3 57/3/3
f 59/1/3 53/1/3 52/1/3
f 59/2/3 52/2/3 58/2/3
f 60/2/3 54/2/3 53/2/3
f 60/1/3 53/1/3 59/1/3
f 61/3/3 56/3/3 55/3/3
f 61/2/3 54/2/3 60/2/3
f 61/3/3 55/3/3 54/3/3
f 62/3/3 56/3/3 61/3/3
f 63/3/3 57/3/3 49/3/3
f 63/2/3 58/2/3 57/2/3
f 64/1/3 60/1/3 59/1/3
f 64/2/3 58/2/3 63/2/3
f 64/1/3 59/1/3 58/1/3
f 64/1/3 61/1/3 60/1/3
f 65/1/3 61/1/3 64/1/3
f 66/1/3 61/1/3 65/1/3
f 67/2/3 62/2/3 61/2/3
f 67/1/3 61/1/3 66/1/3
f 68/3/3 56/3/3 62/3/3
f 68/2/3 62/2/3 67/2/3
f 69/3/3 63/3/3 49/3/3
f 69/3/3 64/3/3 63/3/3
f 70/3/3 64/3/3 69/3/3
f 71/2/3 65/2/3 64/2/3
f 71/3/3 64/3/3 70/3/3
f 72/1/3 66/1/3 65/1/3
f 72/2/3 65/2/3 71/2/3
f 73/2/3 67/2/3 66/2/3
f 73/1/3 66/1/3 72/1/3
f 74/3/3 68/3/3 67/3/3
f 74/2/3 67/2/3 73/2/3
f 75/3/3 56/3/3 68/3/3
f 75/3/3 68/3/3 74/3/3
f 76/3/3 56/3/3 75/3/3
f 77/3/3 72/3/3 71/3/3
f 77/3/3 71/3/3 70/3/3
f 78/3/3 72/3/3 77/3/3
f 79/2/3 73/2/3 72/2/3
f 79/3/3 72/3/3 78/3/3
f 80/3/3 74/3/3 73/3/3
f 80/2/3 73/2/3 79/2/3
f 80/3/3 75/3/3 74/3/3
f 81/3/3 75/3/3 80/3/3
f 82/3/3 75/3/3 81/3/3
f 83/3/3 79/3/3 78/3/3
f 83/3/3 81/3/3 80/3/3
f 83/3/3 80/3/3 79/3/3
f 84/3/3 81/3/3 83/3/3
f 85/3/4 86/3/4 88/3/4
f 88/3/4 86/3/4 89/3/4
f 89/3/4 86/3/4 90/3/4
f 90/3/4 86/3/4 91/3/4
f 87/3/4 88/3/4 94/3/4
f 88/3/4 89/3/4 94/3/4
f 94/3/4 89/3/4 95/3/4
f 89/2/4 90/2/4 96/2/4
f 95/3/4 89/3/4 96/3/4
f 91/3/4 92/3/4 97/3/4
f 96/2/4 90/2/4 97/2/4
f 90/3/4 91/3/4 97/3/4
f 97/3/4 92/3/4 98/3/4
f 98/3/4 92/3/4 99/3/4
f 93/3/4 94/3/4 101/3/4
f 94/3/4 95/3/4 101/3/4
f 95/2/4 96/2/4 102/2/4
f 101/3/4 95/3/4 102/3/4
f 96/1/4 97/1/4 103/1/4
f 102/2/4 96/2/4 103/2/4
f 97/2/4 98/2/4 104/2/4
f 103/1/4 97/1/4 104/1/4
f 99/3/4 100/3/4 105/3/4
f 104/2/4 98/2/4 105/2/4
f 98/3/4 99/3/4 105/3/4
f 105/3/4 100/3/4 106/3/4
f 93/3/4 101/3/4 107/3/4
f 101/2/4 102/2/4 107/2/4
f 103/1/4 104/1/4 108/1/4
f 107/2/4 102/2/4 108/2/4
f 102/1/4 103/1/4 108/1/4
f 104/1/4 105/1/4 108/1/4
f 108/1/4 105/1/4 109/1/4
f 109/1/4 105/1/4 110/1/4
f 105/2/4 106/2/4 111/2/4
f 110/1/4 105/1/4 111/1/4
f 106/3/4 100/3/4 112/3/4
f 111/2/4 106/2/4 112/2/4
f 93/3/4 107/3/4 113/3/4
f 107/3/4 108/3/4 113/3/4
f 113/3/4 108/3/4 114/3/4
f 108/2/4 109/2/4 115/2/4
f 114/3/4 108/3/4 115/3/4
f 109/1/4 110/1/4 116/1/4
f 115/2/4 109/2/4 116/2/4
f 110/2/4 111/2/4 117/2/4
f 116/1/4 110/1/4 117/1/4
f 111/3/4 112/3/4 118/3/4
f 117/2/4 111/2/4 118/2/4
f 112/3/4 100/3/4 119/3/4
f 118/3/4 112/3/4 119/3/4
f 119/3/4 100/3/4 120/3/4
f 115/3/4 116/3/4 121/3/4
f 114/3/4 115/3/4 121/3/4
f 121/3/4 116/3/4 122/3/4
f 116/2/4 117/2/4 123/2/4
f 122/3/4 116/3/4 123/3/4
f 117/3/4 118/3/4 124/3/4
f 123/2/4 117/2/4 124/2/4
f 118/3/4 119/3/4 124/3/4
f 124/3/4 119/3/4 125/3/4
f 125/3/4 119/3/4 126/3/4
f 122/3/4 123/3/4 127/3/4
f 124/3/4 125/3/4 127/3/4
f 123/3/4 124/3/4 127/3/4
f 127/3/4 125/3/4 128/3/4
f 131/3/5 130/3/5 129/3/5
f 132/3/5 130/3/5 131/3/5
f 137/3/5 134/3/5 133/3/5
f 138/3/5 134/3/5 137/3/5
f 139/3/5 136/3/5 135/3/5
f 140/3/5 136/3/5 139/3/5
f 145/3/5 142/3/5 141/3/5
f 146/3/5 142/3/5 145/3/5
f 147/3/5 144/3/5 143/3/5
f 148/3/5 144/3/5 147/3/5
f 149/3/6 150/3/6 153/3/6
f 153/3/6 150/3/6 154/3/6
f 151/3/6 152/3/6 155/3/6
f 155/3/6 152/3/6 156/3/6
f 157/3/6 158/3/6 161/3/6
f 161/3/6 158/3/6 162/3/6
f 159/3/6 160/3/6 163/3/6
f 163/3/6 160/3/6 164/3/6
f 165/3/6 166/3/6 167/3/6
f 167/3/6 166/3/6 168/3/6
