# MagicaVoxel @ Ephtracy

# group
o 

# material
mtllib tractor-trailer-v1-grey.mtl
usemtl palette

# normals
vn 1 0 0
vn -1 0 0
vn 0 0 -1
vn 0 0 1
vn 0 -1 0
vn 0 1 0

# texcoords
vt 0.818359 0.5
vt 0.869141 0.5
vt 0.908203 0.5

# verts
v 1.3 0.1 -0.4
v 1.3 0.1 0.4
v 1.3 0.2 -0.4
v 1.3 0.2 -0.2
v 1.3 0.2 0.2
v 1.3 0.2 0.4
v 1.3 0.3 -0.4
v 1.3 0.3 -0.2
v 1.3 0.3 0.2
v 1.3 0.3 0.4
v 1.3 0.6 -0.4
v 1.3 0.6 0.4
v 0.9 0.1 -0.4
v 0.9 0.1 -0.3
v 0.9 0.1 0.3
v 0.9 0.1 0.4
v 0.9 0.2 -0.4
v 0.9 0.2 -0.3
v 0.9 0.2 0.3
v 0.9 0.2 0.4
v -0.8 0.1 -0.4
v -0.8 0.1 -0.3
v -0.8 0.1 0.3
v -0.8 0.1 0.4
v -0.8 0.2 -0.4
v -0.8 0.2 -0.3
v -0.8 0.2 0.3
v -0.8 0.2 0.4
v -0.9 0.2 -0.3
v -0.9 0.2 0.3
v -0.9 0.6 -0.3
v -0.9 0.6 0.3
v 1.2 0.2 -0.3
v 1.2 0.2 -0.2
v 1.2 0.2 0.2
v 1.2 0.2 0.3
v 1.2 0.3 -0.3
v 1.2 0.3 -0.2
v 1.2 0.3 0.2
v 1.2 0.3 0.3
v 1.2 0.6 -0.3
v 1.2 0.6 0.3
v 1.1 0.1 -0.4
v 1.1 0.1 -0.3
v 1.1 0.1 0.3
v 1.1 0.1 0.4
v 1.1 0.2 -0.4
v 1.1 0.2 -0.3
v 1.1 0.2 0.3
v 1.1 0.2 0.4
v -0.6 0.1 -0.4
v -0.6 0.1 -0.3
v -0.6 0.1 0.3
v -0.6 0.1 0.4
v -0.6 0.2 -0.4
v -0.6 0.2 -0.3
v -0.6 0.2 0.3
v -0.6 0.2 0.4
v -1 0.1 -0.4
v -1 0.1 0.4
v -1 0.2 -0.4
v -1 0.2 -0.1
v -1 0.2 0.1
v -1 0.2 0.4
v -1 0.3 -0.1
v -1 0.3 0.1
v -1 0.6 -0.4
v -1 0.6 0.4
v -1.3 0.2 -0.1
v -1.3 0.2 0.1
v -1.3 0.3 -0.1
v -1.3 0.3 0.1
v 1.3 0.1 -0.4
v 1.3 0.2 -0.4
v 1.3 0.3 -0.4
v 1.3 0.6 -0.4
v 1.2 0.2 -0.4
v 1.2 0.3 -0.4
v 1.1 0.1 -0.4
v 1.1 0.2 -0.4
v 0.9 0.1 -0.4
v 0.9 0.2 -0.4
v -0.6 0.1 -0.4
v -0.6 0.2 -0.4
v -0.8 0.1 -0.4
v -0.8 0.2 -0.4
v -1 0.1 -0.4
v -1 0.2 -0.4
v -1 0.6 -0.4
v 1.1 0.1 -0.3
v 1.1 0.2 -0.3
v 0.9 0.1 -0.3
v 0.9 0.2 -0.3
v -0.6 0.1 -0.3
v -0.6 0.2 -0.3
v -0.8 0.1 -0.3
v -0.8 0.2 -0.3
v -1 0.2 -0.1
v -1 0.3 -0.1
v -1.3 0.2 -0.1
v -1.3 0.3 -0.1
v 1.2 0.2 0.3
v 1.2 0.3 0.3
v 1.2 0.6 0.3
v -0.9 0.2 0.3
v -0.9 0.6 0.3
v 1.2 0.2 -0.3
v 1.2 0.3 -0.3
v 1.2 0.6 -0.3
v -0.9 0.2 -0.3
v -0.9 0.6 -0.3
v -1 0.2 0.1
v -1 0.3 0.1
v -1.3 0.2 0.1
v -1.3 0.3 0.1
v 1.1 0.1 0.3
v 1.1 0.2 0.3
v 0.9 0.1 0.3
v 0.9 0.2 0.3
v -0.6 0.1 0.3
v -0.6 0.2 0.3
v -0.8 0.1 0.3
v -0.8 0.2 0.3
v 1.3 0.1 0.4
v 1.3 0.2 0.4
v 1.3 0.3 0.4
v 1.3 0.6 0.4
v 1.2 0.2 0.4
v 1.2 0.3 0.4
v 1.1 0.1 0.4
v 1.1 0.2 0.4
v 0.9 0.1 0.4
v 0.9 0.2 0.4
v -0.6 0.1 0.4
v -0.6 0.2 0.4
v -0.8 0.1 0.4
v -0.8 0.2 0.4
v -1 0.1 0.4
v -1 0.2 0.4
v -1 0.6 0.4
v 1.3 0.1 -0.4
v 1.1 0.1 -0.4
v 0.9 0.1 -0.4
v -0.6 0.1 -0.4
v -0.8 0.1 -0.4
v -1 0.1 -0.4
v 1.1 0.1 -0.3
v 0.9 0.1 -0.3
v -0.6 0.1 -0.3
v -0.8 0.1 -0.3
v 1.1 0.1 0.3
v 0.9 0.1 0.3
v -0.6 0.1 0.3
v -0.8 0.1 0.3
v 1.3 0.1 0.4
v 1.1 0.1 0.4
v 0.9 0.1 0.4
v -0.6 0.1 0.4
v -0.8 0.1 0.4
v -1 0.1 0.4
v 1.1 0.2 -0.4
v 0.9 0.2 -0.4
v -0.6 0.2 -0.4
v -0.8 0.2 -0.4
v 1.1 0.2 -0.3
v 0.9 0.2 -0.3
v -0.6 0.2 -0.3
v -0.8 0.2 -0.3
v -1 0.2 -0.1
v -1.3 0.2 -0.1
v -1 0.2 0.1
v -1.3 0.2 0.1
v 1.1 0.2 0.3
v 0.9 0.2 0.3
v -0.6 0.2 0.3
v -0.8 0.2 0.3
v 1.1 0.2 0.4
v 0.9 0.2 0.4
v -0.6 0.2 0.4
v -0.8 0.2 0.4
v 1.2 0.2 -0.3
v -0.9 0.2 -0.3
v 1.2 0.2 -0.2
v 1.2 0.2 0.2
v 1.2 0.2 0.3
v -0.9 0.2 0.3
v -1 0.3 -0.1
v -1.3 0.3 -0.1
v -1 0.3 0.1
v -1.3 0.3 0.1
v 1.3 0.6 -0.4
v -1 0.6 -0.4
v 1.2 0.6 -0.3
v -0.9 0.6 -0.3
v 1.2 0.6 0.3
v -0.9 0.6 0.3
v 1.3 0.6 0.4
v -1 0.6 0.4

# faces
f 3/1/1 2/1/1 1/1/1
f 4/1/1 2/1/1 3/1/1
f 5/1/1 2/1/1 4/1/1
f 6/1/1 2/1/1 5/1/1
f 7/3/1 4/3/1 3/3/1
f 8/2/1 5/2/1 4/2/1
f 8/3/1 4/3/1 7/3/1
f 9/3/1 6/3/1 5/3/1
f 9/2/1 5/2/1 8/2/1
f 10/3/1 6/3/1 9/3/1
f 11/2/1 8/2/1 7/2/1
f 11/2/1 9/2/1 8/2/1
f 11/2/1 10/2/1 9/2/1
f 12/2/1 10/2/1 11/2/1
f 17/1/1 14/1/1 13/1/1
f 18/1/1 14/1/1 17/1/1
f 19/1/1 16/1/1 15/1/1
f 20/1/1 16/1/1 19/1/1
f 25/1/1 22/1/1 21/1/1
f 26/1/1 22/1/1 25/1/1
f 27/1/1 24/1/1 23/1/1
f 28/1/1 24/1/1 27/1/1
f 31/2/1 30/2/1 29/2/1
f 32/2/1 30/2/1 31/2/1
f 33/3/2 34/3/2 37/3/2
f 34/2/2 35/2/2 38/2/2
f 37/3/2 34/3/2 38/3/2
f 35/3/2 36/3/2 39/3/2
f 38/2/2 35/2/2 39/2/2
f 39/3/2 36/3/2 40/3/2
f 37/2/2 38/2/2 41/2/2
f 38/2/2 39/2/2 41/2/2
f 39/2/2 40/2/2 41/2/2
f 41/2/2 40/2/2 42/2/2
f 43/1/2 44/1/2 47/1/2
f 47/1/2 44/1/2 48/1/2
f 45/1/2 46/1/2 49/1/2
f 49/1/2 46/1/2 50/1/2
f 51/1/2 52/1/2 55/1/2
f 55/1/2 52/1/2 56/1/2
f 53/1/2 54/1/2 57/1/2
f 57/1/2 54/1/2 58/1/2
f 59/1/2 60/1/2 61/1/2
f 61/1/2 60/1/2 62/1/2
f 62/1/2 60/1/2 63/1/2
f 63/1/2 60/1/2 64/1/2
f 61/2/2 62/2/2 65/2/2
f 63/2/2 64/2/2 66/2/2
f 61/2/2 65/2/2 67/2/2
f 65/2/2 66/2/2 67/2/2
f 66/2/2 64/2/2 68/2/2
f 67/2/2 66/2/2 68/2/2
f 69/1/2 70/1/2 71/1/2
f 71/1/2 70/1/2 72/1/2
f 77/1/3 74/1/3 73/1/3
f 77/3/3 75/3/3 74/3/3
f 78/2/3 76/2/3 75/2/3
f 78/3/3 75/3/3 77/3/3
f 79/1/3 77/1/3 73/1/3
f 80/2/3 78/2/3 77/2/3
f 80/1/3 77/1/3 79/1/3
f 82/2/3 78/2/3 80/2/3
f 83/1/3 82/1/3 81/1/3
f 84/2/3 78/2/3 82/2/3
f 84/1/3 82/1/3 83/1/3
f 86/2/3 78/2/3 84/2/3
f 87/1/3 86/1/3 85/1/3
f 88/2/3 78/2/3 86/2/3
f 88/1/3 86/1/3 87/1/3
f 89/2/3 76/2/3 78/2/3
f 89/2/3 78/2/3 88/2/3
f 92/1/3 91/1/3 90/1/3
f 93/1/3 91/1/3 92/1/3
f 96/1/3 95/1/3 94/1/3
f 97/1/3 95/1/3 96/1/3
f 100/1/3 99/1/3 98/1/3
f 101/1/3 99/1/3 100/1/3
f 105/2/3 103/2/3 102/2/3
f 105/2/3 104/2/3 103/2/3
f 106/2/3 104/2/3 105/2/3
f 107/2/4 108/2/4 110/2/4
f 108/2/4 109/2/4 110/2/4
f 110/2/4 109/2/4 111/2/4
f 112/1/4 113/1/4 114/1/4
f 114/1/4 113/1/4 115/1/4
f 116/1/4 117/1/4 118/1/4
f 118/1/4 117/1/4 119/1/4
f 120/1/4 121/1/4 122/1/4
f 122/1/4 121/1/4 123/1/4
f 124/1/4 125/1/4 128/1/4
f 125/3/4 126/3/4 128/3/4
f 126/2/4 127/2/4 129/2/4
f 128/3/4 126/3/4 129/3/4
f 124/1/4 128/1/4 130/1/4
f 128/2/4 129/2/4 131/2/4
f 130/1/4 128/1/4 131/1/4
f 131/2/4 129/2/4 133/2/4
f 132/1/4 133/1/4 134/1/4
f 133/2/4 129/2/4 135/2/4
f 134/1/4 133/1/4 135/1/4
f 135/2/4 129/2/4 137/2/4
f 136/1/4 137/1/4 138/1/4
f 137/2/4 129/2/4 139/2/4
f 138/1/4 137/1/4 139/1/4
f 129/2/4 127/2/4 140/2/4
f 139/2/4 129/2/4 140/2/4
f 147/1/5 142/1/5 141/1/5
f 148/1/5 144/1/5 143/1/5
f 149/1/5 144/1/5 148/1/5
f 150/1/5 146/1/5 145/1/5
f 151/1/5 149/1/5 148/1/5
f 151/1/5 150/1/5 149/1/5
f 151/1/5 147/1/5 141/1/5
f 151/1/5 148/1/5 147/1/5
f 152/1/5 150/1/5 151/1/5
f 153/1/5 150/1/5 152/1/5
f 154/1/5 146/1/5 150/1/5
f 154/1/5 150/1/5 153/1/5
f 155/1/5 151/1/5 141/1/5
f 156/1/5 151/1/5 155/1/5
f 157/1/5 153/1/5 152/1/5
f 158/1/5 153/1/5 157/1/5
f 159/1/5 146/1/5 154/1/5
f 160/1/5 146/1/5 159/1/5
f 165/2/5 162/2/5 161/2/5
f 166/2/5 162/2/5 165/2/5
f 167/2/5 164/2/5 163/2/5
f 168/2/5 164/2/5 167/2/5
f 171/1/5 170/1/5 169/1/5
f 172/1/5 170/1/5 171/1/5
f 177/2/5 174/2/5 173/2/5
f 178/2/5 174/2/5 177/2/5
f 179/2/5 176/2/5 175/2/5
f 180/2/5 176/2/5 179/2/5
f 181/1/6 182/1/6 183/1/6
f 183/1/6 182/1/6 184/1/6
f 184/1/6 182/1/6 185/1/6
f 185/1/6 182/1/6 186/1/6
f 187/1/6 188/1/6 189/1/6
f 189/1/6 188/1/6 190/1/6
f 191/2/6 192/2/6 193/2/6
f 193/2/6 192/2/6 194/2/6
f 191/2/6 193/2/6 195/2/6
f 194/2/6 192/2/6 196/2/6
f 191/2/6 195/2/6 197/2/6
f 195/2/6 196/2/6 197/2/6
f 196/2/6 192/2/6 198/2/6
f 197/2/6 196/2/6 198/2/6
