# MagicaVoxel @ Ephtracy

# group
o 

# material
mtllib tractor-trailer-v3-grey.mtl
usemtl palette

# normals
vn 1 0 0
vn -1 0 0
vn 0 0 -1
vn 0 0 1
vn 0 -1 0
vn 0 1 0

# texcoords
vt 0.818359 0.5
vt 0.869141 0.5
vt 0.908203 0.5

# verts
v 1.3 0.1 -0.4
v 1.3 0.1 0.4
v 1.3 0.2 -0.4
v 1.3 0.2 -0.2
v 1.3 0.2 0.2
v 1.3 0.2 0.4
v 1.3 0.3 -0.4
v 1.3 0.3 -0.2
v 1.3 0.3 0.2
v 1.3 0.3 0.4
v 1.2 0.3 -0.4
v 1.2 0.3 -0.3
v 1.2 0.3 0.3
v 1.2 0.3 0.4
v 1.2 0.9 -0.4
v 1.2 0.9 -0.3
v 1.2 0.9 0.3
v 1.2 0.9 0.4
v 0.9 0.1 -0.4
v 0.9 0.1 -0.3
v 0.9 0.1 0.3
v 0.9 0.1 0.4
v 0.9 0.2 -0.4
v 0.9 0.2 -0.3
v 0.9 0.2 0.3
v 0.9 0.2 0.4
v 0.7 0.3 -0.4
v 0.7 0.3 -0.3
v 0.7 0.3 0.3
v 0.7 0.3 0.4
v 0.7 0.9 -0.4
v 0.7 0.9 -0.3
v 0.7 0.9 0.3
v 0.7 0.9 0.4
v 0.2 0.3 -0.4
v 0.2 0.3 -0.3
v 0.2 0.3 0.3
v 0.2 0.3 0.4
v 0.2 0.9 -0.4
v 0.2 0.9 -0.3
v 0.2 0.9 0.3
v 0.2 0.9 0.4
v -0.3 0.3 -0.4
v -0.3 0.3 -0.3
v -0.3 0.3 0.3
v -0.3 0.3 0.4
v -0.3 0.9 -0.4
v -0.3 0.9 -0.3
v -0.3 0.9 0.3
v -0.3 0.9 0.4
v -0.8 0.1 -0.4
v -0.8 0.1 -0.3
v -0.8 0.1 0.3
v -0.8 0.1 0.4
v -0.8 0.2 -0.4
v -0.8 0.2 -0.3
v -0.8 0.2 0.3
v -0.8 0.2 0.4
v -0.8 0.3 -0.4
v -0.8 0.3 -0.3
v -0.8 0.3 0.3
v -0.8 0.3 0.4
v -0.8 0.9 -0.4
v -0.8 0.9 -0.3
v -0.8 0.9 0.3
v -0.8 0.9 0.4
v 1.1 0.1 -0.4
v 1.1 0.1 -0.3
v 1.1 0.1 0.3
v 1.1 0.1 0.4
v 1.1 0.2 -0.4
v 1.1 0.2 -0.3
v 1.1 0.2 0.3
v 1.1 0.2 0.4
v 1.1 0.3 -0.4
v 1.1 0.3 -0.3
v 1.1 0.3 0.3
v 1.1 0.3 0.4
v 1.1 0.9 -0.4
v 1.1 0.9 -0.3
v 1.1 0.9 0.3
v 1.1 0.9 0.4
v 0.6 0.3 -0.4
v 0.6 0.3 -0.3
v 0.6 0.3 0.3
v 0.6 0.3 0.4
v 0.6 0.9 -0.4
v 0.6 0.9 -0.3
v 0.6 0.9 0.3
v 0.6 0.9 0.4
v 0.1 0.3 -0.4
v 0.1 0.3 -0.3
v 0.1 0.3 0.3
v 0.1 0.3 0.4
v 0.1 0.9 -0.4
v 0.1 0.9 -0.3
v 0.1 0.9 0.3
v 0.1 0.9 0.4
v -0.4 0.3 -0.4
v -0.4 0.3 -0.3
v -0.4 0.3 0.3
v -0.4 0.3 0.4
v -0.4 0.9 -0.4
v -0.4 0.9 -0.3
v -0.4 0.9 0.3
v -0.4 0.9 0.4
v -0.6 0.1 -0.4
v -0.6 0.1 -0.3
v -0.6 0.1 0.3
v -0.6 0.1 0.4
v -0.6 0.2 -0.4
v -0.6 0.2 -0.3
v -0.6 0.2 0.3
v -0.6 0.2 0.4
v -0.9 0.3 -0.4
v -0.9 0.3 -0.3
v -0.9 0.3 0.3
v -0.9 0.3 0.4
v -0.9 0.9 -0.4
v -0.9 0.9 -0.3
v -0.9 0.9 0.3
v -0.9 0.9 0.4
v -1 0.1 -0.4
v -1 0.1 0.4
v -1 0.2 -0.4
v -1 0.2 -0.1
v -1 0.2 0.1
v -1 0.2 0.4
v -1 0.3 -0.4
v -1 0.3 -0.1
v -1 0.3 0.1
v -1 0.3 0.4
v -1.3 0.2 -0.1
v -1.3 0.2 0.1
v -1.3 0.3 -0.1
v -1.3 0.3 0.1
v 1.3 0.1 -0.4
v 1.3 0.2 -0.4
v 1.3 0.3 -0.4
v 1.2 0.2 -0.4
v 1.2 0.3 -0.4
v 1.2 0.9 -0.4
v 1.1 0.1 -0.4
v 1.1 0.2 -0.4
v 1.1 0.3 -0.4
v 1.1 0.9 -0.4
v 0.9 0.1 -0.4
v 0.9 0.2 -0.4
v 0.7 0.3 -0.4
v 0.7 0.9 -0.4
v 0.6 0.3 -0.4
v 0.6 0.9 -0.4
v 0.2 0.3 -0.4
v 0.2 0.9 -0.4
v 0.1 0.3 -0.4
v 0.1 0.9 -0.4
v -0.3 0.3 -0.4
v -0.3 0.9 -0.4
v -0.4 0.3 -0.4
v -0.4 0.9 -0.4
v -0.6 0.1 -0.4
v -0.6 0.2 -0.4
v -0.8 0.1 -0.4
v -0.8 0.2 -0.4
v -0.8 0.3 -0.4
v -0.8 0.9 -0.4
v -0.9 0.3 -0.4
v -0.9 0.9 -0.4
v -1 0.1 -0.4
v -1 0.2 -0.4
v -1 0.3 -0.4
v 1.1 0.1 -0.3
v 1.1 0.2 -0.3
v 0.9 0.1 -0.3
v 0.9 0.2 -0.3
v -0.6 0.1 -0.3
v -0.6 0.2 -0.3
v -0.8 0.1 -0.3
v -0.8 0.2 -0.3
v -1 0.2 -0.1
v -1 0.3 -0.1
v -1.3 0.2 -0.1
v -1.3 0.3 -0.1
v 1.2 0.3 0.3
v 1.2 0.9 0.3
v 1.1 0.3 0.3
v 1.1 0.9 0.3
v 0.7 0.3 0.3
v 0.7 0.9 0.3
v 0.6 0.3 0.3
v 0.6 0.9 0.3
v 0.2 0.3 0.3
v 0.2 0.9 0.3
v 0.1 0.3 0.3
v 0.1 0.9 0.3
v -0.3 0.3 0.3
v -0.3 0.9 0.3
v -0.4 0.3 0.3
v -0.4 0.9 0.3
v -0.8 0.3 0.3
v -0.8 0.9 0.3
v -0.9 0.3 0.3
v -0.9 0.9 0.3
v 1.2 0.3 -0.3
v 1.2 0.9 -0.3
v 1.1 0.3 -0.3
v 1.1 0.9 -0.3
v 0.7 0.3 -0.3
v 0.7 0.9 -0.3
v 0.6 0.3 -0.3
v 0.6 0.9 -0.3
v 0.2 0.3 -0.3
v 0.2 0.9 -0.3
v 0.1 0.3 -0.3
v 0.1 0.9 -0.3
v -0.3 0.3 -0.3
v -0.3 0.9 -0.3
v -0.4 0.3 -0.3
v -0.4 0.9 -0.3
v -0.8 0.3 -0.3
v -0.8 0.9 -0.3
v -0.9 0.3 -0.3
v -0.9 0.9 -0.3
v -1 0.2 0.1
v -1 0.3 0.1
v -1.3 0.2 0.1
v -1.3 0.3 0.1
v 1.1 0.1 0.3
v 1.1 0.2 0.3
v 0.9 0.1 0.3
v 0.9 0.2 0.3
v -0.6 0.1 0.3
v -0.6 0.2 0.3
v -0.8 0.1 0.3
v -0.8 0.2 0.3
v 1.3 0.1 0.4
v 1.3 0.2 0.4
v 1.3 0.3 0.4
v 1.2 0.2 0.4
v 1.2 0.3 0.4
v 1.2 0.9 0.4
v 1.1 0.1 0.4
v 1.1 0.2 0.4
v 1.1 0.3 0.4
v 1.1 0.9 0.4
v 0.9 0.1 0.4
v 0.9 0.2 0.4
v 0.7 0.3 0.4
v 0.7 0.9 0.4
v 0.6 0.3 0.4
v 0.6 0.9 0.4
v 0.2 0.3 0.4
v 0.2 0.9 0.4
v 0.1 0.3 0.4
v 0.1 0.9 0.4
v -0.3 0.3 0.4
v -0.3 0.9 0.4
v -0.4 0.3 0.4
v -0.4 0.9 0.4
v -0.6 0.1 0.4
v -0.6 0.2 0.4
v -0.8 0.1 0.4
v -0.8 0.2 0.4
v -0.8 0.3 0.4
v -0.8 0.9 0.4
v -0.9 0.3 0.4
v -0.9 0.9 0.4
v -1 0.1 0.4
v -1 0.2 0.4
v -1 0.3 0.4
v 1.3 0.1 -0.4
v 1.1 0.1 -0.4
v 0.9 0.1 -0.4
v -0.6 0.1 -0.4
v -0.8 0.1 -0.4
v -1 0.1 -0.4
v 1.1 0.1 -0.3
v 0.9 0.1 -0.3
v -0.6 0.1 -0.3
v -0.8 0.1 -0.3
v 1.1 0.1 0.3
v 0.9 0.1 0.3
v -0.6 0.1 0.3
v -0.8 0.1 0.3
v 1.3 0.1 0.4
v 1.1 0.1 0.4
v 0.9 0.1 0.4
v -0.6 0.1 0.4
v -0.8 0.1 0.4
v -1 0.1 0.4
v 1.1 0.2 -0.4
v 0.9 0.2 -0.4
v -0.6 0.2 -0.4
v -0.8 0.2 -0.4
v 1.1 0.2 -0.3
v 0.9 0.2 -0.3
v -0.6 0.2 -0.3
v -0.8 0.2 -0.3
v -1 0.2 -0.1
v -1.3 0.2 -0.1
v -1 0.2 0.1
v -1.3 0.2 0.1
v 1.1 0.2 0.3
v 0.9 0.2 0.3
v -0.6 0.2 0.3
v -0.8 0.2 0.3
v 1.1 0.2 0.4
v 0.9 0.2 0.4
v -0.6 0.2 0.4
v -0.8 0.2 0.4
v 1.3 0.3 -0.4
v 1.2 0.3 -0.4
v 1.1 0.3 -0.4
v 0.7 0.3 -0.4
v 0.6 0.3 -0.4
v 0.2 0.3 -0.4
v 0.1 0.3 -0.4
v -0.3 0.3 -0.4
v -0.4 0.3 -0.4
v -0.8 0.3 -0.4
v -0.9 0.3 -0.4
v -1 0.3 -0.4
v 1.2 0.3 -0.3
v 1.1 0.3 -0.3
v 0.7 0.3 -0.3
v 0.6 0.3 -0.3
v 0.2 0.3 -0.3
v 0.1 0.3 -0.3
v -0.3 0.3 -0.3
v -0.4 0.3 -0.3
v -0.8 0.3 -0.3
v -0.9 0.3 -0.3
v 1.3 0.3 -0.2
v 1.2 0.3 -0.2
v -1 0.3 -0.1
v -1.3 0.3 -0.1
v -1 0.3 0.1
v -1.3 0.3 0.1
v 1.3 0.3 0.2
v 1.2 0.3 0.2
v 1.2 0.3 0.3
v 1.1 0.3 0.3
v 0.7 0.3 0.3
v 0.6 0.3 0.3
v 0.2 0.3 0.3
v 0.1 0.3 0.3
v -0.3 0.3 0.3
v -0.4 0.3 0.3
v -0.8 0.3 0.3
v -0.9 0.3 0.3
v 1.3 0.3 0.4
v 1.2 0.3 0.4
v 1.1 0.3 0.4
v 0.7 0.3 0.4
v 0.6 0.3 0.4
v 0.2 0.3 0.4
v 0.1 0.3 0.4
v -0.3 0.3 0.4
v -0.4 0.3 0.4
v -0.8 0.3 0.4
v -0.9 0.3 0.4
v -1 0.3 0.4
v 1.2 0.9 -0.4
v 1.1 0.9 -0.4
v 0.7 0.9 -0.4
v 0.6 0.9 -0.4
v 0.2 0.9 -0.4
v 0.1 0.9 -0.4
v -0.3 0.9 -0.4
v -0.4 0.9 -0.4
v -0.8 0.9 -0.4
v -0.9 0.9 -0.4
v 1.2 0.9 -0.3
v 1.1 0.9 -0.3
v 0.7 0.9 -0.3
v 0.6 0.9 -0.3
v 0.2 0.9 -0.3
v 0.1 0.9 -0.3
v -0.3 0.9 -0.3
v -0.4 0.9 -0.3
v -0.8 0.9 -0.3
v -0.9 0.9 -0.3
v 1.2 0.9 0.3
v 1.1 0.9 0.3
v 0.7 0.9 0.3
v 0.6 0.9 0.3
v 0.2 0.9 0.3
v 0.1 0.9 0.3
v -0.3 0.9 0.3
v -0.4 0.9 0.3
v -0.8 0.9 0.3
v -0.9 0.9 0.3
v 1.2 0.9 0.4
v 1.1 0.9 0.4
v 0.7 0.9 0.4
v 0.6 0.9 0.4
v 0.2 0.9 0.4
v 0.1 0.9 0.4
v -0.3 0.9 0.4
v -0.4 0.9 0.4
v -0.8 0.9 0.4
v -0.9 0.9 0.4

# faces
f 3/1/1 2/1/1 1/1/1
f 4/1/1 2/1/1 3/1/1
f 5/1/1 2/1/1 4/1/1
f 6/1/1 2/1/1 5/1/1
f 7/3/1 4/3/1 3/3/1
f 8/2/1 5/2/1 4/2/1
f 8/3/1 4/3/1 7/3/1
f 9/3/1 6/3/1 5/3/1
f 9/2/1 5/2/1 8/2/1
f 10/3/1 6/3/1 9/3/1
f 15/1/1 12/1/1 11/1/1
f 16/1/1 12/1/1 15/1/1
f 17/1/1 14/1/1 13/1/1
f 18/1/1 14/1/1 17/1/1
f 23/1/1 20/1/1 19/1/1
f 24/1/1 20/1/1 23/1/1
f 25/1/1 22/1/1 21/1/1
f 26/1/1 22/1/1 25/1/1
f 31/1/1 28/1/1 27/1/1
f 32/1/1 28/1/1 31/1/1
f 33/1/1 30/1/1 29/1/1
f 34/1/1 30/1/1 33/1/1
f 39/1/1 36/1/1 35/1/1
f 40/1/1 36/1/1 39/1/1
f 41/1/1 38/1/1 37/1/1
f 42/1/1 38/1/1 41/1/1
f 47/1/1 44/1/1 43/1/1
f 48/1/1 44/1/1 47/1/1
f 49/1/1 46/1/1 45/1/1
f 50/1/1 46/1/1 49/1/1
f 55/1/1 52/1/1 51/1/1
f 56/1/1 52/1/1 55/1/1
f 57/1/1 54/1/1 53/1/1
f 58/1/1 54/1/1 57/1/1
f 63/1/1 60/1/1 59/1/1
f 64/1/1 60/1/1 63/1/1
f 65/1/1 62/1/1 61/1/1
f 66/1/1 62/1/1 65/1/1
f 67/1/2 68/1/2 71/1/2
f 71/1/2 68/1/2 72/1/2
f 69/1/2 70/1/2 73/1/2
f 73/1/2 70/1/2 74/1/2
f 75/1/2 76/1/2 79/1/2
f 79/1/2 76/1/2 80/1/2
f 77/1/2 78/1/2 81/1/2
f 81/1/2 78/1/2 82/1/2
f 83/1/2 84/1/2 87/1/2
f 87/1/2 84/1/2 88/1/2
f 85/1/2 86/1/2 89/1/2
f 89/1/2 86/1/2 90/1/2
f 91/1/2 92/1/2 95/1/2
f 95/1/2 92/1/2 96/1/2
f 93/1/2 94/1/2 97/1/2
f 97/1/2 94/1/2 98/1/2
f 99/1/2 100/1/2 103/1/2
f 103/1/2 100/1/2 104/1/2
f 101/1/2 102/1/2 105/1/2
f 105/1/2 102/1/2 106/1/2
f 107/1/2 108/1/2 111/1/2
f 111/1/2 108/1/2 112/1/2
f 109/1/2 110/1/2 113/1/2
f 113/1/2 110/1/2 114/1/2
f 115/1/2 116/1/2 119/1/2
f 119/1/2 116/1/2 120/1/2
f 117/1/2 118/1/2 121/1/2
f 121/1/2 118/1/2 122/1/2
f 123/1/2 124/1/2 125/1/2
f 125/1/2 124/1/2 126/1/2
f 126/1/2 124/1/2 127/1/2
f 127/1/2 124/1/2 128/1/2
f 125/2/2 126/2/2 129/2/2
f 129/2/2 126/2/2 130/2/2
f 127/2/2 128/2/2 131/2/2
f 131/2/2 128/2/2 132/2/2
f 133/1/2 134/1/2 135/1/2
f 135/1/2 134/1/2 136/1/2
f 140/1/3 138/1/3 137/1/3
f 140/3/3 139/3/3 138/3/3
f 141/3/3 139/3/3 140/3/3
f 143/1/3 140/1/3 137/1/3
f 144/2/3 141/2/3 140/2/3
f 144/1/3 140/1/3 143/1/3
f 145/1/3 142/1/3 141/1/3
f 145/2/3 141/2/3 144/2/3
f 146/1/3 142/1/3 145/1/3
f 148/2/3 145/2/3 144/2/3
f 149/2/3 145/2/3 148/2/3
f 151/2/3 149/2/3 148/2/3
f 151/1/3 150/1/3 149/1/3
f 152/1/3 150/1/3 151/1/3
f 153/2/3 151/2/3 148/2/3
f 155/2/3 153/2/3 148/2/3
f 155/1/3 154/1/3 153/1/3
f 156/1/3 154/1/3 155/1/3
f 157/2/3 155/2/3 148/2/3
f 159/2/3 157/2/3 148/2/3
f 159/1/3 158/1/3 157/1/3
f 160/1/3 158/1/3 159/1/3
f 161/1/3 148/1/3 147/1/3
f 162/2/3 159/2/3 148/2/3
f 162/1/3 148/1/3 161/1/3
f 164/2/3 159/2/3 162/2/3
f 165/2/3 159/2/3 164/2/3
f 167/2/3 165/2/3 164/2/3
f 167/1/3 166/1/3 165/1/3
f 168/1/3 166/1/3 167/1/3
f 169/1/3 164/1/3 163/1/3
f 170/2/3 167/2/3 164/2/3
f 170/1/3 164/1/3 169/1/3
f 171/2/3 167/2/3 170/2/3
f 174/1/3 173/1/3 172/1/3
f 175/1/3 173/1/3 174/1/3
f 178/1/3 177/1/3 176/1/3
f 179/1/3 177/1/3 178/1/3
f 182/1/3 181/1/3 180/1/3
f 183/1/3 181/1/3 182/1/3
f 186/1/3 185/1/3 184/1/3
f 187/1/3 185/1/3 186/1/3
f 190/1/3 189/1/3 188/1/3
f 191/1/3 189/1/3 190/1/3
f 194/1/3 193/1/3 192/1/3
f 195/1/3 193/1/3 194/1/3
f 198/1/3 197/1/3 196/1/3
f 199/1/3 197/1/3 198/1/3
f 202/1/3 201/1/3 200/1/3
f 203/1/3 201/1/3 202/1/3
f 204/1/4 205/1/4 206/1/4
f 206/1/4 205/1/4 207/1/4
f 208/1/4 209/1/4 210/1/4
f 210/1/4 209/1/4 211/1/4
f 212/1/4 213/1/4 214/1/4
f 214/1/4 213/1/4 215/1/4
f 216/1/4 217/1/4 218/1/4
f 218/1/4 217/1/4 219/1/4
f 220/1/4 221/1/4 222/1/4
f 222/1/4 221/1/4 223/1/4
f 224/1/4 225/1/4 226/1/4
f 226/1/4 225/1/4 227/1/4
f 228/1/4 229/1/4 230/1/4
f 230/1/4 229/1/4 231/1/4
f 232/1/4 233/1/4 234/1/4
f 234/1/4 233/1/4 235/1/4
f 236/1/4 237/1/4 239/1/4
f 237/3/4 238/3/4 239/3/4
f 239/3/4 238/3/4 240/3/4
f 236/1/4 239/1/4 242/1/4
f 239/2/4 240/2/4 243/2/4
f 242/1/4 239/1/4 243/1/4
f 240/1/4 241/1/4 244/1/4
f 243/2/4 240/2/4 244/2/4
f 244/1/4 241/1/4 245/1/4
f 243/2/4 244/2/4 247/2/4
f 247/2/4 244/2/4 248/2/4
f 247/2/4 248/2/4 250/2/4
f 248/1/4 249/1/4 250/1/4
f 250/1/4 249/1/4 251/1/4
f 247/2/4 250/2/4 252/2/4
f 247/2/4 252/2/4 254/2/4
f 252/1/4 253/1/4 254/1/4
f 254/1/4 253/1/4 255/1/4
f 247/2/4 254/2/4 256/2/4
f 247/2/4 256/2/4 258/2/4
f 256/1/4 257/1/4 258/1/4
f 258/1/4 257/1/4 259/1/4
f 246/1/4 247/1/4 260/1/4
f 247/2/4 258/2/4 261/2/4
f 260/1/4 247/1/4 261/1/4
f 261/2/4 258/2/4 263/2/4
f 263/2/4 258/2/4 264/2/4
f 263/2/4 264/2/4 266/2/4
f 264/1/4 265/1/4 266/1/4
f 266/1/4 265/1/4 267/1/4
f 262/1/4 263/1/4 268/1/4
f 263/2/4 266/2/4 269/2/4
f 268/1/4 263/1/4 269/1/4
f 269/2/4 266/2/4 270/2/4
f 277/1/5 272/1/5 271/1/5
f 278/1/5 274/1/5 273/1/5
f 279/1/5 274/1/5 278/1/5
f 280/1/5 276/1/5 275/1/5
f 281/1/5 279/1/5 278/1/5
f 281/1/5 280/1/5 279/1/5
f 281/1/5 277/1/5 271/1/5
f 281/1/5 278/1/5 277/1/5
f 282/1/5 280/1/5 281/1/5
f 283/1/5 280/1/5 282/1/5
f 284/1/5 276/1/5 280/1/5
f 284/1/5 280/1/5 283/1/5
f 285/1/5 281/1/5 271/1/5
f 286/1/5 281/1/5 285/1/5
f 287/1/5 283/1/5 282/1/5
f 288/1/5 283/1/5 287/1/5
f 289/1/5 276/1/5 284/1/5
f 290/1/5 276/1/5 289/1/5
f 295/2/5 292/2/5 291/2/5
f 296/2/5 292/2/5 295/2/5
f 297/2/5 294/2/5 293/2/5
f 298/2/5 294/2/5 297/2/5
f 301/1/5 300/1/5 299/1/5
f 302/1/5 300/1/5 301/1/5
f 307/2/5 304/2/5 303/2/5
f 308/2/5 304/2/5 307/2/5
f 309/2/5 306/2/5 305/2/5
f 310/2/5 306/2/5 309/2/5
f 311/3/6 312/3/6 323/3/6
f 313/2/6 314/2/6 324/2/6
f 324/2/6 314/2/6 325/2/6
f 315/2/6 316/2/6 326/2/6
f 326/2/6 316/2/6 327/2/6
f 317/2/6 318/2/6 328/2/6
f 328/2/6 318/2/6 329/2/6
f 319/2/6 320/2/6 330/2/6
f 330/2/6 320/2/6 331/2/6
f 321/2/6 322/2/6 332/2/6
f 311/3/6 323/3/6 333/3/6
f 330/2/6 331/2/6 334/2/6
f 333/3/6 323/3/6 334/3/6
f 331/2/6 332/2/6 334/2/6
f 324/2/6 325/2/6 334/2/6
f 326/2/6 327/2/6 334/2/6
f 329/2/6 330/2/6 334/2/6
f 328/2/6 329/2/6 334/2/6
f 327/2/6 328/2/6 334/2/6
f 323/2/6 324/2/6 334/2/6
f 325/2/6 326/2/6 334/2/6
f 332/2/6 322/2/6 335/2/6
f 334/2/6 332/2/6 335/2/6
f 333/2/6 334/2/6 335/2/6
f 333/2/6 335/2/6 337/2/6
f 335/1/6 336/1/6 337/1/6
f 337/1/6 336/1/6 338/1/6
f 333/2/6 337/2/6 339/2/6
f 339/2/6 337/2/6 340/2/6
f 339/3/6 340/3/6 341/3/6
f 340/2/6 337/2/6 341/2/6
f 341/2/6 337/2/6 342/2/6
f 342/2/6 337/2/6 343/2/6
f 343/2/6 337/2/6 344/2/6
f 344/2/6 337/2/6 345/2/6
f 345/2/6 337/2/6 346/2/6
f 346/2/6 337/2/6 347/2/6
f 347/2/6 337/2/6 348/2/6
f 348/2/6 337/2/6 349/2/6
f 349/2/6 337/2/6 350/2/6
f 339/3/6 341/3/6 351/3/6
f 351/3/6 341/3/6 352/3/6
f 342/2/6 343/2/6 353/2/6
f 353/2/6 343/2/6 354/2/6
f 344/2/6 345/2/6 355/2/6
f 355/2/6 345/2/6 356/2/6
f 346/2/6 347/2/6 357/2/6
f 357/2/6 347/2/6 358/2/6
f 348/2/6 349/2/6 359/2/6
f 359/2/6 349/2/6 360/2/6
f 350/2/6 337/2/6 361/2/6
f 361/2/6 337/2/6 362/2/6
f 363/1/6 364/1/6 373/1/6
f 373/1/6 364/1/6 374/1/6
f 365/1/6 366/1/6 375/1/6
f 375/1/6 366/1/6 376/1/6
f 367/1/6 368/1/6 377/1/6
f 377/1/6 368/1/6 378/1/6
f 369/1/6 370/1/6 379/1/6
f 379/1/6 370/1/6 380/1/6
f 371/1/6 372/1/6 381/1/6
f 381/1/6 372/1/6 382/1/6
f 383/1/6 384/1/6 393/1/6
f 393/1/6 384/1/6 394/1/6
f 385/1/6 386/1/6 395/1/6
f 395/1/6 386/1/6 396/1/6
f 387/1/6 388/1/6 397/1/6
f 397/1/6 388/1/6 398/1/6
f 389/1/6 390/1/6 399/1/6
f 399/1/6 390/1/6 400/1/6
f 391/1/6 392/1/6 401/1/6
f 401/1/6 392/1/6 402/1/6
