# MagicaVoxel @ Ephtracy

# group
o 

# material
mtllib track-straight.mtl
usemtl palette

# normals
vn -1 0 0
vn 1 0 0
vn 0 0 -1
vn 0 0 1
vn 0 -1 0
vn 0 1 0

# texcoords
vt 0.986328 0.5
vt 0.994141 0.5

# verts
v -1.6 0 -0.9
v -1.6 0 -0.8
v -1.6 0 -0.4
v -1.6 0 -0.3
v -1.6 0.1 -0.9
v -1.6 0.1 -0.8
v -1.6 0.1 -0.4
v -1.6 0.1 -0.3
v -1.5 0 -1
v -1.5 0 -0.9
v -1.5 0 -0.8
v -1.5 0 -0.4
v -1.5 0 -0.3
v -1.5 0 -0.2
v -1.5 0.1 -1
v -1.5 0.1 -0.9
v -1.5 0.1 -0.8
v -1.5 0.1 -0.4
v -1.5 0.1 -0.3
v -1.5 0.1 -0.2
v -1.1 0 -1
v -1.1 0 -0.9
v -1.1 0 -0.8
v -1.1 0 -0.4
v -1.1 0 -0.3
v -1.1 0 -0.2
v -1.1 0.1 -1
v -1.1 0.1 -0.9
v -1.1 0.1 -0.8
v -1.1 0.1 -0.4
v -1.1 0.1 -0.3
v -1.1 0.1 -0.2
v -0.7 0 -1
v -0.7 0 -0.9
v -0.7 0 -0.8
v -0.7 0 -0.4
v -0.7 0 -0.3
v -0.7 0 -0.2
v -0.7 0.1 -1
v -0.7 0.1 -0.9
v -0.7 0.1 -0.8
v -0.7 0.1 -0.4
v -0.7 0.1 -0.3
v -0.7 0.1 -0.2
v -0.3 0 -1
v -0.3 0 -0.9
v -0.3 0 -0.8
v -0.3 0 -0.4
v -0.3 0 -0.3
v -0.3 0 -0.2
v -0.3 0.1 -1
v -0.3 0.1 -0.9
v -0.3 0.1 -0.8
v -0.3 0.1 -0.4
v -0.3 0.1 -0.3
v -0.3 0.1 -0.2
v 0.1 0 -1
v 0.1 0 -0.9
v 0.1 0 -0.8
v 0.1 0 -0.4
v 0.1 0 -0.3
v 0.1 0 -0.2
v 0.1 0.1 -1
v 0.1 0.1 -0.9
v 0.1 0.1 -0.8
v 0.1 0.1 -0.4
v 0.1 0.1 -0.3
v 0.1 0.1 -0.2
v 0.5 0 -1
v 0.5 0 -0.9
v 0.5 0 -0.8
v 0.5 0 -0.4
v 0.5 0 -0.3
v 0.5 0 -0.2
v 0.5 0.1 -1
v 0.5 0.1 -0.9
v 0.5 0.1 -0.8
v 0.5 0.1 -0.4
v 0.5 0.1 -0.3
v 0.5 0.1 -0.2
v 0.9 0 -1
v 0.9 0 -0.9
v 0.9 0 -0.8
v 0.9 0 -0.4
v 0.9 0 -0.3
v 0.9 0 -0.2
v 0.9 0.1 -1
v 0.9 0.1 -0.9
v 0.9 0.1 -0.8
v 0.9 0.1 -0.4
v 0.9 0.1 -0.3
v 0.9 0.1 -0.2
v 1.3 0 -1
v 1.3 0 -0.9
v 1.3 0 -0.8
v 1.3 0 -0.4
v 1.3 0 -0.3
v 1.3 0 -0.2
v 1.3 0.1 -1
v 1.3 0.1 -0.9
v 1.3 0.1 -0.8
v 1.3 0.1 -0.4
v 1.3 0.1 -0.3
v 1.3 0.1 -0.2
v -1.3 0 -1
v -1.3 0 -0.9
v -1.3 0 -0.8
v -1.3 0 -0.4
v -1.3 0 -0.3
v -1.3 0 -0.2
v -1.3 0.1 -1
v -1.3 0.1 -0.9
v -1.3 0.1 -0.8
v -1.3 0.1 -0.4
v -1.3 0.1 -0.3
v -1.3 0.1 -0.2
v -0.9 0 -1
v -0.9 0 -0.9
v -0.9 0 -0.8
v -0.9 0 -0.4
v -0.9 0 -0.3
v -0.9 0 -0.2
v -0.9 0.1 -1
v -0.9 0.1 -0.9
v -0.9 0.1 -0.8
v -0.9 0.1 -0.4
v -0.9 0.1 -0.3
v -0.9 0.1 -0.2
v -0.5 0 -1
v -0.5 0 -0.9
v -0.5 0 -0.8
v -0.5 0 -0.4
v -0.5 0 -0.3
v -0.5 0 -0.2
v -0.5 0.1 -1
v -0.5 0.1 -0.9
v -0.5 0.1 -0.8
v -0.5 0.1 -0.4
v -0.5 0.1 -0.3
v -0.5 0.1 -0.2
v -0.1 0 -1
v -0.1 0 -0.9
v -0.1 0 -0.8
v -0.1 0 -0.4
v -0.1 0 -0.3
v -0.1 0 -0.2
v -0.1 0.1 -1
v -0.1 0.1 -0.9
v -0.1 0.1 -0.8
v -0.1 0.1 -0.4
v -0.1 0.1 -0.3
v -0.1 0.1 -0.2
v 0.3 0 -1
v 0.3 0 -0.9
v 0.3 0 -0.8
v 0.3 0 -0.4
v 0.3 0 -0.3
v 0.3 0 -0.2
v 0.3 0.1 -1
v 0.3 0.1 -0.9
v 0.3 0.1 -0.8
v 0.3 0.1 -0.4
v 0.3 0.1 -0.3
v 0.3 0.1 -0.2
v 0.7 0 -1
v 0.7 0 -0.9
v 0.7 0 -0.8
v 0.7 0 -0.4
v 0.7 0 -0.3
v 0.7 0 -0.2
v 0.7 0.1 -1
v 0.7 0.1 -0.9
v 0.7 0.1 -0.8
v 0.7 0.1 -0.4
v 0.7 0.1 -0.3
v 0.7 0.1 -0.2
v 1.1 0 -1
v 1.1 0 -0.9
v 1.1 0 -0.8
v 1.1 0 -0.4
v 1.1 0 -0.3
v 1.1 0 -0.2
v 1.1 0.1 -1
v 1.1 0.1 -0.9
v 1.1 0.1 -0.8
v 1.1 0.1 -0.4
v 1.1 0.1 -0.3
v 1.1 0.1 -0.2
v 1.5 0 -1
v 1.5 0 -0.9
v 1.5 0 -0.8
v 1.5 0 -0.4
v 1.5 0 -0.3
v 1.5 0 -0.2
v 1.5 0.1 -1
v 1.5 0.1 -0.9
v 1.5 0.1 -0.8
v 1.5 0.1 -0.4
v 1.5 0.1 -0.3
v 1.5 0.1 -0.2
v 1.6 0 -0.9
v 1.6 0 -0.8
v 1.6 0 -0.4
v 1.6 0 -0.3
v 1.6 0.1 -0.9
v 1.6 0.1 -0.8
v 1.6 0.1 -0.4
v 1.6 0.1 -0.3
v -1.5 0 -1
v -1.5 0.1 -1
v -1.3 0 -1
v -1.3 0.1 -1
v -1.1 0 -1
v -1.1 0.1 -1
v -0.9 0 -1
v -0.9 0.1 -1
v -0.7 0 -1
v -0.7 0.1 -1
v -0.5 0 -1
v -0.5 0.1 -1
v -0.3 0 -1
v -0.3 0.1 -1
v -0.1 0 -1
v -0.1 0.1 -1
v 0.1 0 -1
v 0.1 0.1 -1
v 0.3 0 -1
v 0.3 0.1 -1
v 0.5 0 -1
v 0.5 0.1 -1
v 0.7 0 -1
v 0.7 0.1 -1
v 0.9 0 -1
v 0.9 0.1 -1
v 1.1 0 -1
v 1.1 0.1 -1
v 1.3 0 -1
v 1.3 0.1 -1
v 1.5 0 -1
v 1.5 0.1 -1
v -1.6 0 -0.9
v -1.6 0.1 -0.9
v -1.5 0 -0.9
v -1.5 0.1 -0.9
v -1.3 0 -0.9
v -1.3 0.1 -0.9
v -1.1 0 -0.9
v -1.1 0.1 -0.9
v -0.9 0 -0.9
v -0.9 0.1 -0.9
v -0.7 0 -0.9
v -0.7 0.1 -0.9
v -0.5 0 -0.9
v -0.5 0.1 -0.9
v -0.3 0 -0.9
v -0.3 0.1 -0.9
v -0.1 0 -0.9
v -0.1 0.1 -0.9
v 0.1 0 -0.9
v 0.1 0.1 -0.9
v 0.3 0 -0.9
v 0.3 0.1 -0.9
v 0.5 0 -0.9
v 0.5 0.1 -0.9
v 0.7 0 -0.9
v 0.7 0.1 -0.9
v 0.9 0 -0.9
v 0.9 0.1 -0.9
v 1.1 0 -0.9
v 1.1 0.1 -0.9
v 1.3 0 -0.9
v 1.3 0.1 -0.9
v 1.5 0 -0.9
v 1.5 0.1 -0.9
v 1.6 0 -0.9
v 1.6 0.1 -0.9
v -1.6 0 -0.4
v -1.6 0.1 -0.4
v -1.5 0 -0.4
v -1.5 0.1 -0.4
v -1.3 0 -0.4
v -1.3 0.1 -0.4
v -1.1 0 -0.4
v -1.1 0.1 -0.4
v -0.9 0 -0.4
v -0.9 0.1 -0.4
v -0.7 0 -0.4
v -0.7 0.1 -0.4
v -0.5 0 -0.4
v -0.5 0.1 -0.4
v -0.3 0 -0.4
v -0.3 0.1 -0.4
v -0.1 0 -0.4
v -0.1 0.1 -0.4
v 0.1 0 -0.4
v 0.1 0.1 -0.4
v 0.3 0 -0.4
v 0.3 0.1 -0.4
v 0.5 0 -0.4
v 0.5 0.1 -0.4
v 0.7 0 -0.4
v 0.7 0.1 -0.4
v 0.9 0 -0.4
v 0.9 0.1 -0.4
v 1.1 0 -0.4
v 1.1 0.1 -0.4
v 1.3 0 -0.4
v 1.3 0.1 -0.4
v 1.5 0 -0.4
v 1.5 0.1 -0.4
v 1.6 0 -0.4
v 1.6 0.1 -0.4
v -1.6 0 -0.8
v -1.6 0.1 -0.8
v -1.5 0 -0.8
v -1.5 0.1 -0.8
v -1.3 0 -0.8
v -1.3 0.1 -0.8
v -1.1 0 -0.8
v -1.1 0.1 -0.8
v -0.9 0 -0.8
v -0.9 0.1 -0.8
v -0.7 0 -0.8
v -0.7 0.1 -0.8
v -0.5 0 -0.8
v -0.5 0.1 -0.8
v -0.3 0 -0.8
v -0.3 0.1 -0.8
v -0.1 0 -0.8
v -0.1 0.1 -0.8
v 0.1 0 -0.8
v 0.1 0.1 -0.8
v 0.3 0 -0.8
v 0.3 0.1 -0.8
v 0.5 0 -0.8
v 0.5 0.1 -0.8
v 0.7 0 -0.8
v 0.7 0.1 -0.8
v 0.9 0 -0.8
v 0.9 0.1 -0.8
v 1.1 0 -0.8
v 1.1 0.1 -0.8
v 1.3 0 -0.8
v 1.3 0.1 -0.8
v 1.5 0 -0.8
v 1.5 0.1 -0.8
v 1.6 0 -0.8
v 1.6 0.1 -0.8
v -1.6 0 -0.3
v -1.6 0.1 -0.3
v -1.5 0 -0.3
v -1.5 0.1 -0.3
v -1.3 0 -0.3
v -1.3 0.1 -0.3
v -1.1 0 -0.3
v -1.1 0.1 -0.3
v -0.9 0 -0.3
v -0.9 0.1 -0.3
v -0.7 0 -0.3
v -0.7 0.1 -0.3
v -0.5 0 -0.3
v -0.5 0.1 -0.3
v -0.3 0 -0.3
v -0.3 0.1 -0.3
v -0.1 0 -0.3
v -0.1 0.1 -0.3
v 0.1 0 -0.3
v 0.1 0.1 -0.3
v 0.3 0 -0.3
v 0.3 0.1 -0.3
v 0.5 0 -0.3
v 0.5 0.1 -0.3
v 0.7 0 -0.3
v 0.7 0.1 -0.3
v 0.9 0 -0.3
v 0.9 0.1 -0.3
v 1.1 0 -0.3
v 1.1 0.1 -0.3
v 1.3 0 -0.3
v 1.3 0.1 -0.3
v 1.5 0 -0.3
v 1.5 0.1 -0.3
v 1.6 0 -0.3
v 1.6 0.1 -0.3
v -1.5 0 -0.2
v -1.5 0.1 -0.2
v -1.3 0 -0.2
v -1.3 0.1 -0.2
v -1.1 0 -0.2
v -1.1 0.1 -0.2
v -0.9 0 -0.2
v -0.9 0.1 -0.2
v -0.7 0 -0.2
v -0.7 0.1 -0.2
v -0.5 0 -0.2
v -0.5 0.1 -0.2
v -0.3 0 -0.2
v -0.3 0.1 -0.2
v -0.1 0 -0.2
v -0.1 0.1 -0.2
v 0.1 0 -0.2
v 0.1 0.1 -0.2
v 0.3 0 -0.2
v 0.3 0.1 -0.2
v 0.5 0 -0.2
v 0.5 0.1 -0.2
v 0.7 0 -0.2
v 0.7 0.1 -0.2
v 0.9 0 -0.2
v 0.9 0.1 -0.2
v 1.1 0 -0.2
v 1.1 0.1 -0.2
v 1.3 0 -0.2
v 1.3 0.1 -0.2
v 1.5 0 -0.2
v 1.5 0.1 -0.2
v -1.5 0 -1
v -1.3 0 -1
v -1.1 0 -1
v -0.9 0 -1
v -0.7 0 -1
v -0.5 0 -1
v -0.3 0 -1
v -0.1 0 -1
v 0.1 0 -1
v 0.3 0 -1
v 0.5 0 -1
v 0.7 0 -1
v 0.9 0 -1
v 1.1 0 -1
v 1.3 0 -1
v 1.5 0 -1
v -1.6 0 -0.9
v -1.5 0 -0.9
v -1.3 0 -0.9
v -1.1 0 -0.9
v -0.9 0 -0.9
v -0.7 0 -0.9
v -0.5 0 -0.9
v -0.3 0 -0.9
v -0.1 0 -0.9
v 0.1 0 -0.9
v 0.3 0 -0.9
v 0.5 0 -0.9
v 0.7 0 -0.9
v 0.9 0 -0.9
v 1.1 0 -0.9
v 1.3 0 -0.9
v 1.5 0 -0.9
v 1.6 0 -0.9
v -1.6 0 -0.8
v -1.5 0 -0.8
v -1.3 0 -0.8
v -1.1 0 -0.8
v -0.9 0 -0.8
v -0.7 0 -0.8
v -0.5 0 -0.8
v -0.3 0 -0.8
v -0.1 0 -0.8
v 0.1 0 -0.8
v 0.3 0 -0.8
v 0.5 0 -0.8
v 0.7 0 -0.8
v 0.9 0 -0.8
v 1.1 0 -0.8
v 1.3 0 -0.8
v 1.5 0 -0.8
v 1.6 0 -0.8
v -1.6 0 -0.4
v -1.5 0 -0.4
v -1.3 0 -0.4
v -1.1 0 -0.4
v -0.9 0 -0.4
v -0.7 0 -0.4
v -0.5 0 -0.4
v -0.3 0 -0.4
v -0.1 0 -0.4
v 0.1 0 -0.4
v 0.3 0 -0.4
v 0.5 0 -0.4
v 0.7 0 -0.4
v 0.9 0 -0.4
v 1.1 0 -0.4
v 1.3 0 -0.4
v 1.5 0 -0.4
v 1.6 0 -0.4
v -1.6 0 -0.3
v -1.5 0 -0.3
v -1.3 0 -0.3
v -1.1 0 -0.3
v -0.9 0 -0.3
v -0.7 0 -0.3
v -0.5 0 -0.3
v -0.3 0 -0.3
v -0.1 0 -0.3
v 0.1 0 -0.3
v 0.3 0 -0.3
v 0.5 0 -0.3
v 0.7 0 -0.3
v 0.9 0 -0.3
v 1.1 0 -0.3
v 1.3 0 -0.3
v 1.5 0 -0.3
v 1.6 0 -0.3
v -1.5 0 -0.2
v -1.3 0 -0.2
v -1.1 0 -0.2
v -0.9 0 -0.2
v -0.7 0 -0.2
v -0.5 0 -0.2
v -0.3 0 -0.2
v -0.1 0 -0.2
v 0.1 0 -0.2
v 0.3 0 -0.2
v 0.5 0 -0.2
v 0.7 0 -0.2
v 0.9 0 -0.2
v 1.1 0 -0.2
v 1.3 0 -0.2
v 1.5 0 -0.2
v -1.5 0.1 -1
v -1.3 0.1 -1
v -1.1 0.1 -1
v -0.9 0.1 -1
v -0.7 0.1 -1
v -0.5 0.1 -1
v -0.3 0.1 -1
v -0.1 0.1 -1
v 0.1 0.1 -1
v 0.3 0.1 -1
v 0.5 0.1 -1
v 0.7 0.1 -1
v 0.9 0.1 -1
v 1.1 0.1 -1
v 1.3 0.1 -1
v 1.5 0.1 -1
v -1.6 0.1 -0.9
v -1.5 0.1 -0.9
v -1.3 0.1 -0.9
v -1.1 0.1 -0.9
v -0.9 0.1 -0.9
v -0.7 0.1 -0.9
v -0.5 0.1 -0.9
v -0.3 0.1 -0.9
v -0.1 0.1 -0.9
v 0.1 0.1 -0.9
v 0.3 0.1 -0.9
v 0.5 0.1 -0.9
v 0.7 0.1 -0.9
v 0.9 0.1 -0.9
v 1.1 0.1 -0.9
v 1.3 0.1 -0.9
v 1.5 0.1 -0.9
v 1.6 0.1 -0.9
v -1.6 0.1 -0.8
v -1.5 0.1 -0.8
v -1.3 0.1 -0.8
v -1.1 0.1 -0.8
v -0.9 0.1 -0.8
v -0.7 0.1 -0.8
v -0.5 0.1 -0.8
v -0.3 0.1 -0.8
v -0.1 0.1 -0.8
v 0.1 0.1 -0.8
v 0.3 0.1 -0.8
v 0.5 0.1 -0.8
v 0.7 0.1 -0.8
v 0.9 0.1 -0.8
v 1.1 0.1 -0.8
v 1.3 0.1 -0.8
v 1.5 0.1 -0.8
v 1.6 0.1 -0.8
v -1.6 0.1 -0.4
v -1.5 0.1 -0.4
v -1.3 0.1 -0.4
v -1.1 0.1 -0.4
v -0.9 0.1 -0.4
v -0.7 0.1 -0.4
v -0.5 0.1 -0.4
v -0.3 0.1 -0.4
v -0.1 0.1 -0.4
v 0.1 0.1 -0.4
v 0.3 0.1 -0.4
v 0.5 0.1 -0.4
v 0.7 0.1 -0.4
v 0.9 0.1 -0.4
v 1.1 0.1 -0.4
v 1.3 0.1 -0.4
v 1.5 0.1 -0.4
v 1.6 0.1 -0.4
v -1.6 0.1 -0.3
v -1.5 0.1 -0.3
v -1.3 0.1 -0.3
v -1.1 0.1 -0.3
v -0.9 0.1 -0.3
v -0.7 0.1 -0.3
v -0.5 0.1 -0.3
v -0.3 0.1 -0.3
v -0.1 0.1 -0.3
v 0.1 0.1 -0.3
v 0.3 0.1 -0.3
v 0.5 0.1 -0.3
v 0.7 0.1 -0.3
v 0.9 0.1 -0.3
v 1.1 0.1 -0.3
v 1.3 0.1 -0.3
v 1.5 0.1 -0.3
v 1.6 0.1 -0.3
v -1.5 0.1 -0.2
v -1.3 0.1 -0.2
v -1.1 0.1 -0.2
v -0.9 0.1 -0.2
v -0.7 0.1 -0.2
v -0.5 0.1 -0.2
v -0.3 0.1 -0.2
v -0.1 0.1 -0.2
v 0.1 0.1 -0.2
v 0.3 0.1 -0.2
v 0.5 0.1 -0.2
v 0.7 0.1 -0.2
v 0.9 0.1 -0.2
v 1.1 0.1 -0.2
v 1.3 0.1 -0.2
v 1.5 0.1 -0.2

# faces
f 1/1/1 2/1/1 5/1/1
f 5/1/1 2/1/1 6/1/1
f 3/1/1 4/1/1 7/1/1
f 7/1/1 4/1/1 8/1/1
f 9/2/1 10/2/1 15/2/1
f 15/2/1 10/2/1 16/2/1
f 11/2/1 12/2/1 17/2/1
f 17/2/1 12/2/1 18/2/1
f 13/2/1 14/2/1 19/2/1
f 19/2/1 14/2/1 20/2/1
f 21/2/1 22/2/1 27/2/1
f 27/2/1 22/2/1 28/2/1
f 23/2/1 24/2/1 29/2/1
f 29/2/1 24/2/1 30/2/1
f 25/2/1 26/2/1 31/2/1
f 31/2/1 26/2/1 32/2/1
f 33/2/1 34/2/1 39/2/1
f 39/2/1 34/2/1 40/2/1
f 35/2/1 36/2/1 41/2/1
f 41/2/1 36/2/1 42/2/1
f 37/2/1 38/2/1 43/2/1
f 43/2/1 38/2/1 44/2/1
f 45/2/1 46/2/1 51/2/1
f 51/2/1 46/2/1 52/2/1
f 47/2/1 48/2/1 53/2/1
f 53/2/1 48/2/1 54/2/1
f 49/2/1 50/2/1 55/2/1
f 55/2/1 50/2/1 56/2/1
f 57/2/1 58/2/1 63/2/1
f 63/2/1 58/2/1 64/2/1
f 59/2/1 60/2/1 65/2/1
f 65/2/1 60/2/1 66/2/1
f 61/2/1 62/2/1 67/2/1
f 67/2/1 62/2/1 68/2/1
f 69/2/1 70/2/1 75/2/1
f 75/2/1 70/2/1 76/2/1
f 71/2/1 72/2/1 77/2/1
f 77/2/1 72/2/1 78/2/1
f 73/2/1 74/2/1 79/2/1
f 79/2/1 74/2/1 80/2/1
f 81/2/1 82/2/1 87/2/1
f 87/2/1 82/2/1 88/2/1
f 83/2/1 84/2/1 89/2/1
f 89/2/1 84/2/1 90/2/1
f 85/2/1 86/2/1 91/2/1
f 91/2/1 86/2/1 92/2/1
f 93/2/1 94/2/1 99/2/1
f 99/2/1 94/2/1 100/2/1
f 95/2/1 96/2/1 101/2/1
f 101/2/1 96/2/1 102/2/1
f 97/2/1 98/2/1 103/2/1
f 103/2/1 98/2/1 104/2/1
f 111/2/2 106/2/2 105/2/2
f 112/2/2 106/2/2 111/2/2
f 113/2/2 108/2/2 107/2/2
f 114/2/2 108/2/2 113/2/2
f 115/2/2 110/2/2 109/2/2
f 116/2/2 110/2/2 115/2/2
f 123/2/2 118/2/2 117/2/2
f 124/2/2 118/2/2 123/2/2
f 125/2/2 120/2/2 119/2/2
f 126/2/2 120/2/2 125/2/2
f 127/2/2 122/2/2 121/2/2
f 128/2/2 122/2/2 127/2/2
f 135/2/2 130/2/2 129/2/2
f 136/2/2 130/2/2 135/2/2
f 137/2/2 132/2/2 131/2/2
f 138/2/2 132/2/2 137/2/2
f 139/2/2 134/2/2 133/2/2
f 140/2/2 134/2/2 139/2/2
f 147/2/2 142/2/2 141/2/2
f 148/2/2 142/2/2 147/2/2
f 149/2/2 144/2/2 143/2/2
f 150/2/2 144/2/2 149/2/2
f 151/2/2 146/2/2 145/2/2
f 152/2/2 146/2/2 151/2/2
f 159/2/2 154/2/2 153/2/2
f 160/2/2 154/2/2 159/2/2
f 161/2/2 156/2/2 155/2/2
f 162/2/2 156/2/2 161/2/2
f 163/2/2 158/2/2 157/2/2
f 164/2/2 158/2/2 163/2/2
f 171/2/2 166/2/2 165/2/2
f 172/2/2 166/2/2 171/2/2
f 173/2/2 168/2/2 167/2/2
f 174/2/2 168/2/2 173/2/2
f 175/2/2 170/2/2 169/2/2
f 176/2/2 170/2/2 175/2/2
f 183/2/2 178/2/2 177/2/2
f 184/2/2 178/2/2 183/2/2
f 185/2/2 180/2/2 179/2/2
f 186/2/2 180/2/2 185/2/2
f 187/2/2 182/2/2 181/2/2
f 188/2/2 182/2/2 187/2/2
f 195/2/2 190/2/2 189/2/2
f 196/2/2 190/2/2 195/2/2
f 197/2/2 192/2/2 191/2/2
f 198/2/2 192/2/2 197/2/2
f 199/2/2 194/2/2 193/2/2
f 200/2/2 194/2/2 199/2/2
f 205/1/2 202/1/2 201/1/2
f 206/1/2 202/1/2 205/1/2
f 207/1/2 204/1/2 203/1/2
f 208/1/2 204/1/2 207/1/2
f 209/2/3 210/2/3 211/2/3
f 211/2/3 210/2/3 212/2/3
f 213/2/3 214/2/3 215/2/3
f 215/2/3 214/2/3 216/2/3
f 217/2/3 218/2/3 219/2/3
f 219/2/3 218/2/3 220/2/3
f 221/2/3 222/2/3 223/2/3
f 223/2/3 222/2/3 224/2/3
f 225/2/3 226/2/3 227/2/3
f 227/2/3 226/2/3 228/2/3
f 229/2/3 230/2/3 231/2/3
f 231/2/3 230/2/3 232/2/3
f 233/2/3 234/2/3 235/2/3
f 235/2/3 234/2/3 236/2/3
f 237/2/3 238/2/3 239/2/3
f 239/2/3 238/2/3 240/2/3
f 241/1/3 242/1/3 243/1/3
f 243/1/3 242/1/3 244/1/3
f 245/1/3 246/1/3 247/1/3
f 247/1/3 246/1/3 248/1/3
f 249/1/3 250/1/3 251/1/3
f 251/1/3 250/1/3 252/1/3
f 253/1/3 254/1/3 255/1/3
f 255/1/3 254/1/3 256/1/3
f 257/1/3 258/1/3 259/1/3
f 259/1/3 258/1/3 260/1/3
f 261/1/3 262/1/3 263/1/3
f 263/1/3 262/1/3 264/1/3
f 265/1/3 266/1/3 267/1/3
f 267/1/3 266/1/3 268/1/3
f 269/1/3 270/1/3 271/1/3
f 271/1/3 270/1/3 272/1/3
f 273/1/3 274/1/3 275/1/3
f 275/1/3 274/1/3 276/1/3
f 277/1/3 278/1/3 279/1/3
f 279/1/3 278/1/3 280/1/3
f 281/1/3 282/1/3 283/1/3
f 283/1/3 282/1/3 284/1/3
f 285/1/3 286/1/3 287/1/3
f 287/1/3 286/1/3 288/1/3
f 289/1/3 290/1/3 291/1/3
f 291/1/3 290/1/3 292/1/3
f 293/1/3 294/1/3 295/1/3
f 295/1/3 294/1/3 296/1/3
f 297/1/3 298/1/3 299/1/3
f 299/1/3 298/1/3 300/1/3
f 301/1/3 302/1/3 303/1/3
f 303/1/3 302/1/3 304/1/3
f 305/1/3 306/1/3 307/1/3
f 307/1/3 306/1/3 308/1/3
f 309/1/3 310/1/3 311/1/3
f 311/1/3 310/1/3 312/1/3
f 315/1/4 314/1/4 313/1/4
f 316/1/4 314/1/4 315/1/4
f 319/1/4 318/1/4 317/1/4
f 320/1/4 318/1/4 319/1/4
f 323/1/4 322/1/4 321/1/4
f 324/1/4 322/1/4 323/1/4
f 327/1/4 326/1/4 325/1/4
f 328/1/4 326/1/4 327/1/4
f 331/1/4 330/1/4 329/1/4
f 332/1/4 330/1/4 331/1/4
f 335/1/4 334/1/4 333/1/4
f 336/1/4 334/1/4 335/1/4
f 339/1/4 338/1/4 337/1/4
f 340/1/4 338/1/4 339/1/4
f 343/1/4 342/1/4 341/1/4
f 344/1/4 342/1/4 343/1/4
f 347/1/4 346/1/4 345/1/4
f 348/1/4 346/1/4 347/1/4
f 351/1/4 350/1/4 349/1/4
f 352/1/4 350/1/4 351/1/4
f 355/1/4 354/1/4 353/1/4
f 356/1/4 354/1/4 355/1/4
f 359/1/4 358/1/4 357/1/4
f 360/1/4 358/1/4 359/1/4
f 363/1/4 362/1/4 361/1/4
f 364/1/4 362/1/4 363/1/4
f 367/1/4 366/1/4 365/1/4
f 368/1/4 366/1/4 367/1/4
f 371/1/4 370/1/4 369/1/4
f 372/1/4 370/1/4 371/1/4
f 375/1/4 374/1/4 373/1/4
f 376/1/4 374/1/4 375/1/4
f 379/1/4 378/1/4 377/1/4
f 380/1/4 378/1/4 379/1/4
f 383/1/4 382/1/4 381/1/4
f 384/1/4 382/1/4 383/1/4
f 387/2/4 386/2/4 385/2/4
f 388/2/4 386/2/4 387/2/4
f 391/2/4 390/2/4 389/2/4
f 392/2/4 390/2/4 391/2/4
f 395/2/4 394/2/4 393/2/4
f 396/2/4 394/2/4 395/2/4
f 399/2/4 398/2/4 397/2/4
f 400/2/4 398/2/4 399/2/4
f 403/2/4 402/2/4 401/2/4
f 404/2/4 402/2/4 403/2/4
f 407/2/4 406/2/4 405/2/4
f 408/2/4 406/2/4 407/2/4
f 411/2/4 410/2/4 409/2/4
f 412/2/4 410/2/4 411/2/4
f 415/2/4 414/2/4 413/2/4
f 416/2/4 414/2/4 415/2/4
f 417/2/5 418/2/5 434/2/5
f 434/2/5 418/2/5 435/2/5
f 419/2/5 420/2/5 436/2/5
f 436/2/5 420/2/5 437/2/5
f 421/2/5 422/2/5 438/2/5
f 438/2/5 422/2/5 439/2/5
f 423/2/5 424/2/5 440/2/5
f 440/2/5 424/2/5 441/2/5
f 425/2/5 426/2/5 442/2/5
f 442/2/5 426/2/5 443/2/5
f 427/2/5 428/2/5 444/2/5
f 444/2/5 428/2/5 445/2/5
f 429/2/5 430/2/5 446/2/5
f 446/2/5 430/2/5 447/2/5
f 431/2/5 432/2/5 448/2/5
f 448/2/5 432/2/5 449/2/5
f 446/1/5 447/1/5 451/1/5
f 449/1/5 450/1/5 451/1/5
f 448/1/5 449/1/5 451/1/5
f 447/1/5 448/1/5 451/1/5
f 434/1/5 435/1/5 451/1/5
f 445/1/5 446/1/5 451/1/5
f 436/1/5 437/1/5 451/1/5
f 443/1/5 444/1/5 451/1/5
f 438/1/5 439/1/5 451/1/5
f 441/1/5 442/1/5 451/1/5
f 440/1/5 441/1/5 451/1/5
f 439/1/5 440/1/5 451/1/5
f 442/1/5 443/1/5 451/1/5
f 437/1/5 438/1/5 451/1/5
f 444/1/5 445/1/5 451/1/5
f 435/1/5 436/1/5 451/1/5
f 433/1/5 434/1/5 451/1/5
f 451/1/5 450/1/5 452/1/5
f 452/1/5 450/1/5 453/1/5
f 453/1/5 450/1/5 454/1/5
f 454/1/5 450/1/5 455/1/5
f 455/1/5 450/1/5 456/1/5
f 456/1/5 450/1/5 457/1/5
f 457/1/5 450/1/5 458/1/5
f 458/1/5 450/1/5 459/1/5
f 459/1/5 450/1/5 460/1/5
f 460/1/5 450/1/5 461/1/5
f 461/1/5 450/1/5 462/1/5
f 462/1/5 450/1/5 463/1/5
f 463/1/5 450/1/5 464/1/5
f 464/1/5 450/1/5 465/1/5
f 465/1/5 450/1/5 466/1/5
f 466/1/5 450/1/5 467/1/5
f 467/1/5 450/1/5 468/1/5
f 452/2/5 453/2/5 470/2/5
f 470/2/5 453/2/5 471/2/5
f 454/2/5 455/2/5 472/2/5
f 472/2/5 455/2/5 473/2/5
f 456/2/5 457/2/5 474/2/5
f 474/2/5 457/2/5 475/2/5
f 458/2/5 459/2/5 476/2/5
f 476/2/5 459/2/5 477/2/5
f 460/2/5 461/2/5 478/2/5
f 478/2/5 461/2/5 479/2/5
f 462/2/5 463/2/5 480/2/5
f 480/2/5 463/2/5 481/2/5
f 464/2/5 465/2/5 482/2/5
f 482/2/5 465/2/5 483/2/5
f 466/2/5 467/2/5 484/2/5
f 484/2/5 467/2/5 485/2/5
f 476/1/5 477/1/5 487/1/5
f 485/1/5 486/1/5 487/1/5
f 484/1/5 485/1/5 487/1/5
f 483/1/5 484/1/5 487/1/5
f 482/1/5 483/1/5 487/1/5
f 481/1/5 482/1/5 487/1/5
f 470/1/5 471/1/5 487/1/5
f 479/1/5 480/1/5 487/1/5
f 480/1/5 481/1/5 487/1/5
f 477/1/5 478/1/5 487/1/5
f 472/1/5 473/1/5 487/1/5
f 475/1/5 476/1/5 487/1/5
f 478/1/5 479/1/5 487/1/5
f 473/1/5 474/1/5 487/1/5
f 474/1/5 475/1/5 487/1/5
f 471/1/5 472/1/5 487/1/5
f 469/1/5 470/1/5 487/1/5
f 487/1/5 486/1/5 488/1/5
f 488/1/5 486/1/5 489/1/5
f 489/1/5 486/1/5 490/1/5
f 490/1/5 486/1/5 491/1/5
f 491/1/5 486/1/5 492/1/5
f 492/1/5 486/1/5 493/1/5
f 493/1/5 486/1/5 494/1/5
f 494/1/5 486/1/5 495/1/5
f 495/1/5 486/1/5 496/1/5
f 496/1/5 486/1/5 497/1/5
f 497/1/5 486/1/5 498/1/5
f 498/1/5 486/1/5 499/1/5
f 499/1/5 486/1/5 500/1/5
f 500/1/5 486/1/5 501/1/5
f 501/1/5 486/1/5 502/1/5
f 502/1/5 486/1/5 503/1/5
f 503/1/5 486/1/5 504/1/5
f 488/2/5 489/2/5 505/2/5
f 505/2/5 489/2/5 506/2/5
f 490/2/5 491/2/5 507/2/5
f 507/2/5 491/2/5 508/2/5
f 492/2/5 493/2/5 509/2/5
f 509/2/5 493/2/5 510/2/5
f 494/2/5 495/2/5 511/2/5
f 511/2/5 495/2/5 512/2/5
f 496/2/5 497/2/5 513/2/5
f 513/2/5 497/2/5 514/2/5
f 498/2/5 499/2/5 515/2/5
f 515/2/5 499/2/5 516/2/5
f 500/2/5 501/2/5 517/2/5
f 517/2/5 501/2/5 518/2/5
f 502/2/5 503/2/5 519/2/5
f 519/2/5 503/2/5 520/2/5
f 538/2/6 522/2/6 521/2/6
f 539/2/6 522/2/6 538/2/6
f 540/2/6 524/2/6 523/2/6
f 541/2/6 524/2/6 540/2/6
f 542/2/6 526/2/6 525/2/6
f 543/2/6 526/2/6 542/2/6
f 544/2/6 528/2/6 527/2/6
f 545/2/6 528/2/6 544/2/6
f 546/2/6 530/2/6 529/2/6
f 547/2/6 530/2/6 546/2/6
f 548/2/6 532/2/6 531/2/6
f 549/2/6 532/2/6 548/2/6
f 550/2/6 534/2/6 533/2/6
f 551/2/6 534/2/6 550/2/6
f 552/2/6 536/2/6 535/2/6
f 553/2/6 536/2/6 552/2/6
f 555/1/6 551/1/6 550/1/6
f 555/1/6 554/1/6 553/1/6
f 555/1/6 553/1/6 552/1/6
f 555/1/6 552/1/6 551/1/6
f 555/1/6 539/1/6 538/1/6
f 555/1/6 550/1/6 549/1/6
f 555/1/6 541/1/6 540/1/6
f 555/1/6 548/1/6 547/1/6
f 555/1/6 543/1/6 542/1/6
f 555/1/6 546/1/6 545/1/6
f 555/1/6 545/1/6 544/1/6
f 555/1/6 544/1/6 543/1/6
f 555/1/6 547/1/6 546/1/6
f 555/1/6 542/1/6 541/1/6
f 555/1/6 549/1/6 548/1/6
f 555/1/6 540/1/6 539/1/6
f 555/1/6 538/1/6 537/1/6
f 556/1/6 554/1/6 555/1/6
f 557/1/6 554/1/6 556/1/6
f 558/1/6 554/1/6 557/1/6
f 559/1/6 554/1/6 558/1/6
f 560/1/6 554/1/6 559/1/6
f 561/1/6 554/1/6 560/1/6
f 562/1/6 554/1/6 561/1/6
f 563/1/6 554/1/6 562/1/6
f 564/1/6 554/1/6 563/1/6
f 565/1/6 554/1/6 564/1/6
f 566/1/6 554/1/6 565/1/6
f 567/1/6 554/1/6 566/1/6
f 568/1/6 554/1/6 567/1/6
f 569/1/6 554/1/6 568/1/6
f 570/1/6 554/1/6 569/1/6
f 571/1/6 554/1/6 570/1/6
f 572/1/6 554/1/6 571/1/6
f 574/2/6 557/2/6 556/2/6
f 575/2/6 557/2/6 574/2/6
f 576/2/6 559/2/6 558/2/6
f 577/2/6 559/2/6 576/2/6
f 578/2/6 561/2/6 560/2/6
f 579/2/6 561/2/6 578/2/6
f 580/2/6 563/2/6 562/2/6
f 581/2/6 563/2/6 580/2/6
f 582/2/6 565/2/6 564/2/6
f 583/2/6 565/2/6 582/2/6
f 584/2/6 567/2/6 566/2/6
f 585/2/6 567/2/6 584/2/6
f 586/2/6 569/2/6 568/2/6
f 587/2/6 569/2/6 586/2/6
f 588/2/6 571/2/6 570/2/6
f 589/2/6 571/2/6 588/2/6
f 591/1/6 581/1/6 580/1/6
f 591/1/6 590/1/6 589/1/6
f 591/1/6 589/1/6 588/1/6
f 591/1/6 588/1/6 587/1/6
f 591/1/6 587/1/6 586/1/6
f 591/1/6 586/1/6 585/1/6
f 591/1/6 575/1/6 574/1/6
f 591/1/6 584/1/6 583/1/6
f 591/1/6 585/1/6 584/1/6
f 591/1/6 582/1/6 581/1/6
f 591/1/6 577/1/6 576/1/6
f 591/1/6 580/1/6 579/1/6
f 591/1/6 583/1/6 582/1/6
f 591/1/6 578/1/6 577/1/6
f 591/1/6 579/1/6 578/1/6
f 591/1/6 576/1/6 575/1/6
f 591/1/6 574/1/6 573/1/6
f 592/1/6 590/1/6 591/1/6
f 593/1/6 590/1/6 592/1/6
f 594/1/6 590/1/6 593/1/6
f 595/1/6 590/1/6 594/1/6
f 596/1/6 590/1/6 595/1/6
f 597/1/6 590/1/6 596/1/6
f 598/1/6 590/1/6 597/1/6
f 599/1/6 590/1/6 598/1/6
f 600/1/6 590/1/6 599/1/6
f 601/1/6 590/1/6 600/1/6
f 602/1/6 590/1/6 601/1/6
f 603/1/6 590/1/6 602/1/6
f 604/1/6 590/1/6 603/1/6
f 605/1/6 590/1/6 604/1/6
f 606/1/6 590/1/6 605/1/6
f 607/1/6 590/1/6 606/1/6
f 608/1/6 590/1/6 607/1/6
f 609/2/6 593/2/6 592/2/6
f 610/2/6 593/2/6 609/2/6
f 611/2/6 595/2/6 594/2/6
f 612/2/6 595/2/6 611/2/6
f 613/2/6 597/2/6 596/2/6
f 614/2/6 597/2/6 613/2/6
f 615/2/6 599/2/6 598/2/6
f 616/2/6 599/2/6 615/2/6
f 617/2/6 601/2/6 600/2/6
f 618/2/6 601/2/6 617/2/6
f 619/2/6 603/2/6 602/2/6
f 620/2/6 603/2/6 619/2/6
f 621/2/6 605/2/6 604/2/6
f 622/2/6 605/2/6 621/2/6
f 623/2/6 607/2/6 606/2/6
f 624/2/6 607/2/6 623/2/6
