# MagicaVoxel @ Ephtracy

# group
o 

# material
mtllib track-road-intersection-double-1.mtl
usemtl palette

# normals
vn -1 0 0
vn 1 0 0
vn 0 0 1
vn 0 0 -1
vn 0 -1 0
vn 0 1 0

# texcoords
vt 0.970703 0.5
vt 0.974609 0.5
vt 0.986328 0.5
vt 0.994141 0.5

# verts
v -1.6 0 1
v -1.6 0 0.9
v -1.6 0 0.8
v -1.6 0 0.4
v -1.6 0 0.3
v -1.6 0 0.2
v -1.6 0 -0.2
v -1.6 0 -0.3
v -1.6 0 -0.4
v -1.6 0 -0.8
v -1.6 0 -0.9
v -1.6 0 -1
v -1.6 0.1 1
v -1.6 0.1 0.9
v -1.6 0.1 0.8
v -1.6 0.1 0.4
v -1.6 0.1 0.3
v -1.6 0.1 0.2
v -1.6 0.1 -0.2
v -1.6 0.1 -0.3
v -1.6 0.1 -0.4
v -1.6 0.1 -0.8
v -1.6 0.1 -0.9
v -1.6 0.1 -1
v -1.3 0 1.6
v -1.3 0 0.9
v -1.3 0 0.8
v -1.3 0 0.4
v -1.3 0 0.3
v -1.3 0 -0.3
v -1.3 0 -0.4
v -1.3 0 -0.8
v -1.3 0 -0.9
v -1.3 0 -1.6
v -1.3 0.1 1.6
v -1.3 0.1 0.9
v -1.3 0.1 0.8
v -1.3 0.1 0.4
v -1.3 0.1 0.3
v -1.3 0.1 -0.3
v -1.3 0.1 -0.4
v -1.3 0.1 -0.8
v -1.3 0.1 -0.9
v -1.3 0.1 -1.6
v 1.4 0 1
v 1.4 0 0.9
v 1.4 0 0.8
v 1.4 0 0.4
v 1.4 0 0.3
v 1.4 0 0.2
v 1.4 0 -0.2
v 1.4 0 -0.3
v 1.4 0 -0.4
v 1.4 0 -0.8
v 1.4 0 -0.9
v 1.4 0 -1
v 1.4 0.1 1
v 1.4 0.1 0.9
v 1.4 0.1 0.8
v 1.4 0.1 0.4
v 1.4 0.1 0.3
v 1.4 0.1 0.2
v 1.4 0.1 -0.2
v 1.4 0.1 -0.3
v 1.4 0.1 -0.4
v 1.4 0.1 -0.8
v 1.4 0.1 -0.9
v 1.4 0.1 -1
v -1.4 0 1
v -1.4 0 0.9
v -1.4 0 0.8
v -1.4 0 0.4
v -1.4 0 0.3
v -1.4 0 0.2
v -1.4 0 -0.2
v -1.4 0 -0.3
v -1.4 0 -0.4
v -1.4 0 -0.8
v -1.4 0 -0.9
v -1.4 0 -1
v -1.4 0.1 1
v -1.4 0.1 0.9
v -1.4 0.1 0.8
v -1.4 0.1 0.4
v -1.4 0.1 0.3
v -1.4 0.1 0.2
v -1.4 0.1 -0.2
v -1.4 0.1 -0.3
v -1.4 0.1 -0.4
v -1.4 0.1 -0.8
v -1.4 0.1 -0.9
v -1.4 0.1 -1
v 1.3 0 1.6
v 1.3 0 0.9
v 1.3 0 0.8
v 1.3 0 0.4
v 1.3 0 0.3
v 1.3 0 -0.3
v 1.3 0 -0.4
v 1.3 0 -0.8
v 1.3 0 -0.9
v 1.3 0 -1.6
v 1.3 0.1 1.6
v 1.3 0.1 0.9
v 1.3 0.1 0.8
v 1.3 0.1 0.4
v 1.3 0.1 0.3
v 1.3 0.1 -0.3
v 1.3 0.1 -0.4
v 1.3 0.1 -0.8
v 1.3 0.1 -0.9
v 1.3 0.1 -1.6
v 1.6 0 1
v 1.6 0 0.9
v 1.6 0 0.8
v 1.6 0 0.4
v 1.6 0 0.3
v 1.6 0 0.2
v 1.6 0 -0.2
v 1.6 0 -0.3
v 1.6 0 -0.4
v 1.6 0 -0.8
v 1.6 0 -0.9
v 1.6 0 -1
v 1.6 0.1 1
v 1.6 0.1 0.9
v 1.6 0.1 0.8
v 1.6 0.1 0.4
v 1.6 0.1 0.3
v 1.6 0.1 0.2
v 1.6 0.1 -0.2
v 1.6 0.1 -0.3
v 1.6 0.1 -0.4
v 1.6 0.1 -0.8
v 1.6 0.1 -0.9
v 1.6 0.1 -1
v -1.3 0 1.6
v -1.3 0.1 1.6
v -1.2 0 1.6
v -1.2 0.1 1.6
v -1.1 0 1.6
v -1.1 0.1 1.6
v -0.1 0 1.6
v -0.1 0.1 1.6
v 0.1 0 1.6
v 0.1 0.1 1.6
v 1.1 0 1.6
v 1.1 0.1 1.6
v 1.2 0 1.6
v 1.2 0.1 1.6
v 1.3 0 1.6
v 1.3 0.1 1.6
v -1.6 0 1
v -1.6 0.1 1
v -1.4 0 1
v -1.4 0.1 1
v 1.4 0 1
v 1.4 0.1 1
v 1.6 0 1
v 1.6 0.1 1
v -1.4 0 0.9
v -1.4 0.1 0.9
v -1.3 0 0.9
v -1.3 0.1 0.9
v 1.3 0 0.9
v 1.3 0.1 0.9
v 1.4 0 0.9
v 1.4 0.1 0.9
v -1.4 0 0.4
v -1.4 0.1 0.4
v -1.3 0 0.4
v -1.3 0.1 0.4
v 1.3 0 0.4
v 1.3 0.1 0.4
v 1.4 0 0.4
v 1.4 0.1 0.4
v -1.6 0 -0.2
v -1.6 0.1 -0.2
v -1.4 0 -0.2
v -1.4 0.1 -0.2
v 1.4 0 -0.2
v 1.4 0.1 -0.2
v 1.6 0 -0.2
v 1.6 0.1 -0.2
v -1.4 0 -0.3
v -1.4 0.1 -0.3
v -1.3 0 -0.3
v -1.3 0.1 -0.3
v 1.3 0 -0.3
v 1.3 0.1 -0.3
v 1.4 0 -0.3
v 1.4 0.1 -0.3
v -1.4 0 -0.8
v -1.4 0.1 -0.8
v -1.3 0 -0.8
v -1.3 0.1 -0.8
v 1.3 0 -0.8
v 1.3 0.1 -0.8
v 1.4 0 -0.8
v 1.4 0.1 -0.8
v -1.4 0 0.8
v -1.4 0.1 0.8
v -1.3 0 0.8
v -1.3 0.1 0.8
v 1.3 0 0.8
v 1.3 0.1 0.8
v 1.4 0 0.8
v 1.4 0.1 0.8
v -1.4 0 0.3
v -1.4 0.1 0.3
v -1.3 0 0.3
v -1.3 0.1 0.3
v 1.3 0 0.3
v 1.3 0.1 0.3
v 1.4 0 0.3
v 1.4 0.1 0.3
v -1.6 0 0.2
v -1.6 0.1 0.2
v -1.4 0 0.2
v -1.4 0.1 0.2
v 1.4 0 0.2
v 1.4 0.1 0.2
v 1.6 0 0.2
v 1.6 0.1 0.2
v -1.4 0 -0.4
v -1.4 0.1 -0.4
v -1.3 0 -0.4
v -1.3 0.1 -0.4
v 1.3 0 -0.4
v 1.3 0.1 -0.4
v 1.4 0 -0.4
v 1.4 0.1 -0.4
v -1.4 0 -0.9
v -1.4 0.1 -0.9
v -1.3 0 -0.9
v -1.3 0.1 -0.9
v 1.3 0 -0.9
v 1.3 0.1 -0.9
v 1.4 0 -0.9
v 1.4 0.1 -0.9
v -1.6 0 -1
v -1.6 0.1 -1
v -1.4 0 -1
v -1.4 0.1 -1
v 1.4 0 -1
v 1.4 0.1 -1
v 1.6 0 -1
v 1.6 0.1 -1
v -1.3 0 -1.6
v -1.3 0.1 -1.6
v -1.2 0 -1.6
v -1.2 0.1 -1.6
v -1.1 0 -1.6
v -1.1 0.1 -1.6
v -0.1 0 -1.6
v -0.1 0.1 -1.6
v 0.1 0 -1.6
v 0.1 0.1 -1.6
v 1.1 0 -1.6
v 1.1 0.1 -1.6
v 1.2 0 -1.6
v 1.2 0.1 -1.6
v 1.3 0 -1.6
v 1.3 0.1 -1.6
v -1.3 0 1.6
v -1.2 0 1.6
v -1.1 0 1.6
v -0.1 0 1.6
v 0.1 0 1.6
v 1.1 0 1.6
v 1.2 0 1.6
v 1.3 0 1.6
v -0.1 0 1.2
v 0.1 0 1.2
v -1.6 0 1
v -1.4 0 1
v -1.2 0 1
v -1.1 0 1
v 1.1 0 1
v 1.2 0 1
v 1.4 0 1
v 1.6 0 1
v -1.6 0 0.9
v -1.4 0 0.9
v -1.3 0 0.9
v 1.3 0 0.9
v 1.4 0 0.9
v 1.6 0 0.9
v -1.6 0 0.8
v -1.4 0 0.8
v -1.3 0 0.8
v 1.3 0 0.8
v 1.4 0 0.8
v 1.6 0 0.8
v -1.2 0 0.7
v -1.1 0 0.7
v 1.1 0 0.7
v 1.2 0 0.7
v -1.2 0 0.5
v -1.1 0 0.5
v 1.1 0 0.5
v 1.2 0 0.5
v -1.6 0 0.4
v -1.4 0 0.4
v -1.3 0 0.4
v 1.3 0 0.4
v 1.4 0 0.4
v 1.6 0 0.4
v -1.6 0 0.3
v -1.4 0 0.3
v -1.3 0 0.3
v 1.3 0 0.3
v 1.4 0 0.3
v 1.6 0 0.3
v -1.6 0 0.2
v -1.4 0 0.2
v -1.2 0 0.2
v -1.1 0 0.2
v 1.1 0 0.2
v 1.2 0 0.2
v 1.4 0 0.2
v 1.6 0 0.2
v -1.6 0 -0.2
v -1.4 0 -0.2
v -1.2 0 -0.2
v -1.1 0 -0.2
v 1.1 0 -0.2
v 1.2 0 -0.2
v 1.4 0 -0.2
v 1.6 0 -0.2
v -1.6 0 -0.3
v -1.4 0 -0.3
v -1.3 0 -0.3
v 1.3 0 -0.3
v 1.4 0 -0.3
v 1.6 0 -0.3
v -1.6 0 -0.4
v -1.4 0 -0.4
v -1.3 0 -0.4
v 1.3 0 -0.4
v 1.4 0 -0.4
v 1.6 0 -0.4
v -1.2 0 -0.5
v -1.1 0 -0.5
v 1.1 0 -0.5
v 1.2 0 -0.5
v -1.2 0 -0.7
v -1.1 0 -0.7
v 1.1 0 -0.7
v 1.2 0 -0.7
v -1.6 0 -0.8
v -1.4 0 -0.8
v -1.3 0 -0.8
v 1.3 0 -0.8
v 1.4 0 -0.8
v 1.6 0 -0.8
v -1.6 0 -0.9
v -1.4 0 -0.9
v -1.3 0 -0.9
v 1.3 0 -0.9
v 1.4 0 -0.9
v 1.6 0 -0.9
v -1.6 0 -1
v -1.4 0 -1
v -1.2 0 -1
v -1.1 0 -1
v 1.1 0 -1
v 1.2 0 -1
v 1.4 0 -1
v 1.6 0 -1
v -0.1 0 -1.2
v 0.1 0 -1.2
v -1.3 0 -1.6
v -1.2 0 -1.6
v -1.1 0 -1.6
v -0.1 0 -1.6
v 0.1 0 -1.6
v 1.1 0 -1.6
v 1.2 0 -1.6
v 1.3 0 -1.6
v -1.3 0.1 1.6
v -1.2 0.1 1.6
v -1.1 0.1 1.6
v -0.1 0.1 1.6
v 0.1 0.1 1.6
v 1.1 0.1 1.6
v 1.2 0.1 1.6
v 1.3 0.1 1.6
v -0.1 0.1 1.2
v 0.1 0.1 1.2
v -1.6 0.1 1
v -1.4 0.1 1
v -1.2 0.1 1
v -1.1 0.1 1
v 1.1 0.1 1
v 1.2 0.1 1
v 1.4 0.1 1
v 1.6 0.1 1
v -1.6 0.1 0.9
v -1.4 0.1 0.9
v -1.3 0.1 0.9
v 1.3 0.1 0.9
v 1.4 0.1 0.9
v 1.6 0.1 0.9
v -1.6 0.1 0.8
v -1.4 0.1 0.8
v -1.3 0.1 0.8
v 1.3 0.1 0.8
v 1.4 0.1 0.8
v 1.6 0.1 0.8
v -1.2 0.1 0.7
v -1.1 0.1 0.7
v 1.1 0.1 0.7
v 1.2 0.1 0.7
v -1.2 0.1 0.5
v -1.1 0.1 0.5
v 1.1 0.1 0.5
v 1.2 0.1 0.5
v -1.6 0.1 0.4
v -1.4 0.1 0.4
v -1.3 0.1 0.4
v 1.3 0.1 0.4
v 1.4 0.1 0.4
v 1.6 0.1 0.4
v -1.6 0.1 0.3
v -1.4 0.1 0.3
v -1.3 0.1 0.3
v 1.3 0.1 0.3
v 1.4 0.1 0.3
v 1.6 0.1 0.3
v -1.6 0.1 0.2
v -1.4 0.1 0.2
v -1.2 0.1 0.2
v -1.1 0.1 0.2
v 1.1 0.1 0.2
v 1.2 0.1 0.2
v 1.4 0.1 0.2
v 1.6 0.1 0.2
v -1.6 0.1 -0.2
v -1.4 0.1 -0.2
v -1.2 0.1 -0.2
v -1.1 0.1 -0.2
v 1.1 0.1 -0.2
v 1.2 0.1 -0.2
v 1.4 0.1 -0.2
v 1.6 0.1 -0.2
v -1.6 0.1 -0.3
v -1.4 0.1 -0.3
v -1.3 0.1 -0.3
v 1.3 0.1 -0.3
v 1.4 0.1 -0.3
v 1.6 0.1 -0.3
v -1.6 0.1 -0.4
v -1.4 0.1 -0.4
v -1.3 0.1 -0.4
v 1.3 0.1 -0.4
v 1.4 0.1 -0.4
v 1.6 0.1 -0.4
v -1.2 0.1 -0.5
v -1.1 0.1 -0.5
v 1.1 0.1 -0.5
v 1.2 0.1 -0.5
v -1.2 0.1 -0.7
v -1.1 0.1 -0.7
v 1.1 0.1 -0.7
v 1.2 0.1 -0.7
v -1.6 0.1 -0.8
v -1.4 0.1 -0.8
v -1.3 0.1 -0.8
v 1.3 0.1 -0.8
v 1.4 0.1 -0.8
v 1.6 0.1 -0.8
v -1.6 0.1 -0.9
v -1.4 0.1 -0.9
v -1.3 0.1 -0.9
v 1.3 0.1 -0.9
v 1.4 0.1 -0.9
v 1.6 0.1 -0.9
v -1.6 0.1 -1
v -1.4 0.1 -1
v -1.2 0.1 -1
v -1.1 0.1 -1
v 1.1 0.1 -1
v 1.2 0.1 -1
v 1.4 0.1 -1
v 1.6 0.1 -1
v -0.1 0.1 -1.2
v 0.1 0.1 -1.2
v -1.3 0.1 -1.6
v -1.2 0.1 -1.6
v -1.1 0.1 -1.6
v -0.1 0.1 -1.6
v 0.1 0.1 -1.6
v 1.1 0.1 -1.6
v 1.2 0.1 -1.6
v 1.3 0.1 -1.6

# faces
f 13/4/1 2/4/1 1/4/1
f 14/3/1 3/3/1 2/3/1
f 14/4/1 2/4/1 13/4/1
f 15/4/1 4/4/1 3/4/1
f 15/3/1 3/3/1 14/3/1
f 16/3/1 5/3/1 4/3/1
f 16/4/1 4/4/1 15/4/1
f 17/4/1 6/4/1 5/4/1
f 17/3/1 5/3/1 16/3/1
f 18/4/1 6/4/1 17/4/1
f 19/4/1 8/4/1 7/4/1
f 20/3/1 9/3/1 8/3/1
f 20/4/1 8/4/1 19/4/1
f 21/4/1 10/4/1 9/4/1
f 21/3/1 9/3/1 20/3/1
f 22/3/1 11/3/1 10/3/1
f 22/4/1 10/4/1 21/4/1
f 23/4/1 12/4/1 11/4/1
f 23/3/1 11/3/1 22/3/1
f 24/4/1 12/4/1 23/4/1
f 35/1/1 26/1/1 25/1/1
f 36/1/1 26/1/1 35/1/1
f 37/1/1 28/1/1 27/1/1
f 38/1/1 28/1/1 37/1/1
f 39/1/1 30/1/1 29/1/1
f 40/1/1 30/1/1 39/1/1
f 41/1/1 32/1/1 31/1/1
f 42/1/1 32/1/1 41/1/1
f 43/1/1 34/1/1 33/1/1
f 44/1/1 34/1/1 43/1/1
f 57/4/1 46/4/1 45/4/1
f 58/4/1 46/4/1 57/4/1
f 59/4/1 48/4/1 47/4/1
f 60/4/1 48/4/1 59/4/1
f 61/4/1 50/4/1 49/4/1
f 62/4/1 50/4/1 61/4/1
f 63/4/1 52/4/1 51/4/1
f 64/4/1 52/4/1 63/4/1
f 65/4/1 54/4/1 53/4/1
f 66/4/1 54/4/1 65/4/1
f 67/4/1 56/4/1 55/4/1
f 68/4/1 56/4/1 67/4/1
f 69/4/2 70/4/2 81/4/2
f 81/4/2 70/4/2 82/4/2
f 71/4/2 72/4/2 83/4/2
f 83/4/2 72/4/2 84/4/2
f 73/4/2 74/4/2 85/4/2
f 85/4/2 74/4/2 86/4/2
f 75/4/2 76/4/2 87/4/2
f 87/4/2 76/4/2 88/4/2
f 77/4/2 78/4/2 89/4/2
f 89/4/2 78/4/2 90/4/2
f 79/4/2 80/4/2 91/4/2
f 91/4/2 80/4/2 92/4/2
f 93/1/2 94/1/2 103/1/2
f 103/1/2 94/1/2 104/1/2
f 95/1/2 96/1/2 105/1/2
f 105/1/2 96/1/2 106/1/2
f 97/1/2 98/1/2 107/1/2
f 107/1/2 98/1/2 108/1/2
f 99/1/2 100/1/2 109/1/2
f 109/1/2 100/1/2 110/1/2
f 101/1/2 102/1/2 111/1/2
f 111/1/2 102/1/2 112/1/2
f 113/4/2 114/4/2 125/4/2
f 114/3/2 115/3/2 126/3/2
f 125/4/2 114/4/2 126/4/2
f 115/4/2 116/4/2 127/4/2
f 126/3/2 115/3/2 127/3/2
f 116/3/2 117/3/2 128/3/2
f 127/4/2 116/4/2 128/4/2
f 117/4/2 118/4/2 129/4/2
f 128/3/2 117/3/2 129/3/2
f 129/4/2 118/4/2 130/4/2
f 119/4/2 120/4/2 131/4/2
f 120/3/2 121/3/2 132/3/2
f 131/4/2 120/4/2 132/4/2
f 121/4/2 122/4/2 133/4/2
f 132/3/2 121/3/2 133/3/2
f 122/3/2 123/3/2 134/3/2
f 133/4/2 122/4/2 134/4/2
f 123/4/2 124/4/2 135/4/2
f 134/3/2 123/3/2 135/3/2
f 135/4/2 124/4/2 136/4/2
f 139/1/3 138/1/3 137/1/3
f 140/1/3 138/1/3 139/1/3
f 141/2/3 140/2/3 139/2/3
f 142/2/3 140/2/3 141/2/3
f 143/1/3 142/1/3 141/1/3
f 144/1/3 142/1/3 143/1/3
f 145/2/3 144/2/3 143/2/3
f 146/2/3 144/2/3 145/2/3
f 147/1/3 146/1/3 145/1/3
f 148/1/3 146/1/3 147/1/3
f 149/2/3 148/2/3 147/2/3
f 150/2/3 148/2/3 149/2/3
f 151/1/3 150/1/3 149/1/3
f 152/1/3 150/1/3 151/1/3
f 155/4/3 154/4/3 153/4/3
f 156/4/3 154/4/3 155/4/3
f 159/4/3 158/4/3 157/4/3
f 160/4/3 158/4/3 159/4/3
f 163/3/3 162/3/3 161/3/3
f 164/3/3 162/3/3 163/3/3
f 167/3/3 166/3/3 165/3/3
f 168/3/3 166/3/3 167/3/3
f 171/3/3 170/3/3 169/3/3
f 172/3/3 170/3/3 171/3/3
f 175/3/3 174/3/3 173/3/3
f 176/3/3 174/3/3 175/3/3
f 179/4/3 178/4/3 177/4/3
f 180/4/3 178/4/3 179/4/3
f 183/4/3 182/4/3 181/4/3
f 184/4/3 182/4/3 183/4/3
f 187/3/3 186/3/3 185/3/3
f 188/3/3 186/3/3 187/3/3
f 191/3/3 190/3/3 189/3/3
f 192/3/3 190/3/3 191/3/3
f 195/3/3 194/3/3 193/3/3
f 196/3/3 194/3/3 195/3/3
f 199/3/3 198/3/3 197/3/3
f 200/3/3 198/3/3 199/3/3
f 201/3/4 202/3/4 203/3/4
f 203/3/4 202/3/4 204/3/4
f 205/3/4 206/3/4 207/3/4
f 207/3/4 206/3/4 208/3/4
f 209/3/4 210/3/4 211/3/4
f 211/3/4 210/3/4 212/3/4
f 213/3/4 214/3/4 215/3/4
f 215/3/4 214/3/4 216/3/4
f 217/4/4 218/4/4 219/4/4
f 219/4/4 218/4/4 220/4/4
f 221/4/4 222/4/4 223/4/4
f 223/4/4 222/4/4 224/4/4
f 225/3/4 226/3/4 227/3/4
f 227/3/4 226/3/4 228/3/4
f 229/3/4 230/3/4 231/3/4
f 231/3/4 230/3/4 232/3/4
f 233/3/4 234/3/4 235/3/4
f 235/3/4 234/3/4 236/3/4
f 237/3/4 238/3/4 239/3/4
f 239/3/4 238/3/4 240/3/4
f 241/4/4 242/4/4 243/4/4
f 243/4/4 242/4/4 244/4/4
f 245/4/4 246/4/4 247/4/4
f 247/4/4 246/4/4 248/4/4
f 249/1/4 250/1/4 251/1/4
f 251/1/4 250/1/4 252/1/4
f 251/2/4 252/2/4 253/2/4
f 253/2/4 252/2/4 254/2/4
f 253/1/4 254/1/4 255/1/4
f 255/1/4 254/1/4 256/1/4
f 255/2/4 256/2/4 257/2/4
f 257/2/4 256/2/4 258/2/4
f 257/1/4 258/1/4 259/1/4
f 259/1/4 258/1/4 260/1/4
f 259/2/4 260/2/4 261/2/4
f 261/2/4 260/2/4 262/2/4
f 261/1/4 262/1/4 263/1/4
f 263/1/4 262/1/4 264/1/4
f 273/1/5 268/1/5 267/1/5
f 273/2/5 269/2/5 268/2/5
f 274/1/5 270/1/5 269/1/5
f 274/2/5 269/2/5 273/2/5
f 277/1/5 266/1/5 265/1/5
f 277/2/5 267/2/5 266/2/5
f 278/1/5 273/1/5 267/1/5
f 278/2/5 267/2/5 277/2/5
f 278/1/5 274/1/5 273/1/5
f 279/1/5 270/1/5 274/1/5
f 279/1/5 274/1/5 278/1/5
f 279/2/5 271/2/5 270/2/5
f 280/1/5 272/1/5 271/1/5
f 280/2/5 271/2/5 279/2/5
f 283/4/5 276/4/5 275/4/5
f 284/4/5 276/4/5 283/4/5
f 285/1/5 278/1/5 277/1/5
f 285/1/5 279/1/5 278/1/5
f 285/1/5 277/1/5 265/1/5
f 285/1/5 280/1/5 279/1/5
f 286/1/5 272/1/5 280/1/5
f 286/1/5 280/1/5 285/1/5
f 287/4/5 282/4/5 281/4/5
f 288/4/5 282/4/5 287/4/5
f 289/3/5 286/3/5 285/3/5
f 289/3/5 284/3/5 283/3/5
f 289/3/5 288/3/5 287/3/5
f 289/3/5 287/3/5 286/3/5
f 289/3/5 285/3/5 284/3/5
f 290/3/5 288/3/5 289/3/5
f 291/3/5 288/3/5 290/3/5
f 292/3/5 288/3/5 291/3/5
f 293/3/5 288/3/5 292/3/5
f 294/3/5 288/3/5 293/3/5
f 295/1/5 292/1/5 291/1/5
f 296/1/5 292/1/5 295/1/5
f 297/1/5 292/1/5 296/1/5
f 298/1/5 292/1/5 297/1/5
f 299/1/5 295/1/5 291/1/5
f 299/2/5 296/2/5 295/2/5
f 300/1/5 297/1/5 296/1/5
f 300/2/5 296/2/5 299/2/5
f 301/2/5 298/2/5 297/2/5
f 301/1/5 297/1/5 300/1/5
f 302/1/5 292/1/5 298/1/5
f 302/2/5 298/2/5 301/2/5
f 303/4/5 290/4/5 289/4/5
f 304/4/5 290/4/5 303/4/5
f 305/1/5 301/1/5 300/1/5
f 305/1/5 300/1/5 299/1/5
f 305/1/5 299/1/5 291/1/5
f 305/1/5 302/1/5 301/1/5
f 306/1/5 292/1/5 302/1/5
f 306/1/5 302/1/5 305/1/5
f 307/4/5 294/4/5 293/4/5
f 308/4/5 294/4/5 307/4/5
f 309/3/5 305/3/5 304/3/5
f 309/3/5 306/3/5 305/3/5
f 309/3/5 308/3/5 307/3/5
f 309/3/5 307/3/5 306/3/5
f 309/3/5 304/3/5 303/3/5
f 310/3/5 308/3/5 309/3/5
f 311/3/5 308/3/5 310/3/5
f 312/3/5 308/3/5 311/3/5
f 313/3/5 308/3/5 312/3/5
f 314/3/5 308/3/5 313/3/5
f 315/4/5 310/4/5 309/4/5
f 316/4/5 310/4/5 315/4/5
f 317/1/5 312/1/5 311/1/5
f 318/1/5 312/1/5 317/1/5
f 319/1/5 312/1/5 318/1/5
f 320/1/5 312/1/5 319/1/5
f 321/4/5 314/4/5 313/4/5
f 322/4/5 314/4/5 321/4/5
f 325/1/5 317/1/5 311/1/5
f 325/2/5 318/2/5 317/2/5
f 326/1/5 319/1/5 318/1/5
f 326/2/5 318/2/5 325/2/5
f 327/2/5 320/2/5 319/2/5
f 327/1/5 319/1/5 326/1/5
f 328/1/5 312/1/5 320/1/5
f 328/2/5 320/2/5 327/2/5
f 331/4/5 324/4/5 323/4/5
f 332/4/5 324/4/5 331/4/5
f 333/1/5 327/1/5 326/1/5
f 333/1/5 325/1/5 311/1/5
f 333/1/5 326/1/5 325/1/5
f 333/1/5 328/1/5 327/1/5
f 334/1/5 312/1/5 328/1/5
f 334/1/5 328/1/5 333/1/5
f 335/4/5 330/4/5 329/4/5
f 336/4/5 330/4/5 335/4/5
f 337/3/5 332/3/5 331/3/5
f 337/3/5 334/3/5 333/3/5
f 337/3/5 336/3/5 335/3/5
f 337/3/5 335/3/5 334/3/5
f 337/3/5 333/3/5 332/3/5
f 338/3/5 336/3/5 337/3/5
f 339/3/5 336/3/5 338/3/5
f 340/3/5 336/3/5 339/3/5
f 341/3/5 336/3/5 340/3/5
f 342/3/5 336/3/5 341/3/5
f 343/1/5 340/1/5 339/1/5
f 344/1/5 340/1/5 343/1/5
f 345/1/5 340/1/5 344/1/5
f 346/1/5 340/1/5 345/1/5
f 347/1/5 343/1/5 339/1/5
f 347/2/5 344/2/5 343/2/5
f 348/1/5 345/1/5 344/1/5
f 348/2/5 344/2/5 347/2/5
f 349/2/5 346/2/5 345/2/5
f 349/1/5 345/1/5 348/1/5
f 350/1/5 340/1/5 346/1/5
f 350/2/5 346/2/5 349/2/5
f 351/4/5 338/4/5 337/4/5
f 352/4/5 338/4/5 351/4/5
f 353/1/5 349/1/5 348/1/5
f 353/1/5 348/1/5 347/1/5
f 353/1/5 347/1/5 339/1/5
f 353/1/5 350/1/5 349/1/5
f 354/1/5 340/1/5 350/1/5
f 354/1/5 350/1/5 353/1/5
f 355/4/5 342/4/5 341/4/5
f 356/4/5 342/4/5 355/4/5
f 357/3/5 353/3/5 352/3/5
f 357/3/5 354/3/5 353/3/5
f 357/3/5 356/3/5 355/3/5
f 357/3/5 355/3/5 354/3/5
f 357/3/5 352/3/5 351/3/5
f 358/3/5 356/3/5 357/3/5
f 359/3/5 356/3/5 358/3/5
f 360/3/5 356/3/5 359/3/5
f 361/3/5 356/3/5 360/3/5
f 362/3/5 356/3/5 361/3/5
f 363/4/5 358/4/5 357/4/5
f 364/4/5 358/4/5 363/4/5
f 365/1/5 360/1/5 359/1/5
f 366/1/5 360/1/5 365/1/5
f 367/1/5 360/1/5 366/1/5
f 368/1/5 360/1/5 367/1/5
f 369/4/5 362/4/5 361/4/5
f 370/4/5 362/4/5 369/4/5
f 371/1/5 367/1/5 366/1/5
f 372/1/5 367/1/5 371/1/5
f 373/1/5 365/1/5 359/1/5
f 374/2/5 366/2/5 365/2/5
f 374/1/5 365/1/5 373/1/5
f 375/1/5 371/1/5 366/1/5
f 375/2/5 366/2/5 374/2/5
f 376/2/5 372/2/5 371/2/5
f 376/1/5 371/1/5 375/1/5
f 377/1/5 367/1/5 372/1/5
f 377/2/5 372/2/5 376/2/5
f 378/2/5 368/2/5 367/2/5
f 378/1/5 367/1/5 377/1/5
f 379/1/5 360/1/5 368/1/5
f 379/2/5 368/2/5 378/2/5
f 380/1/5 360/1/5 379/1/5
f 383/1/6 384/1/6 389/1/6
f 384/2/6 385/2/6 389/2/6
f 385/1/6 386/1/6 390/1/6
f 389/2/6 385/2/6 390/2/6
f 381/1/6 382/1/6 393/1/6
f 382/2/6 383/2/6 393/2/6
f 383/1/6 389/1/6 394/1/6
f 393/2/6 383/2/6 394/2/6
f 389/1/6 390/1/6 394/1/6
f 390/1/6 386/1/6 395/1/6
f 394/1/6 390/1/6 395/1/6
f 386/2/6 387/2/6 395/2/6
f 387/1/6 388/1/6 396/1/6
f 395/2/6 387/2/6 396/2/6
f 391/4/6 392/4/6 399/4/6
f 399/4/6 392/4/6 400/4/6
f 393/1/6 394/1/6 401/1/6
f 394/1/6 395/1/6 401/1/6
f 381/1/6 393/1/6 401/1/6
f 395/1/6 396/1/6 401/1/6
f 396/1/6 388/1/6 402/1/6
f 401/1/6 396/1/6 402/1/6
f 397/4/6 398/4/6 403/4/6
f 403/4/6 398/4/6 404/4/6
f 401/3/6 402/3/6 405/3/6
f 399/3/6 400/3/6 405/3/6
f 403/3/6 404/3/6 405/3/6
f 402/3/6 403/3/6 405/3/6
f 400/3/6 401/3/6 405/3/6
f 405/3/6 404/3/6 406/3/6
f 406/3/6 404/3/6 407/3/6
f 407/3/6 404/3/6 408/3/6
f 408/3/6 404/3/6 409/3/6
f 409/3/6 404/3/6 410/3/6
f 407/1/6 408/1/6 411/1/6
f 411/1/6 408/1/6 412/1/6
f 412/1/6 408/1/6 413/1/6
f 413/1/6 408/1/6 414/1/6
f 407/1/6 411/1/6 415/1/6
f 411/2/6 412/2/6 415/2/6
f 412/1/6 413/1/6 416/1/6
f 415/2/6 412/2/6 416/2/6
f 413/2/6 414/2/6 417/2/6
f 416/1/6 413/1/6 417/1/6
f 414/1/6 408/1/6 418/1/6
f 417/2/6 414/2/6 418/2/6
f 405/4/6 406/4/6 419/4/6
f 419/4/6 406/4/6 420/4/6
f 416/1/6 417/1/6 421/1/6
f 415/1/6 416/1/6 421/1/6
f 407/1/6 415/1/6 421/1/6
f 417/1/6 418/1/6 421/1/6
f 418/1/6 408/1/6 422/1/6
f 421/1/6 418/1/6 422/1/6
f 409/4/6 410/4/6 423/4/6
f 423/4/6 410/4/6 424/4/6
f 420/3/6 421/3/6 425/3/6
f 421/3/6 422/3/6 425/3/6
f 423/3/6 424/3/6 425/3/6
f 422/3/6 423/3/6 425/3/6
f 419/3/6 420/3/6 425/3/6
f 425/3/6 424/3/6 426/3/6
f 426/3/6 424/3/6 427/3/6
f 427/3/6 424/3/6 428/3/6
f 428/3/6 424/3/6 429/3/6
f 429/3/6 424/3/6 430/3/6
f 425/4/6 426/4/6 431/4/6
f 431/4/6 426/4/6 432/4/6
f 427/1/6 428/1/6 433/1/6
f 433/1/6 428/1/6 434/1/6
f 434/1/6 428/1/6 435/1/6
f 435/1/6 428/1/6 436/1/6
f 429/4/6 430/4/6 437/4/6
f 437/4/6 430/4/6 438/4/6
f 427/1/6 433/1/6 441/1/6
f 433/2/6 434/2/6 441/2/6
f 434/1/6 435/1/6 442/1/6
f 441/2/6 434/2/6 442/2/6
f 435/2/6 436/2/6 443/2/6
f 442/1/6 435/1/6 443/1/6
f 436/1/6 428/1/6 444/1/6
f 443/2/6 436/2/6 444/2/6
f 439/4/6 440/4/6 447/4/6
f 447/4/6 440/4/6 448/4/6
f 442/1/6 443/1/6 449/1/6
f 427/1/6 441/1/6 449/1/6
f 441/1/6 442/1/6 449/1/6
f 443/1/6 444/1/6 449/1/6
f 444/1/6 428/1/6 450/1/6
f 449/1/6 444/1/6 450/1/6
f 445/4/6 446/4/6 451/4/6
f 451/4/6 446/4/6 452/4/6
f 447/3/6 448/3/6 453/3/6
f 449/3/6 450/3/6 453/3/6
f 451/3/6 452/3/6 453/3/6
f 450/3/6 451/3/6 453/3/6
f 448/3/6 449/3/6 453/3/6
f 453/3/6 452/3/6 454/3/6
f 454/3/6 452/3/6 455/3/6
f 455/3/6 452/3/6 456/3/6
f 456/3/6 452/3/6 457/3/6
f 457/3/6 452/3/6 458/3/6
f 455/1/6 456/1/6 459/1/6
f 459/1/6 456/1/6 460/1/6
f 460/1/6 456/1/6 461/1/6
f 461/1/6 456/1/6 462/1/6
f 455/1/6 459/1/6 463/1/6
f 459/2/6 460/2/6 463/2/6
f 460/1/6 461/1/6 464/1/6
f 463/2/6 460/2/6 464/2/6
f 461/2/6 462/2/6 465/2/6
f 464/1/6 461/1/6 465/1/6
f 462/1/6 456/1/6 466/1/6
f 465/2/6 462/2/6 466/2/6
f 453/4/6 454/4/6 467/4/6
f 467/4/6 454/4/6 468/4/6
f 464/1/6 465/1/6 469/1/6
f 463/1/6 464/1/6 469/1/6
f 455/1/6 463/1/6 469/1/6
f 465/1/6 466/1/6 469/1/6
f 466/1/6 456/1/6 470/1/6
f 469/1/6 466/1/6 470/1/6
f 457/4/6 458/4/6 471/4/6
f 471/4/6 458/4/6 472/4/6
f 468/3/6 469/3/6 473/3/6
f 469/3/6 470/3/6 473/3/6
f 471/3/6 472/3/6 473/3/6
f 470/3/6 471/3/6 473/3/6
f 467/3/6 468/3/6 473/3/6
f 473/3/6 472/3/6 474/3/6
f 474/3/6 472/3/6 475/3/6
f 475/3/6 472/3/6 476/3/6
f 476/3/6 472/3/6 477/3/6
f 477/3/6 472/3/6 478/3/6
f 473/4/6 474/4/6 479/4/6
f 479/4/6 474/4/6 480/4/6
f 475/1/6 476/1/6 481/1/6
f 481/1/6 476/1/6 482/1/6
f 482/1/6 476/1/6 483/1/6
f 483/1/6 476/1/6 484/1/6
f 477/4/6 478/4/6 485/4/6
f 485/4/6 478/4/6 486/4/6
f 482/1/6 483/1/6 487/1/6
f 487/1/6 483/1/6 488/1/6
f 475/1/6 481/1/6 489/1/6
f 481/2/6 482/2/6 490/2/6
f 489/1/6 481/1/6 490/1/6
f 482/1/6 487/1/6 491/1/6
f 490/2/6 482/2/6 491/2/6
f 487/2/6 488/2/6 492/2/6
f 491/1/6 487/1/6 492/1/6
f 488/1/6 483/1/6 493/1/6
f 492/2/6 488/2/6 493/2/6
f 483/2/6 484/2/6 494/2/6
f 493/1/6 483/1/6 494/1/6
f 484/1/6 476/1/6 495/1/6
f 494/2/6 484/2/6 495/2/6
f 495/1/6 476/1/6 496/1/6
