{
	"asset":{
		"generator":"Khronos glTF Blender I/O v4.2.57",
		"version":"2.0"
	},
	"extensionsUsed":[
		"KHR_materials_specular"
	],
	"scene":0,
	"scenes":[
		{
			"name":"Scene",
			"nodes":[
				0
			]
		}
	],
	"nodes":[
		{
			"mesh":0,
			"name":"track-curve-large-outer"
		}
	],
	"materials":[
		{
			"doubleSided":true,
			"extensions":{
				"KHR_materials_specular":{
					"specularFactor":0
				}
			},
			"name":"palette",
			"pbrMetallicRoughness":{
				"baseColorTexture":{
					"index":0
				},
				"metallicFactor":0
			}
		}
	],
	"meshes":[
		{
			"name":"track-curve-large-outer",
			"primitives":[
				{
					"attributes":{
						"POSITION":0,
						"NORMAL":1,
						"TEXCOORD_0":2
					},
					"indices":3,
					"material":0
				}
			]
		}
	],
	"textures":[
		{
			"sampler":0,
			"source":0
		}
	],
	"images":[
		{
			"mimeType":"image/png",
			"name":"texture",
			"uri":"texture.png"
		}
	],
	"accessors":[
		{
			"bufferView":0,
			"componentType":5126,
			"count":3116,
			"max":[
				4.199999809265137,
				0.10000012069940567,
				1.600000023841858
			],
			"min":[
				-1.600000023841858,
				-3.170911782035546e-07,
				-4.199999809265137
			],
			"type":"VEC3"
		},
		{
			"bufferView":1,
			"componentType":5126,
			"count":3116,
			"type":"VEC3"
		},
		{
			"bufferView":2,
			"componentType":5126,
			"count":3116,
			"type":"VEC2"
		},
		{
			"bufferView":3,
			"componentType":5123,
			"count":5796,
			"type":"SCALAR"
		}
	],
	"bufferViews":[
		{
			"buffer":0,
			"byteLength":37392,
			"byteOffset":0,
			"target":34962
		},
		{
			"buffer":0,
			"byteLength":37392,
			"byteOffset":37392,
			"target":34962
		},
		{
			"buffer":0,
			"byteLength":24928,
			"byteOffset":74784,
			"target":34962
		},
		{
			"buffer":0,
			"byteLength":11592,
			"byteOffset":99712,
			"target":34963
		}
	],
	"samplers":[
		{
			"magFilter":9729,
			"minFilter":9987
		}
	],
	"buffers":[
		{
			"byteLength":111304,
			"uri":"track-curve-large-outer.bin"
		}
	]
}
