# MagicaVoxel @ Ephtracy

# group
o 

# material
mtllib asphalt-edgy-edge-inner.mtl
usemtl palette

# normals
vn -1 0 0
vn 1 0 0
vn 0 0 1
vn 0 0 -1
vn 0 -1 0
vn 0 1 0

# texcoords
vt 0.970703 0.5
vt 0.974609 0.5

# verts
v -1.6 0 1.6
v -1.6 0 -1.1
v -1.6 0 -1.2
v -1.6 0 -1.3
v -1.6 0.1 1.6
v -1.6 0.1 -1.1
v -1.6 0.1 -1.2
v -1.6 0.1 -1.3
v -1.3 0 -1.3
v -1.3 0 -1.6
v -1.3 0.1 -1.3
v -1.3 0.1 -1.6
v 1.6 0 1.6
v 1.6 0 -1.6
v 1.6 0.1 1.6
v 1.6 0.1 -1.6
v -1.6 0 1.6
v -1.6 0.1 1.6
v 1.6 0 1.6
v 1.6 0.1 1.6
v -1.6 0 -1.3
v -1.6 0.1 -1.3
v -1.3 0 -1.3
v -1.3 0.1 -1.3
v -1.3 0 -1.6
v -1.3 0.1 -1.6
v -1.2 0 -1.6
v -1.2 0.1 -1.6
v -1.1 0 -1.6
v -1.1 0.1 -1.6
v 1.6 0 -1.6
v 1.6 0.1 -1.6
v -1.6 0 1.6
v 1.6 0 1.6
v -1.6 0 -1.1
v -1.1 0 -1.1
v -1.6 0 -1.2
v -1.2 0 -1.2
v -1.6 0 -1.3
v -1.3 0 -1.3
v -1.3 0 -1.6
v -1.2 0 -1.6
v -1.1 0 -1.6
v 1.6 0 -1.6
v -1.6 0.1 1.6
v 1.6 0.1 1.6
v -1.6 0.1 -1.1
v -1.1 0.1 -1.1
v -1.6 0.1 -1.2
v -1.2 0.1 -1.2
v -1.6 0.1 -1.3
v -1.3 0.1 -1.3
v -1.3 0.1 -1.6
v -1.2 0.1 -1.6
v -1.1 0.1 -1.6
v 1.6 0.1 -1.6

# faces
f 5/1/1 2/1/1 1/1/1
f 6/2/1 3/2/1 2/2/1
f 6/1/1 2/1/1 5/1/1
f 7/1/1 4/1/1 3/1/1
f 7/2/1 3/2/1 6/2/1
f 8/1/1 4/1/1 7/1/1
f 11/1/1 10/1/1 9/1/1
f 12/1/1 10/1/1 11/1/1
f 13/1/2 14/1/2 15/1/2
f 15/1/2 14/1/2 16/1/2
f 19/1/3 18/1/3 17/1/3
f 20/1/3 18/1/3 19/1/3
f 21/1/4 22/1/4 23/1/4
f 23/1/4 22/1/4 24/1/4
f 25/1/4 26/1/4 27/1/4
f 27/1/4 26/1/4 28/1/4
f 27/2/4 28/2/4 29/2/4
f 29/2/4 28/2/4 30/2/4
f 29/1/4 30/1/4 31/1/4
f 31/1/4 30/1/4 32/1/4
f 35/1/5 34/1/5 33/1/5
f 36/1/5 34/1/5 35/1/5
f 37/2/5 36/2/5 35/2/5
f 38/2/5 36/2/5 37/2/5
f 39/1/5 38/1/5 37/1/5
f 40/1/5 38/1/5 39/1/5
f 41/1/5 38/1/5 40/1/5
f 42/2/5 36/2/5 38/2/5
f 42/1/5 38/1/5 41/1/5
f 43/1/5 34/1/5 36/1/5
f 43/2/5 36/2/5 42/2/5
f 44/1/5 34/1/5 43/1/5
f 45/1/6 46/1/6 47/1/6
f 47/1/6 46/1/6 48/1/6
f 47/2/6 48/2/6 49/2/6
f 49/2/6 48/2/6 50/2/6
f 49/1/6 50/1/6 51/1/6
f 51/1/6 50/1/6 52/1/6
f 52/1/6 50/1/6 53/1/6
f 50/2/6 48/2/6 54/2/6
f 53/1/6 50/1/6 54/1/6
f 48/1/6 46/1/6 55/1/6
f 54/2/6 48/2/6 55/2/6
f 55/1/6 46/1/6 56/1/6
