# MagicaVoxel @ Ephtracy

# group
o 

# material
mtllib asphalt-rounded-edge-outer.mtl
usemtl palette

# normals
vn -1 0 0
vn 1 0 0
vn 0 0 1
vn 0 0 -1
vn 0 -1 0
vn 0 1 0

# texcoords
vt 0.970703 0.5
vt 0.974609 0.5

# verts
v -1.3 0 1.6
v -1.3 0 -0.1
v -1.3 0.1 1.6
v -1.3 0.1 -0.1
v -1.2 0 -0.1
v -1.2 0 -0.4
v -1.2 0.1 -0.1
v -1.2 0.1 -0.4
v -1.1 0 -0.4
v -1.1 0 -0.5
v -1.1 0.1 -0.4
v -1.1 0.1 -0.5
v -1 0 -0.5
v -1 0 -0.7
v -1 0.1 -0.5
v -1 0.1 -0.7
v -0.9 0 -0.7
v -0.9 0 -0.8
v -0.9 0.1 -0.7
v -0.9 0.1 -0.8
v -0.8 0 -0.8
v -0.8 0 -0.9
v -0.8 0.1 -0.8
v -0.8 0.1 -0.9
v -0.7 0 -0.9
v -0.7 0 -1
v -0.7 0.1 -0.9
v -0.7 0.1 -1
v -0.6 0 -1
v -0.6 0 -1.1
v -0.6 0.1 -1
v -0.6 0.1 -1.1
v -0.4 0 -1.1
v -0.4 0 -1.2
v -0.4 0.1 -1.1
v -0.4 0.1 -1.2
v -0.0999999 0 -1.2
v -0.0999999 0 -1.3
v -0.0999999 0.1 -1.2
v -0.0999999 0.1 -1.3
v 1.6 0 1.6
v 1.6 0 -1.1
v 1.6 0 -1.2
v 1.6 0 -1.3
v 1.6 0.1 1.6
v 1.6 0.1 -1.1
v 1.6 0.1 -1.2
v 1.6 0.1 -1.3
v -1.3 0 1.6
v -1.3 0.1 1.6
v -1.2 0 1.6
v -1.2 0.1 1.6
v -1.1 0 1.6
v -1.1 0.1 1.6
v 1.6 0 1.6
v 1.6 0.1 1.6
v -1.3 0 -0.1
v -1.3 0.1 -0.1
v -1.2 0 -0.1
v -1.2 0.1 -0.1
v -1.2 0 -0.4
v -1.2 0.1 -0.4
v -1.1 0 -0.4
v -1.1 0.1 -0.4
v -1.1 0 -0.5
v -1.1 0.1 -0.5
v -1 0 -0.5
v -1 0.1 -0.5
v -1 0 -0.7
v -1 0.1 -0.7
v -0.9 0 -0.7
v -0.9 0.1 -0.7
v -0.9 0 -0.8
v -0.9 0.1 -0.8
v -0.8 0 -0.8
v -0.8 0.1 -0.8
v -0.8 0 -0.9
v -0.8 0.1 -0.9
v -0.7 0 -0.9
v -0.7 0.1 -0.9
v -0.7 0 -1
v -0.7 0.1 -1
v -0.6 0 -1
v -0.6 0.1 -1
v -0.6 0 -1.1
v -0.6 0.1 -1.1
v -0.4 0 -1.1
v -0.4 0.1 -1.1
v -0.4 0 -1.2
v -0.4 0.1 -1.2
v -0.0999999 0 -1.2
v -0.0999999 0.1 -1.2
v -0.0999999 0 -1.3
v -0.0999999 0.1 -1.3
v 1.6 0 -1.3
v 1.6 0.1 -1.3
v -1.3 0 1.6
v -1.2 0 1.6
v -1.1 0 1.6
v 1.6 0 1.6
v -1.2 0 0
v -1.1 0 0
v -1 0 0
v -1.3 0 -0.1
v -1.2 0 -0.1
v -1.1 0 -0.3
v -1 0 -0.3
v -0.9 0 -0.3
v -1.2 0 -0.4
v -1.1 0 -0.4
v -1.1 0 -0.5
v -1 0 -0.5
v -0.9 0 -0.5
v -0.8 0 -0.5
v -0.9 0 -0.6
v -0.8 0 -0.6
v -0.7 0 -0.6
v -1 0 -0.7
v -0.9 0 -0.7
v -0.8 0 -0.7
v -0.7 0 -0.7
v -0.6 0 -0.7
v -0.9 0 -0.8
v -0.8 0 -0.8
v -0.7 0 -0.8
v -0.6 0 -0.8
v -0.5 0 -0.8
v -0.8 0 -0.9
v -0.7 0 -0.9
v -0.6 0 -0.9
v -0.5 0 -0.9
v -0.3 0 -0.9
v -0.7 0 -1
v -0.6 0 -1
v -0.5 0 -1
v -0.3 0 -1
v 0 0 -1
v -0.6 0 -1.1
v -0.4 0 -1.1
v -0.3 0 -1.1
v 0 0 -1.1
v 1.6 0 -1.1
v -0.4 0 -1.2
v -0.0999999 0 -1.2
v 0 0 -1.2
v 1.6 0 -1.2
v -0.0999999 0 -1.3
v 1.6 0 -1.3
v -1.3 0.1 1.6
v -1.2 0.1 1.6
v -1.1 0.1 1.6
v 1.6 0.1 1.6
v -1.2 0.1 0
v -1.1 0.1 0
v -1 0.1 0
v -1.3 0.1 -0.1
v -1.2 0.1 -0.1
v -1.1 0.1 -0.3
v -1 0.1 -0.3
v -0.9 0.1 -0.3
v -1.2 0.1 -0.4
v -1.1 0.1 -0.4
v -1.1 0.1 -0.5
v -1 0.1 -0.5
v -0.9 0.1 -0.5
v -0.8 0.1 -0.5
v -0.9 0.1 -0.6
v -0.8 0.1 -0.6
v -0.7 0.1 -0.6
v -1 0.1 -0.7
v -0.9 0.1 -0.7
v -0.8 0.1 -0.7
v -0.7 0.1 -0.7
v -0.6 0.1 -0.7
v -0.9 0.1 -0.8
v -0.8 0.1 -0.8
v -0.7 0.1 -0.8
v -0.6 0.1 -0.8
v -0.5 0.1 -0.8
v -0.8 0.1 -0.9
v -0.7 0.1 -0.9
v -0.6 0.1 -0.9
v -0.5 0.1 -0.9
v -0.3 0.1 -0.9
v -0.7 0.1 -1
v -0.6 0.1 -1
v -0.5 0.1 -1
v -0.3 0.1 -1
v 0 0.1 -1
v -0.6 0.1 -1.1
v -0.4 0.1 -1.1
v -0.3 0.1 -1.1
v 0 0.1 -1.1
v 1.6 0.1 -1.1
v -0.4 0.1 -1.2
v -0.0999999 0.1 -1.2
v 0 0.1 -1.2
v 1.6 0.1 -1.2
v -0.0999999 0.1 -1.3
v 1.6 0.1 -1.3

# faces
f 3/1/1 2/1/1 1/1/1
f 4/1/1 2/1/1 3/1/1
f 7/1/1 6/1/1 5/1/1
f 8/1/1 6/1/1 7/1/1
f 11/1/1 10/1/1 9/1/1
f 12/1/1 10/1/1 11/1/1
f 15/1/1 14/1/1 13/1/1
f 16/1/1 14/1/1 15/1/1
f 19/1/1 18/1/1 17/1/1
f 20/1/1 18/1/1 19/1/1
f 23/1/1 22/1/1 21/1/1
f 24/1/1 22/1/1 23/1/1
f 27/1/1 26/1/1 25/1/1
f 28/1/1 26/1/1 27/1/1
f 31/1/1 30/1/1 29/1/1
f 32/1/1 30/1/1 31/1/1
f 35/1/1 34/1/1 33/1/1
f 36/1/1 34/1/1 35/1/1
f 39/1/1 38/1/1 37/1/1
f 40/1/1 38/1/1 39/1/1
f 41/1/2 42/1/2 45/1/2
f 42/2/2 43/2/2 46/2/2
f 45/1/2 42/1/2 46/1/2
f 43/1/2 44/1/2 47/1/2
f 46/2/2 43/2/2 47/2/2
f 47/1/2 44/1/2 48/1/2
f 51/1/3 50/1/3 49/1/3
f 52/1/3 50/1/3 51/1/3
f 53/2/3 52/2/3 51/2/3
f 54/2/3 52/2/3 53/2/3
f 55/1/3 54/1/3 53/1/3
f 56/1/3 54/1/3 55/1/3
f 57/1/4 58/1/4 59/1/4
f 59/1/4 58/1/4 60/1/4
f 61/1/4 62/1/4 63/1/4
f 63/1/4 62/1/4 64/1/4
f 65/1/4 66/1/4 67/1/4
f 67/1/4 66/1/4 68/1/4
f 69/1/4 70/1/4 71/1/4
f 71/1/4 70/1/4 72/1/4
f 73/1/4 74/1/4 75/1/4
f 75/1/4 74/1/4 76/1/4
f 77/1/4 78/1/4 79/1/4
f 79/1/4 78/1/4 80/1/4
f 81/1/4 82/1/4 83/1/4
f 83/1/4 82/1/4 84/1/4
f 85/1/4 86/1/4 87/1/4
f 87/1/4 86/1/4 88/1/4
f 89/1/4 90/1/4 91/1/4
f 91/1/4 90/1/4 92/1/4
f 93/1/4 94/1/4 95/1/4
f 95/1/4 94/1/4 96/1/4
f 101/1/5 98/1/5 97/1/5
f 101/2/5 99/2/5 98/2/5
f 102/1/5 100/1/5 99/1/5
f 102/2/5 99/2/5 101/2/5
f 103/1/5 100/1/5 102/1/5
f 104/1/5 101/1/5 97/1/5
f 104/1/5 102/1/5 101/1/5
f 105/1/5 102/1/5 104/1/5
f 106/2/5 103/2/5 102/2/5
f 106/1/5 102/1/5 105/1/5
f 107/1/5 100/1/5 103/1/5
f 107/2/5 103/2/5 106/2/5
f 108/1/5 100/1/5 107/1/5
f 109/1/5 106/1/5 105/1/5
f 109/1/5 107/1/5 106/1/5
f 110/1/5 107/1/5 109/1/5
f 111/1/5 107/1/5 110/1/5
f 112/2/5 108/2/5 107/2/5
f 112/1/5 107/1/5 111/1/5
f 113/1/5 100/1/5 108/1/5
f 113/2/5 108/2/5 112/2/5
f 114/1/5 100/1/5 113/1/5
f 115/1/5 113/1/5 112/1/5
f 115/2/5 114/2/5 113/2/5
f 116/1/5 100/1/5 114/1/5
f 116/2/5 114/2/5 115/2/5
f 117/1/5 100/1/5 116/1/5
f 118/1/5 115/1/5 112/1/5
f 118/1/5 116/1/5 115/1/5
f 119/1/5 116/1/5 118/1/5
f 120/2/5 117/2/5 116/2/5
f 120/1/5 116/1/5 119/1/5
f 121/1/5 100/1/5 117/1/5
f 121/2/5 117/2/5 120/2/5
f 122/1/5 100/1/5 121/1/5
f 123/1/5 120/1/5 119/1/5
f 123/1/5 121/1/5 120/1/5
f 124/1/5 121/1/5 123/1/5
f 125/2/5 122/2/5 121/2/5
f 125/1/5 121/1/5 124/1/5
f 126/1/5 100/1/5 122/1/5
f 126/2/5 122/2/5 125/2/5
f 127/1/5 100/1/5 126/1/5
f 128/1/5 125/1/5 124/1/5
f 128/1/5 126/1/5 125/1/5
f 129/1/5 126/1/5 128/1/5
f 130/2/5 127/2/5 126/2/5
f 130/1/5 126/1/5 129/1/5
f 131/1/5 100/1/5 127/1/5
f 131/2/5 127/2/5 130/2/5
f 132/1/5 100/1/5 131/1/5
f 133/1/5 130/1/5 129/1/5
f 133/1/5 131/1/5 130/1/5
f 134/1/5 131/1/5 133/1/5
f 135/2/5 132/2/5 131/2/5
f 135/1/5 131/1/5 134/1/5
f 136/1/5 100/1/5 132/1/5
f 136/2/5 132/2/5 135/2/5
f 137/1/5 100/1/5 136/1/5
f 138/1/5 135/1/5 134/1/5
f 138/1/5 136/1/5 135/1/5
f 139/1/5 136/1/5 138/1/5
f 140/2/5 137/2/5 136/2/5
f 140/1/5 136/1/5 139/1/5
f 141/1/5 100/1/5 137/1/5
f 141/2/5 137/2/5 140/2/5
f 142/1/5 100/1/5 141/1/5
f 143/1/5 140/1/5 139/1/5
f 143/1/5 141/1/5 140/1/5
f 144/1/5 141/1/5 143/1/5
f 145/2/5 142/2/5 141/2/5
f 145/1/5 141/1/5 144/1/5
f 146/2/5 142/2/5 145/2/5
f 147/1/5 145/1/5 144/1/5
f 147/1/5 146/1/5 145/1/5
f 148/1/5 146/1/5 147/1/5
f 149/1/6 150/1/6 153/1/6
f 150/2/6 151/2/6 153/2/6
f 151/1/6 152/1/6 154/1/6
f 153/2/6 151/2/6 154/2/6
f 154/1/6 152/1/6 155/1/6
f 149/1/6 153/1/6 156/1/6
f 153/1/6 154/1/6 156/1/6
f 156/1/6 154/1/6 157/1/6
f 154/2/6 155/2/6 158/2/6
f 157/1/6 154/1/6 158/1/6
f 155/1/6 152/1/6 159/1/6
f 158/2/6 155/2/6 159/2/6
f 159/1/6 152/1/6 160/1/6
f 157/1/6 158/1/6 161/1/6
f 158/1/6 159/1/6 161/1/6
f 161/1/6 159/1/6 162/1/6
f 162/1/6 159/1/6 163/1/6
f 159/2/6 160/2/6 164/2/6
f 163/1/6 159/1/6 164/1/6
f 160/1/6 152/1/6 165/1/6
f 164/2/6 160/2/6 165/2/6
f 165/1/6 152/1/6 166/1/6
f 164/1/6 165/1/6 167/1/6
f 165/2/6 166/2/6 167/2/6
f 166/1/6 152/1/6 168/1/6
f 167/2/6 166/2/6 168/2/6
f 168/1/6 152/1/6 169/1/6
f 164/1/6 167/1/6 170/1/6
f 167/1/6 168/1/6 170/1/6
f 170/1/6 168/1/6 171/1/6
f 168/2/6 169/2/6 172/2/6
f 171/1/6 168/1/6 172/1/6
f 169/1/6 152/1/6 173/1/6
f 172/2/6 169/2/6 173/2/6
f 173/1/6 152/1/6 174/1/6
f 171/1/6 172/1/6 175/1/6
f 172/1/6 173/1/6 175/1/6
f 175/1/6 173/1/6 176/1/6
f 173/2/6 174/2/6 177/2/6
f 176/1/6 173/1/6 177/1/6
f 174/1/6 152/1/6 178/1/6
f 177/2/6 174/2/6 178/2/6
f 178/1/6 152/1/6 179/1/6
f 176/1/6 177/1/6 180/1/6
f 177/1/6 178/1/6 180/1/6
f 180/1/6 178/1/6 181/1/6
f 178/2/6 179/2/6 182/2/6
f 181/1/6 178/1/6 182/1/6
f 179/1/6 152/1/6 183/1/6
f 182/2/6 179/2/6 183/2/6
f 183/1/6 152/1/6 184/1/6
f 181/1/6 182/1/6 185/1/6
f 182/1/6 183/1/6 185/1/6
f 185/1/6 183/1/6 186/1/6
f 183/2/6 184/2/6 187/2/6
f 186/1/6 183/1/6 187/1/6
f 184/1/6 152/1/6 188/1/6
f 187/2/6 184/2/6 188/2/6
f 188/1/6 152/1/6 189/1/6
f 186/1/6 187/1/6 190/1/6
f 187/1/6 188/1/6 190/1/6
f 190/1/6 188/1/6 191/1/6
f 188/2/6 189/2/6 192/2/6
f 191/1/6 188/1/6 192/1/6
f 189/1/6 152/1/6 193/1/6
f 192/2/6 189/2/6 193/2/6
f 193/1/6 152/1/6 194/1/6
f 191/1/6 192/1/6 195/1/6
f 192/1/6 193/1/6 195/1/6
f 195/1/6 193/1/6 196/1/6
f 193/2/6 194/2/6 197/2/6
f 196/1/6 193/1/6 197/1/6
f 197/2/6 194/2/6 198/2/6
f 196/1/6 197/1/6 199/1/6
f 197/1/6 198/1/6 199/1/6
f 199/1/6 198/1/6 200/1/6
