{
	"asset":{
		"generator":"Khronos glTF Blender I/O v4.4.56",
		"version":"2.0"
	},
	"extensionsUsed":[
		"KHR_materials_specular"
	],
	"scene":0,
	"scenes":[
		{
			"name":"Scene",
			"nodes":[
				0
			]
		}
	],
	"nodes":[
		{
			"mesh":0,
			"name":"asphalt-rounded-large-inner_model"
		}
	],
	"materials":[
		{
			"doubleSided":true,
			"extensions":{
				"KHR_materials_specular":{
					"specularFactor":0
				}
			},
			"name":"palette",
			"pbrMetallicRoughness":{
				"baseColorTexture":{
					"index":0
				},
				"metallicFactor":0
			}
		}
	],
	"meshes":[
		{
			"name":"mesh",
			"primitives":[
				{
					"attributes":{
						"POSITION":0,
						"NORMAL":1,
						"TEXCOORD_0":2
					},
					"indices":3,
					"material":0
				}
			]
		}
	],
	"textures":[
		{
			"sampler":0,
			"source":0
		}
	],
	"images":[
		{
			"mimeType":"image/png",
			"name":"texture",
			"uri":"texture.png"
		}
	],
	"accessors":[
		{
			"bufferView":0,
			"componentType":5126,
			"count":572,
			"max":[
				4.800000190734863,
				0.10000012069940567,
				1.600000023841858
			],
			"min":[
				-1.600000023841858,
				-3.6238995448911737e-07,
				-4.800000190734863
			],
			"type":"VEC3"
		},
		{
			"bufferView":1,
			"componentType":5126,
			"count":572,
			"type":"VEC3"
		},
		{
			"bufferView":2,
			"componentType":5126,
			"count":572,
			"type":"VEC2"
		},
		{
			"bufferView":3,
			"componentType":5123,
			"count":1368,
			"type":"SCALAR"
		}
	],
	"bufferViews":[
		{
			"buffer":0,
			"byteLength":6864,
			"byteOffset":0,
			"target":34962
		},
		{
			"buffer":0,
			"byteLength":6864,
			"byteOffset":6864,
			"target":34962
		},
		{
			"buffer":0,
			"byteLength":4576,
			"byteOffset":13728,
			"target":34962
		},
		{
			"buffer":0,
			"byteLength":2736,
			"byteOffset":18304,
			"target":34963
		}
	],
	"samplers":[
		{
			"magFilter":9729,
			"minFilter":9987
		}
	],
	"buffers":[
		{
			"byteLength":21040,
			"uri":"asphalt-rounded-large-inner.bin"
		}
	]
}
