# MagicaVoxel @ Ephtracy

# group
o 

# material
mtllib car-v3-green.mtl
usemtl palette

# normals
vn 1 0 0
vn -1 0 0
vn 0 0 -1
vn 0 0 1
vn 0 -1 0
vn 0 1 0

# texcoords
vt 0.826172 0.5
vt 0.896484 0.5
vt 0.908203 0.5
vt 0.974609 0.5

# verts
v 0.8 0.1 -0.3
v 0.8 0.1 0.3
v 0.8 0.2 -0.3
v 0.8 0.2 -0.1
v 0.8 0.2 0.1
v 0.8 0.2 0.3
v 0.8 0.3 -0.3
v 0.8 0.3 -0.2
v 0.8 0.3 -0.1
v 0.8 0.3 0.1
v 0.8 0.3 0.2
v 0.8 0.3 0.3
v 0.8 0.4 -0.2
v 0.8 0.4 0.2
v 0.7 0.3 -0.3
v 0.7 0.3 -0.2
v 0.7 0.3 0.2
v 0.7 0.3 0.3
v 0.7 0.4 -0.3
v 0.7 0.4 -0.2
v 0.7 0.4 0.2
v 0.7 0.4 0.3
v 0.7 0.5 -0.2
v 0.7 0.5 0.2
v 0.6 0.4 -0.3
v 0.6 0.4 -0.2
v 0.6 0.4 0.2
v 0.6 0.4 0.3
v 0.6 0.5 -0.3
v 0.6 0.5 -0.2
v 0.6 0.5 0.2
v 0.6 0.5 0.3
v 0.6 0.6 -0.2
v 0.6 0.6 0.2
v 0.4 0.1 -0.3
v 0.4 0.1 -0.2
v 0.4 0.1 0.2
v 0.4 0.1 0.3
v 0.4 0.2 -0.3
v 0.4 0.2 -0.2
v 0.4 0.2 0.2
v 0.4 0.2 0.3
v -0.5 0.1 -0.3
v -0.5 0.1 -0.2
v -0.5 0.1 0.2
v -0.5 0.1 0.3
v -0.5 0.2 -0.3
v -0.5 0.2 -0.2
v -0.5 0.2 0.2
v -0.5 0.2 0.3
v 0.6 0.1 -0.3
v 0.6 0.1 -0.2
v 0.6 0.1 0.2
v 0.6 0.1 0.3
v 0.6 0.2 -0.3
v 0.6 0.2 -0.2
v 0.6 0.2 0.2
v 0.6 0.2 0.3
v -0.3 0.1 -0.3
v -0.3 0.1 -0.2
v -0.3 0.1 0.2
v -0.3 0.1 0.3
v -0.3 0.2 -0.3
v -0.3 0.2 -0.2
v -0.3 0.2 0.2
v -0.3 0.2 0.3
v -0.3 0.4 -0.3
v -0.3 0.4 -0.2
v -0.3 0.4 0.2
v -0.3 0.4 0.3
v -0.3 0.5 -0.3
v -0.3 0.5 -0.2
v -0.3 0.5 0.2
v -0.3 0.5 0.3
v -0.3 0.6 -0.2
v -0.3 0.6 0.2
v -0.4 0.3 -0.3
v -0.4 0.3 -0.2
v -0.4 0.3 0.2
v -0.4 0.3 0.3
v -0.4 0.4 -0.3
v -0.4 0.4 -0.2
v -0.4 0.4 0.2
v -0.4 0.4 0.3
v -0.4 0.5 -0.2
v -0.4 0.5 0.2
v -0.8 0.1 -0.3
v -0.8 0.1 0.3
v -0.8 0.2 -0.3
v -0.8 0.2 -0.1
v -0.8 0.2 0.1
v -0.8 0.2 0.3
v -0.8 0.3 -0.3
v -0.8 0.3 -0.2
v -0.8 0.3 -0.1
v -0.8 0.3 0.1
v -0.8 0.3 0.2
v -0.8 0.3 0.3
v -0.8 0.4 -0.2
v -0.8 0.4 0.2
v 0.8 0.1 -0.3
v 0.8 0.2 -0.3
v 0.8 0.3 -0.3
v 0.7 0.2 -0.3
v 0.7 0.3 -0.3
v 0.7 0.4 -0.3
v 0.6 0.1 -0.3
v 0.6 0.2 -0.3
v 0.6 0.3 -0.3
v 0.6 0.4 -0.3
v 0.6 0.5 -0.3
v 0.5 0.4 -0.3
v 0.5 0.5 -0.3
v 0.4 0.1 -0.3
v 0.4 0.2 -0.3
v 0.2 0.3 -0.3
v 0.2 0.5 -0.3
v 0.1 0.3 -0.3
v 0.1 0.5 -0.3
v -0.2 0.4 -0.3
v -0.2 0.5 -0.3
v -0.3 0.1 -0.3
v -0.3 0.2 -0.3
v -0.3 0.3 -0.3
v -0.3 0.4 -0.3
v -0.3 0.5 -0.3
v -0.4 0.3 -0.3
v -0.4 0.4 -0.3
v -0.5 0.1 -0.3
v -0.5 0.2 -0.3
v -0.7 0.2 -0.3
v -0.7 0.3 -0.3
v -0.8 0.1 -0.3
v -0.8 0.2 -0.3
v -0.8 0.3 -0.3
v 0.8 0.3 -0.2
v 0.8 0.4 -0.2
v 0.7 0.3 -0.2
v 0.7 0.4 -0.2
v 0.7 0.5 -0.2
v 0.6 0.1 -0.2
v 0.6 0.2 -0.2
v 0.6 0.4 -0.2
v 0.6 0.5 -0.2
v 0.6 0.6 -0.2
v 0.5 0.5 -0.2
v 0.4 0.1 -0.2
v 0.4 0.2 -0.2
v 0.2 0.5 -0.2
v 0.1 0.5 -0.2
v -0.2 0.5 -0.2
v -0.3 0.1 -0.2
v -0.3 0.2 -0.2
v -0.3 0.4 -0.2
v -0.3 0.5 -0.2
v -0.3 0.6 -0.2
v -0.4 0.3 -0.2
v -0.4 0.4 -0.2
v -0.4 0.5 -0.2
v -0.5 0.1 -0.2
v -0.5 0.2 -0.2
v -0.7 0.3 -0.2
v -0.8 0.3 -0.2
v -0.8 0.4 -0.2
v 0.8 0.3 0.2
v 0.8 0.4 0.2
v 0.7 0.3 0.2
v 0.7 0.4 0.2
v 0.7 0.5 0.2
v 0.6 0.1 0.2
v 0.6 0.2 0.2
v 0.6 0.4 0.2
v 0.6 0.5 0.2
v 0.6 0.6 0.2
v 0.5 0.5 0.2
v 0.4 0.1 0.2
v 0.4 0.2 0.2
v 0.2 0.5 0.2
v 0.1 0.5 0.2
v -0.2 0.5 0.2
v -0.3 0.1 0.2
v -0.3 0.2 0.2
v -0.3 0.4 0.2
v -0.3 0.5 0.2
v -0.3 0.6 0.2
v -0.4 0.3 0.2
v -0.4 0.4 0.2
v -0.4 0.5 0.2
v -0.5 0.1 0.2
v -0.5 0.2 0.2
v -0.7 0.3 0.2
v -0.8 0.3 0.2
v -0.8 0.4 0.2
v 0.8 0.1 0.3
v 0.8 0.2 0.3
v 0.8 0.3 0.3
v 0.7 0.2 0.3
v 0.7 0.3 0.3
v 0.7 0.4 0.3
v 0.6 0.1 0.3
v 0.6 0.2 0.3
v 0.6 0.3 0.3
v 0.6 0.4 0.3
v 0.6 0.5 0.3
v 0.5 0.4 0.3
v 0.5 0.5 0.3
v 0.4 0.1 0.3
v 0.4 0.2 0.3
v 0.2 0.3 0.3
v 0.2 0.5 0.3
v 0.1 0.3 0.3
v 0.1 0.5 0.3
v -0.2 0.4 0.3
v -0.2 0.5 0.3
v -0.3 0.1 0.3
v -0.3 0.2 0.3
v -0.3 0.3 0.3
v -0.3 0.4 0.3
v -0.3 0.5 0.3
v -0.4 0.3 0.3
v -0.4 0.4 0.3
v -0.5 0.1 0.3
v -0.5 0.2 0.3
v -0.7 0.2 0.3
v -0.7 0.3 0.3
v -0.8 0.1 0.3
v -0.8 0.2 0.3
v -0.8 0.3 0.3
v 0.8 0.1 -0.3
v 0.6 0.1 -0.3
v 0.4 0.1 -0.3
v -0.3 0.1 -0.3
v -0.5 0.1 -0.3
v -0.8 0.1 -0.3
v 0.6 0.1 -0.2
v 0.4 0.1 -0.2
v -0.3 0.1 -0.2
v -0.5 0.1 -0.2
v 0.6 0.1 0.2
v 0.4 0.1 0.2
v -0.3 0.1 0.2
v -0.5 0.1 0.2
v 0.8 0.1 0.3
v 0.6 0.1 0.3
v 0.4 0.1 0.3
v -0.3 0.1 0.3
v -0.5 0.1 0.3
v -0.8 0.1 0.3
v 0.6 0.2 -0.3
v 0.4 0.2 -0.3
v -0.3 0.2 -0.3
v -0.5 0.2 -0.3
v 0.6 0.2 -0.2
v 0.4 0.2 -0.2
v -0.3 0.2 -0.2
v -0.5 0.2 -0.2
v 0.6 0.2 0.2
v 0.4 0.2 0.2
v -0.3 0.2 0.2
v -0.5 0.2 0.2
v 0.6 0.2 0.3
v 0.4 0.2 0.3
v -0.3 0.2 0.3
v -0.5 0.2 0.3
v 0.8 0.3 -0.3
v 0.7 0.3 -0.3
v -0.4 0.3 -0.3
v -0.7 0.3 -0.3
v -0.8 0.3 -0.3
v 0.8 0.3 -0.2
v 0.7 0.3 -0.2
v -0.4 0.3 -0.2
v -0.7 0.3 -0.2
v -0.8 0.3 -0.2
v 0.8 0.3 0.2
v 0.7 0.3 0.2
v -0.4 0.3 0.2
v -0.7 0.3 0.2
v -0.8 0.3 0.2
v 0.8 0.3 0.3
v 0.7 0.3 0.3
v -0.4 0.3 0.3
v -0.7 0.3 0.3
v -0.8 0.3 0.3
v 0.7 0.4 -0.3
v 0.6 0.4 -0.3
v -0.3 0.4 -0.3
v -0.4 0.4 -0.3
v 0.8 0.4 -0.2
v 0.7 0.4 -0.2
v 0.6 0.4 -0.2
v -0.3 0.4 -0.2
v -0.4 0.4 -0.2
v -0.8 0.4 -0.2
v 0.8 0.4 0.2
v 0.7 0.4 0.2
v 0.6 0.4 0.2
v -0.3 0.4 0.2
v -0.4 0.4 0.2
v -0.8 0.4 0.2
v 0.7 0.4 0.3
v 0.6 0.4 0.3
v -0.3 0.4 0.3
v -0.4 0.4 0.3
v 0.6 0.5 -0.3
v 0.5 0.5 -0.3
v 0.2 0.5 -0.3
v 0.1 0.5 -0.3
v -0.2 0.5 -0.3
v -0.3 0.5 -0.3
v 0.7 0.5 -0.2
v 0.6 0.5 -0.2
v 0.5 0.5 -0.2
v 0.2 0.5 -0.2
v 0.1 0.5 -0.2
v -0.2 0.5 -0.2
v -0.3 0.5 -0.2
v -0.4 0.5 -0.2
v 0.7 0.5 0.2
v 0.6 0.5 0.2
v 0.5 0.5 0.2
v 0.2 0.5 0.2
v 0.1 0.5 0.2
v -0.2 0.5 0.2
v -0.3 0.5 0.2
v -0.4 0.5 0.2
v 0.6 0.5 0.3
v 0.5 0.5 0.3
v 0.2 0.5 0.3
v 0.1 0.5 0.3
v -0.2 0.5 0.3
v -0.3 0.5 0.3
v 0.6 0.6 -0.2
v -0.3 0.6 -0.2
v 0.6 0.6 0.2
v -0.3 0.6 0.2

# faces
f 3/4/1 2/4/1 1/4/1
f 4/4/1 2/4/1 3/4/1
f 5/4/1 2/4/1 4/4/1
f 6/4/1 2/4/1 5/4/1
f 7/3/1 4/3/1 3/3/1
f 8/3/1 4/3/1 7/3/1
f 9/4/1 5/4/1 4/4/1
f 9/3/1 4/3/1 8/3/1
f 10/3/1 6/3/1 5/3/1
f 10/4/1 5/4/1 9/4/1
f 11/3/1 6/3/1 10/3/1
f 12/3/1 6/3/1 11/3/1
f 13/4/1 9/4/1 8/4/1
f 13/4/1 11/4/1 10/4/1
f 13/4/1 10/4/1 9/4/1
f 14/4/1 11/4/1 13/4/1
f 19/4/1 16/4/1 15/4/1
f 20/4/1 16/4/1 19/4/1
f 21/4/1 18/4/1 17/4/1
f 22/4/1 18/4/1 21/4/1
f 23/1/1 21/1/1 20/1/1
f 24/1/1 21/1/1 23/1/1
f 29/4/1 26/4/1 25/4/1
f 30/4/1 26/4/1 29/4/1
f 31/4/1 28/4/1 27/4/1
f 32/4/1 28/4/1 31/4/1
f 33/4/1 31/4/1 30/4/1
f 34/4/1 31/4/1 33/4/1
f 39/4/1 36/4/1 35/4/1
f 40/4/1 36/4/1 39/4/1
f 41/4/1 38/4/1 37/4/1
f 42/4/1 38/4/1 41/4/1
f 47/4/1 44/4/1 43/4/1
f 48/4/1 44/4/1 47/4/1
f 49/4/1 46/4/1 45/4/1
f 50/4/1 46/4/1 49/4/1
f 51/4/2 52/4/2 55/4/2
f 55/4/2 52/4/2 56/4/2
f 53/4/2 54/4/2 57/4/2
f 57/4/2 54/4/2 58/4/2
f 59/4/2 60/4/2 63/4/2
f 63/4/2 60/4/2 64/4/2
f 61/4/2 62/4/2 65/4/2
f 65/4/2 62/4/2 66/4/2
f 67/4/2 68/4/2 71/4/2
f 71/4/2 68/4/2 72/4/2
f 69/4/2 70/4/2 73/4/2
f 73/4/2 70/4/2 74/4/2
f 72/4/2 73/4/2 75/4/2
f 75/4/2 73/4/2 76/4/2
f 77/4/2 78/4/2 81/4/2
f 81/4/2 78/4/2 82/4/2
f 79/4/2 80/4/2 83/4/2
f 83/4/2 80/4/2 84/4/2
f 82/1/2 83/1/2 85/1/2
f 85/1/2 83/1/2 86/1/2
f 87/4/2 88/4/2 89/4/2
f 89/4/2 88/4/2 90/4/2
f 90/4/2 88/4/2 91/4/2
f 91/4/2 88/4/2 92/4/2
f 89/2/2 90/2/2 93/2/2
f 93/2/2 90/2/2 94/2/2
f 90/4/2 91/4/2 95/4/2
f 94/2/2 90/2/2 95/2/2
f 91/2/2 92/2/2 96/2/2
f 95/4/2 91/4/2 96/4/2
f 96/2/2 92/2/2 97/2/2
f 97/2/2 92/2/2 98/2/2
f 94/4/2 95/4/2 99/4/2
f 96/4/2 97/4/2 99/4/2
f 95/4/2 96/4/2 99/4/2
f 99/4/2 97/4/2 100/4/2
f 104/4/3 102/4/3 101/4/3
f 104/3/3 103/3/3 102/3/3
f 105/3/3 103/3/3 104/3/3
f 107/4/3 104/4/3 101/4/3
f 107/4/3 106/4/3 105/4/3
f 107/4/3 105/4/3 104/4/3
f 108/4/3 106/4/3 107/4/3
f 109/4/3 106/4/3 108/4/3
f 110/4/3 106/4/3 109/4/3
f 112/4/3 111/4/3 110/4/3
f 112/1/3 110/1/3 109/1/3
f 113/4/3 111/4/3 112/4/3
f 115/4/3 109/4/3 108/4/3
f 116/1/3 112/1/3 109/1/3
f 116/4/3 115/4/3 114/4/3
f 116/4/3 109/4/3 115/4/3
f 116/1/3 113/1/3 112/1/3
f 117/1/3 113/1/3 116/1/3
f 118/4/3 116/4/3 114/4/3
f 118/4/3 117/4/3 116/4/3
f 119/4/3 117/4/3 118/4/3
f 120/1/3 119/1/3 118/1/3
f 121/1/3 119/1/3 120/1/3
f 122/4/3 118/4/3 114/4/3
f 123/4/3 118/4/3 122/4/3
f 124/1/3 120/1/3 118/1/3
f 124/4/3 118/4/3 123/4/3
f 125/4/3 121/4/3 120/4/3
f 125/1/3 120/1/3 124/1/3
f 126/4/3 121/4/3 125/4/3
f 127/4/3 124/4/3 123/4/3
f 127/4/3 125/4/3 124/4/3
f 128/4/3 125/4/3 127/4/3
f 130/4/3 127/4/3 123/4/3
f 131/4/3 127/4/3 130/4/3
f 131/4/3 130/4/3 129/4/3
f 132/4/3 127/4/3 131/4/3
f 133/4/3 131/4/3 129/4/3
f 134/2/3 132/2/3 131/2/3
f 134/4/3 131/4/3 133/4/3
f 135/2/3 132/2/3 134/2/3
f 138/4/3 137/4/3 136/4/3
f 139/4/3 137/4/3 138/4/3
f 143/1/3 140/1/3 139/1/3
f 144/1/3 140/1/3 143/1/3
f 146/4/3 145/4/3 144/4/3
f 147/4/3 142/4/3 141/4/3
f 148/4/3 142/4/3 147/4/3
f 149/4/3 145/4/3 146/4/3
f 150/4/3 145/4/3 149/4/3
f 151/4/3 145/4/3 150/4/3
f 155/4/3 145/4/3 151/4/3
f 156/4/3 145/4/3 155/4/3
f 158/1/3 155/1/3 154/1/3
f 159/1/3 155/1/3 158/1/3
f 160/4/3 153/4/3 152/4/3
f 161/4/3 153/4/3 160/4/3
f 162/4/3 158/4/3 157/4/3
f 163/4/3 158/4/3 162/4/3
f 164/4/3 158/4/3 163/4/3
f 165/4/4 166/4/4 167/4/4
f 167/4/4 166/4/4 168/4/4
f 168/1/4 169/1/4 172/1/4
f 172/1/4 169/1/4 173/1/4
f 173/4/4 174/4/4 175/4/4
f 170/4/4 171/4/4 176/4/4
f 176/4/4 171/4/4 177/4/4
f 175/4/4 174/4/4 178/4/4
f 178/4/4 174/4/4 179/4/4
f 179/4/4 174/4/4 180/4/4
f 180/4/4 174/4/4 184/4/4
f 184/4/4 174/4/4 185/4/4
f 183/1/4 184/1/4 187/1/4
f 187/1/4 184/1/4 188/1/4
f 181/4/4 182/4/4 189/4/4
f 189/4/4 182/4/4 190/4/4
f 186/4/4 187/4/4 191/4/4
f 191/4/4 187/4/4 192/4/4
f 192/4/4 187/4/4 193/4/4
f 194/4/4 195/4/4 197/4/4
f 195/3/4 196/3/4 197/3/4
f 197/3/4 196/3/4 198/3/4
f 194/4/4 197/4/4 200/4/4
f 198/4/4 199/4/4 200/4/4
f 197/4/4 198/4/4 200/4/4
f 200/4/4 199/4/4 201/4/4
f 201/4/4 199/4/4 202/4/4
f 202/4/4 199/4/4 203/4/4
f 203/4/4 204/4/4 205/4/4
f 202/1/4 203/1/4 205/1/4
f 205/4/4 204/4/4 206/4/4
f 201/4/4 202/4/4 208/4/4
f 202/1/4 205/1/4 209/1/4
f 207/4/4 208/4/4 209/4/4
f 208/4/4 202/4/4 209/4/4
f 205/1/4 206/1/4 209/1/4
f 209/1/4 206/1/4 210/1/4
f 207/4/4 209/4/4 211/4/4
f 209/4/4 210/4/4 211/4/4
f 211/4/4 210/4/4 212/4/4
f 211/1/4 212/1/4 213/1/4
f 213/1/4 212/1/4 214/1/4
f 207/4/4 211/4/4 215/4/4
f 215/4/4 211/4/4 216/4/4
f 211/1/4 213/1/4 217/1/4
f 216/4/4 211/4/4 217/4/4
f 213/4/4 214/4/4 218/4/4
f 217/1/4 213/1/4 218/1/4
f 218/4/4 214/4/4 219/4/4
f 216/4/4 217/4/4 220/4/4
f 217/4/4 218/4/4 220/4/4
f 220/4/4 218/4/4 221/4/4
f 216/4/4 220/4/4 223/4/4
f 223/4/4 220/4/4 224/4/4
f 222/4/4 223/4/4 224/4/4
f 224/4/4 220/4/4 225/4/4
f 222/4/4 224/4/4 226/4/4
f 224/2/4 225/2/4 227/2/4
f 226/4/4 224/4/4 227/4/4
f 227/2/4 225/2/4 228/2/4
f 235/4/5 230/4/5 229/4/5
f 236/4/5 232/4/5 231/4/5
f 237/4/5 232/4/5 236/4/5
f 238/4/5 234/4/5 233/4/5
f 239/4/5 237/4/5 236/4/5
f 239/4/5 238/4/5 237/4/5
f 239/4/5 235/4/5 229/4/5
f 239/4/5 236/4/5 235/4/5
f 240/4/5 238/4/5 239/4/5
f 241/4/5 238/4/5 240/4/5
f 242/4/5 234/4/5 238/4/5
f 242/4/5 238/4/5 241/4/5
f 243/4/5 239/4/5 229/4/5
f 244/4/5 239/4/5 243/4/5
f 245/4/5 241/4/5 240/4/5
f 246/4/5 241/4/5 245/4/5
f 247/4/5 234/4/5 242/4/5
f 248/4/5 234/4/5 247/4/5
f 253/4/5 250/4/5 249/4/5
f 254/4/5 250/4/5 253/4/5
f 255/4/5 252/4/5 251/4/5
f 256/4/5 252/4/5 255/4/5
f 261/4/5 258/4/5 257/4/5
f 262/4/5 258/4/5 261/4/5
f 263/4/5 260/4/5 259/4/5
f 264/4/5 260/4/5 263/4/5
f 265/3/6 266/3/6 270/3/6
f 270/3/6 266/3/6 271/3/6
f 267/4/6 268/4/6 272/4/6
f 268/2/6 269/2/6 273/2/6
f 272/4/6 268/4/6 273/4/6
f 273/2/6 269/2/6 274/2/6
f 275/3/6 276/3/6 280/3/6
f 280/3/6 276/3/6 281/3/6
f 277/4/6 278/4/6 282/4/6
f 278/2/6 279/2/6 283/2/6
f 282/4/6 278/4/6 283/4/6
f 283/2/6 279/2/6 284/2/6
f 285/4/6 286/4/6 290/4/6
f 290/4/6 286/4/6 291/4/6
f 287/4/6 288/4/6 292/4/6
f 292/4/6 288/4/6 293/4/6
f 289/4/6 290/4/6 295/4/6
f 295/4/6 290/4/6 296/4/6
f 293/4/6 294/4/6 299/4/6
f 299/4/6 294/4/6 300/4/6
f 296/4/6 297/4/6 301/4/6
f 301/4/6 297/4/6 302/4/6
f 298/4/6 299/4/6 303/4/6
f 303/4/6 299/4/6 304/4/6
f 305/4/6 306/4/6 312/4/6
f 306/1/6 307/1/6 313/1/6
f 312/4/6 306/4/6 313/4/6
f 307/4/6 308/4/6 314/4/6
f 313/1/6 307/1/6 314/1/6
f 308/1/6 309/1/6 315/1/6
f 314/4/6 308/4/6 315/4/6
f 309/4/6 310/4/6 316/4/6
f 315/1/6 309/1/6 316/1/6
f 316/4/6 310/4/6 317/4/6
f 311/1/6 312/1/6 319/1/6
f 319/1/6 312/1/6 320/1/6
f 317/1/6 318/1/6 325/1/6
f 325/1/6 318/1/6 326/1/6
f 320/4/6 321/4/6 327/4/6
f 321/1/6 322/1/6 328/1/6
f 327/4/6 321/4/6 328/4/6
f 322/4/6 323/4/6 329/4/6
f 328/1/6 322/1/6 329/1/6
f 323/1/6 324/1/6 330/1/6
f 329/4/6 323/4/6 330/4/6
f 324/4/6 325/4/6 331/4/6
f 330/1/6 324/1/6 331/1/6
f 331/4/6 325/4/6 332/4/6
f 333/4/6 334/4/6 335/4/6
f 335/4/6 334/4/6 336/4/6
