# MagicaVoxel @ Ephtracy

# group
o 

# material
mtllib car-v5-grey.mtl
usemtl palette

# normals
vn 1 0 0
vn -1 0 0
vn 0 0 -1
vn 0 0 1
vn 0 -1 0
vn 0 1 0

# texcoords
vt 0.826172 0.5
vt 0.869141 0.5
vt 0.896484 0.5
vt 0.908203 0.5

# verts
v 0.8 0.1 -0.3
v 0.8 0.1 0.3
v 0.8 0.2 -0.3
v 0.8 0.2 -0.1
v 0.8 0.2 0.1
v 0.8 0.2 0.3
v 0.8 0.3 -0.3
v 0.8 0.3 -0.1
v 0.8 0.3 0.1
v 0.8 0.3 0.3
v 0.4 0.1 -0.3
v 0.4 0.1 -0.2
v 0.4 0.1 0.2
v 0.4 0.1 0.3
v 0.4 0.2 -0.3
v 0.4 0.2 -0.2
v 0.4 0.2 0.2
v 0.4 0.2 0.3
v 0.2 0.2 -0.2
v 0.2 0.2 0.2
v 0.2 0.3 -0.3
v 0.2 0.3 -0.2
v 0.2 0.3 0.2
v 0.2 0.3 0.3
v 0.2 0.5 -0.3
v 0.2 0.5 -0.2
v 0.2 0.5 0.2
v 0.2 0.5 0.3
v 0.2 0.6 -0.2
v 0.2 0.6 0.2
v -0.5 0.1 -0.3
v -0.5 0.1 -0.2
v -0.5 0.1 0.2
v -0.5 0.1 0.3
v -0.5 0.2 -0.3
v -0.5 0.2 -0.2
v -0.5 0.2 0.2
v -0.5 0.2 0.3
v 0.7 0.2 -0.2
v 0.7 0.2 -0.1
v 0.7 0.2 0.1
v 0.7 0.2 0.2
v 0.7 0.3 -0.2
v 0.7 0.3 -0.1
v 0.7 0.3 0.1
v 0.7 0.3 0.2
v 0.6 0.1 -0.3
v 0.6 0.1 -0.2
v 0.6 0.1 0.2
v 0.6 0.1 0.3
v 0.6 0.2 -0.3
v 0.6 0.2 -0.2
v 0.6 0.2 0.2
v 0.6 0.2 0.3
v -0.3 0.1 -0.3
v -0.3 0.1 -0.2
v -0.3 0.1 0.2
v -0.3 0.1 0.3
v -0.3 0.2 -0.3
v -0.3 0.2 -0.2
v -0.3 0.2 0.2
v -0.3 0.2 0.3
v -0.3 0.4 -0.3
v -0.3 0.4 -0.2
v -0.3 0.4 0.2
v -0.3 0.4 0.3
v -0.3 0.5 -0.3
v -0.3 0.5 -0.2
v -0.3 0.5 0.2
v -0.3 0.5 0.3
v -0.3 0.6 -0.2
v -0.3 0.6 0.2
v -0.4 0.3 -0.3
v -0.4 0.3 -0.2
v -0.4 0.3 0.2
v -0.4 0.3 0.3
v -0.4 0.4 -0.3
v -0.4 0.4 -0.2
v -0.4 0.4 0.2
v -0.4 0.4 0.3
v -0.4 0.5 -0.2
v -0.4 0.5 0.2
v -0.8 0.1 -0.3
v -0.8 0.1 0.3
v -0.8 0.2 -0.3
v -0.8 0.2 -0.1
v -0.8 0.2 0.1
v -0.8 0.2 0.3
v -0.8 0.3 -0.3
v -0.8 0.3 -0.2
v -0.8 0.3 -0.1
v -0.8 0.3 0.1
v -0.8 0.3 0.2
v -0.8 0.3 0.3
v -0.8 0.4 -0.2
v -0.8 0.4 0.2
v 0.8 0.1 -0.3
v 0.8 0.2 -0.3
v 0.8 0.3 -0.3
v 0.7 0.2 -0.3
v 0.7 0.3 -0.3
v 0.6 0.1 -0.3
v 0.6 0.2 -0.3
v 0.4 0.1 -0.3
v 0.4 0.2 -0.3
v 0.2 0.3 -0.3
v 0.2 0.5 -0.3
v 0.1 0.3 -0.3
v 0.1 0.5 -0.3
v -0.2 0.4 -0.3
v -0.2 0.5 -0.3
v -0.3 0.1 -0.3
v -0.3 0.2 -0.3
v -0.3 0.3 -0.3
v -0.3 0.4 -0.3
v -0.3 0.5 -0.3
v -0.4 0.3 -0.3
v -0.4 0.4 -0.3
v -0.5 0.1 -0.3
v -0.5 0.2 -0.3
v -0.7 0.2 -0.3
v -0.7 0.3 -0.3
v -0.8 0.1 -0.3
v -0.8 0.2 -0.3
v -0.8 0.3 -0.3
v 0.6 0.1 -0.2
v 0.6 0.2 -0.2
v 0.4 0.1 -0.2
v 0.4 0.2 -0.2
v 0.2 0.5 -0.2
v 0.2 0.6 -0.2
v 0.1 0.5 -0.2
v -0.2 0.5 -0.2
v -0.3 0.1 -0.2
v -0.3 0.2 -0.2
v -0.3 0.4 -0.2
v -0.3 0.5 -0.2
v -0.3 0.6 -0.2
v -0.4 0.3 -0.2
v -0.4 0.4 -0.2
v -0.4 0.5 -0.2
v -0.5 0.1 -0.2
v -0.5 0.2 -0.2
v -0.7 0.3 -0.2
v -0.8 0.3 -0.2
v -0.8 0.4 -0.2
v 0.7 0.2 0.2
v 0.7 0.3 0.2
v 0.2 0.2 0.2
v 0.2 0.3 0.2
v 0.7 0.2 -0.2
v 0.7 0.3 -0.2
v 0.2 0.2 -0.2
v 0.2 0.3 -0.2
v 0.6 0.1 0.2
v 0.6 0.2 0.2
v 0.4 0.1 0.2
v 0.4 0.2 0.2
v 0.2 0.5 0.2
v 0.2 0.6 0.2
v 0.1 0.5 0.2
v -0.2 0.5 0.2
v -0.3 0.1 0.2
v -0.3 0.2 0.2
v -0.3 0.4 0.2
v -0.3 0.5 0.2
v -0.3 0.6 0.2
v -0.4 0.3 0.2
v -0.4 0.4 0.2
v -0.4 0.5 0.2
v -0.5 0.1 0.2
v -0.5 0.2 0.2
v -0.7 0.3 0.2
v -0.8 0.3 0.2
v -0.8 0.4 0.2
v 0.8 0.1 0.3
v 0.8 0.2 0.3
v 0.8 0.3 0.3
v 0.7 0.2 0.3
v 0.7 0.3 0.3
v 0.6 0.1 0.3
v 0.6 0.2 0.3
v 0.4 0.1 0.3
v 0.4 0.2 0.3
v 0.2 0.3 0.3
v 0.2 0.5 0.3
v 0.1 0.3 0.3
v 0.1 0.5 0.3
v -0.2 0.4 0.3
v -0.2 0.5 0.3
v -0.3 0.1 0.3
v -0.3 0.2 0.3
v -0.3 0.3 0.3
v -0.3 0.4 0.3
v -0.3 0.5 0.3
v -0.4 0.3 0.3
v -0.4 0.4 0.3
v -0.5 0.1 0.3
v -0.5 0.2 0.3
v -0.7 0.2 0.3
v -0.7 0.3 0.3
v -0.8 0.1 0.3
v -0.8 0.2 0.3
v -0.8 0.3 0.3
v 0.8 0.1 -0.3
v 0.6 0.1 -0.3
v 0.4 0.1 -0.3
v -0.3 0.1 -0.3
v -0.5 0.1 -0.3
v -0.8 0.1 -0.3
v 0.6 0.1 -0.2
v 0.4 0.1 -0.2
v -0.3 0.1 -0.2
v -0.5 0.1 -0.2
v 0.6 0.1 0.2
v 0.4 0.1 0.2
v -0.3 0.1 0.2
v -0.5 0.1 0.2
v 0.8 0.1 0.3
v 0.6 0.1 0.3
v 0.4 0.1 0.3
v -0.3 0.1 0.3
v -0.5 0.1 0.3
v -0.8 0.1 0.3
v 0.6 0.2 -0.3
v 0.4 0.2 -0.3
v -0.3 0.2 -0.3
v -0.5 0.2 -0.3
v 0.6 0.2 -0.2
v 0.4 0.2 -0.2
v -0.3 0.2 -0.2
v -0.5 0.2 -0.2
v 0.6 0.2 0.2
v 0.4 0.2 0.2
v -0.3 0.2 0.2
v -0.5 0.2 0.2
v 0.6 0.2 0.3
v 0.4 0.2 0.3
v -0.3 0.2 0.3
v -0.5 0.2 0.3
v 0.7 0.2 -0.2
v 0.2 0.2 -0.2
v 0.7 0.2 -0.1
v 0.7 0.2 0.1
v 0.7 0.2 0.2
v 0.2 0.2 0.2
v 0.8 0.3 -0.3
v 0.7 0.3 -0.3
v 0.2 0.3 -0.3
v -0.4 0.3 -0.3
v -0.7 0.3 -0.3
v -0.8 0.3 -0.3
v 0.7 0.3 -0.2
v 0.2 0.3 -0.2
v -0.4 0.3 -0.2
v -0.7 0.3 -0.2
v -0.8 0.3 -0.2
v 0.8 0.3 -0.1
v 0.7 0.3 -0.1
v 0.8 0.3 0.1
v 0.7 0.3 0.1
v 0.7 0.3 0.2
v 0.2 0.3 0.2
v -0.4 0.3 0.2
v -0.7 0.3 0.2
v -0.8 0.3 0.2
v 0.8 0.3 0.3
v 0.7 0.3 0.3
v 0.2 0.3 0.3
v -0.4 0.3 0.3
v -0.7 0.3 0.3
v -0.8 0.3 0.3
v -0.3 0.4 -0.3
v -0.4 0.4 -0.3
v -0.3 0.4 -0.2
v -0.4 0.4 -0.2
v -0.8 0.4 -0.2
v -0.3 0.4 0.2
v -0.4 0.4 0.2
v -0.8 0.4 0.2
v -0.3 0.4 0.3
v -0.4 0.4 0.3
v 0.2 0.5 -0.3
v 0.1 0.5 -0.3
v -0.2 0.5 -0.3
v -0.3 0.5 -0.3
v 0.2 0.5 -0.2
v 0.1 0.5 -0.2
v -0.2 0.5 -0.2
v -0.3 0.5 -0.2
v -0.4 0.5 -0.2
v 0.2 0.5 0.2
v 0.1 0.5 0.2
v -0.2 0.5 0.2
v -0.3 0.5 0.2
v -0.4 0.5 0.2
v 0.2 0.5 0.3
v 0.1 0.5 0.3
v -0.2 0.5 0.3
v -0.3 0.5 0.3
v 0.2 0.6 -0.2
v -0.3 0.6 -0.2
v 0.2 0.6 0.2
v -0.3 0.6 0.2

# faces
f 3/2/1 2/2/1 1/2/1
f 4/2/1 2/2/1 3/2/1
f 5/2/1 2/2/1 4/2/1
f 6/2/1 2/2/1 5/2/1
f 7/4/1 4/4/1 3/4/1
f 8/2/1 5/2/1 4/2/1
f 8/4/1 4/4/1 7/4/1
f 9/4/1 6/4/1 5/4/1
f 9/2/1 5/2/1 8/2/1
f 10/4/1 6/4/1 9/4/1
f 15/2/1 12/2/1 11/2/1
f 16/2/1 12/2/1 15/2/1
f 17/2/1 14/2/1 13/2/1
f 18/2/1 14/2/1 17/2/1
f 22/2/1 20/2/1 19/2/1
f 23/2/1 20/2/1 22/2/1
f 25/2/1 22/2/1 21/2/1
f 26/1/1 23/1/1 22/1/1
f 26/2/1 22/2/1 25/2/1
f 27/2/1 24/2/1 23/2/1
f 27/1/1 23/1/1 26/1/1
f 28/2/1 24/2/1 27/2/1
f 29/2/1 27/2/1 26/2/1
f 30/2/1 27/2/1 29/2/1
f 35/2/1 32/2/1 31/2/1
f 36/2/1 32/2/1 35/2/1
f 37/2/1 34/2/1 33/2/1
f 38/2/1 34/2/1 37/2/1
f 39/4/2 40/4/2 43/4/2
f 40/2/2 41/2/2 44/2/2
f 43/4/2 40/4/2 44/4/2
f 41/4/2 42/4/2 45/4/2
f 44/2/2 41/2/2 45/2/2
f 45/4/2 42/4/2 46/4/2
f 47/2/2 48/2/2 51/2/2
f 51/2/2 48/2/2 52/2/2
f 49/2/2 50/2/2 53/2/2
f 53/2/2 50/2/2 54/2/2
f 55/2/2 56/2/2 59/2/2
f 59/2/2 56/2/2 60/2/2
f 57/2/2 58/2/2 61/2/2
f 61/2/2 58/2/2 62/2/2
f 63/2/2 64/2/2 67/2/2
f 67/2/2 64/2/2 68/2/2
f 65/2/2 66/2/2 69/2/2
f 69/2/2 66/2/2 70/2/2
f 68/2/2 69/2/2 71/2/2
f 71/2/2 69/2/2 72/2/2
f 73/2/2 74/2/2 77/2/2
f 77/2/2 74/2/2 78/2/2
f 75/2/2 76/2/2 79/2/2
f 79/2/2 76/2/2 80/2/2
f 78/1/2 79/1/2 81/1/2
f 81/1/2 79/1/2 82/1/2
f 83/2/2 84/2/2 85/2/2
f 85/2/2 84/2/2 86/2/2
f 86/2/2 84/2/2 87/2/2
f 87/2/2 84/2/2 88/2/2
f 85/3/2 86/3/2 89/3/2
f 89/3/2 86/3/2 90/3/2
f 86/2/2 87/2/2 91/2/2
f 90/3/2 86/3/2 91/3/2
f 87/3/2 88/3/2 92/3/2
f 91/2/2 87/2/2 92/2/2
f 92/3/2 88/3/2 93/3/2
f 93/3/2 88/3/2 94/3/2
f 90/2/2 91/2/2 95/2/2
f 92/2/2 93/2/2 95/2/2
f 91/2/2 92/2/2 95/2/2
f 95/2/2 93/2/2 96/2/2
f 100/2/3 98/2/3 97/2/3
f 100/4/3 99/4/3 98/4/3
f 101/4/3 99/4/3 100/4/3
f 102/2/3 100/2/3 97/2/3
f 102/2/3 101/2/3 100/2/3
f 103/2/3 101/2/3 102/2/3
f 105/2/3 101/2/3 103/2/3
f 106/2/3 101/2/3 105/2/3
f 106/2/3 105/2/3 104/2/3
f 108/2/3 106/2/3 104/2/3
f 108/2/3 107/2/3 106/2/3
f 109/2/3 107/2/3 108/2/3
f 110/1/3 109/1/3 108/1/3
f 111/1/3 109/1/3 110/1/3
f 112/2/3 108/2/3 104/2/3
f 113/2/3 108/2/3 112/2/3
f 114/1/3 110/1/3 108/1/3
f 114/2/3 108/2/3 113/2/3
f 115/2/3 111/2/3 110/2/3
f 115/1/3 110/1/3 114/1/3
f 116/2/3 111/2/3 115/2/3
f 117/2/3 114/2/3 113/2/3
f 117/2/3 115/2/3 114/2/3
f 118/2/3 115/2/3 117/2/3
f 120/2/3 117/2/3 113/2/3
f 121/2/3 117/2/3 120/2/3
f 121/2/3 120/2/3 119/2/3
f 122/2/3 117/2/3 121/2/3
f 123/2/3 121/2/3 119/2/3
f 124/3/3 122/3/3 121/3/3
f 124/2/3 121/2/3 123/2/3
f 125/3/3 122/3/3 124/3/3
f 128/2/3 127/2/3 126/2/3
f 129/2/3 127/2/3 128/2/3
f 132/2/3 131/2/3 130/2/3
f 133/2/3 131/2/3 132/2/3
f 137/2/3 131/2/3 133/2/3
f 138/2/3 131/2/3 137/2/3
f 140/1/3 137/1/3 136/1/3
f 141/1/3 137/1/3 140/1/3
f 142/2/3 135/2/3 134/2/3
f 143/2/3 135/2/3 142/2/3
f 144/2/3 140/2/3 139/2/3
f 145/2/3 140/2/3 144/2/3
f 146/2/3 140/2/3 145/2/3
f 149/2/3 148/2/3 147/2/3
f 150/2/3 148/2/3 149/2/3
f 151/2/4 152/2/4 153/2/4
f 153/2/4 152/2/4 154/2/4
f 155/2/4 156/2/4 157/2/4
f 157/2/4 156/2/4 158/2/4
f 159/2/4 160/2/4 161/2/4
f 161/2/4 160/2/4 162/2/4
f 162/2/4 160/2/4 166/2/4
f 166/2/4 160/2/4 167/2/4
f 165/1/4 166/1/4 169/1/4
f 169/1/4 166/1/4 170/1/4
f 163/2/4 164/2/4 171/2/4
f 171/2/4 164/2/4 172/2/4
f 168/2/4 169/2/4 173/2/4
f 173/2/4 169/2/4 174/2/4
f 174/2/4 169/2/4 175/2/4
f 176/2/4 177/2/4 179/2/4
f 177/4/4 178/4/4 179/4/4
f 179/4/4 178/4/4 180/4/4
f 176/2/4 179/2/4 181/2/4
f 179/2/4 180/2/4 181/2/4
f 181/2/4 180/2/4 182/2/4
f 182/2/4 180/2/4 184/2/4
f 184/2/4 180/2/4 185/2/4
f 183/2/4 184/2/4 185/2/4
f 183/2/4 185/2/4 187/2/4
f 185/2/4 186/2/4 187/2/4
f 187/2/4 186/2/4 188/2/4
f 187/1/4 188/1/4 189/1/4
f 189/1/4 188/1/4 190/1/4
f 183/2/4 187/2/4 191/2/4
f 191/2/4 187/2/4 192/2/4
f 187/1/4 189/1/4 193/1/4
f 192/2/4 187/2/4 193/2/4
f 189/2/4 190/2/4 194/2/4
f 193/1/4 189/1/4 194/1/4
f 194/2/4 190/2/4 195/2/4
f 192/2/4 193/2/4 196/2/4
f 193/2/4 194/2/4 196/2/4
f 196/2/4 194/2/4 197/2/4
f 192/2/4 196/2/4 199/2/4
f 199/2/4 196/2/4 200/2/4
f 198/2/4 199/2/4 200/2/4
f 200/2/4 196/2/4 201/2/4
f 198/2/4 200/2/4 202/2/4
f 200/3/4 201/3/4 203/3/4
f 202/2/4 200/2/4 203/2/4
f 203/3/4 201/3/4 204/3/4
f 211/2/5 206/2/5 205/2/5
f 212/2/5 208/2/5 207/2/5
f 213/2/5 208/2/5 212/2/5
f 214/2/5 210/2/5 209/2/5
f 215/2/5 213/2/5 212/2/5
f 215/2/5 214/2/5 213/2/5
f 215/2/5 211/2/5 205/2/5
f 215/2/5 212/2/5 211/2/5
f 216/2/5 214/2/5 215/2/5
f 217/2/5 214/2/5 216/2/5
f 218/2/5 210/2/5 214/2/5
f 218/2/5 214/2/5 217/2/5
f 219/2/5 215/2/5 205/2/5
f 220/2/5 215/2/5 219/2/5
f 221/2/5 217/2/5 216/2/5
f 222/2/5 217/2/5 221/2/5
f 223/2/5 210/2/5 218/2/5
f 224/2/5 210/2/5 223/2/5
f 229/2/5 226/2/5 225/2/5
f 230/2/5 226/2/5 229/2/5
f 231/2/5 228/2/5 227/2/5
f 232/2/5 228/2/5 231/2/5
f 237/2/5 234/2/5 233/2/5
f 238/2/5 234/2/5 237/2/5
f 239/2/5 236/2/5 235/2/5
f 240/2/5 236/2/5 239/2/5
f 241/2/6 242/2/6 243/2/6
f 243/2/6 242/2/6 244/2/6
f 244/2/6 242/2/6 245/2/6
f 245/2/6 242/2/6 246/2/6
f 247/4/6 248/4/6 253/4/6
f 248/2/6 249/2/6 253/2/6
f 253/2/6 249/2/6 254/2/6
f 250/2/6 251/2/6 255/2/6
f 251/3/6 252/3/6 256/3/6
f 255/2/6 251/2/6 256/2/6
f 256/3/6 252/3/6 257/3/6
f 247/4/6 253/4/6 258/4/6
f 258/4/6 253/4/6 259/4/6
f 258/2/6 259/2/6 260/2/6
f 260/2/6 259/2/6 261/2/6
f 260/4/6 261/4/6 262/4/6
f 260/4/6 262/4/6 267/4/6
f 262/2/6 263/2/6 268/2/6
f 267/4/6 262/4/6 268/4/6
f 268/2/6 263/2/6 269/2/6
f 264/2/6 265/2/6 270/2/6
f 265/3/6 266/3/6 271/3/6
f 270/2/6 265/2/6 271/2/6
f 271/3/6 266/3/6 272/3/6
f 273/2/6 274/2/6 275/2/6
f 275/2/6 274/2/6 276/2/6
f 276/2/6 277/2/6 279/2/6
f 279/2/6 277/2/6 280/2/6
f 278/2/6 279/2/6 281/2/6
f 281/2/6 279/2/6 282/2/6
f 283/2/6 284/2/6 287/2/6
f 284/1/6 285/1/6 288/1/6
f 287/2/6 284/2/6 288/2/6
f 285/2/6 286/2/6 289/2/6
f 288/1/6 285/1/6 289/1/6
f 289/2/6 286/2/6 290/2/6
f 290/1/6 291/1/6 295/1/6
f 295/1/6 291/1/6 296/1/6
f 292/2/6 293/2/6 297/2/6
f 293/1/6 294/1/6 298/1/6
f 297/2/6 293/2/6 298/2/6
f 294/2/6 295/2/6 299/2/6
f 298/1/6 294/1/6 299/1/6
f 299/2/6 295/2/6 300/2/6
f 301/2/6 302/2/6 303/2/6
f 303/2/6 302/2/6 304/2/6
