# MagicaVoxel @ Ephtracy

# group
o 

# material
mtllib car-v1-grey.mtl
usemtl palette

# normals
vn 1 0 0
vn -1 0 0
vn 0 0 -1
vn 0 0 1
vn 0 -1 0
vn 0 1 0

# texcoords
vt 0.826172 0.5
vt 0.869141 0.5
vt 0.896484 0.5
vt 0.908203 0.5

# verts
v 0.7 0.1 -0.3
v 0.7 0.1 0.3
v 0.7 0.2 -0.3
v 0.7 0.2 -0.1
v 0.7 0.2 0.1
v 0.7 0.2 0.3
v 0.7 0.3 -0.3
v 0.7 0.3 -0.2
v 0.7 0.3 -0.1
v 0.7 0.3 0.1
v 0.7 0.3 0.2
v 0.7 0.3 0.3
v 0.7 0.4 -0.2
v 0.7 0.4 0.2
v 0.6 0.3 -0.3
v 0.6 0.3 -0.2
v 0.6 0.3 0.2
v 0.6 0.3 0.3
v 0.6 0.4 -0.3
v 0.6 0.4 -0.2
v 0.6 0.4 0.2
v 0.6 0.4 0.3
v 0.6 0.5 -0.2
v 0.6 0.5 0.2
v 0.5 0.4 -0.3
v 0.5 0.4 -0.2
v 0.5 0.4 0.2
v 0.5 0.4 0.3
v 0.5 0.5 -0.3
v 0.5 0.5 -0.2
v 0.5 0.5 0.2
v 0.5 0.5 0.3
v 0.5 0.6 -0.2
v 0.5 0.6 0.2
v 0.3 0.1 -0.3
v 0.3 0.1 -0.2
v 0.3 0.1 0.2
v 0.3 0.1 0.3
v 0.3 0.2 -0.3
v 0.3 0.2 -0.2
v 0.3 0.2 0.2
v 0.3 0.2 0.3
v -0.4 0.1 -0.3
v -0.4 0.1 -0.2
v -0.4 0.1 0.2
v -0.4 0.1 0.3
v -0.4 0.2 -0.3
v -0.4 0.2 -0.2
v -0.4 0.2 0.2
v -0.4 0.2 0.3
v 0.5 0.1 -0.3
v 0.5 0.1 -0.2
v 0.5 0.1 0.2
v 0.5 0.1 0.3
v 0.5 0.2 -0.3
v 0.5 0.2 -0.2
v 0.5 0.2 0.2
v 0.5 0.2 0.3
v -0.2 0.1 -0.3
v -0.2 0.1 -0.2
v -0.2 0.1 0.2
v -0.2 0.1 0.3
v -0.2 0.2 -0.3
v -0.2 0.2 -0.2
v -0.2 0.2 0.2
v -0.2 0.2 0.3
v -0.2 0.4 -0.3
v -0.2 0.4 -0.2
v -0.2 0.4 0.2
v -0.2 0.4 0.3
v -0.2 0.5 -0.3
v -0.2 0.5 -0.2
v -0.2 0.5 0.2
v -0.2 0.5 0.3
v -0.2 0.6 -0.2
v -0.2 0.6 0.2
v -0.3 0.3 -0.3
v -0.3 0.3 -0.2
v -0.3 0.3 0.2
v -0.3 0.3 0.3
v -0.3 0.4 -0.3
v -0.3 0.4 -0.2
v -0.3 0.4 0.2
v -0.3 0.4 0.3
v -0.3 0.5 -0.2
v -0.3 0.5 0.2
v -0.7 0.1 -0.3
v -0.7 0.1 0.3
v -0.7 0.2 -0.3
v -0.7 0.2 -0.1
v -0.7 0.2 0.1
v -0.7 0.2 0.3
v -0.7 0.3 -0.3
v -0.7 0.3 -0.2
v -0.7 0.3 -0.1
v -0.7 0.3 0.1
v -0.7 0.3 0.2
v -0.7 0.3 0.3
v -0.7 0.4 -0.2
v -0.7 0.4 0.2
v 0.7 0.1 -0.3
v 0.7 0.2 -0.3
v 0.7 0.3 -0.3
v 0.6 0.2 -0.3
v 0.6 0.3 -0.3
v 0.6 0.4 -0.3
v 0.5 0.1 -0.3
v 0.5 0.2 -0.3
v 0.5 0.3 -0.3
v 0.5 0.4 -0.3
v 0.5 0.5 -0.3
v 0.4 0.4 -0.3
v 0.4 0.5 -0.3
v 0.3 0.1 -0.3
v 0.3 0.2 -0.3
v -0.1 0.4 -0.3
v -0.1 0.5 -0.3
v -0.2 0.1 -0.3
v -0.2 0.2 -0.3
v -0.2 0.3 -0.3
v -0.2 0.4 -0.3
v -0.2 0.5 -0.3
v -0.3 0.3 -0.3
v -0.3 0.4 -0.3
v -0.4 0.1 -0.3
v -0.4 0.2 -0.3
v -0.6 0.2 -0.3
v -0.6 0.3 -0.3
v -0.7 0.1 -0.3
v -0.7 0.2 -0.3
v -0.7 0.3 -0.3
v 0.7 0.3 -0.2
v 0.7 0.4 -0.2
v 0.6 0.3 -0.2
v 0.6 0.4 -0.2
v 0.6 0.5 -0.2
v 0.5 0.1 -0.2
v 0.5 0.2 -0.2
v 0.5 0.4 -0.2
v 0.5 0.5 -0.2
v 0.5 0.6 -0.2
v 0.4 0.5 -0.2
v 0.3 0.1 -0.2
v 0.3 0.2 -0.2
v -0.1 0.5 -0.2
v -0.2 0.1 -0.2
v -0.2 0.2 -0.2
v -0.2 0.4 -0.2
v -0.2 0.5 -0.2
v -0.2 0.6 -0.2
v -0.3 0.3 -0.2
v -0.3 0.4 -0.2
v -0.3 0.5 -0.2
v -0.4 0.1 -0.2
v -0.4 0.2 -0.2
v -0.6 0.3 -0.2
v -0.7 0.3 -0.2
v -0.7 0.4 -0.2
v 0.7 0.3 0.2
v 0.7 0.4 0.2
v 0.6 0.3 0.2
v 0.6 0.4 0.2
v 0.6 0.5 0.2
v 0.5 0.1 0.2
v 0.5 0.2 0.2
v 0.5 0.4 0.2
v 0.5 0.5 0.2
v 0.5 0.6 0.2
v 0.4 0.5 0.2
v 0.3 0.1 0.2
v 0.3 0.2 0.2
v -0.1 0.5 0.2
v -0.2 0.1 0.2
v -0.2 0.2 0.2
v -0.2 0.4 0.2
v -0.2 0.5 0.2
v -0.2 0.6 0.2
v -0.3 0.3 0.2
v -0.3 0.4 0.2
v -0.3 0.5 0.2
v -0.4 0.1 0.2
v -0.4 0.2 0.2
v -0.6 0.3 0.2
v -0.7 0.3 0.2
v -0.7 0.4 0.2
v 0.7 0.1 0.3
v 0.7 0.2 0.3
v 0.7 0.3 0.3
v 0.6 0.2 0.3
v 0.6 0.3 0.3
v 0.6 0.4 0.3
v 0.5 0.1 0.3
v 0.5 0.2 0.3
v 0.5 0.3 0.3
v 0.5 0.4 0.3
v 0.5 0.5 0.3
v 0.4 0.4 0.3
v 0.4 0.5 0.3
v 0.3 0.1 0.3
v 0.3 0.2 0.3
v -0.1 0.4 0.3
v -0.1 0.5 0.3
v -0.2 0.1 0.3
v -0.2 0.2 0.3
v -0.2 0.3 0.3
v -0.2 0.4 0.3
v -0.2 0.5 0.3
v -0.3 0.3 0.3
v -0.3 0.4 0.3
v -0.4 0.1 0.3
v -0.4 0.2 0.3
v -0.6 0.2 0.3
v -0.6 0.3 0.3
v -0.7 0.1 0.3
v -0.7 0.2 0.3
v -0.7 0.3 0.3
v 0.7 0.1 -0.3
v 0.5 0.1 -0.3
v 0.3 0.1 -0.3
v -0.2 0.1 -0.3
v -0.4 0.1 -0.3
v -0.7 0.1 -0.3
v 0.5 0.1 -0.2
v 0.3 0.1 -0.2
v -0.2 0.1 -0.2
v -0.4 0.1 -0.2
v 0.5 0.1 0.2
v 0.3 0.1 0.2
v -0.2 0.1 0.2
v -0.4 0.1 0.2
v 0.7 0.1 0.3
v 0.5 0.1 0.3
v 0.3 0.1 0.3
v -0.2 0.1 0.3
v -0.4 0.1 0.3
v -0.7 0.1 0.3
v 0.5 0.2 -0.3
v 0.3 0.2 -0.3
v -0.2 0.2 -0.3
v -0.4 0.2 -0.3
v 0.5 0.2 -0.2
v 0.3 0.2 -0.2
v -0.2 0.2 -0.2
v -0.4 0.2 -0.2
v 0.5 0.2 0.2
v 0.3 0.2 0.2
v -0.2 0.2 0.2
v -0.4 0.2 0.2
v 0.5 0.2 0.3
v 0.3 0.2 0.3
v -0.2 0.2 0.3
v -0.4 0.2 0.3
v 0.7 0.3 -0.3
v 0.6 0.3 -0.3
v -0.3 0.3 -0.3
v -0.6 0.3 -0.3
v -0.7 0.3 -0.3
v 0.7 0.3 -0.2
v 0.6 0.3 -0.2
v -0.3 0.3 -0.2
v -0.6 0.3 -0.2
v -0.7 0.3 -0.2
v 0.7 0.3 0.2
v 0.6 0.3 0.2
v -0.3 0.3 0.2
v -0.6 0.3 0.2
v -0.7 0.3 0.2
v 0.7 0.3 0.3
v 0.6 0.3 0.3
v -0.3 0.3 0.3
v -0.6 0.3 0.3
v -0.7 0.3 0.3
v 0.6 0.4 -0.3
v 0.5 0.4 -0.3
v -0.2 0.4 -0.3
v -0.3 0.4 -0.3
v 0.7 0.4 -0.2
v 0.6 0.4 -0.2
v 0.5 0.4 -0.2
v -0.2 0.4 -0.2
v -0.3 0.4 -0.2
v -0.7 0.4 -0.2
v 0.7 0.4 0.2
v 0.6 0.4 0.2
v 0.5 0.4 0.2
v -0.2 0.4 0.2
v -0.3 0.4 0.2
v -0.7 0.4 0.2
v 0.6 0.4 0.3
v 0.5 0.4 0.3
v -0.2 0.4 0.3
v -0.3 0.4 0.3
v 0.5 0.5 -0.3
v 0.4 0.5 -0.3
v -0.1 0.5 -0.3
v -0.2 0.5 -0.3
v 0.6 0.5 -0.2
v 0.5 0.5 -0.2
v 0.4 0.5 -0.2
v -0.1 0.5 -0.2
v -0.2 0.5 -0.2
v -0.3 0.5 -0.2
v 0.6 0.5 0.2
v 0.5 0.5 0.2
v 0.4 0.5 0.2
v -0.1 0.5 0.2
v -0.2 0.5 0.2
v -0.3 0.5 0.2
v 0.5 0.5 0.3
v 0.4 0.5 0.3
v -0.1 0.5 0.3
v -0.2 0.5 0.3
v 0.5 0.6 -0.2
v -0.2 0.6 -0.2
v 0.5 0.6 0.2
v -0.2 0.6 0.2

# faces
f 3/2/1 2/2/1 1/2/1
f 4/2/1 2/2/1 3/2/1
f 5/2/1 2/2/1 4/2/1
f 6/2/1 2/2/1 5/2/1
f 7/4/1 4/4/1 3/4/1
f 8/4/1 4/4/1 7/4/1
f 9/2/1 5/2/1 4/2/1
f 9/4/1 4/4/1 8/4/1
f 10/4/1 6/4/1 5/4/1
f 10/2/1 5/2/1 9/2/1
f 11/4/1 6/4/1 10/4/1
f 12/4/1 6/4/1 11/4/1
f 13/2/1 9/2/1 8/2/1
f 13/2/1 11/2/1 10/2/1
f 13/2/1 10/2/1 9/2/1
f 14/2/1 11/2/1 13/2/1
f 19/2/1 16/2/1 15/2/1
f 20/2/1 16/2/1 19/2/1
f 21/2/1 18/2/1 17/2/1
f 22/2/1 18/2/1 21/2/1
f 23/1/1 21/1/1 20/1/1
f 24/1/1 21/1/1 23/1/1
f 29/2/1 26/2/1 25/2/1
f 30/2/1 26/2/1 29/2/1
f 31/2/1 28/2/1 27/2/1
f 32/2/1 28/2/1 31/2/1
f 33/2/1 31/2/1 30/2/1
f 34/2/1 31/2/1 33/2/1
f 39/2/1 36/2/1 35/2/1
f 40/2/1 36/2/1 39/2/1
f 41/2/1 38/2/1 37/2/1
f 42/2/1 38/2/1 41/2/1
f 47/2/1 44/2/1 43/2/1
f 48/2/1 44/2/1 47/2/1
f 49/2/1 46/2/1 45/2/1
f 50/2/1 46/2/1 49/2/1
f 51/2/2 52/2/2 55/2/2
f 55/2/2 52/2/2 56/2/2
f 53/2/2 54/2/2 57/2/2
f 57/2/2 54/2/2 58/2/2
f 59/2/2 60/2/2 63/2/2
f 63/2/2 60/2/2 64/2/2
f 61/2/2 62/2/2 65/2/2
f 65/2/2 62/2/2 66/2/2
f 67/2/2 68/2/2 71/2/2
f 71/2/2 68/2/2 72/2/2
f 69/2/2 70/2/2 73/2/2
f 73/2/2 70/2/2 74/2/2
f 72/2/2 73/2/2 75/2/2
f 75/2/2 73/2/2 76/2/2
f 77/2/2 78/2/2 81/2/2
f 81/2/2 78/2/2 82/2/2
f 79/2/2 80/2/2 83/2/2
f 83/2/2 80/2/2 84/2/2
f 82/1/2 83/1/2 85/1/2
f 85/1/2 83/1/2 86/1/2
f 87/2/2 88/2/2 89/2/2
f 89/2/2 88/2/2 90/2/2
f 90/2/2 88/2/2 91/2/2
f 91/2/2 88/2/2 92/2/2
f 89/3/2 90/3/2 93/3/2
f 93/3/2 90/3/2 94/3/2
f 90/2/2 91/2/2 95/2/2
f 94/3/2 90/3/2 95/3/2
f 91/3/2 92/3/2 96/3/2
f 95/2/2 91/2/2 96/2/2
f 96/3/2 92/3/2 97/3/2
f 97/3/2 92/3/2 98/3/2
f 94/2/2 95/2/2 99/2/2
f 96/2/2 97/2/2 99/2/2
f 95/2/2 96/2/2 99/2/2
f 99/2/2 97/2/2 100/2/2
f 104/2/3 102/2/3 101/2/3
f 104/4/3 103/4/3 102/4/3
f 105/4/3 103/4/3 104/4/3
f 107/2/3 104/2/3 101/2/3
f 107/2/3 106/2/3 105/2/3
f 107/2/3 105/2/3 104/2/3
f 108/2/3 106/2/3 107/2/3
f 109/2/3 106/2/3 108/2/3
f 110/2/3 106/2/3 109/2/3
f 112/2/3 111/2/3 110/2/3
f 112/1/3 110/1/3 109/1/3
f 113/2/3 111/2/3 112/2/3
f 115/2/3 109/2/3 108/2/3
f 116/1/3 112/1/3 109/1/3
f 116/1/3 113/1/3 112/1/3
f 117/1/3 113/1/3 116/1/3
f 118/2/3 115/2/3 114/2/3
f 119/2/3 109/2/3 115/2/3
f 119/2/3 115/2/3 118/2/3
f 120/1/3 116/1/3 109/1/3
f 120/2/3 109/2/3 119/2/3
f 121/2/3 117/2/3 116/2/3
f 121/1/3 116/1/3 120/1/3
f 122/2/3 117/2/3 121/2/3
f 123/2/3 120/2/3 119/2/3
f 123/2/3 121/2/3 120/2/3
f 124/2/3 121/2/3 123/2/3
f 126/2/3 123/2/3 119/2/3
f 127/2/3 123/2/3 126/2/3
f 127/2/3 126/2/3 125/2/3
f 128/2/3 123/2/3 127/2/3
f 129/2/3 127/2/3 125/2/3
f 130/3/3 128/3/3 127/3/3
f 130/2/3 127/2/3 129/2/3
f 131/3/3 128/3/3 130/3/3
f 134/2/3 133/2/3 132/2/3
f 135/2/3 133/2/3 134/2/3
f 139/1/3 136/1/3 135/1/3
f 140/1/3 136/1/3 139/1/3
f 142/2/3 141/2/3 140/2/3
f 143/2/3 138/2/3 137/2/3
f 144/2/3 138/2/3 143/2/3
f 145/2/3 141/2/3 142/2/3
f 149/2/3 141/2/3 145/2/3
f 150/2/3 141/2/3 149/2/3
f 152/1/3 149/1/3 148/1/3
f 153/1/3 149/1/3 152/1/3
f 154/2/3 147/2/3 146/2/3
f 155/2/3 147/2/3 154/2/3
f 156/2/3 152/2/3 151/2/3
f 157/2/3 152/2/3 156/2/3
f 158/2/3 152/2/3 157/2/3
f 159/2/4 160/2/4 161/2/4
f 161/2/4 160/2/4 162/2/4
f 162/1/4 163/1/4 166/1/4
f 166/1/4 163/1/4 167/1/4
f 167/2/4 168/2/4 169/2/4
f 164/2/4 165/2/4 170/2/4
f 170/2/4 165/2/4 171/2/4
f 169/2/4 168/2/4 172/2/4
f 172/2/4 168/2/4 176/2/4
f 176/2/4 168/2/4 177/2/4
f 175/1/4 176/1/4 179/1/4
f 179/1/4 176/1/4 180/1/4
f 173/2/4 174/2/4 181/2/4
f 181/2/4 174/2/4 182/2/4
f 178/2/4 179/2/4 183/2/4
f 183/2/4 179/2/4 184/2/4
f 184/2/4 179/2/4 185/2/4
f 186/2/4 187/2/4 189/2/4
f 187/4/4 188/4/4 189/4/4
f 189/4/4 188/4/4 190/4/4
f 186/2/4 189/2/4 192/2/4
f 190/2/4 191/2/4 192/2/4
f 189/2/4 190/2/4 192/2/4
f 192/2/4 191/2/4 193/2/4
f 193/2/4 191/2/4 194/2/4
f 194/2/4 191/2/4 195/2/4
f 195/2/4 196/2/4 197/2/4
f 194/1/4 195/1/4 197/1/4
f 197/2/4 196/2/4 198/2/4
f 193/2/4 194/2/4 200/2/4
f 194/1/4 197/1/4 201/1/4
f 197/1/4 198/1/4 201/1/4
f 201/1/4 198/1/4 202/1/4
f 199/2/4 200/2/4 203/2/4
f 200/2/4 194/2/4 204/2/4
f 203/2/4 200/2/4 204/2/4
f 194/1/4 201/1/4 205/1/4
f 204/2/4 194/2/4 205/2/4
f 201/2/4 202/2/4 206/2/4
f 205/1/4 201/1/4 206/1/4
f 206/2/4 202/2/4 207/2/4
f 204/2/4 205/2/4 208/2/4
f 205/2/4 206/2/4 208/2/4
f 208/2/4 206/2/4 209/2/4
f 204/2/4 208/2/4 211/2/4
f 211/2/4 208/2/4 212/2/4
f 210/2/4 211/2/4 212/2/4
f 212/2/4 208/2/4 213/2/4
f 210/2/4 212/2/4 214/2/4
f 212/3/4 213/3/4 215/3/4
f 214/2/4 212/2/4 215/2/4
f 215/3/4 213/3/4 216/3/4
f 223/2/5 218/2/5 217/2/5
f 224/2/5 220/2/5 219/2/5
f 225/2/5 220/2/5 224/2/5
f 226/2/5 222/2/5 221/2/5
f 227/2/5 225/2/5 224/2/5
f 227/2/5 226/2/5 225/2/5
f 227/2/5 223/2/5 217/2/5
f 227/2/5 224/2/5 223/2/5
f 228/2/5 226/2/5 227/2/5
f 229/2/5 226/2/5 228/2/5
f 230/2/5 222/2/5 226/2/5
f 230/2/5 226/2/5 229/2/5
f 231/2/5 227/2/5 217/2/5
f 232/2/5 227/2/5 231/2/5
f 233/2/5 229/2/5 228/2/5
f 234/2/5 229/2/5 233/2/5
f 235/2/5 222/2/5 230/2/5
f 236/2/5 222/2/5 235/2/5
f 241/2/5 238/2/5 237/2/5
f 242/2/5 238/2/5 241/2/5
f 243/2/5 240/2/5 239/2/5
f 244/2/5 240/2/5 243/2/5
f 249/2/5 246/2/5 245/2/5
f 250/2/5 246/2/5 249/2/5
f 251/2/5 248/2/5 247/2/5
f 252/2/5 248/2/5 251/2/5
f 253/4/6 254/4/6 258/4/6
f 258/4/6 254/4/6 259/4/6
f 255/2/6 256/2/6 260/2/6
f 256/3/6 257/3/6 261/3/6
f 260/2/6 256/2/6 261/2/6
f 261/3/6 257/3/6 262/3/6
f 263/4/6 264/4/6 268/4/6
f 268/4/6 264/4/6 269/4/6
f 265/2/6 266/2/6 270/2/6
f 266/3/6 267/3/6 271/3/6
f 270/2/6 266/2/6 271/2/6
f 271/3/6 267/3/6 272/3/6
f 273/2/6 274/2/6 278/2/6
f 278/2/6 274/2/6 279/2/6
f 275/2/6 276/2/6 280/2/6
f 280/2/6 276/2/6 281/2/6
f 277/2/6 278/2/6 283/2/6
f 283/2/6 278/2/6 284/2/6
f 281/2/6 282/2/6 287/2/6
f 287/2/6 282/2/6 288/2/6
f 284/2/6 285/2/6 289/2/6
f 289/2/6 285/2/6 290/2/6
f 286/2/6 287/2/6 291/2/6
f 291/2/6 287/2/6 292/2/6
f 293/2/6 294/2/6 298/2/6
f 294/1/6 295/1/6 299/1/6
f 298/2/6 294/2/6 299/2/6
f 295/2/6 296/2/6 300/2/6
f 299/1/6 295/1/6 300/1/6
f 300/2/6 296/2/6 301/2/6
f 297/1/6 298/1/6 303/1/6
f 303/1/6 298/1/6 304/1/6
f 301/1/6 302/1/6 307/1/6
f 307/1/6 302/1/6 308/1/6
f 304/2/6 305/2/6 309/2/6
f 305/1/6 306/1/6 310/1/6
f 309/2/6 305/2/6 310/2/6
f 306/2/6 307/2/6 311/2/6
f 310/1/6 306/1/6 311/1/6
f 311/2/6 307/2/6 312/2/6
f 313/2/6 314/2/6 315/2/6
f 315/2/6 314/2/6 316/2/6
