# MagicaVoxel @ Ephtracy

# group
o 

# material
mtllib car-v5-green.mtl
usemtl palette

# normals
vn 1 0 0
vn -1 0 0
vn 0 0 -1
vn 0 0 1
vn 0 -1 0
vn 0 1 0

# texcoords
vt 0.826172 0.5
vt 0.896484 0.5
vt 0.908203 0.5
vt 0.974609 0.5

# verts
v 0.8 0.1 -0.3
v 0.8 0.1 0.3
v 0.8 0.2 -0.3
v 0.8 0.2 -0.1
v 0.8 0.2 0.1
v 0.8 0.2 0.3
v 0.8 0.3 -0.3
v 0.8 0.3 -0.1
v 0.8 0.3 0.1
v 0.8 0.3 0.3
v 0.4 0.1 -0.3
v 0.4 0.1 -0.2
v 0.4 0.1 0.2
v 0.4 0.1 0.3
v 0.4 0.2 -0.3
v 0.4 0.2 -0.2
v 0.4 0.2 0.2
v 0.4 0.2 0.3
v 0.2 0.2 -0.2
v 0.2 0.2 0.2
v 0.2 0.3 -0.3
v 0.2 0.3 -0.2
v 0.2 0.3 0.2
v 0.2 0.3 0.3
v 0.2 0.5 -0.3
v 0.2 0.5 -0.2
v 0.2 0.5 0.2
v 0.2 0.5 0.3
v 0.2 0.6 -0.2
v 0.2 0.6 0.2
v -0.5 0.1 -0.3
v -0.5 0.1 -0.2
v -0.5 0.1 0.2
v -0.5 0.1 0.3
v -0.5 0.2 -0.3
v -0.5 0.2 -0.2
v -0.5 0.2 0.2
v -0.5 0.2 0.3
v 0.7 0.2 -0.2
v 0.7 0.2 -0.1
v 0.7 0.2 0.1
v 0.7 0.2 0.2
v 0.7 0.3 -0.2
v 0.7 0.3 -0.1
v 0.7 0.3 0.1
v 0.7 0.3 0.2
v 0.6 0.1 -0.3
v 0.6 0.1 -0.2
v 0.6 0.1 0.2
v 0.6 0.1 0.3
v 0.6 0.2 -0.3
v 0.6 0.2 -0.2
v 0.6 0.2 0.2
v 0.6 0.2 0.3
v -0.3 0.1 -0.3
v -0.3 0.1 -0.2
v -0.3 0.1 0.2
v -0.3 0.1 0.3
v -0.3 0.2 -0.3
v -0.3 0.2 -0.2
v -0.3 0.2 0.2
v -0.3 0.2 0.3
v -0.3 0.4 -0.3
v -0.3 0.4 -0.2
v -0.3 0.4 0.2
v -0.3 0.4 0.3
v -0.3 0.5 -0.3
v -0.3 0.5 -0.2
v -0.3 0.5 0.2
v -0.3 0.5 0.3
v -0.3 0.6 -0.2
v -0.3 0.6 0.2
v -0.4 0.3 -0.3
v -0.4 0.3 -0.2
v -0.4 0.3 0.2
v -0.4 0.3 0.3
v -0.4 0.4 -0.3
v -0.4 0.4 -0.2
v -0.4 0.4 0.2
v -0.4 0.4 0.3
v -0.4 0.5 -0.2
v -0.4 0.5 0.2
v -0.8 0.1 -0.3
v -0.8 0.1 0.3
v -0.8 0.2 -0.3
v -0.8 0.2 -0.1
v -0.8 0.2 0.1
v -0.8 0.2 0.3
v -0.8 0.3 -0.3
v -0.8 0.3 -0.2
v -0.8 0.3 -0.1
v -0.8 0.3 0.1
v -0.8 0.3 0.2
v -0.8 0.3 0.3
v -0.8 0.4 -0.2
v -0.8 0.4 0.2
v 0.8 0.1 -0.3
v 0.8 0.2 -0.3
v 0.8 0.3 -0.3
v 0.7 0.2 -0.3
v 0.7 0.3 -0.3
v 0.6 0.1 -0.3
v 0.6 0.2 -0.3
v 0.4 0.1 -0.3
v 0.4 0.2 -0.3
v 0.2 0.3 -0.3
v 0.2 0.5 -0.3
v 0.1 0.3 -0.3
v 0.1 0.5 -0.3
v -0.2 0.4 -0.3
v -0.2 0.5 -0.3
v -0.3 0.1 -0.3
v -0.3 0.2 -0.3
v -0.3 0.3 -0.3
v -0.3 0.4 -0.3
v -0.3 0.5 -0.3
v -0.4 0.3 -0.3
v -0.4 0.4 -0.3
v -0.5 0.1 -0.3
v -0.5 0.2 -0.3
v -0.7 0.2 -0.3
v -0.7 0.3 -0.3
v -0.8 0.1 -0.3
v -0.8 0.2 -0.3
v -0.8 0.3 -0.3
v 0.6 0.1 -0.2
v 0.6 0.2 -0.2
v 0.4 0.1 -0.2
v 0.4 0.2 -0.2
v 0.2 0.5 -0.2
v 0.2 0.6 -0.2
v 0.1 0.5 -0.2
v -0.2 0.5 -0.2
v -0.3 0.1 -0.2
v -0.3 0.2 -0.2
v -0.3 0.4 -0.2
v -0.3 0.5 -0.2
v -0.3 0.6 -0.2
v -0.4 0.3 -0.2
v -0.4 0.4 -0.2
v -0.4 0.5 -0.2
v -0.5 0.1 -0.2
v -0.5 0.2 -0.2
v -0.7 0.3 -0.2
v -0.8 0.3 -0.2
v -0.8 0.4 -0.2
v 0.7 0.2 0.2
v 0.7 0.3 0.2
v 0.2 0.2 0.2
v 0.2 0.3 0.2
v 0.7 0.2 -0.2
v 0.7 0.3 -0.2
v 0.2 0.2 -0.2
v 0.2 0.3 -0.2
v 0.6 0.1 0.2
v 0.6 0.2 0.2
v 0.4 0.1 0.2
v 0.4 0.2 0.2
v 0.2 0.5 0.2
v 0.2 0.6 0.2
v 0.1 0.5 0.2
v -0.2 0.5 0.2
v -0.3 0.1 0.2
v -0.3 0.2 0.2
v -0.3 0.4 0.2
v -0.3 0.5 0.2
v -0.3 0.6 0.2
v -0.4 0.3 0.2
v -0.4 0.4 0.2
v -0.4 0.5 0.2
v -0.5 0.1 0.2
v -0.5 0.2 0.2
v -0.7 0.3 0.2
v -0.8 0.3 0.2
v -0.8 0.4 0.2
v 0.8 0.1 0.3
v 0.8 0.2 0.3
v 0.8 0.3 0.3
v 0.7 0.2 0.3
v 0.7 0.3 0.3
v 0.6 0.1 0.3
v 0.6 0.2 0.3
v 0.4 0.1 0.3
v 0.4 0.2 0.3
v 0.2 0.3 0.3
v 0.2 0.5 0.3
v 0.1 0.3 0.3
v 0.1 0.5 0.3
v -0.2 0.4 0.3
v -0.2 0.5 0.3
v -0.3 0.1 0.3
v -0.3 0.2 0.3
v -0.3 0.3 0.3
v -0.3 0.4 0.3
v -0.3 0.5 0.3
v -0.4 0.3 0.3
v -0.4 0.4 0.3
v -0.5 0.1 0.3
v -0.5 0.2 0.3
v -0.7 0.2 0.3
v -0.7 0.3 0.3
v -0.8 0.1 0.3
v -0.8 0.2 0.3
v -0.8 0.3 0.3
v 0.8 0.1 -0.3
v 0.6 0.1 -0.3
v 0.4 0.1 -0.3
v -0.3 0.1 -0.3
v -0.5 0.1 -0.3
v -0.8 0.1 -0.3
v 0.6 0.1 -0.2
v 0.4 0.1 -0.2
v -0.3 0.1 -0.2
v -0.5 0.1 -0.2
v 0.6 0.1 0.2
v 0.4 0.1 0.2
v -0.3 0.1 0.2
v -0.5 0.1 0.2
v 0.8 0.1 0.3
v 0.6 0.1 0.3
v 0.4 0.1 0.3
v -0.3 0.1 0.3
v -0.5 0.1 0.3
v -0.8 0.1 0.3
v 0.6 0.2 -0.3
v 0.4 0.2 -0.3
v -0.3 0.2 -0.3
v -0.5 0.2 -0.3
v 0.6 0.2 -0.2
v 0.4 0.2 -0.2
v -0.3 0.2 -0.2
v -0.5 0.2 -0.2
v 0.6 0.2 0.2
v 0.4 0.2 0.2
v -0.3 0.2 0.2
v -0.5 0.2 0.2
v 0.6 0.2 0.3
v 0.4 0.2 0.3
v -0.3 0.2 0.3
v -0.5 0.2 0.3
v 0.7 0.2 -0.2
v 0.2 0.2 -0.2
v 0.7 0.2 -0.1
v 0.7 0.2 0.1
v 0.7 0.2 0.2
v 0.2 0.2 0.2
v 0.8 0.3 -0.3
v 0.7 0.3 -0.3
v 0.2 0.3 -0.3
v -0.4 0.3 -0.3
v -0.7 0.3 -0.3
v -0.8 0.3 -0.3
v 0.7 0.3 -0.2
v 0.2 0.3 -0.2
v -0.4 0.3 -0.2
v -0.7 0.3 -0.2
v -0.8 0.3 -0.2
v 0.8 0.3 -0.1
v 0.7 0.3 -0.1
v 0.8 0.3 0.1
v 0.7 0.3 0.1
v 0.7 0.3 0.2
v 0.2 0.3 0.2
v -0.4 0.3 0.2
v -0.7 0.3 0.2
v -0.8 0.3 0.2
v 0.8 0.3 0.3
v 0.7 0.3 0.3
v 0.2 0.3 0.3
v -0.4 0.3 0.3
v -0.7 0.3 0.3
v -0.8 0.3 0.3
v -0.3 0.4 -0.3
v -0.4 0.4 -0.3
v -0.3 0.4 -0.2
v -0.4 0.4 -0.2
v -0.8 0.4 -0.2
v -0.3 0.4 0.2
v -0.4 0.4 0.2
v -0.8 0.4 0.2
v -0.3 0.4 0.3
v -0.4 0.4 0.3
v 0.2 0.5 -0.3
v 0.1 0.5 -0.3
v -0.2 0.5 -0.3
v -0.3 0.5 -0.3
v 0.2 0.5 -0.2
v 0.1 0.5 -0.2
v -0.2 0.5 -0.2
v -0.3 0.5 -0.2
v -0.4 0.5 -0.2
v 0.2 0.5 0.2
v 0.1 0.5 0.2
v -0.2 0.5 0.2
v -0.3 0.5 0.2
v -0.4 0.5 0.2
v 0.2 0.5 0.3
v 0.1 0.5 0.3
v -0.2 0.5 0.3
v -0.3 0.5 0.3
v 0.2 0.6 -0.2
v -0.3 0.6 -0.2
v 0.2 0.6 0.2
v -0.3 0.6 0.2

# faces
f 3/4/1 2/4/1 1/4/1
f 4/4/1 2/4/1 3/4/1
f 5/4/1 2/4/1 4/4/1
f 6/4/1 2/4/1 5/4/1
f 7/3/1 4/3/1 3/3/1
f 8/4/1 5/4/1 4/4/1
f 8/3/1 4/3/1 7/3/1
f 9/3/1 6/3/1 5/3/1
f 9/4/1 5/4/1 8/4/1
f 10/3/1 6/3/1 9/3/1
f 15/4/1 12/4/1 11/4/1
f 16/4/1 12/4/1 15/4/1
f 17/4/1 14/4/1 13/4/1
f 18/4/1 14/4/1 17/4/1
f 22/4/1 20/4/1 19/4/1
f 23/4/1 20/4/1 22/4/1
f 25/4/1 22/4/1 21/4/1
f 26/1/1 23/1/1 22/1/1
f 26/4/1 22/4/1 25/4/1
f 27/4/1 24/4/1 23/4/1
f 27/1/1 23/1/1 26/1/1
f 28/4/1 24/4/1 27/4/1
f 29/4/1 27/4/1 26/4/1
f 30/4/1 27/4/1 29/4/1
f 35/4/1 32/4/1 31/4/1
f 36/4/1 32/4/1 35/4/1
f 37/4/1 34/4/1 33/4/1
f 38/4/1 34/4/1 37/4/1
f 39/3/2 40/3/2 43/3/2
f 40/4/2 41/4/2 44/4/2
f 43/3/2 40/3/2 44/3/2
f 41/3/2 42/3/2 45/3/2
f 44/4/2 41/4/2 45/4/2
f 45/3/2 42/3/2 46/3/2
f 47/4/2 48/4/2 51/4/2
f 51/4/2 48/4/2 52/4/2
f 49/4/2 50/4/2 53/4/2
f 53/4/2 50/4/2 54/4/2
f 55/4/2 56/4/2 59/4/2
f 59/4/2 56/4/2 60/4/2
f 57/4/2 58/4/2 61/4/2
f 61/4/2 58/4/2 62/4/2
f 63/4/2 64/4/2 67/4/2
f 67/4/2 64/4/2 68/4/2
f 65/4/2 66/4/2 69/4/2
f 69/4/2 66/4/2 70/4/2
f 68/4/2 69/4/2 71/4/2
f 71/4/2 69/4/2 72/4/2
f 73/4/2 74/4/2 77/4/2
f 77/4/2 74/4/2 78/4/2
f 75/4/2 76/4/2 79/4/2
f 79/4/2 76/4/2 80/4/2
f 78/1/2 79/1/2 81/1/2
f 81/1/2 79/1/2 82/1/2
f 83/4/2 84/4/2 85/4/2
f 85/4/2 84/4/2 86/4/2
f 86/4/2 84/4/2 87/4/2
f 87/4/2 84/4/2 88/4/2
f 85/2/2 86/2/2 89/2/2
f 89/2/2 86/2/2 90/2/2
f 86/4/2 87/4/2 91/4/2
f 90/2/2 86/2/2 91/2/2
f 87/2/2 88/2/2 92/2/2
f 91/4/2 87/4/2 92/4/2
f 92/2/2 88/2/2 93/2/2
f 93/2/2 88/2/2 94/2/2
f 90/4/2 91/4/2 95/4/2
f 92/4/2 93/4/2 95/4/2
f 91/4/2 92/4/2 95/4/2
f 95/4/2 93/4/2 96/4/2
f 100/4/3 98/4/3 97/4/3
f 100/3/3 99/3/3 98/3/3
f 101/3/3 99/3/3 100/3/3
f 102/4/3 100/4/3 97/4/3
f 102/4/3 101/4/3 100/4/3
f 103/4/3 101/4/3 102/4/3
f 105/4/3 101/4/3 103/4/3
f 106/4/3 101/4/3 105/4/3
f 106/4/3 105/4/3 104/4/3
f 108/4/3 106/4/3 104/4/3
f 108/4/3 107/4/3 106/4/3
f 109/4/3 107/4/3 108/4/3
f 110/1/3 109/1/3 108/1/3
f 111/1/3 109/1/3 110/1/3
f 112/4/3 108/4/3 104/4/3
f 113/4/3 108/4/3 112/4/3
f 114/1/3 110/1/3 108/1/3
f 114/4/3 108/4/3 113/4/3
f 115/4/3 111/4/3 110/4/3
f 115/1/3 110/1/3 114/1/3
f 116/4/3 111/4/3 115/4/3
f 117/4/3 114/4/3 113/4/3
f 117/4/3 115/4/3 114/4/3
f 118/4/3 115/4/3 117/4/3
f 120/4/3 117/4/3 113/4/3
f 121/4/3 117/4/3 120/4/3
f 121/4/3 120/4/3 119/4/3
f 122/4/3 117/4/3 121/4/3
f 123/4/3 121/4/3 119/4/3
f 124/2/3 122/2/3 121/2/3
f 124/4/3 121/4/3 123/4/3
f 125/2/3 122/2/3 124/2/3
f 128/4/3 127/4/3 126/4/3
f 129/4/3 127/4/3 128/4/3
f 132/4/3 131/4/3 130/4/3
f 133/4/3 131/4/3 132/4/3
f 137/4/3 131/4/3 133/4/3
f 138/4/3 131/4/3 137/4/3
f 140/1/3 137/1/3 136/1/3
f 141/1/3 137/1/3 140/1/3
f 142/4/3 135/4/3 134/4/3
f 143/4/3 135/4/3 142/4/3
f 144/4/3 140/4/3 139/4/3
f 145/4/3 140/4/3 144/4/3
f 146/4/3 140/4/3 145/4/3
f 149/4/3 148/4/3 147/4/3
f 150/4/3 148/4/3 149/4/3
f 151/4/4 152/4/4 153/4/4
f 153/4/4 152/4/4 154/4/4
f 155/4/4 156/4/4 157/4/4
f 157/4/4 156/4/4 158/4/4
f 159/4/4 160/4/4 161/4/4
f 161/4/4 160/4/4 162/4/4
f 162/4/4 160/4/4 166/4/4
f 166/4/4 160/4/4 167/4/4
f 165/1/4 166/1/4 169/1/4
f 169/1/4 166/1/4 170/1/4
f 163/4/4 164/4/4 171/4/4
f 171/4/4 164/4/4 172/4/4
f 168/4/4 169/4/4 173/4/4
f 173/4/4 169/4/4 174/4/4
f 174/4/4 169/4/4 175/4/4
f 176/4/4 177/4/4 179/4/4
f 177/3/4 178/3/4 179/3/4
f 179/3/4 178/3/4 180/3/4
f 176/4/4 179/4/4 181/4/4
f 179/4/4 180/4/4 181/4/4
f 181/4/4 180/4/4 182/4/4
f 182/4/4 180/4/4 184/4/4
f 184/4/4 180/4/4 185/4/4
f 183/4/4 184/4/4 185/4/4
f 183/4/4 185/4/4 187/4/4
f 185/4/4 186/4/4 187/4/4
f 187/4/4 186/4/4 188/4/4
f 187/1/4 188/1/4 189/1/4
f 189/1/4 188/1/4 190/1/4
f 183/4/4 187/4/4 191/4/4
f 191/4/4 187/4/4 192/4/4
f 187/1/4 189/1/4 193/1/4
f 192/4/4 187/4/4 193/4/4
f 189/4/4 190/4/4 194/4/4
f 193/1/4 189/1/4 194/1/4
f 194/4/4 190/4/4 195/4/4
f 192/4/4 193/4/4 196/4/4
f 193/4/4 194/4/4 196/4/4
f 196/4/4 194/4/4 197/4/4
f 192/4/4 196/4/4 199/4/4
f 199/4/4 196/4/4 200/4/4
f 198/4/4 199/4/4 200/4/4
f 200/4/4 196/4/4 201/4/4
f 198/4/4 200/4/4 202/4/4
f 200/2/4 201/2/4 203/2/4
f 202/4/4 200/4/4 203/4/4
f 203/2/4 201/2/4 204/2/4
f 211/4/5 206/4/5 205/4/5
f 212/4/5 208/4/5 207/4/5
f 213/4/5 208/4/5 212/4/5
f 214/4/5 210/4/5 209/4/5
f 215/4/5 213/4/5 212/4/5
f 215/4/5 214/4/5 213/4/5
f 215/4/5 211/4/5 205/4/5
f 215/4/5 212/4/5 211/4/5
f 216/4/5 214/4/5 215/4/5
f 217/4/5 214/4/5 216/4/5
f 218/4/5 210/4/5 214/4/5
f 218/4/5 214/4/5 217/4/5
f 219/4/5 215/4/5 205/4/5
f 220/4/5 215/4/5 219/4/5
f 221/4/5 217/4/5 216/4/5
f 222/4/5 217/4/5 221/4/5
f 223/4/5 210/4/5 218/4/5
f 224/4/5 210/4/5 223/4/5
f 229/4/5 226/4/5 225/4/5
f 230/4/5 226/4/5 229/4/5
f 231/4/5 228/4/5 227/4/5
f 232/4/5 228/4/5 231/4/5
f 237/4/5 234/4/5 233/4/5
f 238/4/5 234/4/5 237/4/5
f 239/4/5 236/4/5 235/4/5
f 240/4/5 236/4/5 239/4/5
f 241/4/6 242/4/6 243/4/6
f 243/4/6 242/4/6 244/4/6
f 244/4/6 242/4/6 245/4/6
f 245/4/6 242/4/6 246/4/6
f 247/3/6 248/3/6 253/3/6
f 248/4/6 249/4/6 253/4/6
f 253/4/6 249/4/6 254/4/6
f 250/4/6 251/4/6 255/4/6
f 251/2/6 252/2/6 256/2/6
f 255/4/6 251/4/6 256/4/6
f 256/2/6 252/2/6 257/2/6
f 247/3/6 253/3/6 258/3/6
f 258/3/6 253/3/6 259/3/6
f 258/4/6 259/4/6 260/4/6
f 260/4/6 259/4/6 261/4/6
f 260/3/6 261/3/6 262/3/6
f 260/3/6 262/3/6 267/3/6
f 262/4/6 263/4/6 268/4/6
f 267/3/6 262/3/6 268/3/6
f 268/4/6 263/4/6 269/4/6
f 264/4/6 265/4/6 270/4/6
f 265/2/6 266/2/6 271/2/6
f 270/4/6 265/4/6 271/4/6
f 271/2/6 266/2/6 272/2/6
f 273/4/6 274/4/6 275/4/6
f 275/4/6 274/4/6 276/4/6
f 276/4/6 277/4/6 279/4/6
f 279/4/6 277/4/6 280/4/6
f 278/4/6 279/4/6 281/4/6
f 281/4/6 279/4/6 282/4/6
f 283/4/6 284/4/6 287/4/6
f 284/1/6 285/1/6 288/1/6
f 287/4/6 284/4/6 288/4/6
f 285/4/6 286/4/6 289/4/6
f 288/1/6 285/1/6 289/1/6
f 289/4/6 286/4/6 290/4/6
f 290/1/6 291/1/6 295/1/6
f 295/1/6 291/1/6 296/1/6
f 292/4/6 293/4/6 297/4/6
f 293/1/6 294/1/6 298/1/6
f 297/4/6 293/4/6 298/4/6
f 294/4/6 295/4/6 299/4/6
f 298/1/6 294/1/6 299/1/6
f 299/4/6 295/4/6 300/4/6
f 301/4/6 302/4/6 303/4/6
f 303/4/6 302/4/6 304/4/6
