# MagicaVoxel @ Ephtracy

# group
o 

# material
mtllib car-v1-green.mtl
usemtl palette

# normals
vn 1 0 0
vn -1 0 0
vn 0 0 -1
vn 0 0 1
vn 0 -1 0
vn 0 1 0

# texcoords
vt 0.826172 0.5
vt 0.896484 0.5
vt 0.908203 0.5
vt 0.974609 0.5

# verts
v 0.7 0.1 -0.3
v 0.7 0.1 0.3
v 0.7 0.2 -0.3
v 0.7 0.2 -0.1
v 0.7 0.2 0.1
v 0.7 0.2 0.3
v 0.7 0.3 -0.3
v 0.7 0.3 -0.2
v 0.7 0.3 -0.1
v 0.7 0.3 0.1
v 0.7 0.3 0.2
v 0.7 0.3 0.3
v 0.7 0.4 -0.2
v 0.7 0.4 0.2
v 0.6 0.3 -0.3
v 0.6 0.3 -0.2
v 0.6 0.3 0.2
v 0.6 0.3 0.3
v 0.6 0.4 -0.3
v 0.6 0.4 -0.2
v 0.6 0.4 0.2
v 0.6 0.4 0.3
v 0.6 0.5 -0.2
v 0.6 0.5 0.2
v 0.5 0.4 -0.3
v 0.5 0.4 -0.2
v 0.5 0.4 0.2
v 0.5 0.4 0.3
v 0.5 0.5 -0.3
v 0.5 0.5 -0.2
v 0.5 0.5 0.2
v 0.5 0.5 0.3
v 0.5 0.6 -0.2
v 0.5 0.6 0.2
v 0.3 0.1 -0.3
v 0.3 0.1 -0.2
v 0.3 0.1 0.2
v 0.3 0.1 0.3
v 0.3 0.2 -0.3
v 0.3 0.2 -0.2
v 0.3 0.2 0.2
v 0.3 0.2 0.3
v -0.4 0.1 -0.3
v -0.4 0.1 -0.2
v -0.4 0.1 0.2
v -0.4 0.1 0.3
v -0.4 0.2 -0.3
v -0.4 0.2 -0.2
v -0.4 0.2 0.2
v -0.4 0.2 0.3
v 0.5 0.1 -0.3
v 0.5 0.1 -0.2
v 0.5 0.1 0.2
v 0.5 0.1 0.3
v 0.5 0.2 -0.3
v 0.5 0.2 -0.2
v 0.5 0.2 0.2
v 0.5 0.2 0.3
v -0.2 0.1 -0.3
v -0.2 0.1 -0.2
v -0.2 0.1 0.2
v -0.2 0.1 0.3
v -0.2 0.2 -0.3
v -0.2 0.2 -0.2
v -0.2 0.2 0.2
v -0.2 0.2 0.3
v -0.2 0.4 -0.3
v -0.2 0.4 -0.2
v -0.2 0.4 0.2
v -0.2 0.4 0.3
v -0.2 0.5 -0.3
v -0.2 0.5 -0.2
v -0.2 0.5 0.2
v -0.2 0.5 0.3
v -0.2 0.6 -0.2
v -0.2 0.6 0.2
v -0.3 0.3 -0.3
v -0.3 0.3 -0.2
v -0.3 0.3 0.2
v -0.3 0.3 0.3
v -0.3 0.4 -0.3
v -0.3 0.4 -0.2
v -0.3 0.4 0.2
v -0.3 0.4 0.3
v -0.3 0.5 -0.2
v -0.3 0.5 0.2
v -0.7 0.1 -0.3
v -0.7 0.1 0.3
v -0.7 0.2 -0.3
v -0.7 0.2 -0.1
v -0.7 0.2 0.1
v -0.7 0.2 0.3
v -0.7 0.3 -0.3
v -0.7 0.3 -0.2
v -0.7 0.3 -0.1
v -0.7 0.3 0.1
v -0.7 0.3 0.2
v -0.7 0.3 0.3
v -0.7 0.4 -0.2
v -0.7 0.4 0.2
v 0.7 0.1 -0.3
v 0.7 0.2 -0.3
v 0.7 0.3 -0.3
v 0.6 0.2 -0.3
v 0.6 0.3 -0.3
v 0.6 0.4 -0.3
v 0.5 0.1 -0.3
v 0.5 0.2 -0.3
v 0.5 0.3 -0.3
v 0.5 0.4 -0.3
v 0.5 0.5 -0.3
v 0.4 0.4 -0.3
v 0.4 0.5 -0.3
v 0.3 0.1 -0.3
v 0.3 0.2 -0.3
v -0.1 0.4 -0.3
v -0.1 0.5 -0.3
v -0.2 0.1 -0.3
v -0.2 0.2 -0.3
v -0.2 0.3 -0.3
v -0.2 0.4 -0.3
v -0.2 0.5 -0.3
v -0.3 0.3 -0.3
v -0.3 0.4 -0.3
v -0.4 0.1 -0.3
v -0.4 0.2 -0.3
v -0.6 0.2 -0.3
v -0.6 0.3 -0.3
v -0.7 0.1 -0.3
v -0.7 0.2 -0.3
v -0.7 0.3 -0.3
v 0.7 0.3 -0.2
v 0.7 0.4 -0.2
v 0.6 0.3 -0.2
v 0.6 0.4 -0.2
v 0.6 0.5 -0.2
v 0.5 0.1 -0.2
v 0.5 0.2 -0.2
v 0.5 0.4 -0.2
v 0.5 0.5 -0.2
v 0.5 0.6 -0.2
v 0.4 0.5 -0.2
v 0.3 0.1 -0.2
v 0.3 0.2 -0.2
v -0.1 0.5 -0.2
v -0.2 0.1 -0.2
v -0.2 0.2 -0.2
v -0.2 0.4 -0.2
v -0.2 0.5 -0.2
v -0.2 0.6 -0.2
v -0.3 0.3 -0.2
v -0.3 0.4 -0.2
v -0.3 0.5 -0.2
v -0.4 0.1 -0.2
v -0.4 0.2 -0.2
v -0.6 0.3 -0.2
v -0.7 0.3 -0.2
v -0.7 0.4 -0.2
v 0.7 0.3 0.2
v 0.7 0.4 0.2
v 0.6 0.3 0.2
v 0.6 0.4 0.2
v 0.6 0.5 0.2
v 0.5 0.1 0.2
v 0.5 0.2 0.2
v 0.5 0.4 0.2
v 0.5 0.5 0.2
v 0.5 0.6 0.2
v 0.4 0.5 0.2
v 0.3 0.1 0.2
v 0.3 0.2 0.2
v -0.1 0.5 0.2
v -0.2 0.1 0.2
v -0.2 0.2 0.2
v -0.2 0.4 0.2
v -0.2 0.5 0.2
v -0.2 0.6 0.2
v -0.3 0.3 0.2
v -0.3 0.4 0.2
v -0.3 0.5 0.2
v -0.4 0.1 0.2
v -0.4 0.2 0.2
v -0.6 0.3 0.2
v -0.7 0.3 0.2
v -0.7 0.4 0.2
v 0.7 0.1 0.3
v 0.7 0.2 0.3
v 0.7 0.3 0.3
v 0.6 0.2 0.3
v 0.6 0.3 0.3
v 0.6 0.4 0.3
v 0.5 0.1 0.3
v 0.5 0.2 0.3
v 0.5 0.3 0.3
v 0.5 0.4 0.3
v 0.5 0.5 0.3
v 0.4 0.4 0.3
v 0.4 0.5 0.3
v 0.3 0.1 0.3
v 0.3 0.2 0.3
v -0.1 0.4 0.3
v -0.1 0.5 0.3
v -0.2 0.1 0.3
v -0.2 0.2 0.3
v -0.2 0.3 0.3
v -0.2 0.4 0.3
v -0.2 0.5 0.3
v -0.3 0.3 0.3
v -0.3 0.4 0.3
v -0.4 0.1 0.3
v -0.4 0.2 0.3
v -0.6 0.2 0.3
v -0.6 0.3 0.3
v -0.7 0.1 0.3
v -0.7 0.2 0.3
v -0.7 0.3 0.3
v 0.7 0.1 -0.3
v 0.5 0.1 -0.3
v 0.3 0.1 -0.3
v -0.2 0.1 -0.3
v -0.4 0.1 -0.3
v -0.7 0.1 -0.3
v 0.5 0.1 -0.2
v 0.3 0.1 -0.2
v -0.2 0.1 -0.2
v -0.4 0.1 -0.2
v 0.5 0.1 0.2
v 0.3 0.1 0.2
v -0.2 0.1 0.2
v -0.4 0.1 0.2
v 0.7 0.1 0.3
v 0.5 0.1 0.3
v 0.3 0.1 0.3
v -0.2 0.1 0.3
v -0.4 0.1 0.3
v -0.7 0.1 0.3
v 0.5 0.2 -0.3
v 0.3 0.2 -0.3
v -0.2 0.2 -0.3
v -0.4 0.2 -0.3
v 0.5 0.2 -0.2
v 0.3 0.2 -0.2
v -0.2 0.2 -0.2
v -0.4 0.2 -0.2
v 0.5 0.2 0.2
v 0.3 0.2 0.2
v -0.2 0.2 0.2
v -0.4 0.2 0.2
v 0.5 0.2 0.3
v 0.3 0.2 0.3
v -0.2 0.2 0.3
v -0.4 0.2 0.3
v 0.7 0.3 -0.3
v 0.6 0.3 -0.3
v -0.3 0.3 -0.3
v -0.6 0.3 -0.3
v -0.7 0.3 -0.3
v 0.7 0.3 -0.2
v 0.6 0.3 -0.2
v -0.3 0.3 -0.2
v -0.6 0.3 -0.2
v -0.7 0.3 -0.2
v 0.7 0.3 0.2
v 0.6 0.3 0.2
v -0.3 0.3 0.2
v -0.6 0.3 0.2
v -0.7 0.3 0.2
v 0.7 0.3 0.3
v 0.6 0.3 0.3
v -0.3 0.3 0.3
v -0.6 0.3 0.3
v -0.7 0.3 0.3
v 0.6 0.4 -0.3
v 0.5 0.4 -0.3
v -0.2 0.4 -0.3
v -0.3 0.4 -0.3
v 0.7 0.4 -0.2
v 0.6 0.4 -0.2
v 0.5 0.4 -0.2
v -0.2 0.4 -0.2
v -0.3 0.4 -0.2
v -0.7 0.4 -0.2
v 0.7 0.4 0.2
v 0.6 0.4 0.2
v 0.5 0.4 0.2
v -0.2 0.4 0.2
v -0.3 0.4 0.2
v -0.7 0.4 0.2
v 0.6 0.4 0.3
v 0.5 0.4 0.3
v -0.2 0.4 0.3
v -0.3 0.4 0.3
v 0.5 0.5 -0.3
v 0.4 0.5 -0.3
v -0.1 0.5 -0.3
v -0.2 0.5 -0.3
v 0.6 0.5 -0.2
v 0.5 0.5 -0.2
v 0.4 0.5 -0.2
v -0.1 0.5 -0.2
v -0.2 0.5 -0.2
v -0.3 0.5 -0.2
v 0.6 0.5 0.2
v 0.5 0.5 0.2
v 0.4 0.5 0.2
v -0.1 0.5 0.2
v -0.2 0.5 0.2
v -0.3 0.5 0.2
v 0.5 0.5 0.3
v 0.4 0.5 0.3
v -0.1 0.5 0.3
v -0.2 0.5 0.3
v 0.5 0.6 -0.2
v -0.2 0.6 -0.2
v 0.5 0.6 0.2
v -0.2 0.6 0.2

# faces
f 3/4/1 2/4/1 1/4/1
f 4/4/1 2/4/1 3/4/1
f 5/4/1 2/4/1 4/4/1
f 6/4/1 2/4/1 5/4/1
f 7/3/1 4/3/1 3/3/1
f 8/3/1 4/3/1 7/3/1
f 9/4/1 5/4/1 4/4/1
f 9/3/1 4/3/1 8/3/1
f 10/3/1 6/3/1 5/3/1
f 10/4/1 5/4/1 9/4/1
f 11/3/1 6/3/1 10/3/1
f 12/3/1 6/3/1 11/3/1
f 13/4/1 9/4/1 8/4/1
f 13/4/1 11/4/1 10/4/1
f 13/4/1 10/4/1 9/4/1
f 14/4/1 11/4/1 13/4/1
f 19/4/1 16/4/1 15/4/1
f 20/4/1 16/4/1 19/4/1
f 21/4/1 18/4/1 17/4/1
f 22/4/1 18/4/1 21/4/1
f 23/1/1 21/1/1 20/1/1
f 24/1/1 21/1/1 23/1/1
f 29/4/1 26/4/1 25/4/1
f 30/4/1 26/4/1 29/4/1
f 31/4/1 28/4/1 27/4/1
f 32/4/1 28/4/1 31/4/1
f 33/4/1 31/4/1 30/4/1
f 34/4/1 31/4/1 33/4/1
f 39/4/1 36/4/1 35/4/1
f 40/4/1 36/4/1 39/4/1
f 41/4/1 38/4/1 37/4/1
f 42/4/1 38/4/1 41/4/1
f 47/4/1 44/4/1 43/4/1
f 48/4/1 44/4/1 47/4/1
f 49/4/1 46/4/1 45/4/1
f 50/4/1 46/4/1 49/4/1
f 51/4/2 52/4/2 55/4/2
f 55/4/2 52/4/2 56/4/2
f 53/4/2 54/4/2 57/4/2
f 57/4/2 54/4/2 58/4/2
f 59/4/2 60/4/2 63/4/2
f 63/4/2 60/4/2 64/4/2
f 61/4/2 62/4/2 65/4/2
f 65/4/2 62/4/2 66/4/2
f 67/4/2 68/4/2 71/4/2
f 71/4/2 68/4/2 72/4/2
f 69/4/2 70/4/2 73/4/2
f 73/4/2 70/4/2 74/4/2
f 72/4/2 73/4/2 75/4/2
f 75/4/2 73/4/2 76/4/2
f 77/4/2 78/4/2 81/4/2
f 81/4/2 78/4/2 82/4/2
f 79/4/2 80/4/2 83/4/2
f 83/4/2 80/4/2 84/4/2
f 82/1/2 83/1/2 85/1/2
f 85/1/2 83/1/2 86/1/2
f 87/4/2 88/4/2 89/4/2
f 89/4/2 88/4/2 90/4/2
f 90/4/2 88/4/2 91/4/2
f 91/4/2 88/4/2 92/4/2
f 89/2/2 90/2/2 93/2/2
f 93/2/2 90/2/2 94/2/2
f 90/4/2 91/4/2 95/4/2
f 94/2/2 90/2/2 95/2/2
f 91/2/2 92/2/2 96/2/2
f 95/4/2 91/4/2 96/4/2
f 96/2/2 92/2/2 97/2/2
f 97/2/2 92/2/2 98/2/2
f 94/4/2 95/4/2 99/4/2
f 96/4/2 97/4/2 99/4/2
f 95/4/2 96/4/2 99/4/2
f 99/4/2 97/4/2 100/4/2
f 104/4/3 102/4/3 101/4/3
f 104/3/3 103/3/3 102/3/3
f 105/3/3 103/3/3 104/3/3
f 107/4/3 104/4/3 101/4/3
f 107/4/3 106/4/3 105/4/3
f 107/4/3 105/4/3 104/4/3
f 108/4/3 106/4/3 107/4/3
f 109/4/3 106/4/3 108/4/3
f 110/4/3 106/4/3 109/4/3
f 112/4/3 111/4/3 110/4/3
f 112/1/3 110/1/3 109/1/3
f 113/4/3 111/4/3 112/4/3
f 115/4/3 109/4/3 108/4/3
f 116/1/3 112/1/3 109/1/3
f 116/1/3 113/1/3 112/1/3
f 117/1/3 113/1/3 116/1/3
f 118/4/3 115/4/3 114/4/3
f 119/4/3 109/4/3 115/4/3
f 119/4/3 115/4/3 118/4/3
f 120/1/3 116/1/3 109/1/3
f 120/4/3 109/4/3 119/4/3
f 121/4/3 117/4/3 116/4/3
f 121/1/3 116/1/3 120/1/3
f 122/4/3 117/4/3 121/4/3
f 123/4/3 120/4/3 119/4/3
f 123/4/3 121/4/3 120/4/3
f 124/4/3 121/4/3 123/4/3
f 126/4/3 123/4/3 119/4/3
f 127/4/3 123/4/3 126/4/3
f 127/4/3 126/4/3 125/4/3
f 128/4/3 123/4/3 127/4/3
f 129/4/3 127/4/3 125/4/3
f 130/2/3 128/2/3 127/2/3
f 130/4/3 127/4/3 129/4/3
f 131/2/3 128/2/3 130/2/3
f 134/4/3 133/4/3 132/4/3
f 135/4/3 133/4/3 134/4/3
f 139/1/3 136/1/3 135/1/3
f 140/1/3 136/1/3 139/1/3
f 142/4/3 141/4/3 140/4/3
f 143/4/3 138/4/3 137/4/3
f 144/4/3 138/4/3 143/4/3
f 145/4/3 141/4/3 142/4/3
f 149/4/3 141/4/3 145/4/3
f 150/4/3 141/4/3 149/4/3
f 152/1/3 149/1/3 148/1/3
f 153/1/3 149/1/3 152/1/3
f 154/4/3 147/4/3 146/4/3
f 155/4/3 147/4/3 154/4/3
f 156/4/3 152/4/3 151/4/3
f 157/4/3 152/4/3 156/4/3
f 158/4/3 152/4/3 157/4/3
f 159/4/4 160/4/4 161/4/4
f 161/4/4 160/4/4 162/4/4
f 162/1/4 163/1/4 166/1/4
f 166/1/4 163/1/4 167/1/4
f 167/4/4 168/4/4 169/4/4
f 164/4/4 165/4/4 170/4/4
f 170/4/4 165/4/4 171/4/4
f 169/4/4 168/4/4 172/4/4
f 172/4/4 168/4/4 176/4/4
f 176/4/4 168/4/4 177/4/4
f 175/1/4 176/1/4 179/1/4
f 179/1/4 176/1/4 180/1/4
f 173/4/4 174/4/4 181/4/4
f 181/4/4 174/4/4 182/4/4
f 178/4/4 179/4/4 183/4/4
f 183/4/4 179/4/4 184/4/4
f 184/4/4 179/4/4 185/4/4
f 186/4/4 187/4/4 189/4/4
f 187/3/4 188/3/4 189/3/4
f 189/3/4 188/3/4 190/3/4
f 186/4/4 189/4/4 192/4/4
f 190/4/4 191/4/4 192/4/4
f 189/4/4 190/4/4 192/4/4
f 192/4/4 191/4/4 193/4/4
f 193/4/4 191/4/4 194/4/4
f 194/4/4 191/4/4 195/4/4
f 195/4/4 196/4/4 197/4/4
f 194/1/4 195/1/4 197/1/4
f 197/4/4 196/4/4 198/4/4
f 193/4/4 194/4/4 200/4/4
f 194/1/4 197/1/4 201/1/4
f 197/1/4 198/1/4 201/1/4
f 201/1/4 198/1/4 202/1/4
f 199/4/4 200/4/4 203/4/4
f 200/4/4 194/4/4 204/4/4
f 203/4/4 200/4/4 204/4/4
f 194/1/4 201/1/4 205/1/4
f 204/4/4 194/4/4 205/4/4
f 201/4/4 202/4/4 206/4/4
f 205/1/4 201/1/4 206/1/4
f 206/4/4 202/4/4 207/4/4
f 204/4/4 205/4/4 208/4/4
f 205/4/4 206/4/4 208/4/4
f 208/4/4 206/4/4 209/4/4
f 204/4/4 208/4/4 211/4/4
f 211/4/4 208/4/4 212/4/4
f 210/4/4 211/4/4 212/4/4
f 212/4/4 208/4/4 213/4/4
f 210/4/4 212/4/4 214/4/4
f 212/2/4 213/2/4 215/2/4
f 214/4/4 212/4/4 215/4/4
f 215/2/4 213/2/4 216/2/4
f 223/4/5 218/4/5 217/4/5
f 224/4/5 220/4/5 219/4/5
f 225/4/5 220/4/5 224/4/5
f 226/4/5 222/4/5 221/4/5
f 227/4/5 225/4/5 224/4/5
f 227/4/5 226/4/5 225/4/5
f 227/4/5 223/4/5 217/4/5
f 227/4/5 224/4/5 223/4/5
f 228/4/5 226/4/5 227/4/5
f 229/4/5 226/4/5 228/4/5
f 230/4/5 222/4/5 226/4/5
f 230/4/5 226/4/5 229/4/5
f 231/4/5 227/4/5 217/4/5
f 232/4/5 227/4/5 231/4/5
f 233/4/5 229/4/5 228/4/5
f 234/4/5 229/4/5 233/4/5
f 235/4/5 222/4/5 230/4/5
f 236/4/5 222/4/5 235/4/5
f 241/4/5 238/4/5 237/4/5
f 242/4/5 238/4/5 241/4/5
f 243/4/5 240/4/5 239/4/5
f 244/4/5 240/4/5 243/4/5
f 249/4/5 246/4/5 245/4/5
f 250/4/5 246/4/5 249/4/5
f 251/4/5 248/4/5 247/4/5
f 252/4/5 248/4/5 251/4/5
f 253/3/6 254/3/6 258/3/6
f 258/3/6 254/3/6 259/3/6
f 255/4/6 256/4/6 260/4/6
f 256/2/6 257/2/6 261/2/6
f 260/4/6 256/4/6 261/4/6
f 261/2/6 257/2/6 262/2/6
f 263/3/6 264/3/6 268/3/6
f 268/3/6 264/3/6 269/3/6
f 265/4/6 266/4/6 270/4/6
f 266/2/6 267/2/6 271/2/6
f 270/4/6 266/4/6 271/4/6
f 271/2/6 267/2/6 272/2/6
f 273/4/6 274/4/6 278/4/6
f 278/4/6 274/4/6 279/4/6
f 275/4/6 276/4/6 280/4/6
f 280/4/6 276/4/6 281/4/6
f 277/4/6 278/4/6 283/4/6
f 283/4/6 278/4/6 284/4/6
f 281/4/6 282/4/6 287/4/6
f 287/4/6 282/4/6 288/4/6
f 284/4/6 285/4/6 289/4/6
f 289/4/6 285/4/6 290/4/6
f 286/4/6 287/4/6 291/4/6
f 291/4/6 287/4/6 292/4/6
f 293/4/6 294/4/6 298/4/6
f 294/1/6 295/1/6 299/1/6
f 298/4/6 294/4/6 299/4/6
f 295/4/6 296/4/6 300/4/6
f 299/1/6 295/1/6 300/1/6
f 300/4/6 296/4/6 301/4/6
f 297/1/6 298/1/6 303/1/6
f 303/1/6 298/1/6 304/1/6
f 301/1/6 302/1/6 307/1/6
f 307/1/6 302/1/6 308/1/6
f 304/4/6 305/4/6 309/4/6
f 305/1/6 306/1/6 310/1/6
f 309/4/6 305/4/6 310/4/6
f 306/4/6 307/4/6 311/4/6
f 310/1/6 306/1/6 311/1/6
f 311/4/6 307/4/6 312/4/6
f 313/4/6 314/4/6 315/4/6
f 315/4/6 314/4/6 316/4/6
