# MagicaVoxel @ Ephtracy

# group
o 

# material
mtllib train-v3-red.mtl
usemtl palette

# normals
vn 1 0 0
vn -1 0 0
vn 0 0 -1
vn 0 0 1
vn 0 -1 0
vn 0 1 0

# texcoords
vt 0.818359 0.5
vt 0.826172 0.5
vt 0.896484 0.5
vt 0.927734 0.5

# verts
v 1.4 0.1 -0.2
v 1.4 0.1 0.2
v 1.4 0.2 -0.2
v 1.4 0.2 -0.1
v 1.4 0.2 0.1
v 1.4 0.2 0.2
v 1.4 0.3 -0.2
v 1.4 0.3 -0.1
v 1.4 0.3 0.1
v 1.4 0.3 0.2
v 1.4 0.6 -0.2
v 1.4 0.6 0.2
v 1.3 0.1 -0.3
v 1.3 0.1 -0.2
v 1.3 0.1 0.2
v 1.3 0.1 0.3
v 1.3 0.2 -0.3
v 1.3 0.2 -0.2
v 1.3 0.2 0.2
v 1.3 0.2 0.3
v 1.3 0.3 -0.2
v 1.3 0.3 0.2
v 1.3 0.6 -0.3
v 1.3 0.6 -0.2
v 1.3 0.6 0.2
v 1.3 0.6 0.3
v 1.3 0.7 -0.2
v 1.3 0.7 0.2
v 1.2 0.6 -0.3
v 1.2 0.6 -0.2
v 1.2 0.6 0.2
v 1.2 0.6 0.3
v 1.2 0.7 -0.3
v 1.2 0.7 -0.2
v 1.2 0.7 0.2
v 1.2 0.7 0.3
v 1.2 0.8 -0.2
v 1.2 0.8 0.2
v 0.9 0.1 -0.3
v 0.9 0.1 -0.2
v 0.9 0.1 0.2
v 0.9 0.1 0.3
v 0.9 0.2 -0.3
v 0.9 0.2 -0.2
v 0.9 0.2 0.2
v 0.9 0.2 0.3
v 0.6 0.1 -0.3
v 0.6 0.1 -0.2
v 0.6 0.1 0.2
v 0.6 0.1 0.3
v 0.6 0.2 -0.3
v 0.6 0.2 -0.2
v 0.6 0.2 0.2
v 0.6 0.2 0.3
v -0.7 0.1 -0.3
v -0.7 0.1 -0.2
v -0.7 0.1 0.2
v -0.7 0.1 0.3
v -0.7 0.2 -0.3
v -0.7 0.2 -0.2
v -0.7 0.2 0.2
v -0.7 0.2 0.3
v -1 0.1 -0.3
v -1 0.1 -0.2
v -1 0.1 0.2
v -1 0.1 0.3
v -1 0.2 -0.3
v -1 0.2 -0.2
v -1 0.2 0.2
v -1 0.2 0.3
v 1.1 0.1 -0.3
v 1.1 0.1 -0.2
v 1.1 0.1 0.2
v 1.1 0.1 0.3
v 1.1 0.2 -0.3
v 1.1 0.2 -0.2
v 1.1 0.2 0.2
v 1.1 0.2 0.3
v 0.8 0.1 -0.3
v 0.8 0.1 -0.2
v 0.8 0.1 0.2
v 0.8 0.1 0.3
v 0.8 0.2 -0.3
v 0.8 0.2 -0.2
v 0.8 0.2 0.2
v 0.8 0.2 0.3
v -0.5 0.1 -0.3
v -0.5 0.1 -0.2
v -0.5 0.1 0.2
v -0.5 0.1 0.3
v -0.5 0.2 -0.3
v -0.5 0.2 -0.2
v -0.5 0.2 0.2
v -0.5 0.2 0.3
v -0.8 0.1 -0.3
v -0.8 0.1 -0.2
v -0.8 0.1 0.2
v -0.8 0.1 0.3
v -0.8 0.2 -0.3
v -0.8 0.2 -0.2
v -0.8 0.2 0.2
v -0.8 0.2 0.3
v -1.1 0.6 -0.3
v -1.1 0.6 -0.2
v -1.1 0.6 0.2
v -1.1 0.6 0.3
v -1.1 0.7 -0.3
v -1.1 0.7 -0.2
v -1.1 0.7 0.2
v -1.1 0.7 0.3
v -1.1 0.8 -0.2
v -1.1 0.8 0.2
v -1.2 0.1 -0.3
v -1.2 0.1 -0.2
v -1.2 0.1 0.2
v -1.2 0.1 0.3
v -1.2 0.2 -0.3
v -1.2 0.2 -0.2
v -1.2 0.2 0.2
v -1.2 0.2 0.3
v -1.2 0.3 -0.2
v -1.2 0.3 0.2
v -1.2 0.6 -0.3
v -1.2 0.6 -0.2
v -1.2 0.6 0.2
v -1.2 0.6 0.3
v -1.2 0.7 -0.2
v -1.2 0.7 0.2
v -1.3 0.1 -0.2
v -1.3 0.1 0.2
v -1.3 0.2 -0.2
v -1.3 0.2 -0.1
v -1.3 0.2 0.1
v -1.3 0.2 0.2
v -1.3 0.3 -0.2
v -1.3 0.3 -0.1
v -1.3 0.3 0.1
v -1.3 0.3 0.2
v -1.3 0.6 -0.2
v -1.3 0.6 0.2
v 1.3 0.1 -0.3
v 1.3 0.2 -0.3
v 1.3 0.6 -0.3
v 1.2 0.6 -0.3
v 1.2 0.7 -0.3
v 1.1 0.1 -0.3
v 1.1 0.2 -0.3
v 1.1 0.5 -0.3
v 1.1 0.7 -0.3
v 0.9 0.1 -0.3
v 0.9 0.2 -0.3
v 0.9 0.5 -0.3
v 0.9 0.7 -0.3
v 0.8 0.1 -0.3
v 0.8 0.2 -0.3
v 0.8 0.5 -0.3
v 0.8 0.7 -0.3
v 0.6 0.1 -0.3
v 0.6 0.2 -0.3
v 0.5 0.5 -0.3
v 0.5 0.7 -0.3
v -0.4 0.5 -0.3
v -0.4 0.7 -0.3
v -0.5 0.1 -0.3
v -0.5 0.2 -0.3
v -0.7 0.1 -0.3
v -0.7 0.2 -0.3
v -0.7 0.5 -0.3
v -0.7 0.7 -0.3
v -0.8 0.1 -0.3
v -0.8 0.2 -0.3
v -0.8 0.5 -0.3
v -0.8 0.7 -0.3
v -1 0.1 -0.3
v -1 0.2 -0.3
v -1 0.5 -0.3
v -1 0.7 -0.3
v -1.1 0.6 -0.3
v -1.1 0.7 -0.3
v -1.2 0.1 -0.3
v -1.2 0.2 -0.3
v -1.2 0.6 -0.3
v 1.4 0.1 -0.2
v 1.4 0.2 -0.2
v 1.4 0.3 -0.2
v 1.4 0.6 -0.2
v 1.3 0.1 -0.2
v 1.3 0.2 -0.2
v 1.3 0.3 -0.2
v 1.3 0.6 -0.2
v 1.3 0.7 -0.2
v 1.2 0.6 -0.2
v 1.2 0.7 -0.2
v 1.2 0.8 -0.2
v 1.1 0.1 -0.2
v 1.1 0.2 -0.2
v 1.1 0.7 -0.2
v 0.9 0.1 -0.2
v 0.9 0.2 -0.2
v 0.9 0.7 -0.2
v 0.8 0.1 -0.2
v 0.8 0.2 -0.2
v 0.8 0.7 -0.2
v 0.6 0.1 -0.2
v 0.6 0.2 -0.2
v 0.5 0.7 -0.2
v -0.4 0.7 -0.2
v -0.5 0.1 -0.2
v -0.5 0.2 -0.2
v -0.7 0.1 -0.2
v -0.7 0.2 -0.2
v -0.7 0.7 -0.2
v -0.8 0.1 -0.2
v -0.8 0.2 -0.2
v -0.8 0.7 -0.2
v -1 0.1 -0.2
v -1 0.2 -0.2
v -1 0.7 -0.2
v -1.1 0.6 -0.2
v -1.1 0.7 -0.2
v -1.1 0.8 -0.2
v -1.2 0.1 -0.2
v -1.2 0.2 -0.2
v -1.2 0.3 -0.2
v -1.2 0.6 -0.2
v -1.2 0.7 -0.2
v -1.3 0.1 -0.2
v -1.3 0.2 -0.2
v -1.3 0.3 -0.2
v -1.3 0.6 -0.2
v 1.4 0.1 0.2
v 1.4 0.2 0.2
v 1.4 0.3 0.2
v 1.4 0.6 0.2
v 1.3 0.1 0.2
v 1.3 0.2 0.2
v 1.3 0.3 0.2
v 1.3 0.6 0.2
v 1.3 0.7 0.2
v 1.2 0.6 0.2
v 1.2 0.7 0.2
v 1.2 0.8 0.2
v 1.1 0.1 0.2
v 1.1 0.2 0.2
v 1.1 0.7 0.2
v 0.9 0.1 0.2
v 0.9 0.2 0.2
v 0.9 0.7 0.2
v 0.8 0.1 0.2
v 0.8 0.2 0.2
v 0.8 0.7 0.2
v 0.6 0.1 0.2
v 0.6 0.2 0.2
v 0.5 0.7 0.2
v -0.4 0.7 0.2
v -0.5 0.1 0.2
v -0.5 0.2 0.2
v -0.7 0.1 0.2
v -0.7 0.2 0.2
v -0.7 0.7 0.2
v -0.8 0.1 0.2
v -0.8 0.2 0.2
v -0.8 0.7 0.2
v -1 0.1 0.2
v -1 0.2 0.2
v -1 0.7 0.2
v -1.1 0.6 0.2
v -1.1 0.7 0.2
v -1.1 0.8 0.2
v -1.2 0.1 0.2
v -1.2 0.2 0.2
v -1.2 0.3 0.2
v -1.2 0.6 0.2
v -1.2 0.7 0.2
v -1.3 0.1 0.2
v -1.3 0.2 0.2
v -1.3 0.3 0.2
v -1.3 0.6 0.2
v 1.3 0.1 0.3
v 1.3 0.2 0.3
v 1.3 0.6 0.3
v 1.2 0.6 0.3
v 1.2 0.7 0.3
v 1.1 0.1 0.3
v 1.1 0.2 0.3
v 1.1 0.5 0.3
v 1.1 0.7 0.3
v 0.9 0.1 0.3
v 0.9 0.2 0.3
v 0.9 0.5 0.3
v 0.9 0.7 0.3
v 0.8 0.1 0.3
v 0.8 0.2 0.3
v 0.8 0.5 0.3
v 0.8 0.7 0.3
v 0.6 0.1 0.3
v 0.6 0.2 0.3
v 0.5 0.5 0.3
v 0.5 0.7 0.3
v -0.4 0.5 0.3
v -0.4 0.7 0.3
v -0.5 0.1 0.3
v -0.5 0.2 0.3
v -0.7 0.1 0.3
v -0.7 0.2 0.3
v -0.7 0.5 0.3
v -0.7 0.7 0.3
v -0.8 0.1 0.3
v -0.8 0.2 0.3
v -0.8 0.5 0.3
v -0.8 0.7 0.3
v -1 0.1 0.3
v -1 0.2 0.3
v -1 0.5 0.3
v -1 0.7 0.3
v -1.1 0.6 0.3
v -1.1 0.7 0.3
v -1.2 0.1 0.3
v -1.2 0.2 0.3
v -1.2 0.6 0.3
v 1.3 0.1 -0.3
v 1.1 0.1 -0.3
v 0.9 0.1 -0.3
v 0.8 0.1 -0.3
v 0.6 0.1 -0.3
v -0.5 0.1 -0.3
v -0.7 0.1 -0.3
v -0.8 0.1 -0.3
v -1 0.1 -0.3
v -1.2 0.1 -0.3
v 1.4 0.1 -0.2
v 1.3 0.1 -0.2
v 1.1 0.1 -0.2
v 0.9 0.1 -0.2
v 0.8 0.1 -0.2
v 0.6 0.1 -0.2
v -0.5 0.1 -0.2
v -0.7 0.1 -0.2
v -0.8 0.1 -0.2
v -1 0.1 -0.2
v -1.2 0.1 -0.2
v -1.3 0.1 -0.2
v 1.4 0.1 0.2
v 1.3 0.1 0.2
v 1.1 0.1 0.2
v 0.9 0.1 0.2
v 0.8 0.1 0.2
v 0.6 0.1 0.2
v -0.5 0.1 0.2
v -0.7 0.1 0.2
v -0.8 0.1 0.2
v -1 0.1 0.2
v -1.2 0.1 0.2
v -1.3 0.1 0.2
v 1.3 0.1 0.3
v 1.1 0.1 0.3
v 0.9 0.1 0.3
v 0.8 0.1 0.3
v 0.6 0.1 0.3
v -0.5 0.1 0.3
v -0.7 0.1 0.3
v -0.8 0.1 0.3
v -1 0.1 0.3
v -1.2 0.1 0.3
v 1.1 0.2 -0.3
v 0.9 0.2 -0.3
v 0.8 0.2 -0.3
v 0.6 0.2 -0.3
v -0.5 0.2 -0.3
v -0.7 0.2 -0.3
v -0.8 0.2 -0.3
v -1 0.2 -0.3
v 1.1 0.2 -0.2
v 0.9 0.2 -0.2
v 0.8 0.2 -0.2
v 0.6 0.2 -0.2
v -0.5 0.2 -0.2
v -0.7 0.2 -0.2
v -0.8 0.2 -0.2
v -1 0.2 -0.2
v 1.1 0.2 0.2
v 0.9 0.2 0.2
v 0.8 0.2 0.2
v 0.6 0.2 0.2
v -0.5 0.2 0.2
v -0.7 0.2 0.2
v -0.8 0.2 0.2
v -1 0.2 0.2
v 1.1 0.2 0.3
v 0.9 0.2 0.3
v 0.8 0.2 0.3
v 0.6 0.2 0.3
v -0.5 0.2 0.3
v -0.7 0.2 0.3
v -0.8 0.2 0.3
v -1 0.2 0.3
v 1.3 0.6 -0.3
v 1.2 0.6 -0.3
v -1.1 0.6 -0.3
v -1.2 0.6 -0.3
v 1.4 0.6 -0.2
v 1.3 0.6 -0.2
v 1.2 0.6 -0.2
v -1.1 0.6 -0.2
v -1.2 0.6 -0.2
v -1.3 0.6 -0.2
v 1.4 0.6 0.2
v 1.3 0.6 0.2
v 1.2 0.6 0.2
v -1.1 0.6 0.2
v -1.2 0.6 0.2
v -1.3 0.6 0.2
v 1.3 0.6 0.3
v 1.2 0.6 0.3
v -1.1 0.6 0.3
v -1.2 0.6 0.3
v 1.2 0.7 -0.3
v 1.1 0.7 -0.3
v 0.9 0.7 -0.3
v 0.8 0.7 -0.3
v 0.5 0.7 -0.3
v -0.4 0.7 -0.3
v -0.7 0.7 -0.3
v -0.8 0.7 -0.3
v -1 0.7 -0.3
v -1.1 0.7 -0.3
v 1.3 0.7 -0.2
v 1.2 0.7 -0.2
v 1.1 0.7 -0.2
v 0.9 0.7 -0.2
v 0.8 0.7 -0.2
v 0.5 0.7 -0.2
v -0.4 0.7 -0.2
v -0.7 0.7 -0.2
v -0.8 0.7 -0.2
v -1 0.7 -0.2
v -1.1 0.7 -0.2
v -1.2 0.7 -0.2
v 1.3 0.7 0.2
v 1.2 0.7 0.2
v 1.1 0.7 0.2
v 0.9 0.7 0.2
v 0.8 0.7 0.2
v 0.5 0.7 0.2
v -0.4 0.7 0.2
v -0.7 0.7 0.2
v -0.8 0.7 0.2
v -1 0.7 0.2
v -1.1 0.7 0.2
v -1.2 0.7 0.2
v 1.2 0.7 0.3
v 1.1 0.7 0.3
v 0.9 0.7 0.3
v 0.8 0.7 0.3
v 0.5 0.7 0.3
v -0.4 0.7 0.3
v -0.7 0.7 0.3
v -0.8 0.7 0.3
v -1 0.7 0.3
v -1.1 0.7 0.3
v 1.2 0.8 -0.2
v -1.1 0.8 -0.2
v 1.2 0.8 0.2
v -1.1 0.8 0.2

# faces
f 3/1/1 2/1/1 1/1/1
f 4/1/1 2/1/1 3/1/1
f 5/1/1 2/1/1 4/1/1
f 6/1/1 2/1/1 5/1/1
f 7/3/1 4/3/1 3/3/1
f 8/4/1 5/4/1 4/4/1
f 8/3/1 4/3/1 7/3/1
f 9/3/1 6/3/1 5/3/1
f 9/4/1 5/4/1 8/4/1
f 10/3/1 6/3/1 9/3/1
f 11/4/1 8/4/1 7/4/1
f 11/4/1 9/4/1 8/4/1
f 11/4/1 10/4/1 9/4/1
f 12/4/1 10/4/1 11/4/1
f 17/1/1 14/1/1 13/1/1
f 18/1/1 14/1/1 17/1/1
f 19/1/1 16/1/1 15/1/1
f 20/1/1 16/1/1 19/1/1
f 21/4/1 18/4/1 17/4/1
f 22/4/1 20/4/1 19/4/1
f 23/4/1 21/4/1 17/4/1
f 24/4/1 21/4/1 23/4/1
f 25/4/1 20/4/1 22/4/1
f 26/4/1 20/4/1 25/4/1
f 27/2/1 25/2/1 24/2/1
f 28/2/1 25/2/1 27/2/1
f 33/4/1 30/4/1 29/4/1
f 34/4/1 30/4/1 33/4/1
f 35/4/1 32/4/1 31/4/1
f 36/4/1 32/4/1 35/4/1
f 37/4/1 35/4/1 34/4/1
f 38/4/1 35/4/1 37/4/1
f 43/1/1 40/1/1 39/1/1
f 44/1/1 40/1/1 43/1/1
f 45/1/1 42/1/1 41/1/1
f 46/1/1 42/1/1 45/1/1
f 51/1/1 48/1/1 47/1/1
f 52/1/1 48/1/1 51/1/1
f 53/1/1 50/1/1 49/1/1
f 54/1/1 50/1/1 53/1/1
f 59/1/1 56/1/1 55/1/1
f 60/1/1 56/1/1 59/1/1
f 61/1/1 58/1/1 57/1/1
f 62/1/1 58/1/1 61/1/1
f 67/1/1 64/1/1 63/1/1
f 68/1/1 64/1/1 67/1/1
f 69/1/1 66/1/1 65/1/1
f 70/1/1 66/1/1 69/1/1
f 71/1/2 72/1/2 75/1/2
f 75/1/2 72/1/2 76/1/2
f 73/1/2 74/1/2 77/1/2
f 77/1/2 74/1/2 78/1/2
f 79/1/2 80/1/2 83/1/2
f 83/1/2 80/1/2 84/1/2
f 81/1/2 82/1/2 85/1/2
f 85/1/2 82/1/2 86/1/2
f 87/1/2 88/1/2 91/1/2
f 91/1/2 88/1/2 92/1/2
f 89/1/2 90/1/2 93/1/2
f 93/1/2 90/1/2 94/1/2
f 95/1/2 96/1/2 99/1/2
f 99/1/2 96/1/2 100/1/2
f 97/1/2 98/1/2 101/1/2
f 101/1/2 98/1/2 102/1/2
f 103/4/2 104/4/2 107/4/2
f 107/4/2 104/4/2 108/4/2
f 105/4/2 106/4/2 109/4/2
f 109/4/2 106/4/2 110/4/2
f 108/4/2 109/4/2 111/4/2
f 111/4/2 109/4/2 112/4/2
f 113/1/2 114/1/2 117/1/2
f 117/1/2 114/1/2 118/1/2
f 115/1/2 116/1/2 119/1/2
f 119/1/2 116/1/2 120/1/2
f 117/4/2 118/4/2 121/4/2
f 119/4/2 120/4/2 122/4/2
f 117/4/2 121/4/2 123/4/2
f 123/4/2 121/4/2 124/4/2
f 122/4/2 120/4/2 125/4/2
f 125/4/2 120/4/2 126/4/2
f 124/2/2 125/2/2 127/2/2
f 127/2/2 125/2/2 128/2/2
f 129/1/2 130/1/2 131/1/2
f 131/1/2 130/1/2 132/1/2
f 132/1/2 130/1/2 133/1/2
f 133/1/2 130/1/2 134/1/2
f 131/3/2 132/3/2 135/3/2
f 132/4/2 133/4/2 136/4/2
f 135/3/2 132/3/2 136/3/2
f 133/3/2 134/3/2 137/3/2
f 136/4/2 133/4/2 137/4/2
f 137/3/2 134/3/2 138/3/2
f 135/4/2 136/4/2 139/4/2
f 136/4/2 137/4/2 139/4/2
f 137/4/2 138/4/2 139/4/2
f 139/4/2 138/4/2 140/4/2
f 144/4/3 143/4/3 142/4/3
f 146/1/3 142/1/3 141/1/3
f 147/4/3 145/4/3 144/4/3
f 147/1/3 142/1/3 146/1/3
f 147/4/3 144/4/3 142/4/3
f 148/4/3 145/4/3 147/4/3
f 149/4/3 145/4/3 148/4/3
f 151/4/3 148/4/3 147/4/3
f 152/2/3 149/2/3 148/2/3
f 152/4/3 148/4/3 151/4/3
f 153/2/3 149/2/3 152/2/3
f 154/1/3 151/1/3 150/1/3
f 155/4/3 152/4/3 151/4/3
f 155/1/3 151/1/3 154/1/3
f 155/4/3 153/4/3 152/4/3
f 156/4/3 153/4/3 155/4/3
f 157/4/3 153/4/3 156/4/3
f 159/4/3 156/4/3 155/4/3
f 160/2/3 157/2/3 156/2/3
f 160/4/3 156/4/3 159/4/3
f 161/2/3 157/2/3 160/2/3
f 162/4/3 160/4/3 159/4/3
f 162/4/3 161/4/3 160/4/3
f 163/4/3 161/4/3 162/4/3
f 164/1/3 159/1/3 158/1/3
f 165/4/3 162/4/3 159/4/3
f 165/1/3 159/1/3 164/1/3
f 167/4/3 162/4/3 165/4/3
f 168/2/3 163/2/3 162/2/3
f 168/4/3 162/4/3 167/4/3
f 169/2/3 163/2/3 168/2/3
f 170/1/3 167/1/3 166/1/3
f 171/4/3 168/4/3 167/4/3
f 171/1/3 167/1/3 170/1/3
f 171/4/3 169/4/3 168/4/3
f 172/4/3 169/4/3 171/4/3
f 173/4/3 169/4/3 172/4/3
f 175/4/3 172/4/3 171/4/3
f 176/2/3 173/2/3 172/2/3
f 176/4/3 172/4/3 175/4/3
f 177/2/3 173/2/3 176/2/3
f 178/4/3 176/4/3 175/4/3
f 178/4/3 177/4/3 176/4/3
f 179/4/3 177/4/3 178/4/3
f 180/1/3 175/1/3 174/1/3
f 181/4/3 178/4/3 175/4/3
f 181/1/3 175/1/3 180/1/3
f 182/4/3 178/4/3 181/4/3
f 187/1/3 184/1/3 183/1/3
f 188/3/3 185/3/3 184/3/3
f 188/1/3 184/1/3 187/1/3
f 189/4/3 186/4/3 185/4/3
f 189/3/3 185/3/3 188/3/3
f 190/4/3 186/4/3 189/4/3
f 192/2/3 191/2/3 190/2/3
f 193/2/3 191/2/3 192/2/3
f 197/4/3 194/4/3 193/4/3
f 198/1/3 196/1/3 195/1/3
f 199/1/3 196/1/3 198/1/3
f 200/4/3 194/4/3 197/4/3
f 203/4/3 194/4/3 200/4/3
f 204/1/3 202/1/3 201/1/3
f 205/1/3 202/1/3 204/1/3
f 206/4/3 194/4/3 203/4/3
f 207/4/3 194/4/3 206/4/3
f 210/1/3 209/1/3 208/1/3
f 211/1/3 209/1/3 210/1/3
f 212/4/3 194/4/3 207/4/3
f 215/4/3 194/4/3 212/4/3
f 216/1/3 214/1/3 213/1/3
f 217/1/3 214/1/3 216/1/3
f 218/4/3 194/4/3 215/4/3
f 220/4/3 194/4/3 218/4/3
f 221/4/3 194/4/3 220/4/3
f 225/2/3 220/2/3 219/2/3
f 226/2/3 220/2/3 225/2/3
f 227/1/3 223/1/3 222/1/3
f 228/3/3 224/3/3 223/3/3
f 228/1/3 223/1/3 227/1/3
f 229/4/3 225/4/3 224/4/3
f 229/3/3 224/3/3 228/3/3
f 230/4/3 225/4/3 229/4/3
f 231/1/4 232/1/4 235/1/4
f 232/3/4 233/3/4 236/3/4
f 235/1/4 232/1/4 236/1/4
f 233/4/4 234/4/4 237/4/4
f 236/3/4 233/3/4 237/3/4
f 237/4/4 234/4/4 238/4/4
f 238/2/4 239/2/4 240/2/4
f 240/2/4 239/2/4 241/2/4
f 241/4/4 242/4/4 245/4/4
f 243/1/4 244/1/4 246/1/4
f 246/1/4 244/1/4 247/1/4
f 245/4/4 242/4/4 248/4/4
f 248/4/4 242/4/4 251/4/4
f 249/1/4 250/1/4 252/1/4
f 252/1/4 250/1/4 253/1/4
f 251/4/4 242/4/4 254/4/4
f 254/4/4 242/4/4 255/4/4
f 256/1/4 257/1/4 258/1/4
f 258/1/4 257/1/4 259/1/4
f 255/4/4 242/4/4 260/4/4
f 260/4/4 242/4/4 263/4/4
f 261/1/4 262/1/4 264/1/4
f 264/1/4 262/1/4 265/1/4
f 263/4/4 242/4/4 266/4/4
f 266/4/4 242/4/4 268/4/4
f 268/4/4 242/4/4 269/4/4
f 267/2/4 268/2/4 273/2/4
f 273/2/4 268/2/4 274/2/4
f 270/1/4 271/1/4 275/1/4
f 271/3/4 272/3/4 276/3/4
f 275/1/4 271/1/4 276/1/4
f 272/4/4 273/4/4 277/4/4
f 276/3/4 272/3/4 277/3/4
f 277/4/4 273/4/4 278/4/4
f 280/4/4 281/4/4 282/4/4
f 279/1/4 280/1/4 284/1/4
f 282/4/4 283/4/4 285/4/4
f 284/1/4 280/1/4 285/1/4
f 280/4/4 282/4/4 285/4/4
f 285/4/4 283/4/4 286/4/4
f 286/4/4 283/4/4 287/4/4
f 285/4/4 286/4/4 289/4/4
f 286/2/4 287/2/4 290/2/4
f 289/4/4 286/4/4 290/4/4
f 290/2/4 287/2/4 291/2/4
f 288/1/4 289/1/4 292/1/4
f 289/4/4 290/4/4 293/4/4
f 292/1/4 289/1/4 293/1/4
f 290/4/4 291/4/4 293/4/4
f 293/4/4 291/4/4 294/4/4
f 294/4/4 291/4/4 295/4/4
f 293/4/4 294/4/4 297/4/4
f 294/2/4 295/2/4 298/2/4
f 297/4/4 294/4/4 298/4/4
f 298/2/4 295/2/4 299/2/4
f 297/4/4 298/4/4 300/4/4
f 298/4/4 299/4/4 300/4/4
f 300/4/4 299/4/4 301/4/4
f 296/1/4 297/1/4 302/1/4
f 297/4/4 300/4/4 303/4/4
f 302/1/4 297/1/4 303/1/4
f 303/4/4 300/4/4 305/4/4
f 300/2/4 301/2/4 306/2/4
f 305/4/4 300/4/4 306/4/4
f 306/2/4 301/2/4 307/2/4
f 304/1/4 305/1/4 308/1/4
f 305/4/4 306/4/4 309/4/4
f 308/1/4 305/1/4 309/1/4
f 306/4/4 307/4/4 309/4/4
f 309/4/4 307/4/4 310/4/4
f 310/4/4 307/4/4 311/4/4
f 309/4/4 310/4/4 313/4/4
f 310/2/4 311/2/4 314/2/4
f 313/4/4 310/4/4 314/4/4
f 314/2/4 311/2/4 315/2/4
f 313/4/4 314/4/4 316/4/4
f 314/4/4 315/4/4 316/4/4
f 316/4/4 315/4/4 317/4/4
f 312/1/4 313/1/4 318/1/4
f 313/4/4 316/4/4 319/4/4
f 318/1/4 313/1/4 319/1/4
f 319/4/4 316/4/4 320/4/4
f 332/1/5 322/1/5 321/1/5
f 333/1/5 322/1/5 332/1/5
f 334/1/5 324/1/5 323/1/5
f 335/1/5 324/1/5 334/1/5
f 336/1/5 326/1/5 325/1/5
f 337/1/5 326/1/5 336/1/5
f 338/1/5 328/1/5 327/1/5
f 339/1/5 328/1/5 338/1/5
f 340/1/5 330/1/5 329/1/5
f 341/1/5 330/1/5 340/1/5
f 343/1/5 339/1/5 338/1/5
f 343/1/5 342/1/5 341/1/5
f 343/1/5 341/1/5 340/1/5
f 343/1/5 340/1/5 339/1/5
f 343/1/5 333/1/5 332/1/5
f 343/1/5 338/1/5 337/1/5
f 343/1/5 335/1/5 334/1/5
f 343/1/5 336/1/5 335/1/5
f 343/1/5 337/1/5 336/1/5
f 343/1/5 334/1/5 333/1/5
f 343/1/5 332/1/5 331/1/5
f 344/1/5 342/1/5 343/1/5
f 345/1/5 342/1/5 344/1/5
f 346/1/5 342/1/5 345/1/5
f 347/1/5 342/1/5 346/1/5
f 348/1/5 342/1/5 347/1/5
f 349/1/5 342/1/5 348/1/5
f 350/1/5 342/1/5 349/1/5
f 351/1/5 342/1/5 350/1/5
f 352/1/5 342/1/5 351/1/5
f 353/1/5 342/1/5 352/1/5
f 354/1/5 342/1/5 353/1/5
f 355/1/5 345/1/5 344/1/5
f 356/1/5 345/1/5 355/1/5
f 357/1/5 347/1/5 346/1/5
f 358/1/5 347/1/5 357/1/5
f 359/1/5 349/1/5 348/1/5
f 360/1/5 349/1/5 359/1/5
f 361/1/5 351/1/5 350/1/5
f 362/1/5 351/1/5 361/1/5
f 363/1/5 353/1/5 352/1/5
f 364/1/5 353/1/5 363/1/5
f 373/4/5 366/4/5 365/4/5
f 374/4/5 366/4/5 373/4/5
f 375/4/5 368/4/5 367/4/5
f 376/4/5 368/4/5 375/4/5
f 377/4/5 370/4/5 369/4/5
f 378/4/5 370/4/5 377/4/5
f 379/4/5 372/4/5 371/4/5
f 380/4/5 372/4/5 379/4/5
f 389/4/5 382/4/5 381/4/5
f 390/4/5 382/4/5 389/4/5
f 391/4/5 384/4/5 383/4/5
f 392/4/5 384/4/5 391/4/5
f 393/4/5 386/4/5 385/4/5
f 394/4/5 386/4/5 393/4/5
f 395/4/5 388/4/5 387/4/5
f 396/4/5 388/4/5 395/4/5
f 397/4/6 398/4/6 402/4/6
f 402/4/6 398/4/6 403/4/6
f 399/4/6 400/4/6 404/4/6
f 404/4/6 400/4/6 405/4/6
f 401/4/6 402/4/6 407/4/6
f 407/4/6 402/4/6 408/4/6
f 405/4/6 406/4/6 411/4/6
f 411/4/6 406/4/6 412/4/6
f 408/4/6 409/4/6 413/4/6
f 413/4/6 409/4/6 414/4/6
f 410/4/6 411/4/6 415/4/6
f 415/4/6 411/4/6 416/4/6
f 417/4/6 418/4/6 428/4/6
f 418/2/6 419/2/6 429/2/6
f 428/4/6 418/4/6 429/4/6
f 419/4/6 420/4/6 430/4/6
f 429/2/6 419/2/6 430/2/6
f 420/2/6 421/2/6 431/2/6
f 430/4/6 420/4/6 431/4/6
f 421/4/6 422/4/6 432/4/6
f 431/2/6 421/2/6 432/2/6
f 422/2/6 423/2/6 433/2/6
f 432/4/6 422/4/6 433/4/6
f 423/4/6 424/4/6 434/4/6
f 433/2/6 423/2/6 434/2/6
f 424/2/6 425/2/6 435/2/6
f 434/4/6 424/4/6 435/4/6
f 425/4/6 426/4/6 436/4/6
f 435/2/6 425/2/6 436/2/6
f 436/4/6 426/4/6 437/4/6
f 427/2/6 428/2/6 439/2/6
f 439/2/6 428/2/6 440/2/6
f 437/2/6 438/2/6 449/2/6
f 449/2/6 438/2/6 450/2/6
f 440/4/6 441/4/6 451/4/6
f 441/2/6 442/2/6 452/2/6
f 451/4/6 441/4/6 452/4/6
f 442/4/6 443/4/6 453/4/6
f 452/2/6 442/2/6 453/2/6
f 443/2/6 444/2/6 454/2/6
f 453/4/6 443/4/6 454/4/6
f 444/4/6 445/4/6 455/4/6
f 454/2/6 444/2/6 455/2/6
f 445/2/6 446/2/6 456/2/6
f 455/4/6 445/4/6 456/4/6
f 446/4/6 447/4/6 457/4/6
f 456/2/6 446/2/6 457/2/6
f 447/2/6 448/2/6 458/2/6
f 457/4/6 447/4/6 458/4/6
f 448/4/6 449/4/6 459/4/6
f 458/2/6 448/2/6 459/2/6
f 459/4/6 449/4/6 460/4/6
f 461/4/6 462/4/6 463/4/6
f 463/4/6 462/4/6 464/4/6
