# MagicaVoxel @ Ephtracy

# group
o 

# material
mtllib desert-city-rounded-edge-outer-2.mtl
usemtl palette

# normals
vn -1 0 0
vn 1 0 0
vn 0 0 1
vn 0 0 -1
vn 0 -1 0
vn 0 1 0

# texcoords
vt 0.876953 0.5
vt 0.880859 0.5
vt 0.884766 0.5
vt 0.888672 0.5
vt 0.892578 0.5
vt 0.896484 0.5
vt 0.900391 0.5
vt 0.904297 0.5
vt 0.978516 0.5
vt 0.982422 0.5

# verts
v -1.6 0 1.6
v -1.6 0 -1.6
v -1.6 0.2 1.6
v -1.6 0.2 -1.6
v 1.6 0 1.6
v 1.6 0 -1.6
v 1.6 0.1 0.1
v 1.6 0.1 0
v 1.6 0.1 -0.1
v 1.6 0.1 -0.5
v 1.6 0.1 -0.6
v 1.6 0.1 -0.8
v 1.6 0.1 -1
v 1.6 0.1 -1.1
v 1.6 0.1 -1.2
v 1.6 0.1 -1.6
v 1.6 0.2 1.6
v 1.6 0.2 0.1
v 1.6 0.2 0
v 1.6 0.2 -0.1
v 1.6 0.2 -0.5
v 1.6 0.2 -0.6
v 1.6 0.2 -0.8
v 1.6 0.2 -1
v 1.6 0.2 -1.1
v 1.6 0.2 -1.2
v 1.6 0.2 -1.6
v -1.6 0 1.6
v -1.6 0.2 1.6
v 1.6 0 1.6
v 1.6 0.2 1.6
v -1.6 0 -1.6
v -1.6 0.2 -1.6
v -0.1 0.1 -1.6
v -0.1 0.2 -1.6
v 0 0.1 -1.6
v 0 0.2 -1.6
v 0.1 0.1 -1.6
v 0.1 0.2 -1.6
v 0.3 0.1 -1.6
v 0.3 0.2 -1.6
v 0.4 0.1 -1.6
v 0.4 0.2 -1.6
v 0.5 0.1 -1.6
v 0.5 0.2 -1.6
v 1 0.1 -1.6
v 1 0.2 -1.6
v 1.1 0.1 -1.6
v 1.1 0.2 -1.6
v 1.3 0.1 -1.6
v 1.3 0.2 -1.6
v 1.6 0 -1.6
v 1.6 0.1 -1.6
v 1.6 0.2 -1.6
v -1.6 0 1.6
v 1.6 0 1.6
v -1.6 0 -1.6
v 1.6 0 -1.6
v -1.6 0.2 1.6
v 1.6 0.2 1.6
v 1.2 0.2 0.1
v 1.6 0.2 0.1
v 0.8 0.2 0
v 1.2 0.2 0
v 1.3 0.2 0
v 1.4 0.2 0
v 1.6 0.2 0
v 0.6 0.2 -0.1
v 0.8 0.2 -0.1
v 1 0.2 -0.1
v 1.1 0.2 -0.1
v 1.2 0.2 -0.1
v 1.3 0.2 -0.1
v 1.4 0.2 -0.1
v 1.5 0.2 -0.1
v 1.6 0.2 -0.1
v 0.5 0.2 -0.2
v 0.6 0.2 -0.2
v 0.8 0.2 -0.2
v 0.9 0.2 -0.2
v 1 0.2 -0.2
v 1.1 0.2 -0.2
v 1.2 0.2 -0.2
v 1.3 0.2 -0.2
v 0.4 0.2 -0.3
v 0.5 0.2 -0.3
v 0.6 0.2 -0.3
v 0.7 0.2 -0.3
v 0.8 0.2 -0.3
v 0.9 0.2 -0.3
v 1 0.2 -0.3
v 1.1 0.2 -0.3
v 1.2 0.2 -0.3
v 1.3 0.2 -0.3
v 1.4 0.2 -0.3
v 0.3 0.2 -0.4
v 0.4 0.2 -0.4
v 0.5 0.2 -0.4
v 0.6 0.2 -0.4
v 0.7 0.2 -0.4
v 0.8 0.2 -0.4
v 0.9 0.2 -0.4
v 1.2 0.2 -0.4
v 1.3 0.2 -0.4
v 1.4 0.2 -0.4
v 1.5 0.2 -0.4
v 0.2 0.2 -0.5
v 0.3 0.2 -0.5
v 0.4 0.2 -0.5
v 0.5 0.2 -0.5
v 0.6 0.2 -0.5
v 0.7 0.2 -0.5
v 0.8 0.2 -0.5
v 0.9 0.2 -0.5
v 1.2 0.2 -0.5
v 1.4 0.2 -0.5
v 1.5 0.2 -0.5
v 1.6 0.2 -0.5
v 0.1 0.2 -0.6
v 0.2 0.2 -0.6
v 0.3 0.2 -0.6
v 0.4 0.2 -0.6
v 0.5 0.2 -0.6
v 0.8 0.2 -0.6
v 0.9 0.2 -0.6
v 1 0.2 -0.6
v 1.3 0.2 -0.6
v 1.4 0.2 -0.6
v 1.5 0.2 -0.6
v 1.6 0.2 -0.6
v 0.2 0.2 -0.7
v 0.3 0.2 -0.7
v 0.4 0.2 -0.7
v 0.8 0.2 -0.7
v 0.9 0.2 -0.7
v 1.1 0.2 -0.7
v 1.2 0.2 -0.7
v 1.3 0.2 -0.7
v 1.4 0.2 -0.7
v 0 0.2 -0.8
v 0.1 0.2 -0.8
v 0.2 0.2 -0.8
v 0.3 0.2 -0.8
v 0.8 0.2 -0.8
v 1 0.2 -0.8
v 1.1 0.2 -0.8
v 1.2 0.2 -0.8
v 1.4 0.2 -0.8
v 1.5 0.2 -0.8
v 1.6 0.2 -0.8
v 0.1 0.2 -0.9
v 0.2 0.2 -0.9
v 0.3 0.2 -0.9
v 0.5 0.2 -0.9
v 0.8 0.2 -0.9
v 0.9 0.2 -0.9
v 1.1 0.2 -0.9
v 1.2 0.2 -0.9
v 1.4 0.2 -0.9
v 1.5 0.2 -0.9
v 0.1 0.2 -1
v 0.2 0.2 -1
v 0.3 0.2 -1
v 0.5 0.2 -1
v 0.8 0.2 -1
v 0.9 0.2 -1
v 1 0.2 -1
v 1.1 0.2 -1
v 1.2 0.2 -1
v 1.3 0.2 -1
v 1.5 0.2 -1
v 1.6 0.2 -1
v 0.2 0.2 -1.1
v 0.3 0.2 -1.1
v 0.6 0.2 -1.1
v 0.7 0.2 -1.1
v 0.8 0.2 -1.1
v 1.1 0.2 -1.1
v 1.2 0.2 -1.1
v 1.3 0.2 -1.1
v 1.5 0.2 -1.1
v 1.6 0.2 -1.1
v -0.1 0.2 -1.2
v 0 0.2 -1.2
v 0.1 0.2 -1.2
v 0.2 0.2 -1.2
v 0.3 0.2 -1.2
v 0.6 0.2 -1.2
v 0.7 0.2 -1.2
v 0.8 0.2 -1.2
v 0.9 0.2 -1.2
v 1.1 0.2 -1.2
v 1.2 0.2 -1.2
v 1.5 0.2 -1.2
v 1.6 0.2 -1.2
v 0 0.2 -1.3
v 0.1 0.2 -1.3
v 0.2 0.2 -1.3
v 0.3 0.2 -1.3
v 0.7 0.2 -1.3
v 0.8 0.2 -1.3
v 0.9 0.2 -1.3
v 1 0.2 -1.3
v 0.5 0.2 -1.4
v 0.7 0.2 -1.4
v 0.8 0.2 -1.4
v 0.9 0.2 -1.4
v 1 0.2 -1.4
v 1.2 0.2 -1.4
v 1.3 0.2 -1.4
v 0 0.2 -1.5
v 0.1 0.2 -1.5
v 0.3 0.2 -1.5
v 0.4 0.2 -1.5
v 0.5 0.2 -1.5
v 0.7 0.2 -1.5
v 0.8 0.2 -1.5
v 0.9 0.2 -1.5
v 1 0.2 -1.5
v 1.1 0.2 -1.5
v -1.6 0.2 -1.6
v -0.1 0.2 -1.6
v 0 0.2 -1.6
v 0.1 0.2 -1.6
v 0.3 0.2 -1.6
v 0.4 0.2 -1.6
v 0.5 0.2 -1.6
v 1 0.2 -1.6
v 1.1 0.2 -1.6
v 1.3 0.2 -1.6
v 1.6 0.2 -1.6

# faces
f 3/9/1 2/9/1 1/9/1
f 4/9/1 2/9/1 3/9/1
f 5/9/2 6/9/2 7/9/2
f 7/9/2 6/9/2 8/9/2
f 8/9/2 6/9/2 9/9/2
f 9/9/2 6/9/2 10/9/2
f 10/9/2 6/9/2 11/9/2
f 11/9/2 6/9/2 12/9/2
f 12/9/2 6/9/2 13/9/2
f 13/9/2 6/9/2 14/9/2
f 14/9/2 6/9/2 15/9/2
f 15/9/2 6/9/2 16/9/2
f 5/9/2 7/9/2 17/9/2
f 7/10/2 8/10/2 18/10/2
f 17/9/2 7/9/2 18/9/2
f 8/7/2 9/7/2 19/7/2
f 18/10/2 8/10/2 19/10/2
f 9/1/2 10/1/2 20/1/2
f 19/7/2 9/7/2 20/7/2
f 10/2/2 11/2/2 21/2/2
f 20/1/2 10/1/2 21/1/2
f 11/4/2 12/4/2 22/4/2
f 21/2/2 11/2/2 22/2/2
f 12/1/2 13/1/2 23/1/2
f 22/4/2 12/4/2 23/4/2
f 13/2/2 14/2/2 24/2/2
f 23/1/2 13/1/2 24/1/2
f 14/1/2 15/1/2 25/1/2
f 24/2/2 14/2/2 25/2/2
f 15/2/2 16/2/2 26/2/2
f 25/1/2 15/1/2 26/1/2
f 26/2/2 16/2/2 27/2/2
f 30/9/3 29/9/3 28/9/3
f 31/9/3 29/9/3 30/9/3
f 32/9/4 33/9/4 34/9/4
f 34/9/4 33/9/4 35/9/4
f 32/9/4 34/9/4 36/9/4
f 34/10/4 35/10/4 36/10/4
f 36/10/4 35/10/4 37/10/4
f 32/9/4 36/9/4 38/9/4
f 36/8/4 37/8/4 38/8/4
f 38/8/4 37/8/4 39/8/4
f 32/9/4 38/9/4 40/9/4
f 38/3/4 39/3/4 40/3/4
f 40/3/4 39/3/4 41/3/4
f 32/9/4 40/9/4 42/9/4
f 40/1/4 41/1/4 42/1/4
f 42/1/4 41/1/4 43/1/4
f 32/9/4 42/9/4 44/9/4
f 42/2/4 43/2/4 44/2/4
f 44/2/4 43/2/4 45/2/4
f 32/9/4 44/9/4 46/9/4
f 44/3/4 45/3/4 46/3/4
f 46/3/4 45/3/4 47/3/4
f 32/9/4 46/9/4 48/9/4
f 46/2/4 47/2/4 48/2/4
f 48/2/4 47/2/4 49/2/4
f 32/9/4 48/9/4 50/9/4
f 48/1/4 49/1/4 50/1/4
f 50/1/4 49/1/4 51/1/4
f 32/9/4 50/9/4 52/9/4
f 50/2/4 51/2/4 53/2/4
f 52/9/4 50/9/4 53/9/4
f 53/2/4 51/2/4 54/2/4
f 57/9/5 56/9/5 55/9/5
f 58/9/5 56/9/5 57/9/5
f 59/9/6 60/9/6 61/9/6
f 61/9/6 60/9/6 62/9/6
f 59/9/6 61/9/6 63/9/6
f 61/10/6 62/10/6 64/10/6
f 63/9/6 61/9/6 64/9/6
f 64/10/6 62/10/6 65/10/6
f 65/10/6 62/10/6 66/10/6
f 66/10/6 62/10/6 67/10/6
f 59/9/6 63/9/6 68/9/6
f 63/10/6 64/10/6 69/10/6
f 68/9/6 63/9/6 69/9/6
f 69/10/6 64/10/6 70/10/6
f 70/10/6 64/10/6 71/10/6
f 64/8/6 65/8/6 72/8/6
f 71/10/6 64/10/6 72/10/6
f 65/6/6 66/6/6 73/6/6
f 72/8/6 65/8/6 73/8/6
f 66/7/6 67/7/6 74/7/6
f 73/6/6 66/6/6 74/6/6
f 74/7/6 67/7/6 75/7/6
f 75/7/6 67/7/6 76/7/6
f 59/9/6 68/9/6 77/9/6
f 68/10/6 69/10/6 78/10/6
f 77/9/6 68/9/6 78/9/6
f 69/8/6 70/8/6 79/8/6
f 78/10/6 69/10/6 79/10/6
f 79/8/6 70/8/6 80/8/6
f 70/7/6 71/7/6 81/7/6
f 80/8/6 70/8/6 81/8/6
f 71/8/6 72/8/6 82/8/6
f 81/7/6 71/7/6 82/7/6
f 72/5/6 73/5/6 83/5/6
f 82/8/6 72/8/6 83/8/6
f 73/2/6 74/2/6 84/2/6
f 83/5/6 73/5/6 84/5/6
f 74/2/6 75/2/6 84/2/6
f 59/9/6 77/9/6 85/9/6
f 77/10/6 78/10/6 86/10/6
f 85/9/6 77/9/6 86/9/6
f 78/6/6 79/6/6 87/6/6
f 86/10/6 78/10/6 87/10/6
f 87/6/6 79/6/6 88/6/6
f 79/5/6 80/5/6 89/5/6
f 88/6/6 79/6/6 89/6/6
f 80/1/6 81/1/6 90/1/6
f 89/5/6 80/5/6 90/5/6
f 81/1/6 82/1/6 90/1/6
f 82/1/6 83/1/6 90/1/6
f 90/1/6 83/1/6 91/1/6
f 91/1/6 83/1/6 92/1/6
f 83/2/6 84/2/6 93/2/6
f 92/1/6 83/1/6 93/1/6
f 84/2/6 75/2/6 94/2/6
f 93/2/6 84/2/6 94/2/6
f 94/2/6 75/2/6 95/2/6
f 59/9/6 85/9/6 96/9/6
f 85/10/6 86/10/6 97/10/6
f 96/9/6 85/9/6 97/9/6
f 86/8/6 87/8/6 98/8/6
f 97/10/6 86/10/6 98/10/6
f 87/5/6 88/5/6 99/5/6
f 98/8/6 87/8/6 99/8/6
f 88/1/6 89/1/6 100/1/6
f 99/5/6 88/5/6 100/5/6
f 89/3/6 90/3/6 101/3/6
f 100/1/6 89/1/6 101/1/6
f 90/2/6 91/2/6 102/2/6
f 101/3/6 90/3/6 102/3/6
f 92/2/6 93/2/6 103/2/6
f 93/2/6 94/2/6 103/2/6
f 94/4/6 95/4/6 104/4/6
f 103/2/6 94/2/6 104/2/6
f 95/2/6 75/2/6 105/2/6
f 104/4/6 95/4/6 105/4/6
f 75/1/6 76/1/6 106/1/6
f 105/2/6 75/2/6 106/2/6
f 59/9/6 96/9/6 107/9/6
f 96/10/6 97/10/6 108/10/6
f 107/9/6 96/9/6 108/9/6
f 97/7/6 98/7/6 109/7/6
f 108/10/6 97/10/6 109/10/6
f 98/3/6 99/3/6 110/3/6
f 109/7/6 98/7/6 110/7/6
f 99/1/6 100/1/6 111/1/6
f 110/3/6 99/3/6 111/3/6
f 100/2/6 101/2/6 112/2/6
f 111/1/6 100/1/6 112/1/6
f 101/1/6 102/1/6 113/1/6
f 112/2/6 101/2/6 113/2/6
f 102/2/6 91/2/6 114/2/6
f 113/1/6 102/1/6 114/1/6
f 103/3/6 104/3/6 115/3/6
f 104/3/6 105/3/6 115/3/6
f 92/2/6 103/2/6 115/2/6
f 105/1/6 106/1/6 116/1/6
f 115/3/6 105/3/6 116/3/6
f 106/1/6 76/1/6 117/1/6
f 116/1/6 106/1/6 117/1/6
f 117/1/6 76/1/6 118/1/6
f 59/9/6 107/9/6 119/9/6
f 107/10/6 108/10/6 120/10/6
f 119/9/6 107/9/6 120/9/6
f 108/6/6 109/6/6 121/6/6
f 120/10/6 108/10/6 121/10/6
f 109/5/6 110/5/6 122/5/6
f 121/6/6 109/6/6 122/6/6
f 112/1/6 113/1/6 123/1/6
f 122/5/6 110/5/6 123/5/6
f 110/1/6 111/1/6 123/1/6
f 111/1/6 112/1/6 123/1/6
f 113/3/6 114/3/6 124/3/6
f 123/1/6 113/1/6 124/1/6
f 114/2/6 91/2/6 125/2/6
f 124/3/6 114/3/6 125/3/6
f 91/3/6 92/3/6 126/3/6
f 125/2/6 91/2/6 126/2/6
f 115/1/6 116/1/6 127/1/6
f 116/1/6 117/1/6 127/1/6
f 127/1/6 117/1/6 128/1/6
f 117/2/6 118/2/6 129/2/6
f 128/1/6 117/1/6 129/1/6
f 129/2/6 118/2/6 130/2/6
f 119/10/6 120/10/6 131/10/6
f 120/8/6 121/8/6 131/8/6
f 121/5/6 122/5/6 132/5/6
f 131/8/6 121/8/6 132/8/6
f 123/3/6 124/3/6 133/3/6
f 132/5/6 122/5/6 133/5/6
f 124/3/6 125/3/6 133/3/6
f 122/3/6 123/3/6 133/3/6
f 125/3/6 126/3/6 133/3/6
f 133/3/6 126/3/6 134/3/6
f 134/3/6 126/3/6 135/3/6
f 126/3/6 92/3/6 136/3/6
f 135/3/6 126/3/6 136/3/6
f 92/2/6 115/2/6 136/2/6
f 115/1/6 127/1/6 137/1/6
f 136/2/6 115/2/6 137/2/6
f 127/2/6 128/2/6 138/2/6
f 137/1/6 127/1/6 138/1/6
f 128/4/6 129/4/6 139/4/6
f 138/2/6 128/2/6 139/2/6
f 129/4/6 130/4/6 139/4/6
f 59/9/6 119/9/6 140/9/6
f 119/10/6 131/10/6 141/10/6
f 140/9/6 119/9/6 141/9/6
f 131/7/6 132/7/6 142/7/6
f 141/10/6 131/10/6 142/10/6
f 132/3/6 133/3/6 143/3/6
f 142/7/6 132/7/6 143/7/6
f 133/3/6 134/3/6 143/3/6
f 134/1/6 135/1/6 144/1/6
f 143/3/6 134/3/6 144/3/6
f 135/3/6 136/3/6 145/3/6
f 137/4/6 138/4/6 146/4/6
f 145/3/6 136/3/6 146/3/6
f 136/4/6 137/4/6 146/4/6
f 138/4/6 139/4/6 146/4/6
f 146/4/6 139/4/6 147/4/6
f 139/4/6 130/4/6 148/4/6
f 147/4/6 139/4/6 148/4/6
f 148/4/6 130/4/6 149/4/6
f 149/4/6 130/4/6 150/4/6
f 140/10/6 141/10/6 151/10/6
f 141/8/6 142/8/6 151/8/6
f 142/5/6 143/5/6 152/5/6
f 151/8/6 142/8/6 152/8/6
f 143/2/6 144/2/6 153/2/6
f 152/5/6 143/5/6 153/5/6
f 153/2/6 144/2/6 154/2/6
f 144/1/6 135/1/6 155/1/6
f 154/2/6 144/2/6 155/2/6
f 135/3/6 145/3/6 156/3/6
f 155/1/6 135/1/6 156/1/6
f 146/3/6 147/3/6 157/3/6
f 145/2/6 146/2/6 157/2/6
f 147/2/6 148/2/6 158/2/6
f 157/3/6 147/3/6 158/3/6
f 148/4/6 149/4/6 159/4/6
f 158/2/6 148/2/6 159/2/6
f 149/1/6 150/1/6 160/1/6
f 159/4/6 149/4/6 160/4/6
f 140/10/6 151/10/6 161/10/6
f 151/6/6 152/6/6 161/6/6
f 153/2/6 154/2/6 162/2/6
f 161/6/6 152/6/6 162/6/6
f 152/2/6 153/2/6 162/2/6
f 162/2/6 154/2/6 163/2/6
f 154/3/6 155/3/6 164/3/6
f 163/2/6 154/2/6 164/2/6
f 155/3/6 156/3/6 164/3/6
f 164/3/6 156/3/6 165/3/6
f 156/3/6 145/3/6 166/3/6
f 165/3/6 156/3/6 166/3/6
f 158/2/6 159/2/6 167/2/6
f 166/3/6 145/3/6 167/3/6
f 159/2/6 160/2/6 167/2/6
f 145/2/6 157/2/6 167/2/6
f 157/2/6 158/2/6 167/2/6
f 167/2/6 160/2/6 168/2/6
f 168/2/6 160/2/6 169/2/6
f 169/2/6 160/2/6 170/2/6
f 160/1/6 150/1/6 171/1/6
f 170/2/6 160/2/6 171/2/6
f 171/1/6 150/1/6 172/1/6
f 162/3/6 163/3/6 173/3/6
f 161/7/6 162/7/6 173/7/6
f 164/2/6 165/2/6 174/2/6
f 173/3/6 163/3/6 174/3/6
f 163/2/6 164/2/6 174/2/6
f 174/2/6 165/2/6 175/2/6
f 175/2/6 165/2/6 176/2/6
f 165/4/6 166/4/6 177/4/6
f 176/2/6 165/2/6 177/2/6
f 166/3/6 167/3/6 178/3/6
f 167/3/6 168/3/6 178/3/6
f 168/2/6 169/2/6 178/2/6
f 169/4/6 170/4/6 179/4/6
f 178/2/6 169/2/6 179/2/6
f 170/2/6 171/2/6 180/2/6
f 179/4/6 170/4/6 180/4/6
f 171/2/6 172/2/6 180/2/6
f 180/2/6 172/2/6 181/2/6
f 181/2/6 172/2/6 182/2/6
f 59/9/6 140/9/6 183/9/6
f 140/10/6 161/10/6 184/10/6
f 183/9/6 140/9/6 184/9/6
f 161/7/6 173/7/6 185/7/6
f 184/10/6 161/10/6 185/10/6
f 173/1/6 174/1/6 186/1/6
f 185/7/6 173/7/6 186/7/6
f 174/1/6 175/1/6 186/1/6
f 186/1/6 175/1/6 187/1/6
f 175/3/6 176/3/6 188/3/6
f 187/1/6 175/1/6 188/1/6
f 176/4/6 177/4/6 189/4/6
f 188/3/6 176/3/6 189/3/6
f 177/4/6 166/4/6 190/4/6
f 189/4/6 177/4/6 190/4/6
f 166/3/6 178/3/6 191/3/6
f 190/4/6 166/4/6 191/4/6
f 178/4/6 179/4/6 192/4/6
f 191/3/6 178/3/6 192/3/6
f 179/2/6 180/2/6 193/2/6
f 192/4/6 179/4/6 193/4/6
f 180/2/6 181/2/6 193/2/6
f 181/1/6 182/1/6 194/1/6
f 193/2/6 181/2/6 194/2/6
f 194/1/6 182/1/6 195/1/6
f 183/10/6 184/10/6 196/10/6
f 184/6/6 185/6/6 196/6/6
f 185/5/6 186/5/6 197/5/6
f 196/6/6 185/6/6 197/6/6
f 186/2/6 187/2/6 198/2/6
f 197/5/6 186/5/6 198/5/6
f 188/1/6 189/1/6 199/1/6
f 198/2/6 187/2/6 199/2/6
f 187/1/6 188/1/6 199/1/6
f 189/4/6 190/4/6 200/4/6
f 199/1/6 189/1/6 200/1/6
f 190/2/6 191/2/6 201/2/6
f 200/4/6 190/4/6 201/4/6
f 192/3/6 193/3/6 202/3/6
f 201/2/6 191/2/6 202/2/6
f 191/3/6 192/3/6 202/3/6
f 202/3/6 193/3/6 203/3/6
f 198/3/6 199/3/6 204/3/6
f 199/3/6 200/3/6 204/3/6
f 197/3/6 198/3/6 204/3/6
f 200/4/6 201/4/6 205/4/6
f 204/3/6 200/3/6 205/3/6
f 202/1/6 203/1/6 206/1/6
f 205/4/6 201/4/6 206/4/6
f 201/1/6 202/1/6 206/1/6
f 206/1/6 203/1/6 207/1/6
f 203/3/6 193/3/6 208/3/6
f 207/1/6 203/1/6 208/1/6
f 194/2/6 195/2/6 209/2/6
f 208/3/6 193/3/6 209/3/6
f 193/2/6 194/2/6 209/2/6
f 209/2/6 195/2/6 210/2/6
f 196/7/6 197/7/6 211/7/6
f 183/10/6 196/10/6 211/10/6
f 197/3/6 204/3/6 212/3/6
f 211/7/6 197/7/6 212/7/6
f 212/3/6 204/3/6 213/3/6
f 213/3/6 204/3/6 214/3/6
f 204/2/6 205/2/6 215/2/6
f 214/3/6 204/3/6 215/3/6
f 205/4/6 206/4/6 216/4/6
f 215/2/6 205/2/6 216/2/6
f 206/3/6 207/3/6 217/3/6
f 216/4/6 206/4/6 217/4/6
f 207/1/6 208/1/6 218/1/6
f 217/3/6 207/3/6 218/3/6
f 209/1/6 210/1/6 218/1/6
f 208/1/6 209/1/6 218/1/6
f 218/1/6 210/1/6 219/1/6
f 219/1/6 210/1/6 220/1/6
f 59/9/6 183/9/6 221/9/6
f 183/10/6 211/10/6 222/10/6
f 221/9/6 183/9/6 222/9/6
f 211/8/6 212/8/6 223/8/6
f 222/10/6 211/10/6 223/10/6
f 212/3/6 213/3/6 224/3/6
f 223/8/6 212/8/6 224/8/6
f 213/1/6 214/1/6 225/1/6
f 224/3/6 213/3/6 225/3/6
f 214/2/6 215/2/6 226/2/6
f 225/1/6 214/1/6 226/1/6
f 215/3/6 216/3/6 227/3/6
f 226/2/6 215/2/6 227/2/6
f 216/3/6 217/3/6 227/3/6
f 217/3/6 218/3/6 227/3/6
f 218/3/6 219/3/6 227/3/6
f 219/2/6 220/2/6 228/2/6
f 227/3/6 219/3/6 228/3/6
f 220/1/6 210/1/6 229/1/6
f 228/2/6 220/2/6 229/2/6
f 210/2/6 195/2/6 230/2/6
f 229/1/6 210/1/6 230/1/6
f 230/2/6 195/2/6 231/2/6
