{
	"asset":{
		"generator":"Khronos glTF Blender I/O v4.2.57",
		"version":"2.0"
	},
	"extensionsUsed":[
		"KHR_materials_specular"
	],
	"scene":0,
	"scenes":[
		{
			"name":"Scene",
			"nodes":[
				0
			]
		}
	],
	"nodes":[
		{
			"mesh":0,
			"name":"stone-6"
		}
	],
	"materials":[
		{
			"doubleSided":true,
			"extensions":{
				"KHR_materials_specular":{
					"specularFactor":0
				}
			},
			"name":"palette",
			"pbrMetallicRoughness":{
				"baseColorTexture":{
					"index":0
				},
				"metallicFactor":0
			}
		}
	],
	"meshes":[
		{
			"name":"mesh",
			"primitives":[
				{
					"attributes":{
						"POSITION":0,
						"NORMAL":1,
						"TEXCOORD_0":2
					},
					"indices":3,
					"material":0
				}
			]
		}
	],
	"textures":[
		{
			"sampler":0,
			"source":0
		}
	],
	"images":[
		{
			"mimeType":"image/png",
			"name":"texture",
			"uri":"texture.png"
		}
	],
	"accessors":[
		{
			"bufferView":0,
			"componentType":5126,
			"count":743,
			"max":[
				0.800000011920929,
				0.800000011920929,
				0.800000011920929
			],
			"min":[
				-0.800000011920929,
				-6.039832101123466e-08,
				-0.800000011920929
			],
			"type":"VEC3"
		},
		{
			"bufferView":1,
			"componentType":5126,
			"count":743,
			"type":"VEC3"
		},
		{
			"bufferView":2,
			"componentType":5126,
			"count":743,
			"type":"VEC2"
		},
		{
			"bufferView":3,
			"componentType":5123,
			"count":1458,
			"type":"SCALAR"
		}
	],
	"bufferViews":[
		{
			"buffer":0,
			"byteLength":8916,
			"byteOffset":0,
			"target":34962
		},
		{
			"buffer":0,
			"byteLength":8916,
			"byteOffset":8916,
			"target":34962
		},
		{
			"buffer":0,
			"byteLength":5944,
			"byteOffset":17832,
			"target":34962
		},
		{
			"buffer":0,
			"byteLength":2916,
			"byteOffset":23776,
			"target":34963
		}
	],
	"samplers":[
		{
			"magFilter":9729,
			"minFilter":9987
		}
	],
	"buffers":[
		{
			"byteLength":26692,
			"uri":"stone-6.bin"
		}
	]
}
