# MagicaVoxel @ Ephtracy

# group
o 

# material
mtllib dirt-city-edgy-edge-outer-1.mtl
usemtl palette

# normals
vn 0 0 1
vn 0 0 -1
vn 1 0 0
vn -1 0 0
vn 0 -1 0
vn 0 1 0

# texcoords
vt 0.908203 0.5
vt 0.912109 0.5
vt 0.916016 0.5
vt 0.919922 0.5
vt 0.923828 0.5
vt 0.927734 0.5
vt 0.931641 0.5
vt 0.935547 0.5
vt 0.978516 0.5
vt 0.982422 0.5

# verts
v 1.6 0 1.6
v -1.6 0 1.6
v 1.6 0.2 1.6
v -1.6 0.2 1.6
v 1.6 0 -1.6
v -1.6 0 -1.6
v 1.6 0.1 -1.6
v 1.5 0.1 -1.6
v 1 0.1 -1.6
v 0.8 0.1 -1.6
v 0.1 0.1 -1.6
v 0 0.1 -1.6
v -0.1 0.1 -1.6
v 1.6 0.2 -1.6
v 1.5 0.2 -1.6
v 1 0.2 -1.6
v 0.8 0.2 -1.6
v 0.1 0.2 -1.6
v 0 0.2 -1.6
v -0.1 0.2 -1.6
v -1.6 0.2 -1.6
v 1.6 0 1.6
v 1.6 0.2 1.6
v 1.6 0.1 0.1
v 1.6 0.2 0.1
v 1.6 0.1 0
v 1.6 0.2 0
v 1.6 0.1 -0.1
v 1.6 0.2 -0.1
v 1.6 0.1 -0.2
v 1.6 0.2 -0.2
v 1.6 0.1 -0.3
v 1.6 0.2 -0.3
v 1.6 0.1 -0.5
v 1.6 0.2 -0.5
v 1.6 0.1 -1.4
v 1.6 0.2 -1.4
v 1.6 0 -1.6
v 1.6 0.1 -1.6
v 1.6 0.2 -1.6
v -1.6 0 1.6
v -1.6 0.2 1.6
v -1.6 0 -1.6
v -1.6 0.2 -1.6
v 1.6 0 1.6
v 1.6 0 -1.6
v -1.6 0 1.6
v -1.6 0 -1.6
v 1.6 0.2 1.6
v 1.6 0.2 0.1
v 1.6 0.2 0
v 1.6 0.2 -0.1
v 1.6 0.2 -0.2
v 1.6 0.2 -0.3
v 1.6 0.2 -0.5
v 1.6 0.2 -1.4
v 1.6 0.2 -1.6
v 1.5 0.2 -0.1
v 1.5 0.2 -0.2
v 1.5 0.2 -0.3
v 1.5 0.2 -0.5
v 1.5 0.2 -0.7
v 1.5 0.2 -1
v 1.5 0.2 -1.1
v 1.5 0.2 -1.3
v 1.5 0.2 -1.4
v 1.5 0.2 -1.6
v 1.4 0.2 0
v 1.4 0.2 -0.1
v 1.4 0.2 -0.2
v 1.4 0.2 -0.5
v 1.4 0.2 -0.6
v 1.4 0.2 -0.7
v 1.4 0.2 -0.9
v 1.4 0.2 -1
v 1.4 0.2 -1.1
v 1.4 0.2 -1.2
v 1.4 0.2 -1.3
v 1.4 0.2 -1.4
v 1.4 0.2 -1.5
v 1.3 0.2 0
v 1.3 0.2 -0.1
v 1.3 0.2 -0.5
v 1.3 0.2 -0.6
v 1.3 0.2 -0.7
v 1.3 0.2 -0.8
v 1.3 0.2 -0.9
v 1.3 0.2 -1.2
v 1.3 0.2 -1.3
v 1.3 0.2 -1.4
v 1.2 0.2 0
v 1.2 0.2 -0.1
v 1.2 0.2 -0.4
v 1.2 0.2 -0.5
v 1.2 0.2 -0.7
v 1.2 0.2 -0.8
v 1.2 0.2 -1
v 1.2 0.2 -1.1
v 1.2 0.2 -1.2
v 1.2 0.2 -1.3
v 1.2 0.2 -1.4
v 1.1 0.2 0
v 1.1 0.2 -0.1
v 1.1 0.2 -0.4
v 1.1 0.2 -0.5
v 1.1 0.2 -0.7
v 1.1 0.2 -0.9
v 1.1 0.2 -1.1
v 1.1 0.2 -1.2
v 1.1 0.2 -1.3
v 1.1 0.2 -1.4
v 1.1 0.2 -1.5
v 1 0.2 -0.1
v 1 0.2 -0.2
v 1 0.2 -0.4
v 1 0.2 -0.5
v 1 0.2 -0.7
v 1 0.2 -0.8
v 1 0.2 -0.9
v 1 0.2 -1
v 1 0.2 -1.1
v 1 0.2 -1.2
v 1 0.2 -1.4
v 1 0.2 -1.5
v 1 0.2 -1.6
v 0.9 0.2 0
v 0.9 0.2 -0.1
v 0.9 0.2 -0.4
v 0.9 0.2 -0.7
v 0.9 0.2 -0.8
v 0.9 0.2 -1
v 0.9 0.2 -1.3
v 0.9 0.2 -1.4
v 0.8 0.2 -0.2
v 0.8 0.2 -0.4
v 0.8 0.2 -0.5
v 0.8 0.2 -0.8
v 0.8 0.2 -1
v 0.8 0.2 -1.1
v 0.8 0.2 -1.2
v 0.8 0.2 -1.3
v 0.8 0.2 -1.4
v 0.8 0.2 -1.5
v 0.8 0.2 -1.6
v 0.7 0.2 0
v 0.7 0.2 -0.1
v 0.7 0.2 -0.2
v 0.7 0.2 -0.4
v 0.7 0.2 -0.5
v 0.7 0.2 -0.6
v 0.7 0.2 -0.8
v 0.7 0.2 -1.1
v 0.7 0.2 -1.2
v 0.7 0.2 -1.5
v 0.6 0.2 0
v 0.6 0.2 -0.1
v 0.6 0.2 -0.3
v 0.6 0.2 -0.5
v 0.6 0.2 -0.6
v 0.6 0.2 -0.7
v 0.6 0.2 -1.1
v 0.6 0.2 -1.3
v 0.6 0.2 -1.4
v 0.6 0.2 -1.5
v 0.5 0.2 0
v 0.5 0.2 -0.1
v 0.5 0.2 -0.5
v 0.5 0.2 -0.6
v 0.5 0.2 -0.7
v 0.5 0.2 -0.9
v 0.5 0.2 -1
v 0.5 0.2 -1.2
v 0.5 0.2 -1.3
v 0.5 0.2 -1.4
v 0.5 0.2 -1.5
v 0.4 0.2 0
v 0.4 0.2 -0.1
v 0.4 0.2 -0.2
v 0.4 0.2 -0.3
v 0.4 0.2 -0.6
v 0.4 0.2 -0.8
v 0.4 0.2 -0.9
v 0.4 0.2 -1
v 0.4 0.2 -1.1
v 0.4 0.2 -1.2
v 0.4 0.2 -1.3
v 0.3 0.2 -0.1
v 0.3 0.2 -0.2
v 0.3 0.2 -0.5
v 0.3 0.2 -0.7
v 0.3 0.2 -0.8
v 0.3 0.2 -0.9
v 0.3 0.2 -1.1
v 0.3 0.2 -1.2
v 0.3 0.2 -1.3
v 0.3 0.2 -1.4
v 0.2 0.2 0
v 0.2 0.2 -0.1
v 0.2 0.2 -0.2
v 0.2 0.2 -0.4
v 0.2 0.2 -0.5
v 0.2 0.2 -0.6
v 0.2 0.2 -0.7
v 0.2 0.2 -0.9
v 0.2 0.2 -1
v 0.2 0.2 -1.1
v 0.2 0.2 -1.2
v 0.2 0.2 -1.3
v 0.2 0.2 -1.4
v 0.1 0.2 0
v 0.1 0.2 -0.1
v 0.1 0.2 -0.2
v 0.1 0.2 -0.3
v 0.1 0.2 -0.4
v 0.1 0.2 -0.5
v 0.1 0.2 -0.6
v 0.1 0.2 -0.8
v 0.1 0.2 -0.9
v 0.1 0.2 -1
v 0.1 0.2 -1.2
v 0.1 0.2 -1.3
v 0.1 0.2 -1.4
v 0.1 0.2 -1.5
v 0.1 0.2 -1.6
v 0 0.2 0
v 0 0.2 -0.1
v 0 0.2 -0.2
v 0 0.2 -0.3
v 0 0.2 -0.4
v 0 0.2 -0.5
v 0 0.2 -0.6
v 0 0.2 -0.9
v 0 0.2 -1.2
v 0 0.2 -1.3
v 0 0.2 -1.4
v 0 0.2 -1.6
v -0.1 0.2 0.1
v -0.1 0.2 -1.6
v -1.6 0.2 1.6
v -1.6 0.2 -1.6

# faces
f 3/9/1 2/9/1 1/9/1
f 4/9/1 2/9/1 3/9/1
f 5/9/2 6/9/2 7/9/2
f 7/9/2 6/9/2 8/9/2
f 8/9/2 6/9/2 9/9/2
f 9/9/2 6/9/2 10/9/2
f 10/9/2 6/9/2 11/9/2
f 11/9/2 6/9/2 12/9/2
f 12/9/2 6/9/2 13/9/2
f 7/3/2 8/3/2 14/3/2
f 8/2/2 9/2/2 15/2/2
f 14/3/2 8/3/2 15/3/2
f 9/3/2 10/3/2 16/3/2
f 15/2/2 9/2/2 16/2/2
f 10/2/2 11/2/2 17/2/2
f 16/3/2 10/3/2 17/3/2
f 11/6/2 12/6/2 18/6/2
f 17/2/2 11/2/2 18/2/2
f 12/10/2 13/10/2 19/10/2
f 18/6/2 12/6/2 19/6/2
f 13/9/2 6/9/2 20/9/2
f 19/10/2 13/10/2 20/10/2
f 20/9/2 6/9/2 21/9/2
f 24/9/3 23/9/3 22/9/3
f 25/9/3 23/9/3 24/9/3
f 26/9/3 24/9/3 22/9/3
f 26/10/3 25/10/3 24/10/3
f 27/10/3 25/10/3 26/10/3
f 28/9/3 26/9/3 22/9/3
f 28/8/3 27/8/3 26/8/3
f 29/8/3 27/8/3 28/8/3
f 30/9/3 28/9/3 22/9/3
f 30/2/3 29/2/3 28/2/3
f 31/2/3 29/2/3 30/2/3
f 32/9/3 30/9/3 22/9/3
f 32/3/3 31/3/3 30/3/3
f 33/3/3 31/3/3 32/3/3
f 34/9/3 32/9/3 22/9/3
f 34/2/3 33/2/3 32/2/3
f 35/2/3 33/2/3 34/2/3
f 36/9/3 34/9/3 22/9/3
f 36/1/3 35/1/3 34/1/3
f 37/1/3 35/1/3 36/1/3
f 38/9/3 36/9/3 22/9/3
f 39/3/3 37/3/3 36/3/3
f 39/9/3 36/9/3 38/9/3
f 40/3/3 37/3/3 39/3/3
f 41/9/4 42/9/4 43/9/4
f 43/9/4 42/9/4 44/9/4
f 47/9/5 46/9/5 45/9/5
f 48/9/5 46/9/5 47/9/5
f 51/8/6 52/8/6 58/8/6
f 52/2/6 53/2/6 58/2/6
f 53/3/6 54/3/6 59/3/6
f 58/2/6 53/2/6 59/2/6
f 54/2/6 55/2/6 60/2/6
f 59/3/6 54/3/6 60/3/6
f 55/1/6 56/1/6 61/1/6
f 60/2/6 55/2/6 61/2/6
f 61/1/6 56/1/6 62/1/6
f 62/1/6 56/1/6 63/1/6
f 63/1/6 56/1/6 64/1/6
f 64/1/6 56/1/6 65/1/6
f 56/3/6 57/3/6 66/3/6
f 65/1/6 56/1/6 66/1/6
f 66/3/6 57/3/6 67/3/6
f 50/10/6 51/10/6 68/10/6
f 51/8/6 58/8/6 68/8/6
f 58/1/6 59/1/6 69/1/6
f 68/8/6 58/8/6 69/8/6
f 59/3/6 60/3/6 70/3/6
f 69/1/6 59/1/6 70/1/6
f 60/3/6 61/3/6 70/3/6
f 61/1/6 62/1/6 71/1/6
f 70/3/6 61/3/6 71/3/6
f 71/1/6 62/1/6 72/1/6
f 62/3/6 63/3/6 73/3/6
f 72/1/6 62/1/6 73/1/6
f 73/3/6 63/3/6 74/3/6
f 63/2/6 64/2/6 75/2/6
f 74/3/6 63/3/6 75/3/6
f 64/3/6 65/3/6 76/3/6
f 75/2/6 64/2/6 76/2/6
f 76/3/6 65/3/6 77/3/6
f 66/2/6 67/2/6 78/2/6
f 77/3/6 65/3/6 78/3/6
f 65/2/6 66/2/6 78/2/6
f 78/2/6 67/2/6 79/2/6
f 79/2/6 67/2/6 80/2/6
f 68/7/6 69/7/6 81/7/6
f 50/10/6 68/10/6 81/10/6
f 69/1/6 70/1/6 82/1/6
f 81/7/6 69/7/6 82/7/6
f 71/1/6 72/1/6 82/1/6
f 70/1/6 71/1/6 82/1/6
f 82/1/6 72/1/6 83/1/6
f 73/2/6 74/2/6 84/2/6
f 83/1/6 72/1/6 84/1/6
f 72/2/6 73/2/6 84/2/6
f 84/2/6 74/2/6 85/2/6
f 85/2/6 74/2/6 86/2/6
f 74/1/6 75/1/6 87/1/6
f 86/2/6 74/2/6 87/2/6
f 76/1/6 77/1/6 88/1/6
f 78/2/6 79/2/6 88/2/6
f 77/2/6 78/2/6 88/2/6
f 88/2/6 79/2/6 89/2/6
f 79/3/6 80/3/6 90/3/6
f 89/2/6 79/2/6 90/2/6
f 50/10/6 81/10/6 91/10/6
f 81/5/6 82/5/6 91/5/6
f 82/1/6 83/1/6 92/1/6
f 91/5/6 82/5/6 92/5/6
f 92/1/6 83/1/6 93/1/6
f 84/3/6 85/3/6 94/3/6
f 93/1/6 83/1/6 94/1/6
f 83/3/6 84/3/6 94/3/6
f 85/4/6 86/4/6 95/4/6
f 94/3/6 85/3/6 95/3/6
f 86/1/6 87/1/6 96/1/6
f 95/4/6 86/4/6 96/4/6
f 87/1/6 75/1/6 97/1/6
f 96/1/6 87/1/6 97/1/6
f 75/3/6 76/3/6 97/3/6
f 88/1/6 89/1/6 98/1/6
f 97/3/6 76/3/6 98/3/6
f 76/1/6 88/1/6 98/1/6
f 98/1/6 89/1/6 99/1/6
f 89/3/6 90/3/6 100/3/6
f 99/1/6 89/1/6 100/1/6
f 90/3/6 80/3/6 101/3/6
f 100/3/6 90/3/6 101/3/6
f 91/8/6 92/8/6 102/8/6
f 50/10/6 91/10/6 102/10/6
f 92/3/6 93/3/6 103/3/6
f 102/8/6 92/8/6 103/8/6
f 93/4/6 94/4/6 104/4/6
f 103/3/6 93/3/6 104/3/6
f 94/4/6 95/4/6 104/4/6
f 104/4/6 95/4/6 105/4/6
f 95/1/6 96/1/6 106/1/6
f 105/4/6 95/4/6 106/4/6
f 96/1/6 97/1/6 106/1/6
f 97/1/6 98/1/6 106/1/6
f 106/1/6 98/1/6 107/1/6
f 98/2/6 99/2/6 108/2/6
f 107/1/6 98/1/6 108/1/6
f 99/1/6 100/1/6 109/1/6
f 108/2/6 99/2/6 109/2/6
f 100/4/6 101/4/6 110/4/6
f 109/1/6 100/1/6 110/1/6
f 101/3/6 80/3/6 111/3/6
f 110/4/6 101/4/6 111/4/6
f 80/2/6 67/2/6 112/2/6
f 111/3/6 80/3/6 112/3/6
f 102/7/6 103/7/6 113/7/6
f 103/1/6 104/1/6 113/1/6
f 113/1/6 104/1/6 114/1/6
f 104/4/6 105/4/6 115/4/6
f 114/1/6 104/1/6 115/1/6
f 106/1/6 107/1/6 116/1/6
f 115/4/6 105/4/6 116/4/6
f 105/1/6 106/1/6 116/1/6
f 116/1/6 107/1/6 117/1/6
f 117/1/6 107/1/6 118/1/6
f 107/3/6 108/3/6 119/3/6
f 118/1/6 107/1/6 119/1/6
f 108/3/6 109/3/6 119/3/6
f 119/3/6 109/3/6 120/3/6
f 120/3/6 109/3/6 121/3/6
f 110/4/6 111/4/6 122/4/6
f 121/3/6 109/3/6 122/3/6
f 109/4/6 110/4/6 122/4/6
f 111/2/6 112/2/6 123/2/6
f 122/4/6 111/4/6 123/4/6
f 112/2/6 67/2/6 124/2/6
f 123/2/6 112/2/6 124/2/6
f 124/2/6 67/2/6 125/2/6
f 50/10/6 102/10/6 126/10/6
f 102/7/6 113/7/6 126/7/6
f 113/3/6 114/3/6 127/3/6
f 126/7/6 113/7/6 127/7/6
f 114/2/6 115/2/6 128/2/6
f 116/4/6 117/4/6 128/4/6
f 115/4/6 116/4/6 128/4/6
f 117/1/6 118/1/6 129/1/6
f 128/4/6 117/4/6 129/4/6
f 119/3/6 120/3/6 130/3/6
f 129/1/6 118/1/6 130/1/6
f 118/3/6 119/3/6 130/3/6
f 120/4/6 121/4/6 131/4/6
f 130/3/6 120/3/6 131/3/6
f 122/1/6 123/1/6 132/1/6
f 121/1/6 122/1/6 132/1/6
f 123/1/6 124/1/6 132/1/6
f 132/1/6 124/1/6 133/1/6
f 114/2/6 128/2/6 134/2/6
f 127/3/6 114/3/6 134/3/6
f 129/1/6 130/1/6 135/1/6
f 134/2/6 128/2/6 135/2/6
f 130/1/6 131/1/6 135/1/6
f 128/1/6 129/1/6 135/1/6
f 135/1/6 131/1/6 136/1/6
f 136/1/6 131/1/6 137/1/6
f 131/4/6 121/4/6 138/4/6
f 137/1/6 131/1/6 138/1/6
f 121/1/6 132/1/6 139/1/6
f 138/4/6 121/4/6 139/4/6
f 139/1/6 132/1/6 140/1/6
f 132/3/6 133/3/6 141/3/6
f 140/1/6 132/1/6 141/1/6
f 133/1/6 124/1/6 142/1/6
f 141/3/6 133/3/6 142/3/6
f 124/3/6 125/3/6 143/3/6
f 142/1/6 124/1/6 143/1/6
f 143/3/6 125/3/6 144/3/6
f 50/10/6 126/10/6 145/10/6
f 126/6/6 127/6/6 145/6/6
f 127/3/6 134/3/6 146/3/6
f 145/6/6 127/6/6 146/6/6
f 134/1/6 135/1/6 147/1/6
f 146/3/6 134/3/6 147/3/6
f 135/2/6 136/2/6 148/2/6
f 147/1/6 135/1/6 148/1/6
f 136/1/6 137/1/6 149/1/6
f 148/2/6 136/2/6 149/2/6
f 149/1/6 137/1/6 150/1/6
f 137/3/6 138/3/6 151/3/6
f 150/1/6 137/1/6 151/1/6
f 138/3/6 139/3/6 151/3/6
f 139/1/6 140/1/6 152/1/6
f 151/3/6 139/3/6 152/3/6
f 141/4/6 142/4/6 153/4/6
f 152/1/6 140/1/6 153/1/6
f 140/4/6 141/4/6 153/4/6
f 142/4/6 143/4/6 153/4/6
f 143/2/6 144/2/6 154/2/6
f 153/4/6 143/4/6 154/4/6
f 50/10/6 145/10/6 155/10/6
f 145/7/6 146/7/6 155/7/6
f 147/4/6 148/4/6 156/4/6
f 155/7/6 146/7/6 156/7/6
f 148/4/6 149/4/6 156/4/6
f 146/4/6 147/4/6 156/4/6
f 156/4/6 149/4/6 157/4/6
f 149/3/6 150/3/6 158/3/6
f 157/4/6 149/4/6 158/4/6
f 151/1/6 152/1/6 159/1/6
f 158/3/6 150/3/6 159/3/6
f 150/1/6 151/1/6 159/1/6
f 159/1/6 152/1/6 160/1/6
f 153/3/6 154/3/6 161/3/6
f 160/1/6 152/1/6 161/1/6
f 152/3/6 153/3/6 161/3/6
f 161/3/6 154/3/6 162/3/6
f 162/3/6 154/3/6 163/3/6
f 154/2/6 144/2/6 164/2/6
f 163/3/6 154/3/6 164/3/6
f 50/10/6 155/10/6 165/10/6
f 155/5/6 156/5/6 165/5/6
f 156/4/6 157/4/6 166/4/6
f 165/5/6 156/5/6 166/5/6
f 157/2/6 158/2/6 167/2/6
f 159/3/6 160/3/6 167/3/6
f 158/3/6 159/3/6 167/3/6
f 167/3/6 160/3/6 168/3/6
f 161/1/6 162/1/6 169/1/6
f 168/3/6 160/3/6 169/3/6
f 160/1/6 161/1/6 169/1/6
f 169/1/6 162/1/6 170/1/6
f 170/1/6 162/1/6 171/1/6
f 171/1/6 162/1/6 172/1/6
f 162/3/6 163/3/6 173/3/6
f 172/1/6 162/1/6 173/1/6
f 163/4/6 164/4/6 174/4/6
f 173/3/6 163/3/6 174/3/6
f 164/2/6 144/2/6 175/2/6
f 174/4/6 164/4/6 175/4/6
f 50/10/6 165/10/6 176/10/6
f 165/8/6 166/8/6 176/8/6
f 166/4/6 157/4/6 177/4/6
f 176/8/6 166/8/6 177/8/6
f 177/4/6 157/4/6 178/4/6
f 167/2/6 168/2/6 179/2/6
f 178/4/6 157/4/6 179/4/6
f 157/2/6 167/2/6 179/2/6
f 168/3/6 169/3/6 180/3/6
f 179/2/6 168/2/6 180/2/6
f 169/2/6 170/2/6 181/2/6
f 170/3/6 171/3/6 182/3/6
f 181/2/6 170/2/6 182/2/6
f 171/1/6 172/1/6 183/1/6
f 182/3/6 171/3/6 183/3/6
f 183/1/6 172/1/6 184/1/6
f 172/3/6 173/3/6 185/3/6
f 184/1/6 172/1/6 185/1/6
f 173/1/6 174/1/6 186/1/6
f 185/3/6 173/3/6 186/3/6
f 177/4/6 178/4/6 187/4/6
f 176/7/6 177/7/6 187/7/6
f 178/1/6 179/1/6 188/1/6
f 187/4/6 178/4/6 188/4/6
f 179/1/6 180/1/6 188/1/6
f 188/1/6 180/1/6 189/1/6
f 180/3/6 169/3/6 190/3/6
f 169/2/6 181/2/6 190/2/6
f 181/4/6 182/4/6 191/4/6
f 190/2/6 181/2/6 191/2/6
f 183/4/6 184/4/6 191/4/6
f 182/4/6 183/4/6 191/4/6
f 191/4/6 184/4/6 192/4/6
f 184/1/6 185/1/6 193/1/6
f 192/4/6 184/4/6 193/4/6
f 185/1/6 186/1/6 193/1/6
f 193/1/6 186/1/6 194/1/6
f 186/1/6 174/1/6 195/1/6
f 194/1/6 186/1/6 195/1/6
f 174/3/6 175/3/6 196/3/6
f 195/1/6 174/1/6 196/1/6
f 50/10/6 176/10/6 197/10/6
f 176/7/6 187/7/6 197/7/6
f 187/2/6 188/2/6 198/2/6
f 197/7/6 187/7/6 198/7/6
f 188/3/6 189/3/6 199/3/6
f 198/2/6 188/2/6 199/2/6
f 199/3/6 189/3/6 200/3/6
f 189/1/6 180/1/6 201/1/6
f 200/3/6 189/3/6 201/3/6
f 180/3/6 190/3/6 202/3/6
f 201/1/6 180/1/6 202/1/6
f 190/4/6 191/4/6 203/4/6
f 202/3/6 190/3/6 203/3/6
f 191/3/6 192/3/6 204/3/6
f 192/2/6 193/2/6 204/2/6
f 204/2/6 193/2/6 205/2/6
f 193/3/6 194/3/6 206/3/6
f 205/2/6 193/2/6 206/2/6
f 194/1/6 195/1/6 207/1/6
f 206/3/6 194/3/6 207/3/6
f 195/2/6 196/2/6 208/2/6
f 207/1/6 195/1/6 208/1/6
f 196/3/6 175/3/6 209/3/6
f 208/2/6 196/2/6 209/2/6
f 50/10/6 197/10/6 210/10/6
f 197/8/6 198/8/6 210/8/6
f 199/3/6 200/3/6 211/3/6
f 210/8/6 198/8/6 211/8/6
f 198/3/6 199/3/6 211/3/6
f 211/3/6 200/3/6 212/3/6
f 212/3/6 200/3/6 213/3/6
f 200/1/6 201/1/6 214/1/6
f 213/3/6 200/3/6 214/3/6
f 201/4/6 202/4/6 215/4/6
f 214/1/6 201/1/6 215/1/6
f 202/4/6 203/4/6 215/4/6
f 215/4/6 203/4/6 216/4/6
f 203/4/6 191/4/6 217/4/6
f 216/4/6 203/4/6 217/4/6
f 204/3/6 205/3/6 217/3/6
f 191/3/6 204/3/6 217/3/6
f 217/3/6 205/3/6 218/3/6
f 205/2/6 206/2/6 219/2/6
f 218/3/6 205/3/6 219/3/6
f 206/2/6 207/2/6 219/2/6
f 207/1/6 208/1/6 220/1/6
f 219/2/6 207/2/6 220/2/6
f 208/3/6 209/3/6 221/3/6
f 220/1/6 208/1/6 221/1/6
f 209/3/6 175/3/6 222/3/6
f 221/3/6 209/3/6 222/3/6
f 175/2/6 144/2/6 223/2/6
f 222/3/6 175/3/6 223/3/6
f 223/2/6 144/2/6 224/2/6
f 50/10/6 210/10/6 225/10/6
f 210/6/6 211/6/6 225/6/6
f 211/8/6 212/8/6 226/8/6
f 225/6/6 211/6/6 226/6/6
f 212/7/6 213/7/6 227/7/6
f 226/8/6 212/8/6 227/8/6
f 213/5/6 214/5/6 228/5/6
f 227/7/6 213/7/6 228/7/6
f 214/7/6 215/7/6 229/7/6
f 228/5/6 214/5/6 229/5/6
f 215/8/6 216/8/6 230/8/6
f 229/7/6 215/7/6 230/7/6
f 217/5/6 218/5/6 231/5/6
f 230/8/6 216/8/6 231/8/6
f 216/5/6 217/5/6 231/5/6
f 218/7/6 219/7/6 232/7/6
f 231/5/6 218/5/6 232/5/6
f 219/7/6 220/7/6 232/7/6
f 220/8/6 221/8/6 233/8/6
f 232/7/6 220/7/6 233/7/6
f 221/5/6 222/5/6 234/5/6
f 233/8/6 221/8/6 234/8/6
f 222/6/6 223/6/6 235/6/6
f 234/5/6 222/5/6 235/5/6
f 223/6/6 224/6/6 235/6/6
f 235/6/6 224/6/6 236/6/6
f 49/9/6 50/9/6 237/9/6
f 228/10/6 229/10/6 237/10/6
f 235/10/6 236/10/6 237/10/6
f 234/10/6 235/10/6 237/10/6
f 50/10/6 225/10/6 237/10/6
f 225/10/6 226/10/6 237/10/6
f 233/10/6 234/10/6 237/10/6
f 226/10/6 227/10/6 237/10/6
f 232/10/6 233/10/6 237/10/6
f 227/10/6 228/10/6 237/10/6
f 231/10/6 232/10/6 237/10/6
f 229/10/6 230/10/6 237/10/6
f 230/10/6 231/10/6 237/10/6
f 237/10/6 236/10/6 238/10/6
f 49/9/6 237/9/6 239/9/6
f 237/9/6 238/9/6 239/9/6
f 239/9/6 238/9/6 240/9/6
