# MagicaVoxel @ Ephtracy

# group
o 

# material
mtllib dirt-city-edgy-edge-outer-3.mtl
usemtl palette

# normals
vn 0 0 -1
vn 0 0 1
vn -1 0 0
vn 1 0 0
vn 0 -1 0
vn 0 1 0

# texcoords
vt 0.908203 0.5
vt 0.912109 0.5
vt 0.916016 0.5
vt 0.919922 0.5
vt 0.923828 0.5
vt 0.927734 0.5
vt 0.931641 0.5
vt 0.935547 0.5
vt 0.978516 0.5
vt 0.982422 0.5

# verts
v -1.6 0 -1.6
v 1.6 0 -1.6
v -0.1 0.1 -1.6
v 0 0.1 -1.6
v 0.1 0.1 -1.6
v 0.2 0.1 -1.6
v 0.4 0.1 -1.6
v 0.6 0.1 -1.6
v 0.7 0.1 -1.6
v 1 0.1 -1.6
v 1.1 0.1 -1.6
v 1.3 0.1 -1.6
v 1.6 0.1 -1.6
v -1.6 0.2 -1.6
v -0.1 0.2 -1.6
v 0 0.2 -1.6
v 0.1 0.2 -1.6
v 0.2 0.2 -1.6
v 0.4 0.2 -1.6
v 0.6 0.2 -1.6
v 0.7 0.2 -1.6
v 1 0.2 -1.6
v 1.1 0.2 -1.6
v 1.3 0.2 -1.6
v 1.6 0.2 -1.6
v -1.6 0 1.6
v 1.6 0 1.6
v -1.6 0.2 1.6
v 1.6 0.2 1.6
v -1.6 0 -1.6
v -1.6 0.2 -1.6
v -1.6 0 1.6
v -1.6 0.2 1.6
v 1.6 0 -1.6
v 1.6 0.1 -1.6
v 1.6 0.2 -1.6
v 1.6 0.1 -1.4
v 1.6 0.2 -1.4
v 1.6 0.1 -1.2
v 1.6 0.2 -1.2
v 1.6 0.1 -0.6
v 1.6 0.2 -0.6
v 1.6 0.1 -0.4
v 1.6 0.2 -0.4
v 1.6 0.1 -0.3
v 1.6 0.2 -0.3
v 1.6 0.1 -0.1
v 1.6 0.2 -0.1
v 1.6 0.1 0
v 1.6 0.2 0
v 1.6 0.1 0.1
v 1.6 0.2 0.1
v 1.6 0 1.6
v 1.6 0.2 1.6
v -1.6 0 -1.6
v -1.6 0 1.6
v 1.6 0 -1.6
v 1.6 0 1.6
v -1.6 0.2 -1.6
v -1.6 0.2 1.6
v -0.1 0.2 -1.6
v -0.1 0.2 0.1
v 0 0.2 -1.6
v 0 0.2 -1.5
v 0 0.2 -1.3
v 0 0.2 -1.2
v 0 0.2 -1
v 0 0.2 -0.8
v 0 0.2 -0.6
v 0 0.2 -0.5
v 0 0.2 -0.4
v 0 0.2 -0.2
v 0 0.2 -0.1
v 0 0.2 0
v 0.1 0.2 -1.6
v 0.1 0.2 -1.5
v 0.1 0.2 -1.4
v 0.1 0.2 -1.3
v 0.1 0.2 -1.2
v 0.1 0.2 -1
v 0.1 0.2 -0.9
v 0.1 0.2 -0.8
v 0.1 0.2 -0.7
v 0.1 0.2 -0.6
v 0.1 0.2 -0.5
v 0.1 0.2 -0.4
v 0.1 0.2 -0.3
v 0.1 0.2 -0.2
v 0.1 0.2 -0.1
v 0.1 0.2 0
v 0.2 0.2 -1.6
v 0.2 0.2 -1.5
v 0.2 0.2 -1.4
v 0.2 0.2 -1.3
v 0.2 0.2 -1.1
v 0.2 0.2 -1
v 0.2 0.2 -0.9
v 0.2 0.2 -0.8
v 0.2 0.2 -0.7
v 0.2 0.2 -0.6
v 0.2 0.2 -0.5
v 0.2 0.2 -0.4
v 0.2 0.2 -0.3
v 0.2 0.2 -0.2
v 0.2 0.2 -0.1
v 0.2 0.2 0
v 0.3 0.2 -1.3
v 0.3 0.2 -1.2
v 0.3 0.2 -1.1
v 0.3 0.2 -0.9
v 0.3 0.2 -0.8
v 0.3 0.2 -0.7
v 0.3 0.2 -0.6
v 0.3 0.2 -0.5
v 0.3 0.2 -0.4
v 0.3 0.2 -0.3
v 0.3 0.2 -0.2
v 0.4 0.2 -1.6
v 0.4 0.2 -1.5
v 0.4 0.2 -1.4
v 0.4 0.2 -1.3
v 0.4 0.2 -1.2
v 0.4 0.2 -1
v 0.4 0.2 -0.9
v 0.4 0.2 -0.8
v 0.4 0.2 -0.7
v 0.4 0.2 -0.6
v 0.4 0.2 -0.5
v 0.4 0.2 -0.4
v 0.4 0.2 -0.3
v 0.4 0.2 -0.2
v 0.4 0.2 -0.1
v 0.4 0.2 0
v 0.5 0.2 -1.4
v 0.5 0.2 -1.3
v 0.5 0.2 -1.2
v 0.5 0.2 -1.1
v 0.5 0.2 -1
v 0.5 0.2 -0.9
v 0.5 0.2 -0.8
v 0.5 0.2 -0.7
v 0.5 0.2 -0.3
v 0.5 0.2 -0.2
v 0.5 0.2 -0.1
v 0.6 0.2 -1.6
v 0.6 0.2 -1.5
v 0.6 0.2 -1.4
v 0.6 0.2 -1.3
v 0.6 0.2 -1.1
v 0.6 0.2 -0.9
v 0.6 0.2 -0.8
v 0.6 0.2 -0.6
v 0.6 0.2 -0.5
v 0.6 0.2 -0.4
v 0.6 0.2 -0.2
v 0.6 0.2 -0.1
v 0.6 0.2 0
v 0.7 0.2 -1.6
v 0.7 0.2 -1.5
v 0.7 0.2 -1.4
v 0.7 0.2 -1.3
v 0.7 0.2 -1.1
v 0.7 0.2 -1
v 0.7 0.2 -0.9
v 0.7 0.2 -0.7
v 0.7 0.2 -0.6
v 0.7 0.2 -0.4
v 0.7 0.2 -0.3
v 0.7 0.2 -0.2
v 0.7 0.2 -0.1
v 0.7 0.2 0
v 0.8 0.2 -0.9
v 0.8 0.2 -0.8
v 0.8 0.2 -0.6
v 0.8 0.2 -0.3
v 0.8 0.2 -0.2
v 0.8 0.2 -0.1
v 0.9 0.2 -1.4
v 0.9 0.2 -1.2
v 0.9 0.2 -1
v 0.9 0.2 -0.9
v 0.9 0.2 -0.8
v 0.9 0.2 -0.7
v 0.9 0.2 -0.3
v 0.9 0.2 -0.2
v 0.9 0.2 -0.1
v 0.9 0.2 0
v 1 0.2 -1.6
v 1 0.2 -1.5
v 1 0.2 -1.4
v 1 0.2 -1.3
v 1 0.2 -1.1
v 1 0.2 -1
v 1 0.2 -0.7
v 1 0.2 -0.6
v 1 0.2 -0.4
v 1 0.2 -0.3
v 1 0.2 -0.2
v 1 0.2 -0.1
v 1.1 0.2 -1.6
v 1.1 0.2 -1.5
v 1.1 0.2 -1.4
v 1.1 0.2 -1.3
v 1.1 0.2 -1.2
v 1.1 0.2 -0.9
v 1.1 0.2 -0.8
v 1.1 0.2 -0.7
v 1.1 0.2 -0.6
v 1.1 0.2 -0.5
v 1.1 0.2 -0.4
v 1.1 0.2 -0.3
v 1.1 0.2 -0.2
v 1.1 0.2 -0.1
v 1.1 0.2 0
v 1.2 0.2 -1.5
v 1.2 0.2 -1.4
v 1.2 0.2 -1.3
v 1.2 0.2 -1.1
v 1.2 0.2 -1
v 1.2 0.2 -0.9
v 1.2 0.2 -0.8
v 1.2 0.2 -0.7
v 1.2 0.2 -0.5
v 1.2 0.2 -0.4
v 1.2 0.2 -0.3
v 1.2 0.2 -0.2
v 1.2 0.2 -0.1
v 1.3 0.2 -1.6
v 1.3 0.2 -1.5
v 1.3 0.2 -1.2
v 1.3 0.2 -1.1
v 1.3 0.2 -0.9
v 1.3 0.2 -0.8
v 1.3 0.2 -0.5
v 1.3 0.2 -0.3
v 1.3 0.2 -0.2
v 1.3 0.2 -0.1
v 1.4 0.2 -1.5
v 1.4 0.2 -1.4
v 1.4 0.2 -1.3
v 1.4 0.2 -0.9
v 1.4 0.2 -0.8
v 1.4 0.2 -0.3
v 1.4 0.2 -0.2
v 1.4 0.2 -0.1
v 1.4 0.2 0
v 1.5 0.2 -1.5
v 1.5 0.2 -1.4
v 1.5 0.2 -1.3
v 1.5 0.2 -1.2
v 1.5 0.2 -1.1
v 1.5 0.2 -0.6
v 1.5 0.2 -0.5
v 1.5 0.2 -0.4
v 1.5 0.2 -0.3
v 1.6 0.2 -1.6
v 1.6 0.2 -1.4
v 1.6 0.2 -1.2
v 1.6 0.2 -0.6
v 1.6 0.2 -0.4
v 1.6 0.2 -0.3
v 1.6 0.2 -0.1
v 1.6 0.2 0
v 1.6 0.2 0.1
v 1.6 0.2 1.6

# faces
f 3/9/1 2/9/1 1/9/1
f 4/9/1 2/9/1 3/9/1
f 5/9/1 2/9/1 4/9/1
f 6/9/1 2/9/1 5/9/1
f 7/9/1 2/9/1 6/9/1
f 8/9/1 2/9/1 7/9/1
f 9/9/1 2/9/1 8/9/1
f 10/9/1 2/9/1 9/9/1
f 11/9/1 2/9/1 10/9/1
f 12/9/1 2/9/1 11/9/1
f 13/9/1 2/9/1 12/9/1
f 14/9/1 3/9/1 1/9/1
f 15/10/1 4/10/1 3/10/1
f 15/9/1 3/9/1 14/9/1
f 16/8/1 5/8/1 4/8/1
f 16/10/1 4/10/1 15/10/1
f 17/1/1 6/1/1 5/1/1
f 17/8/1 5/8/1 16/8/1
f 18/3/1 7/3/1 6/3/1
f 18/1/1 6/1/1 17/1/1
f 19/4/1 8/4/1 7/4/1
f 19/3/1 7/3/1 18/3/1
f 20/2/1 9/2/1 8/2/1
f 20/4/1 8/4/1 19/4/1
f 21/3/1 10/3/1 9/3/1
f 21/2/1 9/2/1 20/2/1
f 22/4/1 11/4/1 10/4/1
f 22/3/1 10/3/1 21/3/1
f 23/3/1 12/3/1 11/3/1
f 23/4/1 11/4/1 22/4/1
f 24/4/1 13/4/1 12/4/1
f 24/3/1 12/3/1 23/3/1
f 25/4/1 13/4/1 24/4/1
f 26/9/2 27/9/2 28/9/2
f 28/9/2 27/9/2 29/9/2
f 32/9/3 31/9/3 30/9/3
f 33/9/3 31/9/3 32/9/3
f 34/9/4 35/9/4 37/9/4
f 35/4/4 36/4/4 37/4/4
f 37/4/4 36/4/4 38/4/4
f 34/9/4 37/9/4 39/9/4
f 37/2/4 38/2/4 39/2/4
f 39/2/4 38/2/4 40/2/4
f 34/9/4 39/9/4 41/9/4
f 39/3/4 40/3/4 41/3/4
f 41/3/4 40/3/4 42/3/4
f 34/9/4 41/9/4 43/9/4
f 41/1/4 42/1/4 43/1/4
f 43/1/4 42/1/4 44/1/4
f 34/9/4 43/9/4 45/9/4
f 43/2/4 44/2/4 45/2/4
f 45/2/4 44/2/4 46/2/4
f 34/9/4 45/9/4 47/9/4
f 45/3/4 46/3/4 47/3/4
f 47/3/4 46/3/4 48/3/4
f 34/9/4 47/9/4 49/9/4
f 47/8/4 48/8/4 49/8/4
f 49/8/4 48/8/4 50/8/4
f 34/9/4 49/9/4 51/9/4
f 49/10/4 50/10/4 51/10/4
f 51/10/4 50/10/4 52/10/4
f 34/9/4 51/9/4 53/9/4
f 51/9/4 52/9/4 53/9/4
f 53/9/4 52/9/4 54/9/4
f 57/9/5 56/9/5 55/9/5
f 58/9/5 56/9/5 57/9/5
f 59/9/6 60/9/6 61/9/6
f 61/9/6 60/9/6 62/9/6
f 61/10/6 62/10/6 63/10/6
f 63/10/6 62/10/6 64/10/6
f 64/10/6 62/10/6 65/10/6
f 65/10/6 62/10/6 66/10/6
f 66/10/6 62/10/6 67/10/6
f 67/10/6 62/10/6 68/10/6
f 68/10/6 62/10/6 69/10/6
f 69/10/6 62/10/6 70/10/6
f 70/10/6 62/10/6 71/10/6
f 71/10/6 62/10/6 72/10/6
f 72/10/6 62/10/6 73/10/6
f 73/10/6 62/10/6 74/10/6
f 63/8/6 64/8/6 75/8/6
f 64/5/6 65/5/6 76/5/6
f 75/8/6 64/8/6 76/8/6
f 76/5/6 65/5/6 77/5/6
f 65/6/6 66/6/6 78/6/6
f 77/5/6 65/5/6 78/5/6
f 66/7/6 67/7/6 79/7/6
f 78/6/6 66/6/6 79/6/6
f 67/5/6 68/5/6 80/5/6
f 79/7/6 67/7/6 80/7/6
f 80/5/6 68/5/6 81/5/6
f 68/6/6 69/6/6 82/6/6
f 81/5/6 68/5/6 82/5/6
f 82/6/6 69/6/6 83/6/6
f 69/8/6 70/8/6 84/8/6
f 83/6/6 69/6/6 84/6/6
f 70/7/6 71/7/6 85/7/6
f 84/8/6 70/8/6 85/8/6
f 71/5/6 72/5/6 86/5/6
f 85/7/6 71/7/6 86/7/6
f 86/5/6 72/5/6 87/5/6
f 72/8/6 73/8/6 88/8/6
f 87/5/6 72/5/6 88/5/6
f 73/7/6 74/7/6 89/7/6
f 88/8/6 73/8/6 89/8/6
f 74/10/6 62/10/6 90/10/6
f 89/7/6 74/7/6 90/7/6
f 76/1/6 77/1/6 91/1/6
f 75/1/6 76/1/6 91/1/6
f 91/1/6 77/1/6 92/1/6
f 77/3/6 78/3/6 93/3/6
f 92/1/6 77/1/6 93/1/6
f 78/4/6 79/4/6 94/4/6
f 93/3/6 78/3/6 94/3/6
f 79/4/6 80/4/6 94/4/6
f 94/4/6 80/4/6 95/4/6
f 80/3/6 81/3/6 96/3/6
f 95/4/6 80/4/6 96/4/6
f 82/4/6 83/4/6 97/4/6
f 96/3/6 81/3/6 97/3/6
f 81/4/6 82/4/6 97/4/6
f 97/4/6 83/4/6 98/4/6
f 83/3/6 84/3/6 99/3/6
f 98/4/6 83/4/6 99/4/6
f 84/3/6 85/3/6 99/3/6
f 85/3/6 86/3/6 99/3/6
f 99/3/6 86/3/6 100/3/6
f 100/3/6 86/3/6 101/3/6
f 86/1/6 87/1/6 102/1/6
f 101/3/6 86/3/6 102/3/6
f 87/4/6 88/4/6 103/4/6
f 102/1/6 87/1/6 103/1/6
f 88/3/6 89/3/6 104/3/6
f 103/4/6 88/4/6 104/4/6
f 89/8/6 90/8/6 105/8/6
f 104/3/6 89/3/6 105/3/6
f 90/10/6 62/10/6 106/10/6
f 105/8/6 90/8/6 106/8/6
f 92/1/6 93/1/6 107/1/6
f 94/4/6 95/4/6 107/4/6
f 93/1/6 94/1/6 107/1/6
f 107/4/6 95/4/6 108/4/6
f 95/3/6 96/3/6 109/3/6
f 108/4/6 95/4/6 109/4/6
f 97/3/6 98/3/6 109/3/6
f 96/3/6 97/3/6 109/3/6
f 109/3/6 98/3/6 110/3/6
f 98/1/6 99/1/6 111/1/6
f 110/3/6 98/3/6 111/3/6
f 99/3/6 100/3/6 112/3/6
f 111/1/6 99/1/6 112/1/6
f 100/1/6 101/1/6 113/1/6
f 112/3/6 100/3/6 113/3/6
f 101/3/6 102/3/6 114/3/6
f 113/1/6 101/1/6 114/1/6
f 102/4/6 103/4/6 115/4/6
f 114/3/6 102/3/6 115/3/6
f 104/2/6 105/2/6 116/2/6
f 115/4/6 103/4/6 116/4/6
f 103/2/6 104/2/6 116/2/6
f 116/2/6 105/2/6 117/2/6
f 91/3/6 92/3/6 118/3/6
f 107/1/6 108/1/6 119/1/6
f 118/3/6 92/3/6 119/3/6
f 92/1/6 107/1/6 119/1/6
f 119/1/6 108/1/6 120/1/6
f 120/1/6 108/1/6 121/1/6
f 109/3/6 110/3/6 122/3/6
f 121/1/6 108/1/6 122/1/6
f 108/3/6 109/3/6 122/3/6
f 122/3/6 110/3/6 123/3/6
f 113/4/6 114/4/6 124/4/6
f 123/3/6 110/3/6 124/3/6
f 114/4/6 115/4/6 124/4/6
f 111/4/6 112/4/6 124/4/6
f 112/4/6 113/4/6 124/4/6
f 115/4/6 116/4/6 124/4/6
f 110/4/6 111/4/6 124/4/6
f 124/4/6 116/4/6 125/4/6
f 125/4/6 116/4/6 126/4/6
f 126/4/6 116/4/6 127/4/6
f 127/4/6 116/4/6 128/4/6
f 128/4/6 116/4/6 129/4/6
f 116/1/6 117/1/6 130/1/6
f 129/4/6 116/4/6 130/4/6
f 117/2/6 105/2/6 131/2/6
f 130/1/6 117/1/6 131/1/6
f 105/7/6 106/7/6 132/7/6
f 131/2/6 105/2/6 132/2/6
f 106/10/6 62/10/6 133/10/6
f 132/7/6 106/7/6 133/7/6
f 120/2/6 121/2/6 134/2/6
f 119/3/6 120/3/6 134/3/6
f 121/4/6 122/4/6 135/4/6
f 134/2/6 121/2/6 135/2/6
f 122/1/6 123/1/6 136/1/6
f 135/4/6 122/4/6 136/4/6
f 136/1/6 123/1/6 137/1/6
f 123/2/6 124/2/6 138/2/6
f 137/1/6 123/1/6 138/1/6
f 124/3/6 125/3/6 139/3/6
f 138/2/6 124/2/6 139/2/6
f 125/2/6 126/2/6 140/2/6
f 139/3/6 125/3/6 140/3/6
f 126/1/6 127/1/6 141/1/6
f 140/2/6 126/2/6 141/2/6
f 129/1/6 130/1/6 142/1/6
f 131/1/6 132/1/6 142/1/6
f 130/1/6 131/1/6 142/1/6
f 142/1/6 132/1/6 143/1/6
f 132/5/6 133/5/6 144/5/6
f 143/1/6 132/1/6 144/1/6
f 118/4/6 119/4/6 145/4/6
f 134/3/6 135/3/6 146/3/6
f 145/4/6 119/4/6 146/4/6
f 119/3/6 134/3/6 146/3/6
f 146/3/6 135/3/6 147/3/6
f 135/4/6 136/4/6 148/4/6
f 147/3/6 135/3/6 148/3/6
f 136/4/6 137/4/6 148/4/6
f 137/1/6 138/1/6 149/1/6
f 148/4/6 137/4/6 149/4/6
f 138/1/6 139/1/6 149/1/6
f 139/1/6 140/1/6 149/1/6
f 149/1/6 140/1/6 150/1/6
f 140/3/6 141/3/6 151/3/6
f 150/1/6 140/1/6 151/1/6
f 141/1/6 127/1/6 152/1/6
f 127/2/6 128/2/6 152/2/6
f 128/3/6 129/3/6 153/3/6
f 152/2/6 128/2/6 153/2/6
f 129/1/6 142/1/6 154/1/6
f 153/3/6 129/3/6 154/3/6
f 143/2/6 144/2/6 155/2/6
f 142/3/6 143/3/6 155/3/6
f 144/5/6 133/5/6 156/5/6
f 155/2/6 144/2/6 156/2/6
f 133/10/6 62/10/6 157/10/6
f 156/5/6 133/5/6 157/5/6
f 145/2/6 146/2/6 158/2/6
f 146/3/6 147/3/6 159/3/6
f 158/2/6 146/2/6 159/2/6
f 147/2/6 148/2/6 160/2/6
f 159/3/6 147/3/6 160/3/6
f 148/4/6 149/4/6 161/4/6
f 160/2/6 148/2/6 161/2/6
f 149/3/6 150/3/6 162/3/6
f 161/4/6 149/4/6 162/4/6
f 162/3/6 150/3/6 163/3/6
f 150/2/6 151/2/6 164/2/6
f 163/3/6 150/3/6 164/3/6
f 151/3/6 141/3/6 165/3/6
f 141/1/6 152/1/6 165/1/6
f 153/1/6 154/1/6 165/1/6
f 152/1/6 153/1/6 165/1/6
f 165/1/6 154/1/6 166/1/6
f 154/1/6 142/1/6 167/1/6
f 166/1/6 154/1/6 167/1/6
f 155/3/6 156/3/6 168/3/6
f 167/1/6 142/1/6 168/1/6
f 142/3/6 155/3/6 168/3/6
f 168/3/6 156/3/6 169/3/6
f 156/8/6 157/8/6 170/8/6
f 169/3/6 156/3/6 170/3/6
f 157/10/6 62/10/6 171/10/6
f 170/8/6 157/8/6 171/8/6
f 164/2/6 151/2/6 172/2/6
f 163/1/6 164/1/6 172/1/6
f 165/3/6 166/3/6 173/3/6
f 172/2/6 151/2/6 173/2/6
f 151/3/6 165/3/6 173/3/6
f 166/1/6 167/1/6 174/1/6
f 173/3/6 166/3/6 174/3/6
f 167/3/6 168/3/6 175/3/6
f 168/3/6 169/3/6 175/3/6
f 169/1/6 170/1/6 176/1/6
f 175/3/6 169/3/6 176/3/6
f 170/6/6 171/6/6 177/6/6
f 176/1/6 170/1/6 177/1/6
f 160/3/6 161/3/6 178/3/6
f 161/3/6 162/3/6 178/3/6
f 162/3/6 163/3/6 178/3/6
f 159/4/6 160/4/6 178/4/6
f 178/3/6 163/3/6 179/3/6
f 163/1/6 172/1/6 180/1/6
f 179/3/6 163/3/6 180/3/6
f 172/3/6 173/3/6 181/3/6
f 180/1/6 172/1/6 181/1/6
f 173/1/6 174/1/6 182/1/6
f 181/3/6 173/3/6 182/3/6
f 182/1/6 174/1/6 183/1/6
f 175/1/6 176/1/6 184/1/6
f 167/3/6 175/3/6 184/3/6
f 176/2/6 177/2/6 185/2/6
f 184/1/6 176/1/6 185/1/6
f 177/6/6 171/6/6 186/6/6
f 185/2/6 177/2/6 186/2/6
f 171/10/6 62/10/6 187/10/6
f 186/6/6 171/6/6 187/6/6
f 158/3/6 159/3/6 188/3/6
f 159/4/6 178/4/6 189/4/6
f 188/3/6 159/3/6 189/3/6
f 178/1/6 179/1/6 190/1/6
f 189/4/6 178/4/6 190/4/6
f 190/1/6 179/1/6 191/1/6
f 179/3/6 180/3/6 192/3/6
f 182/3/6 183/3/6 192/3/6
f 180/3/6 181/3/6 192/3/6
f 181/3/6 182/3/6 192/3/6
f 192/3/6 183/3/6 193/3/6
f 183/1/6 174/1/6 194/1/6
f 193/3/6 183/3/6 194/3/6
f 174/1/6 167/1/6 195/1/6
f 194/1/6 174/1/6 195/1/6
f 184/3/6 185/3/6 196/3/6
f 195/1/6 167/1/6 196/1/6
f 167/3/6 184/3/6 196/3/6
f 196/3/6 185/3/6 197/3/6
f 185/1/6 186/1/6 198/1/6
f 197/3/6 185/3/6 198/3/6
f 186/5/6 187/5/6 199/5/6
f 198/1/6 186/1/6 199/1/6
f 188/4/6 189/4/6 200/4/6
f 190/4/6 191/4/6 200/4/6
f 189/4/6 190/4/6 200/4/6
f 200/4/6 191/4/6 201/4/6
f 201/4/6 191/4/6 202/4/6
f 191/1/6 179/1/6 203/1/6
f 202/4/6 191/4/6 203/4/6
f 179/3/6 192/3/6 204/3/6
f 203/1/6 179/1/6 204/1/6
f 194/3/6 195/3/6 205/3/6
f 193/3/6 194/3/6 205/3/6
f 205/3/6 195/3/6 206/3/6
f 206/3/6 195/3/6 207/3/6
f 196/1/6 197/1/6 208/1/6
f 207/3/6 195/3/6 208/3/6
f 195/1/6 196/1/6 208/1/6
f 208/1/6 197/1/6 209/1/6
f 209/1/6 197/1/6 210/1/6
f 198/3/6 199/3/6 211/3/6
f 210/1/6 197/1/6 211/1/6
f 197/3/6 198/3/6 211/3/6
f 211/3/6 199/3/6 212/3/6
f 199/5/6 187/5/6 213/5/6
f 212/3/6 199/3/6 213/3/6
f 187/10/6 62/10/6 214/10/6
f 213/5/6 187/5/6 214/5/6
f 201/1/6 202/1/6 215/1/6
f 200/3/6 201/3/6 215/3/6
f 203/4/6 204/4/6 216/4/6
f 215/1/6 202/1/6 216/1/6
f 202/4/6 203/4/6 216/4/6
f 216/4/6 204/4/6 217/4/6
f 204/3/6 192/3/6 218/3/6
f 192/1/6 193/1/6 218/1/6
f 193/3/6 205/3/6 219/3/6
f 218/1/6 193/1/6 219/1/6
f 205/1/6 206/1/6 220/1/6
f 219/3/6 205/3/6 220/3/6
f 206/2/6 207/2/6 221/2/6
f 220/1/6 206/1/6 221/1/6
f 208/3/6 209/3/6 222/3/6
f 221/2/6 207/2/6 222/2/6
f 207/3/6 208/3/6 222/3/6
f 209/1/6 210/1/6 223/1/6
f 222/3/6 209/3/6 223/3/6
f 210/2/6 211/2/6 224/2/6
f 223/1/6 210/1/6 224/1/6
f 211/1/6 212/1/6 225/1/6
f 224/2/6 211/2/6 225/2/6
f 212/3/6 213/3/6 226/3/6
f 225/1/6 212/1/6 226/1/6
f 213/7/6 214/7/6 227/7/6
f 226/3/6 213/3/6 227/3/6
f 200/3/6 215/3/6 228/3/6
f 215/4/6 216/4/6 229/4/6
f 228/3/6 215/3/6 229/3/6
f 219/3/6 220/3/6 230/3/6
f 217/4/6 204/4/6 230/4/6
f 218/3/6 219/3/6 230/3/6
f 220/3/6 221/3/6 230/3/6
f 204/3/6 218/3/6 230/3/6
f 230/3/6 221/3/6 231/3/6
f 231/3/6 221/3/6 232/3/6
f 223/1/6 224/1/6 233/1/6
f 232/3/6 221/3/6 233/3/6
f 222/1/6 223/1/6 233/1/6
f 221/1/6 222/1/6 233/1/6
f 233/1/6 224/1/6 234/1/6
f 224/4/6 225/4/6 235/4/6
f 225/1/6 226/1/6 235/1/6
f 226/4/6 227/4/6 236/4/6
f 235/1/6 226/1/6 236/1/6
f 227/7/6 214/7/6 237/7/6
f 236/4/6 227/4/6 237/4/6
f 229/4/6 216/4/6 238/4/6
f 228/4/6 229/4/6 238/4/6
f 216/1/6 217/1/6 239/1/6
f 238/4/6 216/4/6 239/4/6
f 230/4/6 231/4/6 240/4/6
f 239/1/6 217/1/6 240/1/6
f 217/4/6 230/4/6 240/4/6
f 231/3/6 232/3/6 241/3/6
f 232/1/6 233/1/6 241/1/6
f 233/3/6 234/3/6 242/3/6
f 241/1/6 233/1/6 242/1/6
f 235/4/6 236/4/6 243/4/6
f 224/4/6 235/4/6 243/4/6
f 236/3/6 237/3/6 244/3/6
f 243/4/6 236/4/6 244/4/6
f 237/7/6 214/7/6 245/7/6
f 244/3/6 237/3/6 245/3/6
f 214/10/6 62/10/6 246/10/6
f 245/7/6 214/7/6 246/7/6
f 228/4/6 238/4/6 247/4/6
f 238/2/6 239/2/6 247/2/6
f 239/2/6 240/2/6 247/2/6
f 247/2/6 240/2/6 248/2/6
f 240/4/6 231/4/6 249/4/6
f 248/2/6 240/2/6 249/2/6
f 249/4/6 231/4/6 250/4/6
f 231/3/6 241/3/6 251/3/6
f 250/4/6 231/4/6 251/4/6
f 241/3/6 242/3/6 251/3/6
f 242/3/6 234/3/6 252/3/6
f 251/3/6 242/3/6 252/3/6
f 234/1/6 224/1/6 253/1/6
f 252/3/6 234/3/6 253/3/6
f 224/4/6 243/4/6 254/4/6
f 253/1/6 224/1/6 254/1/6
f 243/3/6 244/3/6 255/3/6
f 254/4/6 243/4/6 255/4/6
f 244/3/6 245/3/6 255/3/6
f 247/4/6 248/4/6 256/4/6
f 228/4/6 247/4/6 256/4/6
f 249/2/6 250/2/6 257/2/6
f 256/4/6 248/4/6 257/4/6
f 248/2/6 249/2/6 257/2/6
f 250/3/6 251/3/6 258/3/6
f 257/2/6 250/2/6 258/2/6
f 251/3/6 252/3/6 258/3/6
f 253/1/6 254/1/6 259/1/6
f 258/3/6 252/3/6 259/3/6
f 252/1/6 253/1/6 259/1/6
f 254/2/6 255/2/6 260/2/6
f 259/1/6 254/1/6 260/1/6
f 255/3/6 245/3/6 261/3/6
f 260/2/6 255/2/6 261/2/6
f 245/8/6 246/8/6 262/8/6
f 261/3/6 245/3/6 262/3/6
f 246/10/6 62/10/6 263/10/6
f 262/8/6 246/8/6 263/8/6
f 62/9/6 60/9/6 264/9/6
f 263/10/6 62/10/6 264/10/6
f 264/9/6 60/9/6 265/9/6
