{
	"asset":{
		"generator":"Khronos glTF Blender I/O v4.2.57",
		"version":"2.0"
	},
	"extensionsUsed":[
		"KHR_materials_specular"
	],
	"scene":0,
	"scenes":[
		{
			"name":"Scene",
			"nodes":[
				0
			]
		}
	],
	"nodes":[
		{
			"mesh":0,
			"name":"cactus-2"
		}
	],
	"materials":[
		{
			"doubleSided":true,
			"extensions":{
				"KHR_materials_specular":{
					"specularFactor":0
				}
			},
			"name":"palette",
			"pbrMetallicRoughness":{
				"baseColorTexture":{
					"index":0
				},
				"metallicFactor":0
			}
		}
	],
	"meshes":[
		{
			"name":"mesh",
			"primitives":[
				{
					"attributes":{
						"POSITION":0,
						"NORMAL":1,
						"TEXCOORD_0":2
					},
					"indices":3,
					"material":0
				}
			]
		}
	],
	"textures":[
		{
			"sampler":0,
			"source":0
		}
	],
	"images":[
		{
			"mimeType":"image/png",
			"name":"texture",
			"uri":"texture.png"
		}
	],
	"accessors":[
		{
			"bufferView":0,
			"componentType":5126,
			"count":96,
			"max":[
				0.30000001192092896,
				0.699999988079071,
				0
			],
			"min":[
				-0.20000000298023224,
				-7.549790126404332e-09,
				-0.1000000536441803
			],
			"type":"VEC3"
		},
		{
			"bufferView":1,
			"componentType":5126,
			"count":96,
			"type":"VEC3"
		},
		{
			"bufferView":2,
			"componentType":5126,
			"count":96,
			"type":"VEC2"
		},
		{
			"bufferView":3,
			"componentType":5123,
			"count":180,
			"type":"SCALAR"
		}
	],
	"bufferViews":[
		{
			"buffer":0,
			"byteLength":1152,
			"byteOffset":0,
			"target":34962
		},
		{
			"buffer":0,
			"byteLength":1152,
			"byteOffset":1152,
			"target":34962
		},
		{
			"buffer":0,
			"byteLength":768,
			"byteOffset":2304,
			"target":34962
		},
		{
			"buffer":0,
			"byteLength":360,
			"byteOffset":3072,
			"target":34963
		}
	],
	"samplers":[
		{
			"magFilter":9729,
			"minFilter":9987
		}
	],
	"buffers":[
		{
			"byteLength":3432,
			"uri":"cactus-2.bin"
		}
	]
}
