# MagicaVoxel @ Ephtracy

# group
o 

# material
mtllib city-water-side-1.mtl
usemtl palette

# normals
vn 0 0 1
vn 0 0 -1
vn 1 0 0
vn -1 0 0
vn 0 -1 0
vn 0 1 0

# texcoords
vt 0.845703 0.5
vt 0.849609 0.5
vt 0.853516 0.5
vt 0.978516 0.5
vt 0.982422 0.5

# verts
v 1.6 0 1.6
v -1.6 0 1.6
v 1.6 0.1 1.6
v -0.1 0.1 1.6
v -0.5 0.1 1.6
v -1.6 0.1 1.6
v 1.6 0.2 1.6
v -0.1 0.2 1.6
v -0.5 0.2 1.6
v -1.6 0.2 1.6
v 1.6 0 -1.6
v -1.6 0 -1.6
v 1.6 0.2 -1.6
v -1.6 0.2 -1.6
v 1.6 0 1.6
v 1.6 0.1 1.6
v 1.6 0.2 1.6
v 1.6 0.1 0.3
v 1.6 0.2 0.3
v 1.6 0.1 0.2
v 1.6 0.2 0.2
v 1.6 0.1 0.1
v 1.6 0.2 0.1
v 1.6 0.1 0
v 1.6 0.2 0
v 1.6 0.1 -0.1
v 1.6 0.2 -0.1
v 1.6 0 -1.6
v 1.6 0.2 -1.6
v -1.6 0 1.6
v -1.6 0.1 1.6
v -1.6 0.2 1.6
v -1.6 0.1 1.3
v -1.6 0.2 1.3
v -1.6 0.1 1.2
v -1.6 0.2 1.2
v -1.6 0.1 0.8
v -1.6 0.2 0.8
v -1.6 0.1 0.7
v -1.6 0.2 0.7
v -1.6 0.1 0.4
v -1.6 0.2 0.4
v -1.6 0.1 0.3
v -1.6 0.2 0.3
v -1.6 0.1 0.1
v -1.6 0.2 0.1
v -1.6 0.1 0
v -1.6 0.2 0
v -1.6 0.1 -0.1
v -1.6 0.2 -0.1
v -1.6 0 -1.6
v -1.6 0.2 -1.6
v 1.6 0 1.6
v 1.6 0 -1.6
v -1.6 0 1.6
v -1.6 0 -1.6
v 1.6 0.2 1.6
v 1.6 0.2 0.3
v 1.6 0.2 0.2
v 1.6 0.2 0.1
v 1.6 0.2 0
v 1.6 0.2 -0.1
v 1.6 0.2 -1.6
v 1.5 0.2 1
v 1.5 0.2 0.9
v 1.4 0.2 1.4
v 1.4 0.2 1.3
v 1.3 0.2 0.7
v 1.3 0.2 0.6
v 1.2 0.2 0.4
v 1.2 0.2 0.3
v 1.2 0.2 0.2
v 1.1 0.2 1.1
v 1.1 0.2 1
v 1.1 0.2 0.9
v 1.1 0.2 0.4
v 1.1 0.2 0.3
v 1 0.2 1.4
v 1 0.2 1.3
v 1 0.2 1.1
v 1 0.2 1
v 1 0.2 0.7
v 1 0.2 0.6
v 0.9 0.2 0.8
v 0.9 0.2 0.7
v 0.9 0.2 0.4
v 0.9 0.2 0.3
v 0.8 0.2 1.2
v 0.8 0.2 1.1
v 0.7 0.2 1.5
v 0.7 0.2 1.4
v 0.7 0.2 0.8
v 0.7 0.2 0.7
v 0.6 0.2 1.5
v 0.6 0.2 1.4
v 0.6 0.2 1.3
v 0.6 0.2 1.2
v 0.6 0.2 1.1
v 0.6 0.2 1
v 0.6 0.2 0.8
v 0.6 0.2 0.7
v 0.6 0.2 0.6
v 0.6 0.2 0.4
v 0.6 0.2 0.3
v 0.5 0.2 1.5
v 0.5 0.2 1.4
v 0.5 0.2 1.3
v 0.5 0.2 0.8
v 0.5 0.2 0.7
v 0.5 0.2 0.5
v 0.5 0.2 0.4
v 0.4 0.2 0.6
v 0.4 0.2 0.5
v 0.3 0.2 1.2
v 0.3 0.2 1.1
v 0.3 0.2 1
v 0.3 0.2 0.3
v 0.3 0.2 0.2
v 0.2 0.2 1.5
v 0.2 0.2 1.4
v 0.2 0.2 1.2
v 0.2 0.2 1.1
v 0.1 0.2 1.3
v 0.1 0.2 1.2
v 0.1 0.2 0.6
v 0.1 0.2 0.5
v 0 0.2 1
v 0 0.2 0.9
v 0 0.2 0.6
v 0 0.2 0.5
v 0 0.2 0.4
v 0 0.2 0.3
v 0 0.2 0.2
v -0.1 0.2 1.6
v -0.1 0.2 1.5
v -0.1 0.2 0.5
v -0.1 0.2 0.4
v -0.2 0.2 1
v -0.2 0.2 0.9
v -0.2 0.2 0.8
v -0.2 0.2 0.3
v -0.2 0.2 0.2
v -0.3 0.2 0.6
v -0.3 0.2 0.5
v -0.4 0.2 1.3
v -0.4 0.2 1.2
v -0.4 0.2 0.6
v -0.4 0.2 0.5
v -0.4 0.2 0.4
v -0.4 0.2 0.3
v -0.4 0.2 0.2
v -0.4 0.2 0.1
v -0.5 0.2 1.6
v -0.5 0.2 1.5
v -0.5 0.2 1.4
v -0.6 0.2 0.9
v -0.6 0.2 0.8
v -0.6 0.2 0.7
v -0.6 0.2 0.5
v -0.6 0.2 0.4
v -0.6 0.2 0.3
v -0.6 0.2 0.2
v -0.6 0.2 0.1
v -0.7 0.2 1.5
v -0.7 0.2 1.4
v -0.7 0.2 1.2
v -0.7 0.2 1.1
v -0.7 0.2 0.3
v -0.7 0.2 0.2
v -0.9 0.2 1.5
v -0.9 0.2 1.4
v -0.9 0.2 0.8
v -0.9 0.2 0.7
v -1 0.2 1.2
v -1 0.2 1.1
v -1 0.2 1
v -1 0.2 0.7
v -1 0.2 0.6
v -1 0.2 0.2
v -1 0.2 0.1
v -1.1 0.2 0.3
v -1.1 0.2 0.2
v -1.2 0.2 1.3
v -1.2 0.2 1.2
v -1.2 0.2 0.2
v -1.2 0.2 0.1
v -1.3 0.2 0.3
v -1.3 0.2 0.2
v -1.4 0.2 1.5
v -1.4 0.2 1.4
v -1.4 0.2 1.1
v -1.4 0.2 1
v -1.4 0.2 0.8
v -1.4 0.2 0.7
v -1.4 0.2 0.6
v -1.4 0.2 0.4
v -1.4 0.2 0.3
v -1.6 0.2 1.6
v -1.6 0.2 1.3
v -1.6 0.2 1.2
v -1.6 0.2 0.8
v -1.6 0.2 0.7
v -1.6 0.2 0.4
v -1.6 0.2 0.3
v -1.6 0.2 0.1
v -1.6 0.2 0
v -1.6 0.2 -0.1
v -1.6 0.2 -1.6

# faces
f 3/4/1 2/4/1 1/4/1
f 4/4/1 2/4/1 3/4/1
f 5/4/1 2/4/1 4/4/1
f 6/4/1 2/4/1 5/4/1
f 7/2/1 4/2/1 3/2/1
f 8/1/1 5/1/1 4/1/1
f 8/2/1 4/2/1 7/2/1
f 9/2/1 6/2/1 5/2/1
f 9/1/1 5/1/1 8/1/1
f 10/2/1 6/2/1 9/2/1
f 11/4/2 12/4/2 13/4/2
f 13/4/2 12/4/2 14/4/2
f 18/4/3 16/4/3 15/4/3
f 18/2/3 17/2/3 16/2/3
f 19/2/3 17/2/3 18/2/3
f 20/4/3 18/4/3 15/4/3
f 20/1/3 19/1/3 18/1/3
f 21/1/3 19/1/3 20/1/3
f 22/4/3 20/4/3 15/4/3
f 22/2/3 21/2/3 20/2/3
f 23/2/3 21/2/3 22/2/3
f 24/4/3 22/4/3 15/4/3
f 24/3/3 23/3/3 22/3/3
f 25/3/3 23/3/3 24/3/3
f 26/4/3 24/4/3 15/4/3
f 26/5/3 25/5/3 24/5/3
f 27/5/3 25/5/3 26/5/3
f 28/4/3 26/4/3 15/4/3
f 28/4/3 27/4/3 26/4/3
f 29/4/3 27/4/3 28/4/3
f 30/4/4 31/4/4 33/4/4
f 31/2/4 32/2/4 33/2/4
f 33/2/4 32/2/4 34/2/4
f 30/4/4 33/4/4 35/4/4
f 33/1/4 34/1/4 35/1/4
f 35/1/4 34/1/4 36/1/4
f 30/4/4 35/4/4 37/4/4
f 35/2/4 36/2/4 37/2/4
f 37/2/4 36/2/4 38/2/4
f 30/4/4 37/4/4 39/4/4
f 37/1/4 38/1/4 39/1/4
f 39/1/4 38/1/4 40/1/4
f 30/4/4 39/4/4 41/4/4
f 39/2/4 40/2/4 41/2/4
f 41/2/4 40/2/4 42/2/4
f 30/4/4 41/4/4 43/4/4
f 41/1/4 42/1/4 43/1/4
f 43/1/4 42/1/4 44/1/4
f 30/4/4 43/4/4 45/4/4
f 43/2/4 44/2/4 45/2/4
f 45/2/4 44/2/4 46/2/4
f 30/4/4 45/4/4 47/4/4
f 45/3/4 46/3/4 47/3/4
f 47/3/4 46/3/4 48/3/4
f 30/4/4 47/4/4 49/4/4
f 47/5/4 48/5/4 49/5/4
f 49/5/4 48/5/4 50/5/4
f 30/4/4 49/4/4 51/4/4
f 49/4/4 50/4/4 51/4/4
f 51/4/4 50/4/4 52/4/4
f 55/4/5 54/4/5 53/4/5
f 56/4/5 54/4/5 55/4/5
f 57/2/6 58/2/6 64/2/6
f 64/2/6 58/2/6 65/2/6
f 57/2/6 64/2/6 66/2/6
f 66/2/6 64/2/6 67/2/6
f 65/2/6 58/2/6 68/2/6
f 68/2/6 58/2/6 69/2/6
f 69/2/6 58/2/6 70/2/6
f 58/1/6 59/1/6 71/1/6
f 70/2/6 58/2/6 71/2/6
f 59/2/6 60/2/6 72/2/6
f 71/1/6 59/1/6 72/1/6
f 67/2/6 64/2/6 73/2/6
f 64/1/6 65/1/6 74/1/6
f 73/2/6 64/2/6 74/2/6
f 65/2/6 68/2/6 75/2/6
f 74/1/6 65/1/6 75/1/6
f 69/2/6 70/2/6 76/2/6
f 70/1/6 71/1/6 76/1/6
f 71/2/6 72/2/6 77/2/6
f 76/1/6 71/1/6 77/1/6
f 57/2/6 66/2/6 78/2/6
f 66/1/6 67/1/6 78/1/6
f 67/2/6 73/2/6 79/2/6
f 78/1/6 67/1/6 79/1/6
f 73/1/6 74/1/6 80/1/6
f 79/2/6 73/2/6 80/2/6
f 74/2/6 75/2/6 81/2/6
f 80/1/6 74/1/6 81/1/6
f 75/2/6 68/2/6 82/2/6
f 81/2/6 75/2/6 82/2/6
f 68/1/6 69/1/6 82/1/6
f 76/2/6 77/2/6 83/2/6
f 82/1/6 69/1/6 83/1/6
f 69/2/6 76/2/6 83/2/6
f 80/2/6 81/2/6 84/2/6
f 79/2/6 80/2/6 84/2/6
f 82/2/6 83/2/6 84/2/6
f 78/2/6 79/2/6 84/2/6
f 81/2/6 82/2/6 84/2/6
f 84/2/6 83/2/6 85/2/6
f 83/2/6 77/2/6 86/2/6
f 85/2/6 83/2/6 86/2/6
f 77/2/6 72/2/6 87/2/6
f 86/2/6 77/2/6 87/2/6
f 78/2/6 84/2/6 88/2/6
f 88/2/6 84/2/6 89/2/6
f 57/2/6 78/2/6 90/2/6
f 78/2/6 88/2/6 90/2/6
f 90/2/6 88/2/6 91/2/6
f 84/1/6 85/1/6 92/1/6
f 89/2/6 84/2/6 92/2/6
f 85/2/6 86/2/6 93/2/6
f 92/1/6 85/1/6 93/1/6
f 90/1/6 91/1/6 94/1/6
f 57/2/6 90/2/6 94/2/6
f 91/2/6 88/2/6 95/2/6
f 94/1/6 91/1/6 95/1/6
f 95/2/6 88/2/6 96/2/6
f 88/1/6 89/1/6 97/1/6
f 96/2/6 88/2/6 97/2/6
f 89/2/6 92/2/6 98/2/6
f 97/1/6 89/1/6 98/1/6
f 92/2/6 93/2/6 98/2/6
f 98/2/6 93/2/6 99/2/6
f 99/2/6 93/2/6 100/2/6
f 93/2/6 86/2/6 101/2/6
f 100/2/6 93/2/6 101/2/6
f 101/2/6 86/2/6 102/2/6
f 86/1/6 87/1/6 103/1/6
f 102/2/6 86/2/6 103/2/6
f 87/2/6 72/2/6 104/2/6
f 103/1/6 87/1/6 104/1/6
f 57/2/6 94/2/6 105/2/6
f 94/2/6 95/2/6 105/2/6
f 95/1/6 96/1/6 106/1/6
f 105/2/6 95/2/6 106/2/6
f 96/2/6 97/2/6 107/2/6
f 106/1/6 96/1/6 107/1/6
f 97/2/6 98/2/6 107/2/6
f 99/2/6 100/2/6 108/2/6
f 100/1/6 101/1/6 108/1/6
f 101/2/6 102/2/6 109/2/6
f 108/1/6 101/1/6 109/1/6
f 102/1/6 103/1/6 110/1/6
f 103/2/6 104/2/6 111/2/6
f 110/1/6 103/1/6 111/1/6
f 109/2/6 102/2/6 112/2/6
f 102/1/6 110/1/6 112/1/6
f 108/2/6 109/2/6 112/2/6
f 110/2/6 111/2/6 113/2/6
f 112/1/6 110/1/6 113/1/6
f 107/2/6 98/2/6 114/2/6
f 106/2/6 107/2/6 114/2/6
f 98/1/6 99/1/6 115/1/6
f 114/2/6 98/2/6 115/2/6
f 99/2/6 108/2/6 116/2/6
f 115/1/6 99/1/6 116/1/6
f 108/2/6 112/2/6 116/2/6
f 112/2/6 113/2/6 116/2/6
f 104/2/6 72/2/6 117/2/6
f 116/2/6 113/2/6 117/2/6
f 113/2/6 111/2/6 117/2/6
f 111/2/6 104/2/6 117/2/6
f 72/2/6 60/2/6 118/2/6
f 117/2/6 72/2/6 118/2/6
f 105/1/6 106/1/6 119/1/6
f 57/2/6 105/2/6 119/2/6
f 106/2/6 114/2/6 120/2/6
f 119/1/6 106/1/6 120/1/6
f 114/1/6 115/1/6 121/1/6
f 120/2/6 114/2/6 121/2/6
f 115/2/6 116/2/6 122/2/6
f 121/1/6 115/1/6 122/1/6
f 116/2/6 117/2/6 122/2/6
f 120/2/6 121/2/6 123/2/6
f 119/2/6 120/2/6 123/2/6
f 121/2/6 122/2/6 123/2/6
f 123/2/6 122/2/6 124/2/6
f 122/2/6 117/2/6 125/2/6
f 124/2/6 122/2/6 125/2/6
f 125/2/6 117/2/6 126/2/6
f 124/2/6 125/2/6 127/2/6
f 127/2/6 125/2/6 128/2/6
f 125/1/6 126/1/6 129/1/6
f 128/2/6 125/2/6 129/2/6
f 126/2/6 117/2/6 130/2/6
f 129/1/6 126/1/6 130/1/6
f 130/2/6 117/2/6 131/2/6
f 117/1/6 118/1/6 132/1/6
f 131/2/6 117/2/6 132/2/6
f 118/2/6 60/2/6 133/2/6
f 132/1/6 118/1/6 133/1/6
f 57/2/6 119/2/6 134/2/6
f 119/2/6 123/2/6 134/2/6
f 134/2/6 123/2/6 135/2/6
f 130/1/6 131/1/6 136/1/6
f 128/2/6 129/2/6 136/2/6
f 129/2/6 130/2/6 136/2/6
f 131/2/6 132/2/6 137/2/6
f 136/1/6 131/1/6 137/1/6
f 132/2/6 133/2/6 137/2/6
f 127/1/6 128/1/6 138/1/6
f 124/2/6 127/2/6 138/2/6
f 128/2/6 136/2/6 139/2/6
f 138/1/6 128/1/6 139/1/6
f 136/2/6 137/2/6 139/2/6
f 139/2/6 137/2/6 140/2/6
f 137/2/6 133/2/6 141/2/6
f 140/2/6 137/2/6 141/2/6
f 133/2/6 60/2/6 142/2/6
f 141/2/6 133/2/6 142/2/6
f 140/2/6 141/2/6 143/2/6
f 143/2/6 141/2/6 144/2/6
f 123/1/6 124/1/6 145/1/6
f 135/2/6 123/2/6 145/2/6
f 124/2/6 138/2/6 146/2/6
f 145/1/6 124/1/6 146/1/6
f 138/2/6 139/2/6 146/2/6
f 143/1/6 144/1/6 147/1/6
f 140/2/6 143/2/6 147/2/6
f 144/2/6 141/2/6 148/2/6
f 147/1/6 144/1/6 148/1/6
f 148/2/6 141/2/6 149/2/6
f 141/1/6 142/1/6 150/1/6
f 149/2/6 141/2/6 150/2/6
f 142/2/6 60/2/6 151/2/6
f 150/1/6 142/1/6 151/1/6
f 60/3/6 61/3/6 152/3/6
f 151/2/6 60/2/6 152/2/6
f 134/1/6 135/1/6 153/1/6
f 135/2/6 145/2/6 154/2/6
f 153/1/6 135/1/6 154/1/6
f 145/2/6 146/2/6 154/2/6
f 154/2/6 146/2/6 155/2/6
f 146/2/6 139/2/6 156/2/6
f 155/2/6 146/2/6 156/2/6
f 139/1/6 140/1/6 156/1/6
f 140/2/6 147/2/6 157/2/6
f 156/1/6 140/1/6 157/1/6
f 147/2/6 148/2/6 157/2/6
f 157/2/6 148/2/6 158/2/6
f 148/1/6 149/1/6 159/1/6
f 158/2/6 148/2/6 159/2/6
f 150/2/6 151/2/6 160/2/6
f 159/1/6 149/1/6 160/1/6
f 149/2/6 150/2/6 160/2/6
f 160/2/6 151/2/6 161/2/6
f 151/1/6 152/1/6 162/1/6
f 161/2/6 151/2/6 162/2/6
f 152/3/6 61/3/6 163/3/6
f 162/1/6 152/1/6 163/1/6
f 154/1/6 155/1/6 164/1/6
f 153/2/6 154/2/6 164/2/6
f 155/2/6 156/2/6 165/2/6
f 164/1/6 155/1/6 165/1/6
f 156/2/6 157/2/6 165/2/6
f 165/2/6 157/2/6 166/2/6
f 166/2/6 157/2/6 167/2/6
f 158/2/6 159/2/6 168/2/6
f 159/2/6 160/2/6 168/2/6
f 161/1/6 162/1/6 168/1/6
f 160/2/6 161/2/6 168/2/6
f 162/2/6 163/2/6 169/2/6
f 168/1/6 162/1/6 169/1/6
f 153/2/6 164/2/6 170/2/6
f 165/2/6 166/2/6 170/2/6
f 164/2/6 165/2/6 170/2/6
f 170/2/6 166/2/6 171/2/6
f 167/2/6 157/2/6 172/2/6
f 157/1/6 158/1/6 172/1/6
f 168/2/6 169/2/6 173/2/6
f 172/1/6 158/1/6 173/1/6
f 158/2/6 168/2/6 173/2/6
f 171/2/6 166/2/6 174/2/6
f 166/1/6 167/1/6 174/1/6
f 172/2/6 173/2/6 175/2/6
f 174/1/6 167/1/6 175/1/6
f 167/2/6 172/2/6 175/2/6
f 175/2/6 173/2/6 176/2/6
f 173/2/6 169/2/6 177/2/6
f 176/2/6 173/2/6 177/2/6
f 177/2/6 169/2/6 178/2/6
f 169/2/6 163/2/6 179/2/6
f 178/2/6 169/2/6 179/2/6
f 163/3/6 61/3/6 180/3/6
f 179/2/6 163/2/6 180/2/6
f 178/2/6 179/2/6 181/2/6
f 179/1/6 180/1/6 182/1/6
f 181/2/6 179/2/6 182/2/6
f 171/2/6 174/2/6 183/2/6
f 174/2/6 175/2/6 183/2/6
f 183/2/6 175/2/6 184/2/6
f 182/1/6 180/1/6 185/1/6
f 181/1/6 182/1/6 185/1/6
f 180/3/6 61/3/6 186/3/6
f 185/1/6 180/1/6 186/1/6
f 181/1/6 185/1/6 187/1/6
f 178/2/6 181/2/6 187/2/6
f 185/2/6 186/2/6 188/2/6
f 187/1/6 185/1/6 188/1/6
f 170/1/6 171/1/6 189/1/6
f 153/2/6 170/2/6 189/2/6
f 171/2/6 183/2/6 190/2/6
f 189/1/6 171/1/6 190/1/6
f 175/1/6 176/1/6 191/1/6
f 184/2/6 175/2/6 191/2/6
f 176/2/6 177/2/6 192/2/6
f 191/1/6 176/1/6 192/1/6
f 192/2/6 177/2/6 193/2/6
f 177/1/6 178/1/6 194/1/6
f 193/2/6 177/2/6 194/2/6
f 187/2/6 188/2/6 195/2/6
f 194/1/6 178/1/6 195/1/6
f 178/2/6 187/2/6 195/2/6
f 195/2/6 188/2/6 196/2/6
f 196/2/6 188/2/6 197/2/6
f 189/2/6 190/2/6 198/2/6
f 153/2/6 189/2/6 198/2/6
f 190/2/6 183/2/6 199/2/6
f 198/2/6 190/2/6 199/2/6
f 183/1/6 184/1/6 199/1/6
f 192/2/6 193/2/6 200/2/6
f 199/1/6 184/1/6 200/1/6
f 184/2/6 191/2/6 200/2/6
f 191/2/6 192/2/6 200/2/6
f 193/1/6 194/1/6 201/1/6
f 200/2/6 193/2/6 201/2/6
f 195/2/6 196/2/6 202/2/6
f 201/1/6 194/1/6 202/1/6
f 194/2/6 195/2/6 202/2/6
f 196/1/6 197/1/6 203/1/6
f 202/2/6 196/2/6 203/2/6
f 197/2/6 188/2/6 204/2/6
f 203/1/6 197/1/6 204/1/6
f 186/3/6 61/3/6 205/3/6
f 204/2/6 188/2/6 205/2/6
f 188/2/6 186/2/6 205/2/6
f 61/5/6 62/5/6 206/5/6
f 205/3/6 61/3/6 206/3/6
f 62/4/6 63/4/6 207/4/6
f 206/5/6 62/5/6 207/5/6
f 207/4/6 63/4/6 208/4/6
