# MagicaVoxel @ Ephtracy

# group
o 

# material
mtllib city-water-edgy-edge-inner-2.mtl
usemtl palette

# normals
vn 1 0 0
vn -1 0 0
vn 0 0 -1
vn 0 0 1
vn 0 -1 0
vn 0 1 0

# texcoords
vt 0.845703 0.5
vt 0.849609 0.5
vt 0.853516 0.5
vt 0.978516 0.5
vt 0.982422 0.5

# verts
v 1.6 0 -1.6
v 1.6 0 1.6
v 1.6 0.2 -1.6
v 1.6 0.2 1.6
v -1.6 0 -1.6
v -1.6 0 1.6
v -1.6 0.1 -0.1
v -1.6 0.1 0
v -1.6 0.1 0.1
v -1.6 0.1 1
v -1.6 0.1 1.2
v -1.6 0.1 1.6
v -1.6 0.2 -1.6
v -1.6 0.2 -0.1
v -1.6 0.2 0
v -1.6 0.2 0.1
v -1.6 0.2 1
v -1.6 0.2 1.2
v -1.6 0.2 1.6
v 1.6 0 -1.6
v 1.6 0.2 -1.6
v -1.6 0 -1.6
v -1.6 0.2 -1.6
v 1.6 0 1.6
v 1.6 0.2 1.6
v 0.1 0.1 1.6
v 0.1 0.2 1.6
v 0 0.1 1.6
v 0 0.2 1.6
v -0.1 0.1 1.6
v -0.1 0.2 1.6
v -0.2 0.1 1.6
v -0.2 0.2 1.6
v -0.3 0.1 1.6
v -0.3 0.2 1.6
v -1 0.1 1.6
v -1 0.2 1.6
v -1.1 0.1 1.6
v -1.1 0.2 1.6
v -1.6 0 1.6
v -1.6 0.1 1.6
v -1.6 0.2 1.6
v 1.6 0 -1.6
v -1.6 0 -1.6
v 1.6 0 1.6
v -1.6 0 1.6
v 1.6 0.2 -1.6
v -1.6 0.2 -1.6
v 0.1 0.2 -0.1
v -1.6 0.2 -0.1
v 0 0.2 0
v -1.6 0.2 0
v -0.1 0.2 0.1
v -0.8 0.2 0.1
v -1 0.2 0.1
v -1.3 0.2 0.1
v -1.5 0.2 0.1
v -1.6 0.2 0.1
v -0.3 0.2 0.2
v -0.4 0.2 0.2
v -0.7 0.2 0.2
v -0.8 0.2 0.2
v -1 0.2 0.2
v -1.2 0.2 0.2
v -1.3 0.2 0.2
v -1.5 0.2 0.2
v -0.7 0.2 0.3
v -0.8 0.2 0.3
v -1.1 0.2 0.3
v -1.2 0.2 0.3
v -1.3 0.2 0.3
v -0.7 0.2 0.4
v -0.8 0.2 0.4
v -1.1 0.2 0.4
v -1.2 0.2 0.4
v -0.2 0.2 0.5
v -0.3 0.2 0.5
v -0.4 0.2 0.5
v -0.5 0.2 0.5
v -0.7 0.2 0.5
v -0.8 0.2 0.5
v -0.9 0.2 0.5
v -1 0.2 0.5
v -1.4 0.2 0.5
v -1.5 0.2 0.5
v -0.6 0.2 0.6
v -0.7 0.2 0.6
v -1.3 0.2 0.6
v -1.4 0.2 0.6
v -1.5 0.2 0.6
v -0.2 0.2 0.7
v -0.3 0.2 0.7
v -0.4 0.2 0.7
v -0.5 0.2 0.7
v -0.6 0.2 0.7
v -0.8 0.2 0.7
v -0.9 0.2 0.7
v -1 0.2 0.7
v -1.2 0.2 0.7
v -1.3 0.2 0.7
v -1.4 0.2 0.7
v -0.8 0.2 0.8
v -0.9 0.2 0.8
v -1.1 0.2 0.8
v -1.2 0.2 0.8
v -0.4 0.2 0.9
v -0.5 0.2 0.9
v -0.8 0.2 0.9
v -0.9 0.2 0.9
v -1.2 0.2 0.9
v -1.3 0.2 0.9
v -1 0.2 1
v -1.1 0.2 1
v -1.5 0.2 1
v -1.6 0.2 1
v -0.4 0.2 1.1
v -0.5 0.2 1.1
v -0.7 0.2 1.1
v -0.8 0.2 1.1
v -0.9 0.2 1.1
v -1.1 0.2 1.1
v -1.2 0.2 1.1
v -1.4 0.2 1.1
v -1.5 0.2 1.1
v -1 0.2 1.2
v -1.1 0.2 1.2
v -1.3 0.2 1.2
v -1.4 0.2 1.2
v -1.6 0.2 1.2
v -0.3 0.2 1.3
v -0.4 0.2 1.3
v -0.5 0.2 1.3
v -1 0.2 1.3
v -1.1 0.2 1.3
v -0.7 0.2 1.4
v -0.8 0.2 1.4
v -1.2 0.2 1.4
v -1.3 0.2 1.4
v -1.4 0.2 1.4
v -0.2 0.2 1.5
v -0.3 0.2 1.5
v -0.4 0.2 1.5
v -1.2 0.2 1.5
v -1.3 0.2 1.5
v 1.6 0.2 1.6
v 0.1 0.2 1.6
v 0 0.2 1.6
v -0.1 0.2 1.6
v -0.2 0.2 1.6
v -0.3 0.2 1.6
v -1 0.2 1.6
v -1.1 0.2 1.6
v -1.6 0.2 1.6

# faces
f 3/4/1 2/4/1 1/4/1
f 4/4/1 2/4/1 3/4/1
f 5/4/2 6/4/2 7/4/2
f 7/4/2 6/4/2 8/4/2
f 8/4/2 6/4/2 9/4/2
f 9/4/2 6/4/2 10/4/2
f 10/4/2 6/4/2 11/4/2
f 11/4/2 6/4/2 12/4/2
f 5/4/2 7/4/2 13/4/2
f 7/5/2 8/5/2 14/5/2
f 13/4/2 7/4/2 14/4/2
f 8/3/2 9/3/2 15/3/2
f 14/5/2 8/5/2 15/5/2
f 9/2/2 10/2/2 16/2/2
f 15/3/2 9/3/2 16/3/2
f 10/1/2 11/1/2 17/1/2
f 16/2/2 10/2/2 17/2/2
f 11/2/2 12/2/2 18/2/2
f 17/1/2 11/1/2 18/1/2
f 18/2/2 12/2/2 19/2/2
f 22/4/3 21/4/3 20/4/3
f 23/4/3 21/4/3 22/4/3
f 24/4/4 25/4/4 26/4/4
f 26/4/4 25/4/4 27/4/4
f 24/4/4 26/4/4 28/4/4
f 26/5/4 27/5/4 28/5/4
f 28/5/4 27/5/4 29/5/4
f 24/4/4 28/4/4 30/4/4
f 28/3/4 29/3/4 30/3/4
f 30/3/4 29/3/4 31/3/4
f 24/4/4 30/4/4 32/4/4
f 30/2/4 31/2/4 32/2/4
f 32/2/4 31/2/4 33/2/4
f 24/4/4 32/4/4 34/4/4
f 32/1/4 33/1/4 34/1/4
f 34/1/4 33/1/4 35/1/4
f 24/4/4 34/4/4 36/4/4
f 34/2/4 35/2/4 36/2/4
f 36/2/4 35/2/4 37/2/4
f 24/4/4 36/4/4 38/4/4
f 36/1/4 37/1/4 38/1/4
f 38/1/4 37/1/4 39/1/4
f 24/4/4 38/4/4 40/4/4
f 38/2/4 39/2/4 41/2/4
f 40/4/4 38/4/4 41/4/4
f 41/2/4 39/2/4 42/2/4
f 45/4/5 44/4/5 43/4/5
f 46/4/5 44/4/5 45/4/5
f 47/4/6 48/4/6 49/4/6
f 49/4/6 48/4/6 50/4/6
f 49/5/6 50/5/6 51/5/6
f 51/5/6 50/5/6 52/5/6
f 51/3/6 52/3/6 53/3/6
f 53/3/6 52/3/6 54/3/6
f 54/3/6 52/3/6 55/3/6
f 55/3/6 52/3/6 56/3/6
f 56/3/6 52/3/6 57/3/6
f 57/3/6 52/3/6 58/3/6
f 53/2/6 54/2/6 59/2/6
f 59/2/6 54/2/6 60/2/6
f 60/2/6 54/2/6 61/2/6
f 54/1/6 55/1/6 62/1/6
f 61/2/6 54/2/6 62/2/6
f 55/2/6 56/2/6 63/2/6
f 62/1/6 55/1/6 63/1/6
f 63/2/6 56/2/6 64/2/6
f 56/1/6 57/1/6 65/1/6
f 64/2/6 56/2/6 65/2/6
f 57/2/6 58/2/6 66/2/6
f 65/1/6 57/1/6 66/1/6
f 60/2/6 61/2/6 67/2/6
f 61/1/6 62/1/6 67/1/6
f 63/2/6 64/2/6 68/2/6
f 67/1/6 62/1/6 68/1/6
f 62/2/6 63/2/6 68/2/6
f 68/2/6 64/2/6 69/2/6
f 64/1/6 65/1/6 70/1/6
f 69/2/6 64/2/6 70/2/6
f 65/2/6 66/2/6 71/2/6
f 70/1/6 65/1/6 71/1/6
f 60/2/6 67/2/6 72/2/6
f 68/2/6 69/2/6 72/2/6
f 67/2/6 68/2/6 72/2/6
f 72/2/6 69/2/6 73/2/6
f 69/1/6 70/1/6 74/1/6
f 73/2/6 69/2/6 74/2/6
f 70/2/6 71/2/6 75/2/6
f 74/1/6 70/1/6 75/1/6
f 53/2/6 59/2/6 76/2/6
f 59/1/6 60/1/6 77/1/6
f 76/2/6 59/2/6 77/2/6
f 60/2/6 72/2/6 78/2/6
f 77/1/6 60/1/6 78/1/6
f 78/2/6 72/2/6 79/2/6
f 72/1/6 73/1/6 80/1/6
f 79/2/6 72/2/6 80/2/6
f 73/2/6 74/2/6 81/2/6
f 80/1/6 73/1/6 81/1/6
f 74/2/6 75/2/6 81/2/6
f 81/2/6 75/2/6 82/2/6
f 82/2/6 75/2/6 83/2/6
f 71/2/6 66/2/6 84/2/6
f 83/2/6 75/2/6 84/2/6
f 75/2/6 71/2/6 84/2/6
f 66/2/6 58/2/6 85/2/6
f 84/2/6 66/2/6 85/2/6
f 79/1/6 80/1/6 86/1/6
f 81/2/6 82/2/6 87/2/6
f 86/1/6 80/1/6 87/1/6
f 80/2/6 81/2/6 87/2/6
f 83/2/6 84/2/6 88/2/6
f 84/1/6 85/1/6 89/1/6
f 88/2/6 84/2/6 89/2/6
f 85/2/6 58/2/6 90/2/6
f 89/1/6 85/1/6 90/1/6
f 53/2/6 76/2/6 91/2/6
f 76/1/6 77/1/6 91/1/6
f 78/2/6 79/2/6 92/2/6
f 91/1/6 77/1/6 92/1/6
f 77/2/6 78/2/6 92/2/6
f 92/2/6 79/2/6 93/2/6
f 79/1/6 86/1/6 94/1/6
f 93/2/6 79/2/6 94/2/6
f 86/2/6 87/2/6 95/2/6
f 94/1/6 86/1/6 95/1/6
f 87/2/6 82/2/6 96/2/6
f 95/2/6 87/2/6 96/2/6
f 82/1/6 83/1/6 97/1/6
f 96/2/6 82/2/6 97/2/6
f 83/2/6 88/2/6 98/2/6
f 97/1/6 83/1/6 98/1/6
f 98/2/6 88/2/6 99/2/6
f 88/1/6 89/1/6 100/1/6
f 99/2/6 88/2/6 100/2/6
f 89/2/6 90/2/6 101/2/6
f 100/1/6 89/1/6 101/1/6
f 94/2/6 95/2/6 102/2/6
f 95/2/6 96/2/6 102/2/6
f 96/1/6 97/1/6 102/1/6
f 98/2/6 99/2/6 103/2/6
f 102/1/6 97/1/6 103/1/6
f 97/2/6 98/2/6 103/2/6
f 103/2/6 99/2/6 104/2/6
f 99/1/6 100/1/6 105/1/6
f 104/2/6 99/2/6 105/2/6
f 92/2/6 93/2/6 106/2/6
f 93/1/6 94/1/6 106/1/6
f 91/2/6 92/2/6 106/2/6
f 94/2/6 102/2/6 107/2/6
f 106/1/6 94/1/6 107/1/6
f 103/2/6 104/2/6 107/2/6
f 102/2/6 103/2/6 107/2/6
f 107/2/6 104/2/6 108/2/6
f 108/2/6 104/2/6 109/2/6
f 105/1/6 100/1/6 110/1/6
f 104/1/6 105/1/6 110/1/6
f 100/2/6 101/2/6 111/2/6
f 110/1/6 100/1/6 111/1/6
f 109/2/6 104/2/6 112/2/6
f 104/1/6 110/1/6 113/1/6
f 112/2/6 104/2/6 113/2/6
f 101/2/6 90/2/6 114/2/6
f 111/2/6 101/2/6 114/2/6
f 90/2/6 58/2/6 114/2/6
f 110/2/6 111/2/6 114/2/6
f 114/2/6 58/2/6 115/2/6
f 91/2/6 106/2/6 116/2/6
f 107/2/6 108/2/6 116/2/6
f 106/2/6 107/2/6 116/2/6
f 116/2/6 108/2/6 117/2/6
f 117/2/6 108/2/6 118/2/6
f 108/1/6 109/1/6 119/1/6
f 118/2/6 108/2/6 119/2/6
f 109/2/6 112/2/6 120/2/6
f 119/1/6 109/1/6 120/1/6
f 113/1/6 110/1/6 121/1/6
f 112/1/6 113/1/6 121/1/6
f 110/2/6 114/2/6 122/2/6
f 121/1/6 110/1/6 122/1/6
f 122/2/6 114/2/6 123/2/6
f 114/1/6 115/1/6 124/1/6
f 123/2/6 114/2/6 124/2/6
f 120/2/6 112/2/6 125/2/6
f 119/2/6 120/2/6 125/2/6
f 112/1/6 121/1/6 125/1/6
f 122/2/6 123/2/6 126/2/6
f 125/1/6 121/1/6 126/1/6
f 121/2/6 122/2/6 126/2/6
f 126/2/6 123/2/6 127/2/6
f 123/1/6 124/1/6 128/1/6
f 127/2/6 123/2/6 128/2/6
f 124/1/6 115/1/6 129/1/6
f 128/1/6 124/1/6 129/1/6
f 91/2/6 116/2/6 130/2/6
f 116/1/6 117/1/6 131/1/6
f 130/2/6 116/2/6 131/2/6
f 117/2/6 118/2/6 132/2/6
f 131/1/6 117/1/6 132/1/6
f 126/2/6 127/2/6 133/2/6
f 119/2/6 125/2/6 133/2/6
f 125/2/6 126/2/6 133/2/6
f 133/2/6 127/2/6 134/2/6
f 118/1/6 119/1/6 135/1/6
f 132/2/6 118/2/6 135/2/6
f 131/2/6 132/2/6 135/2/6
f 119/2/6 133/2/6 136/2/6
f 135/1/6 119/1/6 136/1/6
f 134/2/6 127/2/6 137/2/6
f 127/1/6 128/1/6 138/1/6
f 137/2/6 127/2/6 138/2/6
f 128/2/6 129/2/6 139/2/6
f 138/1/6 128/1/6 139/1/6
f 53/2/6 91/2/6 140/2/6
f 91/2/6 130/2/6 140/2/6
f 130/1/6 131/1/6 141/1/6
f 140/2/6 130/2/6 141/2/6
f 131/2/6 135/2/6 142/2/6
f 141/1/6 131/1/6 142/1/6
f 135/2/6 136/2/6 142/2/6
f 134/2/6 137/2/6 143/2/6
f 137/1/6 138/1/6 143/1/6
f 138/2/6 139/2/6 144/2/6
f 143/1/6 138/1/6 144/1/6
f 47/4/6 49/4/6 145/4/6
f 49/5/6 51/5/6 146/5/6
f 145/4/6 49/4/6 146/4/6
f 51/3/6 53/3/6 147/3/6
f 146/5/6 51/5/6 147/5/6
f 53/2/6 140/2/6 148/2/6
f 147/3/6 53/3/6 148/3/6
f 140/1/6 141/1/6 149/1/6
f 148/2/6 140/2/6 149/2/6
f 141/2/6 142/2/6 150/2/6
f 149/1/6 141/1/6 150/1/6
f 142/2/6 136/2/6 151/2/6
f 150/2/6 142/2/6 151/2/6
f 136/2/6 133/2/6 151/2/6
f 133/1/6 134/1/6 151/1/6
f 143/2/6 144/2/6 152/2/6
f 151/1/6 134/1/6 152/1/6
f 134/2/6 143/2/6 152/2/6
f 144/2/6 139/2/6 153/2/6
f 152/2/6 144/2/6 153/2/6
f 139/2/6 129/2/6 153/2/6
