# MagicaVoxel @ Ephtracy

# group
o 

# material
mtllib semitrailer-v2-orange.mtl
usemtl palette

# normals
vn 1 0 0
vn -1 0 0
vn 0 0 -1
vn 0 0 1
vn 0 -1 0
vn 0 1 0

# texcoords
vt 0.818359 0.5
vt 0.908203 0.5
vt 0.982422 0.5

# verts
v 1.8 0.1 -0.3
v 1.8 0.1 0.3
v 1.8 0.2 -0.3
v 1.8 0.2 -0.1
v 1.8 0.2 0.1
v 1.8 0.2 0.3
v 1.8 0.3 -0.3
v 1.8 0.3 -0.1
v 1.8 0.3 0.1
v 1.8 0.3 0.3
v 1.2 0.1 -0.3
v 1.2 0.1 -0.1
v 1.2 0.1 0.1
v 1.2 0.1 0.3
v 1.2 0.2 -0.3
v 1.2 0.2 -0.1
v 1.2 0.2 0.1
v 1.2 0.2 0.3
v 0.9 0.1 -0.3
v 0.9 0.1 -0.1
v 0.9 0.1 0.1
v 0.9 0.1 0.3
v 0.9 0.2 -0.3
v 0.9 0.2 -0.1
v 0.9 0.2 0.1
v 0.9 0.2 0.3
v 0.6 0.1 -0.3
v 0.6 0.1 -0.1
v 0.6 0.1 0.1
v 0.6 0.1 0.3
v 0.6 0.2 -0.3
v 0.6 0.2 -0.1
v 0.6 0.2 0.1
v 0.6 0.2 0.3
v -0.8 0.3 -0.3
v -0.8 0.3 0.3
v -0.8 0.5 -0.3
v -0.8 0.5 0.3
v -1.2 0.3 -0.1
v -1.2 0.3 0.1
v -1.2 0.4 -0.1
v -1.2 0.4 0.1
v -1.3 0.3 -0.2
v -1.3 0.3 -0.1
v -1.3 0.3 0.1
v -1.3 0.3 0.2
v -1.3 0.4 -0.2
v -1.3 0.4 -0.1
v -1.3 0.4 0.1
v -1.3 0.4 0.2
v 1.4 0.1 -0.3
v 1.4 0.1 -0.1
v 1.4 0.1 0.1
v 1.4 0.1 0.3
v 1.4 0.2 -0.3
v 1.4 0.2 -0.1
v 1.4 0.2 0.1
v 1.4 0.2 0.3
v 1.1 0.1 -0.3
v 1.1 0.1 -0.1
v 1.1 0.1 0.1
v 1.1 0.1 0.3
v 1.1 0.2 -0.3
v 1.1 0.2 -0.1
v 1.1 0.2 0.1
v 1.1 0.2 0.3
v 0.8 0.1 -0.3
v 0.8 0.1 -0.1
v 0.8 0.1 0.1
v 0.8 0.1 0.3
v 0.8 0.2 -0.3
v 0.8 0.2 -0.1
v 0.8 0.2 0.1
v 0.8 0.2 0.3
v -1 0.1 -0.3
v -1 0.1 0.3
v -1 0.4 -0.3
v -1 0.4 0.3
v -1.5 0.3 -0.2
v -1.5 0.3 -0.1
v -1.5 0.3 0.1
v -1.5 0.3 0.2
v -1.5 0.4 -0.2
v -1.5 0.4 -0.1
v -1.5 0.4 0.1
v -1.5 0.4 0.2
v -1.6 0.3 -0.1
v -1.6 0.3 0.1
v -1.6 0.4 -0.1
v -1.6 0.4 0.1
v -1.7 0.4 -0.3
v -1.7 0.4 0.3
v -1.7 0.5 -0.3
v -1.7 0.5 0.3
v 1.8 0.1 -0.3
v 1.8 0.2 -0.3
v 1.8 0.3 -0.3
v 1.7 0.2 -0.3
v 1.7 0.3 -0.3
v 1.4 0.1 -0.3
v 1.4 0.2 -0.3
v 1.2 0.1 -0.3
v 1.2 0.2 -0.3
v 1.1 0.1 -0.3
v 1.1 0.2 -0.3
v 0.9 0.1 -0.3
v 0.9 0.2 -0.3
v 0.8 0.1 -0.3
v 0.8 0.2 -0.3
v 0.6 0.1 -0.3
v 0.6 0.2 -0.3
v -0.8 0.3 -0.3
v -0.8 0.5 -0.3
v -1 0.1 -0.3
v -1 0.4 -0.3
v -1.7 0.4 -0.3
v -1.7 0.5 -0.3
v -1.3 0.3 -0.2
v -1.3 0.4 -0.2
v -1.5 0.3 -0.2
v -1.5 0.4 -0.2
v 1.4 0.1 -0.1
v 1.4 0.2 -0.1
v 1.2 0.1 -0.1
v 1.2 0.2 -0.1
v 1.1 0.1 -0.1
v 1.1 0.2 -0.1
v 0.9 0.1 -0.1
v 0.9 0.2 -0.1
v 0.8 0.1 -0.1
v 0.8 0.2 -0.1
v 0.6 0.1 -0.1
v 0.6 0.2 -0.1
v -1.2 0.3 -0.1
v -1.2 0.4 -0.1
v -1.3 0.3 -0.1
v -1.3 0.4 -0.1
v -1.5 0.3 -0.1
v -1.5 0.4 -0.1
v -1.6 0.3 -0.1
v -1.6 0.4 -0.1
v 1.4 0.1 0.1
v 1.4 0.2 0.1
v 1.2 0.1 0.1
v 1.2 0.2 0.1
v 1.1 0.1 0.1
v 1.1 0.2 0.1
v 0.9 0.1 0.1
v 0.9 0.2 0.1
v 0.8 0.1 0.1
v 0.8 0.2 0.1
v 0.6 0.1 0.1
v 0.6 0.2 0.1
v -1.2 0.3 0.1
v -1.2 0.4 0.1
v -1.3 0.3 0.1
v -1.3 0.4 0.1
v -1.5 0.3 0.1
v -1.5 0.4 0.1
v -1.6 0.3 0.1
v -1.6 0.4 0.1
v -1.3 0.3 0.2
v -1.3 0.4 0.2
v -1.5 0.3 0.2
v -1.5 0.4 0.2
v 1.8 0.1 0.3
v 1.8 0.2 0.3
v 1.8 0.3 0.3
v 1.7 0.2 0.3
v 1.7 0.3 0.3
v 1.4 0.1 0.3
v 1.4 0.2 0.3
v 1.2 0.1 0.3
v 1.2 0.2 0.3
v 1.1 0.1 0.3
v 1.1 0.2 0.3
v 0.9 0.1 0.3
v 0.9 0.2 0.3
v 0.8 0.1 0.3
v 0.8 0.2 0.3
v 0.6 0.1 0.3
v 0.6 0.2 0.3
v -0.8 0.3 0.3
v -0.8 0.5 0.3
v -1 0.1 0.3
v -1 0.4 0.3
v -1.7 0.4 0.3
v -1.7 0.5 0.3
v 1.8 0.1 -0.3
v 1.4 0.1 -0.3
v 1.2 0.1 -0.3
v 1.1 0.1 -0.3
v 0.9 0.1 -0.3
v 0.8 0.1 -0.3
v 0.6 0.1 -0.3
v -1 0.1 -0.3
v 1.4 0.1 -0.1
v 1.2 0.1 -0.1
v 1.1 0.1 -0.1
v 0.9 0.1 -0.1
v 0.8 0.1 -0.1
v 0.6 0.1 -0.1
v 1.4 0.1 0.1
v 1.2 0.1 0.1
v 1.1 0.1 0.1
v 0.9 0.1 0.1
v 0.8 0.1 0.1
v 0.6 0.1 0.1
v 1.8 0.1 0.3
v 1.4 0.1 0.3
v 1.2 0.1 0.3
v 1.1 0.1 0.3
v 0.9 0.1 0.3
v 0.8 0.1 0.3
v 0.6 0.1 0.3
v -1 0.1 0.3
v 1.4 0.2 -0.3
v 1.2 0.2 -0.3
v 1.1 0.2 -0.3
v 0.9 0.2 -0.3
v 0.8 0.2 -0.3
v 0.6 0.2 -0.3
v 1.4 0.2 -0.1
v 1.2 0.2 -0.1
v 1.1 0.2 -0.1
v 0.9 0.2 -0.1
v 0.8 0.2 -0.1
v 0.6 0.2 -0.1
v 1.4 0.2 0.1
v 1.2 0.2 0.1
v 1.1 0.2 0.1
v 0.9 0.2 0.1
v 0.8 0.2 0.1
v 0.6 0.2 0.1
v 1.4 0.2 0.3
v 1.2 0.2 0.3
v 1.1 0.2 0.3
v 0.9 0.2 0.3
v 0.8 0.2 0.3
v 0.6 0.2 0.3
v -1.3 0.3 -0.2
v -1.5 0.3 -0.2
v -1.2 0.3 -0.1
v -1.3 0.3 -0.1
v -1.5 0.3 -0.1
v -1.6 0.3 -0.1
v -1.2 0.3 0.1
v -1.3 0.3 0.1
v -1.5 0.3 0.1
v -1.6 0.3 0.1
v -1.3 0.3 0.2
v -1.5 0.3 0.2
v -1 0.4 -0.3
v -1.7 0.4 -0.3
v -1.3 0.4 -0.2
v -1.5 0.4 -0.2
v -1.2 0.4 -0.1
v -1.3 0.4 -0.1
v -1.5 0.4 -0.1
v -1.6 0.4 -0.1
v -1.2 0.4 0.1
v -1.3 0.4 0.1
v -1.5 0.4 0.1
v -1.6 0.4 0.1
v -1.3 0.4 0.2
v -1.5 0.4 0.2
v -1 0.4 0.3
v -1.7 0.4 0.3
v 1.8 0.3 -0.3
v 1.7 0.3 -0.3
v -0.8 0.3 -0.3
v 1.8 0.3 -0.1
v 1.7 0.3 -0.1
v 1.8 0.3 0.1
v 1.7 0.3 0.1
v 1.8 0.3 0.3
v 1.7 0.3 0.3
v -0.8 0.3 0.3
v -0.8 0.5 -0.3
v -1.7 0.5 -0.3
v -0.8 0.5 0.3
v -1.7 0.5 0.3

# faces
f 3/3/1 2/3/1 1/3/1
f 4/3/1 2/3/1 3/3/1
f 5/3/1 2/3/1 4/3/1
f 6/3/1 2/3/1 5/3/1
f 7/2/1 4/2/1 3/2/1
f 8/3/1 5/3/1 4/3/1
f 8/2/1 4/2/1 7/2/1
f 9/2/1 6/2/1 5/2/1
f 9/3/1 5/3/1 8/3/1
f 10/2/1 6/2/1 9/2/1
f 15/3/1 12/3/1 11/3/1
f 16/3/1 12/3/1 15/3/1
f 17/3/1 14/3/1 13/3/1
f 18/3/1 14/3/1 17/3/1
f 23/3/1 20/3/1 19/3/1
f 24/3/1 20/3/1 23/3/1
f 25/3/1 22/3/1 21/3/1
f 26/3/1 22/3/1 25/3/1
f 31/3/1 28/3/1 27/3/1
f 32/3/1 28/3/1 31/3/1
f 33/3/1 30/3/1 29/3/1
f 34/3/1 30/3/1 33/3/1
f 37/3/1 36/3/1 35/3/1
f 38/3/1 36/3/1 37/3/1
f 41/1/1 40/1/1 39/1/1
f 42/1/1 40/1/1 41/1/1
f 47/1/1 44/1/1 43/1/1
f 48/1/1 44/1/1 47/1/1
f 49/1/1 46/1/1 45/1/1
f 50/1/1 46/1/1 49/1/1
f 51/3/2 52/3/2 55/3/2
f 55/3/2 52/3/2 56/3/2
f 53/3/2 54/3/2 57/3/2
f 57/3/2 54/3/2 58/3/2
f 59/3/2 60/3/2 63/3/2
f 63/3/2 60/3/2 64/3/2
f 61/3/2 62/3/2 65/3/2
f 65/3/2 62/3/2 66/3/2
f 67/3/2 68/3/2 71/3/2
f 71/3/2 68/3/2 72/3/2
f 69/3/2 70/3/2 73/3/2
f 73/3/2 70/3/2 74/3/2
f 75/3/2 76/3/2 77/3/2
f 77/3/2 76/3/2 78/3/2
f 79/1/2 80/1/2 83/1/2
f 83/1/2 80/1/2 84/1/2
f 81/1/2 82/1/2 85/1/2
f 85/1/2 82/1/2 86/1/2
f 87/1/2 88/1/2 89/1/2
f 89/1/2 88/1/2 90/1/2
f 91/3/2 92/3/2 93/3/2
f 93/3/2 92/3/2 94/3/2
f 98/3/3 96/3/3 95/3/3
f 98/2/3 97/2/3 96/2/3
f 99/2/3 97/2/3 98/2/3
f 100/3/3 98/3/3 95/3/3
f 100/3/3 99/3/3 98/3/3
f 101/3/3 99/3/3 100/3/3
f 103/3/3 99/3/3 101/3/3
f 104/3/3 103/3/3 102/3/3
f 105/3/3 99/3/3 103/3/3
f 105/3/3 103/3/3 104/3/3
f 107/3/3 99/3/3 105/3/3
f 108/3/3 107/3/3 106/3/3
f 109/3/3 99/3/3 107/3/3
f 109/3/3 107/3/3 108/3/3
f 111/3/3 99/3/3 109/3/3
f 112/3/3 99/3/3 111/3/3
f 112/3/3 111/3/3 110/3/3
f 114/3/3 112/3/3 110/3/3
f 114/3/3 113/3/3 112/3/3
f 115/3/3 113/3/3 114/3/3
f 116/3/3 113/3/3 115/3/3
f 117/3/3 113/3/3 116/3/3
f 120/1/3 119/1/3 118/1/3
f 121/1/3 119/1/3 120/1/3
f 124/3/3 123/3/3 122/3/3
f 125/3/3 123/3/3 124/3/3
f 128/3/3 127/3/3 126/3/3
f 129/3/3 127/3/3 128/3/3
f 132/3/3 131/3/3 130/3/3
f 133/3/3 131/3/3 132/3/3
f 136/1/3 135/1/3 134/1/3
f 137/1/3 135/1/3 136/1/3
f 140/1/3 139/1/3 138/1/3
f 141/1/3 139/1/3 140/1/3
f 142/3/4 143/3/4 144/3/4
f 144/3/4 143/3/4 145/3/4
f 146/3/4 147/3/4 148/3/4
f 148/3/4 147/3/4 149/3/4
f 150/3/4 151/3/4 152/3/4
f 152/3/4 151/3/4 153/3/4
f 154/1/4 155/1/4 156/1/4
f 156/1/4 155/1/4 157/1/4
f 158/1/4 159/1/4 160/1/4
f 160/1/4 159/1/4 161/1/4
f 162/1/4 163/1/4 164/1/4
f 164/1/4 163/1/4 165/1/4
f 166/3/4 167/3/4 169/3/4
f 167/2/4 168/2/4 169/2/4
f 169/2/4 168/2/4 170/2/4
f 166/3/4 169/3/4 171/3/4
f 169/3/4 170/3/4 171/3/4
f 171/3/4 170/3/4 172/3/4
f 172/3/4 170/3/4 174/3/4
f 173/3/4 174/3/4 175/3/4
f 174/3/4 170/3/4 176/3/4
f 175/3/4 174/3/4 176/3/4
f 176/3/4 170/3/4 178/3/4
f 177/3/4 178/3/4 179/3/4
f 178/3/4 170/3/4 180/3/4
f 179/3/4 178/3/4 180/3/4
f 180/3/4 170/3/4 182/3/4
f 182/3/4 170/3/4 183/3/4
f 181/3/4 182/3/4 183/3/4
f 181/3/4 183/3/4 185/3/4
f 183/3/4 184/3/4 185/3/4
f 185/3/4 184/3/4 186/3/4
f 186/3/4 184/3/4 187/3/4
f 187/3/4 184/3/4 188/3/4
f 197/3/5 190/3/5 189/3/5
f 198/3/5 192/3/5 191/3/5
f 199/3/5 192/3/5 198/3/5
f 200/3/5 194/3/5 193/3/5
f 201/3/5 194/3/5 200/3/5
f 202/3/5 196/3/5 195/3/5
f 203/3/5 201/3/5 200/3/5
f 203/3/5 202/3/5 201/3/5
f 203/3/5 197/3/5 189/3/5
f 203/3/5 199/3/5 198/3/5
f 203/3/5 200/3/5 199/3/5
f 203/3/5 198/3/5 197/3/5
f 204/3/5 202/3/5 203/3/5
f 205/3/5 202/3/5 204/3/5
f 206/3/5 202/3/5 205/3/5
f 207/3/5 202/3/5 206/3/5
f 208/3/5 196/3/5 202/3/5
f 208/3/5 202/3/5 207/3/5
f 209/3/5 203/3/5 189/3/5
f 210/3/5 203/3/5 209/3/5
f 211/3/5 205/3/5 204/3/5
f 212/3/5 205/3/5 211/3/5
f 213/3/5 207/3/5 206/3/5
f 214/3/5 207/3/5 213/3/5
f 215/3/5 196/3/5 208/3/5
f 216/3/5 196/3/5 215/3/5
f 223/3/5 218/3/5 217/3/5
f 224/3/5 218/3/5 223/3/5
f 225/3/5 220/3/5 219/3/5
f 226/3/5 220/3/5 225/3/5
f 227/3/5 222/3/5 221/3/5
f 228/3/5 222/3/5 227/3/5
f 235/3/5 230/3/5 229/3/5
f 236/3/5 230/3/5 235/3/5
f 237/3/5 232/3/5 231/3/5
f 238/3/5 232/3/5 237/3/5
f 239/3/5 234/3/5 233/3/5
f 240/3/5 234/3/5 239/3/5
f 244/1/5 242/1/5 241/1/5
f 245/1/5 242/1/5 244/1/5
f 247/1/5 244/1/5 243/1/5
f 247/1/5 246/1/5 245/1/5
f 247/1/5 245/1/5 244/1/5
f 248/1/5 246/1/5 247/1/5
f 249/1/5 246/1/5 248/1/5
f 250/1/5 246/1/5 249/1/5
f 251/1/5 249/1/5 248/1/5
f 252/1/5 249/1/5 251/1/5
f 255/3/5 254/3/5 253/3/5
f 256/3/5 254/3/5 255/3/5
f 257/3/5 255/3/5 253/3/5
f 258/3/5 255/3/5 257/3/5
f 259/3/5 254/3/5 256/3/5
f 260/3/5 254/3/5 259/3/5
f 261/3/5 257/3/5 253/3/5
f 264/3/5 254/3/5 260/3/5
f 265/3/5 262/3/5 261/3/5
f 266/3/5 264/3/5 263/3/5
f 267/3/5 265/3/5 261/3/5
f 267/3/5 266/3/5 265/3/5
f 267/3/5 261/3/5 253/3/5
f 268/3/5 264/3/5 266/3/5
f 268/3/5 266/3/5 267/3/5
f 268/3/5 254/3/5 264/3/5
f 269/2/6 270/2/6 272/2/6
f 270/3/6 271/3/6 273/3/6
f 272/2/6 270/2/6 273/2/6
f 272/3/6 273/3/6 274/3/6
f 273/3/6 271/3/6 275/3/6
f 274/3/6 273/3/6 275/3/6
f 274/2/6 275/2/6 276/2/6
f 275/3/6 271/3/6 277/3/6
f 276/2/6 275/2/6 277/2/6
f 277/3/6 271/3/6 278/3/6
f 279/3/6 280/3/6 281/3/6
f 281/3/6 280/3/6 282/3/6
