# MagicaVoxel @ Ephtracy

# group
o 

# material
mtllib semitrailer-v3-yellow.mtl
usemtl palette

# normals
vn 1 0 0
vn -1 0 0
vn 0 0 -1
vn 0 0 1
vn 0 -1 0
vn 0 1 0

# texcoords
vt 0.818359 0.5
vt 0.908203 0.5
vt 0.990234 0.5

# verts
v 1.8 0.1 -0.3
v 1.8 0.1 0.3
v 1.8 0.2 -0.3
v 1.8 0.2 -0.1
v 1.8 0.2 0.1
v 1.8 0.2 0.3
v 1.8 0.3 -0.3
v 1.8 0.3 -0.1
v 1.8 0.3 0.1
v 1.8 0.3 0.3
v 1.7 0.3 -0.3
v 1.7 0.3 -0.2
v 1.7 0.3 0.2
v 1.7 0.3 0.3
v 1.7 0.9 -0.3
v 1.7 0.9 -0.2
v 1.7 0.9 0.2
v 1.7 0.9 0.3
v 1.2 0.1 -0.3
v 1.2 0.1 -0.1
v 1.2 0.1 0.1
v 1.2 0.1 0.3
v 1.2 0.2 -0.3
v 1.2 0.2 -0.1
v 1.2 0.2 0.1
v 1.2 0.2 0.3
v 1.2 0.3 -0.3
v 1.2 0.3 -0.2
v 1.2 0.3 0.2
v 1.2 0.3 0.3
v 1.2 0.9 -0.3
v 1.2 0.9 -0.2
v 1.2 0.9 0.2
v 1.2 0.9 0.3
v 0.9 0.1 -0.3
v 0.9 0.1 -0.1
v 0.9 0.1 0.1
v 0.9 0.1 0.3
v 0.9 0.2 -0.3
v 0.9 0.2 -0.1
v 0.9 0.2 0.1
v 0.9 0.2 0.3
v 0.7 0.3 -0.3
v 0.7 0.3 -0.2
v 0.7 0.3 0.2
v 0.7 0.3 0.3
v 0.7 0.9 -0.3
v 0.7 0.9 -0.2
v 0.7 0.9 0.2
v 0.7 0.9 0.3
v 0.6 0.1 -0.3
v 0.6 0.1 -0.1
v 0.6 0.1 0.1
v 0.6 0.1 0.3
v 0.6 0.2 -0.3
v 0.6 0.2 -0.1
v 0.6 0.2 0.1
v 0.6 0.2 0.3
v 0.2 0.3 -0.3
v 0.2 0.3 -0.2
v 0.2 0.3 0.2
v 0.2 0.3 0.3
v 0.2 0.9 -0.3
v 0.2 0.9 -0.2
v 0.2 0.9 0.2
v 0.2 0.9 0.3
v -0.3 0.3 -0.3
v -0.3 0.3 -0.2
v -0.3 0.3 0.2
v -0.3 0.3 0.3
v -0.3 0.9 -0.3
v -0.3 0.9 -0.2
v -0.3 0.9 0.2
v -0.3 0.9 0.3
v -0.8 0.3 -0.3
v -0.8 0.3 0.3
v -0.8 0.5 -0.3
v -0.8 0.5 -0.2
v -0.8 0.5 0.2
v -0.8 0.5 0.3
v -0.8 0.9 -0.3
v -0.8 0.9 -0.2
v -0.8 0.9 0.2
v -0.8 0.9 0.3
v -1.2 0.3 -0.1
v -1.2 0.3 0.1
v -1.2 0.4 -0.1
v -1.2 0.4 0.1
v -1.3 0.3 -0.2
v -1.3 0.3 -0.1
v -1.3 0.3 0.1
v -1.3 0.3 0.2
v -1.3 0.4 -0.2
v -1.3 0.4 -0.1
v -1.3 0.4 0.1
v -1.3 0.4 0.2
v -1.3 0.5 -0.3
v -1.3 0.5 -0.2
v -1.3 0.5 0.2
v -1.3 0.5 0.3
v -1.3 0.9 -0.3
v -1.3 0.9 -0.2
v -1.3 0.9 0.2
v -1.3 0.9 0.3
v 1.6 0.3 -0.3
v 1.6 0.3 -0.2
v 1.6 0.3 0.2
v 1.6 0.3 0.3
v 1.6 0.9 -0.3
v 1.6 0.9 -0.2
v 1.6 0.9 0.2
v 1.6 0.9 0.3
v 1.4 0.1 -0.3
v 1.4 0.1 -0.1
v 1.4 0.1 0.1
v 1.4 0.1 0.3
v 1.4 0.2 -0.3
v 1.4 0.2 -0.1
v 1.4 0.2 0.1
v 1.4 0.2 0.3
v 1.1 0.1 -0.3
v 1.1 0.1 -0.1
v 1.1 0.1 0.1
v 1.1 0.1 0.3
v 1.1 0.2 -0.3
v 1.1 0.2 -0.1
v 1.1 0.2 0.1
v 1.1 0.2 0.3
v 1.1 0.3 -0.3
v 1.1 0.3 -0.2
v 1.1 0.3 0.2
v 1.1 0.3 0.3
v 1.1 0.9 -0.3
v 1.1 0.9 -0.2
v 1.1 0.9 0.2
v 1.1 0.9 0.3
v 0.8 0.1 -0.3
v 0.8 0.1 -0.1
v 0.8 0.1 0.1
v 0.8 0.1 0.3
v 0.8 0.2 -0.3
v 0.8 0.2 -0.1
v 0.8 0.2 0.1
v 0.8 0.2 0.3
v 0.6 0.3 -0.3
v 0.6 0.3 -0.2
v 0.6 0.3 0.2
v 0.6 0.3 0.3
v 0.6 0.9 -0.3
v 0.6 0.9 -0.2
v 0.6 0.9 0.2
v 0.6 0.9 0.3
v 0.1 0.3 -0.3
v 0.1 0.3 -0.2
v 0.1 0.3 0.2
v 0.1 0.3 0.3
v 0.1 0.9 -0.3
v 0.1 0.9 -0.2
v 0.1 0.9 0.2
v 0.1 0.9 0.3
v -0.4 0.3 -0.3
v -0.4 0.3 -0.2
v -0.4 0.3 0.2
v -0.4 0.3 0.3
v -0.4 0.9 -0.3
v -0.4 0.9 -0.2
v -0.4 0.9 0.2
v -0.4 0.9 0.3
v -0.9 0.5 -0.3
v -0.9 0.5 -0.2
v -0.9 0.5 0.2
v -0.9 0.5 0.3
v -0.9 0.9 -0.3
v -0.9 0.9 -0.2
v -0.9 0.9 0.2
v -0.9 0.9 0.3
v -1 0.1 -0.3
v -1 0.1 0.3
v -1 0.4 -0.3
v -1 0.4 0.3
v -1.4 0.5 -0.3
v -1.4 0.5 -0.2
v -1.4 0.5 0.2
v -1.4 0.5 0.3
v -1.4 0.9 -0.3
v -1.4 0.9 -0.2
v -1.4 0.9 0.2
v -1.4 0.9 0.3
v -1.5 0.3 -0.2
v -1.5 0.3 -0.1
v -1.5 0.3 0.1
v -1.5 0.3 0.2
v -1.5 0.4 -0.2
v -1.5 0.4 -0.1
v -1.5 0.4 0.1
v -1.5 0.4 0.2
v -1.6 0.3 -0.1
v -1.6 0.3 0.1
v -1.6 0.4 -0.1
v -1.6 0.4 0.1
v -1.7 0.4 -0.3
v -1.7 0.4 0.3
v -1.7 0.5 -0.3
v -1.7 0.5 0.3
v 1.8 0.1 -0.3
v 1.8 0.2 -0.3
v 1.8 0.3 -0.3
v 1.7 0.2 -0.3
v 1.7 0.3 -0.3
v 1.7 0.9 -0.3
v 1.6 0.3 -0.3
v 1.6 0.9 -0.3
v 1.4 0.1 -0.3
v 1.4 0.2 -0.3
v 1.2 0.1 -0.3
v 1.2 0.2 -0.3
v 1.2 0.3 -0.3
v 1.2 0.9 -0.3
v 1.1 0.1 -0.3
v 1.1 0.2 -0.3
v 1.1 0.3 -0.3
v 1.1 0.9 -0.3
v 0.9 0.1 -0.3
v 0.9 0.2 -0.3
v 0.8 0.1 -0.3
v 0.8 0.2 -0.3
v 0.7 0.3 -0.3
v 0.7 0.9 -0.3
v 0.6 0.1 -0.3
v 0.6 0.2 -0.3
v 0.6 0.3 -0.3
v 0.6 0.9 -0.3
v 0.2 0.3 -0.3
v 0.2 0.9 -0.3
v 0.1 0.3 -0.3
v 0.1 0.9 -0.3
v -0.3 0.3 -0.3
v -0.3 0.9 -0.3
v -0.4 0.3 -0.3
v -0.4 0.9 -0.3
v -0.8 0.3 -0.3
v -0.8 0.5 -0.3
v -0.8 0.9 -0.3
v -0.9 0.5 -0.3
v -0.9 0.9 -0.3
v -1 0.1 -0.3
v -1 0.4 -0.3
v -1.3 0.5 -0.3
v -1.3 0.9 -0.3
v -1.4 0.5 -0.3
v -1.4 0.9 -0.3
v -1.7 0.4 -0.3
v -1.7 0.5 -0.3
v -1.3 0.3 -0.2
v -1.3 0.4 -0.2
v -1.5 0.3 -0.2
v -1.5 0.4 -0.2
v 1.4 0.1 -0.1
v 1.4 0.2 -0.1
v 1.2 0.1 -0.1
v 1.2 0.2 -0.1
v 1.1 0.1 -0.1
v 1.1 0.2 -0.1
v 0.9 0.1 -0.1
v 0.9 0.2 -0.1
v 0.8 0.1 -0.1
v 0.8 0.2 -0.1
v 0.6 0.1 -0.1
v 0.6 0.2 -0.1
v -1.2 0.3 -0.1
v -1.2 0.4 -0.1
v -1.3 0.3 -0.1
v -1.3 0.4 -0.1
v -1.5 0.3 -0.1
v -1.5 0.4 -0.1
v -1.6 0.3 -0.1
v -1.6 0.4 -0.1
v 1.7 0.3 0.2
v 1.7 0.9 0.2
v 1.6 0.3 0.2
v 1.6 0.9 0.2
v 1.2 0.3 0.2
v 1.2 0.9 0.2
v 1.1 0.3 0.2
v 1.1 0.9 0.2
v 0.7 0.3 0.2
v 0.7 0.9 0.2
v 0.6 0.3 0.2
v 0.6 0.9 0.2
v 0.2 0.3 0.2
v 0.2 0.9 0.2
v 0.1 0.3 0.2
v 0.1 0.9 0.2
v -0.3 0.3 0.2
v -0.3 0.9 0.2
v -0.4 0.3 0.2
v -0.4 0.9 0.2
v -0.8 0.5 0.2
v -0.8 0.9 0.2
v -0.9 0.5 0.2
v -0.9 0.9 0.2
v -1.3 0.5 0.2
v -1.3 0.9 0.2
v -1.4 0.5 0.2
v -1.4 0.9 0.2
v 1.7 0.3 -0.2
v 1.7 0.9 -0.2
v 1.6 0.3 -0.2
v 1.6 0.9 -0.2
v 1.2 0.3 -0.2
v 1.2 0.9 -0.2
v 1.1 0.3 -0.2
v 1.1 0.9 -0.2
v 0.7 0.3 -0.2
v 0.7 0.9 -0.2
v 0.6 0.3 -0.2
v 0.6 0.9 -0.2
v 0.2 0.3 -0.2
v 0.2 0.9 -0.2
v 0.1 0.3 -0.2
v 0.1 0.9 -0.2
v -0.3 0.3 -0.2
v -0.3 0.9 -0.2
v -0.4 0.3 -0.2
v -0.4 0.9 -0.2
v -0.8 0.5 -0.2
v -0.8 0.9 -0.2
v -0.9 0.5 -0.2
v -0.9 0.9 -0.2
v -1.3 0.5 -0.2
v -1.3 0.9 -0.2
v -1.4 0.5 -0.2
v -1.4 0.9 -0.2
v 1.4 0.1 0.1
v 1.4 0.2 0.1
v 1.2 0.1 0.1
v 1.2 0.2 0.1
v 1.1 0.1 0.1
v 1.1 0.2 0.1
v 0.9 0.1 0.1
v 0.9 0.2 0.1
v 0.8 0.1 0.1
v 0.8 0.2 0.1
v 0.6 0.1 0.1
v 0.6 0.2 0.1
v -1.2 0.3 0.1
v -1.2 0.4 0.1
v -1.3 0.3 0.1
v -1.3 0.4 0.1
v -1.5 0.3 0.1
v -1.5 0.4 0.1
v -1.6 0.3 0.1
v -1.6 0.4 0.1
v -1.3 0.3 0.2
v -1.3 0.4 0.2
v -1.5 0.3 0.2
v -1.5 0.4 0.2
v 1.8 0.1 0.3
v 1.8 0.2 0.3
v 1.8 0.3 0.3
v 1.7 0.2 0.3
v 1.7 0.3 0.3
v 1.7 0.9 0.3
v 1.6 0.3 0.3
v 1.6 0.9 0.3
v 1.4 0.1 0.3
v 1.4 0.2 0.3
v 1.2 0.1 0.3
v 1.2 0.2 0.3
v 1.2 0.3 0.3
v 1.2 0.9 0.3
v 1.1 0.1 0.3
v 1.1 0.2 0.3
v 1.1 0.3 0.3
v 1.1 0.9 0.3
v 0.9 0.1 0.3
v 0.9 0.2 0.3
v 0.8 0.1 0.3
v 0.8 0.2 0.3
v 0.7 0.3 0.3
v 0.7 0.9 0.3
v 0.6 0.1 0.3
v 0.6 0.2 0.3
v 0.6 0.3 0.3
v 0.6 0.9 0.3
v 0.2 0.3 0.3
v 0.2 0.9 0.3
v 0.1 0.3 0.3
v 0.1 0.9 0.3
v -0.3 0.3 0.3
v -0.3 0.9 0.3
v -0.4 0.3 0.3
v -0.4 0.9 0.3
v -0.8 0.3 0.3
v -0.8 0.5 0.3
v -0.8 0.9 0.3
v -0.9 0.5 0.3
v -0.9 0.9 0.3
v -1 0.1 0.3
v -1 0.4 0.3
v -1.3 0.5 0.3
v -1.3 0.9 0.3
v -1.4 0.5 0.3
v -1.4 0.9 0.3
v -1.7 0.4 0.3
v -1.7 0.5 0.3
v 1.8 0.1 -0.3
v 1.4 0.1 -0.3
v 1.2 0.1 -0.3
v 1.1 0.1 -0.3
v 0.9 0.1 -0.3
v 0.8 0.1 -0.3
v 0.6 0.1 -0.3
v -1 0.1 -0.3
v 1.4 0.1 -0.1
v 1.2 0.1 -0.1
v 1.1 0.1 -0.1
v 0.9 0.1 -0.1
v 0.8 0.1 -0.1
v 0.6 0.1 -0.1
v 1.4 0.1 0.1
v 1.2 0.1 0.1
v 1.1 0.1 0.1
v 0.9 0.1 0.1
v 0.8 0.1 0.1
v 0.6 0.1 0.1
v 1.8 0.1 0.3
v 1.4 0.1 0.3
v 1.2 0.1 0.3
v 1.1 0.1 0.3
v 0.9 0.1 0.3
v 0.8 0.1 0.3
v 0.6 0.1 0.3
v -1 0.1 0.3
v 1.4 0.2 -0.3
v 1.2 0.2 -0.3
v 1.1 0.2 -0.3
v 0.9 0.2 -0.3
v 0.8 0.2 -0.3
v 0.6 0.2 -0.3
v 1.4 0.2 -0.1
v 1.2 0.2 -0.1
v 1.1 0.2 -0.1
v 0.9 0.2 -0.1
v 0.8 0.2 -0.1
v 0.6 0.2 -0.1
v 1.4 0.2 0.1
v 1.2 0.2 0.1
v 1.1 0.2 0.1
v 0.9 0.2 0.1
v 0.8 0.2 0.1
v 0.6 0.2 0.1
v 1.4 0.2 0.3
v 1.2 0.2 0.3
v 1.1 0.2 0.3
v 0.9 0.2 0.3
v 0.8 0.2 0.3
v 0.6 0.2 0.3
v -1.3 0.3 -0.2
v -1.5 0.3 -0.2
v -1.2 0.3 -0.1
v -1.3 0.3 -0.1
v -1.5 0.3 -0.1
v -1.6 0.3 -0.1
v -1.2 0.3 0.1
v -1.3 0.3 0.1
v -1.5 0.3 0.1
v -1.6 0.3 0.1
v -1.3 0.3 0.2
v -1.5 0.3 0.2
v -1 0.4 -0.3
v -1.7 0.4 -0.3
v -1.3 0.4 -0.2
v -1.5 0.4 -0.2
v -1.2 0.4 -0.1
v -1.3 0.4 -0.1
v -1.5 0.4 -0.1
v -1.6 0.4 -0.1
v -1.2 0.4 0.1
v -1.3 0.4 0.1
v -1.5 0.4 0.1
v -1.6 0.4 0.1
v -1.3 0.4 0.2
v -1.5 0.4 0.2
v -1 0.4 0.3
v -1.7 0.4 0.3
v 1.8 0.3 -0.3
v 1.7 0.3 -0.3
v 1.6 0.3 -0.3
v 1.2 0.3 -0.3
v 1.1 0.3 -0.3
v 0.7 0.3 -0.3
v 0.6 0.3 -0.3
v 0.2 0.3 -0.3
v 0.1 0.3 -0.3
v -0.3 0.3 -0.3
v -0.4 0.3 -0.3
v -0.8 0.3 -0.3
v 1.7 0.3 -0.2
v 1.6 0.3 -0.2
v 1.2 0.3 -0.2
v 1.1 0.3 -0.2
v 0.7 0.3 -0.2
v 0.6 0.3 -0.2
v 0.2 0.3 -0.2
v 0.1 0.3 -0.2
v -0.3 0.3 -0.2
v -0.4 0.3 -0.2
v 1.8 0.3 -0.1
v 1.7 0.3 -0.1
v 1.8 0.3 0.1
v 1.7 0.3 0.1
v 1.7 0.3 0.2
v 1.6 0.3 0.2
v 1.2 0.3 0.2
v 1.1 0.3 0.2
v 0.7 0.3 0.2
v 0.6 0.3 0.2
v 0.2 0.3 0.2
v 0.1 0.3 0.2
v -0.3 0.3 0.2
v -0.4 0.3 0.2
v 1.8 0.3 0.3
v 1.7 0.3 0.3
v 1.6 0.3 0.3
v 1.2 0.3 0.3
v 1.1 0.3 0.3
v 0.7 0.3 0.3
v 0.6 0.3 0.3
v 0.2 0.3 0.3
v 0.1 0.3 0.3
v -0.3 0.3 0.3
v -0.4 0.3 0.3
v -0.8 0.3 0.3
v -0.9 0.5 -0.3
v -1.3 0.5 -0.3
v -1.4 0.5 -0.3
v -1.7 0.5 -0.3
v -0.8 0.5 -0.2
v -0.9 0.5 -0.2
v -1.3 0.5 -0.2
v -1.4 0.5 -0.2
v -0.8 0.5 0.2
v -0.9 0.5 0.2
v -1.3 0.5 0.2
v -1.4 0.5 0.2
v -0.9 0.5 0.3
v -1.3 0.5 0.3
v -1.4 0.5 0.3
v -1.7 0.5 0.3
v 1.7 0.9 -0.3
v 1.6 0.9 -0.3
v 1.2 0.9 -0.3
v 1.1 0.9 -0.3
v 0.7 0.9 -0.3
v 0.6 0.9 -0.3
v 0.2 0.9 -0.3
v 0.1 0.9 -0.3
v -0.3 0.9 -0.3
v -0.4 0.9 -0.3
v -0.8 0.9 -0.3
v -0.9 0.9 -0.3
v -1.3 0.9 -0.3
v -1.4 0.9 -0.3
v 1.7 0.9 -0.2
v 1.6 0.9 -0.2
v 1.2 0.9 -0.2
v 1.1 0.9 -0.2
v 0.7 0.9 -0.2
v 0.6 0.9 -0.2
v 0.2 0.9 -0.2
v 0.1 0.9 -0.2
v -0.3 0.9 -0.2
v -0.4 0.9 -0.2
v -0.8 0.9 -0.2
v -0.9 0.9 -0.2
v -1.3 0.9 -0.2
v -1.4 0.9 -0.2
v 1.7 0.9 0.2
v 1.6 0.9 0.2
v 1.2 0.9 0.2
v 1.1 0.9 0.2
v 0.7 0.9 0.2
v 0.6 0.9 0.2
v 0.2 0.9 0.2
v 0.1 0.9 0.2
v -0.3 0.9 0.2
v -0.4 0.9 0.2
v -0.8 0.9 0.2
v -0.9 0.9 0.2
v -1.3 0.9 0.2
v -1.4 0.9 0.2
v 1.7 0.9 0.3
v 1.6 0.9 0.3
v 1.2 0.9 0.3
v 1.1 0.9 0.3
v 0.7 0.9 0.3
v 0.6 0.9 0.3
v 0.2 0.9 0.3
v 0.1 0.9 0.3
v -0.3 0.9 0.3
v -0.4 0.9 0.3
v -0.8 0.9 0.3
v -0.9 0.9 0.3
v -1.3 0.9 0.3
v -1.4 0.9 0.3

# faces
f 3/3/1 2/3/1 1/3/1
f 4/3/1 2/3/1 3/3/1
f 5/3/1 2/3/1 4/3/1
f 6/3/1 2/3/1 5/3/1
f 7/2/1 4/2/1 3/2/1
f 8/3/1 5/3/1 4/3/1
f 8/2/1 4/2/1 7/2/1
f 9/2/1 6/2/1 5/2/1
f 9/3/1 5/3/1 8/3/1
f 10/2/1 6/2/1 9/2/1
f 15/1/1 12/1/1 11/1/1
f 16/1/1 12/1/1 15/1/1
f 17/1/1 14/1/1 13/1/1
f 18/1/1 14/1/1 17/1/1
f 23/3/1 20/3/1 19/3/1
f 24/3/1 20/3/1 23/3/1
f 25/3/1 22/3/1 21/3/1
f 26/3/1 22/3/1 25/3/1
f 31/1/1 28/1/1 27/1/1
f 32/1/1 28/1/1 31/1/1
f 33/1/1 30/1/1 29/1/1
f 34/1/1 30/1/1 33/1/1
f 39/3/1 36/3/1 35/3/1
f 40/3/1 36/3/1 39/3/1
f 41/3/1 38/3/1 37/3/1
f 42/3/1 38/3/1 41/3/1
f 47/1/1 44/1/1 43/1/1
f 48/1/1 44/1/1 47/1/1
f 49/1/1 46/1/1 45/1/1
f 50/1/1 46/1/1 49/1/1
f 55/3/1 52/3/1 51/3/1
f 56/3/1 52/3/1 55/3/1
f 57/3/1 54/3/1 53/3/1
f 58/3/1 54/3/1 57/3/1
f 63/1/1 60/1/1 59/1/1
f 64/1/1 60/1/1 63/1/1
f 65/1/1 62/1/1 61/1/1
f 66/1/1 62/1/1 65/1/1
f 71/1/1 68/1/1 67/1/1
f 72/1/1 68/1/1 71/1/1
f 73/1/1 70/1/1 69/1/1
f 74/1/1 70/1/1 73/1/1
f 77/3/1 76/3/1 75/3/1
f 78/3/1 76/3/1 77/3/1
f 79/3/1 76/3/1 78/3/1
f 80/3/1 76/3/1 79/3/1
f 81/1/1 78/1/1 77/1/1
f 82/1/1 78/1/1 81/1/1
f 83/1/1 80/1/1 79/1/1
f 84/1/1 80/1/1 83/1/1
f 87/1/1 86/1/1 85/1/1
f 88/1/1 86/1/1 87/1/1
f 93/1/1 90/1/1 89/1/1
f 94/1/1 90/1/1 93/1/1
f 95/1/1 92/1/1 91/1/1
f 96/1/1 92/1/1 95/1/1
f 101/1/1 98/1/1 97/1/1
f 102/1/1 98/1/1 101/1/1
f 103/1/1 100/1/1 99/1/1
f 104/1/1 100/1/1 103/1/1
f 105/1/2 106/1/2 109/1/2
f 109/1/2 106/1/2 110/1/2
f 107/1/2 108/1/2 111/1/2
f 111/1/2 108/1/2 112/1/2
f 113/3/2 114/3/2 117/3/2
f 117/3/2 114/3/2 118/3/2
f 115/3/2 116/3/2 119/3/2
f 119/3/2 116/3/2 120/3/2
f 121/3/2 122/3/2 125/3/2
f 125/3/2 122/3/2 126/3/2
f 123/3/2 124/3/2 127/3/2
f 127/3/2 124/3/2 128/3/2
f 129/1/2 130/1/2 133/1/2
f 133/1/2 130/1/2 134/1/2
f 131/1/2 132/1/2 135/1/2
f 135/1/2 132/1/2 136/1/2
f 137/3/2 138/3/2 141/3/2
f 141/3/2 138/3/2 142/3/2
f 139/3/2 140/3/2 143/3/2
f 143/3/2 140/3/2 144/3/2
f 145/1/2 146/1/2 149/1/2
f 149/1/2 146/1/2 150/1/2
f 147/1/2 148/1/2 151/1/2
f 151/1/2 148/1/2 152/1/2
f 153/1/2 154/1/2 157/1/2
f 157/1/2 154/1/2 158/1/2
f 155/1/2 156/1/2 159/1/2
f 159/1/2 156/1/2 160/1/2
f 161/1/2 162/1/2 165/1/2
f 165/1/2 162/1/2 166/1/2
f 163/1/2 164/1/2 167/1/2
f 167/1/2 164/1/2 168/1/2
f 169/1/2 170/1/2 173/1/2
f 173/1/2 170/1/2 174/1/2
f 171/1/2 172/1/2 175/1/2
f 175/1/2 172/1/2 176/1/2
f 177/3/2 178/3/2 179/3/2
f 179/3/2 178/3/2 180/3/2
f 181/1/2 182/1/2 185/1/2
f 185/1/2 182/1/2 186/1/2
f 183/1/2 184/1/2 187/1/2
f 187/1/2 184/1/2 188/1/2
f 189/1/2 190/1/2 193/1/2
f 193/1/2 190/1/2 194/1/2
f 191/1/2 192/1/2 195/1/2
f 195/1/2 192/1/2 196/1/2
f 197/1/2 198/1/2 199/1/2
f 199/1/2 198/1/2 200/1/2
f 201/3/2 202/3/2 203/3/2
f 203/3/2 202/3/2 204/3/2
f 208/3/3 206/3/3 205/3/3
f 208/2/3 207/2/3 206/2/3
f 209/2/3 207/2/3 208/2/3
f 211/3/3 209/3/3 208/3/3
f 211/1/3 210/1/3 209/1/3
f 212/1/3 210/1/3 211/1/3
f 213/3/3 208/3/3 205/3/3
f 213/3/3 211/3/3 208/3/3
f 214/3/3 211/3/3 213/3/3
f 216/3/3 211/3/3 214/3/3
f 217/3/3 211/3/3 216/3/3
f 219/3/3 216/3/3 215/3/3
f 219/3/3 217/3/3 216/3/3
f 220/3/3 217/3/3 219/3/3
f 221/1/3 218/1/3 217/1/3
f 221/3/3 217/3/3 220/3/3
f 222/1/3 218/1/3 221/1/3
f 224/3/3 221/3/3 220/3/3
f 225/3/3 224/3/3 223/3/3
f 226/3/3 221/3/3 224/3/3
f 226/3/3 224/3/3 225/3/3
f 227/3/3 221/3/3 226/3/3
f 230/3/3 227/3/3 226/3/3
f 231/1/3 228/1/3 227/1/3
f 231/3/3 227/3/3 230/3/3
f 232/1/3 228/1/3 231/1/3
f 233/3/3 230/3/3 229/3/3
f 233/3/3 231/3/3 230/3/3
f 235/3/3 233/3/3 229/3/3
f 235/1/3 234/1/3 233/1/3
f 236/1/3 234/1/3 235/1/3
f 237/3/3 235/3/3 229/3/3
f 239/3/3 237/3/3 229/3/3
f 239/1/3 238/1/3 237/1/3
f 240/1/3 238/1/3 239/1/3
f 241/3/3 239/3/3 229/3/3
f 244/3/3 242/3/3 241/3/3
f 244/1/3 243/1/3 242/1/3
f 245/1/3 243/1/3 244/1/3
f 246/3/3 241/3/3 229/3/3
f 246/3/3 244/3/3 241/3/3
f 247/3/3 244/3/3 246/3/3
f 248/3/3 244/3/3 247/3/3
f 250/3/3 248/3/3 247/3/3
f 250/1/3 249/1/3 248/1/3
f 251/1/3 249/1/3 250/1/3
f 252/3/3 250/3/3 247/3/3
f 253/3/3 250/3/3 252/3/3
f 256/1/3 255/1/3 254/1/3
f 257/1/3 255/1/3 256/1/3
f 260/3/3 259/3/3 258/3/3
f 261/3/3 259/3/3 260/3/3
f 264/3/3 263/3/3 262/3/3
f 265/3/3 263/3/3 264/3/3
f 268/3/3 267/3/3 266/3/3
f 269/3/3 267/3/3 268/3/3
f 272/1/3 271/1/3 270/1/3
f 273/1/3 271/1/3 272/1/3
f 276/1/3 275/1/3 274/1/3
f 277/1/3 275/1/3 276/1/3
f 280/1/3 279/1/3 278/1/3
f 281/1/3 279/1/3 280/1/3
f 284/1/3 283/1/3 282/1/3
f 285/1/3 283/1/3 284/1/3
f 288/1/3 287/1/3 286/1/3
f 289/1/3 287/1/3 288/1/3
f 292/1/3 291/1/3 290/1/3
f 293/1/3 291/1/3 292/1/3
f 296/1/3 295/1/3 294/1/3
f 297/1/3 295/1/3 296/1/3
f 300/1/3 299/1/3 298/1/3
f 301/1/3 299/1/3 300/1/3
f 304/1/3 303/1/3 302/1/3
f 305/1/3 303/1/3 304/1/3
f 306/1/4 307/1/4 308/1/4
f 308/1/4 307/1/4 309/1/4
f 310/1/4 311/1/4 312/1/4
f 312/1/4 311/1/4 313/1/4
f 314/1/4 315/1/4 316/1/4
f 316/1/4 315/1/4 317/1/4
f 318/1/4 319/1/4 320/1/4
f 320/1/4 319/1/4 321/1/4
f 322/1/4 323/1/4 324/1/4
f 324/1/4 323/1/4 325/1/4
f 326/1/4 327/1/4 328/1/4
f 328/1/4 327/1/4 329/1/4
f 330/1/4 331/1/4 332/1/4
f 332/1/4 331/1/4 333/1/4
f 334/3/4 335/3/4 336/3/4
f 336/3/4 335/3/4 337/3/4
f 338/3/4 339/3/4 340/3/4
f 340/3/4 339/3/4 341/3/4
f 342/3/4 343/3/4 344/3/4
f 344/3/4 343/3/4 345/3/4
f 346/1/4 347/1/4 348/1/4
f 348/1/4 347/1/4 349/1/4
f 350/1/4 351/1/4 352/1/4
f 352/1/4 351/1/4 353/1/4
f 354/1/4 355/1/4 356/1/4
f 356/1/4 355/1/4 357/1/4
f 358/3/4 359/3/4 361/3/4
f 359/2/4 360/2/4 361/2/4
f 361/2/4 360/2/4 362/2/4
f 361/3/4 362/3/4 364/3/4
f 362/1/4 363/1/4 364/1/4
f 364/1/4 363/1/4 365/1/4
f 358/3/4 361/3/4 366/3/4
f 361/3/4 364/3/4 366/3/4
f 366/3/4 364/3/4 367/3/4
f 367/3/4 364/3/4 369/3/4
f 369/3/4 364/3/4 370/3/4
f 368/3/4 369/3/4 372/3/4
f 369/3/4 370/3/4 372/3/4
f 372/3/4 370/3/4 373/3/4
f 370/1/4 371/1/4 374/1/4
f 373/3/4 370/3/4 374/3/4
f 374/1/4 371/1/4 375/1/4
f 373/3/4 374/3/4 377/3/4
f 376/3/4 377/3/4 378/3/4
f 377/3/4 374/3/4 379/3/4
f 378/3/4 377/3/4 379/3/4
f 379/3/4 374/3/4 380/3/4
f 379/3/4 380/3/4 383/3/4
f 380/1/4 381/1/4 384/1/4
f 383/3/4 380/3/4 384/3/4
f 384/1/4 381/1/4 385/1/4
f 382/3/4 383/3/4 386/3/4
f 383/3/4 384/3/4 386/3/4
f 382/3/4 386/3/4 388/3/4
f 386/1/4 387/1/4 388/1/4
f 388/1/4 387/1/4 389/1/4
f 382/3/4 388/3/4 390/3/4
f 382/3/4 390/3/4 392/3/4
f 390/1/4 391/1/4 392/1/4
f 392/1/4 391/1/4 393/1/4
f 382/3/4 392/3/4 394/3/4
f 394/3/4 395/3/4 397/3/4
f 395/1/4 396/1/4 397/1/4
f 397/1/4 396/1/4 398/1/4
f 382/3/4 394/3/4 399/3/4
f 394/3/4 397/3/4 399/3/4
f 399/3/4 397/3/4 400/3/4
f 400/3/4 397/3/4 401/3/4
f 400/3/4 401/3/4 403/3/4
f 401/1/4 402/1/4 403/1/4
f 403/1/4 402/1/4 404/1/4
f 400/3/4 403/3/4 405/3/4
f 405/3/4 403/3/4 406/3/4
f 415/3/5 408/3/5 407/3/5
f 416/3/5 410/3/5 409/3/5
f 417/3/5 410/3/5 416/3/5
f 418/3/5 412/3/5 411/3/5
f 419/3/5 412/3/5 418/3/5
f 420/3/5 414/3/5 413/3/5
f 421/3/5 419/3/5 418/3/5
f 421/3/5 420/3/5 419/3/5
f 421/3/5 415/3/5 407/3/5
f 421/3/5 417/3/5 416/3/5
f 421/3/5 418/3/5 417/3/5
f 421/3/5 416/3/5 415/3/5
f 422/3/5 420/3/5 421/3/5
f 423/3/5 420/3/5 422/3/5
f 424/3/5 420/3/5 423/3/5
f 425/3/5 420/3/5 424/3/5
f 426/3/5 414/3/5 420/3/5
f 426/3/5 420/3/5 425/3/5
f 427/3/5 421/3/5 407/3/5
f 428/3/5 421/3/5 427/3/5
f 429/3/5 423/3/5 422/3/5
f 430/3/5 423/3/5 429/3/5
f 431/3/5 425/3/5 424/3/5
f 432/3/5 425/3/5 431/3/5
f 433/3/5 414/3/5 426/3/5
f 434/3/5 414/3/5 433/3/5
f 441/3/5 436/3/5 435/3/5
f 442/3/5 436/3/5 441/3/5
f 443/3/5 438/3/5 437/3/5
f 444/3/5 438/3/5 443/3/5
f 445/3/5 440/3/5 439/3/5
f 446/3/5 440/3/5 445/3/5
f 453/3/5 448/3/5 447/3/5
f 454/3/5 448/3/5 453/3/5
f 455/3/5 450/3/5 449/3/5
f 456/3/5 450/3/5 455/3/5
f 457/3/5 452/3/5 451/3/5
f 458/3/5 452/3/5 457/3/5
f 462/1/5 460/1/5 459/1/5
f 463/1/5 460/1/5 462/1/5
f 465/1/5 462/1/5 461/1/5
f 465/1/5 464/1/5 463/1/5
f 465/1/5 463/1/5 462/1/5
f 466/1/5 464/1/5 465/1/5
f 467/1/5 464/1/5 466/1/5
f 468/1/5 464/1/5 467/1/5
f 469/1/5 467/1/5 466/1/5
f 470/1/5 467/1/5 469/1/5
f 473/3/5 472/3/5 471/3/5
f 474/3/5 472/3/5 473/3/5
f 475/3/5 473/3/5 471/3/5
f 476/3/5 473/3/5 475/3/5
f 477/3/5 472/3/5 474/3/5
f 478/3/5 472/3/5 477/3/5
f 479/3/5 475/3/5 471/3/5
f 482/3/5 472/3/5 478/3/5
f 483/3/5 480/3/5 479/3/5
f 484/3/5 482/3/5 481/3/5
f 485/3/5 483/3/5 479/3/5
f 485/3/5 484/3/5 483/3/5
f 485/3/5 479/3/5 471/3/5
f 486/3/5 482/3/5 484/3/5
f 486/3/5 484/3/5 485/3/5
f 486/3/5 472/3/5 482/3/5
f 487/2/6 488/2/6 499/2/6
f 489/3/6 490/3/6 500/3/6
f 500/3/6 490/3/6 501/3/6
f 491/3/6 492/3/6 502/3/6
f 502/3/6 492/3/6 503/3/6
f 493/3/6 494/3/6 504/3/6
f 504/3/6 494/3/6 505/3/6
f 495/3/6 496/3/6 506/3/6
f 506/3/6 496/3/6 507/3/6
f 497/3/6 498/3/6 508/3/6
f 487/2/6 499/2/6 509/2/6
f 506/3/6 507/3/6 510/3/6
f 509/2/6 499/2/6 510/2/6
f 507/3/6 508/3/6 510/3/6
f 500/3/6 501/3/6 510/3/6
f 502/3/6 503/3/6 510/3/6
f 505/3/6 506/3/6 510/3/6
f 504/3/6 505/3/6 510/3/6
f 503/3/6 504/3/6 510/3/6
f 499/3/6 500/3/6 510/3/6
f 501/3/6 502/3/6 510/3/6
f 509/3/6 510/3/6 511/3/6
f 510/3/6 508/3/6 512/3/6
f 511/3/6 510/3/6 512/3/6
f 511/2/6 512/2/6 513/2/6
f 512/3/6 508/3/6 513/3/6
f 513/3/6 508/3/6 514/3/6
f 514/3/6 508/3/6 515/3/6
f 515/3/6 508/3/6 516/3/6
f 516/3/6 508/3/6 517/3/6
f 517/3/6 508/3/6 518/3/6
f 518/3/6 508/3/6 519/3/6
f 519/3/6 508/3/6 520/3/6
f 520/3/6 508/3/6 521/3/6
f 508/3/6 498/3/6 522/3/6
f 521/3/6 508/3/6 522/3/6
f 511/2/6 513/2/6 523/2/6
f 523/2/6 513/2/6 524/2/6
f 514/3/6 515/3/6 525/3/6
f 525/3/6 515/3/6 526/3/6
f 516/3/6 517/3/6 527/3/6
f 527/3/6 517/3/6 528/3/6
f 518/3/6 519/3/6 529/3/6
f 529/3/6 519/3/6 530/3/6
f 520/3/6 521/3/6 531/3/6
f 531/3/6 521/3/6 532/3/6
f 522/3/6 498/3/6 533/3/6
f 533/3/6 498/3/6 534/3/6
f 535/3/6 536/3/6 540/3/6
f 540/3/6 536/3/6 541/3/6
f 537/3/6 538/3/6 542/3/6
f 540/3/6 541/3/6 543/3/6
f 541/3/6 542/3/6 543/3/6
f 539/3/6 540/3/6 543/3/6
f 543/3/6 542/3/6 544/3/6
f 544/3/6 542/3/6 545/3/6
f 542/3/6 538/3/6 546/3/6
f 545/3/6 542/3/6 546/3/6
f 544/3/6 545/3/6 547/3/6
f 547/3/6 545/3/6 548/3/6
f 546/3/6 538/3/6 549/3/6
f 549/3/6 538/3/6 550/3/6
f 551/1/6 552/1/6 565/1/6
f 565/1/6 552/1/6 566/1/6
f 553/1/6 554/1/6 567/1/6
f 567/1/6 554/1/6 568/1/6
f 555/1/6 556/1/6 569/1/6
f 569/1/6 556/1/6 570/1/6
f 557/1/6 558/1/6 571/1/6
f 571/1/6 558/1/6 572/1/6
f 559/1/6 560/1/6 573/1/6
f 573/1/6 560/1/6 574/1/6
f 561/1/6 562/1/6 575/1/6
f 575/1/6 562/1/6 576/1/6
f 563/1/6 564/1/6 577/1/6
f 577/1/6 564/1/6 578/1/6
f 579/1/6 580/1/6 593/1/6
f 593/1/6 580/1/6 594/1/6
f 581/1/6 582/1/6 595/1/6
f 595/1/6 582/1/6 596/1/6
f 583/1/6 584/1/6 597/1/6
f 597/1/6 584/1/6 598/1/6
f 585/1/6 586/1/6 599/1/6
f 599/1/6 586/1/6 600/1/6
f 587/1/6 588/1/6 601/1/6
f 601/1/6 588/1/6 602/1/6
f 589/1/6 590/1/6 603/1/6
f 603/1/6 590/1/6 604/1/6
f 591/1/6 592/1/6 605/1/6
f 605/1/6 592/1/6 606/1/6
