# MagicaVoxel @ Ephtracy

# group
o 

# material
mtllib bus-big-red.mtl
usemtl palette

# normals
vn 1 0 0
vn -1 0 0
vn 0 0 -1
vn 0 0 1
vn 0 -1 0
vn 0 1 0

# texcoords
vt 0.826172 0.5
vt 0.896484 0.5
vt 0.908203 0.5
vt 0.927734 0.5

# verts
v 1.4 0.1 -0.3
v 1.4 0.1 0.3
v 1.4 0.2 -0.3
v 1.4 0.2 -0.1
v 1.4 0.2 0.1
v 1.4 0.2 0.3
v 1.4 0.3 -0.3
v 1.4 0.3 -0.1
v 1.4 0.3 0.1
v 1.4 0.3 0.3
v 1.4 0.4 -0.2
v 1.4 0.4 0.2
v 1.4 0.7 -0.3
v 1.4 0.7 -0.2
v 1.4 0.7 0.2
v 1.4 0.7 0.3
v 1.4 0.8 -0.2
v 1.4 0.8 0.2
v 1.3 0.7 -0.3
v 1.3 0.7 -0.2
v 1.3 0.7 0.2
v 1.3 0.7 0.3
v 1.3 0.8 -0.3
v 1.3 0.8 -0.2
v 1.3 0.8 0.2
v 1.3 0.8 0.3
v 0.7 0.1 -0.3
v 0.7 0.1 -0.1
v 0.7 0.1 0.1
v 0.7 0.1 0.3
v 0.7 0.2 -0.3
v 0.7 0.2 -0.1
v 0.7 0.2 0.1
v 0.7 0.2 0.3
v -0.8 0.1 -0.3
v -0.8 0.1 -0.2
v -0.8 0.1 0.2
v -0.8 0.1 0.3
v -0.8 0.2 -0.3
v -0.8 0.2 -0.2
v -0.8 0.2 0.2
v -0.8 0.2 0.3
v 0.9 0.1 -0.3
v 0.9 0.1 -0.1
v 0.9 0.1 0.1
v 0.9 0.1 0.3
v 0.9 0.2 -0.3
v 0.9 0.2 -0.1
v 0.9 0.2 0.1
v 0.9 0.2 0.3
v -0.6 0.1 -0.3
v -0.6 0.1 -0.2
v -0.6 0.1 0.2
v -0.6 0.1 0.3
v -0.6 0.2 -0.3
v -0.6 0.2 -0.2
v -0.6 0.2 0.2
v -0.6 0.2 0.3
v -1.1 0.7 -0.3
v -1.1 0.7 -0.2
v -1.1 0.7 0.2
v -1.1 0.7 0.3
v -1.1 0.8 -0.3
v -1.1 0.8 -0.2
v -1.1 0.8 0.2
v -1.1 0.8 0.3
v -1.2 0.4 -0.3
v -1.2 0.4 -0.2
v -1.2 0.4 0.2
v -1.2 0.4 0.3
v -1.2 0.7 -0.3
v -1.2 0.7 -0.2
v -1.2 0.7 0.2
v -1.2 0.7 0.3
v -1.2 0.8 -0.2
v -1.2 0.8 0.2
v -1.3 0.1 -0.3
v -1.3 0.1 0.3
v -1.3 0.2 -0.3
v -1.3 0.2 -0.1
v -1.3 0.2 0.1
v -1.3 0.2 0.3
v -1.3 0.3 -0.3
v -1.3 0.3 -0.2
v -1.3 0.3 -0.1
v -1.3 0.3 0.1
v -1.3 0.3 0.2
v -1.3 0.3 0.3
v -1.3 0.4 -0.3
v -1.3 0.4 -0.2
v -1.3 0.4 0.2
v -1.3 0.4 0.3
v -1.3 0.7 -0.2
v -1.3 0.7 0.2
v 1.4 0.1 -0.3
v 1.4 0.2 -0.3
v 1.4 0.3 -0.3
v 1.4 0.7 -0.3
v 1.3 0.2 -0.3
v 1.3 0.3 -0.3
v 1.3 0.4 -0.3
v 1.3 0.7 -0.3
v 1.3 0.8 -0.3
v 0.9 0.1 -0.3
v 0.9 0.2 -0.3
v 0.7 0.1 -0.3
v 0.7 0.2 -0.3
v -0.6 0.1 -0.3
v -0.6 0.2 -0.3
v -0.8 0.1 -0.3
v -0.8 0.2 -0.3
v -0.8 0.4 -0.3
v -0.8 0.7 -0.3
v -0.9 0.2 -0.3
v -0.9 0.7 -0.3
v -1.1 0.2 -0.3
v -1.1 0.7 -0.3
v -1.1 0.8 -0.3
v -1.2 0.2 -0.3
v -1.2 0.3 -0.3
v -1.2 0.4 -0.3
v -1.2 0.7 -0.3
v -1.3 0.1 -0.3
v -1.3 0.2 -0.3
v -1.3 0.3 -0.3
v -1.3 0.4 -0.3
v 1.4 0.7 -0.2
v 1.4 0.8 -0.2
v 1.3 0.7 -0.2
v 1.3 0.8 -0.2
v -0.6 0.1 -0.2
v -0.6 0.2 -0.2
v -0.8 0.1 -0.2
v -0.8 0.2 -0.2
v -1.1 0.7 -0.2
v -1.1 0.8 -0.2
v -1.2 0.4 -0.2
v -1.2 0.7 -0.2
v -1.2 0.8 -0.2
v -1.3 0.4 -0.2
v -1.3 0.7 -0.2
v 0.9 0.1 -0.1
v 0.9 0.2 -0.1
v 0.7 0.1 -0.1
v 0.7 0.2 -0.1
v 0.9 0.1 0.1
v 0.9 0.2 0.1
v 0.7 0.1 0.1
v 0.7 0.2 0.1
v 1.4 0.7 0.2
v 1.4 0.8 0.2
v 1.3 0.7 0.2
v 1.3 0.8 0.2
v -0.6 0.1 0.2
v -0.6 0.2 0.2
v -0.8 0.1 0.2
v -0.8 0.2 0.2
v -1.1 0.7 0.2
v -1.1 0.8 0.2
v -1.2 0.4 0.2
v -1.2 0.7 0.2
v -1.2 0.8 0.2
v -1.3 0.4 0.2
v -1.3 0.7 0.2
v 1.4 0.1 0.3
v 1.4 0.2 0.3
v 1.4 0.3 0.3
v 1.4 0.7 0.3
v 1.3 0.2 0.3
v 1.3 0.3 0.3
v 1.3 0.4 0.3
v 1.3 0.7 0.3
v 1.3 0.8 0.3
v 0.9 0.1 0.3
v 0.9 0.2 0.3
v 0.7 0.1 0.3
v 0.7 0.2 0.3
v -0.6 0.1 0.3
v -0.6 0.2 0.3
v -0.8 0.1 0.3
v -0.8 0.2 0.3
v -0.8 0.4 0.3
v -0.8 0.7 0.3
v -0.9 0.4 0.3
v -0.9 0.7 0.3
v -1.1 0.4 0.3
v -1.1 0.7 0.3
v -1.1 0.8 0.3
v -1.2 0.2 0.3
v -1.2 0.3 0.3
v -1.2 0.4 0.3
v -1.2 0.7 0.3
v -1.3 0.1 0.3
v -1.3 0.2 0.3
v -1.3 0.3 0.3
v -1.3 0.4 0.3
v 1.4 0.1 -0.3
v 0.9 0.1 -0.3
v 0.7 0.1 -0.3
v -0.6 0.1 -0.3
v -0.8 0.1 -0.3
v -1.3 0.1 -0.3
v -0.6 0.1 -0.2
v -0.8 0.1 -0.2
v 0.9 0.1 -0.1
v 0.7 0.1 -0.1
v 0.9 0.1 0.1
v 0.7 0.1 0.1
v -0.6 0.1 0.2
v -0.8 0.1 0.2
v 1.4 0.1 0.3
v 0.9 0.1 0.3
v 0.7 0.1 0.3
v -0.6 0.1 0.3
v -0.8 0.1 0.3
v -1.3 0.1 0.3
v 0.9 0.2 -0.3
v 0.7 0.2 -0.3
v -0.6 0.2 -0.3
v -0.8 0.2 -0.3
v -0.6 0.2 -0.2
v -0.8 0.2 -0.2
v 0.9 0.2 -0.1
v 0.7 0.2 -0.1
v 0.9 0.2 0.1
v 0.7 0.2 0.1
v -0.6 0.2 0.2
v -0.8 0.2 0.2
v 0.9 0.2 0.3
v 0.7 0.2 0.3
v -0.6 0.2 0.3
v -0.8 0.2 0.3
v -1.2 0.4 -0.3
v -1.3 0.4 -0.3
v -1.2 0.4 -0.2
v -1.3 0.4 -0.2
v -1.2 0.4 0.2
v -1.3 0.4 0.2
v -1.2 0.4 0.3
v -1.3 0.4 0.3
v 1.4 0.7 -0.3
v 1.3 0.7 -0.3
v -1.1 0.7 -0.3
v -1.2 0.7 -0.3
v 1.4 0.7 -0.2
v 1.3 0.7 -0.2
v -1.1 0.7 -0.2
v -1.2 0.7 -0.2
v -1.3 0.7 -0.2
v 1.4 0.7 0.2
v 1.3 0.7 0.2
v -1.1 0.7 0.2
v -1.2 0.7 0.2
v -1.3 0.7 0.2
v 1.4 0.7 0.3
v 1.3 0.7 0.3
v -1.1 0.7 0.3
v -1.2 0.7 0.3
v 1.3 0.8 -0.3
v -1.1 0.8 -0.3
v 1.4 0.8 -0.2
v 1.3 0.8 -0.2
v -1.1 0.8 -0.2
v -1.2 0.8 -0.2
v 1.4 0.8 0.2
v 1.3 0.8 0.2
v -1.1 0.8 0.2
v -1.2 0.8 0.2
v 1.3 0.8 0.3
v -1.1 0.8 0.3

# faces
f 3/4/1 2/4/1 1/4/1
f 4/4/1 2/4/1 3/4/1
f 5/4/1 2/4/1 4/4/1
f 6/4/1 2/4/1 5/4/1
f 7/3/1 4/3/1 3/3/1
f 8/4/1 5/4/1 4/4/1
f 8/3/1 4/3/1 7/3/1
f 9/3/1 6/3/1 5/3/1
f 9/4/1 5/4/1 8/4/1
f 10/3/1 6/3/1 9/3/1
f 11/4/1 8/4/1 7/4/1
f 11/4/1 9/4/1 8/4/1
f 11/4/1 10/4/1 9/4/1
f 12/4/1 10/4/1 11/4/1
f 13/4/1 11/4/1 7/4/1
f 14/1/1 12/1/1 11/1/1
f 14/4/1 11/4/1 13/4/1
f 15/4/1 10/4/1 12/4/1
f 15/1/1 12/1/1 14/1/1
f 16/4/1 10/4/1 15/4/1
f 17/4/1 15/4/1 14/4/1
f 18/4/1 15/4/1 17/4/1
f 23/4/1 20/4/1 19/4/1
f 24/4/1 20/4/1 23/4/1
f 25/4/1 22/4/1 21/4/1
f 26/4/1 22/4/1 25/4/1
f 31/4/1 28/4/1 27/4/1
f 32/4/1 28/4/1 31/4/1
f 33/4/1 30/4/1 29/4/1
f 34/4/1 30/4/1 33/4/1
f 39/4/1 36/4/1 35/4/1
f 40/4/1 36/4/1 39/4/1
f 41/4/1 38/4/1 37/4/1
f 42/4/1 38/4/1 41/4/1
f 43/4/2 44/4/2 47/4/2
f 47/4/2 44/4/2 48/4/2
f 45/4/2 46/4/2 49/4/2
f 49/4/2 46/4/2 50/4/2
f 51/4/2 52/4/2 55/4/2
f 55/4/2 52/4/2 56/4/2
f 53/4/2 54/4/2 57/4/2
f 57/4/2 54/4/2 58/4/2
f 59/4/2 60/4/2 63/4/2
f 63/4/2 60/4/2 64/4/2
f 61/4/2 62/4/2 65/4/2
f 65/4/2 62/4/2 66/4/2
f 67/4/2 68/4/2 71/4/2
f 71/4/2 68/4/2 72/4/2
f 69/4/2 70/4/2 73/4/2
f 73/4/2 70/4/2 74/4/2
f 72/4/2 73/4/2 75/4/2
f 75/4/2 73/4/2 76/4/2
f 77/4/2 78/4/2 79/4/2
f 79/4/2 78/4/2 80/4/2
f 80/4/2 78/4/2 81/4/2
f 81/4/2 78/4/2 82/4/2
f 79/2/2 80/2/2 83/2/2
f 83/2/2 80/2/2 84/2/2
f 80/4/2 81/4/2 85/4/2
f 84/2/2 80/2/2 85/2/2
f 81/2/2 82/2/2 86/2/2
f 85/4/2 81/4/2 86/4/2
f 86/2/2 82/2/2 87/2/2
f 87/2/2 82/2/2 88/2/2
f 83/4/2 84/4/2 89/4/2
f 84/1/2 85/1/2 90/1/2
f 89/4/2 84/4/2 90/4/2
f 85/1/2 86/1/2 90/1/2
f 86/1/2 87/1/2 90/1/2
f 87/4/2 88/4/2 91/4/2
f 90/1/2 87/1/2 91/1/2
f 91/4/2 88/4/2 92/4/2
f 90/1/2 91/1/2 93/1/2
f 93/1/2 91/1/2 94/1/2
f 99/4/3 96/4/3 95/4/3
f 99/3/3 97/3/3 96/3/3
f 100/4/3 98/4/3 97/4/3
f 100/3/3 97/3/3 99/3/3
f 101/4/3 98/4/3 100/4/3
f 102/4/3 98/4/3 101/4/3
f 104/4/3 99/4/3 95/4/3
f 104/4/3 100/4/3 99/4/3
f 104/4/3 101/4/3 100/4/3
f 105/4/3 101/4/3 104/4/3
f 107/4/3 101/4/3 105/4/3
f 108/4/3 107/4/3 106/4/3
f 109/4/3 101/4/3 107/4/3
f 109/4/3 107/4/3 108/4/3
f 111/4/3 101/4/3 109/4/3
f 112/1/3 102/1/3 101/1/3
f 112/4/3 101/4/3 111/4/3
f 113/4/3 103/4/3 102/4/3
f 113/1/3 102/1/3 112/1/3
f 114/4/3 112/4/3 111/4/3
f 114/4/3 111/4/3 110/4/3
f 114/4/3 113/4/3 112/4/3
f 115/4/3 103/4/3 113/4/3
f 115/4/3 113/4/3 114/4/3
f 116/4/3 114/4/3 110/4/3
f 116/1/3 115/1/3 114/1/3
f 117/4/3 103/4/3 115/4/3
f 117/1/3 115/1/3 116/1/3
f 118/4/3 103/4/3 117/4/3
f 119/4/3 116/4/3 110/4/3
f 119/4/3 117/4/3 116/4/3
f 120/4/3 117/4/3 119/4/3
f 121/4/3 117/4/3 120/4/3
f 122/4/3 117/4/3 121/4/3
f 123/4/3 119/4/3 110/4/3
f 124/2/3 120/2/3 119/2/3
f 124/4/3 119/4/3 123/4/3
f 125/4/3 121/4/3 120/4/3
f 125/2/3 120/2/3 124/2/3
f 126/4/3 121/4/3 125/4/3
f 129/4/3 128/4/3 127/4/3
f 130/4/3 128/4/3 129/4/3
f 133/4/3 132/4/3 131/4/3
f 134/4/3 132/4/3 133/4/3
f 138/4/3 136/4/3 135/4/3
f 139/4/3 136/4/3 138/4/3
f 140/1/3 138/1/3 137/1/3
f 141/1/3 138/1/3 140/1/3
f 144/4/3 143/4/3 142/4/3
f 145/4/3 143/4/3 144/4/3
f 146/4/4 147/4/4 148/4/4
f 148/4/4 147/4/4 149/4/4
f 150/4/4 151/4/4 152/4/4
f 152/4/4 151/4/4 153/4/4
f 154/4/4 155/4/4 156/4/4
f 156/4/4 155/4/4 157/4/4
f 158/4/4 159/4/4 161/4/4
f 161/4/4 159/4/4 162/4/4
f 160/1/4 161/1/4 163/1/4
f 163/1/4 161/1/4 164/1/4
f 165/4/4 166/4/4 169/4/4
f 166/3/4 167/3/4 169/3/4
f 167/4/4 168/4/4 170/4/4
f 169/3/4 167/3/4 170/3/4
f 170/4/4 168/4/4 171/4/4
f 171/4/4 168/4/4 172/4/4
f 165/4/4 169/4/4 174/4/4
f 169/4/4 170/4/4 174/4/4
f 170/4/4 171/4/4 174/4/4
f 174/4/4 171/4/4 175/4/4
f 175/4/4 171/4/4 177/4/4
f 176/4/4 177/4/4 178/4/4
f 177/4/4 171/4/4 179/4/4
f 178/4/4 177/4/4 179/4/4
f 179/4/4 171/4/4 181/4/4
f 171/1/4 172/1/4 182/1/4
f 181/4/4 171/4/4 182/4/4
f 172/4/4 173/4/4 183/4/4
f 182/1/4 172/1/4 183/1/4
f 181/4/4 182/4/4 184/4/4
f 180/4/4 181/4/4 184/4/4
f 182/4/4 183/4/4 184/4/4
f 183/4/4 173/4/4 185/4/4
f 184/4/4 183/4/4 185/4/4
f 180/4/4 184/4/4 186/4/4
f 184/1/4 185/1/4 186/1/4
f 185/4/4 173/4/4 187/4/4
f 186/1/4 185/1/4 187/1/4
f 187/4/4 173/4/4 188/4/4
f 180/4/4 186/4/4 189/4/4
f 186/4/4 187/4/4 189/4/4
f 189/4/4 187/4/4 190/4/4
f 190/4/4 187/4/4 191/4/4
f 191/4/4 187/4/4 192/4/4
f 180/4/4 189/4/4 193/4/4
f 189/2/4 190/2/4 194/2/4
f 193/4/4 189/4/4 194/4/4
f 190/4/4 191/4/4 195/4/4
f 194/2/4 190/2/4 195/2/4
f 195/4/4 191/4/4 196/4/4
f 203/4/5 200/4/5 199/4/5
f 204/4/5 202/4/5 201/4/5
f 205/4/5 198/4/5 197/4/5
f 206/4/5 204/4/5 203/4/5
f 206/4/5 203/4/5 199/4/5
f 207/4/5 205/4/5 197/4/5
f 207/4/5 206/4/5 205/4/5
f 208/4/5 204/4/5 206/4/5
f 208/4/5 206/4/5 207/4/5
f 209/4/5 204/4/5 208/4/5
f 210/4/5 202/4/5 204/4/5
f 210/4/5 204/4/5 209/4/5
f 211/4/5 207/4/5 197/4/5
f 212/4/5 207/4/5 211/4/5
f 213/4/5 209/4/5 208/4/5
f 214/4/5 209/4/5 213/4/5
f 215/4/5 202/4/5 210/4/5
f 216/4/5 202/4/5 215/4/5
f 221/4/5 220/4/5 219/4/5
f 222/4/5 220/4/5 221/4/5
f 223/4/5 218/4/5 217/4/5
f 224/4/5 218/4/5 223/4/5
f 229/4/5 226/4/5 225/4/5
f 230/4/5 226/4/5 229/4/5
f 231/4/5 228/4/5 227/4/5
f 232/4/5 228/4/5 231/4/5
f 233/4/6 234/4/6 235/4/6
f 235/4/6 234/4/6 236/4/6
f 237/4/6 238/4/6 239/4/6
f 239/4/6 238/4/6 240/4/6
f 241/4/6 242/4/6 245/4/6
f 245/4/6 242/4/6 246/4/6
f 243/4/6 244/4/6 247/4/6
f 247/4/6 244/4/6 248/4/6
f 248/1/6 249/1/6 253/1/6
f 253/1/6 249/1/6 254/1/6
f 250/4/6 251/4/6 255/4/6
f 255/4/6 251/4/6 256/4/6
f 252/4/6 253/4/6 257/4/6
f 257/4/6 253/4/6 258/4/6
f 259/4/6 260/4/6 262/4/6
f 262/4/6 260/4/6 263/4/6
f 261/4/6 262/4/6 265/4/6
f 263/4/6 264/4/6 265/4/6
f 262/4/6 263/4/6 265/4/6
f 265/4/6 264/4/6 266/4/6
f 266/4/6 264/4/6 267/4/6
f 267/4/6 264/4/6 268/4/6
f 266/4/6 267/4/6 269/4/6
f 269/4/6 267/4/6 270/4/6
