{
	"asset":{
		"generator":"Khronos glTF Blender I/O v4.4.56",
		"version":"2.0"
	},
	"extensionsUsed":[
		"KHR_materials_specular"
	],
	"scene":0,
	"scenes":[
		{
			"name":"Scene",
			"nodes":[
				0
			]
		}
	],
	"nodes":[
		{
			"mesh":0,
			"name":"model"
		}
	],
	"materials":[
		{
			"doubleSided":true,
			"extensions":{
				"KHR_materials_specular":{
					"specularFactor":0
				}
			},
			"name":"palette",
			"pbrMetallicRoughness":{
				"baseColorTexture":{
					"index":0
				},
				"metallicFactor":0
			}
		}
	],
	"meshes":[
		{
			"name":"mesh",
			"primitives":[
				{
					"attributes":{
						"POSITION":0,
						"NORMAL":1,
						"TEXCOORD_0":2
					},
					"indices":3,
					"material":0
				}
			]
		}
	],
	"textures":[
		{
			"sampler":0,
			"source":0
		}
	],
	"images":[
		{
			"mimeType":"image/png",
			"name":"texture",
			"uri":"texture.png"
		}
	],
	"accessors":[
		{
			"bufferView":0,
			"componentType":5126,
			"count":408,
			"max":[
				1.2000000476837158,
				0.6000000238418579,
				0.30000001192092896
			],
			"min":[
				-1.100000023841858,
				-2.2649372155569836e-08,
				-0.30000007152557373
			],
			"type":"VEC3"
		},
		{
			"bufferView":1,
			"componentType":5126,
			"count":408,
			"type":"VEC3"
		},
		{
			"bufferView":2,
			"componentType":5126,
			"count":408,
			"type":"VEC2"
		},
		{
			"bufferView":3,
			"componentType":5123,
			"count":1188,
			"type":"SCALAR"
		}
	],
	"bufferViews":[
		{
			"buffer":0,
			"byteLength":4896,
			"byteOffset":0,
			"target":34962
		},
		{
			"buffer":0,
			"byteLength":4896,
			"byteOffset":4896,
			"target":34962
		},
		{
			"buffer":0,
			"byteLength":3264,
			"byteOffset":9792,
			"target":34962
		},
		{
			"buffer":0,
			"byteLength":2376,
			"byteOffset":13056,
			"target":34963
		}
	],
	"samplers":[
		{
			"magFilter":9729,
			"minFilter":9987
		}
	],
	"buffers":[
		{
			"byteLength":15432,
			"uri":"container-blue.bin"
		}
	]
}
