# MagicaVoxel @ Ephtracy

# group
o 

# material
mtllib emergency-police-1.mtl
usemtl palette

# normals
vn 1 0 0
vn -1 0 0
vn 0 0 -1
vn 0 0 1
vn 0 -1 0
vn 0 1 0

# texcoords
vt 0.826172 0.5
vt 0.896484 0.5
vt 0.904297 0.5
vt 0.908203 0.5
vt 0.939453 0.5
vt 0.958984 0.5

# verts
v 0.8 0.1 -0.3
v 0.8 0.1 0.3
v 0.8 0.2 -0.3
v 0.8 0.2 -0.1
v 0.8 0.2 0.1
v 0.8 0.2 0.3
v 0.8 0.3 -0.3
v 0.8 0.3 -0.2
v 0.8 0.3 -0.1
v 0.8 0.3 0.1
v 0.8 0.3 0.2
v 0.8 0.3 0.3
v 0.8 0.4 -0.3
v 0.8 0.4 -0.2
v 0.8 0.4 0.2
v 0.8 0.4 0.3
v 0.8 0.5 -0.2
v 0.8 0.5 0.2
v 0.7 0.4 -0.3
v 0.7 0.4 -0.2
v 0.7 0.4 0.2
v 0.7 0.4 0.3
v 0.7 0.5 -0.3
v 0.7 0.5 -0.2
v 0.7 0.5 0.2
v 0.7 0.5 0.3
v 0.7 0.6 -0.2
v 0.7 0.6 0.2
v 0.6 0.5 -0.3
v 0.6 0.5 -0.2
v 0.6 0.5 0.2
v 0.6 0.5 0.3
v 0.6 0.6 -0.3
v 0.6 0.6 -0.2
v 0.6 0.6 0.2
v 0.6 0.6 0.3
v 0.4 0.1 -0.3
v 0.4 0.1 -0.2
v 0.4 0.1 0.2
v 0.4 0.1 0.3
v 0.4 0.2 -0.3
v 0.4 0.2 -0.2
v 0.4 0.2 0.2
v 0.4 0.2 0.3
v 0.1 0.6 -0.3
v 0.1 0.6 0.3
v 0.1 0.7 -0.3
v 0.1 0.7 0.3
v -0.5 0.1 -0.3
v -0.5 0.1 -0.2
v -0.5 0.1 0.2
v -0.5 0.1 0.3
v -0.5 0.2 -0.3
v -0.5 0.2 -0.2
v -0.5 0.2 0.2
v -0.5 0.2 0.3
v 0.6 0.1 -0.3
v 0.6 0.1 -0.2
v 0.6 0.1 0.2
v 0.6 0.1 0.3
v 0.6 0.2 -0.3
v 0.6 0.2 -0.2
v 0.6 0.2 0.2
v 0.6 0.2 0.3
v 0 0.6 -0.3
v 0 0.6 0.3
v 0 0.7 -0.3
v 0 0.7 0.3
v -0.2 0.5 -0.3
v -0.2 0.5 -0.2
v -0.2 0.5 0.2
v -0.2 0.5 0.3
v -0.2 0.6 -0.3
v -0.2 0.6 -0.2
v -0.2 0.6 0.2
v -0.2 0.6 0.3
v -0.3 0.1 -0.3
v -0.3 0.1 -0.2
v -0.3 0.1 0.2
v -0.3 0.1 0.3
v -0.3 0.2 -0.3
v -0.3 0.2 -0.2
v -0.3 0.2 0.2
v -0.3 0.2 0.3
v -0.3 0.4 -0.3
v -0.3 0.4 -0.2
v -0.3 0.4 0.2
v -0.3 0.4 0.3
v -0.3 0.5 -0.3
v -0.3 0.5 -0.2
v -0.3 0.5 0.2
v -0.3 0.5 0.3
v -0.3 0.6 -0.2
v -0.3 0.6 0.2
v -0.4 0.4 -0.2
v -0.4 0.4 0.2
v -0.4 0.5 -0.2
v -0.4 0.5 0.2
v -0.7 0.3 -0.3
v -0.7 0.3 -0.2
v -0.7 0.3 0.2
v -0.7 0.3 0.3
v -0.7 0.4 -0.3
v -0.7 0.4 -0.2
v -0.7 0.4 0.2
v -0.7 0.4 0.3
v -0.8 0.1 -0.3
v -0.8 0.1 0.3
v -0.8 0.2 -0.3
v -0.8 0.2 -0.1
v -0.8 0.2 0.1
v -0.8 0.2 0.3
v -0.8 0.3 -0.3
v -0.8 0.3 -0.2
v -0.8 0.3 -0.1
v -0.8 0.3 0.1
v -0.8 0.3 0.2
v -0.8 0.3 0.3
v -0.8 0.4 -0.2
v -0.8 0.4 0.2
v 0.8 0.1 -0.3
v 0.8 0.2 -0.3
v 0.8 0.3 -0.3
v 0.8 0.4 -0.3
v 0.7 0.2 -0.3
v 0.7 0.3 -0.3
v 0.7 0.4 -0.3
v 0.7 0.5 -0.3
v 0.6 0.1 -0.3
v 0.6 0.2 -0.3
v 0.6 0.4 -0.3
v 0.6 0.5 -0.3
v 0.6 0.6 -0.3
v 0.4 0.1 -0.3
v 0.4 0.2 -0.3
v 0.2 0.3 -0.3
v 0.2 0.5 -0.3
v 0.1 0.3 -0.3
v 0.1 0.5 -0.3
v 0.1 0.6 -0.3
v 0.1 0.7 -0.3
v 0 0.6 -0.3
v 0 0.7 -0.3
v -0.2 0.4 -0.3
v -0.2 0.5 -0.3
v -0.2 0.6 -0.3
v -0.3 0.1 -0.3
v -0.3 0.2 -0.3
v -0.3 0.3 -0.3
v -0.3 0.4 -0.3
v -0.3 0.5 -0.3
v -0.5 0.1 -0.3
v -0.5 0.2 -0.3
v -0.7 0.2 -0.3
v -0.7 0.3 -0.3
v -0.7 0.4 -0.3
v -0.8 0.1 -0.3
v -0.8 0.2 -0.3
v -0.8 0.3 -0.3
v 0.8 0.4 -0.2
v 0.8 0.5 -0.2
v 0.7 0.4 -0.2
v 0.7 0.5 -0.2
v 0.7 0.6 -0.2
v 0.6 0.1 -0.2
v 0.6 0.2 -0.2
v 0.6 0.5 -0.2
v 0.6 0.6 -0.2
v 0.4 0.1 -0.2
v 0.4 0.2 -0.2
v -0.2 0.5 -0.2
v -0.2 0.6 -0.2
v -0.3 0.1 -0.2
v -0.3 0.2 -0.2
v -0.3 0.4 -0.2
v -0.3 0.5 -0.2
v -0.3 0.6 -0.2
v -0.4 0.4 -0.2
v -0.4 0.5 -0.2
v -0.5 0.1 -0.2
v -0.5 0.2 -0.2
v -0.7 0.3 -0.2
v -0.7 0.4 -0.2
v -0.8 0.3 -0.2
v -0.8 0.4 -0.2
v 0.8 0.4 0.2
v 0.8 0.5 0.2
v 0.7 0.4 0.2
v 0.7 0.5 0.2
v 0.7 0.6 0.2
v 0.6 0.1 0.2
v 0.6 0.2 0.2
v 0.6 0.5 0.2
v 0.6 0.6 0.2
v 0.4 0.1 0.2
v 0.4 0.2 0.2
v -0.2 0.5 0.2
v -0.2 0.6 0.2
v -0.3 0.1 0.2
v -0.3 0.2 0.2
v -0.3 0.4 0.2
v -0.3 0.5 0.2
v -0.3 0.6 0.2
v -0.4 0.4 0.2
v -0.4 0.5 0.2
v -0.5 0.1 0.2
v -0.5 0.2 0.2
v -0.7 0.3 0.2
v -0.7 0.4 0.2
v -0.8 0.3 0.2
v -0.8 0.4 0.2
v 0.8 0.1 0.3
v 0.8 0.2 0.3
v 0.8 0.3 0.3
v 0.8 0.4 0.3
v 0.7 0.2 0.3
v 0.7 0.3 0.3
v 0.7 0.4 0.3
v 0.7 0.5 0.3
v 0.6 0.1 0.3
v 0.6 0.2 0.3
v 0.6 0.4 0.3
v 0.6 0.5 0.3
v 0.6 0.6 0.3
v 0.4 0.1 0.3
v 0.4 0.2 0.3
v 0.2 0.3 0.3
v 0.2 0.5 0.3
v 0.1 0.3 0.3
v 0.1 0.5 0.3
v 0.1 0.6 0.3
v 0.1 0.7 0.3
v 0 0.6 0.3
v 0 0.7 0.3
v -0.2 0.4 0.3
v -0.2 0.5 0.3
v -0.2 0.6 0.3
v -0.3 0.1 0.3
v -0.3 0.2 0.3
v -0.3 0.3 0.3
v -0.3 0.4 0.3
v -0.3 0.5 0.3
v -0.5 0.1 0.3
v -0.5 0.2 0.3
v -0.7 0.2 0.3
v -0.7 0.3 0.3
v -0.7 0.4 0.3
v -0.8 0.1 0.3
v -0.8 0.2 0.3
v -0.8 0.3 0.3
v 0.8 0.1 -0.3
v 0.6 0.1 -0.3
v 0.4 0.1 -0.3
v -0.3 0.1 -0.3
v -0.5 0.1 -0.3
v -0.8 0.1 -0.3
v 0.6 0.1 -0.2
v 0.4 0.1 -0.2
v -0.3 0.1 -0.2
v -0.5 0.1 -0.2
v 0.6 0.1 0.2
v 0.4 0.1 0.2
v -0.3 0.1 0.2
v -0.5 0.1 0.2
v 0.8 0.1 0.3
v 0.6 0.1 0.3
v 0.4 0.1 0.3
v -0.3 0.1 0.3
v -0.5 0.1 0.3
v -0.8 0.1 0.3
v 0.6 0.2 -0.3
v 0.4 0.2 -0.3
v -0.3 0.2 -0.3
v -0.5 0.2 -0.3
v 0.6 0.2 -0.2
v 0.4 0.2 -0.2
v -0.3 0.2 -0.2
v -0.5 0.2 -0.2
v 0.6 0.2 0.2
v 0.4 0.2 0.2
v -0.3 0.2 0.2
v -0.5 0.2 0.2
v 0.6 0.2 0.3
v 0.4 0.2 0.3
v -0.3 0.2 0.3
v -0.5 0.2 0.3
v -0.7 0.3 -0.3
v -0.8 0.3 -0.3
v -0.7 0.3 -0.2
v -0.8 0.3 -0.2
v -0.7 0.3 0.2
v -0.8 0.3 0.2
v -0.7 0.3 0.3
v -0.8 0.3 0.3
v 0.8 0.4 -0.3
v 0.7 0.4 -0.3
v -0.3 0.4 -0.3
v -0.7 0.4 -0.3
v 0.8 0.4 -0.2
v 0.7 0.4 -0.2
v -0.3 0.4 -0.2
v -0.4 0.4 -0.2
v -0.7 0.4 -0.2
v -0.8 0.4 -0.2
v 0.8 0.4 0.2
v 0.7 0.4 0.2
v -0.3 0.4 0.2
v -0.4 0.4 0.2
v -0.7 0.4 0.2
v -0.8 0.4 0.2
v 0.8 0.4 0.3
v 0.7 0.4 0.3
v -0.3 0.4 0.3
v -0.7 0.4 0.3
v 0.7 0.5 -0.3
v 0.6 0.5 -0.3
v -0.2 0.5 -0.3
v -0.3 0.5 -0.3
v 0.8 0.5 -0.2
v 0.7 0.5 -0.2
v 0.6 0.5 -0.2
v -0.2 0.5 -0.2
v -0.3 0.5 -0.2
v -0.4 0.5 -0.2
v 0.8 0.5 0.2
v 0.7 0.5 0.2
v 0.6 0.5 0.2
v -0.2 0.5 0.2
v -0.3 0.5 0.2
v -0.4 0.5 0.2
v 0.7 0.5 0.3
v 0.6 0.5 0.3
v -0.2 0.5 0.3
v -0.3 0.5 0.3
v 0.6 0.6 -0.3
v 0.1 0.6 -0.3
v 0 0.6 -0.3
v -0.2 0.6 -0.3
v 0.7 0.6 -0.2
v 0.6 0.6 -0.2
v -0.2 0.6 -0.2
v -0.3 0.6 -0.2
v 0.7 0.6 0.2
v 0.6 0.6 0.2
v -0.2 0.6 0.2
v -0.3 0.6 0.2
v 0.6 0.6 0.3
v 0.1 0.6 0.3
v 0 0.6 0.3
v -0.2 0.6 0.3
v 0.1 0.7 -0.3
v 0 0.7 -0.3
v 0.1 0.7 0.3
v 0 0.7 0.3

# faces
f 3/3/1 2/3/1 1/3/1
f 4/3/1 2/3/1 3/3/1
f 5/3/1 2/3/1 4/3/1
f 6/3/1 2/3/1 5/3/1
f 7/4/1 4/4/1 3/4/1
f 8/4/1 4/4/1 7/4/1
f 9/3/1 5/3/1 4/3/1
f 9/4/1 4/4/1 8/4/1
f 10/4/1 6/4/1 5/4/1
f 10/3/1 5/3/1 9/3/1
f 11/4/1 6/4/1 10/4/1
f 12/4/1 6/4/1 11/4/1
f 13/3/1 8/3/1 7/3/1
f 14/1/1 9/1/1 8/1/1
f 14/3/1 8/3/1 13/3/1
f 14/1/1 10/1/1 9/1/1
f 14/1/1 11/1/1 10/1/1
f 15/3/1 12/3/1 11/3/1
f 15/1/1 11/1/1 14/1/1
f 16/3/1 12/3/1 15/3/1
f 17/1/1 15/1/1 14/1/1
f 18/1/1 15/1/1 17/1/1
f 23/3/1 20/3/1 19/3/1
f 24/3/1 20/3/1 23/3/1
f 25/3/1 22/3/1 21/3/1
f 26/3/1 22/3/1 25/3/1
f 27/3/1 25/3/1 24/3/1
f 28/3/1 25/3/1 27/3/1
f 33/3/1 30/3/1 29/3/1
f 34/3/1 30/3/1 33/3/1
f 35/3/1 32/3/1 31/3/1
f 36/3/1 32/3/1 35/3/1
f 41/3/1 38/3/1 37/3/1
f 42/3/1 38/3/1 41/3/1
f 43/3/1 40/3/1 39/3/1
f 44/3/1 40/3/1 43/3/1
f 47/5/1 46/5/1 45/5/1
f 48/5/1 46/5/1 47/5/1
f 53/3/1 50/3/1 49/3/1
f 54/3/1 50/3/1 53/3/1
f 55/3/1 52/3/1 51/3/1
f 56/3/1 52/3/1 55/3/1
f 57/3/2 58/3/2 61/3/2
f 61/3/2 58/3/2 62/3/2
f 59/3/2 60/3/2 63/3/2
f 63/3/2 60/3/2 64/3/2
f 65/5/2 66/5/2 67/5/2
f 67/5/2 66/5/2 68/5/2
f 69/3/2 70/3/2 73/3/2
f 73/3/2 70/3/2 74/3/2
f 71/3/2 72/3/2 75/3/2
f 75/3/2 72/3/2 76/3/2
f 77/3/2 78/3/2 81/3/2
f 81/3/2 78/3/2 82/3/2
f 79/3/2 80/3/2 83/3/2
f 83/3/2 80/3/2 84/3/2
f 85/3/2 86/3/2 89/3/2
f 89/3/2 86/3/2 90/3/2
f 87/3/2 88/3/2 91/3/2
f 91/3/2 88/3/2 92/3/2
f 90/3/2 91/3/2 93/3/2
f 93/3/2 91/3/2 94/3/2
f 95/1/2 96/1/2 97/1/2
f 97/1/2 96/1/2 98/1/2
f 99/3/2 100/3/2 103/3/2
f 103/3/2 100/3/2 104/3/2
f 101/3/2 102/3/2 105/3/2
f 105/3/2 102/3/2 106/3/2
f 107/3/2 108/3/2 109/3/2
f 109/3/2 108/3/2 110/3/2
f 110/3/2 108/3/2 111/3/2
f 111/3/2 108/3/2 112/3/2
f 109/2/2 110/2/2 113/2/2
f 113/2/2 110/2/2 114/2/2
f 110/3/2 111/3/2 115/3/2
f 114/2/2 110/2/2 115/2/2
f 111/2/2 112/2/2 116/2/2
f 115/3/2 111/3/2 116/3/2
f 116/2/2 112/2/2 117/2/2
f 117/2/2 112/2/2 118/2/2
f 114/6/2 115/6/2 119/6/2
f 116/6/2 117/6/2 119/6/2
f 115/6/2 116/6/2 119/6/2
f 119/6/2 117/6/2 120/6/2
f 125/3/3 122/3/3 121/3/3
f 125/4/3 123/4/3 122/4/3
f 126/3/3 124/3/3 123/3/3
f 126/4/3 123/4/3 125/4/3
f 127/3/3 124/3/3 126/3/3
f 129/3/3 125/3/3 121/3/3
f 130/6/3 126/6/3 125/6/3
f 130/3/3 125/3/3 129/3/3
f 131/3/3 128/3/3 127/3/3
f 131/1/3 127/1/3 126/1/3
f 132/3/3 128/3/3 131/3/3
f 135/6/3 126/6/3 130/6/3
f 136/1/3 132/1/3 131/1/3
f 136/1/3 131/1/3 126/1/3
f 136/6/3 126/6/3 135/6/3
f 137/3/3 133/3/3 132/3/3
f 137/1/3 132/1/3 136/1/3
f 138/6/3 136/6/3 135/6/3
f 138/3/3 137/3/3 136/3/3
f 139/3/3 133/3/3 137/3/3
f 139/3/3 137/3/3 138/3/3
f 140/3/3 133/3/3 139/3/3
f 142/3/3 140/3/3 139/3/3
f 142/5/3 141/5/3 140/5/3
f 143/5/3 141/5/3 142/5/3
f 144/1/3 139/1/3 138/1/3
f 145/3/3 142/3/3 139/3/3
f 145/1/3 139/1/3 144/1/3
f 146/3/3 142/3/3 145/3/3
f 147/3/3 135/3/3 134/3/3
f 148/6/3 138/6/3 135/6/3
f 148/3/3 135/3/3 147/3/3
f 149/1/3 144/1/3 138/1/3
f 149/6/3 138/6/3 148/6/3
f 150/3/3 145/3/3 144/3/3
f 150/1/3 144/1/3 149/1/3
f 151/3/3 145/3/3 150/3/3
f 153/6/3 149/6/3 148/6/3
f 154/6/3 149/6/3 153/6/3
f 154/3/3 153/3/3 152/3/3
f 155/3/3 150/3/3 149/3/3
f 155/6/3 149/6/3 154/6/3
f 156/3/3 150/3/3 155/3/3
f 157/3/3 154/3/3 152/3/3
f 158/2/3 155/2/3 154/2/3
f 158/3/3 154/3/3 157/3/3
f 159/2/3 155/2/3 158/2/3
f 162/1/3 161/1/3 160/1/3
f 163/1/3 161/1/3 162/1/3
f 167/3/3 164/3/3 163/3/3
f 168/3/3 164/3/3 167/3/3
f 169/3/3 166/3/3 165/3/3
f 170/3/3 166/3/3 169/3/3
f 176/3/3 172/3/3 171/3/3
f 177/3/3 172/3/3 176/3/3
f 178/1/3 176/1/3 175/1/3
f 179/1/3 176/1/3 178/1/3
f 180/3/3 174/3/3 173/3/3
f 181/3/3 174/3/3 180/3/3
f 184/6/3 183/6/3 182/6/3
f 185/6/3 183/6/3 184/6/3
f 186/1/4 187/1/4 188/1/4
f 188/1/4 187/1/4 189/1/4
f 189/3/4 190/3/4 193/3/4
f 193/3/4 190/3/4 194/3/4
f 191/3/4 192/3/4 195/3/4
f 195/3/4 192/3/4 196/3/4
f 197/3/4 198/3/4 202/3/4
f 202/3/4 198/3/4 203/3/4
f 201/1/4 202/1/4 204/1/4
f 204/1/4 202/1/4 205/1/4
f 199/3/4 200/3/4 206/3/4
f 206/3/4 200/3/4 207/3/4
f 208/6/4 209/6/4 210/6/4
f 210/6/4 209/6/4 211/6/4
f 212/3/4 213/3/4 216/3/4
f 213/4/4 214/4/4 216/4/4
f 214/3/4 215/3/4 217/3/4
f 216/4/4 214/4/4 217/4/4
f 217/3/4 215/3/4 218/3/4
f 212/3/4 216/3/4 220/3/4
f 216/6/4 217/6/4 221/6/4
f 220/3/4 216/3/4 221/3/4
f 218/3/4 219/3/4 222/3/4
f 217/1/4 218/1/4 222/1/4
f 222/3/4 219/3/4 223/3/4
f 221/6/4 217/6/4 226/6/4
f 222/1/4 223/1/4 227/1/4
f 217/1/4 222/1/4 227/1/4
f 226/6/4 217/6/4 227/6/4
f 223/3/4 224/3/4 228/3/4
f 227/1/4 223/1/4 228/1/4
f 226/6/4 227/6/4 229/6/4
f 227/3/4 228/3/4 229/3/4
f 228/3/4 224/3/4 230/3/4
f 229/3/4 228/3/4 230/3/4
f 230/3/4 224/3/4 231/3/4
f 230/3/4 231/3/4 233/3/4
f 231/5/4 232/5/4 233/5/4
f 233/5/4 232/5/4 234/5/4
f 229/1/4 230/1/4 235/1/4
f 230/3/4 233/3/4 236/3/4
f 235/1/4 230/1/4 236/1/4
f 236/3/4 233/3/4 237/3/4
f 225/3/4 226/3/4 238/3/4
f 226/6/4 229/6/4 239/6/4
f 238/3/4 226/3/4 239/3/4
f 229/1/4 235/1/4 240/1/4
f 239/6/4 229/6/4 240/6/4
f 235/3/4 236/3/4 241/3/4
f 240/1/4 235/1/4 241/1/4
f 241/3/4 236/3/4 242/3/4
f 239/6/4 240/6/4 244/6/4
f 244/6/4 240/6/4 245/6/4
f 243/3/4 244/3/4 245/3/4
f 240/3/4 241/3/4 246/3/4
f 245/6/4 240/6/4 246/6/4
f 246/3/4 241/3/4 247/3/4
f 243/3/4 245/3/4 248/3/4
f 245/2/4 246/2/4 249/2/4
f 248/3/4 245/3/4 249/3/4
f 249/2/4 246/2/4 250/2/4
f 257/3/5 252/3/5 251/3/5
f 258/3/5 254/3/5 253/3/5
f 259/3/5 254/3/5 258/3/5
f 260/3/5 256/3/5 255/3/5
f 261/3/5 259/3/5 258/3/5
f 261/3/5 260/3/5 259/3/5
f 261/3/5 257/3/5 251/3/5
f 261/3/5 258/3/5 257/3/5
f 262/3/5 260/3/5 261/3/5
f 263/3/5 260/3/5 262/3/5
f 264/3/5 256/3/5 260/3/5
f 264/3/5 260/3/5 263/3/5
f 265/3/5 261/3/5 251/3/5
f 266/3/5 261/3/5 265/3/5
f 267/3/5 263/3/5 262/3/5
f 268/3/5 263/3/5 267/3/5
f 269/3/5 256/3/5 264/3/5
f 270/3/5 256/3/5 269/3/5
f 275/6/5 272/6/5 271/6/5
f 276/6/5 272/6/5 275/6/5
f 277/6/5 274/6/5 273/6/5
f 278/6/5 274/6/5 277/6/5
f 283/6/5 280/6/5 279/6/5
f 284/6/5 280/6/5 283/6/5
f 285/6/5 282/6/5 281/6/5
f 286/6/5 282/6/5 285/6/5
f 287/2/6 288/2/6 289/2/6
f 289/2/6 288/2/6 290/2/6
f 291/2/6 292/2/6 293/2/6
f 293/2/6 292/2/6 294/2/6
f 295/3/6 296/3/6 299/3/6
f 299/3/6 296/3/6 300/3/6
f 297/3/6 298/3/6 301/3/6
f 301/3/6 298/3/6 302/3/6
f 302/3/6 298/3/6 303/3/6
f 303/6/6 304/6/6 308/6/6
f 302/6/6 303/6/6 308/6/6
f 308/6/6 304/6/6 309/6/6
f 309/6/6 304/6/6 310/6/6
f 305/3/6 306/3/6 311/3/6
f 311/3/6 306/3/6 312/3/6
f 307/3/6 308/3/6 313/3/6
f 308/3/6 309/3/6 313/3/6
f 313/3/6 309/3/6 314/3/6
f 315/3/6 316/3/6 320/3/6
f 320/3/6 316/3/6 321/3/6
f 317/3/6 318/3/6 322/3/6
f 322/3/6 318/3/6 323/3/6
f 319/1/6 320/1/6 325/1/6
f 325/1/6 320/1/6 326/1/6
f 323/1/6 324/1/6 329/1/6
f 329/1/6 324/1/6 330/1/6
f 326/3/6 327/3/6 331/3/6
f 331/3/6 327/3/6 332/3/6
f 328/3/6 329/3/6 333/3/6
f 333/3/6 329/3/6 334/3/6
f 335/3/6 336/3/6 340/3/6
f 337/3/6 338/3/6 341/3/6
f 339/3/6 340/3/6 343/3/6
f 340/3/6 336/3/6 344/3/6
f 343/3/6 340/3/6 344/3/6
f 341/3/6 342/3/6 345/3/6
f 337/3/6 341/3/6 345/3/6
f 345/3/6 342/3/6 346/3/6
f 344/3/6 336/3/6 347/3/6
f 347/3/6 336/3/6 348/3/6
f 337/3/6 345/3/6 349/3/6
f 349/3/6 345/3/6 350/3/6
f 351/5/6 352/5/6 353/5/6
f 353/5/6 352/5/6 354/5/6
