{
	"asset":{
		"generator":"Khronos glTF Blender I/O v4.4.56",
		"version":"2.0"
	},
	"extensionsUsed":[
		"KHR_materials_specular"
	],
	"scene":0,
	"scenes":[
		{
			"name":"Scene",
			"nodes":[
				0
			]
		}
	],
	"nodes":[
		{
			"mesh":0,
			"name":"track-switch-large-1_model"
		}
	],
	"materials":[
		{
			"doubleSided":true,
			"extensions":{
				"KHR_materials_specular":{
					"specularFactor":0
				}
			},
			"name":"palette",
			"pbrMetallicRoughness":{
				"baseColorTexture":{
					"index":0
				},
				"metallicFactor":0
			}
		}
	],
	"meshes":[
		{
			"name":"mesh",
			"primitives":[
				{
					"attributes":{
						"POSITION":0,
						"NORMAL":1,
						"TEXCOORD_0":2
					},
					"indices":3,
					"material":0
				}
			]
		}
	],
	"textures":[
		{
			"sampler":0,
			"source":0
		}
	],
	"images":[
		{
			"mimeType":"image/png",
			"name":"texture",
			"uri":"texture.png"
		}
	],
	"accessors":[
		{
			"bufferView":0,
			"componentType":5126,
			"count":2884,
			"max":[
				4.800000190734863,
				0.09999998658895493,
				-0.20000000298023224
			],
			"min":[
				-1.600000023841858,
				-2.2649371089755732e-07,
				-3
			],
			"type":"VEC3"
		},
		{
			"bufferView":1,
			"componentType":5126,
			"count":2884,
			"type":"VEC3"
		},
		{
			"bufferView":2,
			"componentType":5126,
			"count":2884,
			"type":"VEC2"
		},
		{
			"bufferView":3,
			"componentType":5123,
			"count":5364,
			"type":"SCALAR"
		}
	],
	"bufferViews":[
		{
			"buffer":0,
			"byteLength":34608,
			"byteOffset":0,
			"target":34962
		},
		{
			"buffer":0,
			"byteLength":34608,
			"byteOffset":34608,
			"target":34962
		},
		{
			"buffer":0,
			"byteLength":23072,
			"byteOffset":69216,
			"target":34962
		},
		{
			"buffer":0,
			"byteLength":10728,
			"byteOffset":92288,
			"target":34963
		}
	],
	"samplers":[
		{
			"magFilter":9729,
			"minFilter":9987
		}
	],
	"buffers":[
		{
			"byteLength":103016,
			"uri":"track-switch-large-1.bin"
		}
	]
}
