# MagicaVoxel @ Ephtracy

# group
o 

# material
mtllib forest-city-rounded-edge-outer-3.mtl
usemtl palette

# normals
vn -1 0 0
vn 1 0 0
vn 0 0 1
vn 0 0 -1
vn 0 -1 0
vn 0 1 0

# texcoords
vt 0.939453 0.5
vt 0.943359 0.5
vt 0.947266 0.5
vt 0.951172 0.5
vt 0.955078 0.5
vt 0.958984 0.5
vt 0.962891 0.5
vt 0.966797 0.5
vt 0.978516 0.5
vt 0.982422 0.5

# verts
v -1.6 0 1.6
v -1.6 0 -1.6
v -1.6 0.2 1.6
v -1.6 0.2 -1.6
v 1.6 0 1.6
v 1.6 0 -1.6
v 1.6 0.1 0.1
v 1.6 0.1 0
v 1.6 0.1 -0.1
v 1.6 0.1 -0.2
v 1.6 0.1 -0.4
v 1.6 0.1 -0.5
v 1.6 0.1 -0.7
v 1.6 0.1 -1
v 1.6 0.1 -1.1
v 1.6 0.1 -1.2
v 1.6 0.1 -1.3
v 1.6 0.1 -1.4
v 1.6 0.1 -1.6
v 1.6 0.2 1.6
v 1.6 0.2 0.1
v 1.6 0.2 0
v 1.6 0.2 -0.1
v 1.6 0.2 -0.2
v 1.6 0.2 -0.4
v 1.6 0.2 -0.5
v 1.6 0.2 -0.7
v 1.6 0.2 -1
v 1.6 0.2 -1.1
v 1.6 0.2 -1.2
v 1.6 0.2 -1.3
v 1.6 0.2 -1.4
v 1.6 0.2 -1.6
v -1.6 0 1.6
v -1.6 0.2 1.6
v 1.6 0 1.6
v 1.6 0.2 1.6
v -1.6 0 -1.6
v -1.6 0.2 -1.6
v -0.1 0.1 -1.6
v -0.1 0.2 -1.6
v 0 0.1 -1.6
v 0 0.2 -1.6
v 0.1 0.1 -1.6
v 0.1 0.2 -1.6
v 1.6 0 -1.6
v 1.6 0.1 -1.6
v 1.6 0.2 -1.6
v -1.6 0 1.6
v 1.6 0 1.6
v -1.6 0 -1.6
v 1.6 0 -1.6
v -1.6 0.2 1.6
v 1.6 0.2 1.6
v 1.2 0.2 0.1
v 1.6 0.2 0.1
v 0.8 0.2 0
v 1.2 0.2 0
v 1.3 0.2 0
v 1.4 0.2 0
v 1.6 0.2 0
v 0.6 0.2 -0.1
v 0.8 0.2 -0.1
v 1 0.2 -0.1
v 1.2 0.2 -0.1
v 1.3 0.2 -0.1
v 1.4 0.2 -0.1
v 1.5 0.2 -0.1
v 1.6 0.2 -0.1
v 0.5 0.2 -0.2
v 0.6 0.2 -0.2
v 0.7 0.2 -0.2
v 0.8 0.2 -0.2
v 0.9 0.2 -0.2
v 1 0.2 -0.2
v 1.2 0.2 -0.2
v 1.3 0.2 -0.2
v 1.4 0.2 -0.2
v 1.5 0.2 -0.2
v 1.6 0.2 -0.2
v 0.4 0.2 -0.3
v 0.5 0.2 -0.3
v 0.6 0.2 -0.3
v 0.7 0.2 -0.3
v 0.8 0.2 -0.3
v 0.9 0.2 -0.3
v 0.3 0.2 -0.4
v 0.4 0.2 -0.4
v 0.5 0.2 -0.4
v 0.6 0.2 -0.4
v 0.7 0.2 -0.4
v 0.8 0.2 -0.4
v 1.1 0.2 -0.4
v 1.2 0.2 -0.4
v 1.3 0.2 -0.4
v 1.4 0.2 -0.4
v 1.6 0.2 -0.4
v 0.2 0.2 -0.5
v 0.3 0.2 -0.5
v 0.4 0.2 -0.5
v 0.5 0.2 -0.5
v 0.6 0.2 -0.5
v 0.8 0.2 -0.5
v 1 0.2 -0.5
v 1.1 0.2 -0.5
v 1.5 0.2 -0.5
v 1.6 0.2 -0.5
v 0.1 0.2 -0.6
v 0.2 0.2 -0.6
v 0.3 0.2 -0.6
v 0.4 0.2 -0.6
v 0.5 0.2 -0.6
v 0.6 0.2 -0.6
v 0.8 0.2 -0.6
v 1 0.2 -0.6
v 1.1 0.2 -0.6
v 1.2 0.2 -0.6
v 1.4 0.2 -0.6
v 1.5 0.2 -0.6
v 0.2 0.2 -0.7
v 0.3 0.2 -0.7
v 0.4 0.2 -0.7
v 0.6 0.2 -0.7
v 0.7 0.2 -0.7
v 0.8 0.2 -0.7
v 1.1 0.2 -0.7
v 1.2 0.2 -0.7
v 1.3 0.2 -0.7
v 1.4 0.2 -0.7
v 1.5 0.2 -0.7
v 1.6 0.2 -0.7
v 0 0.2 -0.8
v 0.1 0.2 -0.8
v 0.2 0.2 -0.8
v 0.3 0.2 -0.8
v 0.4 0.2 -0.8
v 0.5 0.2 -0.8
v 0.7 0.2 -0.8
v 0.8 0.2 -0.8
v 0.9 0.2 -0.8
v 1 0.2 -0.8
v 1.1 0.2 -0.8
v 0.1 0.2 -0.9
v 0.2 0.2 -0.9
v 0.3 0.2 -0.9
v 0.4 0.2 -0.9
v 0.5 0.2 -0.9
v 0.6 0.2 -0.9
v 0.7 0.2 -0.9
v 0.8 0.2 -0.9
v 0.9 0.2 -0.9
v 1 0.2 -0.9
v 1.1 0.2 -0.9
v 1.2 0.2 -0.9
v 1.3 0.2 -0.9
v 1.5 0.2 -0.9
v 0.1 0.2 -1
v 0.2 0.2 -1
v 0.3 0.2 -1
v 0.4 0.2 -1
v 0.5 0.2 -1
v 0.6 0.2 -1
v 0.7 0.2 -1
v 0.8 0.2 -1
v 0.9 0.2 -1
v 1 0.2 -1
v 1.2 0.2 -1
v 1.3 0.2 -1
v 1.5 0.2 -1
v 1.6 0.2 -1
v 0.1 0.2 -1.1
v 0.2 0.2 -1.1
v 0.3 0.2 -1.1
v 0.4 0.2 -1.1
v 0.6 0.2 -1.1
v 0.7 0.2 -1.1
v 0.8 0.2 -1.1
v 0.9 0.2 -1.1
v 1 0.2 -1.1
v 1.2 0.2 -1.1
v 1.3 0.2 -1.1
v 1.5 0.2 -1.1
v 1.6 0.2 -1.1
v -0.1 0.2 -1.2
v 0 0.2 -1.2
v 0.1 0.2 -1.2
v 0.2 0.2 -1.2
v 0.3 0.2 -1.2
v 0.5 0.2 -1.2
v 0.7 0.2 -1.2
v 0.8 0.2 -1.2
v 0.9 0.2 -1.2
v 1 0.2 -1.2
v 1.1 0.2 -1.2
v 1.2 0.2 -1.2
v 1.3 0.2 -1.2
v 1.4 0.2 -1.2
v 1.5 0.2 -1.2
v 1.6 0.2 -1.2
v 0 0.2 -1.3
v 0.1 0.2 -1.3
v 0.2 0.2 -1.3
v 0.3 0.2 -1.3
v 0.4 0.2 -1.3
v 0.7 0.2 -1.3
v 1 0.2 -1.3
v 1.1 0.2 -1.3
v 1.5 0.2 -1.3
v 1.6 0.2 -1.3
v 0 0.2 -1.4
v 0.1 0.2 -1.4
v 0.2 0.2 -1.4
v 0.3 0.2 -1.4
v 0.4 0.2 -1.4
v 0.5 0.2 -1.4
v 1.2 0.2 -1.4
v 1.3 0.2 -1.4
v 1.4 0.2 -1.4
v 1.6 0.2 -1.4
v 1.1 0.2 -1.5
v 1.2 0.2 -1.5
v 1.3 0.2 -1.5
v 1.4 0.2 -1.5
v -1.6 0.2 -1.6
v -0.1 0.2 -1.6
v 0 0.2 -1.6
v 0.1 0.2 -1.6
v 1.6 0.2 -1.6

# faces
f 3/9/1 2/9/1 1/9/1
f 4/9/1 2/9/1 3/9/1
f 5/9/2 6/9/2 7/9/2
f 7/9/2 6/9/2 8/9/2
f 8/9/2 6/9/2 9/9/2
f 9/9/2 6/9/2 10/9/2
f 10/9/2 6/9/2 11/9/2
f 11/9/2 6/9/2 12/9/2
f 12/9/2 6/9/2 13/9/2
f 13/9/2 6/9/2 14/9/2
f 14/9/2 6/9/2 15/9/2
f 15/9/2 6/9/2 16/9/2
f 16/9/2 6/9/2 17/9/2
f 17/9/2 6/9/2 18/9/2
f 18/9/2 6/9/2 19/9/2
f 5/9/2 7/9/2 20/9/2
f 7/10/2 8/10/2 21/10/2
f 20/9/2 7/9/2 21/9/2
f 8/8/2 9/8/2 22/8/2
f 21/10/2 8/10/2 22/10/2
f 9/1/2 10/1/2 23/1/2
f 22/8/2 9/8/2 23/8/2
f 10/2/2 11/2/2 24/2/2
f 23/1/2 10/1/2 24/1/2
f 11/1/2 12/1/2 25/1/2
f 24/2/2 11/2/2 25/2/2
f 12/2/2 13/2/2 26/2/2
f 25/1/2 12/1/2 26/1/2
f 13/1/2 14/1/2 27/1/2
f 26/2/2 13/2/2 27/2/2
f 14/4/2 15/4/2 28/4/2
f 27/1/2 14/1/2 28/1/2
f 15/1/2 16/1/2 29/1/2
f 28/4/2 15/4/2 29/4/2
f 16/2/2 17/2/2 30/2/2
f 29/1/2 16/1/2 30/1/2
f 17/3/2 18/3/2 31/3/2
f 30/2/2 17/2/2 31/2/2
f 18/2/2 19/2/2 32/2/2
f 31/3/2 18/3/2 32/3/2
f 32/2/2 19/2/2 33/2/2
f 36/9/3 35/9/3 34/9/3
f 37/9/3 35/9/3 36/9/3
f 38/9/4 39/9/4 40/9/4
f 40/9/4 39/9/4 41/9/4
f 38/9/4 40/9/4 42/9/4
f 40/10/4 41/10/4 42/10/4
f 42/10/4 41/10/4 43/10/4
f 38/9/4 42/9/4 44/9/4
f 42/8/4 43/8/4 44/8/4
f 44/8/4 43/8/4 45/8/4
f 38/9/4 44/9/4 46/9/4
f 44/2/4 45/2/4 47/2/4
f 46/9/4 44/9/4 47/9/4
f 47/2/4 45/2/4 48/2/4
f 51/9/5 50/9/5 49/9/5
f 52/9/5 50/9/5 51/9/5
f 53/9/6 54/9/6 55/9/6
f 55/9/6 54/9/6 56/9/6
f 53/9/6 55/9/6 57/9/6
f 55/10/6 56/10/6 58/10/6
f 57/9/6 55/9/6 58/9/6
f 58/10/6 56/10/6 59/10/6
f 59/10/6 56/10/6 60/10/6
f 60/10/6 56/10/6 61/10/6
f 53/9/6 57/9/6 62/9/6
f 57/10/6 58/10/6 63/10/6
f 62/9/6 57/9/6 63/9/6
f 63/10/6 58/10/6 64/10/6
f 58/6/6 59/6/6 65/6/6
f 64/10/6 58/10/6 65/10/6
f 59/7/6 60/7/6 66/7/6
f 65/6/6 59/6/6 66/6/6
f 60/8/6 61/8/6 67/8/6
f 66/7/6 60/7/6 67/7/6
f 67/8/6 61/8/6 68/8/6
f 68/8/6 61/8/6 69/8/6
f 53/9/6 62/9/6 70/9/6
f 62/10/6 63/10/6 71/10/6
f 70/9/6 62/9/6 71/9/6
f 71/10/6 63/10/6 72/10/6
f 63/7/6 64/7/6 73/7/6
f 72/10/6 63/10/6 73/10/6
f 73/7/6 64/7/6 74/7/6
f 64/6/6 65/6/6 75/6/6
f 74/7/6 64/7/6 75/7/6
f 65/5/6 66/5/6 76/5/6
f 75/6/6 65/6/6 76/6/6
f 66/2/6 67/2/6 77/2/6
f 76/5/6 66/5/6 77/5/6
f 67/2/6 68/2/6 77/2/6
f 77/2/6 68/2/6 78/2/6
f 68/1/6 69/1/6 79/1/6
f 78/2/6 68/2/6 79/2/6
f 79/1/6 69/1/6 80/1/6
f 53/9/6 70/9/6 81/9/6
f 70/10/6 71/10/6 82/10/6
f 81/9/6 70/9/6 82/9/6
f 71/7/6 72/7/6 83/7/6
f 82/10/6 71/10/6 83/10/6
f 72/8/6 73/8/6 84/8/6
f 83/7/6 72/7/6 84/7/6
f 73/5/6 74/5/6 85/5/6
f 84/8/6 73/8/6 85/8/6
f 74/2/6 75/2/6 86/2/6
f 85/5/6 74/5/6 86/5/6
f 75/2/6 76/2/6 86/2/6
f 53/9/6 81/9/6 87/9/6
f 81/10/6 82/10/6 88/10/6
f 87/9/6 81/9/6 88/9/6
f 82/6/6 83/6/6 89/6/6
f 88/10/6 82/10/6 89/10/6
f 83/5/6 84/5/6 90/5/6
f 89/6/6 83/6/6 90/6/6
f 84/2/6 85/2/6 91/2/6
f 90/5/6 84/5/6 91/5/6
f 85/2/6 86/2/6 91/2/6
f 91/2/6 86/2/6 92/2/6
f 86/2/6 76/2/6 93/2/6
f 92/2/6 86/2/6 93/2/6
f 76/3/6 77/3/6 94/3/6
f 93/2/6 76/2/6 94/2/6
f 77/4/6 78/4/6 95/4/6
f 94/3/6 77/3/6 95/3/6
f 79/2/6 80/2/6 96/2/6
f 95/4/6 78/4/6 96/4/6
f 78/2/6 79/2/6 96/2/6
f 96/2/6 80/2/6 97/2/6
f 53/9/6 87/9/6 98/9/6
f 87/10/6 88/10/6 99/10/6
f 98/9/6 87/9/6 99/9/6
f 88/6/6 89/6/6 100/6/6
f 99/10/6 88/10/6 100/10/6
f 89/5/6 90/5/6 101/5/6
f 100/6/6 89/6/6 101/6/6
f 91/1/6 92/1/6 102/1/6
f 101/5/6 90/5/6 102/5/6
f 90/1/6 91/1/6 102/1/6
f 92/2/6 93/2/6 103/2/6
f 102/1/6 92/1/6 103/1/6
f 103/2/6 93/2/6 104/2/6
f 93/4/6 94/4/6 105/4/6
f 104/2/6 93/2/6 105/2/6
f 96/1/6 97/1/6 106/1/6
f 106/1/6 97/1/6 107/1/6
f 53/9/6 98/9/6 108/9/6
f 98/10/6 99/10/6 109/10/6
f 108/9/6 98/9/6 109/9/6
f 99/8/6 100/8/6 110/8/6
f 109/10/6 99/10/6 110/10/6
f 100/5/6 101/5/6 111/5/6
f 110/8/6 100/8/6 111/8/6
f 101/3/6 102/3/6 112/3/6
f 111/5/6 101/5/6 112/5/6
f 102/2/6 103/2/6 113/2/6
f 112/3/6 102/3/6 113/3/6
f 103/1/6 104/1/6 114/1/6
f 113/2/6 103/2/6 114/2/6
f 104/4/6 105/4/6 115/4/6
f 114/1/6 104/1/6 115/1/6
f 105/4/6 94/4/6 116/4/6
f 115/4/6 105/4/6 116/4/6
f 94/2/6 95/2/6 117/2/6
f 116/4/6 94/4/6 117/4/6
f 95/4/6 96/4/6 118/4/6
f 96/1/6 106/1/6 118/1/6
f 106/2/6 107/2/6 119/2/6
f 118/1/6 106/1/6 119/1/6
f 108/10/6 109/10/6 120/10/6
f 109/7/6 110/7/6 120/7/6
f 110/5/6 111/5/6 121/5/6
f 120/7/6 110/7/6 121/7/6
f 111/3/6 112/3/6 122/3/6
f 121/5/6 111/5/6 122/5/6
f 115/2/6 116/2/6 123/2/6
f 112/1/6 113/1/6 123/1/6
f 114/2/6 115/2/6 123/2/6
f 113/2/6 114/2/6 123/2/6
f 123/2/6 116/2/6 124/2/6
f 124/2/6 116/2/6 125/2/6
f 116/3/6 117/3/6 126/3/6
f 125/2/6 116/2/6 126/2/6
f 117/2/6 95/2/6 127/2/6
f 126/3/6 117/3/6 127/3/6
f 95/4/6 118/4/6 128/4/6
f 127/2/6 95/2/6 128/2/6
f 118/2/6 119/2/6 129/2/6
f 128/4/6 118/4/6 129/4/6
f 119/2/6 107/2/6 130/2/6
f 129/2/6 119/2/6 130/2/6
f 130/2/6 107/2/6 131/2/6
f 53/9/6 108/9/6 132/9/6
f 108/10/6 120/10/6 133/10/6
f 132/9/6 108/9/6 133/9/6
f 120/6/6 121/6/6 134/6/6
f 133/10/6 120/10/6 134/10/6
f 121/3/6 122/3/6 135/3/6
f 134/6/6 121/6/6 135/6/6
f 122/3/6 112/3/6 136/3/6
f 135/3/6 122/3/6 136/3/6
f 112/1/6 123/1/6 137/1/6
f 136/3/6 112/3/6 137/3/6
f 123/1/6 124/1/6 137/1/6
f 124/3/6 125/3/6 138/3/6
f 137/1/6 124/1/6 138/1/6
f 128/2/6 129/2/6 139/2/6
f 138/3/6 125/3/6 139/3/6
f 127/2/6 128/2/6 139/2/6
f 129/2/6 130/2/6 139/2/6
f 126/2/6 127/2/6 139/2/6
f 125/2/6 126/2/6 139/2/6
f 139/2/6 130/2/6 140/2/6
f 140/2/6 130/2/6 141/2/6
f 141/2/6 130/2/6 142/2/6
f 133/7/6 134/7/6 143/7/6
f 132/10/6 133/10/6 143/10/6
f 134/5/6 135/5/6 144/5/6
f 143/7/6 134/7/6 144/7/6
f 135/2/6 136/2/6 145/2/6
f 144/5/6 135/5/6 145/5/6
f 136/3/6 137/3/6 146/3/6
f 145/2/6 136/2/6 146/2/6
f 137/2/6 138/2/6 147/2/6
f 146/3/6 137/3/6 147/3/6
f 147/2/6 138/2/6 148/2/6
f 138/3/6 139/3/6 149/3/6
f 148/2/6 138/2/6 149/2/6
f 139/3/6 140/3/6 149/3/6
f 149/3/6 140/3/6 150/3/6
f 140/4/6 141/4/6 151/4/6
f 150/3/6 140/3/6 151/3/6
f 141/3/6 142/3/6 152/3/6
f 151/4/6 141/4/6 152/4/6
f 142/2/6 130/2/6 153/2/6
f 152/3/6 142/3/6 153/3/6
f 153/2/6 130/2/6 154/2/6
f 154/2/6 130/2/6 155/2/6
f 130/1/6 131/1/6 156/1/6
f 155/2/6 130/2/6 156/2/6
f 132/10/6 143/10/6 157/10/6
f 143/8/6 144/8/6 157/8/6
f 144/3/6 145/3/6 158/3/6
f 157/8/6 144/8/6 158/8/6
f 145/1/6 146/1/6 159/1/6
f 158/3/6 145/3/6 159/3/6
f 146/3/6 147/3/6 160/3/6
f 159/1/6 146/1/6 160/1/6
f 147/4/6 148/4/6 161/4/6
f 160/3/6 147/3/6 161/3/6
f 148/3/6 149/3/6 162/3/6
f 161/4/6 148/4/6 162/4/6
f 149/1/6 150/1/6 163/1/6
f 162/3/6 149/3/6 163/3/6
f 150/3/6 151/3/6 164/3/6
f 163/1/6 150/1/6 164/1/6
f 151/2/6 152/2/6 165/2/6
f 164/3/6 151/3/6 165/3/6
f 152/3/6 153/3/6 166/3/6
f 165/2/6 152/2/6 166/2/6
f 153/3/6 154/3/6 166/3/6
f 154/2/6 155/2/6 167/2/6
f 166/3/6 154/3/6 167/3/6
f 155/4/6 156/4/6 168/4/6
f 167/2/6 155/2/6 168/2/6
f 156/1/6 131/1/6 169/1/6
f 168/4/6 156/4/6 169/4/6
f 169/1/6 131/1/6 170/1/6
f 157/7/6 158/7/6 171/7/6
f 132/10/6 157/10/6 171/10/6
f 159/2/6 160/2/6 172/2/6
f 171/7/6 158/7/6 172/7/6
f 158/2/6 159/2/6 172/2/6
f 172/2/6 160/2/6 173/2/6
f 161/3/6 162/3/6 174/3/6
f 173/2/6 160/2/6 174/2/6
f 160/3/6 161/3/6 174/3/6
f 162/2/6 163/2/6 175/2/6
f 174/3/6 162/3/6 175/3/6
f 163/1/6 164/1/6 176/1/6
f 175/2/6 163/2/6 176/2/6
f 165/4/6 166/4/6 177/4/6
f 176/1/6 164/1/6 177/1/6
f 164/4/6 165/4/6 177/4/6
f 177/4/6 166/4/6 178/4/6
f 167/3/6 168/3/6 179/3/6
f 178/4/6 166/4/6 179/4/6
f 166/3/6 167/3/6 179/3/6
f 179/3/6 168/3/6 180/3/6
f 169/4/6 170/4/6 181/4/6
f 180/3/6 168/3/6 181/3/6
f 168/4/6 169/4/6 181/4/6
f 181/4/6 170/4/6 182/4/6
f 182/4/6 170/4/6 183/4/6
f 53/9/6 132/9/6 184/9/6
f 132/10/6 171/10/6 185/10/6
f 184/9/6 132/9/6 185/9/6
f 171/6/6 172/6/6 186/6/6
f 185/10/6 171/10/6 186/10/6
f 172/3/6 173/3/6 187/3/6
f 186/6/6 172/6/6 187/6/6
f 174/2/6 175/2/6 188/2/6
f 187/3/6 173/3/6 188/3/6
f 175/2/6 176/2/6 188/2/6
f 176/2/6 177/2/6 188/2/6
f 173/2/6 174/2/6 188/2/6
f 188/2/6 177/2/6 189/2/6
f 189/2/6 177/2/6 190/2/6
f 177/4/6 178/4/6 191/4/6
f 190/2/6 177/2/6 191/2/6
f 178/3/6 179/3/6 192/3/6
f 191/4/6 178/4/6 192/4/6
f 179/4/6 180/4/6 193/4/6
f 192/3/6 179/3/6 193/3/6
f 193/4/6 180/4/6 194/4/6
f 180/1/6 181/1/6 195/1/6
f 194/4/6 180/4/6 195/4/6
f 181/4/6 182/4/6 196/4/6
f 195/1/6 181/1/6 196/1/6
f 196/4/6 182/4/6 197/4/6
f 182/1/6 183/1/6 198/1/6
f 197/4/6 182/4/6 198/4/6
f 198/1/6 183/1/6 199/1/6
f 185/8/6 186/8/6 200/8/6
f 184/10/6 185/10/6 200/10/6
f 186/5/6 187/5/6 201/5/6
f 200/8/6 186/8/6 201/8/6
f 187/2/6 188/2/6 202/2/6
f 201/5/6 187/5/6 202/5/6
f 188/3/6 189/3/6 203/3/6
f 202/2/6 188/2/6 203/2/6
f 203/3/6 189/3/6 204/3/6
f 189/2/6 190/2/6 205/2/6
f 191/1/6 192/1/6 205/1/6
f 190/1/6 191/1/6 205/1/6
f 192/1/6 193/1/6 205/1/6
f 193/3/6 194/3/6 206/3/6
f 205/1/6 193/1/6 206/1/6
f 196/4/6 197/4/6 207/4/6
f 206/3/6 194/3/6 207/3/6
f 194/4/6 195/4/6 207/4/6
f 195/4/6 196/4/6 207/4/6
f 197/3/6 198/3/6 208/3/6
f 198/2/6 199/2/6 208/2/6
f 208/2/6 199/2/6 209/2/6
f 184/10/6 200/10/6 210/10/6
f 200/7/6 201/7/6 210/7/6
f 201/3/6 202/3/6 211/3/6
f 210/7/6 201/7/6 211/7/6
f 202/2/6 203/2/6 212/2/6
f 211/3/6 202/3/6 212/3/6
f 203/4/6 204/4/6 213/4/6
f 212/2/6 203/2/6 213/2/6
f 204/3/6 189/3/6 214/3/6
f 213/4/6 204/4/6 214/4/6
f 205/2/6 206/2/6 215/2/6
f 214/3/6 189/3/6 215/3/6
f 189/2/6 205/2/6 215/2/6
f 206/2/6 207/2/6 215/2/6
f 207/4/6 197/4/6 216/4/6
f 216/4/6 197/4/6 217/4/6
f 197/3/6 208/3/6 218/3/6
f 217/4/6 197/4/6 218/4/6
f 208/3/6 209/3/6 218/3/6
f 218/3/6 209/3/6 219/3/6
f 212/2/6 213/2/6 220/2/6
f 213/2/6 214/2/6 220/2/6
f 215/2/6 207/2/6 220/2/6
f 211/2/6 212/2/6 220/2/6
f 214/2/6 215/2/6 220/2/6
f 207/4/6 216/4/6 220/4/6
f 216/2/6 217/2/6 221/2/6
f 220/4/6 216/4/6 221/4/6
f 217/4/6 218/4/6 222/4/6
f 221/2/6 217/2/6 222/2/6
f 218/2/6 219/2/6 223/2/6
f 222/4/6 218/4/6 223/4/6
f 53/9/6 184/9/6 224/9/6
f 184/10/6 210/10/6 225/10/6
f 224/9/6 184/9/6 225/9/6
f 210/8/6 211/8/6 226/8/6
f 225/10/6 210/10/6 226/10/6
f 221/2/6 222/2/6 227/2/6
f 226/8/6 211/8/6 227/8/6
f 220/2/6 221/2/6 227/2/6
f 222/2/6 223/2/6 227/2/6
f 211/2/6 220/2/6 227/2/6
f 223/2/6 219/2/6 228/2/6
f 227/2/6 223/2/6 228/2/6
