# MagicaVoxel @ Ephtracy

# group
o 

# material
mtllib truck-trailer-v3-blue.mtl
usemtl palette

# normals
vn 1 0 0
vn -1 0 0
vn 0 0 -1
vn 0 0 1
vn 0 -1 0
vn 0 1 0

# texcoords
vt 0.818359 0.5
vt 0.908203 0.5
vt 0.958984 0.5

# verts
v 1.3 0.1 -0.3
v 1.3 0.1 0.3
v 1.3 0.2 -0.3
v 1.3 0.2 -0.1
v 1.3 0.2 0.1
v 1.3 0.2 0.3
v 1.3 0.3 -0.3
v 1.3 0.3 -0.1
v 1.3 0.3 0.1
v 1.3 0.3 0.3
v 1.3 0.5 -0.3
v 1.3 0.5 0.3
v 0.9 0.1 -0.3
v 0.9 0.1 -0.2
v 0.9 0.1 0.2
v 0.9 0.1 0.3
v 0.9 0.2 -0.3
v 0.9 0.2 -0.2
v 0.9 0.2 0.2
v 0.9 0.2 0.3
v -0.8 0.1 -0.3
v -0.8 0.1 -0.2
v -0.8 0.1 0.2
v -0.8 0.1 0.3
v -0.8 0.2 -0.3
v -0.8 0.2 -0.2
v -0.8 0.2 0.2
v -0.8 0.2 0.3
v -0.9 0.2 -0.2
v -0.9 0.2 0.2
v -0.9 0.5 -0.2
v -0.9 0.5 0.2
v 1.2 0.2 -0.2
v 1.2 0.2 -0.1
v 1.2 0.2 0.1
v 1.2 0.2 0.2
v 1.2 0.3 -0.2
v 1.2 0.3 -0.1
v 1.2 0.3 0.1
v 1.2 0.3 0.2
v 1.2 0.5 -0.2
v 1.2 0.5 0.2
v 1.1 0.1 -0.3
v 1.1 0.1 -0.2
v 1.1 0.1 0.2
v 1.1 0.1 0.3
v 1.1 0.2 -0.3
v 1.1 0.2 -0.2
v 1.1 0.2 0.2
v 1.1 0.2 0.3
v -0.6 0.1 -0.3
v -0.6 0.1 -0.2
v -0.6 0.1 0.2
v -0.6 0.1 0.3
v -0.6 0.2 -0.3
v -0.6 0.2 -0.2
v -0.6 0.2 0.2
v -0.6 0.2 0.3
v -1 0.1 -0.3
v -1 0.1 -0.1
v -1 0.1 0.1
v -1 0.1 0.3
v -1 0.2 -0.1
v -1 0.2 0.1
v -1 0.5 -0.3
v -1 0.5 0.3
v -1.3 0.1 -0.1
v -1.3 0.1 0.1
v -1.3 0.2 -0.1
v -1.3 0.2 0.1
v 1.3 0.1 -0.3
v 1.3 0.2 -0.3
v 1.3 0.3 -0.3
v 1.3 0.5 -0.3
v 1.2 0.2 -0.3
v 1.2 0.3 -0.3
v 1.1 0.1 -0.3
v 1.1 0.2 -0.3
v 0.9 0.1 -0.3
v 0.9 0.2 -0.3
v -0.6 0.1 -0.3
v -0.6 0.2 -0.3
v -0.8 0.1 -0.3
v -0.8 0.2 -0.3
v -1 0.1 -0.3
v -1 0.5 -0.3
v 1.1 0.1 -0.2
v 1.1 0.2 -0.2
v 0.9 0.1 -0.2
v 0.9 0.2 -0.2
v -0.6 0.1 -0.2
v -0.6 0.2 -0.2
v -0.8 0.1 -0.2
v -0.8 0.2 -0.2
v -1 0.1 -0.1
v -1 0.2 -0.1
v -1.3 0.1 -0.1
v -1.3 0.2 -0.1
v 1.2 0.2 0.2
v 1.2 0.3 0.2
v 1.2 0.5 0.2
v -0.9 0.2 0.2
v -0.9 0.5 0.2
v 1.2 0.2 -0.2
v 1.2 0.3 -0.2
v 1.2 0.5 -0.2
v -0.9 0.2 -0.2
v -0.9 0.5 -0.2
v -1 0.1 0.1
v -1 0.2 0.1
v -1.3 0.1 0.1
v -1.3 0.2 0.1
v 1.1 0.1 0.2
v 1.1 0.2 0.2
v 0.9 0.1 0.2
v 0.9 0.2 0.2
v -0.6 0.1 0.2
v -0.6 0.2 0.2
v -0.8 0.1 0.2
v -0.8 0.2 0.2
v 1.3 0.1 0.3
v 1.3 0.2 0.3
v 1.3 0.3 0.3
v 1.3 0.5 0.3
v 1.2 0.2 0.3
v 1.2 0.3 0.3
v 1.1 0.1 0.3
v 1.1 0.2 0.3
v 0.9 0.1 0.3
v 0.9 0.2 0.3
v -0.6 0.1 0.3
v -0.6 0.2 0.3
v -0.8 0.1 0.3
v -0.8 0.2 0.3
v -1 0.1 0.3
v -1 0.5 0.3
v 1.3 0.1 -0.3
v 1.1 0.1 -0.3
v 0.9 0.1 -0.3
v -0.6 0.1 -0.3
v -0.8 0.1 -0.3
v -1 0.1 -0.3
v 1.1 0.1 -0.2
v 0.9 0.1 -0.2
v -0.6 0.1 -0.2
v -0.8 0.1 -0.2
v -1 0.1 -0.1
v -1.3 0.1 -0.1
v -1 0.1 0.1
v -1.3 0.1 0.1
v 1.1 0.1 0.2
v 0.9 0.1 0.2
v -0.6 0.1 0.2
v -0.8 0.1 0.2
v 1.3 0.1 0.3
v 1.1 0.1 0.3
v 0.9 0.1 0.3
v -0.6 0.1 0.3
v -0.8 0.1 0.3
v -1 0.1 0.3
v 1.1 0.2 -0.3
v 0.9 0.2 -0.3
v -0.6 0.2 -0.3
v -0.8 0.2 -0.3
v 1.1 0.2 -0.2
v 0.9 0.2 -0.2
v -0.6 0.2 -0.2
v -0.8 0.2 -0.2
v 1.1 0.2 0.2
v 0.9 0.2 0.2
v -0.6 0.2 0.2
v -0.8 0.2 0.2
v 1.1 0.2 0.3
v 0.9 0.2 0.3
v -0.6 0.2 0.3
v -0.8 0.2 0.3
v 1.2 0.2 -0.2
v -0.9 0.2 -0.2
v 1.2 0.2 -0.1
v -1 0.2 -0.1
v -1.3 0.2 -0.1
v 1.2 0.2 0.1
v -1 0.2 0.1
v -1.3 0.2 0.1
v 1.2 0.2 0.2
v -0.9 0.2 0.2
v 1.3 0.5 -0.3
v -1 0.5 -0.3
v 1.2 0.5 -0.2
v -0.9 0.5 -0.2
v 1.2 0.5 0.2
v -0.9 0.5 0.2
v 1.3 0.5 0.3
v -1 0.5 0.3

# faces
f 3/3/1 2/3/1 1/3/1
f 4/3/1 2/3/1 3/3/1
f 5/3/1 2/3/1 4/3/1
f 6/3/1 2/3/1 5/3/1
f 7/2/1 4/2/1 3/2/1
f 8/3/1 5/3/1 4/3/1
f 8/2/1 4/2/1 7/2/1
f 9/2/1 6/2/1 5/2/1
f 9/3/1 5/3/1 8/3/1
f 10/2/1 6/2/1 9/2/1
f 11/3/1 8/3/1 7/3/1
f 11/3/1 9/3/1 8/3/1
f 11/3/1 10/3/1 9/3/1
f 12/3/1 10/3/1 11/3/1
f 17/3/1 14/3/1 13/3/1
f 18/3/1 14/3/1 17/3/1
f 19/3/1 16/3/1 15/3/1
f 20/3/1 16/3/1 19/3/1
f 25/3/1 22/3/1 21/3/1
f 26/3/1 22/3/1 25/3/1
f 27/3/1 24/3/1 23/3/1
f 28/3/1 24/3/1 27/3/1
f 31/3/1 30/3/1 29/3/1
f 32/3/1 30/3/1 31/3/1
f 33/2/2 34/2/2 37/2/2
f 34/3/2 35/3/2 38/3/2
f 37/2/2 34/2/2 38/2/2
f 35/2/2 36/2/2 39/2/2
f 38/3/2 35/3/2 39/3/2
f 39/2/2 36/2/2 40/2/2
f 37/3/2 38/3/2 41/3/2
f 38/3/2 39/3/2 41/3/2
f 39/3/2 40/3/2 41/3/2
f 41/3/2 40/3/2 42/3/2
f 43/3/2 44/3/2 47/3/2
f 47/3/2 44/3/2 48/3/2
f 45/3/2 46/3/2 49/3/2
f 49/3/2 46/3/2 50/3/2
f 51/3/2 52/3/2 55/3/2
f 55/3/2 52/3/2 56/3/2
f 53/3/2 54/3/2 57/3/2
f 57/3/2 54/3/2 58/3/2
f 59/3/2 60/3/2 63/3/2
f 61/3/2 62/3/2 64/3/2
f 59/3/2 63/3/2 65/3/2
f 63/3/2 64/3/2 65/3/2
f 64/3/2 62/3/2 66/3/2
f 65/3/2 64/3/2 66/3/2
f 67/1/2 68/1/2 69/1/2
f 69/1/2 68/1/2 70/1/2
f 75/3/3 72/3/3 71/3/3
f 75/2/3 73/2/3 72/2/3
f 76/3/3 74/3/3 73/3/3
f 76/2/3 73/2/3 75/2/3
f 77/3/3 75/3/3 71/3/3
f 77/3/3 76/3/3 75/3/3
f 78/3/3 76/3/3 77/3/3
f 80/3/3 76/3/3 78/3/3
f 81/3/3 80/3/3 79/3/3
f 82/3/3 76/3/3 80/3/3
f 82/3/3 80/3/3 81/3/3
f 84/3/3 76/3/3 82/3/3
f 85/3/3 84/3/3 83/3/3
f 86/3/3 74/3/3 76/3/3
f 86/3/3 84/3/3 85/3/3
f 86/3/3 76/3/3 84/3/3
f 89/3/3 88/3/3 87/3/3
f 90/3/3 88/3/3 89/3/3
f 93/3/3 92/3/3 91/3/3
f 94/3/3 92/3/3 93/3/3
f 97/1/3 96/1/3 95/1/3
f 98/1/3 96/1/3 97/1/3
f 102/3/3 100/3/3 99/3/3
f 102/3/3 101/3/3 100/3/3
f 103/3/3 101/3/3 102/3/3
f 104/3/4 105/3/4 107/3/4
f 105/3/4 106/3/4 107/3/4
f 107/3/4 106/3/4 108/3/4
f 109/1/4 110/1/4 111/1/4
f 111/1/4 110/1/4 112/1/4
f 113/3/4 114/3/4 115/3/4
f 115/3/4 114/3/4 116/3/4
f 117/3/4 118/3/4 119/3/4
f 119/3/4 118/3/4 120/3/4
f 121/3/4 122/3/4 125/3/4
f 122/2/4 123/2/4 125/2/4
f 123/3/4 124/3/4 126/3/4
f 125/2/4 123/2/4 126/2/4
f 121/3/4 125/3/4 127/3/4
f 125/3/4 126/3/4 127/3/4
f 127/3/4 126/3/4 128/3/4
f 128/3/4 126/3/4 130/3/4
f 129/3/4 130/3/4 131/3/4
f 130/3/4 126/3/4 132/3/4
f 131/3/4 130/3/4 132/3/4
f 132/3/4 126/3/4 134/3/4
f 133/3/4 134/3/4 135/3/4
f 126/3/4 124/3/4 136/3/4
f 135/3/4 134/3/4 136/3/4
f 134/3/4 126/3/4 136/3/4
f 143/3/5 138/3/5 137/3/5
f 144/3/5 140/3/5 139/3/5
f 145/3/5 140/3/5 144/3/5
f 146/3/5 142/3/5 141/3/5
f 147/3/5 145/3/5 144/3/5
f 147/3/5 146/3/5 145/3/5
f 147/3/5 142/3/5 146/3/5
f 147/3/5 144/3/5 143/3/5
f 149/3/5 147/3/5 143/3/5
f 149/1/5 148/1/5 147/1/5
f 150/1/5 148/1/5 149/1/5
f 151/3/5 143/3/5 137/3/5
f 151/3/5 149/3/5 143/3/5
f 152/3/5 149/3/5 151/3/5
f 153/3/5 149/3/5 152/3/5
f 154/3/5 149/3/5 153/3/5
f 155/3/5 151/3/5 137/3/5
f 156/3/5 151/3/5 155/3/5
f 157/3/5 153/3/5 152/3/5
f 158/3/5 153/3/5 157/3/5
f 159/3/5 149/3/5 154/3/5
f 160/3/5 149/3/5 159/3/5
f 165/3/5 162/3/5 161/3/5
f 166/3/5 162/3/5 165/3/5
f 167/3/5 164/3/5 163/3/5
f 168/3/5 164/3/5 167/3/5
f 173/3/5 170/3/5 169/3/5
f 174/3/5 170/3/5 173/3/5
f 175/3/5 172/3/5 171/3/5
f 176/3/5 172/3/5 175/3/5
f 177/3/6 178/3/6 179/3/6
f 179/3/6 178/3/6 182/3/6
f 180/1/6 181/1/6 183/1/6
f 183/1/6 181/1/6 184/1/6
f 182/3/6 178/3/6 185/3/6
f 185/3/6 178/3/6 186/3/6
f 187/3/6 188/3/6 189/3/6
f 189/3/6 188/3/6 190/3/6
f 187/3/6 189/3/6 191/3/6
f 190/3/6 188/3/6 192/3/6
f 187/3/6 191/3/6 193/3/6
f 191/3/6 192/3/6 193/3/6
f 192/3/6 188/3/6 194/3/6
f 193/3/6 192/3/6 194/3/6
