# MagicaVoxel @ Ephtracy

# group
o 

# material
mtllib truck-trailer-v2-red.mtl
usemtl palette

# normals
vn 1 0 0
vn -1 0 0
vn 0 0 -1
vn 0 0 1
vn 0 -1 0
vn 0 1 0

# texcoords
vt 0.818359 0.5
vt 0.908203 0.5
vt 0.927734 0.5

# verts
v 1.3 0.1 -0.3
v 1.3 0.1 0.3
v 1.3 0.2 -0.3
v 1.3 0.2 -0.1
v 1.3 0.2 0.1
v 1.3 0.2 0.3
v 1.3 0.3 -0.3
v 1.3 0.3 -0.1
v 1.3 0.3 0.1
v 1.3 0.3 0.3
v 1.2 0.3 -0.2
v 1.2 0.3 -0.1
v 1.2 0.3 0.1
v 1.2 0.3 0.2
v 1.2 0.4 -0.2
v 1.2 0.4 0.2
v 0.9 0.1 -0.3
v 0.9 0.1 -0.2
v 0.9 0.1 0.2
v 0.9 0.1 0.3
v 0.9 0.2 -0.3
v 0.9 0.2 -0.2
v 0.9 0.2 0.2
v 0.9 0.2 0.3
v -0.8 0.1 -0.3
v -0.8 0.1 -0.2
v -0.8 0.1 0.2
v -0.8 0.1 0.3
v -0.8 0.2 -0.3
v -0.8 0.2 -0.2
v -0.8 0.2 0.2
v -0.8 0.2 0.3
v 1.1 0.1 -0.3
v 1.1 0.1 -0.2
v 1.1 0.1 0.2
v 1.1 0.1 0.3
v 1.1 0.2 -0.3
v 1.1 0.2 -0.2
v 1.1 0.2 0.2
v 1.1 0.2 0.3
v -0.6 0.1 -0.3
v -0.6 0.1 -0.2
v -0.6 0.1 0.2
v -0.6 0.1 0.3
v -0.6 0.2 -0.3
v -0.6 0.2 -0.2
v -0.6 0.2 0.2
v -0.6 0.2 0.3
v -0.9 0.3 -0.2
v -0.9 0.3 0.2
v -0.9 0.4 -0.2
v -0.9 0.4 0.2
v -1 0.1 -0.3
v -1 0.1 -0.1
v -1 0.1 0.1
v -1 0.1 0.3
v -1 0.2 -0.1
v -1 0.2 0.1
v -1 0.3 -0.3
v -1 0.3 0.3
v -1.3 0.1 -0.1
v -1.3 0.1 0.1
v -1.3 0.2 -0.1
v -1.3 0.2 0.1
v 1.3 0.1 -0.3
v 1.3 0.2 -0.3
v 1.3 0.3 -0.3
v 1.2 0.2 -0.3
v 1.2 0.3 -0.3
v 1.1 0.1 -0.3
v 1.1 0.2 -0.3
v 0.9 0.1 -0.3
v 0.9 0.2 -0.3
v -0.6 0.1 -0.3
v -0.6 0.2 -0.3
v -0.8 0.1 -0.3
v -0.8 0.2 -0.3
v -1 0.1 -0.3
v -1 0.3 -0.3
v 1.2 0.3 -0.2
v 1.2 0.4 -0.2
v 1.1 0.1 -0.2
v 1.1 0.2 -0.2
v 0.9 0.1 -0.2
v 0.9 0.2 -0.2
v -0.6 0.1 -0.2
v -0.6 0.2 -0.2
v -0.8 0.1 -0.2
v -0.8 0.2 -0.2
v -0.9 0.3 -0.2
v -0.9 0.4 -0.2
v -1 0.1 -0.1
v -1 0.2 -0.1
v -1.3 0.1 -0.1
v -1.3 0.2 -0.1
v -1 0.1 0.1
v -1 0.2 0.1
v -1.3 0.1 0.1
v -1.3 0.2 0.1
v 1.2 0.3 0.2
v 1.2 0.4 0.2
v 1.1 0.1 0.2
v 1.1 0.2 0.2
v 0.9 0.1 0.2
v 0.9 0.2 0.2
v -0.6 0.1 0.2
v -0.6 0.2 0.2
v -0.8 0.1 0.2
v -0.8 0.2 0.2
v -0.9 0.3 0.2
v -0.9 0.4 0.2
v 1.3 0.1 0.3
v 1.3 0.2 0.3
v 1.3 0.3 0.3
v 1.2 0.2 0.3
v 1.2 0.3 0.3
v 1.1 0.1 0.3
v 1.1 0.2 0.3
v 0.9 0.1 0.3
v 0.9 0.2 0.3
v -0.6 0.1 0.3
v -0.6 0.2 0.3
v -0.8 0.1 0.3
v -0.8 0.2 0.3
v -1 0.1 0.3
v -1 0.3 0.3
v 1.3 0.1 -0.3
v 1.1 0.1 -0.3
v 0.9 0.1 -0.3
v -0.6 0.1 -0.3
v -0.8 0.1 -0.3
v -1 0.1 -0.3
v 1.1 0.1 -0.2
v 0.9 0.1 -0.2
v -0.6 0.1 -0.2
v -0.8 0.1 -0.2
v -1 0.1 -0.1
v -1.3 0.1 -0.1
v -1 0.1 0.1
v -1.3 0.1 0.1
v 1.1 0.1 0.2
v 0.9 0.1 0.2
v -0.6 0.1 0.2
v -0.8 0.1 0.2
v 1.3 0.1 0.3
v 1.1 0.1 0.3
v 0.9 0.1 0.3
v -0.6 0.1 0.3
v -0.8 0.1 0.3
v -1 0.1 0.3
v 1.1 0.2 -0.3
v 0.9 0.2 -0.3
v -0.6 0.2 -0.3
v -0.8 0.2 -0.3
v 1.1 0.2 -0.2
v 0.9 0.2 -0.2
v -0.6 0.2 -0.2
v -0.8 0.2 -0.2
v 1.1 0.2 0.2
v 0.9 0.2 0.2
v -0.6 0.2 0.2
v -0.8 0.2 0.2
v 1.1 0.2 0.3
v 0.9 0.2 0.3
v -0.6 0.2 0.3
v -0.8 0.2 0.3
v -1 0.2 -0.1
v -1.3 0.2 -0.1
v -1 0.2 0.1
v -1.3 0.2 0.1
v 1.3 0.3 -0.3
v 1.2 0.3 -0.3
v -1 0.3 -0.3
v 1.2 0.3 -0.2
v -0.9 0.3 -0.2
v 1.3 0.3 -0.1
v 1.2 0.3 -0.1
v 1.3 0.3 0.1
v 1.2 0.3 0.1
v 1.2 0.3 0.2
v -0.9 0.3 0.2
v 1.3 0.3 0.3
v 1.2 0.3 0.3
v -1 0.3 0.3
v 1.2 0.4 -0.2
v -0.9 0.4 -0.2
v 1.2 0.4 0.2
v -0.9 0.4 0.2

# faces
f 3/3/1 2/3/1 1/3/1
f 4/3/1 2/3/1 3/3/1
f 5/3/1 2/3/1 4/3/1
f 6/3/1 2/3/1 5/3/1
f 7/2/1 4/2/1 3/2/1
f 8/3/1 5/3/1 4/3/1
f 8/2/1 4/2/1 7/2/1
f 9/2/1 6/2/1 5/2/1
f 9/3/1 5/3/1 8/3/1
f 10/2/1 6/2/1 9/2/1
f 15/1/1 12/1/1 11/1/1
f 15/1/1 14/1/1 13/1/1
f 15/1/1 13/1/1 12/1/1
f 16/1/1 14/1/1 15/1/1
f 21/3/1 18/3/1 17/3/1
f 22/3/1 18/3/1 21/3/1
f 23/3/1 20/3/1 19/3/1
f 24/3/1 20/3/1 23/3/1
f 29/3/1 26/3/1 25/3/1
f 30/3/1 26/3/1 29/3/1
f 31/3/1 28/3/1 27/3/1
f 32/3/1 28/3/1 31/3/1
f 33/3/2 34/3/2 37/3/2
f 37/3/2 34/3/2 38/3/2
f 35/3/2 36/3/2 39/3/2
f 39/3/2 36/3/2 40/3/2
f 41/3/2 42/3/2 45/3/2
f 45/3/2 42/3/2 46/3/2
f 43/3/2 44/3/2 47/3/2
f 47/3/2 44/3/2 48/3/2
f 49/1/2 50/1/2 51/1/2
f 51/1/2 50/1/2 52/1/2
f 53/3/2 54/3/2 57/3/2
f 55/3/2 56/3/2 58/3/2
f 53/3/2 57/3/2 59/3/2
f 57/3/2 58/3/2 59/3/2
f 58/3/2 56/3/2 60/3/2
f 59/3/2 58/3/2 60/3/2
f 61/1/2 62/1/2 63/1/2
f 63/1/2 62/1/2 64/1/2
f 68/3/3 66/3/3 65/3/3
f 68/2/3 67/2/3 66/2/3
f 69/2/3 67/2/3 68/2/3
f 70/3/3 68/3/3 65/3/3
f 70/3/3 69/3/3 68/3/3
f 71/3/3 69/3/3 70/3/3
f 73/3/3 69/3/3 71/3/3
f 74/3/3 73/3/3 72/3/3
f 75/3/3 69/3/3 73/3/3
f 75/3/3 73/3/3 74/3/3
f 77/3/3 69/3/3 75/3/3
f 78/3/3 77/3/3 76/3/3
f 79/3/3 69/3/3 77/3/3
f 79/3/3 77/3/3 78/3/3
f 84/3/3 83/3/3 82/3/3
f 85/3/3 83/3/3 84/3/3
f 88/3/3 87/3/3 86/3/3
f 89/3/3 87/3/3 88/3/3
f 90/1/3 81/1/3 80/1/3
f 91/1/3 81/1/3 90/1/3
f 94/1/3 93/1/3 92/1/3
f 95/1/3 93/1/3 94/1/3
f 96/1/4 97/1/4 98/1/4
f 98/1/4 97/1/4 99/1/4
f 102/3/4 103/3/4 104/3/4
f 104/3/4 103/3/4 105/3/4
f 106/3/4 107/3/4 108/3/4
f 108/3/4 107/3/4 109/3/4
f 100/1/4 101/1/4 110/1/4
f 110/1/4 101/1/4 111/1/4
f 112/3/4 113/3/4 115/3/4
f 113/2/4 114/2/4 115/2/4
f 115/2/4 114/2/4 116/2/4
f 112/3/4 115/3/4 117/3/4
f 115/3/4 116/3/4 117/3/4
f 117/3/4 116/3/4 118/3/4
f 118/3/4 116/3/4 120/3/4
f 119/3/4 120/3/4 121/3/4
f 120/3/4 116/3/4 122/3/4
f 121/3/4 120/3/4 122/3/4
f 122/3/4 116/3/4 124/3/4
f 123/3/4 124/3/4 125/3/4
f 124/3/4 116/3/4 126/3/4
f 125/3/4 124/3/4 126/3/4
f 133/3/5 128/3/5 127/3/5
f 134/3/5 130/3/5 129/3/5
f 135/3/5 130/3/5 134/3/5
f 136/3/5 132/3/5 131/3/5
f 137/3/5 135/3/5 134/3/5
f 137/3/5 136/3/5 135/3/5
f 137/3/5 132/3/5 136/3/5
f 137/3/5 134/3/5 133/3/5
f 139/3/5 137/3/5 133/3/5
f 139/1/5 138/1/5 137/1/5
f 140/1/5 138/1/5 139/1/5
f 141/3/5 133/3/5 127/3/5
f 141/3/5 139/3/5 133/3/5
f 142/3/5 139/3/5 141/3/5
f 143/3/5 139/3/5 142/3/5
f 144/3/5 139/3/5 143/3/5
f 145/3/5 141/3/5 127/3/5
f 146/3/5 141/3/5 145/3/5
f 147/3/5 143/3/5 142/3/5
f 148/3/5 143/3/5 147/3/5
f 149/3/5 139/3/5 144/3/5
f 150/3/5 139/3/5 149/3/5
f 155/3/5 152/3/5 151/3/5
f 156/3/5 152/3/5 155/3/5
f 157/3/5 154/3/5 153/3/5
f 158/3/5 154/3/5 157/3/5
f 163/3/5 160/3/5 159/3/5
f 164/3/5 160/3/5 163/3/5
f 165/3/5 162/3/5 161/3/5
f 166/3/5 162/3/5 165/3/5
f 167/1/6 168/1/6 169/1/6
f 169/1/6 168/1/6 170/1/6
f 171/2/6 172/2/6 174/2/6
f 172/3/6 173/3/6 174/3/6
f 174/3/6 173/3/6 175/3/6
f 171/2/6 174/2/6 176/2/6
f 176/2/6 174/2/6 177/2/6
f 176/3/6 177/3/6 178/3/6
f 178/3/6 177/3/6 179/3/6
f 178/2/6 179/2/6 180/2/6
f 175/3/6 173/3/6 181/3/6
f 178/2/6 180/2/6 182/2/6
f 180/3/6 181/3/6 183/3/6
f 182/2/6 180/2/6 183/2/6
f 181/3/6 173/3/6 184/3/6
f 183/3/6 181/3/6 184/3/6
f 185/1/6 186/1/6 187/1/6
f 187/1/6 186/1/6 188/1/6
