# MagicaVoxel @ Ephtracy

# group
o 

# material
mtllib truck-trailer-v1-yellow.mtl
usemtl palette

# normals
vn 1 0 0
vn -1 0 0
vn 0 0 -1
vn 0 0 1
vn 0 -1 0
vn 0 1 0

# texcoords
vt 0.818359 0.5
vt 0.908203 0.5
vt 0.990234 0.5

# verts
v 1.3 0.1 -0.3
v 1.3 0.1 0.3
v 1.3 0.2 -0.3
v 1.3 0.2 -0.1
v 1.3 0.2 0.1
v 1.3 0.2 0.3
v 1.3 0.3 -0.3
v 1.3 0.3 -0.1
v 1.3 0.3 0.1
v 1.3 0.3 0.3
v 1.3 0.9 -0.3
v 1.3 0.9 0.3
v 0.9 0.1 -0.3
v 0.9 0.1 -0.2
v 0.9 0.1 0.2
v 0.9 0.1 0.3
v 0.9 0.2 -0.3
v 0.9 0.2 -0.2
v 0.9 0.2 0.2
v 0.9 0.2 0.3
v -0.8 0.1 -0.3
v -0.8 0.1 -0.2
v -0.8 0.1 0.2
v -0.8 0.1 0.3
v -0.8 0.2 -0.3
v -0.8 0.2 -0.2
v -0.8 0.2 0.2
v -0.8 0.2 0.3
v 1.1 0.1 -0.3
v 1.1 0.1 -0.2
v 1.1 0.1 0.2
v 1.1 0.1 0.3
v 1.1 0.2 -0.3
v 1.1 0.2 -0.2
v 1.1 0.2 0.2
v 1.1 0.2 0.3
v -0.6 0.1 -0.3
v -0.6 0.1 -0.2
v -0.6 0.1 0.2
v -0.6 0.1 0.3
v -0.6 0.2 -0.3
v -0.6 0.2 -0.2
v -0.6 0.2 0.2
v -0.6 0.2 0.3
v -1 0.1 -0.3
v -1 0.1 -0.1
v -1 0.1 0.1
v -1 0.1 0.3
v -1 0.2 -0.1
v -1 0.2 0.1
v -1 0.9 -0.3
v -1 0.9 0.3
v -1.3 0.1 -0.1
v -1.3 0.1 0.1
v -1.3 0.2 -0.1
v -1.3 0.2 0.1
v 1.3 0.1 -0.3
v 1.3 0.2 -0.3
v 1.3 0.3 -0.3
v 1.3 0.9 -0.3
v 1.2 0.2 -0.3
v 1.2 0.3 -0.3
v 1.1 0.1 -0.3
v 1.1 0.2 -0.3
v 0.9 0.1 -0.3
v 0.9 0.2 -0.3
v -0.6 0.1 -0.3
v -0.6 0.2 -0.3
v -0.8 0.1 -0.3
v -0.8 0.2 -0.3
v -1 0.1 -0.3
v -1 0.9 -0.3
v 1.1 0.1 -0.2
v 1.1 0.2 -0.2
v 0.9 0.1 -0.2
v 0.9 0.2 -0.2
v -0.6 0.1 -0.2
v -0.6 0.2 -0.2
v -0.8 0.1 -0.2
v -0.8 0.2 -0.2
v -1 0.1 -0.1
v -1 0.2 -0.1
v -1.3 0.1 -0.1
v -1.3 0.2 -0.1
v -1 0.1 0.1
v -1 0.2 0.1
v -1.3 0.1 0.1
v -1.3 0.2 0.1
v 1.1 0.1 0.2
v 1.1 0.2 0.2
v 0.9 0.1 0.2
v 0.9 0.2 0.2
v -0.6 0.1 0.2
v -0.6 0.2 0.2
v -0.8 0.1 0.2
v -0.8 0.2 0.2
v 1.3 0.1 0.3
v 1.3 0.2 0.3
v 1.3 0.3 0.3
v 1.3 0.9 0.3
v 1.2 0.2 0.3
v 1.2 0.3 0.3
v 1.1 0.1 0.3
v 1.1 0.2 0.3
v 0.9 0.1 0.3
v 0.9 0.2 0.3
v -0.6 0.1 0.3
v -0.6 0.2 0.3
v -0.8 0.1 0.3
v -0.8 0.2 0.3
v -1 0.1 0.3
v -1 0.9 0.3
v 1.3 0.1 -0.3
v 1.1 0.1 -0.3
v 0.9 0.1 -0.3
v -0.6 0.1 -0.3
v -0.8 0.1 -0.3
v -1 0.1 -0.3
v 1.1 0.1 -0.2
v 0.9 0.1 -0.2
v -0.6 0.1 -0.2
v -0.8 0.1 -0.2
v -1 0.1 -0.1
v -1.3 0.1 -0.1
v -1 0.1 0.1
v -1.3 0.1 0.1
v 1.1 0.1 0.2
v 0.9 0.1 0.2
v -0.6 0.1 0.2
v -0.8 0.1 0.2
v 1.3 0.1 0.3
v 1.1 0.1 0.3
v 0.9 0.1 0.3
v -0.6 0.1 0.3
v -0.8 0.1 0.3
v -1 0.1 0.3
v 1.1 0.2 -0.3
v 0.9 0.2 -0.3
v -0.6 0.2 -0.3
v -0.8 0.2 -0.3
v 1.1 0.2 -0.2
v 0.9 0.2 -0.2
v -0.6 0.2 -0.2
v -0.8 0.2 -0.2
v 1.1 0.2 0.2
v 0.9 0.2 0.2
v -0.6 0.2 0.2
v -0.8 0.2 0.2
v 1.1 0.2 0.3
v 0.9 0.2 0.3
v -0.6 0.2 0.3
v -0.8 0.2 0.3
v -1 0.2 -0.1
v -1.3 0.2 -0.1
v -1 0.2 0.1
v -1.3 0.2 0.1
v 1.3 0.9 -0.3
v -1 0.9 -0.3
v 1.3 0.9 0.3
v -1 0.9 0.3

# faces
f 3/3/1 2/3/1 1/3/1
f 4/3/1 2/3/1 3/3/1
f 5/3/1 2/3/1 4/3/1
f 6/3/1 2/3/1 5/3/1
f 7/2/1 4/2/1 3/2/1
f 8/3/1 5/3/1 4/3/1
f 8/2/1 4/2/1 7/2/1
f 9/2/1 6/2/1 5/2/1
f 9/3/1 5/3/1 8/3/1
f 10/2/1 6/2/1 9/2/1
f 11/3/1 8/3/1 7/3/1
f 11/3/1 9/3/1 8/3/1
f 11/3/1 10/3/1 9/3/1
f 12/3/1 10/3/1 11/3/1
f 17/3/1 14/3/1 13/3/1
f 18/3/1 14/3/1 17/3/1
f 19/3/1 16/3/1 15/3/1
f 20/3/1 16/3/1 19/3/1
f 25/3/1 22/3/1 21/3/1
f 26/3/1 22/3/1 25/3/1
f 27/3/1 24/3/1 23/3/1
f 28/3/1 24/3/1 27/3/1
f 29/3/2 30/3/2 33/3/2
f 33/3/2 30/3/2 34/3/2
f 31/3/2 32/3/2 35/3/2
f 35/3/2 32/3/2 36/3/2
f 37/3/2 38/3/2 41/3/2
f 41/3/2 38/3/2 42/3/2
f 39/3/2 40/3/2 43/3/2
f 43/3/2 40/3/2 44/3/2
f 45/3/2 46/3/2 49/3/2
f 47/3/2 48/3/2 50/3/2
f 45/3/2 49/3/2 51/3/2
f 49/3/2 50/3/2 51/3/2
f 50/3/2 48/3/2 52/3/2
f 51/3/2 50/3/2 52/3/2
f 53/1/2 54/1/2 55/1/2
f 55/1/2 54/1/2 56/1/2
f 61/3/3 58/3/3 57/3/3
f 61/2/3 59/2/3 58/2/3
f 62/3/3 60/3/3 59/3/3
f 62/2/3 59/2/3 61/2/3
f 63/3/3 61/3/3 57/3/3
f 63/3/3 62/3/3 61/3/3
f 64/3/3 62/3/3 63/3/3
f 66/3/3 62/3/3 64/3/3
f 67/3/3 66/3/3 65/3/3
f 68/3/3 62/3/3 66/3/3
f 68/3/3 66/3/3 67/3/3
f 70/3/3 62/3/3 68/3/3
f 71/3/3 70/3/3 69/3/3
f 72/3/3 60/3/3 62/3/3
f 72/3/3 70/3/3 71/3/3
f 72/3/3 62/3/3 70/3/3
f 75/3/3 74/3/3 73/3/3
f 76/3/3 74/3/3 75/3/3
f 79/3/3 78/3/3 77/3/3
f 80/3/3 78/3/3 79/3/3
f 83/1/3 82/1/3 81/1/3
f 84/1/3 82/1/3 83/1/3
f 85/1/4 86/1/4 87/1/4
f 87/1/4 86/1/4 88/1/4
f 89/3/4 90/3/4 91/3/4
f 91/3/4 90/3/4 92/3/4
f 93/3/4 94/3/4 95/3/4
f 95/3/4 94/3/4 96/3/4
f 97/3/4 98/3/4 101/3/4
f 98/2/4 99/2/4 101/2/4
f 99/3/4 100/3/4 102/3/4
f 101/2/4 99/2/4 102/2/4
f 97/3/4 101/3/4 103/3/4
f 101/3/4 102/3/4 103/3/4
f 103/3/4 102/3/4 104/3/4
f 104/3/4 102/3/4 106/3/4
f 105/3/4 106/3/4 107/3/4
f 106/3/4 102/3/4 108/3/4
f 107/3/4 106/3/4 108/3/4
f 108/3/4 102/3/4 110/3/4
f 109/3/4 110/3/4 111/3/4
f 102/3/4 100/3/4 112/3/4
f 111/3/4 110/3/4 112/3/4
f 110/3/4 102/3/4 112/3/4
f 119/3/5 114/3/5 113/3/5
f 120/3/5 116/3/5 115/3/5
f 121/3/5 116/3/5 120/3/5
f 122/3/5 118/3/5 117/3/5
f 123/3/5 121/3/5 120/3/5
f 123/3/5 122/3/5 121/3/5
f 123/3/5 118/3/5 122/3/5
f 123/3/5 120/3/5 119/3/5
f 125/3/5 123/3/5 119/3/5
f 125/1/5 124/1/5 123/1/5
f 126/1/5 124/1/5 125/1/5
f 127/3/5 119/3/5 113/3/5
f 127/3/5 125/3/5 119/3/5
f 128/3/5 125/3/5 127/3/5
f 129/3/5 125/3/5 128/3/5
f 130/3/5 125/3/5 129/3/5
f 131/3/5 127/3/5 113/3/5
f 132/3/5 127/3/5 131/3/5
f 133/3/5 129/3/5 128/3/5
f 134/3/5 129/3/5 133/3/5
f 135/3/5 125/3/5 130/3/5
f 136/3/5 125/3/5 135/3/5
f 141/3/5 138/3/5 137/3/5
f 142/3/5 138/3/5 141/3/5
f 143/3/5 140/3/5 139/3/5
f 144/3/5 140/3/5 143/3/5
f 149/3/5 146/3/5 145/3/5
f 150/3/5 146/3/5 149/3/5
f 151/3/5 148/3/5 147/3/5
f 152/3/5 148/3/5 151/3/5
f 153/1/6 154/1/6 155/1/6
f 155/1/6 154/1/6 156/1/6
f 157/3/6 158/3/6 159/3/6
f 159/3/6 158/3/6 160/3/6
