# MagicaVoxel @ Ephtracy

# group
o 

# material
mtllib track-equip-dead-end.mtl
usemtl palette

# normals
vn -1 0 0
vn 1 0 0
vn 0 0 1
vn 0 0 -1
vn 0 -1 0
vn 0 1 0

# texcoords
vt 0.935547 0.5
vt 0.986328 0.5

# verts
v -0.2 0.1 0.4
v -0.2 0.1 -0.4
v -0.2 0.3 0.4
v -0.2 0.3 -0.4
v -0.1 0 0.3
v -0.1 0 0.2
v -0.1 0 -0.2
v -0.1 0 -0.3
v -0.1 0.1 0.3
v -0.1 0.1 0.2
v -0.1 0.1 -0.2
v -0.1 0.1 -0.3
v -0.1 0.1 0.4
v -0.1 0.1 0.3
v -0.1 0.1 0.2
v -0.1 0.1 -0.2
v -0.1 0.1 -0.3
v -0.1 0.1 -0.4
v -0.1 0.3 0.4
v -0.1 0.3 0.3
v -0.1 0.3 0.2
v -0.1 0.3 -0.2
v -0.1 0.3 -0.3
v -0.1 0.3 -0.4
v 0 0.2 0.3
v 0 0.2 0.2
v 0 0.2 -0.2
v 0 0.2 -0.3
v 0 0.3 0.3
v 0 0.3 0.2
v 0 0.3 -0.2
v 0 0.3 -0.3
v 0.1 0.1 0.3
v 0.1 0.1 0.2
v 0.1 0.1 -0.2
v 0.1 0.1 -0.3
v 0.1 0.2 0.3
v 0.1 0.2 0.2
v 0.1 0.2 -0.2
v 0.1 0.2 -0.3
v 0.2 0 0.3
v 0.2 0 0.2
v 0.2 0 -0.2
v 0.2 0 -0.3
v 0.2 0.1 0.3
v 0.2 0.1 0.2
v 0.2 0.1 -0.2
v 0.2 0.1 -0.3
v -0.2 0.1 0.4
v -0.2 0.3 0.4
v -0.1 0.1 0.4
v -0.1 0.3 0.4
v -0.1 0 0.3
v -0.1 0.1 0.3
v -0.1 0.3 0.3
v 0 0.2 0.3
v 0 0.3 0.3
v 0.1 0.1 0.3
v 0.1 0.2 0.3
v 0.2 0 0.3
v 0.2 0.1 0.3
v -0.1 0 -0.2
v -0.1 0.1 -0.2
v -0.1 0.3 -0.2
v 0 0.2 -0.2
v 0 0.3 -0.2
v 0.1 0.1 -0.2
v 0.1 0.2 -0.2
v 0.2 0 -0.2
v 0.2 0.1 -0.2
v -0.1 0 0.2
v -0.1 0.1 0.2
v -0.1 0.3 0.2
v 0 0.2 0.2
v 0 0.3 0.2
v 0.1 0.1 0.2
v 0.1 0.2 0.2
v 0.2 0 0.2
v 0.2 0.1 0.2
v -0.1 0 -0.3
v -0.1 0.1 -0.3
v -0.1 0.3 -0.3
v 0 0.2 -0.3
v 0 0.3 -0.3
v 0.1 0.1 -0.3
v 0.1 0.2 -0.3
v 0.2 0 -0.3
v 0.2 0.1 -0.3
v -0.2 0.1 -0.4
v -0.2 0.3 -0.4
v -0.1 0.1 -0.4
v -0.1 0.3 -0.4
v -0.1 0 0.3
v 0.2 0 0.3
v -0.1 0 0.2
v 0.2 0 0.2
v -0.1 0 -0.2
v 0.2 0 -0.2
v -0.1 0 -0.3
v 0.2 0 -0.3
v -0.2 0.1 0.4
v -0.1 0.1 0.4
v -0.1 0.1 0.3
v -0.1 0.1 0.2
v -0.1 0.1 -0.2
v -0.1 0.1 -0.3
v -0.2 0.1 -0.4
v -0.1 0.1 -0.4
v 0.1 0.1 0.3
v 0.2 0.1 0.3
v 0.1 0.1 0.2
v 0.2 0.1 0.2
v 0.1 0.1 -0.2
v 0.2 0.1 -0.2
v 0.1 0.1 -0.3
v 0.2 0.1 -0.3
v 0 0.2 0.3
v 0.1 0.2 0.3
v 0 0.2 0.2
v 0.1 0.2 0.2
v 0 0.2 -0.2
v 0.1 0.2 -0.2
v 0 0.2 -0.3
v 0.1 0.2 -0.3
v -0.2 0.3 0.4
v -0.1 0.3 0.4
v -0.1 0.3 0.3
v 0 0.3 0.3
v -0.1 0.3 0.2
v 0 0.3 0.2
v -0.1 0.3 -0.2
v 0 0.3 -0.2
v -0.1 0.3 -0.3
v 0 0.3 -0.3
v -0.2 0.3 -0.4
v -0.1 0.3 -0.4

# faces
f 3/1/1 2/1/1 1/1/1
f 4/1/1 2/1/1 3/1/1
f 9/2/1 6/2/1 5/2/1
f 10/2/1 6/2/1 9/2/1
f 11/2/1 8/2/1 7/2/1
f 12/2/1 8/2/1 11/2/1
f 13/1/2 14/1/2 19/1/2
f 19/1/2 14/1/2 20/1/2
f 15/1/2 16/1/2 21/1/2
f 21/1/2 16/1/2 22/1/2
f 17/1/2 18/1/2 23/1/2
f 23/1/2 18/1/2 24/1/2
f 25/2/2 26/2/2 29/2/2
f 29/2/2 26/2/2 30/2/2
f 27/2/2 28/2/2 31/2/2
f 31/2/2 28/2/2 32/2/2
f 33/2/2 34/2/2 37/2/2
f 37/2/2 34/2/2 38/2/2
f 35/2/2 36/2/2 39/2/2
f 39/2/2 36/2/2 40/2/2
f 41/2/2 42/2/2 45/2/2
f 45/2/2 42/2/2 46/2/2
f 43/2/2 44/2/2 47/2/2
f 47/2/2 44/2/2 48/2/2
f 51/1/3 50/1/3 49/1/3
f 52/1/3 50/1/3 51/1/3
f 56/2/3 54/2/3 53/2/3
f 56/2/3 55/2/3 54/2/3
f 57/2/3 55/2/3 56/2/3
f 58/2/3 56/2/3 53/2/3
f 59/2/3 56/2/3 58/2/3
f 60/2/3 58/2/3 53/2/3
f 61/2/3 58/2/3 60/2/3
f 65/2/3 63/2/3 62/2/3
f 65/2/3 64/2/3 63/2/3
f 66/2/3 64/2/3 65/2/3
f 67/2/3 65/2/3 62/2/3
f 68/2/3 65/2/3 67/2/3
f 69/2/3 67/2/3 62/2/3
f 70/2/3 67/2/3 69/2/3
f 71/2/4 72/2/4 74/2/4
f 72/2/4 73/2/4 74/2/4
f 74/2/4 73/2/4 75/2/4
f 71/2/4 74/2/4 76/2/4
f 76/2/4 74/2/4 77/2/4
f 71/2/4 76/2/4 78/2/4
f 78/2/4 76/2/4 79/2/4
f 80/2/4 81/2/4 83/2/4
f 81/2/4 82/2/4 83/2/4
f 83/2/4 82/2/4 84/2/4
f 80/2/4 83/2/4 85/2/4
f 85/2/4 83/2/4 86/2/4
f 80/2/4 85/2/4 87/2/4
f 87/2/4 85/2/4 88/2/4
f 89/1/4 90/1/4 91/1/4
f 91/1/4 90/1/4 92/1/4
f 95/2/5 94/2/5 93/2/5
f 96/2/5 94/2/5 95/2/5
f 99/2/5 98/2/5 97/2/5
f 100/2/5 98/2/5 99/2/5
f 103/1/5 102/1/5 101/1/5
f 104/1/5 103/1/5 101/1/5
f 105/1/5 104/1/5 101/1/5
f 106/1/5 105/1/5 101/1/5
f 107/1/5 106/1/5 101/1/5
f 108/1/5 106/1/5 107/1/5
f 109/2/6 110/2/6 111/2/6
f 111/2/6 110/2/6 112/2/6
f 113/2/6 114/2/6 115/2/6
f 115/2/6 114/2/6 116/2/6
f 117/2/6 118/2/6 119/2/6
f 119/2/6 118/2/6 120/2/6
f 121/2/6 122/2/6 123/2/6
f 123/2/6 122/2/6 124/2/6
f 125/1/6 126/1/6 127/1/6
f 125/1/6 127/1/6 129/1/6
f 127/2/6 128/2/6 129/2/6
f 129/2/6 128/2/6 130/2/6
f 125/1/6 129/1/6 131/1/6
f 125/1/6 131/1/6 133/1/6
f 131/2/6 132/2/6 133/2/6
f 133/2/6 132/2/6 134/2/6
f 125/1/6 133/1/6 135/1/6
f 135/1/6 133/1/6 136/1/6
