# MagicaVoxel @ Ephtracy

# group
o 

# material
mtllib water-4.mtl
usemtl palette

# normals
vn -1 0 0
vn 1 0 0
vn 0 0 1
vn 0 0 -1
vn 0 -1 0
vn 0 1 0

# texcoords
vt 0.845703 0.5
vt 0.849609 0.5
vt 0.908203 0.5

# verts
v -1.6 0 1.6
v -1.6 0 -1.6
v -1.6 0.1 1.6
v -1.6 0.1 1.5
v -1.6 0.1 0.5
v -1.6 0.1 0.4
v -1.6 0.1 -1.6
v -1.6 0.2 1.6
v -1.6 0.2 1.5
v -1.6 0.2 0.5
v -1.6 0.2 0.4
v -1.6 0.2 -1.6
v 1.6 0 1.6
v 1.6 0 -1.6
v 1.6 0.1 1.6
v 1.6 0.1 1.4
v 1.6 0.1 1.2
v 1.6 0.1 0.4
v 1.6 0.1 0.3
v 1.6 0.1 -0.1
v 1.6 0.1 -0.2
v 1.6 0.1 -1.6
v 1.6 0.2 1.6
v 1.6 0.2 1.4
v 1.6 0.2 1.2
v 1.6 0.2 0.4
v 1.6 0.2 0.3
v 1.6 0.2 -0.1
v 1.6 0.2 -0.2
v 1.6 0.2 -1.6
v -1.6 0 1.6
v -1.6 0.1 1.6
v -1.6 0.2 1.6
v -1.4 0.1 1.6
v -1.4 0.2 1.6
v -0.9 0.1 1.6
v -0.9 0.2 1.6
v -0.7 0.1 1.6
v -0.7 0.2 1.6
v -0.2 0.1 1.6
v -0.2 0.2 1.6
v -0.1 0.1 1.6
v -0.1 0.2 1.6
v 0.8 0.1 1.6
v 0.8 0.2 1.6
v 0.9 0.1 1.6
v 0.9 0.2 1.6
v 1.6 0 1.6
v 1.6 0.1 1.6
v 1.6 0.2 1.6
v -1.6 0 -1.6
v -1.6 0.1 -1.6
v -1.6 0.2 -1.6
v -1.5 0.1 -1.6
v -1.5 0.2 -1.6
v -1.4 0.1 -1.6
v -1.4 0.2 -1.6
v -0.8 0.1 -1.6
v -0.8 0.2 -1.6
v -0.6 0.1 -1.6
v -0.6 0.2 -1.6
v -0.4 0.1 -1.6
v -0.4 0.2 -1.6
v -0.3 0.1 -1.6
v -0.3 0.2 -1.6
v 1.6 0 -1.6
v 1.6 0.1 -1.6
v 1.6 0.2 -1.6
v -1.6 0 1.6
v 1.6 0 1.6
v -1.6 0 -1.6
v 1.6 0 -1.6
v -1.6 0.2 1.6
v -1.4 0.2 1.6
v -0.9 0.2 1.6
v -0.7 0.2 1.6
v -0.2 0.2 1.6
v -0.1 0.2 1.6
v 0.8 0.2 1.6
v 0.9 0.2 1.6
v 1.6 0.2 1.6
v -1.6 0.2 1.5
v -1.4 0.2 1.5
v -1.3 0.2 1.5
v -0.9 0.2 1.5
v -0.7 0.2 1.5
v 0.2 0.2 1.5
v 0.4 0.2 1.5
v 0.8 0.2 1.5
v 0.9 0.2 1.5
v -1.4 0.2 1.4
v -1.3 0.2 1.4
v -0.7 0.2 1.4
v -0.5 0.2 1.4
v -0.2 0.2 1.4
v -0.1 0.2 1.4
v 0.2 0.2 1.4
v 0.4 0.2 1.4
v 0.9 0.2 1.4
v 1.2 0.2 1.4
v 1.5 0.2 1.4
v 1.6 0.2 1.4
v -0.7 0.2 1.3
v -0.6 0.2 1.3
v -0.5 0.2 1.3
v -0.4 0.2 1.3
v 0.9 0.2 1.3
v 1.2 0.2 1.3
v 1.4 0.2 1.3
v 1.5 0.2 1.3
v -0.9 0.2 1.2
v -0.8 0.2 1.2
v -0.6 0.2 1.2
v -0.4 0.2 1.2
v 0.5 0.2 1.2
v 0.6 0.2 1.2
v 1.4 0.2 1.2
v 1.6 0.2 1.2
v -1.3 0.2 1.1
v -1.1 0.2 1.1
v -0.9 0.2 1.1
v -0.8 0.2 1.1
v -0.1 0.2 1.1
v 0.1 0.2 1.1
v 0.8 0.2 1.1
v 0.9 0.2 1.1
v 1.3 0.2 1.1
v 1.4 0.2 1.1
v -1.3 0.2 1
v -1.2 0.2 1
v -1.1 0.2 1
v -1 0.2 1
v -0.2 0.2 1
v -0.1 0.2 1
v 0 0.2 1
v 0.1 0.2 1
v 0.4 0.2 1
v 0.5 0.2 1
v 0.8 0.2 1
v 0.9 0.2 1
v 1.3 0.2 1
v 1.4 0.2 1
v -1.2 0.2 0.9
v -1 0.2 0.9
v -0.7 0.2 0.9
v -0.6 0.2 0.9
v -0.2 0.2 0.9
v 0 0.2 0.9
v 0.4 0.2 0.9
v 0.6 0.2 0.9
v 1 0.2 0.9
v 1.1 0.2 0.9
v -1.4 0.2 0.8
v -1.3 0.2 0.8
v -0.6 0.2 0.8
v -0.5 0.2 0.8
v 1 0.2 0.8
v 1.1 0.2 0.8
v -1.4 0.2 0.7
v -1.3 0.2 0.7
v -0.7 0.2 0.7
v -0.5 0.2 0.7
v -0.2 0.2 0.7
v -0.1 0.2 0.7
v 0.2 0.2 0.7
v 0.3 0.2 0.7
v 0.2 0.2 0.6
v 0.3 0.2 0.6
v 0.7 0.2 0.6
v 0.8 0.2 0.6
v -1.6 0.2 0.5
v -1.5 0.2 0.5
v -0.8 0.2 0.5
v -0.7 0.2 0.5
v 0.6 0.2 0.5
v 0.7 0.2 0.5
v 1.2 0.2 0.5
v 1.4 0.2 0.5
v -1.6 0.2 0.4
v -1.5 0.2 0.4
v -1.1 0.2 0.4
v -1 0.2 0.4
v -0.8 0.2 0.4
v -0.7 0.2 0.4
v -0.4 0.2 0.4
v -0.3 0.2 0.4
v -0.2 0.2 0.4
v -0.1 0.2 0.4
v 0.2 0.2 0.4
v 0.3 0.2 0.4
v 0.5 0.2 0.4
v 0.6 0.2 0.4
v 0.7 0.2 0.4
v 0.8 0.2 0.4
v 1.2 0.2 0.4
v 1.4 0.2 0.4
v 1.5 0.2 0.4
v 1.6 0.2 0.4
v -1.1 0.2 0.3
v -1 0.2 0.3
v -0.4 0.2 0.3
v -0.3 0.2 0.3
v 0.2 0.2 0.3
v 0.3 0.2 0.3
v 0.5 0.2 0.3
v 0.7 0.2 0.3
v 1 0.2 0.3
v 1.1 0.2 0.3
v 1.5 0.2 0.3
v 1.6 0.2 0.3
v -1.5 0.2 0.2
v -1.3 0.2 0.2
v -0.7 0.2 0.2
v -0.6 0.2 0.2
v 0.7 0.2 0.2
v 0.8 0.2 0.2
v -1.4 0.2 0.1
v -1.3 0.2 0.1
v -0.7 0.2 0.1
v -0.6 0.2 0.1
v 0 0.2 0.1
v 0.1 0.2 0.1
v 0.5 0.2 0.1
v 0.7 0.2 0.1
v 0.8 0.2 0.1
v 1 0.2 0.1
v 1.1 0.2 0.1
v -0.4 0.2 0
v -0.2 0.2 0
v 0.6 0.2 0
v 0.7 0.2 0
v 1.1 0.2 0
v 1.2 0.2 0
v -1.5 0.2 -0.1
v -1.4 0.2 -0.1
v -1.2 0.2 -0.1
v -1 0.2 -0.1
v -0.4 0.2 -0.1
v -0.2 0.2 -0.1
v 0 0.2 -0.1
v 0.1 0.2 -0.1
v 0.5 0.2 -0.1
v 0.6 0.2 -0.1
v 1 0.2 -0.1
v 1.1 0.2 -0.1
v 1.4 0.2 -0.1
v 1.6 0.2 -0.1
v -1.2 0.2 -0.2
v -1.1 0.2 -0.2
v -1 0.2 -0.2
v -0.9 0.2 -0.2
v -0.6 0.2 -0.2
v -0.5 0.2 -0.2
v 1.1 0.2 -0.2
v 1.2 0.2 -0.2
v 1.4 0.2 -0.2
v 1.6 0.2 -0.2
v -1.1 0.2 -0.3
v -1 0.2 -0.3
v 0.1 0.2 -0.3
v 0.2 0.2 -0.3
v 0.5 0.2 -0.3
v 0.6 0.2 -0.3
v 1 0.2 -0.3
v 1.1 0.2 -0.3
v 1.3 0.2 -0.3
v 1.5 0.2 -0.3
v -1 0.2 -0.4
v -0.9 0.2 -0.4
v -0.6 0.2 -0.4
v -0.5 0.2 -0.4
v 0.5 0.2 -0.4
v 0.6 0.2 -0.4
v 1.4 0.2 -0.4
v 1.5 0.2 -0.4
v -0.8 0.2 -0.5
v -0.7 0.2 -0.5
v -0.4 0.2 -0.5
v -0.2 0.2 -0.5
v 0.1 0.2 -0.5
v 0.2 0.2 -0.5
v 0.7 0.2 -0.5
v 0.9 0.2 -0.5
v 1.3 0.2 -0.5
v 1.4 0.2 -0.5
v -1.3 0.2 -0.6
v -1.1 0.2 -0.6
v -0.8 0.2 -0.6
v -0.7 0.2 -0.6
v -0.3 0.2 -0.6
v -0.2 0.2 -0.6
v 0.7 0.2 -0.6
v 0.9 0.2 -0.6
v 1 0.2 -0.6
v 1.1 0.2 -0.6
v -1.2 0.2 -0.7
v -1.1 0.2 -0.7
v -0.4 0.2 -0.7
v -0.3 0.2 -0.7
v -0.1 0.2 -0.7
v 0.1 0.2 -0.7
v 1 0.2 -0.7
v 1.1 0.2 -0.7
v -1.3 0.2 -0.8
v -1.2 0.2 -0.8
v -1 0.2 -0.8
v -0.7 0.2 -0.8
v -0.1 0.2 -0.8
v 0 0.2 -0.8
v 0.4 0.2 -0.8
v 0.5 0.2 -0.8
v 0.7 0.2 -0.8
v 0.8 0.2 -0.8
v -1 0.2 -0.9
v -0.7 0.2 -0.9
v 0 0.2 -0.9
v 0.1 0.2 -0.9
v 1.1 0.2 -0.9
v 1.3 0.2 -0.9
v -1.4 0.2 -1
v -1.3 0.2 -1
v -0.3 0.2 -1
v -0.1 0.2 -1
v 0.4 0.2 -1
v 0.5 0.2 -1
v 0.7 0.2 -1
v 0.8 0.2 -1
v 1.1 0.2 -1
v 1.3 0.2 -1
v 1.5 0.2 -1
v -1.3 0.2 -1.1
v -1.2 0.2 -1.1
v -0.3 0.2 -1.1
v -0.1 0.2 -1.1
v 1.3 0.2 -1.1
v 1.5 0.2 -1.1
v -1.4 0.2 -1.2
v -1.2 0.2 -1.2
v -1 0.2 -1.2
v -0.8 0.2 -1.2
v -0.3 0.2 -1.2
v -0.2 0.2 -1.2
v -1 0.2 -1.3
v -0.8 0.2 -1.3
v -0.4 0.2 -1.3
v -0.3 0.2 -1.3
v 0.2 0.2 -1.3
v 0.4 0.2 -1.3
v 0.7 0.2 -1.3
v 0.8 0.2 -1.3
v 1.1 0.2 -1.3
v 1.2 0.2 -1.3
v -0.7 0.2 -1.4
v -0.6 0.2 -1.4
v -0.4 0.2 -1.4
v -0.2 0.2 -1.4
v 0.1 0.2 -1.4
v 0.2 0.2 -1.4
v 0.3 0.2 -1.4
v 0.4 0.2 -1.4
v 1.1 0.2 -1.4
v 1.2 0.2 -1.4
v -1.5 0.2 -1.5
v -1.4 0.2 -1.5
v -0.8 0.2 -1.5
v -0.7 0.2 -1.5
v -0.4 0.2 -1.5
v -0.3 0.2 -1.5
v 0.1 0.2 -1.5
v 0.3 0.2 -1.5
v 0.7 0.2 -1.5
v 0.8 0.2 -1.5
v -1.6 0.2 -1.6
v -1.5 0.2 -1.6
v -1.4 0.2 -1.6
v -0.8 0.2 -1.6
v -0.6 0.2 -1.6
v -0.4 0.2 -1.6
v -0.3 0.2 -1.6
v 1.6 0.2 -1.6

# faces
f 3/3/1 2/3/1 1/3/1
f 4/3/1 2/3/1 3/3/1
f 5/3/1 2/3/1 4/3/1
f 6/3/1 2/3/1 5/3/1
f 7/3/1 2/3/1 6/3/1
f 8/1/1 4/1/1 3/1/1
f 9/2/1 5/2/1 4/2/1
f 9/1/1 4/1/1 8/1/1
f 10/1/1 6/1/1 5/1/1
f 10/2/1 5/2/1 9/2/1
f 11/2/1 7/2/1 6/2/1
f 11/1/1 6/1/1 10/1/1
f 12/2/1 7/2/1 11/2/1
f 13/3/2 14/3/2 15/3/2
f 15/3/2 14/3/2 16/3/2
f 16/3/2 14/3/2 17/3/2
f 17/3/2 14/3/2 18/3/2
f 18/3/2 14/3/2 19/3/2
f 19/3/2 14/3/2 20/3/2
f 20/3/2 14/3/2 21/3/2
f 21/3/2 14/3/2 22/3/2
f 15/2/2 16/2/2 23/2/2
f 16/1/2 17/1/2 24/1/2
f 23/2/2 16/2/2 24/2/2
f 17/2/2 18/2/2 25/2/2
f 24/1/2 17/1/2 25/1/2
f 18/1/2 19/1/2 26/1/2
f 25/2/2 18/2/2 26/2/2
f 19/2/2 20/2/2 27/2/2
f 26/1/2 19/1/2 27/1/2
f 20/1/2 21/1/2 28/1/2
f 27/2/2 20/2/2 28/2/2
f 21/2/2 22/2/2 29/2/2
f 28/1/2 21/1/2 29/1/2
f 29/2/2 22/2/2 30/2/2
f 34/3/3 32/3/3 31/3/3
f 34/1/3 33/1/3 32/1/3
f 35/1/3 33/1/3 34/1/3
f 36/3/3 34/3/3 31/3/3
f 36/2/3 35/2/3 34/2/3
f 37/2/3 35/2/3 36/2/3
f 38/3/3 36/3/3 31/3/3
f 38/1/3 37/1/3 36/1/3
f 39/1/3 37/1/3 38/1/3
f 40/3/3 38/3/3 31/3/3
f 40/2/3 39/2/3 38/2/3
f 41/2/3 39/2/3 40/2/3
f 42/3/3 40/3/3 31/3/3
f 42/1/3 41/1/3 40/1/3
f 43/1/3 41/1/3 42/1/3
f 44/3/3 42/3/3 31/3/3
f 44/2/3 43/2/3 42/2/3
f 45/2/3 43/2/3 44/2/3
f 46/3/3 44/3/3 31/3/3
f 46/1/3 45/1/3 44/1/3
f 47/1/3 45/1/3 46/1/3
f 48/3/3 46/3/3 31/3/3
f 49/2/3 47/2/3 46/2/3
f 49/3/3 46/3/3 48/3/3
f 50/2/3 47/2/3 49/2/3
f 51/3/4 52/3/4 54/3/4
f 52/2/4 53/2/4 54/2/4
f 54/2/4 53/2/4 55/2/4
f 51/3/4 54/3/4 56/3/4
f 54/1/4 55/1/4 56/1/4
f 56/1/4 55/1/4 57/1/4
f 51/3/4 56/3/4 58/3/4
f 56/2/4 57/2/4 58/2/4
f 58/2/4 57/2/4 59/2/4
f 51/3/4 58/3/4 60/3/4
f 58/1/4 59/1/4 60/1/4
f 60/1/4 59/1/4 61/1/4
f 51/3/4 60/3/4 62/3/4
f 60/2/4 61/2/4 62/2/4
f 62/2/4 61/2/4 63/2/4
f 51/3/4 62/3/4 64/3/4
f 62/1/4 63/1/4 64/1/4
f 64/1/4 63/1/4 65/1/4
f 51/3/4 64/3/4 66/3/4
f 64/2/4 65/2/4 67/2/4
f 66/3/4 64/3/4 67/3/4
f 67/2/4 65/2/4 68/2/4
f 71/3/5 70/3/5 69/3/5
f 72/3/5 70/3/5 71/3/5
f 73/1/6 74/1/6 82/1/6
f 74/2/6 75/2/6 83/2/6
f 82/1/6 74/1/6 83/1/6
f 83/2/6 75/2/6 84/2/6
f 75/1/6 76/1/6 85/1/6
f 84/2/6 75/2/6 85/2/6
f 76/2/6 77/2/6 86/2/6
f 85/1/6 76/1/6 86/1/6
f 78/2/6 79/2/6 87/2/6
f 87/2/6 79/2/6 88/2/6
f 79/1/6 80/1/6 89/1/6
f 88/2/6 79/2/6 89/2/6
f 80/2/6 81/2/6 90/2/6
f 89/1/6 80/1/6 90/1/6
f 83/1/6 84/1/6 91/1/6
f 82/2/6 83/2/6 91/2/6
f 84/2/6 85/2/6 92/2/6
f 91/1/6 84/1/6 92/1/6
f 85/2/6 86/2/6 92/2/6
f 86/2/6 77/2/6 93/2/6
f 92/2/6 86/2/6 93/2/6
f 93/2/6 77/2/6 94/2/6
f 77/1/6 78/1/6 95/1/6
f 94/2/6 77/2/6 95/2/6
f 78/2/6 87/2/6 96/2/6
f 95/1/6 78/1/6 96/1/6
f 87/1/6 88/1/6 97/1/6
f 96/2/6 87/2/6 97/2/6
f 88/2/6 89/2/6 98/2/6
f 97/1/6 88/1/6 98/1/6
f 89/2/6 90/2/6 98/2/6
f 90/2/6 81/2/6 99/2/6
f 98/2/6 90/2/6 99/2/6
f 99/2/6 81/2/6 100/2/6
f 100/2/6 81/2/6 101/2/6
f 101/2/6 81/2/6 102/2/6
f 93/1/6 94/1/6 103/1/6
f 91/2/6 92/2/6 103/2/6
f 92/2/6 93/2/6 103/2/6
f 103/1/6 94/1/6 104/1/6
f 96/2/6 97/2/6 105/2/6
f 104/1/6 94/1/6 105/1/6
f 97/2/6 98/2/6 105/2/6
f 95/2/6 96/2/6 105/2/6
f 94/2/6 95/2/6 105/2/6
f 98/2/6 99/2/6 105/2/6
f 105/2/6 99/2/6 106/2/6
f 99/1/6 100/1/6 107/1/6
f 106/2/6 99/2/6 107/2/6
f 100/2/6 101/2/6 108/2/6
f 107/1/6 100/1/6 108/1/6
f 108/2/6 101/2/6 109/2/6
f 101/1/6 102/1/6 110/1/6
f 109/2/6 101/2/6 110/2/6
f 103/2/6 104/2/6 111/2/6
f 91/2/6 103/2/6 111/2/6
f 111/2/6 104/2/6 112/2/6
f 105/1/6 106/1/6 113/1/6
f 112/2/6 104/2/6 113/2/6
f 104/1/6 105/1/6 113/1/6
f 108/2/6 109/2/6 114/2/6
f 113/1/6 106/1/6 114/1/6
f 106/2/6 107/2/6 114/2/6
f 107/2/6 108/2/6 114/2/6
f 114/2/6 109/2/6 115/2/6
f 115/2/6 109/2/6 116/2/6
f 109/1/6 110/1/6 117/1/6
f 116/2/6 109/2/6 117/2/6
f 110/1/6 102/1/6 118/1/6
f 117/1/6 110/1/6 118/1/6
f 91/2/6 111/2/6 119/2/6
f 119/2/6 111/2/6 120/2/6
f 111/1/6 112/1/6 121/1/6
f 120/2/6 111/2/6 121/2/6
f 112/2/6 113/2/6 122/2/6
f 121/1/6 112/1/6 122/1/6
f 113/2/6 114/2/6 122/2/6
f 114/2/6 115/2/6 122/2/6
f 122/2/6 115/2/6 123/2/6
f 123/2/6 115/2/6 124/2/6
f 116/2/6 117/2/6 125/2/6
f 117/2/6 118/2/6 125/2/6
f 125/2/6 118/2/6 126/2/6
f 126/2/6 118/2/6 127/2/6
f 127/2/6 118/2/6 128/2/6
f 119/1/6 120/1/6 129/1/6
f 91/2/6 119/2/6 129/2/6
f 129/1/6 120/1/6 130/1/6
f 120/2/6 121/2/6 131/2/6
f 130/1/6 120/1/6 131/1/6
f 121/2/6 122/2/6 131/2/6
f 122/2/6 123/2/6 131/2/6
f 131/2/6 123/2/6 132/2/6
f 132/2/6 123/2/6 133/2/6
f 123/1/6 124/1/6 134/1/6
f 133/2/6 123/2/6 134/2/6
f 134/1/6 124/1/6 135/1/6
f 124/2/6 115/2/6 136/2/6
f 135/1/6 124/1/6 136/1/6
f 136/2/6 115/2/6 137/2/6
f 115/1/6 116/1/6 138/1/6
f 137/2/6 115/2/6 138/2/6
f 116/2/6 125/2/6 139/2/6
f 125/1/6 126/1/6 139/1/6
f 126/2/6 127/2/6 140/2/6
f 139/1/6 126/1/6 140/1/6
f 127/1/6 128/1/6 141/1/6
f 140/2/6 127/2/6 141/2/6
f 128/2/6 118/2/6 142/2/6
f 141/1/6 128/1/6 142/1/6
f 129/2/6 130/2/6 143/2/6
f 130/1/6 131/1/6 143/1/6
f 131/1/6 132/1/6 143/1/6
f 132/2/6 133/2/6 144/2/6
f 143/1/6 132/1/6 144/1/6
f 144/2/6 133/2/6 145/2/6
f 145/2/6 133/2/6 146/2/6
f 134/1/6 135/1/6 147/1/6
f 146/2/6 133/2/6 147/2/6
f 133/1/6 134/1/6 147/1/6
f 136/2/6 137/2/6 148/2/6
f 147/1/6 135/1/6 148/1/6
f 135/2/6 136/2/6 148/2/6
f 137/1/6 138/1/6 149/1/6
f 148/2/6 137/2/6 149/2/6
f 140/2/6 141/2/6 150/2/6
f 149/1/6 138/1/6 150/1/6
f 139/2/6 140/2/6 150/2/6
f 116/2/6 139/2/6 150/2/6
f 138/1/6 116/1/6 150/1/6
f 141/2/6 142/2/6 150/2/6
f 150/2/6 142/2/6 151/2/6
f 151/2/6 142/2/6 152/2/6
f 82/2/6 91/2/6 153/2/6
f 144/2/6 145/2/6 153/2/6
f 129/2/6 143/2/6 153/2/6
f 91/2/6 129/2/6 153/2/6
f 143/2/6 144/2/6 153/2/6
f 153/2/6 145/2/6 154/2/6
f 145/1/6 146/1/6 155/1/6
f 146/2/6 147/2/6 155/2/6
f 148/2/6 149/2/6 155/2/6
f 150/2/6 151/2/6 155/2/6
f 147/2/6 148/2/6 155/2/6
f 149/2/6 150/2/6 155/2/6
f 155/2/6 151/2/6 156/2/6
f 151/1/6 152/1/6 157/1/6
f 156/2/6 151/2/6 157/2/6
f 152/2/6 142/2/6 158/2/6
f 157/1/6 152/1/6 158/1/6
f 153/1/6 154/1/6 159/1/6
f 82/2/6 153/2/6 159/2/6
f 154/2/6 145/2/6 160/2/6
f 159/1/6 154/1/6 160/1/6
f 155/1/6 156/1/6 161/1/6
f 160/2/6 145/2/6 161/2/6
f 145/1/6 155/1/6 161/1/6
f 156/2/6 157/2/6 162/2/6
f 161/1/6 156/1/6 162/1/6
f 157/2/6 158/2/6 162/2/6
f 162/2/6 158/2/6 163/2/6
f 163/2/6 158/2/6 164/2/6
f 164/2/6 158/2/6 165/2/6
f 165/2/6 158/2/6 166/2/6
f 164/2/6 165/2/6 167/2/6
f 165/1/6 166/1/6 167/1/6
f 166/2/6 158/2/6 168/2/6
f 167/1/6 166/1/6 168/1/6
f 168/2/6 158/2/6 169/2/6
f 169/2/6 158/2/6 170/2/6
f 82/2/6 159/2/6 171/2/6
f 160/2/6 161/2/6 171/2/6
f 159/2/6 160/2/6 171/2/6
f 161/2/6 162/2/6 171/2/6
f 162/2/6 163/2/6 171/2/6
f 171/2/6 163/2/6 172/2/6
f 172/2/6 163/2/6 173/2/6
f 173/2/6 163/2/6 174/2/6
f 168/2/6 169/2/6 175/2/6
f 167/2/6 168/2/6 175/2/6
f 169/1/6 170/1/6 176/1/6
f 175/2/6 169/2/6 176/2/6
f 170/2/6 158/2/6 177/2/6
f 158/2/6 142/2/6 177/2/6
f 142/2/6 118/2/6 178/2/6
f 177/2/6 142/2/6 178/2/6
f 171/1/6 172/1/6 179/1/6
f 172/2/6 173/2/6 180/2/6
f 179/1/6 172/1/6 180/1/6
f 180/2/6 173/2/6 181/2/6
f 181/2/6 173/2/6 182/2/6
f 173/1/6 174/1/6 183/1/6
f 182/2/6 173/2/6 183/2/6
f 174/2/6 163/2/6 184/2/6
f 183/1/6 174/1/6 184/1/6
f 184/2/6 163/2/6 185/2/6
f 185/2/6 163/2/6 186/2/6
f 163/1/6 164/1/6 187/1/6
f 186/2/6 163/2/6 187/2/6
f 167/2/6 175/2/6 188/2/6
f 187/1/6 164/1/6 188/1/6
f 164/2/6 167/2/6 188/2/6
f 188/2/6 175/2/6 189/2/6
f 189/2/6 175/2/6 190/2/6
f 190/2/6 175/2/6 191/2/6
f 175/1/6 176/1/6 192/1/6
f 191/2/6 175/2/6 192/2/6
f 176/1/6 170/1/6 193/1/6
f 192/1/6 176/1/6 193/1/6
f 170/2/6 177/2/6 194/2/6
f 193/1/6 170/1/6 194/1/6
f 177/1/6 178/1/6 195/1/6
f 194/2/6 177/2/6 195/2/6
f 178/2/6 118/2/6 196/2/6
f 195/1/6 178/1/6 196/1/6
f 196/2/6 118/2/6 197/2/6
f 197/2/6 118/2/6 198/2/6
f 181/1/6 182/1/6 199/1/6
f 179/2/6 180/2/6 199/2/6
f 180/2/6 181/2/6 199/2/6
f 182/2/6 183/2/6 200/2/6
f 199/1/6 182/1/6 200/1/6
f 184/2/6 185/2/6 200/2/6
f 183/2/6 184/2/6 200/2/6
f 185/1/6 186/1/6 201/1/6
f 200/2/6 185/2/6 201/2/6
f 186/2/6 187/2/6 202/2/6
f 201/1/6 186/1/6 202/1/6
f 187/2/6 188/2/6 202/2/6
f 188/2/6 189/2/6 202/2/6
f 189/1/6 190/1/6 203/1/6
f 202/2/6 189/2/6 203/2/6
f 190/2/6 191/2/6 204/2/6
f 203/1/6 190/1/6 204/1/6
f 191/1/6 192/1/6 205/1/6
f 204/2/6 191/2/6 205/2/6
f 192/1/6 193/1/6 205/1/6
f 195/2/6 196/2/6 206/2/6
f 205/1/6 193/1/6 206/1/6
f 194/2/6 195/2/6 206/2/6
f 196/2/6 197/2/6 206/2/6
f 193/2/6 194/2/6 206/2/6
f 206/2/6 197/2/6 207/2/6
f 207/2/6 197/2/6 208/2/6
f 197/1/6 198/1/6 209/1/6
f 208/2/6 197/2/6 209/2/6
f 209/1/6 198/1/6 210/1/6
f 203/2/6 204/2/6 211/2/6
f 202/2/6 203/2/6 211/2/6
f 200/2/6 201/2/6 211/2/6
f 201/2/6 202/2/6 211/2/6
f 206/2/6 207/2/6 211/2/6
f 205/2/6 206/2/6 211/2/6
f 179/2/6 199/2/6 211/2/6
f 204/2/6 205/2/6 211/2/6
f 199/2/6 200/2/6 211/2/6
f 211/2/6 207/2/6 212/2/6
f 212/2/6 207/2/6 213/2/6
f 213/2/6 207/2/6 214/2/6
f 214/2/6 207/2/6 215/2/6
f 215/2/6 207/2/6 216/2/6
f 211/1/6 212/1/6 217/1/6
f 212/2/6 213/2/6 218/2/6
f 217/1/6 212/1/6 218/1/6
f 213/1/6 214/1/6 219/1/6
f 218/2/6 213/2/6 219/2/6
f 214/2/6 215/2/6 220/2/6
f 219/1/6 214/1/6 220/1/6
f 220/2/6 215/2/6 221/2/6
f 221/2/6 215/2/6 222/2/6
f 222/2/6 215/2/6 223/2/6
f 215/1/6 216/1/6 224/1/6
f 223/2/6 215/2/6 224/2/6
f 216/2/6 207/2/6 225/2/6
f 224/1/6 216/1/6 225/1/6
f 207/1/6 208/1/6 226/1/6
f 225/2/6 207/2/6 226/2/6
f 209/2/6 210/2/6 227/2/6
f 226/1/6 208/1/6 227/1/6
f 208/2/6 209/2/6 227/2/6
f 217/2/6 218/2/6 228/2/6
f 218/2/6 219/2/6 228/2/6
f 219/2/6 220/2/6 228/2/6
f 220/2/6 221/2/6 228/2/6
f 228/2/6 221/2/6 229/2/6
f 223/1/6 224/1/6 230/1/6
f 225/2/6 226/2/6 231/2/6
f 230/1/6 224/1/6 231/1/6
f 224/2/6 225/2/6 231/2/6
f 226/2/6 227/2/6 231/2/6
f 227/2/6 210/2/6 232/2/6
f 231/2/6 227/2/6 232/2/6
f 232/2/6 210/2/6 233/2/6
f 179/2/6 211/2/6 234/2/6
f 211/1/6 217/1/6 234/1/6
f 217/2/6 228/2/6 235/2/6
f 234/1/6 217/1/6 235/1/6
f 235/2/6 228/2/6 236/2/6
f 236/2/6 228/2/6 237/2/6
f 228/1/6 229/1/6 238/1/6
f 237/2/6 228/2/6 238/2/6
f 229/2/6 221/2/6 239/2/6
f 238/1/6 229/1/6 239/1/6
f 221/1/6 222/1/6 240/1/6
f 239/2/6 221/2/6 240/2/6
f 222/2/6 223/2/6 241/2/6
f 240/1/6 222/1/6 241/1/6
f 223/1/6 230/1/6 242/1/6
f 241/2/6 223/2/6 242/2/6
f 230/2/6 231/2/6 243/2/6
f 242/1/6 230/1/6 243/1/6
f 231/2/6 232/2/6 243/2/6
f 243/2/6 232/2/6 244/2/6
f 232/1/6 233/1/6 245/1/6
f 244/2/6 232/2/6 245/2/6
f 233/2/6 210/2/6 246/2/6
f 246/2/6 210/2/6 247/2/6
f 236/1/6 237/1/6 248/1/6
f 235/2/6 236/2/6 248/2/6
f 234/2/6 235/2/6 248/2/6
f 248/1/6 237/1/6 249/1/6
f 240/2/6 241/2/6 250/2/6
f 249/1/6 237/1/6 250/1/6
f 238/2/6 239/2/6 250/2/6
f 237/2/6 238/2/6 250/2/6
f 243/2/6 244/2/6 250/2/6
f 242/2/6 243/2/6 250/2/6
f 241/2/6 242/2/6 250/2/6
f 239/2/6 240/2/6 250/2/6
f 250/2/6 244/2/6 251/2/6
f 251/2/6 244/2/6 252/2/6
f 252/2/6 244/2/6 253/2/6
f 245/1/6 233/1/6 254/1/6
f 244/1/6 245/1/6 254/1/6
f 233/2/6 246/2/6 255/2/6
f 254/1/6 233/1/6 255/1/6
f 246/1/6 247/1/6 256/1/6
f 255/2/6 246/2/6 256/2/6
f 256/1/6 247/1/6 257/1/6
f 248/2/6 249/2/6 258/2/6
f 249/1/6 250/1/6 258/1/6
f 250/1/6 251/1/6 258/1/6
f 258/1/6 251/1/6 259/1/6
f 253/2/6 244/2/6 260/2/6
f 260/2/6 244/2/6 261/2/6
f 261/2/6 244/2/6 262/2/6
f 262/2/6 244/2/6 263/2/6
f 244/1/6 254/1/6 264/1/6
f 263/2/6 244/2/6 264/2/6
f 254/2/6 255/2/6 265/2/6
f 264/1/6 254/1/6 265/1/6
f 256/2/6 257/2/6 265/2/6
f 255/2/6 256/2/6 265/2/6
f 265/2/6 257/2/6 266/2/6
f 266/2/6 257/2/6 267/2/6
f 259/1/6 251/1/6 268/1/6
f 258/2/6 259/2/6 268/2/6
f 251/2/6 252/2/6 269/2/6
f 268/1/6 251/1/6 269/1/6
f 252/1/6 253/1/6 270/1/6
f 269/2/6 252/2/6 270/2/6
f 253/2/6 260/2/6 271/2/6
f 270/1/6 253/1/6 271/1/6
f 262/1/6 263/1/6 272/1/6
f 261/2/6 262/2/6 272/2/6
f 263/2/6 264/2/6 273/2/6
f 272/1/6 263/1/6 273/1/6
f 264/2/6 265/2/6 273/2/6
f 265/2/6 266/2/6 273/2/6
f 266/1/6 267/1/6 274/1/6
f 267/2/6 257/2/6 275/2/6
f 274/1/6 267/1/6 275/1/6
f 268/2/6 269/2/6 276/2/6
f 270/2/6 271/2/6 276/2/6
f 269/2/6 270/2/6 276/2/6
f 276/2/6 271/2/6 277/2/6
f 271/2/6 260/2/6 278/2/6
f 277/2/6 271/2/6 278/2/6
f 278/2/6 260/2/6 279/2/6
f 260/1/6 261/1/6 280/1/6
f 279/2/6 260/2/6 280/2/6
f 261/2/6 272/2/6 281/2/6
f 280/1/6 261/1/6 281/1/6
f 272/2/6 273/2/6 281/2/6
f 273/2/6 266/2/6 282/2/6
f 281/2/6 273/2/6 282/2/6
f 282/2/6 266/2/6 283/2/6
f 266/1/6 274/1/6 284/1/6
f 283/2/6 266/2/6 284/2/6
f 274/2/6 275/2/6 285/2/6
f 284/1/6 274/1/6 285/1/6
f 234/2/6 248/2/6 286/2/6
f 258/2/6 268/2/6 286/2/6
f 248/2/6 258/2/6 286/2/6
f 268/2/6 276/2/6 286/2/6
f 286/2/6 276/2/6 287/2/6
f 276/1/6 277/1/6 288/1/6
f 287/2/6 276/2/6 288/2/6
f 277/2/6 278/2/6 289/2/6
f 288/1/6 277/1/6 289/1/6
f 278/1/6 279/1/6 290/1/6
f 279/2/6 280/2/6 291/2/6
f 290/1/6 279/1/6 291/1/6
f 281/2/6 282/2/6 291/2/6
f 280/2/6 281/2/6 291/2/6
f 282/1/6 283/1/6 292/1/6
f 291/2/6 282/2/6 292/2/6
f 283/2/6 284/2/6 293/2/6
f 292/1/6 283/1/6 293/1/6
f 284/2/6 285/2/6 293/2/6
f 293/2/6 285/2/6 294/2/6
f 294/2/6 285/2/6 295/2/6
f 286/1/6 287/1/6 296/1/6
f 287/2/6 288/2/6 297/2/6
f 296/1/6 287/1/6 297/1/6
f 288/2/6 289/2/6 297/2/6
f 278/1/6 290/1/6 298/1/6
f 297/2/6 289/2/6 298/2/6
f 289/2/6 278/2/6 298/2/6
f 290/2/6 291/2/6 299/2/6
f 298/1/6 290/1/6 299/1/6
f 291/2/6 292/2/6 299/2/6
f 292/2/6 293/2/6 299/2/6
f 293/2/6 294/2/6 299/2/6
f 299/2/6 294/2/6 300/2/6
f 300/2/6 294/2/6 301/2/6
f 294/1/6 295/1/6 302/1/6
f 301/2/6 294/2/6 302/2/6
f 295/2/6 285/2/6 303/2/6
f 302/1/6 295/1/6 303/1/6
f 234/2/6 286/2/6 304/2/6
f 286/1/6 296/1/6 304/1/6
f 297/2/6 298/2/6 305/2/6
f 304/1/6 296/1/6 305/1/6
f 296/2/6 297/2/6 305/2/6
f 299/2/6 300/2/6 305/2/6
f 298/2/6 299/2/6 305/2/6
f 305/2/6 300/2/6 306/2/6
f 306/2/6 300/2/6 307/2/6
f 300/1/6 301/1/6 308/1/6
f 307/2/6 300/2/6 308/2/6
f 308/1/6 301/1/6 309/1/6
f 301/2/6 302/2/6 310/2/6
f 302/2/6 303/2/6 310/2/6
f 310/2/6 303/2/6 311/2/6
f 311/2/6 303/2/6 312/2/6
f 312/2/6 303/2/6 313/2/6
f 306/1/6 307/1/6 314/1/6
f 304/2/6 305/2/6 314/2/6
f 305/2/6 306/2/6 314/2/6
f 308/2/6 309/2/6 315/2/6
f 314/1/6 307/1/6 315/1/6
f 307/2/6 308/2/6 315/2/6
f 309/1/6 301/1/6 316/1/6
f 315/2/6 309/2/6 316/2/6
f 301/2/6 310/2/6 317/2/6
f 316/1/6 301/1/6 317/1/6
f 303/2/6 285/2/6 318/2/6
f 313/2/6 303/2/6 318/2/6
f 318/2/6 285/2/6 319/2/6
f 234/2/6 304/2/6 320/2/6
f 314/2/6 315/2/6 320/2/6
f 304/2/6 314/2/6 320/2/6
f 316/2/6 317/2/6 320/2/6
f 315/2/6 316/2/6 320/2/6
f 320/2/6 317/2/6 321/2/6
f 321/2/6 317/2/6 322/2/6
f 322/2/6 317/2/6 323/2/6
f 317/2/6 310/2/6 324/2/6
f 323/2/6 317/2/6 324/2/6
f 310/1/6 311/1/6 324/1/6
f 311/2/6 312/2/6 325/2/6
f 324/1/6 311/1/6 325/1/6
f 312/1/6 313/1/6 326/1/6
f 325/2/6 312/2/6 326/2/6
f 313/2/6 318/2/6 327/2/6
f 326/1/6 313/1/6 327/1/6
f 318/1/6 319/1/6 328/1/6
f 327/2/6 318/2/6 328/2/6
f 319/2/6 285/2/6 329/2/6
f 328/1/6 319/1/6 329/1/6
f 285/2/6 275/2/6 330/2/6
f 329/2/6 285/2/6 330/2/6
f 275/2/6 257/2/6 330/2/6
f 320/1/6 321/1/6 331/1/6
f 321/2/6 322/2/6 331/2/6
f 331/2/6 322/2/6 332/2/6
f 322/1/6 323/1/6 333/1/6
f 332/2/6 322/2/6 333/2/6
f 328/2/6 329/2/6 334/2/6
f 333/1/6 323/1/6 334/1/6
f 327/2/6 328/2/6 334/2/6
f 326/2/6 327/2/6 334/2/6
f 325/2/6 326/2/6 334/2/6
f 323/2/6 324/2/6 334/2/6
f 324/2/6 325/2/6 334/2/6
f 329/1/6 330/1/6 335/1/6
f 334/2/6 329/2/6 335/2/6
f 330/2/6 257/2/6 336/2/6
f 335/1/6 330/1/6 336/1/6
f 320/1/6 331/1/6 337/1/6
f 234/2/6 320/2/6 337/2/6
f 331/1/6 332/1/6 337/1/6
f 332/2/6 333/2/6 338/2/6
f 337/1/6 332/1/6 338/1/6
f 334/2/6 335/2/6 338/2/6
f 335/2/6 336/2/6 338/2/6
f 333/2/6 334/2/6 338/2/6
f 338/2/6 336/2/6 339/2/6
f 339/2/6 336/2/6 340/2/6
f 340/2/6 336/2/6 341/2/6
f 341/2/6 336/2/6 342/2/6
f 337/2/6 338/2/6 343/2/6
f 338/2/6 339/2/6 343/2/6
f 339/1/6 340/1/6 343/1/6
f 340/2/6 341/2/6 344/2/6
f 343/1/6 340/1/6 344/1/6
f 344/2/6 341/2/6 345/2/6
f 341/1/6 342/1/6 346/1/6
f 345/2/6 341/2/6 346/2/6
f 342/2/6 336/2/6 347/2/6
f 347/2/6 336/2/6 348/2/6
f 348/2/6 336/2/6 349/2/6
f 349/2/6 336/2/6 350/2/6
f 350/2/6 336/2/6 351/2/6
f 351/2/6 336/2/6 352/2/6
f 344/2/6 345/2/6 353/2/6
f 343/2/6 344/2/6 353/2/6
f 353/2/6 345/2/6 354/2/6
f 345/1/6 346/1/6 355/1/6
f 354/2/6 345/2/6 355/2/6
f 346/1/6 342/1/6 356/1/6
f 355/1/6 346/1/6 356/1/6
f 342/2/6 347/2/6 356/2/6
f 356/2/6 347/2/6 357/2/6
f 347/1/6 348/1/6 358/1/6
f 357/2/6 347/2/6 358/2/6
f 358/1/6 348/1/6 359/1/6
f 348/2/6 349/2/6 360/2/6
f 359/1/6 348/1/6 360/1/6
f 351/1/6 352/1/6 361/1/6
f 350/2/6 351/2/6 361/2/6
f 352/2/6 336/2/6 362/2/6
f 361/1/6 352/1/6 362/1/6
f 234/2/6 337/2/6 363/2/6
f 179/2/6 234/2/6 363/2/6
f 337/2/6 343/2/6 363/2/6
f 343/2/6 353/2/6 363/2/6
f 363/2/6 353/2/6 364/2/6
f 364/2/6 353/2/6 365/2/6
f 353/1/6 354/1/6 366/1/6
f 365/2/6 353/2/6 366/2/6
f 354/2/6 355/2/6 367/2/6
f 355/2/6 356/2/6 367/2/6
f 356/2/6 357/2/6 367/2/6
f 367/2/6 357/2/6 368/2/6
f 357/1/6 358/1/6 369/1/6
f 368/2/6 357/2/6 369/2/6
f 358/1/6 359/1/6 369/1/6
f 359/2/6 360/2/6 370/2/6
f 369/1/6 359/1/6 370/1/6
f 360/2/6 349/2/6 371/2/6
f 370/2/6 360/2/6 371/2/6
f 349/1/6 350/1/6 371/1/6
f 361/2/6 362/2/6 372/2/6
f 371/1/6 350/1/6 372/1/6
f 350/2/6 361/2/6 372/2/6
f 179/2/6 363/2/6 373/2/6
f 363/1/6 364/1/6 374/1/6
f 373/2/6 363/2/6 374/2/6
f 364/2/6 365/2/6 375/2/6
f 374/1/6 364/1/6 375/1/6
f 365/1/6 366/1/6 376/1/6
f 375/2/6 365/2/6 376/2/6
f 366/1/6 354/1/6 377/1/6
f 376/1/6 366/1/6 377/1/6
f 354/2/6 367/2/6 377/2/6
f 367/1/6 368/1/6 378/1/6
f 377/2/6 367/2/6 378/2/6
f 370/2/6 371/2/6 379/2/6
f 378/1/6 368/1/6 379/1/6
f 368/2/6 369/2/6 379/2/6
f 369/2/6 370/2/6 379/2/6
f 371/2/6 372/2/6 379/2/6
f 362/2/6 336/2/6 380/2/6
f 379/2/6 372/2/6 380/2/6
f 336/2/6 257/2/6 380/2/6
f 372/2/6 362/2/6 380/2/6
