# MagicaVoxel @ Ephtracy

# group
o 

# material
mtllib tractor-grey.mtl
usemtl palette

# normals
vn 1 0 0
vn -1 0 0
vn 0 0 -1
vn 0 0 1
vn 0 -1 0
vn 0 1 0

# texcoords
vt 0.818359 0.5
vt 0.826172 0.5
vt 0.869141 0.5
vt 0.896484 0.5
vt 0.908203 0.5

# verts
v 0.8 0.2 -0.2
v 0.8 0.2 -0.1
v 0.8 0.2 0.1
v 0.8 0.2 0.2
v 0.8 0.4 -0.2
v 0.8 0.4 -0.1
v 0.8 0.4 0.1
v 0.8 0.4 0.2
v 0.7 0.2 -0.4
v 0.7 0.2 -0.2
v 0.7 0.2 -0.1
v 0.7 0.2 0.1
v 0.7 0.2 0.2
v 0.7 0.2 0.4
v 0.7 0.4 -0.4
v 0.7 0.4 -0.2
v 0.7 0.4 -0.1
v 0.7 0.4 0.1
v 0.7 0.4 0.2
v 0.7 0.4 0.4
v 0.7 0.5 -0.2
v 0.7 0.5 0.2
v 0.6 0.1 -0.2
v 0.6 0.1 0.2
v 0.6 0.2 -0.2
v 0.6 0.2 0.2
v 0.6 0.4 -0.4
v 0.6 0.4 -0.2
v 0.6 0.4 0.2
v 0.6 0.4 0.4
v 0.6 0.5 -0.4
v 0.6 0.5 -0.3
v 0.6 0.5 -0.2
v 0.6 0.5 0.2
v 0.6 0.5 0.3
v 0.6 0.5 0.4
v 0.6 0.6 -0.3
v 0.6 0.6 -0.2
v 0.6 0.6 0.2
v 0.6 0.6 0.3
v 0.6 0.9 -0.2
v 0.6 0.9 0.2
v 0.5 0.6 -0.3
v 0.5 0.6 -0.2
v 0.5 0.6 0.2
v 0.5 0.6 0.3
v 0.5 0.9 -0.3
v 0.5 0.9 -0.2
v 0.5 0.9 0.2
v 0.5 0.9 0.3
v 0.5 1 -0.2
v 0.5 1 0.2
v 0.4 0.9 -0.3
v 0.4 0.9 -0.2
v 0.4 0.9 0.2
v 0.4 0.9 0.3
v 0.4 1 -0.3
v 0.4 1 -0.2
v 0.4 1 0.2
v 0.4 1 0.3
v 0.3 0.3 -0.4
v 0.3 0.3 -0.2
v 0.3 0.3 0.2
v 0.3 0.3 0.4
v 0.3 0.4 -0.4
v 0.3 0.4 -0.2
v 0.3 0.4 0.2
v 0.3 0.4 0.4
v 0.2 0.1 -0.3
v 0.2 0.1 -0.2
v 0.2 0.1 0.2
v 0.2 0.1 0.3
v 0.2 0.2 -0.4
v 0.2 0.2 -0.3
v 0.2 0.2 0.3
v 0.2 0.2 0.4
v 0.2 0.3 -0.4
v 0.2 0.3 -0.2
v 0.2 0.3 0.2
v 0.2 0.3 0.4
v -0.2 0.1 -0.4
v -0.2 0.1 -0.3
v -0.2 0.1 0.3
v -0.2 0.1 0.4
v -0.2 0.3 -0.4
v -0.2 0.3 -0.3
v -0.2 0.3 0.3
v -0.2 0.3 0.4
v -0.5 0.1 -0.4
v -0.5 0.1 -0.3
v -0.5 0.1 0.3
v -0.5 0.1 0.4
v -0.5 0.2 -0.4
v -0.5 0.2 -0.3
v -0.5 0.2 0.3
v -0.5 0.2 0.4
v 0.6 0.2 -0.4
v 0.6 0.2 -0.2
v 0.6 0.2 0.2
v 0.6 0.2 0.4
v 0.6 0.3 -0.4
v 0.6 0.3 -0.2
v 0.6 0.3 0.2
v 0.6 0.3 0.4
v 0.5 0.3 -0.4
v 0.5 0.3 -0.2
v 0.5 0.3 0.2
v 0.5 0.3 0.4
v 0.5 0.4 -0.4
v 0.5 0.4 -0.2
v 0.5 0.4 0.2
v 0.5 0.4 0.4
v 0.2 0.4 -0.4
v 0.2 0.4 -0.3
v 0.2 0.4 0.3
v 0.2 0.4 0.4
v 0.2 0.5 -0.4
v 0.2 0.5 -0.3
v 0.2 0.5 0.3
v 0.2 0.5 0.4
v 0.1 0.2 -0.4
v 0.1 0.2 -0.3
v 0.1 0.2 0.3
v 0.1 0.2 0.4
v 0.1 0.4 -0.4
v 0.1 0.4 -0.3
v 0.1 0.4 0.3
v 0.1 0.4 0.4
v 0 0.9 -0.3
v 0 0.9 -0.2
v 0 0.9 0.2
v 0 0.9 0.3
v 0 1 -0.3
v 0 1 -0.2
v 0 1 0.2
v 0 1 0.3
v -0.1 0.5 -0.3
v -0.1 0.5 -0.2
v -0.1 0.5 0.2
v -0.1 0.5 0.3
v -0.1 0.6 -0.2
v -0.1 0.6 0.2
v -0.1 0.9 -0.3
v -0.1 0.9 -0.2
v -0.1 0.9 0.2
v -0.1 0.9 0.3
v -0.1 1 -0.2
v -0.1 1 0.2
v -0.3 0.1 -0.4
v -0.3 0.1 -0.3
v -0.3 0.1 0.3
v -0.3 0.1 0.4
v -0.3 0.2 -0.4
v -0.3 0.2 -0.3
v -0.3 0.2 0.3
v -0.3 0.2 0.4
v -0.6 0.1 -0.4
v -0.6 0.1 0.4
v -0.6 0.2 -0.3
v -0.6 0.2 0.3
v -0.6 0.3 -0.4
v -0.6 0.3 -0.3
v -0.6 0.3 0.3
v -0.6 0.3 0.4
v -0.6 0.4 -0.3
v -0.6 0.4 -0.2
v -0.6 0.4 0.2
v -0.6 0.4 0.3
v -0.6 0.5 -0.3
v -0.6 0.5 -0.2
v -0.6 0.5 0.2
v -0.6 0.5 0.3
v -0.6 0.6 -0.2
v -0.6 0.6 0.2
v -0.7 0.2 -0.3
v -0.7 0.2 0.3
v -0.7 0.3 -0.3
v -0.7 0.3 -0.1
v -0.7 0.3 0.1
v -0.7 0.3 0.3
v -0.7 0.4 -0.3
v -0.7 0.4 -0.2
v -0.7 0.4 -0.1
v -0.7 0.4 0.1
v -0.7 0.4 0.2
v -0.7 0.4 0.3
v -0.7 0.5 -0.2
v -0.7 0.5 0.2
v 0.7 0.2 -0.4
v 0.7 0.4 -0.4
v 0.6 0.2 -0.4
v 0.6 0.3 -0.4
v 0.6 0.4 -0.4
v 0.6 0.5 -0.4
v 0.5 0.3 -0.4
v 0.5 0.4 -0.4
v 0.5 0.5 -0.4
v 0.3 0.3 -0.4
v 0.3 0.4 -0.4
v 0.2 0.2 -0.4
v 0.2 0.3 -0.4
v 0.2 0.4 -0.4
v 0.2 0.5 -0.4
v 0.1 0.2 -0.4
v 0.1 0.4 -0.4
v -0.2 0.1 -0.4
v -0.2 0.3 -0.4
v -0.3 0.1 -0.4
v -0.3 0.2 -0.4
v -0.5 0.1 -0.4
v -0.5 0.2 -0.4
v -0.6 0.1 -0.4
v -0.6 0.3 -0.4
v 0.6 0.5 -0.3
v 0.6 0.6 -0.3
v 0.5 0.5 -0.3
v 0.5 0.6 -0.3
v 0.5 0.9 -0.3
v 0.4 0.6 -0.3
v 0.4 0.9 -0.3
v 0.4 1 -0.3
v 0.3 0.6 -0.3
v 0.3 0.9 -0.3
v 0.2 0.1 -0.3
v 0.2 0.2 -0.3
v 0.2 0.4 -0.3
v 0.2 0.5 -0.3
v 0.2 0.6 -0.3
v 0.1 0.2 -0.3
v 0.1 0.4 -0.3
v 0 0.5 -0.3
v 0 0.9 -0.3
v 0 1 -0.3
v -0.1 0.5 -0.3
v -0.1 0.9 -0.3
v -0.2 0.1 -0.3
v -0.2 0.3 -0.3
v -0.3 0.1 -0.3
v -0.3 0.2 -0.3
v -0.5 0.1 -0.3
v -0.5 0.2 -0.3
v -0.6 0.2 -0.3
v -0.6 0.3 -0.3
v -0.6 0.4 -0.3
v -0.6 0.5 -0.3
v -0.7 0.2 -0.3
v -0.7 0.3 -0.3
v -0.7 0.4 -0.3
v 0.8 0.2 -0.2
v 0.8 0.4 -0.2
v 0.7 0.2 -0.2
v 0.7 0.4 -0.2
v 0.7 0.5 -0.2
v 0.6 0.1 -0.2
v 0.6 0.2 -0.2
v 0.6 0.3 -0.2
v 0.6 0.4 -0.2
v 0.6 0.5 -0.2
v 0.6 0.6 -0.2
v 0.6 0.9 -0.2
v 0.5 0.3 -0.2
v 0.5 0.4 -0.2
v 0.5 0.6 -0.2
v 0.5 0.9 -0.2
v 0.5 1 -0.2
v 0.4 0.9 -0.2
v 0.4 1 -0.2
v 0.3 0.3 -0.2
v 0.3 0.4 -0.2
v 0.2 0.1 -0.2
v 0.2 0.3 -0.2
v 0 0.9 -0.2
v 0 1 -0.2
v -0.1 0.5 -0.2
v -0.1 0.6 -0.2
v -0.1 0.9 -0.2
v -0.1 1 -0.2
v -0.6 0.4 -0.2
v -0.6 0.5 -0.2
v -0.6 0.6 -0.2
v -0.7 0.4 -0.2
v -0.7 0.5 -0.2
v 0.8 0.2 0.1
v 0.8 0.4 0.1
v 0.7 0.2 0.1
v 0.7 0.4 0.1
v 0.8 0.2 -0.1
v 0.8 0.4 -0.1
v 0.7 0.2 -0.1
v 0.7 0.4 -0.1
v 0.8 0.2 0.2
v 0.8 0.4 0.2
v 0.7 0.2 0.2
v 0.7 0.4 0.2
v 0.7 0.5 0.2
v 0.6 0.1 0.2
v 0.6 0.2 0.2
v 0.6 0.3 0.2
v 0.6 0.4 0.2
v 0.6 0.5 0.2
v 0.6 0.6 0.2
v 0.6 0.9 0.2
v 0.5 0.3 0.2
v 0.5 0.4 0.2
v 0.5 0.6 0.2
v 0.5 0.9 0.2
v 0.5 1 0.2
v 0.4 0.9 0.2
v 0.4 1 0.2
v 0.3 0.3 0.2
v 0.3 0.4 0.2
v 0.2 0.1 0.2
v 0.2 0.3 0.2
v 0 0.9 0.2
v 0 1 0.2
v -0.1 0.5 0.2
v -0.1 0.6 0.2
v -0.1 0.9 0.2
v -0.1 1 0.2
v -0.6 0.4 0.2
v -0.6 0.5 0.2
v -0.6 0.6 0.2
v -0.7 0.4 0.2
v -0.7 0.5 0.2
v 0.6 0.5 0.3
v 0.6 0.6 0.3
v 0.5 0.5 0.3
v 0.5 0.6 0.3
v 0.5 0.9 0.3
v 0.4 0.6 0.3
v 0.4 0.9 0.3
v 0.4 1 0.3
v 0.3 0.6 0.3
v 0.3 0.9 0.3
v 0.2 0.1 0.3
v 0.2 0.2 0.3
v 0.2 0.4 0.3
v 0.2 0.5 0.3
v 0.2 0.6 0.3
v 0.1 0.2 0.3
v 0.1 0.4 0.3
v 0 0.5 0.3
v 0 0.9 0.3
v 0 1 0.3
v -0.1 0.5 0.3
v -0.1 0.9 0.3
v -0.2 0.1 0.3
v -0.2 0.3 0.3
v -0.3 0.1 0.3
v -0.3 0.2 0.3
v -0.5 0.1 0.3
v -0.5 0.2 0.3
v -0.6 0.2 0.3
v -0.6 0.3 0.3
v -0.6 0.4 0.3
v -0.6 0.5 0.3
v -0.7 0.2 0.3
v -0.7 0.3 0.3
v -0.7 0.4 0.3
v 0.7 0.2 0.4
v 0.7 0.4 0.4
v 0.6 0.2 0.4
v 0.6 0.3 0.4
v 0.6 0.4 0.4
v 0.6 0.5 0.4
v 0.5 0.3 0.4
v 0.5 0.4 0.4
v 0.5 0.5 0.4
v 0.3 0.3 0.4
v 0.3 0.4 0.4
v 0.2 0.2 0.4
v 0.2 0.3 0.4
v 0.2 0.4 0.4
v 0.2 0.5 0.4
v 0.1 0.2 0.4
v 0.1 0.4 0.4
v -0.2 0.1 0.4
v -0.2 0.3 0.4
v -0.3 0.1 0.4
v -0.3 0.2 0.4
v -0.5 0.1 0.4
v -0.5 0.2 0.4
v -0.6 0.1 0.4
v -0.6 0.3 0.4
v -0.2 0.1 -0.4
v -0.3 0.1 -0.4
v -0.5 0.1 -0.4
v -0.6 0.1 -0.4
v 0.2 0.1 -0.3
v -0.2 0.1 -0.3
v -0.3 0.1 -0.3
v -0.5 0.1 -0.3
v 0.6 0.1 -0.2
v 0.2 0.1 -0.2
v 0.6 0.1 0.2
v 0.2 0.1 0.2
v 0.2 0.1 0.3
v -0.2 0.1 0.3
v -0.3 0.1 0.3
v -0.5 0.1 0.3
v -0.2 0.1 0.4
v -0.3 0.1 0.4
v -0.5 0.1 0.4
v -0.6 0.1 0.4
v 0.7 0.2 -0.4
v 0.6 0.2 -0.4
v 0.2 0.2 -0.4
v 0.1 0.2 -0.4
v -0.3 0.2 -0.4
v -0.5 0.2 -0.4
v 0.2 0.2 -0.3
v 0.1 0.2 -0.3
v -0.3 0.2 -0.3
v -0.5 0.2 -0.3
v -0.6 0.2 -0.3
v -0.7 0.2 -0.3
v 0.8 0.2 -0.2
v 0.7 0.2 -0.2
v 0.6 0.2 -0.2
v 0.8 0.2 -0.1
v 0.7 0.2 -0.1
v 0.8 0.2 0.1
v 0.7 0.2 0.1
v 0.8 0.2 0.2
v 0.7 0.2 0.2
v 0.6 0.2 0.2
v 0.2 0.2 0.3
v 0.1 0.2 0.3
v -0.3 0.2 0.3
v -0.5 0.2 0.3
v -0.6 0.2 0.3
v -0.7 0.2 0.3
v 0.7 0.2 0.4
v 0.6 0.2 0.4
v 0.2 0.2 0.4
v 0.1 0.2 0.4
v -0.3 0.2 0.4
v -0.5 0.2 0.4
v 0.6 0.3 -0.4
v 0.5 0.3 -0.4
v 0.3 0.3 -0.4
v 0.2 0.3 -0.4
v 0.6 0.3 -0.2
v 0.5 0.3 -0.2
v 0.3 0.3 -0.2
v 0.2 0.3 -0.2
v 0.6 0.3 0.2
v 0.5 0.3 0.2
v 0.3 0.3 0.2
v 0.2 0.3 0.2
v 0.6 0.3 0.4
v 0.5 0.3 0.4
v 0.3 0.3 0.4
v 0.2 0.3 0.4
v 0.5 0.4 -0.4
v 0.3 0.4 -0.4
v 0.5 0.4 -0.2
v 0.3 0.4 -0.2
v 0.5 0.4 0.2
v 0.3 0.4 0.2
v 0.5 0.4 0.4
v 0.3 0.4 0.4
v -0.2 0.3 -0.4
v -0.6 0.3 -0.4
v -0.2 0.3 -0.3
v -0.6 0.3 -0.3
v -0.2 0.3 0.3
v -0.6 0.3 0.3
v -0.2 0.3 0.4
v -0.6 0.3 0.4
v 0.7 0.4 -0.4
v 0.6 0.4 -0.4
v 0.2 0.4 -0.4
v 0.1 0.4 -0.4
v 0.2 0.4 -0.3
v 0.1 0.4 -0.3
v -0.6 0.4 -0.3
v -0.7 0.4 -0.3
v 0.8 0.4 -0.2
v 0.7 0.4 -0.2
v 0.6 0.4 -0.2
v -0.6 0.4 -0.2
v -0.7 0.4 -0.2
v 0.8 0.4 -0.1
v 0.7 0.4 -0.1
v 0.8 0.4 0.1
v 0.7 0.4 0.1
v 0.8 0.4 0.2
v 0.7 0.4 0.2
v 0.6 0.4 0.2
v -0.6 0.4 0.2
v -0.7 0.4 0.2
v 0.2 0.4 0.3
v 0.1 0.4 0.3
v -0.6 0.4 0.3
v -0.7 0.4 0.3
v 0.7 0.4 0.4
v 0.6 0.4 0.4
v 0.2 0.4 0.4
v 0.1 0.4 0.4
v 0.6 0.5 -0.4
v 0.5 0.5 -0.4
v 0.2 0.5 -0.4
v 0.6 0.5 -0.3
v 0.5 0.5 -0.3
v 0.2 0.5 -0.3
v -0.1 0.5 -0.3
v -0.6 0.5 -0.3
v 0.7 0.5 -0.2
v 0.6 0.5 -0.2
v -0.1 0.5 -0.2
v -0.6 0.5 -0.2
v -0.7 0.5 -0.2
v 0.7 0.5 0.2
v 0.6 0.5 0.2
v -0.1 0.5 0.2
v -0.6 0.5 0.2
v -0.7 0.5 0.2
v 0.6 0.5 0.3
v 0.5 0.5 0.3
v 0.2 0.5 0.3
v -0.1 0.5 0.3
v -0.6 0.5 0.3
v 0.6 0.5 0.4
v 0.5 0.5 0.4
v 0.2 0.5 0.4
v 0.6 0.6 -0.3
v 0.5 0.6 -0.3
v 0.6 0.6 -0.2
v 0.5 0.6 -0.2
v -0.1 0.6 -0.2
v -0.6 0.6 -0.2
v 0.6 0.6 0.2
v 0.5 0.6 0.2
v -0.1 0.6 0.2
v -0.6 0.6 0.2
v 0.6 0.6 0.3
v 0.5 0.6 0.3
v 0.5 0.9 -0.3
v 0.4 0.9 -0.3
v 0 0.9 -0.3
v -0.1 0.9 -0.3
v 0.6 0.9 -0.2
v 0.5 0.9 -0.2
v 0.4 0.9 -0.2
v 0 0.9 -0.2
v -0.1 0.9 -0.2
v 0.6 0.9 0.2
v 0.5 0.9 0.2
v 0.4 0.9 0.2
v 0 0.9 0.2
v -0.1 0.9 0.2
v 0.5 0.9 0.3
v 0.4 0.9 0.3
v 0 0.9 0.3
v -0.1 0.9 0.3
v 0.4 1 -0.3
v 0 1 -0.3
v 0.5 1 -0.2
v 0.4 1 -0.2
v 0 1 -0.2
v -0.1 1 -0.2
v 0.5 1 0.2
v 0.4 1 0.2
v 0 1 0.2
v -0.1 1 0.2
v 0.4 1 0.3
v 0 1 0.3

# faces
f 5/1/1 2/1/1 1/1/1
f 6/1/1 2/1/1 5/1/1
f 7/1/1 4/1/1 3/1/1
f 8/1/1 4/1/1 7/1/1
f 15/3/1 10/3/1 9/3/1
f 16/3/1 10/3/1 15/3/1
f 17/3/1 12/3/1 11/3/1
f 18/3/1 12/3/1 17/3/1
f 19/3/1 14/3/1 13/3/1
f 20/3/1 14/3/1 19/3/1
f 21/3/1 18/3/1 17/3/1
f 21/3/1 19/3/1 18/3/1
f 21/3/1 17/3/1 16/3/1
f 22/3/1 19/3/1 21/3/1
f 25/3/1 24/3/1 23/3/1
f 26/3/1 24/3/1 25/3/1
f 31/5/1 28/5/1 27/5/1
f 32/5/1 28/5/1 31/5/1
f 33/5/1 28/5/1 32/5/1
f 34/5/1 30/5/1 29/5/1
f 35/5/1 30/5/1 34/5/1
f 36/5/1 30/5/1 35/5/1
f 37/3/1 33/3/1 32/3/1
f 37/3/1 35/3/1 34/3/1
f 37/3/1 34/3/1 33/3/1
f 38/3/1 35/3/1 37/3/1
f 39/3/1 35/3/1 38/3/1
f 40/3/1 35/3/1 39/3/1
f 41/2/1 39/2/1 38/2/1
f 42/2/1 39/2/1 41/2/1
f 47/2/1 44/2/1 43/2/1
f 48/2/1 44/2/1 47/2/1
f 49/2/1 46/2/1 45/2/1
f 50/2/1 46/2/1 49/2/1
f 51/3/1 49/3/1 48/3/1
f 52/3/1 49/3/1 51/3/1
f 57/3/1 54/3/1 53/3/1
f 58/3/1 54/3/1 57/3/1
f 59/3/1 56/3/1 55/3/1
f 60/3/1 56/3/1 59/3/1
f 65/3/1 62/3/1 61/3/1
f 66/3/1 62/3/1 65/3/1
f 67/3/1 64/3/1 63/3/1
f 68/3/1 64/3/1 67/3/1
f 74/3/1 70/3/1 69/3/1
f 75/3/1 72/3/1 71/3/1
f 77/3/1 74/3/1 73/3/1
f 78/3/1 70/3/1 74/3/1
f 78/3/1 74/3/1 77/3/1
f 79/3/1 76/3/1 75/3/1
f 79/3/1 75/3/1 71/3/1
f 80/3/1 76/3/1 79/3/1
f 85/3/1 82/3/1 81/3/1
f 86/3/1 82/3/1 85/3/1
f 87/3/1 84/3/1 83/3/1
f 88/3/1 84/3/1 87/3/1
f 93/3/1 90/3/1 89/3/1
f 94/3/1 90/3/1 93/3/1
f 95/3/1 92/3/1 91/3/1
f 96/3/1 92/3/1 95/3/1
f 97/3/2 98/3/2 101/3/2
f 101/3/2 98/3/2 102/3/2
f 99/3/2 100/3/2 103/3/2
f 103/3/2 100/3/2 104/3/2
f 105/3/2 106/3/2 109/3/2
f 109/3/2 106/3/2 110/3/2
f 107/3/2 108/3/2 111/3/2
f 111/3/2 108/3/2 112/3/2
f 113/3/2 114/3/2 117/3/2
f 117/3/2 114/3/2 118/3/2
f 115/3/2 116/3/2 119/3/2
f 119/3/2 116/3/2 120/3/2
f 121/3/2 122/3/2 125/3/2
f 125/3/2 122/3/2 126/3/2
f 123/3/2 124/3/2 127/3/2
f 127/3/2 124/3/2 128/3/2
f 129/3/2 130/3/2 133/3/2
f 133/3/2 130/3/2 134/3/2
f 131/3/2 132/3/2 135/3/2
f 135/3/2 132/3/2 136/3/2
f 137/3/2 138/3/2 141/3/2
f 139/3/2 140/3/2 142/3/2
f 137/3/2 141/3/2 143/3/2
f 141/2/2 142/2/2 144/2/2
f 143/3/2 141/3/2 144/3/2
f 142/3/2 140/3/2 145/3/2
f 144/2/2 142/2/2 145/2/2
f 145/3/2 140/3/2 146/3/2
f 144/3/2 145/3/2 147/3/2
f 147/3/2 145/3/2 148/3/2
f 149/3/2 150/3/2 153/3/2
f 153/3/2 150/3/2 154/3/2
f 151/3/2 152/3/2 155/3/2
f 155/3/2 152/3/2 156/3/2
f 157/3/2 158/3/2 159/3/2
f 159/3/2 158/3/2 160/3/2
f 157/3/2 159/3/2 161/3/2
f 161/3/2 159/3/2 162/3/2
f 160/3/2 158/3/2 163/3/2
f 163/3/2 158/3/2 164/3/2
f 165/3/2 166/3/2 169/3/2
f 169/3/2 166/3/2 170/3/2
f 167/3/2 168/3/2 171/3/2
f 171/3/2 168/3/2 172/3/2
f 170/3/2 171/3/2 173/3/2
f 173/3/2 171/3/2 174/3/2
f 175/3/2 176/3/2 177/3/2
f 177/3/2 176/3/2 178/3/2
f 178/3/2 176/3/2 179/3/2
f 179/3/2 176/3/2 180/3/2
f 177/4/2 178/4/2 181/4/2
f 181/4/2 178/4/2 182/4/2
f 178/3/2 179/3/2 183/3/2
f 182/4/2 178/4/2 183/4/2
f 179/4/2 180/4/2 184/4/2
f 183/3/2 179/3/2 184/3/2
f 184/4/2 180/4/2 185/4/2
f 185/4/2 180/4/2 186/4/2
f 182/3/2 183/3/2 187/3/2
f 184/3/2 185/3/2 187/3/2
f 183/3/2 184/3/2 187/3/2
f 187/3/2 185/3/2 188/3/2
f 191/3/3 190/3/3 189/3/3
f 192/3/3 190/3/3 191/3/3
f 193/3/3 190/3/3 192/3/3
f 195/3/3 193/3/3 192/3/3
f 196/5/3 194/5/3 193/5/3
f 196/3/3 193/3/3 195/3/3
f 197/5/3 194/5/3 196/5/3
f 199/3/3 197/3/3 196/3/3
f 201/3/3 199/3/3 198/3/3
f 202/3/3 197/3/3 199/3/3
f 202/3/3 199/3/3 201/3/3
f 203/3/3 197/3/3 202/3/3
f 204/3/3 201/3/3 200/3/3
f 204/3/3 202/3/3 201/3/3
f 205/3/3 202/3/3 204/3/3
f 208/3/3 207/3/3 206/3/3
f 209/3/3 207/3/3 208/3/3
f 211/3/3 207/3/3 209/3/3
f 212/3/3 211/3/3 210/3/3
f 213/3/3 207/3/3 211/3/3
f 213/3/3 211/3/3 212/3/3
f 216/3/3 215/3/3 214/3/3
f 217/3/3 215/3/3 216/3/3
f 219/3/3 217/3/3 216/3/3
f 219/2/3 218/2/3 217/2/3
f 220/2/3 218/2/3 219/2/3
f 222/3/3 219/3/3 216/3/3
f 222/3/3 221/3/3 220/3/3
f 222/3/3 220/3/3 219/3/3
f 223/3/3 221/3/3 222/3/3
f 227/3/3 222/3/3 216/3/3
f 228/2/3 223/2/3 222/2/3
f 228/3/3 222/3/3 227/3/3
f 229/3/3 225/3/3 224/3/3
f 230/3/3 227/3/3 226/3/3
f 231/2/3 228/2/3 227/2/3
f 231/3/3 230/3/3 229/3/3
f 231/3/3 227/3/3 230/3/3
f 232/2/3 223/2/3 228/2/3
f 232/2/3 228/2/3 231/2/3
f 232/3/3 221/3/3 223/3/3
f 233/3/3 221/3/3 232/3/3
f 234/3/3 231/3/3 229/3/3
f 234/3/3 232/3/3 231/3/3
f 235/3/3 232/3/3 234/3/3
f 236/3/3 229/3/3 224/3/3
f 236/3/3 234/3/3 229/3/3
f 237/3/3 234/3/3 236/3/3
f 240/3/3 239/3/3 238/3/3
f 241/3/3 239/3/3 240/3/3
f 243/3/3 234/3/3 237/3/3
f 244/3/3 234/3/3 243/3/3
f 245/3/3 234/3/3 244/3/3
f 246/3/3 243/3/3 242/3/3
f 247/4/3 244/4/3 243/4/3
f 247/3/3 243/3/3 246/3/3
f 248/4/3 244/4/3 247/4/3
f 251/1/3 250/1/3 249/1/3
f 252/1/3 250/1/3 251/1/3
f 257/3/3 253/3/3 252/3/3
f 258/3/3 253/3/3 257/3/3
f 261/3/3 256/3/3 255/3/3
f 261/3/3 255/3/3 254/3/3
f 263/2/3 260/2/3 259/2/3
f 264/2/3 260/2/3 263/2/3
f 266/3/3 265/3/3 264/3/3
f 267/3/3 265/3/3 266/3/3
f 268/3/3 262/3/3 261/3/3
f 268/3/3 261/3/3 254/3/3
f 269/3/3 262/3/3 268/3/3
f 270/3/3 268/3/3 254/3/3
f 271/3/3 268/3/3 270/3/3
f 276/3/3 273/3/3 272/3/3
f 277/3/3 273/3/3 276/3/3
f 279/3/3 275/3/3 274/3/3
f 280/3/3 275/3/3 279/3/3
f 281/3/3 279/3/3 278/3/3
f 282/3/3 279/3/3 281/3/3
f 285/1/3 284/1/3 283/1/3
f 286/1/3 284/1/3 285/1/3
f 287/1/4 288/1/4 289/1/4
f 289/1/4 288/1/4 290/1/4
f 291/1/4 292/1/4 293/1/4
f 293/1/4 292/1/4 294/1/4
f 294/3/4 295/3/4 299/3/4
f 299/3/4 295/3/4 300/3/4
f 297/3/4 298/3/4 303/3/4
f 296/3/4 297/3/4 303/3/4
f 301/2/4 302/2/4 305/2/4
f 305/2/4 302/2/4 306/2/4
f 306/3/4 307/3/4 308/3/4
f 308/3/4 307/3/4 309/3/4
f 303/3/4 304/3/4 310/3/4
f 296/3/4 303/3/4 310/3/4
f 310/3/4 304/3/4 311/3/4
f 296/3/4 310/3/4 312/3/4
f 312/3/4 310/3/4 313/3/4
f 314/3/4 315/3/4 318/3/4
f 318/3/4 315/3/4 319/3/4
f 316/3/4 317/3/4 321/3/4
f 321/3/4 317/3/4 322/3/4
f 320/3/4 321/3/4 323/3/4
f 323/3/4 321/3/4 324/3/4
f 325/3/4 326/3/4 327/3/4
f 327/3/4 326/3/4 328/3/4
f 327/3/4 328/3/4 330/3/4
f 328/2/4 329/2/4 330/2/4
f 330/2/4 329/2/4 331/2/4
f 327/3/4 330/3/4 333/3/4
f 331/3/4 332/3/4 333/3/4
f 330/3/4 331/3/4 333/3/4
f 333/3/4 332/3/4 334/3/4
f 327/3/4 333/3/4 338/3/4
f 333/2/4 334/2/4 339/2/4
f 338/3/4 333/3/4 339/3/4
f 335/3/4 336/3/4 340/3/4
f 337/3/4 338/3/4 341/3/4
f 338/2/4 339/2/4 342/2/4
f 340/3/4 341/3/4 342/3/4
f 341/3/4 338/3/4 342/3/4
f 339/2/4 334/2/4 343/2/4
f 342/2/4 339/2/4 343/2/4
f 334/3/4 332/3/4 343/3/4
f 343/3/4 332/3/4 344/3/4
f 340/3/4 342/3/4 345/3/4
f 342/3/4 343/3/4 345/3/4
f 345/3/4 343/3/4 346/3/4
f 335/3/4 340/3/4 347/3/4
f 340/3/4 345/3/4 347/3/4
f 347/3/4 345/3/4 348/3/4
f 349/3/4 350/3/4 351/3/4
f 351/3/4 350/3/4 352/3/4
f 348/3/4 345/3/4 354/3/4
f 354/3/4 345/3/4 355/3/4
f 355/3/4 345/3/4 356/3/4
f 353/3/4 354/3/4 357/3/4
f 354/4/4 355/4/4 358/4/4
f 357/3/4 354/3/4 358/3/4
f 358/4/4 355/4/4 359/4/4
f 360/3/4 361/3/4 362/3/4
f 362/3/4 361/3/4 363/3/4
f 363/3/4 361/3/4 364/3/4
f 363/3/4 364/3/4 366/3/4
f 364/5/4 365/5/4 367/5/4
f 366/3/4 364/3/4 367/3/4
f 367/5/4 365/5/4 368/5/4
f 367/3/4 368/3/4 370/3/4
f 369/3/4 370/3/4 372/3/4
f 370/3/4 368/3/4 373/3/4
f 372/3/4 370/3/4 373/3/4
f 373/3/4 368/3/4 374/3/4
f 371/3/4 372/3/4 375/3/4
f 372/3/4 373/3/4 375/3/4
f 375/3/4 373/3/4 376/3/4
f 377/3/4 378/3/4 379/3/4
f 379/3/4 378/3/4 380/3/4
f 380/3/4 378/3/4 382/3/4
f 381/3/4 382/3/4 383/3/4
f 382/3/4 378/3/4 384/3/4
f 383/3/4 382/3/4 384/3/4
f 390/3/5 386/3/5 385/3/5
f 391/3/5 386/3/5 390/3/5
f 392/3/5 388/3/5 387/3/5
f 394/3/5 391/3/5 390/3/5
f 394/3/5 392/3/5 391/3/5
f 394/3/5 390/3/5 389/3/5
f 395/3/5 394/3/5 393/3/5
f 396/3/5 392/3/5 394/3/5
f 396/3/5 394/3/5 395/3/5
f 397/3/5 392/3/5 396/3/5
f 398/3/5 392/3/5 397/3/5
f 399/3/5 392/3/5 398/3/5
f 400/3/5 388/3/5 392/3/5
f 400/3/5 392/3/5 399/3/5
f 401/3/5 399/3/5 398/3/5
f 402/3/5 399/3/5 401/3/5
f 403/3/5 388/3/5 400/3/5
f 404/3/5 388/3/5 403/3/5
f 411/3/5 408/3/5 407/3/5
f 412/3/5 408/3/5 411/3/5
f 413/3/5 410/3/5 409/3/5
f 414/3/5 410/3/5 413/3/5
f 418/3/5 406/3/5 405/3/5
f 419/3/5 406/3/5 418/3/5
f 420/1/5 418/1/5 417/1/5
f 421/3/5 419/3/5 418/3/5
f 421/1/5 418/1/5 420/1/5
f 423/3/5 419/3/5 421/3/5
f 424/1/5 423/1/5 422/1/5
f 425/3/5 419/3/5 423/3/5
f 425/1/5 423/1/5 424/1/5
f 426/3/5 419/3/5 425/3/5
f 431/3/5 416/3/5 415/3/5
f 432/3/5 416/3/5 431/3/5
f 433/3/5 426/3/5 425/3/5
f 434/3/5 426/3/5 433/3/5
f 435/3/5 428/3/5 427/3/5
f 436/3/5 428/3/5 435/3/5
f 437/3/5 430/3/5 429/3/5
f 438/3/5 430/3/5 437/3/5
f 443/3/5 440/3/5 439/3/5
f 444/3/5 440/3/5 443/3/5
f 445/3/5 442/3/5 441/3/5
f 446/3/5 442/3/5 445/3/5
f 451/3/5 448/3/5 447/3/5
f 452/3/5 448/3/5 451/3/5
f 453/3/5 450/3/5 449/3/5
f 454/3/5 450/3/5 453/3/5
f 457/3/5 456/3/5 455/3/5
f 458/3/5 456/3/5 457/3/5
f 461/3/5 460/3/5 459/3/5
f 462/3/5 460/3/5 461/3/5
f 463/3/6 464/3/6 465/3/6
f 465/3/6 464/3/6 466/3/6
f 467/3/6 468/3/6 469/3/6
f 469/3/6 468/3/6 470/3/6
f 473/3/6 474/3/6 475/3/6
f 475/3/6 474/3/6 476/3/6
f 471/3/6 472/3/6 480/3/6
f 480/3/6 472/3/6 481/3/6
f 477/4/6 478/4/6 482/4/6
f 482/4/6 478/4/6 483/4/6
f 479/1/6 480/1/6 484/1/6
f 484/1/6 480/1/6 485/1/6
f 486/1/6 487/1/6 488/1/6
f 488/1/6 487/1/6 489/1/6
f 491/4/6 492/4/6 495/4/6
f 495/4/6 492/4/6 496/4/6
f 489/3/6 490/3/6 497/3/6
f 497/3/6 490/3/6 498/3/6
f 493/3/6 494/3/6 499/3/6
f 499/3/6 494/3/6 500/3/6
f 501/5/6 502/5/6 504/5/6
f 502/3/6 503/3/6 505/3/6
f 504/5/6 502/5/6 505/5/6
f 505/3/6 503/3/6 506/3/6
f 507/3/6 508/3/6 511/3/6
f 511/3/6 508/3/6 512/3/6
f 509/3/6 510/3/6 514/3/6
f 514/3/6 510/3/6 515/3/6
f 512/3/6 513/3/6 517/3/6
f 517/3/6 513/3/6 518/3/6
f 516/3/6 517/3/6 522/3/6
f 522/3/6 517/3/6 523/3/6
f 519/5/6 520/5/6 524/5/6
f 520/3/6 521/3/6 525/3/6
f 524/5/6 520/5/6 525/5/6
f 525/3/6 521/3/6 526/3/6
f 527/3/6 528/3/6 529/3/6
f 529/3/6 528/3/6 530/3/6
f 531/3/6 532/3/6 535/3/6
f 535/3/6 532/3/6 536/3/6
f 533/3/6 534/3/6 537/3/6
f 537/3/6 534/3/6 538/3/6
f 539/2/6 540/2/6 544/2/6
f 544/2/6 540/2/6 545/2/6
f 541/3/6 542/3/6 546/3/6
f 546/3/6 542/3/6 547/3/6
f 543/2/6 544/2/6 548/2/6
f 548/2/6 544/2/6 549/2/6
f 549/2/6 550/2/6 553/2/6
f 553/2/6 550/2/6 554/2/6
f 551/3/6 552/3/6 555/3/6
f 555/3/6 552/3/6 556/3/6
f 557/3/6 558/3/6 560/3/6
f 560/3/6 558/3/6 561/3/6
f 559/3/6 560/3/6 563/3/6
f 561/3/6 562/3/6 563/3/6
f 560/3/6 561/3/6 563/3/6
f 563/3/6 562/3/6 564/3/6
f 564/3/6 562/3/6 565/3/6
f 565/3/6 562/3/6 566/3/6
f 564/3/6 565/3/6 567/3/6
f 567/3/6 565/3/6 568/3/6
