# MagicaVoxel @ Ephtracy

# group
o 

# material
mtllib tractor-blue.mtl
usemtl palette

# normals
vn 1 0 0
vn -1 0 0
vn 0 0 -1
vn 0 0 1
vn 0 -1 0
vn 0 1 0

# texcoords
vt 0.818359 0.5
vt 0.826172 0.5
vt 0.896484 0.5
vt 0.908203 0.5
vt 0.958984 0.5

# verts
v 0.8 0.2 -0.2
v 0.8 0.2 -0.1
v 0.8 0.2 0.1
v 0.8 0.2 0.2
v 0.8 0.4 -0.2
v 0.8 0.4 -0.1
v 0.8 0.4 0.1
v 0.8 0.4 0.2
v 0.7 0.2 -0.4
v 0.7 0.2 -0.2
v 0.7 0.2 -0.1
v 0.7 0.2 0.1
v 0.7 0.2 0.2
v 0.7 0.2 0.4
v 0.7 0.4 -0.4
v 0.7 0.4 -0.2
v 0.7 0.4 -0.1
v 0.7 0.4 0.1
v 0.7 0.4 0.2
v 0.7 0.4 0.4
v 0.7 0.5 -0.2
v 0.7 0.5 0.2
v 0.6 0.1 -0.2
v 0.6 0.1 0.2
v 0.6 0.2 -0.2
v 0.6 0.2 0.2
v 0.6 0.4 -0.4
v 0.6 0.4 -0.2
v 0.6 0.4 0.2
v 0.6 0.4 0.4
v 0.6 0.5 -0.4
v 0.6 0.5 -0.3
v 0.6 0.5 -0.2
v 0.6 0.5 0.2
v 0.6 0.5 0.3
v 0.6 0.5 0.4
v 0.6 0.6 -0.3
v 0.6 0.6 -0.2
v 0.6 0.6 0.2
v 0.6 0.6 0.3
v 0.6 0.9 -0.2
v 0.6 0.9 0.2
v 0.5 0.6 -0.3
v 0.5 0.6 -0.2
v 0.5 0.6 0.2
v 0.5 0.6 0.3
v 0.5 0.9 -0.3
v 0.5 0.9 -0.2
v 0.5 0.9 0.2
v 0.5 0.9 0.3
v 0.5 1 -0.2
v 0.5 1 0.2
v 0.4 0.9 -0.3
v 0.4 0.9 -0.2
v 0.4 0.9 0.2
v 0.4 0.9 0.3
v 0.4 1 -0.3
v 0.4 1 -0.2
v 0.4 1 0.2
v 0.4 1 0.3
v 0.3 0.3 -0.4
v 0.3 0.3 -0.2
v 0.3 0.3 0.2
v 0.3 0.3 0.4
v 0.3 0.4 -0.4
v 0.3 0.4 -0.2
v 0.3 0.4 0.2
v 0.3 0.4 0.4
v 0.2 0.1 -0.3
v 0.2 0.1 -0.2
v 0.2 0.1 0.2
v 0.2 0.1 0.3
v 0.2 0.2 -0.4
v 0.2 0.2 -0.3
v 0.2 0.2 0.3
v 0.2 0.2 0.4
v 0.2 0.3 -0.4
v 0.2 0.3 -0.2
v 0.2 0.3 0.2
v 0.2 0.3 0.4
v -0.2 0.1 -0.4
v -0.2 0.1 -0.3
v -0.2 0.1 0.3
v -0.2 0.1 0.4
v -0.2 0.3 -0.4
v -0.2 0.3 -0.3
v -0.2 0.3 0.3
v -0.2 0.3 0.4
v -0.5 0.1 -0.4
v -0.5 0.1 -0.3
v -0.5 0.1 0.3
v -0.5 0.1 0.4
v -0.5 0.2 -0.4
v -0.5 0.2 -0.3
v -0.5 0.2 0.3
v -0.5 0.2 0.4
v 0.6 0.2 -0.4
v 0.6 0.2 -0.2
v 0.6 0.2 0.2
v 0.6 0.2 0.4
v 0.6 0.3 -0.4
v 0.6 0.3 -0.2
v 0.6 0.3 0.2
v 0.6 0.3 0.4
v 0.5 0.3 -0.4
v 0.5 0.3 -0.2
v 0.5 0.3 0.2
v 0.5 0.3 0.4
v 0.5 0.4 -0.4
v 0.5 0.4 -0.2
v 0.5 0.4 0.2
v 0.5 0.4 0.4
v 0.2 0.4 -0.4
v 0.2 0.4 -0.3
v 0.2 0.4 0.3
v 0.2 0.4 0.4
v 0.2 0.5 -0.4
v 0.2 0.5 -0.3
v 0.2 0.5 0.3
v 0.2 0.5 0.4
v 0.1 0.2 -0.4
v 0.1 0.2 -0.3
v 0.1 0.2 0.3
v 0.1 0.2 0.4
v 0.1 0.4 -0.4
v 0.1 0.4 -0.3
v 0.1 0.4 0.3
v 0.1 0.4 0.4
v 0 0.9 -0.3
v 0 0.9 -0.2
v 0 0.9 0.2
v 0 0.9 0.3
v 0 1 -0.3
v 0 1 -0.2
v 0 1 0.2
v 0 1 0.3
v -0.1 0.5 -0.3
v -0.1 0.5 -0.2
v -0.1 0.5 0.2
v -0.1 0.5 0.3
v -0.1 0.6 -0.2
v -0.1 0.6 0.2
v -0.1 0.9 -0.3
v -0.1 0.9 -0.2
v -0.1 0.9 0.2
v -0.1 0.9 0.3
v -0.1 1 -0.2
v -0.1 1 0.2
v -0.3 0.1 -0.4
v -0.3 0.1 -0.3
v -0.3 0.1 0.3
v -0.3 0.1 0.4
v -0.3 0.2 -0.4
v -0.3 0.2 -0.3
v -0.3 0.2 0.3
v -0.3 0.2 0.4
v -0.6 0.1 -0.4
v -0.6 0.1 0.4
v -0.6 0.2 -0.3
v -0.6 0.2 0.3
v -0.6 0.3 -0.4
v -0.6 0.3 -0.3
v -0.6 0.3 0.3
v -0.6 0.3 0.4
v -0.6 0.4 -0.3
v -0.6 0.4 -0.2
v -0.6 0.4 0.2
v -0.6 0.4 0.3
v -0.6 0.5 -0.3
v -0.6 0.5 -0.2
v -0.6 0.5 0.2
v -0.6 0.5 0.3
v -0.6 0.6 -0.2
v -0.6 0.6 0.2
v -0.7 0.2 -0.3
v -0.7 0.2 0.3
v -0.7 0.3 -0.3
v -0.7 0.3 -0.1
v -0.7 0.3 0.1
v -0.7 0.3 0.3
v -0.7 0.4 -0.3
v -0.7 0.4 -0.2
v -0.7 0.4 -0.1
v -0.7 0.4 0.1
v -0.7 0.4 0.2
v -0.7 0.4 0.3
v -0.7 0.5 -0.2
v -0.7 0.5 0.2
v 0.7 0.2 -0.4
v 0.7 0.4 -0.4
v 0.6 0.2 -0.4
v 0.6 0.3 -0.4
v 0.6 0.4 -0.4
v 0.6 0.5 -0.4
v 0.5 0.3 -0.4
v 0.5 0.4 -0.4
v 0.5 0.5 -0.4
v 0.3 0.3 -0.4
v 0.3 0.4 -0.4
v 0.2 0.2 -0.4
v 0.2 0.3 -0.4
v 0.2 0.4 -0.4
v 0.2 0.5 -0.4
v 0.1 0.2 -0.4
v 0.1 0.4 -0.4
v -0.2 0.1 -0.4
v -0.2 0.3 -0.4
v -0.3 0.1 -0.4
v -0.3 0.2 -0.4
v -0.5 0.1 -0.4
v -0.5 0.2 -0.4
v -0.6 0.1 -0.4
v -0.6 0.3 -0.4
v 0.6 0.5 -0.3
v 0.6 0.6 -0.3
v 0.5 0.5 -0.3
v 0.5 0.6 -0.3
v 0.5 0.9 -0.3
v 0.4 0.6 -0.3
v 0.4 0.9 -0.3
v 0.4 1 -0.3
v 0.3 0.6 -0.3
v 0.3 0.9 -0.3
v 0.2 0.1 -0.3
v 0.2 0.2 -0.3
v 0.2 0.4 -0.3
v 0.2 0.5 -0.3
v 0.2 0.6 -0.3
v 0.1 0.2 -0.3
v 0.1 0.4 -0.3
v 0 0.5 -0.3
v 0 0.9 -0.3
v 0 1 -0.3
v -0.1 0.5 -0.3
v -0.1 0.9 -0.3
v -0.2 0.1 -0.3
v -0.2 0.3 -0.3
v -0.3 0.1 -0.3
v -0.3 0.2 -0.3
v -0.5 0.1 -0.3
v -0.5 0.2 -0.3
v -0.6 0.2 -0.3
v -0.6 0.3 -0.3
v -0.6 0.4 -0.3
v -0.6 0.5 -0.3
v -0.7 0.2 -0.3
v -0.7 0.3 -0.3
v -0.7 0.4 -0.3
v 0.8 0.2 -0.2
v 0.8 0.4 -0.2
v 0.7 0.2 -0.2
v 0.7 0.4 -0.2
v 0.7 0.5 -0.2
v 0.6 0.1 -0.2
v 0.6 0.2 -0.2
v 0.6 0.3 -0.2
v 0.6 0.4 -0.2
v 0.6 0.5 -0.2
v 0.6 0.6 -0.2
v 0.6 0.9 -0.2
v 0.5 0.3 -0.2
v 0.5 0.4 -0.2
v 0.5 0.6 -0.2
v 0.5 0.9 -0.2
v 0.5 1 -0.2
v 0.4 0.9 -0.2
v 0.4 1 -0.2
v 0.3 0.3 -0.2
v 0.3 0.4 -0.2
v 0.2 0.1 -0.2
v 0.2 0.3 -0.2
v 0 0.9 -0.2
v 0 1 -0.2
v -0.1 0.5 -0.2
v -0.1 0.6 -0.2
v -0.1 0.9 -0.2
v -0.1 1 -0.2
v -0.6 0.4 -0.2
v -0.6 0.5 -0.2
v -0.6 0.6 -0.2
v -0.7 0.4 -0.2
v -0.7 0.5 -0.2
v 0.8 0.2 0.1
v 0.8 0.4 0.1
v 0.7 0.2 0.1
v 0.7 0.4 0.1
v 0.8 0.2 -0.1
v 0.8 0.4 -0.1
v 0.7 0.2 -0.1
v 0.7 0.4 -0.1
v 0.8 0.2 0.2
v 0.8 0.4 0.2
v 0.7 0.2 0.2
v 0.7 0.4 0.2
v 0.7 0.5 0.2
v 0.6 0.1 0.2
v 0.6 0.2 0.2
v 0.6 0.3 0.2
v 0.6 0.4 0.2
v 0.6 0.5 0.2
v 0.6 0.6 0.2
v 0.6 0.9 0.2
v 0.5 0.3 0.2
v 0.5 0.4 0.2
v 0.5 0.6 0.2
v 0.5 0.9 0.2
v 0.5 1 0.2
v 0.4 0.9 0.2
v 0.4 1 0.2
v 0.3 0.3 0.2
v 0.3 0.4 0.2
v 0.2 0.1 0.2
v 0.2 0.3 0.2
v 0 0.9 0.2
v 0 1 0.2
v -0.1 0.5 0.2
v -0.1 0.6 0.2
v -0.1 0.9 0.2
v -0.1 1 0.2
v -0.6 0.4 0.2
v -0.6 0.5 0.2
v -0.6 0.6 0.2
v -0.7 0.4 0.2
v -0.7 0.5 0.2
v 0.6 0.5 0.3
v 0.6 0.6 0.3
v 0.5 0.5 0.3
v 0.5 0.6 0.3
v 0.5 0.9 0.3
v 0.4 0.6 0.3
v 0.4 0.9 0.3
v 0.4 1 0.3
v 0.3 0.6 0.3
v 0.3 0.9 0.3
v 0.2 0.1 0.3
v 0.2 0.2 0.3
v 0.2 0.4 0.3
v 0.2 0.5 0.3
v 0.2 0.6 0.3
v 0.1 0.2 0.3
v 0.1 0.4 0.3
v 0 0.5 0.3
v 0 0.9 0.3
v 0 1 0.3
v -0.1 0.5 0.3
v -0.1 0.9 0.3
v -0.2 0.1 0.3
v -0.2 0.3 0.3
v -0.3 0.1 0.3
v -0.3 0.2 0.3
v -0.5 0.1 0.3
v -0.5 0.2 0.3
v -0.6 0.2 0.3
v -0.6 0.3 0.3
v -0.6 0.4 0.3
v -0.6 0.5 0.3
v -0.7 0.2 0.3
v -0.7 0.3 0.3
v -0.7 0.4 0.3
v 0.7 0.2 0.4
v 0.7 0.4 0.4
v 0.6 0.2 0.4
v 0.6 0.3 0.4
v 0.6 0.4 0.4
v 0.6 0.5 0.4
v 0.5 0.3 0.4
v 0.5 0.4 0.4
v 0.5 0.5 0.4
v 0.3 0.3 0.4
v 0.3 0.4 0.4
v 0.2 0.2 0.4
v 0.2 0.3 0.4
v 0.2 0.4 0.4
v 0.2 0.5 0.4
v 0.1 0.2 0.4
v 0.1 0.4 0.4
v -0.2 0.1 0.4
v -0.2 0.3 0.4
v -0.3 0.1 0.4
v -0.3 0.2 0.4
v -0.5 0.1 0.4
v -0.5 0.2 0.4
v -0.6 0.1 0.4
v -0.6 0.3 0.4
v -0.2 0.1 -0.4
v -0.3 0.1 -0.4
v -0.5 0.1 -0.4
v -0.6 0.1 -0.4
v 0.2 0.1 -0.3
v -0.2 0.1 -0.3
v -0.3 0.1 -0.3
v -0.5 0.1 -0.3
v 0.6 0.1 -0.2
v 0.2 0.1 -0.2
v 0.6 0.1 0.2
v 0.2 0.1 0.2
v 0.2 0.1 0.3
v -0.2 0.1 0.3
v -0.3 0.1 0.3
v -0.5 0.1 0.3
v -0.2 0.1 0.4
v -0.3 0.1 0.4
v -0.5 0.1 0.4
v -0.6 0.1 0.4
v 0.7 0.2 -0.4
v 0.6 0.2 -0.4
v 0.2 0.2 -0.4
v 0.1 0.2 -0.4
v -0.3 0.2 -0.4
v -0.5 0.2 -0.4
v 0.2 0.2 -0.3
v 0.1 0.2 -0.3
v -0.3 0.2 -0.3
v -0.5 0.2 -0.3
v -0.6 0.2 -0.3
v -0.7 0.2 -0.3
v 0.8 0.2 -0.2
v 0.7 0.2 -0.2
v 0.6 0.2 -0.2
v 0.8 0.2 -0.1
v 0.7 0.2 -0.1
v 0.8 0.2 0.1
v 0.7 0.2 0.1
v 0.8 0.2 0.2
v 0.7 0.2 0.2
v 0.6 0.2 0.2
v 0.2 0.2 0.3
v 0.1 0.2 0.3
v -0.3 0.2 0.3
v -0.5 0.2 0.3
v -0.6 0.2 0.3
v -0.7 0.2 0.3
v 0.7 0.2 0.4
v 0.6 0.2 0.4
v 0.2 0.2 0.4
v 0.1 0.2 0.4
v -0.3 0.2 0.4
v -0.5 0.2 0.4
v 0.6 0.3 -0.4
v 0.5 0.3 -0.4
v 0.3 0.3 -0.4
v 0.2 0.3 -0.4
v 0.6 0.3 -0.2
v 0.5 0.3 -0.2
v 0.3 0.3 -0.2
v 0.2 0.3 -0.2
v 0.6 0.3 0.2
v 0.5 0.3 0.2
v 0.3 0.3 0.2
v 0.2 0.3 0.2
v 0.6 0.3 0.4
v 0.5 0.3 0.4
v 0.3 0.3 0.4
v 0.2 0.3 0.4
v 0.5 0.4 -0.4
v 0.3 0.4 -0.4
v 0.5 0.4 -0.2
v 0.3 0.4 -0.2
v 0.5 0.4 0.2
v 0.3 0.4 0.2
v 0.5 0.4 0.4
v 0.3 0.4 0.4
v -0.2 0.3 -0.4
v -0.6 0.3 -0.4
v -0.2 0.3 -0.3
v -0.6 0.3 -0.3
v -0.2 0.3 0.3
v -0.6 0.3 0.3
v -0.2 0.3 0.4
v -0.6 0.3 0.4
v 0.7 0.4 -0.4
v 0.6 0.4 -0.4
v 0.2 0.4 -0.4
v 0.1 0.4 -0.4
v 0.2 0.4 -0.3
v 0.1 0.4 -0.3
v -0.6 0.4 -0.3
v -0.7 0.4 -0.3
v 0.8 0.4 -0.2
v 0.7 0.4 -0.2
v 0.6 0.4 -0.2
v -0.6 0.4 -0.2
v -0.7 0.4 -0.2
v 0.8 0.4 -0.1
v 0.7 0.4 -0.1
v 0.8 0.4 0.1
v 0.7 0.4 0.1
v 0.8 0.4 0.2
v 0.7 0.4 0.2
v 0.6 0.4 0.2
v -0.6 0.4 0.2
v -0.7 0.4 0.2
v 0.2 0.4 0.3
v 0.1 0.4 0.3
v -0.6 0.4 0.3
v -0.7 0.4 0.3
v 0.7 0.4 0.4
v 0.6 0.4 0.4
v 0.2 0.4 0.4
v 0.1 0.4 0.4
v 0.6 0.5 -0.4
v 0.5 0.5 -0.4
v 0.2 0.5 -0.4
v 0.6 0.5 -0.3
v 0.5 0.5 -0.3
v 0.2 0.5 -0.3
v -0.1 0.5 -0.3
v -0.6 0.5 -0.3
v 0.7 0.5 -0.2
v 0.6 0.5 -0.2
v -0.1 0.5 -0.2
v -0.6 0.5 -0.2
v -0.7 0.5 -0.2
v 0.7 0.5 0.2
v 0.6 0.5 0.2
v -0.1 0.5 0.2
v -0.6 0.5 0.2
v -0.7 0.5 0.2
v 0.6 0.5 0.3
v 0.5 0.5 0.3
v 0.2 0.5 0.3
v -0.1 0.5 0.3
v -0.6 0.5 0.3
v 0.6 0.5 0.4
v 0.5 0.5 0.4
v 0.2 0.5 0.4
v 0.6 0.6 -0.3
v 0.5 0.6 -0.3
v 0.6 0.6 -0.2
v 0.5 0.6 -0.2
v -0.1 0.6 -0.2
v -0.6 0.6 -0.2
v 0.6 0.6 0.2
v 0.5 0.6 0.2
v -0.1 0.6 0.2
v -0.6 0.6 0.2
v 0.6 0.6 0.3
v 0.5 0.6 0.3
v 0.5 0.9 -0.3
v 0.4 0.9 -0.3
v 0 0.9 -0.3
v -0.1 0.9 -0.3
v 0.6 0.9 -0.2
v 0.5 0.9 -0.2
v 0.4 0.9 -0.2
v 0 0.9 -0.2
v -0.1 0.9 -0.2
v 0.6 0.9 0.2
v 0.5 0.9 0.2
v 0.4 0.9 0.2
v 0 0.9 0.2
v -0.1 0.9 0.2
v 0.5 0.9 0.3
v 0.4 0.9 0.3
v 0 0.9 0.3
v -0.1 0.9 0.3
v 0.4 1 -0.3
v 0 1 -0.3
v 0.5 1 -0.2
v 0.4 1 -0.2
v 0 1 -0.2
v -0.1 1 -0.2
v 0.5 1 0.2
v 0.4 1 0.2
v 0 1 0.2
v -0.1 1 0.2
v 0.4 1 0.3
v 0 1 0.3

# faces
f 5/1/1 2/1/1 1/1/1
f 6/1/1 2/1/1 5/1/1
f 7/1/1 4/1/1 3/1/1
f 8/1/1 4/1/1 7/1/1
f 15/5/1 10/5/1 9/5/1
f 16/5/1 10/5/1 15/5/1
f 17/5/1 12/5/1 11/5/1
f 18/5/1 12/5/1 17/5/1
f 19/5/1 14/5/1 13/5/1
f 20/5/1 14/5/1 19/5/1
f 21/5/1 18/5/1 17/5/1
f 21/5/1 19/5/1 18/5/1
f 21/5/1 17/5/1 16/5/1
f 22/5/1 19/5/1 21/5/1
f 25/5/1 24/5/1 23/5/1
f 26/5/1 24/5/1 25/5/1
f 31/4/1 28/4/1 27/4/1
f 32/4/1 28/4/1 31/4/1
f 33/4/1 28/4/1 32/4/1
f 34/4/1 30/4/1 29/4/1
f 35/4/1 30/4/1 34/4/1
f 36/4/1 30/4/1 35/4/1
f 37/5/1 33/5/1 32/5/1
f 37/5/1 35/5/1 34/5/1
f 37/5/1 34/5/1 33/5/1
f 38/5/1 35/5/1 37/5/1
f 39/5/1 35/5/1 38/5/1
f 40/5/1 35/5/1 39/5/1
f 41/2/1 39/2/1 38/2/1
f 42/2/1 39/2/1 41/2/1
f 47/2/1 44/2/1 43/2/1
f 48/2/1 44/2/1 47/2/1
f 49/2/1 46/2/1 45/2/1
f 50/2/1 46/2/1 49/2/1
f 51/5/1 49/5/1 48/5/1
f 52/5/1 49/5/1 51/5/1
f 57/5/1 54/5/1 53/5/1
f 58/5/1 54/5/1 57/5/1
f 59/5/1 56/5/1 55/5/1
f 60/5/1 56/5/1 59/5/1
f 65/5/1 62/5/1 61/5/1
f 66/5/1 62/5/1 65/5/1
f 67/5/1 64/5/1 63/5/1
f 68/5/1 64/5/1 67/5/1
f 74/5/1 70/5/1 69/5/1
f 75/5/1 72/5/1 71/5/1
f 77/5/1 74/5/1 73/5/1
f 78/5/1 70/5/1 74/5/1
f 78/5/1 74/5/1 77/5/1
f 79/5/1 76/5/1 75/5/1
f 79/5/1 75/5/1 71/5/1
f 80/5/1 76/5/1 79/5/1
f 85/5/1 82/5/1 81/5/1
f 86/5/1 82/5/1 85/5/1
f 87/5/1 84/5/1 83/5/1
f 88/5/1 84/5/1 87/5/1
f 93/5/1 90/5/1 89/5/1
f 94/5/1 90/5/1 93/5/1
f 95/5/1 92/5/1 91/5/1
f 96/5/1 92/5/1 95/5/1
f 97/5/2 98/5/2 101/5/2
f 101/5/2 98/5/2 102/5/2
f 99/5/2 100/5/2 103/5/2
f 103/5/2 100/5/2 104/5/2
f 105/5/2 106/5/2 109/5/2
f 109/5/2 106/5/2 110/5/2
f 107/5/2 108/5/2 111/5/2
f 111/5/2 108/5/2 112/5/2
f 113/5/2 114/5/2 117/5/2
f 117/5/2 114/5/2 118/5/2
f 115/5/2 116/5/2 119/5/2
f 119/5/2 116/5/2 120/5/2
f 121/5/2 122/5/2 125/5/2
f 125/5/2 122/5/2 126/5/2
f 123/5/2 124/5/2 127/5/2
f 127/5/2 124/5/2 128/5/2
f 129/5/2 130/5/2 133/5/2
f 133/5/2 130/5/2 134/5/2
f 131/5/2 132/5/2 135/5/2
f 135/5/2 132/5/2 136/5/2
f 137/5/2 138/5/2 141/5/2
f 139/5/2 140/5/2 142/5/2
f 137/5/2 141/5/2 143/5/2
f 141/2/2 142/2/2 144/2/2
f 143/5/2 141/5/2 144/5/2
f 142/5/2 140/5/2 145/5/2
f 144/2/2 142/2/2 145/2/2
f 145/5/2 140/5/2 146/5/2
f 144/5/2 145/5/2 147/5/2
f 147/5/2 145/5/2 148/5/2
f 149/5/2 150/5/2 153/5/2
f 153/5/2 150/5/2 154/5/2
f 151/5/2 152/5/2 155/5/2
f 155/5/2 152/5/2 156/5/2
f 157/5/2 158/5/2 159/5/2
f 159/5/2 158/5/2 160/5/2
f 157/5/2 159/5/2 161/5/2
f 161/5/2 159/5/2 162/5/2
f 160/5/2 158/5/2 163/5/2
f 163/5/2 158/5/2 164/5/2
f 165/5/2 166/5/2 169/5/2
f 169/5/2 166/5/2 170/5/2
f 167/5/2 168/5/2 171/5/2
f 171/5/2 168/5/2 172/5/2
f 170/5/2 171/5/2 173/5/2
f 173/5/2 171/5/2 174/5/2
f 175/5/2 176/5/2 177/5/2
f 177/5/2 176/5/2 178/5/2
f 178/5/2 176/5/2 179/5/2
f 179/5/2 176/5/2 180/5/2
f 177/3/2 178/3/2 181/3/2
f 181/3/2 178/3/2 182/3/2
f 178/5/2 179/5/2 183/5/2
f 182/3/2 178/3/2 183/3/2
f 179/3/2 180/3/2 184/3/2
f 183/5/2 179/5/2 184/5/2
f 184/3/2 180/3/2 185/3/2
f 185/3/2 180/3/2 186/3/2
f 182/5/2 183/5/2 187/5/2
f 184/5/2 185/5/2 187/5/2
f 183/5/2 184/5/2 187/5/2
f 187/5/2 185/5/2 188/5/2
f 191/5/3 190/5/3 189/5/3
f 192/5/3 190/5/3 191/5/3
f 193/5/3 190/5/3 192/5/3
f 195/5/3 193/5/3 192/5/3
f 196/4/3 194/4/3 193/4/3
f 196/5/3 193/5/3 195/5/3
f 197/4/3 194/4/3 196/4/3
f 199/5/3 197/5/3 196/5/3
f 201/5/3 199/5/3 198/5/3
f 202/5/3 197/5/3 199/5/3
f 202/5/3 199/5/3 201/5/3
f 203/5/3 197/5/3 202/5/3
f 204/5/3 201/5/3 200/5/3
f 204/5/3 202/5/3 201/5/3
f 205/5/3 202/5/3 204/5/3
f 208/5/3 207/5/3 206/5/3
f 209/5/3 207/5/3 208/5/3
f 211/5/3 207/5/3 209/5/3
f 212/5/3 211/5/3 210/5/3
f 213/5/3 207/5/3 211/5/3
f 213/5/3 211/5/3 212/5/3
f 216/5/3 215/5/3 214/5/3
f 217/5/3 215/5/3 216/5/3
f 219/5/3 217/5/3 216/5/3
f 219/2/3 218/2/3 217/2/3
f 220/2/3 218/2/3 219/2/3
f 222/5/3 219/5/3 216/5/3
f 222/5/3 221/5/3 220/5/3
f 222/5/3 220/5/3 219/5/3
f 223/5/3 221/5/3 222/5/3
f 227/5/3 222/5/3 216/5/3
f 228/2/3 223/2/3 222/2/3
f 228/5/3 222/5/3 227/5/3
f 229/5/3 225/5/3 224/5/3
f 230/5/3 227/5/3 226/5/3
f 231/2/3 228/2/3 227/2/3
f 231/5/3 230/5/3 229/5/3
f 231/5/3 227/5/3 230/5/3
f 232/2/3 223/2/3 228/2/3
f 232/2/3 228/2/3 231/2/3
f 232/5/3 221/5/3 223/5/3
f 233/5/3 221/5/3 232/5/3
f 234/5/3 231/5/3 229/5/3
f 234/5/3 232/5/3 231/5/3
f 235/5/3 232/5/3 234/5/3
f 236/5/3 229/5/3 224/5/3
f 236/5/3 234/5/3 229/5/3
f 237/5/3 234/5/3 236/5/3
f 240/5/3 239/5/3 238/5/3
f 241/5/3 239/5/3 240/5/3
f 243/5/3 234/5/3 237/5/3
f 244/5/3 234/5/3 243/5/3
f 245/5/3 234/5/3 244/5/3
f 246/5/3 243/5/3 242/5/3
f 247/3/3 244/3/3 243/3/3
f 247/5/3 243/5/3 246/5/3
f 248/3/3 244/3/3 247/3/3
f 251/1/3 250/1/3 249/1/3
f 252/1/3 250/1/3 251/1/3
f 257/5/3 253/5/3 252/5/3
f 258/5/3 253/5/3 257/5/3
f 261/5/3 256/5/3 255/5/3
f 261/5/3 255/5/3 254/5/3
f 263/2/3 260/2/3 259/2/3
f 264/2/3 260/2/3 263/2/3
f 266/5/3 265/5/3 264/5/3
f 267/5/3 265/5/3 266/5/3
f 268/5/3 262/5/3 261/5/3
f 268/5/3 261/5/3 254/5/3
f 269/5/3 262/5/3 268/5/3
f 270/5/3 268/5/3 254/5/3
f 271/5/3 268/5/3 270/5/3
f 276/5/3 273/5/3 272/5/3
f 277/5/3 273/5/3 276/5/3
f 279/5/3 275/5/3 274/5/3
f 280/5/3 275/5/3 279/5/3
f 281/5/3 279/5/3 278/5/3
f 282/5/3 279/5/3 281/5/3
f 285/1/3 284/1/3 283/1/3
f 286/1/3 284/1/3 285/1/3
f 287/1/4 288/1/4 289/1/4
f 289/1/4 288/1/4 290/1/4
f 291/1/4 292/1/4 293/1/4
f 293/1/4 292/1/4 294/1/4
f 294/5/4 295/5/4 299/5/4
f 299/5/4 295/5/4 300/5/4
f 297/5/4 298/5/4 303/5/4
f 296/5/4 297/5/4 303/5/4
f 301/2/4 302/2/4 305/2/4
f 305/2/4 302/2/4 306/2/4
f 306/5/4 307/5/4 308/5/4
f 308/5/4 307/5/4 309/5/4
f 303/5/4 304/5/4 310/5/4
f 296/5/4 303/5/4 310/5/4
f 310/5/4 304/5/4 311/5/4
f 296/5/4 310/5/4 312/5/4
f 312/5/4 310/5/4 313/5/4
f 314/5/4 315/5/4 318/5/4
f 318/5/4 315/5/4 319/5/4
f 316/5/4 317/5/4 321/5/4
f 321/5/4 317/5/4 322/5/4
f 320/5/4 321/5/4 323/5/4
f 323/5/4 321/5/4 324/5/4
f 325/5/4 326/5/4 327/5/4
f 327/5/4 326/5/4 328/5/4
f 327/5/4 328/5/4 330/5/4
f 328/2/4 329/2/4 330/2/4
f 330/2/4 329/2/4 331/2/4
f 327/5/4 330/5/4 333/5/4
f 331/5/4 332/5/4 333/5/4
f 330/5/4 331/5/4 333/5/4
f 333/5/4 332/5/4 334/5/4
f 327/5/4 333/5/4 338/5/4
f 333/2/4 334/2/4 339/2/4
f 338/5/4 333/5/4 339/5/4
f 335/5/4 336/5/4 340/5/4
f 337/5/4 338/5/4 341/5/4
f 338/2/4 339/2/4 342/2/4
f 340/5/4 341/5/4 342/5/4
f 341/5/4 338/5/4 342/5/4
f 339/2/4 334/2/4 343/2/4
f 342/2/4 339/2/4 343/2/4
f 334/5/4 332/5/4 343/5/4
f 343/5/4 332/5/4 344/5/4
f 340/5/4 342/5/4 345/5/4
f 342/5/4 343/5/4 345/5/4
f 345/5/4 343/5/4 346/5/4
f 335/5/4 340/5/4 347/5/4
f 340/5/4 345/5/4 347/5/4
f 347/5/4 345/5/4 348/5/4
f 349/5/4 350/5/4 351/5/4
f 351/5/4 350/5/4 352/5/4
f 348/5/4 345/5/4 354/5/4
f 354/5/4 345/5/4 355/5/4
f 355/5/4 345/5/4 356/5/4
f 353/5/4 354/5/4 357/5/4
f 354/3/4 355/3/4 358/3/4
f 357/5/4 354/5/4 358/5/4
f 358/3/4 355/3/4 359/3/4
f 360/5/4 361/5/4 362/5/4
f 362/5/4 361/5/4 363/5/4
f 363/5/4 361/5/4 364/5/4
f 363/5/4 364/5/4 366/5/4
f 364/4/4 365/4/4 367/4/4
f 366/5/4 364/5/4 367/5/4
f 367/4/4 365/4/4 368/4/4
f 367/5/4 368/5/4 370/5/4
f 369/5/4 370/5/4 372/5/4
f 370/5/4 368/5/4 373/5/4
f 372/5/4 370/5/4 373/5/4
f 373/5/4 368/5/4 374/5/4
f 371/5/4 372/5/4 375/5/4
f 372/5/4 373/5/4 375/5/4
f 375/5/4 373/5/4 376/5/4
f 377/5/4 378/5/4 379/5/4
f 379/5/4 378/5/4 380/5/4
f 380/5/4 378/5/4 382/5/4
f 381/5/4 382/5/4 383/5/4
f 382/5/4 378/5/4 384/5/4
f 383/5/4 382/5/4 384/5/4
f 390/5/5 386/5/5 385/5/5
f 391/5/5 386/5/5 390/5/5
f 392/5/5 388/5/5 387/5/5
f 394/5/5 391/5/5 390/5/5
f 394/5/5 392/5/5 391/5/5
f 394/5/5 390/5/5 389/5/5
f 395/5/5 394/5/5 393/5/5
f 396/5/5 392/5/5 394/5/5
f 396/5/5 394/5/5 395/5/5
f 397/5/5 392/5/5 396/5/5
f 398/5/5 392/5/5 397/5/5
f 399/5/5 392/5/5 398/5/5
f 400/5/5 388/5/5 392/5/5
f 400/5/5 392/5/5 399/5/5
f 401/5/5 399/5/5 398/5/5
f 402/5/5 399/5/5 401/5/5
f 403/5/5 388/5/5 400/5/5
f 404/5/5 388/5/5 403/5/5
f 411/5/5 408/5/5 407/5/5
f 412/5/5 408/5/5 411/5/5
f 413/5/5 410/5/5 409/5/5
f 414/5/5 410/5/5 413/5/5
f 418/5/5 406/5/5 405/5/5
f 419/5/5 406/5/5 418/5/5
f 420/1/5 418/1/5 417/1/5
f 421/5/5 419/5/5 418/5/5
f 421/1/5 418/1/5 420/1/5
f 423/5/5 419/5/5 421/5/5
f 424/1/5 423/1/5 422/1/5
f 425/5/5 419/5/5 423/5/5
f 425/1/5 423/1/5 424/1/5
f 426/5/5 419/5/5 425/5/5
f 431/5/5 416/5/5 415/5/5
f 432/5/5 416/5/5 431/5/5
f 433/5/5 426/5/5 425/5/5
f 434/5/5 426/5/5 433/5/5
f 435/5/5 428/5/5 427/5/5
f 436/5/5 428/5/5 435/5/5
f 437/5/5 430/5/5 429/5/5
f 438/5/5 430/5/5 437/5/5
f 443/5/5 440/5/5 439/5/5
f 444/5/5 440/5/5 443/5/5
f 445/5/5 442/5/5 441/5/5
f 446/5/5 442/5/5 445/5/5
f 451/5/5 448/5/5 447/5/5
f 452/5/5 448/5/5 451/5/5
f 453/5/5 450/5/5 449/5/5
f 454/5/5 450/5/5 453/5/5
f 457/5/5 456/5/5 455/5/5
f 458/5/5 456/5/5 457/5/5
f 461/5/5 460/5/5 459/5/5
f 462/5/5 460/5/5 461/5/5
f 463/5/6 464/5/6 465/5/6
f 465/5/6 464/5/6 466/5/6
f 467/5/6 468/5/6 469/5/6
f 469/5/6 468/5/6 470/5/6
f 473/5/6 474/5/6 475/5/6
f 475/5/6 474/5/6 476/5/6
f 471/5/6 472/5/6 480/5/6
f 480/5/6 472/5/6 481/5/6
f 477/3/6 478/3/6 482/3/6
f 482/3/6 478/3/6 483/3/6
f 479/1/6 480/1/6 484/1/6
f 484/1/6 480/1/6 485/1/6
f 486/1/6 487/1/6 488/1/6
f 488/1/6 487/1/6 489/1/6
f 491/3/6 492/3/6 495/3/6
f 495/3/6 492/3/6 496/3/6
f 489/5/6 490/5/6 497/5/6
f 497/5/6 490/5/6 498/5/6
f 493/5/6 494/5/6 499/5/6
f 499/5/6 494/5/6 500/5/6
f 501/4/6 502/4/6 504/4/6
f 502/5/6 503/5/6 505/5/6
f 504/4/6 502/4/6 505/4/6
f 505/5/6 503/5/6 506/5/6
f 507/5/6 508/5/6 511/5/6
f 511/5/6 508/5/6 512/5/6
f 509/5/6 510/5/6 514/5/6
f 514/5/6 510/5/6 515/5/6
f 512/5/6 513/5/6 517/5/6
f 517/5/6 513/5/6 518/5/6
f 516/5/6 517/5/6 522/5/6
f 522/5/6 517/5/6 523/5/6
f 519/4/6 520/4/6 524/4/6
f 520/5/6 521/5/6 525/5/6
f 524/4/6 520/4/6 525/4/6
f 525/5/6 521/5/6 526/5/6
f 527/5/6 528/5/6 529/5/6
f 529/5/6 528/5/6 530/5/6
f 531/5/6 532/5/6 535/5/6
f 535/5/6 532/5/6 536/5/6
f 533/5/6 534/5/6 537/5/6
f 537/5/6 534/5/6 538/5/6
f 539/2/6 540/2/6 544/2/6
f 544/2/6 540/2/6 545/2/6
f 541/5/6 542/5/6 546/5/6
f 546/5/6 542/5/6 547/5/6
f 543/2/6 544/2/6 548/2/6
f 548/2/6 544/2/6 549/2/6
f 549/2/6 550/2/6 553/2/6
f 553/2/6 550/2/6 554/2/6
f 551/5/6 552/5/6 555/5/6
f 555/5/6 552/5/6 556/5/6
f 557/5/6 558/5/6 560/5/6
f 560/5/6 558/5/6 561/5/6
f 559/5/6 560/5/6 563/5/6
f 561/5/6 562/5/6 563/5/6
f 560/5/6 561/5/6 563/5/6
f 563/5/6 562/5/6 564/5/6
f 564/5/6 562/5/6 565/5/6
f 565/5/6 562/5/6 566/5/6
f 564/5/6 565/5/6 567/5/6
f 567/5/6 565/5/6 568/5/6
