{
	"asset":{
		"generator":"Khronos glTF Blender I/O v4.4.56",
		"version":"2.0"
	},
	"extensionsUsed":[
		"KHR_materials_specular"
	],
	"scene":0,
	"scenes":[
		{
			"name":"Scene",
			"nodes":[
				0
			]
		}
	],
	"nodes":[
		{
			"mesh":0,
			"name":"dirt-water-rounded-edge-inner-2_model"
		}
	],
	"materials":[
		{
			"doubleSided":true,
			"extensions":{
				"KHR_materials_specular":{
					"specularFactor":0
				}
			},
			"name":"palette",
			"pbrMetallicRoughness":{
				"baseColorTexture":{
					"index":0
				},
				"metallicFactor":0
			}
		}
	],
	"meshes":[
		{
			"name":"mesh",
			"primitives":[
				{
					"attributes":{
						"POSITION":0,
						"NORMAL":1,
						"TEXCOORD_0":2
					},
					"indices":3,
					"material":0
				}
			]
		}
	],
	"textures":[
		{
			"sampler":0,
			"source":0
		}
	],
	"images":[
		{
			"mimeType":"image/png",
			"name":"texture",
			"uri":"texture.png"
		}
	],
	"accessors":[
		{
			"bufferView":0,
			"componentType":5126,
			"count":1971,
			"max":[
				1.600000023841858,
				0.2000001221895218,
				1.600000023841858
			],
			"min":[
				-1.600000023841858,
				-1.2079664202246931e-07,
				-1.600000023841858
			],
			"type":"VEC3"
		},
		{
			"bufferView":1,
			"componentType":5126,
			"count":1971,
			"type":"VEC3"
		},
		{
			"bufferView":2,
			"componentType":5126,
			"count":1971,
			"type":"VEC2"
		},
		{
			"bufferView":3,
			"componentType":5123,
			"count":4470,
			"type":"SCALAR"
		}
	],
	"bufferViews":[
		{
			"buffer":0,
			"byteLength":23652,
			"byteOffset":0,
			"target":34962
		},
		{
			"buffer":0,
			"byteLength":23652,
			"byteOffset":23652,
			"target":34962
		},
		{
			"buffer":0,
			"byteLength":15768,
			"byteOffset":47304,
			"target":34962
		},
		{
			"buffer":0,
			"byteLength":8940,
			"byteOffset":63072,
			"target":34963
		}
	],
	"samplers":[
		{
			"magFilter":9729,
			"minFilter":9987
		}
	],
	"buffers":[
		{
			"byteLength":72012,
			"uri":"dirt-water-rounded-edge-inner-2.bin"
		}
	]
}
