# MagicaVoxel @ Ephtracy

# group
o 

# material
mtllib road-edgy-curve-4.mtl
usemtl palette

# normals
vn -1 0 0
vn 1 0 0
vn 0 0 1
vn 0 0 -1
vn 0 -1 0
vn 0 1 0

# texcoords
vt 0.970703 0.5
vt 0.974609 0.5

# verts
v -1.3 0 1.6
v -1.3 0 -1.3
v -1.3 0.1 1.6
v -1.3 0.1 -1.3
v 1.3 0 1.6
v 1.3 0 1.3
v 1.3 0.1 1.6
v 1.3 0.1 1.3
v 1.6 0 1.3
v 1.6 0 1.2
v 1.6 0 1.1
v 1.6 0 -1.1
v 1.6 0 -1.2
v 1.6 0 -1.3
v 1.6 0.1 1.3
v 1.6 0.1 1.2
v 1.6 0.1 1.1
v 1.6 0.1 -1.1
v 1.6 0.1 -1.2
v 1.6 0.1 -1.3
v -1.3 0 1.6
v -1.3 0.1 1.6
v -1.2 0 1.6
v -1.2 0.1 1.6
v -1.1 0 1.6
v -1.1 0.1 1.6
v 1.1 0 1.6
v 1.1 0.1 1.6
v 1.2 0 1.6
v 1.2 0.1 1.6
v 1.3 0 1.6
v 1.3 0.1 1.6
v 1.3 0 1.3
v 1.3 0.1 1.3
v 1.6 0 1.3
v 1.6 0.1 1.3
v -1.3 0 -1.3
v -1.3 0.1 -1.3
v 1.6 0 -1.3
v 1.6 0.1 -1.3
v -1.3 0 1.6
v -1.2 0 1.6
v -1.1 0 1.6
v 1.1 0 1.6
v 1.2 0 1.6
v 1.3 0 1.6
v 1.3 0 1.3
v 1.6 0 1.3
v 1.2 0 1.2
v 1.6 0 1.2
v 1.1 0 1.1
v 1.6 0 1.1
v -1.1 0 -1.1
v 1.6 0 -1.1
v -1.2 0 -1.2
v 1.6 0 -1.2
v -1.3 0 -1.3
v 1.6 0 -1.3
v -1.3 0.1 1.6
v -1.2 0.1 1.6
v -1.1 0.1 1.6
v 1.1 0.1 1.6
v 1.2 0.1 1.6
v 1.3 0.1 1.6
v 1.3 0.1 1.3
v 1.6 0.1 1.3
v 1.2 0.1 1.2
v 1.6 0.1 1.2
v 1.1 0.1 1.1
v 1.6 0.1 1.1
v -1.1 0.1 -1.1
v 1.6 0.1 -1.1
v -1.2 0.1 -1.2
v 1.6 0.1 -1.2
v -1.3 0.1 -1.3
v 1.6 0.1 -1.3

# faces
f 3/1/1 2/1/1 1/1/1
f 4/1/1 2/1/1 3/1/1
f 5/1/2 6/1/2 7/1/2
f 7/1/2 6/1/2 8/1/2
f 9/1/2 10/1/2 15/1/2
f 10/2/2 11/2/2 16/2/2
f 15/1/2 10/1/2 16/1/2
f 11/1/2 12/1/2 17/1/2
f 16/2/2 11/2/2 17/2/2
f 12/2/2 13/2/2 18/2/2
f 17/1/2 12/1/2 18/1/2
f 13/1/2 14/1/2 19/1/2
f 18/2/2 13/2/2 19/2/2
f 19/1/2 14/1/2 20/1/2
f 23/1/3 22/1/3 21/1/3
f 24/1/3 22/1/3 23/1/3
f 25/2/3 24/2/3 23/2/3
f 26/2/3 24/2/3 25/2/3
f 27/1/3 26/1/3 25/1/3
f 28/1/3 26/1/3 27/1/3
f 29/2/3 28/2/3 27/2/3
f 30/2/3 28/2/3 29/2/3
f 31/1/3 30/1/3 29/1/3
f 32/1/3 30/1/3 31/1/3
f 35/1/3 34/1/3 33/1/3
f 36/1/3 34/1/3 35/1/3
f 37/1/4 38/1/4 39/1/4
f 39/1/4 38/1/4 40/1/4
f 47/1/5 46/1/5 45/1/5
f 49/2/5 45/2/5 44/2/5
f 49/1/5 48/1/5 47/1/5
f 49/1/5 47/1/5 45/1/5
f 50/1/5 48/1/5 49/1/5
f 51/1/5 44/1/5 43/1/5
f 51/2/5 49/2/5 44/2/5
f 51/2/5 50/2/5 49/2/5
f 52/2/5 50/2/5 51/2/5
f 53/2/5 43/2/5 42/2/5
f 53/1/5 51/1/5 43/1/5
f 53/1/5 52/1/5 51/1/5
f 54/1/5 52/1/5 53/1/5
f 55/1/5 42/1/5 41/1/5
f 55/2/5 53/2/5 42/2/5
f 55/2/5 54/2/5 53/2/5
f 56/2/5 54/2/5 55/2/5
f 57/1/5 55/1/5 41/1/5
f 57/1/5 56/1/5 55/1/5
f 58/1/5 56/1/5 57/1/5
f 63/1/6 64/1/6 65/1/6
f 62/2/6 63/2/6 67/2/6
f 65/1/6 66/1/6 67/1/6
f 63/1/6 65/1/6 67/1/6
f 67/1/6 66/1/6 68/1/6
f 61/1/6 62/1/6 69/1/6
f 62/2/6 67/2/6 69/2/6
f 67/2/6 68/2/6 69/2/6
f 69/2/6 68/2/6 70/2/6
f 60/2/6 61/2/6 71/2/6
f 61/1/6 69/1/6 71/1/6
f 69/1/6 70/1/6 71/1/6
f 71/1/6 70/1/6 72/1/6
f 59/1/6 60/1/6 73/1/6
f 60/2/6 71/2/6 73/2/6
f 71/2/6 72/2/6 73/2/6
f 73/2/6 72/2/6 74/2/6
f 59/1/6 73/1/6 75/1/6
f 73/1/6 74/1/6 75/1/6
f 75/1/6 74/1/6 76/1/6
