# MagicaVoxel @ Ephtracy

# group
o 

# material
mtllib road-rounded-curve-2.mtl
usemtl palette

# normals
vn -1 0 0
vn 1 0 0
vn 0 0 1
vn 0 0 -1
vn 0 -1 0
vn 0 1 0

# texcoords
vt 0.970703 0.5
vt 0.974609 0.5

# verts
v -1.3 0 1.6
v -1.3 0 -0.1
v -1.3 0.1 1.6
v -1.3 0.1 -0.1
v -1.2 0 -0.1
v -1.2 0 -0.4
v -1.2 0.1 -0.1
v -1.2 0.1 -0.4
v -1.1 0 -0.4
v -1.1 0 -0.6
v -1.1 0.1 -0.4
v -1.1 0.1 -0.6
v -1 0 -0.6
v -1 0 -0.7
v -1 0.1 -0.6
v -1 0.1 -0.7
v -0.9 0 -0.7
v -0.9 0 -0.8
v -0.9 0.1 -0.7
v -0.9 0.1 -0.8
v -0.8 0 -0.8
v -0.8 0 -0.9
v -0.8 0.1 -0.8
v -0.8 0.1 -0.9
v -0.7 0 -0.9
v -0.7 0 -1
v -0.7 0.1 -0.9
v -0.7 0.1 -1
v -0.6 0 -1
v -0.6 0 -1.1
v -0.6 0.1 -1
v -0.6 0.1 -1.1
v -0.4 0 -1.1
v -0.4 0 -1.2
v -0.4 0.1 -1.1
v -0.4 0.1 -1.2
v -0.0999999 0 -1.2
v -0.0999999 0 -1.3
v -0.0999999 0.1 -1.2
v -0.0999999 0.1 -1.3
v 1.3 0 1.6
v 1.3 0 1.4
v 1.3 0.1 1.6
v 1.3 0.1 1.4
v 1.4 0 1.4
v 1.4 0 1.3
v 1.4 0.1 1.4
v 1.4 0.1 1.3
v 1.6 0 1.3
v 1.6 0 1.2
v 1.6 0 1.1
v 1.6 0 0.1
v 1.6 0 -0.1
v 1.6 0 -1.1
v 1.6 0 -1.2
v 1.6 0 -1.3
v 1.6 0.1 1.3
v 1.6 0.1 1.2
v 1.6 0.1 1.1
v 1.6 0.1 0.1
v 1.6 0.1 -0.1
v 1.6 0.1 -1.1
v 1.6 0.1 -1.2
v 1.6 0.1 -1.3
v -1.3 0 1.6
v -1.3 0.1 1.6
v -1.2 0 1.6
v -1.2 0.1 1.6
v -1.1 0 1.6
v -1.1 0.1 1.6
v -0.0999999 0 1.6
v -0.0999999 0.1 1.6
v 0.1 0 1.6
v 0.1 0.1 1.6
v 1.1 0 1.6
v 1.1 0.1 1.6
v 1.2 0 1.6
v 1.2 0.1 1.6
v 1.3 0 1.6
v 1.3 0.1 1.6
v 1.3 0 1.4
v 1.3 0.1 1.4
v 1.4 0 1.4
v 1.4 0.1 1.4
v 1.4 0 1.3
v 1.4 0.1 1.3
v 1.6 0 1.3
v 1.6 0.1 1.3
v -1.3 0 -0.1
v -1.3 0.1 -0.1
v -1.2 0 -0.1
v -1.2 0.1 -0.1
v -1.2 0 -0.4
v -1.2 0.1 -0.4
v -1.1 0 -0.4
v -1.1 0.1 -0.4
v -1.1 0 -0.6
v -1.1 0.1 -0.6
v -1 0 -0.6
v -1 0.1 -0.6
v -1 0 -0.7
v -1 0.1 -0.7
v -0.9 0 -0.7
v -0.9 0.1 -0.7
v -0.9 0 -0.8
v -0.9 0.1 -0.8
v -0.8 0 -0.8
v -0.8 0.1 -0.8
v -0.8 0 -0.9
v -0.8 0.1 -0.9
v -0.7 0 -0.9
v -0.7 0.1 -0.9
v -0.7 0 -1
v -0.7 0.1 -1
v -0.6 0 -1
v -0.6 0.1 -1
v -0.6 0 -1.1
v -0.6 0.1 -1.1
v -0.4 0 -1.1
v -0.4 0.1 -1.1
v -0.4 0 -1.2
v -0.4 0.1 -1.2
v -0.0999999 0 -1.2
v -0.0999999 0.1 -1.2
v -0.0999999 0 -1.3
v -0.0999999 0.1 -1.3
v 1.6 0 -1.3
v 1.6 0.1 -1.3
v -1.3 0 1.6
v -1.2 0 1.6
v -1.1 0 1.6
v -0.0999999 0 1.6
v 0.1 0 1.6
v 1.1 0 1.6
v 1.2 0 1.6
v 1.3 0 1.6
v 1.3 0 1.4
v 1.4 0 1.4
v 1.1 0 1.3
v 1.2 0 1.3
v 1.3 0 1.3
v 1.4 0 1.3
v 1.6 0 1.3
v 1.2 0 1.2
v 1.3 0 1.2
v 1.6 0 1.2
v 1.3 0 1.1
v 1.6 0 1.1
v -0.0999999 0 0.5
v 0 0 0.5
v 0.1 0 0.5
v 0.2 0 0.5
v 0.2 0 0.4
v 0.3 0 0.4
v 0 0 0.3
v 0.1 0 0.3
v 0.3 0 0.3
v 0.4 0 0.3
v 0.1 0 0.2
v 0.2 0 0.2
v 0.4 0 0.2
v 0.5 0 0.2
v 0.2 0 0.1
v 0.3 0 0.1
v 0.5 0 0.1
v 1.6 0 0.1
v -1.2 0 0
v -1.1 0 0
v -1 0 0
v 0.3 0 0
v 0.5 0 0
v -1.3 0 -0.1
v -1.2 0 -0.1
v 0.5 0 -0.1
v 1.6 0 -0.1
v -1.1 0 -0.3
v -1 0 -0.3
v -0.9 0 -0.3
v -1.2 0 -0.4
v -1.1 0 -0.4
v -1 0 -0.5
v -0.9 0 -0.5
v -0.8 0 -0.5
v -1.1 0 -0.6
v -1 0 -0.6
v -0.9 0 -0.6
v -0.8 0 -0.6
v -0.7 0 -0.6
v -1 0 -0.7
v -0.9 0 -0.7
v -0.8 0 -0.7
v -0.7 0 -0.7
v -0.6 0 -0.7
v -0.9 0 -0.8
v -0.8 0 -0.8
v -0.7 0 -0.8
v -0.6 0 -0.8
v -0.5 0 -0.8
v -0.8 0 -0.9
v -0.7 0 -0.9
v -0.6 0 -0.9
v -0.5 0 -0.9
v -0.3 0 -0.9
v -0.7 0 -1
v -0.6 0 -1
v -0.5 0 -1
v -0.3 0 -1
v 0 0 -1
v -0.6 0 -1.1
v -0.4 0 -1.1
v -0.3 0 -1.1
v 0 0 -1.1
v 1.6 0 -1.1
v -0.4 0 -1.2
v -0.0999999 0 -1.2
v 0 0 -1.2
v 1.6 0 -1.2
v -0.0999999 0 -1.3
v 1.6 0 -1.3
v -1.3 0.1 1.6
v -1.2 0.1 1.6
v -1.1 0.1 1.6
v -0.0999999 0.1 1.6
v 0.1 0.1 1.6
v 1.1 0.1 1.6
v 1.2 0.1 1.6
v 1.3 0.1 1.6
v 1.3 0.1 1.4
v 1.4 0.1 1.4
v 1.1 0.1 1.3
v 1.2 0.1 1.3
v 1.3 0.1 1.3
v 1.4 0.1 1.3
v 1.6 0.1 1.3
v 1.2 0.1 1.2
v 1.3 0.1 1.2
v 1.6 0.1 1.2
v 1.3 0.1 1.1
v 1.6 0.1 1.1
v -0.0999999 0.1 0.5
v 0 0.1 0.5
v 0.1 0.1 0.5
v 0.2 0.1 0.5
v 0.2 0.1 0.4
v 0.3 0.1 0.4
v 0 0.1 0.3
v 0.1 0.1 0.3
v 0.3 0.1 0.3
v 0.4 0.1 0.3
v 0.1 0.1 0.2
v 0.2 0.1 0.2
v 0.4 0.1 0.2
v 0.5 0.1 0.2
v 0.2 0.1 0.1
v 0.3 0.1 0.1
v 0.5 0.1 0.1
v 1.6 0.1 0.1
v -1.2 0.1 0
v -1.1 0.1 0
v -1 0.1 0
v 0.3 0.1 0
v 0.5 0.1 0
v -1.3 0.1 -0.1
v -1.2 0.1 -0.1
v 0.5 0.1 -0.1
v 1.6 0.1 -0.1
v -1.1 0.1 -0.3
v -1 0.1 -0.3
v -0.9 0.1 -0.3
v -1.2 0.1 -0.4
v -1.1 0.1 -0.4
v -1 0.1 -0.5
v -0.9 0.1 -0.5
v -0.8 0.1 -0.5
v -1.1 0.1 -0.6
v -1 0.1 -0.6
v -0.9 0.1 -0.6
v -0.8 0.1 -0.6
v -0.7 0.1 -0.6
v -1 0.1 -0.7
v -0.9 0.1 -0.7
v -0.8 0.1 -0.7
v -0.7 0.1 -0.7
v -0.6 0.1 -0.7
v -0.9 0.1 -0.8
v -0.8 0.1 -0.8
v -0.7 0.1 -0.8
v -0.6 0.1 -0.8
v -0.5 0.1 -0.8
v -0.8 0.1 -0.9
v -0.7 0.1 -0.9
v -0.6 0.1 -0.9
v -0.5 0.1 -0.9
v -0.3 0.1 -0.9
v -0.7 0.1 -1
v -0.6 0.1 -1
v -0.5 0.1 -1
v -0.3 0.1 -1
v 0 0.1 -1
v -0.6 0.1 -1.1
v -0.4 0.1 -1.1
v -0.3 0.1 -1.1
v 0 0.1 -1.1
v 1.6 0.1 -1.1
v -0.4 0.1 -1.2
v -0.0999999 0.1 -1.2
v 0 0.1 -1.2
v 1.6 0.1 -1.2
v -0.0999999 0.1 -1.3
v 1.6 0.1 -1.3

# faces
f 3/1/1 2/1/1 1/1/1
f 4/1/1 2/1/1 3/1/1
f 7/1/1 6/1/1 5/1/1
f 8/1/1 6/1/1 7/1/1
f 11/1/1 10/1/1 9/1/1
f 12/1/1 10/1/1 11/1/1
f 15/1/1 14/1/1 13/1/1
f 16/1/1 14/1/1 15/1/1
f 19/1/1 18/1/1 17/1/1
f 20/1/1 18/1/1 19/1/1
f 23/1/1 22/1/1 21/1/1
f 24/1/1 22/1/1 23/1/1
f 27/1/1 26/1/1 25/1/1
f 28/1/1 26/1/1 27/1/1
f 31/1/1 30/1/1 29/1/1
f 32/1/1 30/1/1 31/1/1
f 35/1/1 34/1/1 33/1/1
f 36/1/1 34/1/1 35/1/1
f 39/1/1 38/1/1 37/1/1
f 40/1/1 38/1/1 39/1/1
f 41/1/2 42/1/2 43/1/2
f 43/1/2 42/1/2 44/1/2
f 45/1/2 46/1/2 47/1/2
f 47/1/2 46/1/2 48/1/2
f 49/1/2 50/1/2 57/1/2
f 50/2/2 51/2/2 58/2/2
f 57/1/2 50/1/2 58/1/2
f 51/1/2 52/1/2 59/1/2
f 58/2/2 51/2/2 59/2/2
f 52/2/2 53/2/2 60/2/2
f 59/1/2 52/1/2 60/1/2
f 53/1/2 54/1/2 61/1/2
f 60/2/2 53/2/2 61/2/2
f 54/2/2 55/2/2 62/2/2
f 61/1/2 54/1/2 62/1/2
f 55/1/2 56/1/2 63/1/2
f 62/2/2 55/2/2 63/2/2
f 63/1/2 56/1/2 64/1/2
f 67/1/3 66/1/3 65/1/3
f 68/1/3 66/1/3 67/1/3
f 69/2/3 68/2/3 67/2/3
f 70/2/3 68/2/3 69/2/3
f 71/1/3 70/1/3 69/1/3
f 72/1/3 70/1/3 71/1/3
f 73/2/3 72/2/3 71/2/3
f 74/2/3 72/2/3 73/2/3
f 75/1/3 74/1/3 73/1/3
f 76/1/3 74/1/3 75/1/3
f 77/2/3 76/2/3 75/2/3
f 78/2/3 76/2/3 77/2/3
f 79/1/3 78/1/3 77/1/3
f 80/1/3 78/1/3 79/1/3
f 83/1/3 82/1/3 81/1/3
f 84/1/3 82/1/3 83/1/3
f 87/1/3 86/1/3 85/1/3
f 88/1/3 86/1/3 87/1/3
f 89/1/4 90/1/4 91/1/4
f 91/1/4 90/1/4 92/1/4
f 93/1/4 94/1/4 95/1/4
f 95/1/4 94/1/4 96/1/4
f 97/1/4 98/1/4 99/1/4
f 99/1/4 98/1/4 100/1/4
f 101/1/4 102/1/4 103/1/4
f 103/1/4 102/1/4 104/1/4
f 105/1/4 106/1/4 107/1/4
f 107/1/4 106/1/4 108/1/4
f 109/1/4 110/1/4 111/1/4
f 111/1/4 110/1/4 112/1/4
f 113/1/4 114/1/4 115/1/4
f 115/1/4 114/1/4 116/1/4
f 117/1/4 118/1/4 119/1/4
f 119/1/4 118/1/4 120/1/4
f 121/1/4 122/1/4 123/1/4
f 123/1/4 122/1/4 124/1/4
f 125/1/4 126/1/4 127/1/4
f 127/1/4 126/1/4 128/1/4
f 137/1/5 136/1/5 135/1/5
f 139/1/5 134/1/5 133/1/5
f 139/2/5 135/2/5 134/2/5
f 140/1/5 138/1/5 137/1/5
f 140/2/5 135/2/5 139/2/5
f 140/1/5 137/1/5 135/1/5
f 141/1/5 138/1/5 140/1/5
f 142/1/5 138/1/5 141/1/5
f 144/1/5 140/1/5 139/1/5
f 144/2/5 141/2/5 140/2/5
f 145/1/5 143/1/5 142/1/5
f 145/2/5 141/2/5 144/2/5
f 145/1/5 142/1/5 141/1/5
f 146/1/5 143/1/5 145/1/5
f 147/1/5 145/1/5 144/1/5
f 147/2/5 146/2/5 145/2/5
f 148/2/5 146/2/5 147/2/5
f 149/1/5 132/1/5 131/1/5
f 149/2/5 133/2/5 132/2/5
f 150/2/5 133/2/5 149/2/5
f 151/1/5 148/1/5 147/1/5
f 151/2/5 133/2/5 150/2/5
f 151/1/5 139/1/5 133/1/5
f 151/1/5 144/1/5 139/1/5
f 151/1/5 147/1/5 144/1/5
f 152/1/5 148/1/5 151/1/5
f 153/2/5 151/2/5 150/2/5
f 153/1/5 148/1/5 152/1/5
f 153/2/5 152/2/5 151/2/5
f 154/1/5 148/1/5 153/1/5
f 155/1/5 150/1/5 149/1/5
f 155/2/5 153/2/5 150/2/5
f 155/2/5 154/2/5 153/2/5
f 156/2/5 154/2/5 155/2/5
f 157/1/5 148/1/5 154/1/5
f 157/2/5 154/2/5 156/2/5
f 158/1/5 148/1/5 157/1/5
f 159/1/5 156/1/5 155/1/5
f 159/2/5 157/2/5 156/2/5
f 159/2/5 158/2/5 157/2/5
f 160/2/5 158/2/5 159/2/5
f 161/1/5 148/1/5 158/1/5
f 161/2/5 158/2/5 160/2/5
f 162/1/5 148/1/5 161/1/5
f 163/1/5 160/1/5 159/1/5
f 163/2/5 161/2/5 160/2/5
f 163/2/5 162/2/5 161/2/5
f 164/2/5 162/2/5 163/2/5
f 165/1/5 148/1/5 162/1/5
f 165/2/5 162/2/5 164/2/5
f 166/1/5 148/1/5 165/1/5
f 167/1/5 130/1/5 129/1/5
f 167/2/5 131/2/5 130/2/5
f 168/1/5 164/1/5 163/1/5
f 168/2/5 131/2/5 167/2/5
f 168/1/5 149/1/5 131/1/5
f 168/1/5 155/1/5 149/1/5
f 168/1/5 163/1/5 159/1/5
f 168/1/5 159/1/5 155/1/5
f 169/1/5 164/1/5 168/1/5
f 170/2/5 166/2/5 165/2/5
f 170/1/5 164/1/5 169/1/5
f 170/2/5 165/2/5 164/2/5
f 171/2/5 166/2/5 170/2/5
f 172/1/5 167/1/5 129/1/5
f 172/1/5 168/1/5 167/1/5
f 173/1/5 168/1/5 172/1/5
f 174/2/5 166/2/5 171/2/5
f 174/1/5 171/1/5 170/1/5
f 174/1/5 170/1/5 169/1/5
f 175/2/5 166/2/5 174/2/5
f 176/2/5 169/2/5 168/2/5
f 176/1/5 168/1/5 173/1/5
f 177/1/5 175/1/5 174/1/5
f 177/2/5 169/2/5 176/2/5
f 177/1/5 174/1/5 169/1/5
f 178/1/5 175/1/5 177/1/5
f 179/1/5 176/1/5 173/1/5
f 179/1/5 177/1/5 176/1/5
f 180/1/5 177/1/5 179/1/5
f 181/2/5 178/2/5 177/2/5
f 181/1/5 177/1/5 180/1/5
f 182/1/5 175/1/5 178/1/5
f 182/2/5 178/2/5 181/2/5
f 183/1/5 175/1/5 182/1/5
f 184/1/5 181/1/5 180/1/5
f 184/1/5 182/1/5 181/1/5
f 185/1/5 182/1/5 184/1/5
f 186/2/5 183/2/5 182/2/5
f 186/1/5 182/1/5 185/1/5
f 187/1/5 175/1/5 183/1/5
f 187/2/5 183/2/5 186/2/5
f 188/1/5 175/1/5 187/1/5
f 189/1/5 186/1/5 185/1/5
f 189/1/5 187/1/5 186/1/5
f 190/1/5 187/1/5 189/1/5
f 191/2/5 188/2/5 187/2/5
f 191/1/5 187/1/5 190/1/5
f 192/1/5 175/1/5 188/1/5
f 192/2/5 188/2/5 191/2/5
f 193/1/5 175/1/5 192/1/5
f 194/1/5 191/1/5 190/1/5
f 194/1/5 192/1/5 191/1/5
f 195/1/5 192/1/5 194/1/5
f 196/2/5 193/2/5 192/2/5
f 196/1/5 192/1/5 195/1/5
f 197/1/5 175/1/5 193/1/5
f 197/2/5 193/2/5 196/2/5
f 198/1/5 175/1/5 197/1/5
f 199/1/5 196/1/5 195/1/5
f 199/1/5 197/1/5 196/1/5
f 200/1/5 197/1/5 199/1/5
f 201/2/5 198/2/5 197/2/5
f 201/1/5 197/1/5 200/1/5
f 202/1/5 175/1/5 198/1/5
f 202/2/5 198/2/5 201/2/5
f 203/1/5 175/1/5 202/1/5
f 204/1/5 201/1/5 200/1/5
f 204/1/5 202/1/5 201/1/5
f 205/1/5 202/1/5 204/1/5
f 206/2/5 203/2/5 202/2/5
f 206/1/5 202/1/5 205/1/5
f 207/1/5 175/1/5 203/1/5
f 207/2/5 203/2/5 206/2/5
f 208/1/5 175/1/5 207/1/5
f 209/1/5 206/1/5 205/1/5
f 209/1/5 207/1/5 206/1/5
f 210/1/5 207/1/5 209/1/5
f 211/2/5 208/2/5 207/2/5
f 211/1/5 207/1/5 210/1/5
f 212/1/5 175/1/5 208/1/5
f 212/2/5 208/2/5 211/2/5
f 213/1/5 175/1/5 212/1/5
f 214/1/5 211/1/5 210/1/5
f 214/1/5 212/1/5 211/1/5
f 215/1/5 212/1/5 214/1/5
f 216/2/5 213/2/5 212/2/5
f 216/1/5 212/1/5 215/1/5
f 217/2/5 213/2/5 216/2/5
f 218/1/5 216/1/5 215/1/5
f 218/1/5 217/1/5 216/1/5
f 219/1/5 217/1/5 218/1/5
f 226/1/6 227/1/6 228/1/6
f 224/1/6 225/1/6 230/1/6
f 225/2/6 226/2/6 230/2/6
f 228/1/6 229/1/6 231/1/6
f 230/2/6 226/2/6 231/2/6
f 226/1/6 228/1/6 231/1/6
f 231/1/6 229/1/6 232/1/6
f 232/1/6 229/1/6 233/1/6
f 230/1/6 231/1/6 235/1/6
f 231/2/6 232/2/6 235/2/6
f 233/1/6 234/1/6 236/1/6
f 235/2/6 232/2/6 236/2/6
f 232/1/6 233/1/6 236/1/6
f 236/1/6 234/1/6 237/1/6
f 235/1/6 236/1/6 238/1/6
f 236/2/6 237/2/6 238/2/6
f 238/2/6 237/2/6 239/2/6
f 222/1/6 223/1/6 240/1/6
f 223/2/6 224/2/6 240/2/6
f 240/2/6 224/2/6 241/2/6
f 238/1/6 239/1/6 242/1/6
f 241/2/6 224/2/6 242/2/6
f 224/1/6 230/1/6 242/1/6
f 230/1/6 235/1/6 242/1/6
f 235/1/6 238/1/6 242/1/6
f 242/1/6 239/1/6 243/1/6
f 241/2/6 242/2/6 244/2/6
f 243/1/6 239/1/6 244/1/6
f 242/2/6 243/2/6 244/2/6
f 244/1/6 239/1/6 245/1/6
f 240/1/6 241/1/6 246/1/6
f 241/2/6 244/2/6 246/2/6
f 244/2/6 245/2/6 246/2/6
f 246/2/6 245/2/6 247/2/6
f 245/1/6 239/1/6 248/1/6
f 247/2/6 245/2/6 248/2/6
f 248/1/6 239/1/6 249/1/6
f 246/1/6 247/1/6 250/1/6
f 247/2/6 248/2/6 250/2/6
f 248/2/6 249/2/6 250/2/6
f 250/2/6 249/2/6 251/2/6
f 249/1/6 239/1/6 252/1/6
f 251/2/6 249/2/6 252/2/6
f 252/1/6 239/1/6 253/1/6
f 250/1/6 251/1/6 254/1/6
f 251/2/6 252/2/6 254/2/6
f 252/2/6 253/2/6 254/2/6
f 254/2/6 253/2/6 255/2/6
f 253/1/6 239/1/6 256/1/6
f 255/2/6 253/2/6 256/2/6
f 256/1/6 239/1/6 257/1/6
f 220/1/6 221/1/6 258/1/6
f 221/2/6 222/2/6 258/2/6
f 254/1/6 255/1/6 259/1/6
f 258/2/6 222/2/6 259/2/6
f 222/1/6 240/1/6 259/1/6
f 240/1/6 246/1/6 259/1/6
f 250/1/6 254/1/6 259/1/6
f 246/1/6 250/1/6 259/1/6
f 259/1/6 255/1/6 260/1/6
f 256/2/6 257/2/6 261/2/6
f 260/1/6 255/1/6 261/1/6
f 255/2/6 256/2/6 261/2/6
f 261/2/6 257/2/6 262/2/6
f 220/1/6 258/1/6 263/1/6
f 258/1/6 259/1/6 263/1/6
f 263/1/6 259/1/6 264/1/6
f 262/2/6 257/2/6 265/2/6
f 261/1/6 262/1/6 265/1/6
f 260/1/6 261/1/6 265/1/6
f 265/2/6 257/2/6 266/2/6
f 259/2/6 260/2/6 267/2/6
f 264/1/6 259/1/6 267/1/6
f 265/1/6 266/1/6 268/1/6
f 267/2/6 260/2/6 268/2/6
f 260/1/6 265/1/6 268/1/6
f 268/1/6 266/1/6 269/1/6
f 264/1/6 267/1/6 270/1/6
f 267/1/6 268/1/6 270/1/6
f 270/1/6 268/1/6 271/1/6
f 268/2/6 269/2/6 272/2/6
f 271/1/6 268/1/6 272/1/6
f 269/1/6 266/1/6 273/1/6
f 272/2/6 269/2/6 273/2/6
f 273/1/6 266/1/6 274/1/6
f 271/1/6 272/1/6 275/1/6
f 272/1/6 273/1/6 275/1/6
f 275/1/6 273/1/6 276/1/6
f 273/2/6 274/2/6 277/2/6
f 276/1/6 273/1/6 277/1/6
f 274/1/6 266/1/6 278/1/6
f 277/2/6 274/2/6 278/2/6
f 278/1/6 266/1/6 279/1/6
f 276/1/6 277/1/6 280/1/6
f 277/1/6 278/1/6 280/1/6
f 280/1/6 278/1/6 281/1/6
f 278/2/6 279/2/6 282/2/6
f 281/1/6 278/1/6 282/1/6
f 279/1/6 266/1/6 283/1/6
f 282/2/6 279/2/6 283/2/6
f 283/1/6 266/1/6 284/1/6
f 281/1/6 282/1/6 285/1/6
f 282/1/6 283/1/6 285/1/6
f 285/1/6 283/1/6 286/1/6
f 283/2/6 284/2/6 287/2/6
f 286/1/6 283/1/6 287/1/6
f 284/1/6 266/1/6 288/1/6
f 287/2/6 284/2/6 288/2/6
f 288/1/6 266/1/6 289/1/6
f 286/1/6 287/1/6 290/1/6
f 287/1/6 288/1/6 290/1/6
f 290/1/6 288/1/6 291/1/6
f 288/2/6 289/2/6 292/2/6
f 291/1/6 288/1/6 292/1/6
f 289/1/6 266/1/6 293/1/6
f 292/2/6 289/2/6 293/2/6
f 293/1/6 266/1/6 294/1/6
f 291/1/6 292/1/6 295/1/6
f 292/1/6 293/1/6 295/1/6
f 295/1/6 293/1/6 296/1/6
f 293/2/6 294/2/6 297/2/6
f 296/1/6 293/1/6 297/1/6
f 294/1/6 266/1/6 298/1/6
f 297/2/6 294/2/6 298/2/6
f 298/1/6 266/1/6 299/1/6
f 296/1/6 297/1/6 300/1/6
f 297/1/6 298/1/6 300/1/6
f 300/1/6 298/1/6 301/1/6
f 298/2/6 299/2/6 302/2/6
f 301/1/6 298/1/6 302/1/6
f 299/1/6 266/1/6 303/1/6
f 302/2/6 299/2/6 303/2/6
f 303/1/6 266/1/6 304/1/6
f 301/1/6 302/1/6 305/1/6
f 302/1/6 303/1/6 305/1/6
f 305/1/6 303/1/6 306/1/6
f 303/2/6 304/2/6 307/2/6
f 306/1/6 303/1/6 307/1/6
f 307/2/6 304/2/6 308/2/6
f 306/1/6 307/1/6 309/1/6
f 307/1/6 308/1/6 309/1/6
f 309/1/6 308/1/6 310/1/6
