# MagicaVoxel @ Ephtracy

# group
o 

# material
mtllib road-rounded-dead-end-2.mtl
usemtl palette

# normals
vn -1 0 0
vn 1 0 0
vn 0 0 1
vn 0 0 -1
vn 0 -1 0
vn 0 1 0

# texcoords
vt 0.970703 0.5
vt 0.974609 0.5

# verts
v -1.3 0 0.7
v -1.3 0 -0.7
v -1.3 0.1 0.7
v -1.3 0.1 -0.7
v -1.2 0 0.9
v -1.2 0 0.7
v -1.2 0 -0.7
v -1.2 0 -0.9
v -1.2 0.1 0.9
v -1.2 0.1 0.7
v -1.2 0.1 -0.7
v -1.2 0.1 -0.9
v -1.1 0 1
v -1.1 0 0.9
v -1.1 0 -0.9
v -1.1 0 -1
v -1.1 0.1 1
v -1.1 0.1 0.9
v -1.1 0.1 -0.9
v -1.1 0.1 -1
v -1 0 1.1
v -1 0 1
v -1 0 -1
v -1 0 -1.1
v -1 0.1 1.1
v -1 0.1 1
v -1 0.1 -1
v -1 0.1 -1.1
v -0.9 0 1.2
v -0.9 0 1.1
v -0.9 0 -1.1
v -0.9 0 -1.2
v -0.9 0.1 1.2
v -0.9 0.1 1.1
v -0.9 0.1 -1.1
v -0.9 0.1 -1.2
v -0.7 0 1.3
v -0.7 0 1.2
v -0.7 0 -1.2
v -0.7 0 -1.3
v -0.7 0.1 1.3
v -0.7 0.1 1.2
v -0.7 0.1 -1.2
v -0.7 0.1 -1.3
v 1.6 0 1.3
v 1.6 0 1.2
v 1.6 0 1.1
v 1.6 0 -1.1
v 1.6 0 -1.2
v 1.6 0 -1.3
v 1.6 0.1 1.3
v 1.6 0.1 1.2
v 1.6 0.1 1.1
v 1.6 0.1 -1.1
v 1.6 0.1 -1.2
v 1.6 0.1 -1.3
v -0.7 0 1.3
v -0.7 0.1 1.3
v 1.6 0 1.3
v 1.6 0.1 1.3
v -0.9 0 1.2
v -0.9 0.1 1.2
v -0.7 0 1.2
v -0.7 0.1 1.2
v -1 0 1.1
v -1 0.1 1.1
v -0.9 0 1.1
v -0.9 0.1 1.1
v -1.1 0 1
v -1.1 0.1 1
v -1 0 1
v -1 0.1 1
v -1.2 0 0.9
v -1.2 0.1 0.9
v -1.1 0 0.9
v -1.1 0.1 0.9
v -1.3 0 0.7
v -1.3 0.1 0.7
v -1.2 0 0.7
v -1.2 0.1 0.7
v -1.3 0 -0.7
v -1.3 0.1 -0.7
v -1.2 0 -0.7
v -1.2 0.1 -0.7
v -1.2 0 -0.9
v -1.2 0.1 -0.9
v -1.1 0 -0.9
v -1.1 0.1 -0.9
v -1.1 0 -1
v -1.1 0.1 -1
v -1 0 -1
v -1 0.1 -1
v -1 0 -1.1
v -1 0.1 -1.1
v -0.9 0 -1.1
v -0.9 0.1 -1.1
v -0.9 0 -1.2
v -0.9 0.1 -1.2
v -0.7 0 -1.2
v -0.7 0.1 -1.2
v -0.7 0 -1.3
v -0.7 0.1 -1.3
v 1.6 0 -1.3
v 1.6 0.1 -1.3
v -0.7 0 1.3
v 1.6 0 1.3
v -0.9 0 1.2
v -0.7 0 1.2
v -0.6 0 1.2
v 1.6 0 1.2
v -1 0 1.1
v -0.9 0 1.1
v -0.8 0 1.1
v -0.6 0 1.1
v 1.6 0 1.1
v -1.1 0 1
v -1 0 1
v -0.9 0 1
v -0.8 0 1
v -0.6 0 1
v -1.2 0 0.9
v -1.1 0 0.9
v -1 0 0.9
v -0.9 0 0.9
v -0.8 0 0.9
v -1.1 0 0.8
v -1 0 0.8
v -0.9 0 0.8
v -1.3 0 0.7
v -1.2 0 0.7
v -1.2 0 0.6
v -1.1 0 0.6
v -1 0 0.6
v -1.2 0 -0.6
v -1.1 0 -0.6
v -1 0 -0.6
v -1.3 0 -0.7
v -1.2 0 -0.7
v -1.1 0 -0.8
v -1 0 -0.8
v -0.9 0 -0.8
v -1.2 0 -0.9
v -1.1 0 -0.9
v -1 0 -0.9
v -0.9 0 -0.9
v -0.8 0 -0.9
v -1.1 0 -1
v -1 0 -1
v -0.9 0 -1
v -0.8 0 -1
v -0.6 0 -1
v -1 0 -1.1
v -0.9 0 -1.1
v -0.8 0 -1.1
v -0.6 0 -1.1
v 1.6 0 -1.1
v -0.9 0 -1.2
v -0.7 0 -1.2
v -0.6 0 -1.2
v 1.6 0 -1.2
v -0.7 0 -1.3
v 1.6 0 -1.3
v -0.7 0.1 1.3
v 1.6 0.1 1.3
v -0.9 0.1 1.2
v -0.7 0.1 1.2
v -0.6 0.1 1.2
v 1.6 0.1 1.2
v -1 0.1 1.1
v -0.9 0.1 1.1
v -0.8 0.1 1.1
v -0.6 0.1 1.1
v 1.6 0.1 1.1
v -1.1 0.1 1
v -1 0.1 1
v -0.9 0.1 1
v -0.8 0.1 1
v -0.6 0.1 1
v -1.2 0.1 0.9
v -1.1 0.1 0.9
v -1 0.1 0.9
v -0.9 0.1 0.9
v -0.8 0.1 0.9
v -1.1 0.1 0.8
v -1 0.1 0.8
v -0.9 0.1 0.8
v -1.3 0.1 0.7
v -1.2 0.1 0.7
v -1.2 0.1 0.6
v -1.1 0.1 0.6
v -1 0.1 0.6
v -1.2 0.1 -0.6
v -1.1 0.1 -0.6
v -1 0.1 -0.6
v -1.3 0.1 -0.7
v -1.2 0.1 -0.7
v -1.1 0.1 -0.8
v -1 0.1 -0.8
v -0.9 0.1 -0.8
v -1.2 0.1 -0.9
v -1.1 0.1 -0.9
v -1 0.1 -0.9
v -0.9 0.1 -0.9
v -0.8 0.1 -0.9
v -1.1 0.1 -1
v -1 0.1 -1
v -0.9 0.1 -1
v -0.8 0.1 -1
v -0.6 0.1 -1
v -1 0.1 -1.1
v -0.9 0.1 -1.1
v -0.8 0.1 -1.1
v -0.6 0.1 -1.1
v 1.6 0.1 -1.1
v -0.9 0.1 -1.2
v -0.7 0.1 -1.2
v -0.6 0.1 -1.2
v 1.6 0.1 -1.2
v -0.7 0.1 -1.3
v 1.6 0.1 -1.3

# faces
f 3/1/1 2/1/1 1/1/1
f 4/1/1 2/1/1 3/1/1
f 9/1/1 6/1/1 5/1/1
f 10/1/1 6/1/1 9/1/1
f 11/1/1 8/1/1 7/1/1
f 12/1/1 8/1/1 11/1/1
f 17/1/1 14/1/1 13/1/1
f 18/1/1 14/1/1 17/1/1
f 19/1/1 16/1/1 15/1/1
f 20/1/1 16/1/1 19/1/1
f 25/1/1 22/1/1 21/1/1
f 26/1/1 22/1/1 25/1/1
f 27/1/1 24/1/1 23/1/1
f 28/1/1 24/1/1 27/1/1
f 33/1/1 30/1/1 29/1/1
f 34/1/1 30/1/1 33/1/1
f 35/1/1 32/1/1 31/1/1
f 36/1/1 32/1/1 35/1/1
f 41/1/1 38/1/1 37/1/1
f 42/1/1 38/1/1 41/1/1
f 43/1/1 40/1/1 39/1/1
f 44/1/1 40/1/1 43/1/1
f 45/1/2 46/1/2 51/1/2
f 46/2/2 47/2/2 52/2/2
f 51/1/2 46/1/2 52/1/2
f 47/1/2 48/1/2 53/1/2
f 52/2/2 47/2/2 53/2/2
f 48/2/2 49/2/2 54/2/2
f 53/1/2 48/1/2 54/1/2
f 49/1/2 50/1/2 55/1/2
f 54/2/2 49/2/2 55/2/2
f 55/1/2 50/1/2 56/1/2
f 59/1/3 58/1/3 57/1/3
f 60/1/3 58/1/3 59/1/3
f 63/1/3 62/1/3 61/1/3
f 64/1/3 62/1/3 63/1/3
f 67/1/3 66/1/3 65/1/3
f 68/1/3 66/1/3 67/1/3
f 71/1/3 70/1/3 69/1/3
f 72/1/3 70/1/3 71/1/3
f 75/1/3 74/1/3 73/1/3
f 76/1/3 74/1/3 75/1/3
f 79/1/3 78/1/3 77/1/3
f 80/1/3 78/1/3 79/1/3
f 81/1/4 82/1/4 83/1/4
f 83/1/4 82/1/4 84/1/4
f 85/1/4 86/1/4 87/1/4
f 87/1/4 86/1/4 88/1/4
f 89/1/4 90/1/4 91/1/4
f 91/1/4 90/1/4 92/1/4
f 93/1/4 94/1/4 95/1/4
f 95/1/4 94/1/4 96/1/4
f 97/1/4 98/1/4 99/1/4
f 99/1/4 98/1/4 100/1/4
f 101/1/4 102/1/4 103/1/4
f 103/1/4 102/1/4 104/1/4
f 108/1/5 106/1/5 105/1/5
f 109/1/5 106/1/5 108/1/5
f 110/1/5 106/1/5 109/1/5
f 112/1/5 108/1/5 107/1/5
f 112/1/5 109/1/5 108/1/5
f 113/1/5 109/1/5 112/1/5
f 114/2/5 110/2/5 109/2/5
f 114/1/5 109/1/5 113/1/5
f 115/2/5 110/2/5 114/2/5
f 117/1/5 113/1/5 112/1/5
f 117/1/5 112/1/5 111/1/5
f 118/1/5 113/1/5 117/1/5
f 119/2/5 114/2/5 113/2/5
f 119/1/5 113/1/5 118/1/5
f 120/1/5 115/1/5 114/1/5
f 120/2/5 114/2/5 119/2/5
f 122/1/5 118/1/5 117/1/5
f 122/1/5 117/1/5 116/1/5
f 123/1/5 118/1/5 122/1/5
f 124/2/5 119/2/5 118/2/5
f 124/1/5 118/1/5 123/1/5
f 125/1/5 120/1/5 119/1/5
f 125/2/5 119/2/5 124/2/5
f 126/1/5 123/1/5 122/1/5
f 126/1/5 122/1/5 121/1/5
f 127/2/5 124/2/5 123/2/5
f 127/1/5 123/1/5 126/1/5
f 128/1/5 125/1/5 124/1/5
f 128/2/5 124/2/5 127/2/5
f 130/1/5 126/1/5 121/1/5
f 131/1/5 126/1/5 130/1/5
f 131/1/5 130/1/5 129/1/5
f 132/2/5 127/2/5 126/2/5
f 132/1/5 126/1/5 131/1/5
f 133/1/5 128/1/5 127/1/5
f 133/2/5 127/2/5 132/2/5
f 134/1/5 131/1/5 129/1/5
f 134/2/5 132/2/5 131/2/5
f 135/1/5 133/1/5 132/1/5
f 135/2/5 132/2/5 134/2/5
f 136/1/5 128/1/5 133/1/5
f 136/1/5 133/1/5 135/1/5
f 137/1/5 135/1/5 134/1/5
f 137/1/5 134/1/5 129/1/5
f 138/1/5 135/1/5 137/1/5
f 139/2/5 136/2/5 135/2/5
f 139/1/5 135/1/5 138/1/5
f 140/1/5 128/1/5 136/1/5
f 140/2/5 136/2/5 139/2/5
f 141/1/5 125/1/5 128/1/5
f 141/1/5 128/1/5 140/1/5
f 142/1/5 140/1/5 139/1/5
f 142/1/5 139/1/5 138/1/5
f 143/1/5 140/1/5 142/1/5
f 144/2/5 141/2/5 140/2/5
f 144/1/5 140/1/5 143/1/5
f 145/1/5 125/1/5 141/1/5
f 145/2/5 141/2/5 144/2/5
f 146/1/5 120/1/5 125/1/5
f 146/1/5 125/1/5 145/1/5
f 147/1/5 145/1/5 144/1/5
f 147/1/5 144/1/5 143/1/5
f 148/1/5 145/1/5 147/1/5
f 149/2/5 146/2/5 145/2/5
f 149/1/5 145/1/5 148/1/5
f 150/1/5 120/1/5 146/1/5
f 150/2/5 146/2/5 149/2/5
f 151/1/5 115/1/5 120/1/5
f 151/1/5 120/1/5 150/1/5
f 152/1/5 149/1/5 148/1/5
f 152/1/5 150/1/5 149/1/5
f 153/1/5 150/1/5 152/1/5
f 154/2/5 151/2/5 150/2/5
f 154/1/5 150/1/5 153/1/5
f 155/1/5 115/1/5 151/1/5
f 155/2/5 151/2/5 154/2/5
f 156/1/5 115/1/5 155/1/5
f 157/1/5 154/1/5 153/1/5
f 157/1/5 155/1/5 154/1/5
f 158/1/5 155/1/5 157/1/5
f 159/2/5 156/2/5 155/2/5
f 159/1/5 155/1/5 158/1/5
f 160/2/5 156/2/5 159/2/5
f 161/1/5 159/1/5 158/1/5
f 161/1/5 160/1/5 159/1/5
f 162/1/5 160/1/5 161/1/5
f 163/1/6 164/1/6 166/1/6
f 166/1/6 164/1/6 167/1/6
f 167/1/6 164/1/6 168/1/6
f 165/1/6 166/1/6 170/1/6
f 166/1/6 167/1/6 170/1/6
f 170/1/6 167/1/6 171/1/6
f 167/2/6 168/2/6 172/2/6
f 171/1/6 167/1/6 172/1/6
f 172/2/6 168/2/6 173/2/6
f 170/1/6 171/1/6 175/1/6
f 169/1/6 170/1/6 175/1/6
f 175/1/6 171/1/6 176/1/6
f 171/2/6 172/2/6 177/2/6
f 176/1/6 171/1/6 177/1/6
f 172/1/6 173/1/6 178/1/6
f 177/2/6 172/2/6 178/2/6
f 175/1/6 176/1/6 180/1/6
f 174/1/6 175/1/6 180/1/6
f 180/1/6 176/1/6 181/1/6
f 176/2/6 177/2/6 182/2/6
f 181/1/6 176/1/6 182/1/6
f 177/1/6 178/1/6 183/1/6
f 182/2/6 177/2/6 183/2/6
f 180/1/6 181/1/6 184/1/6
f 179/1/6 180/1/6 184/1/6
f 181/2/6 182/2/6 185/2/6
f 184/1/6 181/1/6 185/1/6
f 182/1/6 183/1/6 186/1/6
f 185/2/6 182/2/6 186/2/6
f 179/1/6 184/1/6 188/1/6
f 188/1/6 184/1/6 189/1/6
f 187/1/6 188/1/6 189/1/6
f 184/2/6 185/2/6 190/2/6
f 189/1/6 184/1/6 190/1/6
f 185/1/6 186/1/6 191/1/6
f 190/2/6 185/2/6 191/2/6
f 187/1/6 189/1/6 192/1/6
f 189/2/6 190/2/6 192/2/6
f 190/1/6 191/1/6 193/1/6
f 192/2/6 190/2/6 193/2/6
f 191/1/6 186/1/6 194/1/6
f 193/1/6 191/1/6 194/1/6
f 192/1/6 193/1/6 195/1/6
f 187/1/6 192/1/6 195/1/6
f 195/1/6 193/1/6 196/1/6
f 193/2/6 194/2/6 197/2/6
f 196/1/6 193/1/6 197/1/6
f 194/1/6 186/1/6 198/1/6
f 197/2/6 194/2/6 198/2/6
f 186/1/6 183/1/6 199/1/6
f 198/1/6 186/1/6 199/1/6
f 197/1/6 198/1/6 200/1/6
f 196/1/6 197/1/6 200/1/6
f 200/1/6 198/1/6 201/1/6
f 198/2/6 199/2/6 202/2/6
f 201/1/6 198/1/6 202/1/6
f 199/1/6 183/1/6 203/1/6
f 202/2/6 199/2/6 203/2/6
f 183/1/6 178/1/6 204/1/6
f 203/1/6 183/1/6 204/1/6
f 202/1/6 203/1/6 205/1/6
f 201/1/6 202/1/6 205/1/6
f 205/1/6 203/1/6 206/1/6
f 203/2/6 204/2/6 207/2/6
f 206/1/6 203/1/6 207/1/6
f 204/1/6 178/1/6 208/1/6
f 207/2/6 204/2/6 208/2/6
f 178/1/6 173/1/6 209/1/6
f 208/1/6 178/1/6 209/1/6
f 206/1/6 207/1/6 210/1/6
f 207/1/6 208/1/6 210/1/6
f 210/1/6 208/1/6 211/1/6
f 208/2/6 209/2/6 212/2/6
f 211/1/6 208/1/6 212/1/6
f 209/1/6 173/1/6 213/1/6
f 212/2/6 209/2/6 213/2/6
f 213/1/6 173/1/6 214/1/6
f 211/1/6 212/1/6 215/1/6
f 212/1/6 213/1/6 215/1/6
f 215/1/6 213/1/6 216/1/6
f 213/2/6 214/2/6 217/2/6
f 216/1/6 213/1/6 217/1/6
f 217/2/6 214/2/6 218/2/6
f 216/1/6 217/1/6 219/1/6
f 217/1/6 218/1/6 219/1/6
f 219/1/6 218/1/6 220/1/6
