# MagicaVoxel @ Ephtracy

# group
o 

# material
mtllib mountain-edge-outer-4.mtl
usemtl palette

# normals
vn -1 0 0
vn 1 0 0
vn 0 0 1
vn 0 0 -1
vn 0 -1 0
vn 0 1 0

# texcoords
vt 0.982422 0.5
vt 0.986328 0.5
vt 0.990234 0.5
vt 0.994141 0.5

# verts
v -0.4 0 0.4
v -0.4 0 -1.6
v -0.4 0.4 0.4
v -0.4 0.4 -0.3
v -0.4 0.5 -0.3
v -0.4 0.5 -1.6
v -0.3 0.4 0.3
v -0.3 0.4 -0.3
v -0.3 0.5 -0.3
v -0.3 0.5 -1.6
v -0.3 0.8 0.3
v -0.3 0.8 -0.2
v -0.3 0.8 -1.4
v -0.3 0.8 -1.6
v -0.3 0.9 -0.2
v -0.3 0.9 -0.5
v -0.3 0.9 -0.9
v -0.3 0.9 -1.4
v -0.3 1 -0.5
v -0.3 1 -0.9
v -0.2 0.8 0.2
v -0.2 0.8 -0.2
v -0.2 0.8 -1.4
v -0.2 0.8 -1.6
v -0.2 0.9 -0.2
v -0.2 0.9 -0.5
v -0.2 0.9 -0.9
v -0.2 0.9 -1.4
v -0.2 1 -0.5
v -0.2 1 -0.9
v -0.2 1.3 0.2
v -0.2 1.3 -1.6
v -0.1 1.3 0.1
v -0.1 1.3 -1.6
v -0.1 1.6 0.1
v -0.1 1.6 -0.3
v -0.1 1.6 -1.2
v -0.1 1.6 -1.6
v -0.1 1.7 -0.3
v -0.1 1.7 -1.2
v 0 1.6 0
v 0 1.6 -0.3
v 0 1.6 -1.2
v 0 1.6 -1.6
v 0 1.7 -0.3
v 0 1.7 -1.2
v 0 2 0
v 0 2 -0.3
v 0 2 -1.1
v 0 2 -1.5
v 0 2.1 -0.3
v 0 2.1 -0.5
v 0 2.1 -0.9
v 0 2.1 -1.1
v 0 2.1 -1.5
v 0 2.1 -1.6
v 0 2.2 -0.5
v 0 2.2 -0.9
v 0.1 2 -0.1
v 0.1 2 -0.3
v 0.1 2 -1.1
v 0.1 2 -1.5
v 0.1 2.1 -0.3
v 0.1 2.1 -0.5
v 0.1 2.1 -0.9
v 0.1 2.1 -1.1
v 0.1 2.1 -1.5
v 0.1 2.1 -1.6
v 0.1 2.2 -0.5
v 0.1 2.2 -0.9
v 0.1 2.3 -1.2
v 0.1 2.3 -1.6
v 0.1 2.4 -0.1
v 0.1 2.4 -1.2
v 0.2 2.3 -1.2
v 0.2 2.3 -1.6
v 0.2 2.4 -0.2
v 0.2 2.4 -1.2
v 0.2 2.7 -0.5
v 0.2 2.7 -1.2
v 0.2 2.8 -0.2
v 0.2 2.8 -0.5
v 0.2 2.8 -1.2
v 0.2 2.8 -1.5
v 0.2 2.9 -1.5
v 0.2 2.9 -1.6
v 0.3 2.7 -0.5
v 0.3 2.7 -1.2
v 0.3 2.8 -0.3
v 0.3 2.8 -0.5
v 0.3 2.8 -1.2
v 0.3 2.8 -1.5
v 0.3 2.9 -1.5
v 0.3 2.9 -1.6
v 0.3 3.2 -0.3
v 0.3 3.2 -1.6
v 0.4 2 0
v 0.4 2 -0.1
v 0.4 2.1 0
v 0.4 2.1 -0.1
v 0.6 0.8 0.3
v 0.6 0.8 0.2
v 0.6 0.9 0.3
v 0.6 0.9 0.2
v 1.2 0.3 0.4
v 1.2 0.3 0.3
v 1.2 0.4 0.4
v 1.2 0.4 0.3
v 1.5 0.4 0.4
v 1.5 0.4 0.3
v 1.5 0.5 0.4
v 1.5 0.5 0.3
v 1.5 1.1 0.2
v 1.5 1.1 0.1
v 1.5 1.2 0.2
v 1.5 1.2 0.1
v 0.4 1.2 0.2
v 0.4 1.2 0.1
v 0.4 1.3 0.2
v 0.4 1.3 0.1
v 0.5 0.3 0.4
v 0.5 0.3 0.3
v 0.5 0.4 0.4
v 0.5 0.4 0.3
v 0.7 1.1 0.2
v 0.7 1.1 0.1
v 0.7 1.2 0.2
v 0.7 1.2 0.1
v 1.1 1.5 0.1
v 1.1 1.5 0
v 1.1 1.6 0.1
v 1.1 1.6 0
v 1.3 2.7 -0.2
v 1.3 2.7 -0.3
v 1.3 2.8 -0.2
v 1.3 2.8 -0.3
v 1.6 0 0.4
v 1.6 0 -1.6
v 1.6 0.5 0.4
v 1.6 0.5 0.3
v 1.6 0.8 0.2
v 1.6 0.8 0
v 1.6 0.9 0.3
v 1.6 0.9 0.2
v 1.6 1.2 0.2
v 1.6 1.2 0.1
v 1.6 1.5 0.1
v 1.6 1.5 0
v 1.6 1.5 -0.1
v 1.6 1.6 -0.1
v 1.6 1.6 -0.2
v 1.6 2.1 0
v 1.6 2.1 -0.1
v 1.6 2.4 -0.1
v 1.6 2.4 -0.2
v 1.6 2.4 -1.6
v 1.6 2.7 -0.2
v 1.6 2.7 -0.3
v 1.6 3.2 -0.3
v 1.6 3.2 -1.6
v -0.4 0 0.4
v -0.4 0.4 0.4
v 0.5 0.3 0.4
v 0.5 0.4 0.4
v 1.2 0.3 0.4
v 1.2 0.4 0.4
v 1.5 0.4 0.4
v 1.5 0.5 0.4
v 1.6 0 0.4
v 1.6 0.5 0.4
v -0.3 0.4 0.3
v -0.3 0.8 0.3
v 0.5 0.3 0.3
v 0.5 0.4 0.3
v 0.6 0.8 0.3
v 0.6 0.9 0.3
v 1.2 0.3 0.3
v 1.2 0.4 0.3
v 1.5 0.4 0.3
v 1.5 0.5 0.3
v 1.6 0.5 0.3
v 1.6 0.9 0.3
v -0.2 0.8 0.2
v -0.2 1.3 0.2
v 0.4 1.2 0.2
v 0.4 1.3 0.2
v 0.6 0.8 0.2
v 0.6 0.9 0.2
v 0.7 1.1 0.2
v 0.7 1.2 0.2
v 1.5 1.1 0.2
v 1.5 1.2 0.2
v 1.6 0.9 0.2
v 1.6 1.2 0.2
v -0.1 1.3 0.1
v -0.1 1.6 0.1
v 0.4 1.2 0.1
v 0.4 1.3 0.1
v 0.7 1.1 0.1
v 0.7 1.2 0.1
v 1.1 1.5 0.1
v 1.1 1.6 0.1
v 1.5 1.1 0.1
v 1.5 1.2 0.1
v 1.6 1.2 0.1
v 1.6 1.5 0.1
v 0 1.6 0
v 0 2 0
v 0.4 2 0
v 0.4 2.1 0
v 1.1 1.5 0
v 1.1 1.6 0
v 1.6 1.5 0
v 1.6 2.1 0
v 0.1 2 -0.1
v 0.1 2.4 -0.1
v 0.4 2 -0.1
v 0.4 2.1 -0.1
v 1.6 2.1 -0.1
v 1.6 2.4 -0.1
v -0.3 0.8 -0.2
v -0.3 0.9 -0.2
v -0.2 0.8 -0.2
v -0.2 0.9 -0.2
v 0.2 2.4 -0.2
v 0.2 2.8 -0.2
v 1.3 2.7 -0.2
v 1.3 2.8 -0.2
v 1.6 2.4 -0.2
v 1.6 2.7 -0.2
v -0.4 0.4 -0.3
v -0.4 0.5 -0.3
v -0.3 0.4 -0.3
v -0.3 0.5 -0.3
v -0.1 1.6 -0.3
v -0.1 1.7 -0.3
v 0 1.6 -0.3
v 0 1.7 -0.3
v 0 2 -0.3
v 0 2.1 -0.3
v 0.1 2 -0.3
v 0.1 2.1 -0.3
v 0.3 2.8 -0.3
v 0.3 3.2 -0.3
v 1.3 2.7 -0.3
v 1.3 2.8 -0.3
v 1.6 2.7 -0.3
v 1.6 3.2 -0.3
v -0.3 0.9 -0.5
v -0.3 1 -0.5
v -0.2 0.9 -0.5
v -0.2 1 -0.5
v 0 2.1 -0.5
v 0 2.2 -0.5
v 0.1 2.1 -0.5
v 0.1 2.2 -0.5
v 0.2 2.7 -1.2
v 0.2 2.8 -1.2
v 0.3 2.7 -1.2
v 0.3 2.8 -1.2
v 0 2 -1.5
v 0 2.1 -1.5
v 0.1 2 -1.5
v 0.1 2.1 -1.5
v 0.2 2.8 -1.5
v 0.2 2.9 -1.5
v 0.3 2.8 -1.5
v 0.3 2.9 -1.5
v 0.2 2.7 -0.5
v 0.2 2.8 -0.5
v 0.3 2.7 -0.5
v 0.3 2.8 -0.5
v -0.3 0.9 -0.9
v -0.3 1 -0.9
v -0.2 0.9 -0.9
v -0.2 1 -0.9
v 0 2.1 -0.9
v 0 2.2 -0.9
v 0.1 2.1 -0.9
v 0.1 2.2 -0.9
v 0 2 -1.1
v 0 2.1 -1.1
v 0.1 2 -1.1
v 0.1 2.1 -1.1
v -0.1 1.6 -1.2
v -0.1 1.7 -1.2
v 0 1.6 -1.2
v 0 1.7 -1.2
v 0.1 2.3 -1.2
v 0.1 2.4 -1.2
v 0.2 2.3 -1.2
v 0.2 2.4 -1.2
v -0.3 0.8 -1.4
v -0.3 0.9 -1.4
v -0.2 0.8 -1.4
v -0.2 0.9 -1.4
v -0.4 0 -1.6
v -0.4 0.5 -1.6
v -0.3 0.5 -1.6
v -0.3 0.8 -1.6
v -0.2 0.8 -1.6
v -0.2 1.3 -1.6
v -0.1 1.3 -1.6
v -0.1 1.6 -1.6
v 0 0.8 -1.6
v 0 1.6 -1.6
v 0 2.1 -1.6
v 0.1 2.1 -1.6
v 0.1 2.3 -1.6
v 0.2 1.6 -1.6
v 0.2 2.3 -1.6
v 0.2 2.9 -1.6
v 0.3 2.3 -1.6
v 0.3 2.4 -1.6
v 0.3 2.9 -1.6
v 0.3 3.2 -1.6
v 1.6 0 -1.6
v 1.6 2.4 -1.6
v 1.6 3.2 -1.6
v -0.4 0 0.4
v 1.6 0 0.4
v -0.4 0 -1.6
v 1.6 0 -1.6
v 0.5 0.3 0.4
v 1.2 0.3 0.4
v 0.5 0.3 0.3
v 1.2 0.3 0.3
v -0.4 0.4 0.4
v 0.5 0.4 0.4
v 1.2 0.4 0.4
v 1.5 0.4 0.4
v -0.3 0.4 0.3
v 0.5 0.4 0.3
v 1.2 0.4 0.3
v 1.5 0.4 0.3
v -0.4 0.4 -0.3
v -0.3 0.4 -0.3
v 1.5 0.5 0.4
v 1.6 0.5 0.4
v 1.5 0.5 0.3
v 1.6 0.5 0.3
v -0.4 0.5 -0.3
v -0.3 0.5 -0.3
v -0.4 0.5 -1.6
v -0.3 0.5 -1.6
v -0.3 0.8 0.3
v 0.6 0.8 0.3
v -0.2 0.8 0.2
v 0.6 0.8 0.2
v -0.3 0.8 -0.2
v -0.2 0.8 -0.2
v -0.3 0.8 -1.4
v -0.2 0.8 -1.4
v -0.3 0.8 -1.6
v -0.2 0.8 -1.6
v 0.6 0.9 0.3
v 1.6 0.9 0.3
v 0.6 0.9 0.2
v 1.6 0.9 0.2
v -0.3 0.9 -0.2
v -0.2 0.9 -0.2
v -0.3 0.9 -0.5
v -0.2 0.9 -0.5
v -0.3 0.9 -0.9
v -0.2 0.9 -0.9
v -0.3 0.9 -1.4
v -0.2 0.9 -1.4
v -0.3 1 -0.5
v -0.2 1 -0.5
v -0.3 1 -0.9
v -0.2 1 -0.9
v 0.7 1.1 0.2
v 1.5 1.1 0.2
v 0.7 1.1 0.1
v 1.5 1.1 0.1
v 0.4 1.2 0.2
v 0.7 1.2 0.2
v 1.5 1.2 0.2
v 1.6 1.2 0.2
v 0.4 1.2 0.1
v 0.7 1.2 0.1
v 1.5 1.2 0.1
v 1.6 1.2 0.1
v -0.2 1.3 0.2
v 0.4 1.3 0.2
v -0.1 1.3 0.1
v 0.4 1.3 0.1
v -0.2 1.3 -1.6
v -0.1 1.3 -1.6
v 1.1 1.5 0.1
v 1.6 1.5 0.1
v 1.1 1.5 0
v 1.6 1.5 0
v -0.1 1.6 0.1
v 1.1 1.6 0.1
v 0 1.6 0
v 1.1 1.6 0
v -0.1 1.6 -0.3
v 0 1.6 -0.3
v -0.1 1.6 -1.2
v 0 1.6 -1.2
v -0.1 1.6 -1.6
v 0 1.6 -1.6
v -0.1 1.7 -0.3
v 0 1.7 -0.3
v -0.1 1.7 -1.2
v 0 1.7 -1.2
v 0 2 0
v 0.4 2 0
v 0.1 2 -0.1
v 0.4 2 -0.1
v 0 2 -0.3
v 0.1 2 -0.3
v 0 2 -1.1
v 0.1 2 -1.1
v 0 2 -1.5
v 0.1 2 -1.5
v 0.4 2.1 0
v 1.6 2.1 0
v 0.4 2.1 -0.1
v 1.6 2.1 -0.1
v 0 2.1 -0.3
v 0.1 2.1 -0.3
v 0 2.1 -0.5
v 0.1 2.1 -0.5
v 0 2.1 -0.9
v 0.1 2.1 -0.9
v 0 2.1 -1.1
v 0.1 2.1 -1.1
v 0 2.1 -1.5
v 0.1 2.1 -1.5
v 0 2.1 -1.6
v 0.1 2.1 -1.6
v 0 2.2 -0.5
v 0.1 2.2 -0.5
v 0 2.2 -0.9
v 0.1 2.2 -0.9
v 0.1 2.3 -1.2
v 0.2 2.3 -1.2
v 0.1 2.3 -1.6
v 0.2 2.3 -1.6
v 0.1 2.4 -0.1
v 1.6 2.4 -0.1
v 0.2 2.4 -0.2
v 1.6 2.4 -0.2
v 0.1 2.4 -1.2
v 0.2 2.4 -1.2
v 1.3 2.7 -0.2
v 1.6 2.7 -0.2
v 1.3 2.7 -0.3
v 1.6 2.7 -0.3
v 0.2 2.7 -0.5
v 0.3 2.7 -0.5
v 0.2 2.7 -1.2
v 0.3 2.7 -1.2
v 0.2 2.8 -0.2
v 1.3 2.8 -0.2
v 0.3 2.8 -0.3
v 1.3 2.8 -0.3
v 0.2 2.8 -0.5
v 0.3 2.8 -0.5
v 0.2 2.8 -1.2
v 0.3 2.8 -1.2
v 0.2 2.8 -1.5
v 0.3 2.8 -1.5
v 0.2 2.9 -1.5
v 0.3 2.9 -1.5
v 0.2 2.9 -1.6
v 0.3 2.9 -1.6
v 0.3 3.2 -0.3
v 1.6 3.2 -0.3
v 0.3 3.2 -1.6
v 1.6 3.2 -1.6

# faces
f 3/4/1 2/4/1 1/4/1
f 4/4/1 2/4/1 3/4/1
f 5/4/1 2/4/1 4/4/1
f 6/4/1 2/4/1 5/4/1
f 9/4/1 8/4/1 7/4/1
f 11/4/1 9/4/1 7/4/1
f 11/4/1 10/4/1 9/4/1
f 12/4/1 10/4/1 11/4/1
f 13/4/1 10/4/1 12/4/1
f 14/4/1 10/4/1 13/4/1
f 15/4/1 13/4/1 12/4/1
f 16/4/1 13/4/1 15/4/1
f 17/4/1 13/4/1 16/4/1
f 18/4/1 13/4/1 17/4/1
f 19/4/1 17/4/1 16/4/1
f 20/4/1 17/4/1 19/4/1
f 25/3/1 22/3/1 21/3/1
f 28/3/1 24/3/1 23/3/1
f 29/3/1 26/3/1 25/3/1
f 30/3/1 28/3/1 27/3/1
f 31/3/1 29/3/1 25/3/1
f 31/3/1 30/3/1 29/3/1
f 31/3/1 25/3/1 21/3/1
f 32/3/1 28/3/1 30/3/1
f 32/3/1 30/3/1 31/3/1
f 32/3/1 24/3/1 28/3/1
f 35/3/1 34/3/1 33/3/1
f 36/3/1 34/3/1 35/3/1
f 37/3/1 34/3/1 36/3/1
f 38/3/1 34/3/1 37/3/1
f 39/3/1 37/3/1 36/3/1
f 40/3/1 37/3/1 39/3/1
f 45/2/1 42/2/1 41/2/1
f 46/2/1 44/2/1 43/2/1
f 47/2/1 45/2/1 41/2/1
f 47/2/1 46/2/1 45/2/1
f 48/2/1 46/2/1 47/2/1
f 49/2/1 46/2/1 48/2/1
f 50/2/1 44/2/1 46/2/1
f 50/2/1 46/2/1 49/2/1
f 51/2/1 49/2/1 48/2/1
f 52/2/1 49/2/1 51/2/1
f 53/2/1 49/2/1 52/2/1
f 54/2/1 49/2/1 53/2/1
f 55/2/1 44/2/1 50/2/1
f 56/2/1 44/2/1 55/2/1
f 57/2/1 53/2/1 52/2/1
f 58/2/1 53/2/1 57/2/1
f 63/2/1 60/2/1 59/2/1
f 66/2/1 62/2/1 61/2/1
f 67/2/1 62/2/1 66/2/1
f 69/2/1 64/2/1 63/2/1
f 70/2/1 68/2/1 67/2/1
f 70/2/1 66/2/1 65/2/1
f 70/2/1 67/2/1 66/2/1
f 71/2/1 68/2/1 70/2/1
f 71/2/1 70/2/1 69/2/1
f 72/2/1 68/2/1 71/2/1
f 73/2/1 69/2/1 63/2/1
f 73/2/1 63/2/1 59/2/1
f 73/2/1 71/2/1 69/2/1
f 74/2/1 71/2/1 73/2/1
f 78/1/1 76/1/1 75/1/1
f 79/1/1 78/1/1 77/1/1
f 80/1/1 76/1/1 78/1/1
f 80/1/1 78/1/1 79/1/1
f 81/1/1 79/1/1 77/1/1
f 82/1/1 79/1/1 81/1/1
f 83/1/1 76/1/1 80/1/1
f 84/1/1 76/1/1 83/1/1
f 85/1/1 76/1/1 84/1/1
f 86/1/1 76/1/1 85/1/1
f 90/1/1 88/1/1 87/1/1
f 91/1/1 88/1/1 90/1/1
f 93/1/1 90/1/1 89/1/1
f 93/1/1 92/1/1 91/1/1
f 93/1/1 91/1/1 90/1/1
f 95/1/1 93/1/1 89/1/1
f 95/1/1 94/1/1 93/1/1
f 96/1/1 94/1/1 95/1/1
f 99/2/1 98/2/1 97/2/1
f 100/2/1 98/2/1 99/2/1
f 103/4/1 102/4/1 101/4/1
f 104/4/1 102/4/1 103/4/1
f 107/4/1 106/4/1 105/4/1
f 108/4/1 106/4/1 107/4/1
f 111/4/1 110/4/1 109/4/1
f 112/4/1 110/4/1 111/4/1
f 115/3/1 114/3/1 113/3/1
f 116/3/1 114/3/1 115/3/1
f 117/3/2 118/3/2 119/3/2
f 119/3/2 118/3/2 120/3/2
f 121/4/2 122/4/2 123/4/2
f 123/4/2 122/4/2 124/4/2
f 125/3/2 126/3/2 127/3/2
f 127/3/2 126/3/2 128/3/2
f 129/3/2 130/3/2 131/3/2
f 131/3/2 130/3/2 132/3/2
f 133/1/2 134/1/2 135/1/2
f 135/1/2 134/1/2 136/1/2
f 137/4/2 138/4/2 139/4/2
f 139/4/2 138/4/2 140/4/2
f 140/4/2 138/4/2 141/4/2
f 141/4/2 138/4/2 142/4/2
f 140/4/2 141/4/2 143/4/2
f 141/3/2 142/3/2 144/3/2
f 143/4/2 141/4/2 144/4/2
f 144/3/2 142/3/2 145/3/2
f 145/3/2 142/3/2 146/3/2
f 146/3/2 142/3/2 147/3/2
f 142/4/2 138/4/2 148/4/2
f 147/3/2 142/3/2 148/3/2
f 148/4/2 138/4/2 149/4/2
f 149/4/2 138/4/2 150/4/2
f 148/2/2 149/2/2 150/2/2
f 150/4/2 138/4/2 151/4/2
f 148/2/2 150/2/2 152/2/2
f 150/2/2 151/2/2 152/2/2
f 152/2/2 151/2/2 153/2/2
f 153/2/2 151/2/2 154/2/2
f 151/4/2 138/4/2 155/4/2
f 154/2/2 151/2/2 155/2/2
f 155/4/2 138/4/2 156/4/2
f 155/1/2 156/1/2 157/1/2
f 157/1/2 156/1/2 158/1/2
f 158/1/2 156/1/2 159/1/2
f 159/1/2 156/1/2 160/1/2
f 163/4/3 162/4/3 161/4/3
f 164/4/3 162/4/3 163/4/3
f 165/4/3 163/4/3 161/4/3
f 167/4/3 166/4/3 165/4/3
f 169/4/3 167/4/3 165/4/3
f 169/4/3 168/4/3 167/4/3
f 169/4/3 165/4/3 161/4/3
f 170/4/3 168/4/3 169/4/3
f 174/4/3 172/4/3 171/4/3
f 175/4/3 172/4/3 174/4/3
f 175/4/3 174/4/3 173/4/3
f 177/4/3 175/4/3 173/4/3
f 177/4/3 176/4/3 175/4/3
f 178/4/3 176/4/3 177/4/3
f 179/4/3 176/4/3 178/4/3
f 180/4/3 176/4/3 179/4/3
f 181/4/3 176/4/3 180/4/3
f 182/4/3 176/4/3 181/4/3
f 185/3/3 184/3/3 183/3/3
f 186/3/3 184/3/3 185/3/3
f 187/3/3 185/3/3 183/3/3
f 188/3/3 185/3/3 187/3/3
f 189/3/3 185/3/3 188/3/3
f 190/3/3 185/3/3 189/3/3
f 191/3/3 189/3/3 188/3/3
f 193/3/3 191/3/3 188/3/3
f 193/3/3 192/3/3 191/3/3
f 194/3/3 192/3/3 193/3/3
f 198/3/3 196/3/3 195/3/3
f 200/3/3 198/3/3 197/3/3
f 201/3/3 196/3/3 198/3/3
f 201/3/3 200/3/3 199/3/3
f 201/3/3 198/3/3 200/3/3
f 202/3/3 196/3/3 201/3/3
f 203/3/3 201/3/3 199/3/3
f 204/3/3 201/3/3 203/3/3
f 205/3/3 201/3/3 204/3/3
f 206/3/3 201/3/3 205/3/3
f 209/2/3 208/2/3 207/2/3
f 212/2/3 209/2/3 207/2/3
f 212/2/3 210/2/3 209/2/3
f 213/2/3 212/2/3 211/2/3
f 214/2/3 210/2/3 212/2/3
f 214/2/3 212/2/3 213/2/3
f 217/2/3 216/2/3 215/2/3
f 218/2/3 216/2/3 217/2/3
f 219/2/3 216/2/3 218/2/3
f 220/2/3 216/2/3 219/2/3
f 223/4/3 222/4/3 221/4/3
f 224/4/3 222/4/3 223/4/3
f 227/1/3 226/1/3 225/1/3
f 228/1/3 226/1/3 227/1/3
f 229/1/3 227/1/3 225/1/3
f 230/1/3 227/1/3 229/1/3
f 233/4/3 232/4/3 231/4/3
f 234/4/3 232/4/3 233/4/3
f 237/3/3 236/3/3 235/3/3
f 238/3/3 236/3/3 237/3/3
f 241/2/3 240/2/3 239/2/3
f 242/2/3 240/2/3 241/2/3
f 246/1/3 244/1/3 243/1/3
f 247/1/3 246/1/3 245/1/3
f 248/1/3 244/1/3 246/1/3
f 248/1/3 246/1/3 247/1/3
f 251/4/3 250/4/3 249/4/3
f 252/4/3 250/4/3 251/4/3
f 255/2/3 254/2/3 253/2/3
f 256/2/3 254/2/3 255/2/3
f 259/1/3 258/1/3 257/1/3
f 260/1/3 258/1/3 259/1/3
f 263/2/3 262/2/3 261/2/3
f 264/2/3 262/2/3 263/2/3
f 267/1/3 266/1/3 265/1/3
f 268/1/3 266/1/3 267/1/3
f 269/1/4 270/1/4 271/1/4
f 271/1/4 270/1/4 272/1/4
f 273/4/4 274/4/4 275/4/4
f 275/4/4 274/4/4 276/4/4
f 277/2/4 278/2/4 279/2/4
f 279/2/4 278/2/4 280/2/4
f 281/2/4 282/2/4 283/2/4
f 283/2/4 282/2/4 284/2/4
f 285/3/4 286/3/4 287/3/4
f 287/3/4 286/3/4 288/3/4
f 289/2/4 290/2/4 291/2/4
f 291/2/4 290/2/4 292/2/4
f 293/4/4 294/4/4 295/4/4
f 295/4/4 294/4/4 296/4/4
f 297/4/4 298/4/4 299/4/4
f 299/4/4 300/4/4 301/4/4
f 301/3/4 302/3/4 303/3/4
f 299/4/4 301/4/4 305/4/4
f 303/3/4 304/3/4 305/3/4
f 301/3/4 303/3/4 305/3/4
f 305/3/4 304/3/4 306/3/4
f 306/2/4 307/2/4 308/2/4
f 305/4/4 306/4/4 310/4/4
f 308/2/4 309/2/4 310/2/4
f 306/2/4 308/2/4 310/2/4
f 310/2/4 309/2/4 311/2/4
f 310/4/4 311/4/4 313/4/4
f 311/1/4 312/1/4 313/1/4
f 313/1/4 312/1/4 314/1/4
f 314/1/4 312/1/4 315/1/4
f 297/4/4 299/4/4 317/4/4
f 299/4/4 305/4/4 317/4/4
f 305/4/4 310/4/4 317/4/4
f 313/4/4 314/4/4 317/4/4
f 310/4/4 313/4/4 317/4/4
f 315/1/4 316/1/4 318/1/4
f 317/4/4 314/4/4 318/4/4
f 314/1/4 315/1/4 318/1/4
f 318/1/4 316/1/4 319/1/4
f 322/4/5 321/4/5 320/4/5
f 323/4/5 321/4/5 322/4/5
f 324/4/6 325/4/6 326/4/6
f 326/4/6 325/4/6 327/4/6
f 328/4/6 329/4/6 332/4/6
f 332/4/6 329/4/6 333/4/6
f 330/4/6 331/4/6 334/4/6
f 334/4/6 331/4/6 335/4/6
f 328/4/6 332/4/6 336/4/6
f 336/4/6 332/4/6 337/4/6
f 338/4/6 339/4/6 340/4/6
f 340/4/6 339/4/6 341/4/6
f 342/4/6 343/4/6 344/4/6
f 344/4/6 343/4/6 345/4/6
f 346/4/6 347/4/6 348/4/6
f 348/4/6 347/4/6 349/4/6
f 346/4/6 348/4/6 350/4/6
f 350/4/6 348/4/6 351/4/6
f 352/4/6 353/4/6 354/4/6
f 354/4/6 353/4/6 355/4/6
f 356/4/6 357/4/6 358/4/6
f 358/4/6 357/4/6 359/4/6
f 360/4/6 361/4/6 362/4/6
f 362/4/6 361/4/6 363/4/6
f 364/4/6 365/4/6 366/4/6
f 366/4/6 365/4/6 367/4/6
f 368/4/6 369/4/6 370/4/6
f 370/4/6 369/4/6 371/4/6
f 372/3/6 373/3/6 374/3/6
f 374/3/6 373/3/6 375/3/6
f 376/3/6 377/3/6 380/3/6
f 380/3/6 377/3/6 381/3/6
f 378/3/6 379/3/6 382/3/6
f 382/3/6 379/3/6 383/3/6
f 384/3/6 385/3/6 386/3/6
f 386/3/6 385/3/6 387/3/6
f 384/3/6 386/3/6 388/3/6
f 388/3/6 386/3/6 389/3/6
f 390/3/6 391/3/6 392/3/6
f 392/3/6 391/3/6 393/3/6
f 394/3/6 395/3/6 396/3/6
f 396/3/6 395/3/6 397/3/6
f 394/3/6 396/3/6 398/3/6
f 398/3/6 396/3/6 399/3/6
f 400/3/6 401/3/6 402/3/6
f 402/3/6 401/3/6 403/3/6
f 404/3/6 405/3/6 406/3/6
f 406/3/6 405/3/6 407/3/6
f 408/2/6 409/2/6 410/2/6
f 410/2/6 409/2/6 411/2/6
f 408/2/6 410/2/6 412/2/6
f 412/2/6 410/2/6 413/2/6
f 414/2/6 415/2/6 416/2/6
f 416/2/6 415/2/6 417/2/6
f 418/2/6 419/2/6 420/2/6
f 420/2/6 419/2/6 421/2/6
f 422/2/6 423/2/6 424/2/6
f 424/2/6 423/2/6 425/2/6
f 426/2/6 427/2/6 428/2/6
f 428/2/6 427/2/6 429/2/6
f 430/2/6 431/2/6 432/2/6
f 432/2/6 431/2/6 433/2/6
f 434/2/6 435/2/6 436/2/6
f 436/2/6 435/2/6 437/2/6
f 438/2/6 439/2/6 440/2/6
f 440/2/6 439/2/6 441/2/6
f 442/2/6 443/2/6 444/2/6
f 444/2/6 443/2/6 445/2/6
f 442/2/6 444/2/6 446/2/6
f 446/2/6 444/2/6 447/2/6
f 448/1/6 449/1/6 450/1/6
f 450/1/6 449/1/6 451/1/6
f 452/1/6 453/1/6 454/1/6
f 454/1/6 453/1/6 455/1/6
f 456/1/6 457/1/6 458/1/6
f 458/1/6 457/1/6 459/1/6
f 456/1/6 458/1/6 460/1/6
f 460/1/6 458/1/6 461/1/6
f 462/1/6 463/1/6 464/1/6
f 464/1/6 463/1/6 465/1/6
f 466/1/6 467/1/6 468/1/6
f 468/1/6 467/1/6 469/1/6
f 470/1/6 471/1/6 472/1/6
f 472/1/6 471/1/6 473/1/6
