# MagicaVoxel @ Ephtracy

# group
o 

# material
mtllib mountain-edge-outer-1.mtl
usemtl palette

# normals
vn -1 0 0
vn 1 0 0
vn 0 0 1
vn 0 0 -1
vn 0 -1 0
vn 0 1 0

# texcoords
vt 0.982422 0.5
vt 0.986328 0.5
vt 0.990234 0.5
vt 0.994141 0.5

# verts
v -0.4 0 0.4
v -0.4 0 -1.6
v -0.4 0.4 0.2
v -0.4 0.4 -0.5
v -0.4 0.4 -1.3
v -0.4 0.4 -1.6
v -0.4 0.5 0.4
v -0.4 0.5 0.2
v -0.4 0.5 -0.5
v -0.4 0.5 -1.3
v -0.3 0.4 0.2
v -0.3 0.4 -0.5
v -0.3 0.4 -1.3
v -0.3 0.4 -1.6
v -0.3 0.5 0.3
v -0.3 0.5 0.2
v -0.3 0.5 -0.5
v -0.3 0.5 -1.3
v -0.3 0.8 0.3
v -0.3 0.8 -0.2
v -0.3 0.8 -0.8
v -0.3 0.8 -1.6
v -0.3 0.9 -0.2
v -0.3 0.9 -0.8
v -0.2 0.8 0.2
v -0.2 0.8 -0.2
v -0.2 0.8 -0.8
v -0.2 0.8 -1.6
v -0.2 0.9 -0.2
v -0.2 0.9 -0.8
v -0.2 1.2 0.2
v -0.2 1.2 -0.4
v -0.2 1.2 -0.9
v -0.2 1.2 -1.6
v -0.2 1.3 -0.4
v -0.2 1.3 -0.9
v -0.1 1.2 0.1
v -0.1 1.2 -0.4
v -0.1 1.2 -0.9
v -0.1 1.2 -1.6
v -0.1 1.3 -0.4
v -0.1 1.3 -0.9
v -0.1 1.5 -0.2
v -0.1 1.5 -0.7
v -0.1 1.6 0.1
v -0.1 1.6 -0.2
v -0.1 1.6 -0.7
v -0.1 1.6 -1.6
v 0 1.5 -0.2
v 0 1.5 -0.7
v 0 1.6 0
v 0 1.6 -0.2
v 0 1.6 -0.7
v 0 1.6 -1.6
v 0 2 0
v 0 2 -0.3
v 0 2 -0.9
v 0 2 -1.6
v 0 2.1 -0.3
v 0 2.1 -0.9
v 0.1 2 -0.1
v 0.1 2 -0.3
v 0.1 2 -0.9
v 0.1 2 -1.6
v 0.1 2.1 -0.3
v 0.1 2.1 -0.9
v 0.1 2.4 -0.1
v 0.1 2.4 -1.6
v 0.2 2.4 -0.2
v 0.2 2.4 -1.6
v 0.2 2.8 -0.2
v 0.2 2.8 -0.9
v 0.2 2.8 -1.3
v 0.2 2.8 -1.6
v 0.2 2.9 -0.9
v 0.2 2.9 -1.3
v 0.3 2.8 -0.3
v 0.3 2.8 -0.9
v 0.3 2.8 -1.3
v 0.3 2.8 -1.6
v 0.3 2.9 -0.9
v 0.3 2.9 -1.3
v 0.3 3.2 -0.3
v 0.3 3.2 -1.6
v 0.4 2 0
v 0.4 2 -0.1
v 0.4 2.1 0
v 0.4 2.1 -0.1
v 0.9 2.4 -0.1
v 0.9 2.4 -0.2
v 0.9 2.5 -0.1
v 0.9 2.5 -0.2
v 1 1.1 0.2
v 1 1.1 0.1
v 1 1.2 0.2
v 1 1.2 0.1
v 1.2 2.7 -0.2
v 1.2 2.7 -0.3
v 1.2 2.8 -0.2
v 1.2 2.8 -0.3
v 1.3 0.7 0.3
v 1.3 0.7 0.2
v 1.3 0.8 0.3
v 1.3 0.8 0.2
v 0.3 0.4 0.4
v 0.3 0.4 0.3
v 0.3 0.5 0.4
v 0.3 0.5 0.3
v 0.3 1.1 0.2
v 0.3 1.1 0.1
v 0.3 1.2 0.2
v 0.3 1.2 0.1
v 0.6 2.7 -0.2
v 0.6 2.7 -0.3
v 0.6 2.8 -0.2
v 0.6 2.8 -0.3
v 0.7 0.7 0.3
v 0.7 0.7 0.2
v 0.7 0.8 0.3
v 0.7 0.8 0.2
v 1.5 2 0
v 1.5 2 -0.1
v 1.5 2.1 0
v 1.5 2.1 -0.1
v 1.6 0 0.4
v 1.6 0 -1.6
v 1.6 0.4 0.4
v 1.6 0.4 0.3
v 1.6 0.8 0.3
v 1.6 0.8 0.2
v 1.6 0.8 -1.6
v 1.6 1.2 0.2
v 1.6 1.2 0.1
v 1.6 1.6 0.1
v 1.6 1.6 0
v 1.6 1.6 -1.6
v 1.6 2 0
v 1.6 2 -0.1
v 1.6 2.4 -0.2
v 1.6 2.4 -1.6
v 1.6 2.5 -0.1
v 1.6 2.5 -0.2
v 1.6 2.8 -0.2
v 1.6 2.8 -0.3
v 1.6 3.2 -0.3
v 1.6 3.2 -1.6
v -0.4 0 0.4
v -0.4 0.5 0.4
v 0.3 0.4 0.4
v 0.3 0.5 0.4
v 1.6 0 0.4
v 1.6 0.4 0.4
v -0.3 0.5 0.3
v -0.3 0.8 0.3
v 0.3 0.4 0.3
v 0.3 0.5 0.3
v 0.7 0.7 0.3
v 0.7 0.8 0.3
v 1.3 0.7 0.3
v 1.3 0.8 0.3
v 1.6 0.4 0.3
v 1.6 0.8 0.3
v -0.2 0.8 0.2
v -0.2 1.2 0.2
v 0.3 1.1 0.2
v 0.3 1.2 0.2
v 0.7 0.7 0.2
v 0.7 0.8 0.2
v 1 1.1 0.2
v 1 1.2 0.2
v 1.3 0.7 0.2
v 1.3 0.8 0.2
v 1.6 0.8 0.2
v 1.6 1.2 0.2
v -0.1 1.2 0.1
v -0.1 1.6 0.1
v 0.3 1.1 0.1
v 0.3 1.2 0.1
v 1 1.1 0.1
v 1 1.2 0.1
v 1.6 1.2 0.1
v 1.6 1.6 0.1
v 0 1.6 0
v 0 2 0
v 0.4 2 0
v 0.4 2.1 0
v 1.5 2 0
v 1.5 2.1 0
v 1.6 1.6 0
v 1.6 2 0
v 0.1 2 -0.1
v 0.1 2.4 -0.1
v 0.4 2 -0.1
v 0.4 2.1 -0.1
v 0.9 2.4 -0.1
v 0.9 2.5 -0.1
v 1.5 2 -0.1
v 1.5 2.1 -0.1
v 1.6 2 -0.1
v 1.6 2.5 -0.1
v -0.3 0.8 -0.2
v -0.3 0.9 -0.2
v -0.2 0.8 -0.2
v -0.2 0.9 -0.2
v 0.2 2.4 -0.2
v 0.2 2.8 -0.2
v 0.6 2.7 -0.2
v 0.6 2.8 -0.2
v 0.9 2.4 -0.2
v 0.9 2.5 -0.2
v 1.2 2.7 -0.2
v 1.2 2.8 -0.2
v 1.6 2.5 -0.2
v 1.6 2.8 -0.2
v 0 2 -0.3
v 0 2.1 -0.3
v 0.1 2 -0.3
v 0.1 2.1 -0.3
v 0.3 2.8 -0.3
v 0.3 3.2 -0.3
v 0.6 2.7 -0.3
v 0.6 2.8 -0.3
v 1.2 2.7 -0.3
v 1.2 2.8 -0.3
v 1.6 2.8 -0.3
v 1.6 3.2 -0.3
v -0.2 1.2 -0.4
v -0.2 1.3 -0.4
v -0.1 1.2 -0.4
v -0.1 1.3 -0.4
v -0.4 0.4 -0.5
v -0.4 0.5 -0.5
v -0.3 0.4 -0.5
v -0.3 0.5 -0.5
v -0.1 1.5 -0.7
v -0.1 1.6 -0.7
v 0 1.5 -0.7
v 0 1.6 -0.7
v 0.2 2.8 -0.9
v 0.2 2.9 -0.9
v 0.3 2.8 -0.9
v 0.3 2.9 -0.9
v -0.4 0.4 0.2
v -0.4 0.5 0.2
v -0.3 0.4 0.2
v -0.3 0.5 0.2
v -0.1 1.5 -0.2
v -0.1 1.6 -0.2
v 0 1.5 -0.2
v 0 1.6 -0.2
v -0.3 0.8 -0.8
v -0.3 0.9 -0.8
v -0.2 0.8 -0.8
v -0.2 0.9 -0.8
v -0.2 1.2 -0.9
v -0.2 1.3 -0.9
v -0.1 1.2 -0.9
v -0.1 1.3 -0.9
v 0 2 -0.9
v 0 2.1 -0.9
v 0.1 2 -0.9
v 0.1 2.1 -0.9
v -0.4 0.4 -1.3
v -0.4 0.5 -1.3
v -0.3 0.4 -1.3
v -0.3 0.5 -1.3
v 0.2 2.8 -1.3
v 0.2 2.9 -1.3
v 0.3 2.8 -1.3
v 0.3 2.9 -1.3
v -0.4 0 -1.6
v -0.4 0.4 -1.6
v -0.3 0.4 -1.6
v -0.3 0.8 -1.6
v -0.2 0.8 -1.6
v -0.2 1.2 -1.6
v -0.1 1.2 -1.6
v -0.1 1.6 -1.6
v 0 1.6 -1.6
v 0 2 -1.6
v 0.1 2 -1.6
v 0.1 2.4 -1.6
v 0.2 2.4 -1.6
v 0.2 2.8 -1.6
v 0.3 2.8 -1.6
v 0.3 3.2 -1.6
v 1.6 0 -1.6
v 1.6 0.8 -1.6
v 1.6 1.6 -1.6
v 1.6 2.4 -1.6
v 1.6 3.2 -1.6
v -0.4 0 0.4
v 1.6 0 0.4
v -0.4 0 -1.6
v 1.6 0 -1.6
v 0.3 0.4 0.4
v 1.6 0.4 0.4
v 0.3 0.4 0.3
v 1.6 0.4 0.3
v -0.4 0.4 0.2
v -0.3 0.4 0.2
v -0.4 0.4 -0.5
v -0.3 0.4 -0.5
v -0.4 0.4 -1.3
v -0.3 0.4 -1.3
v -0.4 0.4 -1.6
v -0.3 0.4 -1.6
v -0.4 0.5 0.4
v 0.3 0.5 0.4
v -0.3 0.5 0.3
v 0.3 0.5 0.3
v -0.4 0.5 0.2
v -0.3 0.5 0.2
v -0.4 0.5 -0.5
v -0.3 0.5 -0.5
v -0.4 0.5 -1.3
v -0.3 0.5 -1.3
v 0.7 0.7 0.3
v 1.3 0.7 0.3
v 0.7 0.7 0.2
v 1.3 0.7 0.2
v -0.3 0.8 0.3
v 0.7 0.8 0.3
v 1.3 0.8 0.3
v 1.6 0.8 0.3
v -0.2 0.8 0.2
v 0.7 0.8 0.2
v 1.3 0.8 0.2
v 1.6 0.8 0.2
v -0.3 0.8 -0.2
v -0.2 0.8 -0.2
v -0.3 0.8 -0.8
v -0.2 0.8 -0.8
v -0.3 0.8 -1.6
v -0.2 0.8 -1.6
v -0.3 0.9 -0.2
v -0.2 0.9 -0.2
v -0.3 0.9 -0.8
v -0.2 0.9 -0.8
v 0.3 1.1 0.2
v 1 1.1 0.2
v 0.3 1.1 0.1
v 1 1.1 0.1
v -0.2 1.2 0.2
v 0.3 1.2 0.2
v 1 1.2 0.2
v 1.6 1.2 0.2
v -0.1 1.2 0.1
v 0.3 1.2 0.1
v 1 1.2 0.1
v 1.6 1.2 0.1
v -0.2 1.2 -0.4
v -0.1 1.2 -0.4
v -0.2 1.2 -0.9
v -0.1 1.2 -0.9
v -0.2 1.2 -1.6
v -0.1 1.2 -1.6
v -0.2 1.3 -0.4
v -0.1 1.3 -0.4
v -0.2 1.3 -0.9
v -0.1 1.3 -0.9
v -0.1 1.5 -0.2
v 0 1.5 -0.2
v -0.1 1.5 -0.7
v 0 1.5 -0.7
v -0.1 1.6 0.1
v 1.6 1.6 0.1
v 0 1.6 0
v 1.6 1.6 0
v -0.1 1.6 -0.2
v 0 1.6 -0.2
v -0.1 1.6 -0.7
v 0 1.6 -0.7
v -0.1 1.6 -1.6
v 0 1.6 -1.6
v 0 2 0
v 0.4 2 0
v 1.5 2 0
v 1.6 2 0
v 0.1 2 -0.1
v 0.4 2 -0.1
v 1.5 2 -0.1
v 1.6 2 -0.1
v 0 2 -0.3
v 0.1 2 -0.3
v 0 2 -0.9
v 0.1 2 -0.9
v 0 2 -1.6
v 0.1 2 -1.6
v 0.4 2.1 0
v 1.5 2.1 0
v 0.4 2.1 -0.1
v 1.5 2.1 -0.1
v 0 2.1 -0.3
v 0.1 2.1 -0.3
v 0 2.1 -0.9
v 0.1 2.1 -0.9
v 0.1 2.4 -0.1
v 0.9 2.4 -0.1
v 0.2 2.4 -0.2
v 0.9 2.4 -0.2
v 0.1 2.4 -1.6
v 0.2 2.4 -1.6
v 0.9 2.5 -0.1
v 1.6 2.5 -0.1
v 0.9 2.5 -0.2
v 1.6 2.5 -0.2
v 0.6 2.7 -0.2
v 1.2 2.7 -0.2
v 0.6 2.7 -0.3
v 1.2 2.7 -0.3
v 0.2 2.8 -0.2
v 0.6 2.8 -0.2
v 1.2 2.8 -0.2
v 1.6 2.8 -0.2
v 0.3 2.8 -0.3
v 0.6 2.8 -0.3
v 1.2 2.8 -0.3
v 1.6 2.8 -0.3
v 0.2 2.8 -0.9
v 0.3 2.8 -0.9
v 0.2 2.8 -1.3
v 0.3 2.8 -1.3
v 0.2 2.8 -1.6
v 0.3 2.8 -1.6
v 0.2 2.9 -0.9
v 0.3 2.9 -0.9
v 0.2 2.9 -1.3
v 0.3 2.9 -1.3
v 0.3 3.2 -0.3
v 1.6 3.2 -0.3
v 0.3 3.2 -1.6
v 1.6 3.2 -1.6

# faces
f 3/4/1 2/4/1 1/4/1
f 4/4/1 2/4/1 3/4/1
f 5/4/1 2/4/1 4/4/1
f 6/4/1 2/4/1 5/4/1
f 7/4/1 3/4/1 1/4/1
f 8/4/1 3/4/1 7/4/1
f 9/4/1 5/4/1 4/4/1
f 10/4/1 5/4/1 9/4/1
f 16/4/1 12/4/1 11/4/1
f 17/4/1 12/4/1 16/4/1
f 18/4/1 14/4/1 13/4/1
f 19/4/1 17/4/1 16/4/1
f 19/4/1 18/4/1 17/4/1
f 19/4/1 16/4/1 15/4/1
f 20/4/1 18/4/1 19/4/1
f 21/4/1 18/4/1 20/4/1
f 22/4/1 14/4/1 18/4/1
f 22/4/1 18/4/1 21/4/1
f 23/4/1 21/4/1 20/4/1
f 24/4/1 21/4/1 23/4/1
f 29/3/1 26/3/1 25/3/1
f 30/3/1 28/3/1 27/3/1
f 31/3/1 29/3/1 25/3/1
f 31/3/1 30/3/1 29/3/1
f 32/3/1 30/3/1 31/3/1
f 33/3/1 28/3/1 30/3/1
f 33/3/1 30/3/1 32/3/1
f 34/3/1 28/3/1 33/3/1
f 35/3/1 33/3/1 32/3/1
f 36/3/1 33/3/1 35/3/1
f 41/3/1 38/3/1 37/3/1
f 42/3/1 40/3/1 39/3/1
f 43/3/1 41/3/1 37/3/1
f 43/3/1 42/3/1 41/3/1
f 44/3/1 42/3/1 43/3/1
f 45/3/1 43/3/1 37/3/1
f 46/3/1 43/3/1 45/3/1
f 47/3/1 42/3/1 44/3/1
f 48/3/1 40/3/1 42/3/1
f 48/3/1 42/3/1 47/3/1
f 52/2/1 50/2/1 49/2/1
f 53/2/1 50/2/1 52/2/1
f 55/2/1 52/2/1 51/2/1
f 55/2/1 54/2/1 53/2/1
f 55/2/1 53/2/1 52/2/1
f 56/2/1 54/2/1 55/2/1
f 57/2/1 54/2/1 56/2/1
f 58/2/1 54/2/1 57/2/1
f 59/2/1 57/2/1 56/2/1
f 60/2/1 57/2/1 59/2/1
f 65/2/1 62/2/1 61/2/1
f 66/2/1 64/2/1 63/2/1
f 67/2/1 65/2/1 61/2/1
f 67/2/1 66/2/1 65/2/1
f 68/2/1 64/2/1 66/2/1
f 68/2/1 66/2/1 67/2/1
f 71/1/1 70/1/1 69/1/1
f 72/1/1 70/1/1 71/1/1
f 73/1/1 70/1/1 72/1/1
f 74/1/1 70/1/1 73/1/1
f 75/1/1 73/1/1 72/1/1
f 76/1/1 73/1/1 75/1/1
f 81/1/1 78/1/1 77/1/1
f 82/1/1 80/1/1 79/1/1
f 83/1/1 81/1/1 77/1/1
f 83/1/1 82/1/1 81/1/1
f 84/1/1 80/1/1 82/1/1
f 84/1/1 82/1/1 83/1/1
f 87/2/1 86/2/1 85/2/1
f 88/2/1 86/2/1 87/2/1
f 91/2/1 90/2/1 89/2/1
f 92/2/1 90/2/1 91/2/1
f 95/3/1 94/3/1 93/3/1
f 96/3/1 94/3/1 95/3/1
f 99/1/1 98/1/1 97/1/1
f 100/1/1 98/1/1 99/1/1
f 103/4/1 102/4/1 101/4/1
f 104/4/1 102/4/1 103/4/1
f 105/4/2 106/4/2 107/4/2
f 107/4/2 106/4/2 108/4/2
f 109/3/2 110/3/2 111/3/2
f 111/3/2 110/3/2 112/3/2
f 113/1/2 114/1/2 115/1/2
f 115/1/2 114/1/2 116/1/2
f 117/4/2 118/4/2 119/4/2
f 119/4/2 118/4/2 120/4/2
f 121/2/2 122/2/2 123/2/2
f 123/2/2 122/2/2 124/2/2
f 125/4/2 126/4/2 127/4/2
f 127/4/2 126/4/2 128/4/2
f 128/4/2 126/4/2 129/4/2
f 129/4/2 126/4/2 130/4/2
f 130/4/2 126/4/2 131/4/2
f 130/3/2 131/3/2 132/3/2
f 132/3/2 131/3/2 133/3/2
f 133/3/2 131/3/2 134/3/2
f 134/3/2 131/3/2 135/3/2
f 135/3/2 131/3/2 136/3/2
f 135/2/2 136/2/2 137/2/2
f 137/2/2 136/2/2 138/2/2
f 138/2/2 136/2/2 139/2/2
f 139/2/2 136/2/2 140/2/2
f 138/2/2 139/2/2 141/2/2
f 139/1/2 140/1/2 142/1/2
f 141/2/2 139/2/2 142/2/2
f 142/1/2 140/1/2 143/1/2
f 143/1/2 140/1/2 144/1/2
f 144/1/2 140/1/2 145/1/2
f 145/1/2 140/1/2 146/1/2
f 149/4/3 148/4/3 147/4/3
f 150/4/3 148/4/3 149/4/3
f 151/4/3 149/4/3 147/4/3
f 152/4/3 149/4/3 151/4/3
f 156/4/3 154/4/3 153/4/3
f 157/4/3 154/4/3 156/4/3
f 157/4/3 156/4/3 155/4/3
f 158/4/3 154/4/3 157/4/3
f 159/4/3 157/4/3 155/4/3
f 161/4/3 159/4/3 155/4/3
f 161/4/3 160/4/3 159/4/3
f 162/4/3 160/4/3 161/4/3
f 165/3/3 164/3/3 163/3/3
f 166/3/3 164/3/3 165/3/3
f 168/3/3 165/3/3 163/3/3
f 169/3/3 165/3/3 168/3/3
f 169/3/3 168/3/3 167/3/3
f 171/3/3 169/3/3 167/3/3
f 171/3/3 170/3/3 169/3/3
f 172/3/3 170/3/3 171/3/3
f 173/3/3 170/3/3 172/3/3
f 174/3/3 170/3/3 173/3/3
f 178/3/3 176/3/3 175/3/3
f 179/3/3 178/3/3 177/3/3
f 180/3/3 176/3/3 178/3/3
f 180/3/3 178/3/3 179/3/3
f 181/3/3 176/3/3 180/3/3
f 182/3/3 176/3/3 181/3/3
f 185/2/3 184/2/3 183/2/3
f 187/2/3 185/2/3 183/2/3
f 187/2/3 186/2/3 185/2/3
f 188/2/3 186/2/3 187/2/3
f 189/2/3 187/2/3 183/2/3
f 190/2/3 187/2/3 189/2/3
f 193/2/3 192/2/3 191/2/3
f 194/2/3 192/2/3 193/2/3
f 195/2/3 192/2/3 194/2/3
f 198/2/3 195/2/3 194/2/3
f 198/2/3 196/2/3 195/2/3
f 199/2/3 198/2/3 197/2/3
f 200/2/3 196/2/3 198/2/3
f 200/2/3 198/2/3 199/2/3
f 203/4/3 202/4/3 201/4/3
f 204/4/3 202/4/3 203/4/3
f 207/1/3 206/1/3 205/1/3
f 208/1/3 206/1/3 207/1/3
f 209/1/3 207/1/3 205/1/3
f 210/1/3 207/1/3 209/1/3
f 211/1/3 207/1/3 210/1/3
f 213/1/3 211/1/3 210/1/3
f 213/1/3 212/1/3 211/1/3
f 214/1/3 212/1/3 213/1/3
f 217/2/3 216/2/3 215/2/3
f 218/2/3 216/2/3 217/2/3
f 222/1/3 220/1/3 219/1/3
f 223/1/3 222/1/3 221/1/3
f 224/1/3 220/1/3 222/1/3
f 224/1/3 222/1/3 223/1/3
f 225/1/3 220/1/3 224/1/3
f 226/1/3 220/1/3 225/1/3
f 229/3/3 228/3/3 227/3/3
f 230/3/3 228/3/3 229/3/3
f 233/4/3 232/4/3 231/4/3
f 234/4/3 232/4/3 233/4/3
f 237/3/3 236/3/3 235/3/3
f 238/3/3 236/3/3 237/3/3
f 241/1/3 240/1/3 239/1/3
f 242/1/3 240/1/3 241/1/3
f 243/4/4 244/4/4 245/4/4
f 245/4/4 244/4/4 246/4/4
f 247/3/4 248/3/4 249/3/4
f 249/3/4 248/3/4 250/3/4
f 251/4/4 252/4/4 253/4/4
f 253/4/4 252/4/4 254/4/4
f 255/3/4 256/3/4 257/3/4
f 257/3/4 256/3/4 258/3/4
f 259/2/4 260/2/4 261/2/4
f 261/2/4 260/2/4 262/2/4
f 263/4/4 264/4/4 265/4/4
f 265/4/4 264/4/4 266/4/4
f 267/1/4 268/1/4 269/1/4
f 269/1/4 268/1/4 270/1/4
f 271/4/4 272/4/4 273/4/4
f 273/4/4 274/4/4 275/4/4
f 275/3/4 276/3/4 277/3/4
f 277/3/4 278/3/4 279/3/4
f 279/2/4 280/2/4 281/2/4
f 281/2/4 282/2/4 283/2/4
f 283/1/4 284/1/4 285/1/4
f 271/4/4 273/4/4 287/4/4
f 273/4/4 275/4/4 287/4/4
f 275/3/4 277/3/4 288/3/4
f 287/4/4 275/4/4 288/4/4
f 277/3/4 279/3/4 288/3/4
f 281/2/4 283/2/4 289/2/4
f 288/3/4 279/3/4 289/3/4
f 279/2/4 281/2/4 289/2/4
f 285/1/4 286/1/4 290/1/4
f 289/2/4 283/2/4 290/2/4
f 283/1/4 285/1/4 290/1/4
f 290/1/4 286/1/4 291/1/4
f 294/4/5 293/4/5 292/4/5
f 295/4/5 293/4/5 294/4/5
f 296/4/6 297/4/6 298/4/6
f 298/4/6 297/4/6 299/4/6
f 300/4/6 301/4/6 302/4/6
f 302/4/6 301/4/6 303/4/6
f 304/4/6 305/4/6 306/4/6
f 306/4/6 305/4/6 307/4/6
f 308/4/6 309/4/6 310/4/6
f 310/4/6 309/4/6 311/4/6
f 308/4/6 310/4/6 312/4/6
f 312/4/6 310/4/6 313/4/6
f 314/4/6 315/4/6 316/4/6
f 316/4/6 315/4/6 317/4/6
f 318/4/6 319/4/6 320/4/6
f 320/4/6 319/4/6 321/4/6
f 322/4/6 323/4/6 326/4/6
f 326/4/6 323/4/6 327/4/6
f 324/4/6 325/4/6 328/4/6
f 328/4/6 325/4/6 329/4/6
f 322/4/6 326/4/6 330/4/6
f 330/4/6 326/4/6 331/4/6
f 332/4/6 333/4/6 334/4/6
f 334/4/6 333/4/6 335/4/6
f 336/4/6 337/4/6 338/4/6
f 338/4/6 337/4/6 339/4/6
f 340/3/6 341/3/6 342/3/6
f 342/3/6 341/3/6 343/3/6
f 344/3/6 345/3/6 348/3/6
f 348/3/6 345/3/6 349/3/6
f 346/3/6 347/3/6 350/3/6
f 350/3/6 347/3/6 351/3/6
f 344/3/6 348/3/6 352/3/6
f 352/3/6 348/3/6 353/3/6
f 354/3/6 355/3/6 356/3/6
f 356/3/6 355/3/6 357/3/6
f 358/3/6 359/3/6 360/3/6
f 360/3/6 359/3/6 361/3/6
f 362/3/6 363/3/6 364/3/6
f 364/3/6 363/3/6 365/3/6
f 366/3/6 367/3/6 368/3/6
f 368/3/6 367/3/6 369/3/6
f 366/3/6 368/3/6 370/3/6
f 370/3/6 368/3/6 371/3/6
f 372/3/6 373/3/6 374/3/6
f 374/3/6 373/3/6 375/3/6
f 376/2/6 377/2/6 380/2/6
f 380/2/6 377/2/6 381/2/6
f 378/2/6 379/2/6 382/2/6
f 382/2/6 379/2/6 383/2/6
f 376/2/6 380/2/6 384/2/6
f 384/2/6 380/2/6 385/2/6
f 386/2/6 387/2/6 388/2/6
f 388/2/6 387/2/6 389/2/6
f 390/2/6 391/2/6 392/2/6
f 392/2/6 391/2/6 393/2/6
f 394/2/6 395/2/6 396/2/6
f 396/2/6 395/2/6 397/2/6
f 398/2/6 399/2/6 400/2/6
f 400/2/6 399/2/6 401/2/6
f 398/2/6 400/2/6 402/2/6
f 402/2/6 400/2/6 403/2/6
f 404/2/6 405/2/6 406/2/6
f 406/2/6 405/2/6 407/2/6
f 408/1/6 409/1/6 410/1/6
f 410/1/6 409/1/6 411/1/6
f 412/1/6 413/1/6 416/1/6
f 416/1/6 413/1/6 417/1/6
f 414/1/6 415/1/6 418/1/6
f 418/1/6 415/1/6 419/1/6
f 412/1/6 416/1/6 420/1/6
f 420/1/6 416/1/6 421/1/6
f 422/1/6 423/1/6 424/1/6
f 424/1/6 423/1/6 425/1/6
f 426/1/6 427/1/6 428/1/6
f 428/1/6 427/1/6 429/1/6
f 430/1/6 431/1/6 432/1/6
f 432/1/6 431/1/6 433/1/6
